<?xml version="1.0" encoding="UTF-8" standalone="no"?>
<svg
   xmlns:dc="http://purl.org/dc/elements/1.1/"
   xmlns:cc="http://creativecommons.org/ns#"
   xmlns:rdf="http://www.w3.org/1999/02/22-rdf-syntax-ns#"
   xmlns:svg="http://www.w3.org/2000/svg"
   xmlns="http://www.w3.org/2000/svg"
   xmlns:sodipodi="http://sodipodi.sourceforge.net/DTD/sodipodi-0.dtd"
   xmlns:inkscape="http://www.inkscape.org/namespaces/inkscape"
   version="1.1"
   width="791.48108"
   height="791.49921"
   id="svg29062"
   viewBox="0 0 791.48109 791.49914"
   sodipodi:docname="A-12.svg"
   inkscape:version="1.0.2 (e86c870879, 2021-01-15)">
  <metadata
     id="metadata29068">
    <rdf:RDF>
      <cc:Work
         rdf:about="">
        <dc:format>image/svg+xml</dc:format>
        <dc:type
           rdf:resource="http://purl.org/dc/dcmitype/StillImage" />
        <dc:title />
      </cc:Work>
    </rdf:RDF>
  </metadata>
  <defs
     id="defs29066" />
  <sodipodi:namedview
     pagecolor="#ffffff"
     bordercolor="#666666"
     borderopacity="1"
     objecttolerance="10"
     gridtolerance="10"
     guidetolerance="10"
     inkscape:pageopacity="0"
     inkscape:pageshadow="2"
     inkscape:window-width="1920"
     inkscape:window-height="1016"
     id="namedview29064"
     showgrid="false"
     inkscape:zoom="0.049253423"
     inkscape:cx="377.10718"
     inkscape:cy="1365.5935"
     inkscape:window-x="0"
     inkscape:window-y="27"
     inkscape:window-maximized="1"
     inkscape:current-layer="svg29062"
     showguides="false"
     inkscape:document-rotation="0" />
  <g
     id="Layer1069"
     transform="matrix(65.957993,0,0,65.957993,-7940.752,-4749.8313)">
    <path
       d="m 120.654,77.3755 5.0995,-5.0995 c 0.3507,-0.3507 0.9244,-0.3507 1.2748,0 l 5.0998,5.0995 c 0.3503,0.3506 0.3503,0.9244 0,1.275 l -5.0998,5.0995 c -0.3504,0.3507 -0.9241,0.3507 -1.2748,0 l -5.0995,-5.0995 c -0.3506,-0.3506 -0.3506,-0.9244 0,-1.275 z"
       style="fill:#ffec00;fill-rule:evenodd"
       id="path27968" />
    <path
       d="m 120.7564,77.5335 5.1552,-5.1551 c 0.132,-0.132 0.3058,-0.198 0.4795,-0.198 0.1736,0 0.3475,0.066 0.4794,0.198 l 5.1552,5.1551 c 0.132,0.132 0.1979,0.3058 0.1979,0.4795 0,0.1737 -0.0659,0.3475 -0.1979,0.4795 l -5.1552,5.1551 c -0.1319,0.132 -0.3057,0.198 -0.4794,0.198 -0.1737,0 -0.3476,-0.066 -0.4795,-0.198 l -5.1552,-5.1551 c -0.132,-0.132 -0.1979,-0.3058 -0.1979,-0.4795 0,-0.1737 0.0659,-0.3475 0.1979,-0.4795 z m 5.3464,-4.9639 -5.1552,5.1551 c -0.0791,0.0792 -0.1187,0.1837 -0.1187,0.2883 0,0.1046 0.0396,0.2091 0.1187,0.2883 l 5.1552,5.1551 c 0.0791,0.0792 0.1836,0.1187 0.2883,0.1187 0.1046,0 0.2091,-0.0395 0.2882,-0.1187 l 5.1552,-5.1551 c 0.0791,-0.0792 0.1187,-0.1837 0.1187,-0.2883 0,-0.1046 -0.0396,-0.2091 -0.1187,-0.2883 l -5.1552,-5.1551 c -0.0791,-0.0792 -0.1836,-0.1188 -0.2882,-0.1188 -0.1047,0 -0.2092,0.0396 -0.2883,0.1188 z"
       style="fill:#000000;fill-rule:evenodd"
       id="path27970" />
    <g
       id="Layer1070">
      <path
         d="m 126.3734,80.1948 c 0,0.2403 0.0297,0.4292 0.0298,0.6695 1.098,-0.0546 1.8805,-0.5883 2.4243,-1.4659 0.1974,0.1128 0.4712,0.2403 0.6686,0.3531 0.0729,0.0387 0.1692,-0.0217 0.1655,-0.1433 -0.2556,-0.69 -0.38,-1.0609 -0.7296,-2.0355 -0.1143,-0.2733 -0.1617,-0.2974 -0.322,-0.0714 -0.4042,0.4964 -0.8233,0.9707 -1.2275,1.4671 -0.1062,0.1108 -0.1109,0.2335 0.0378,0.2596 0.2571,0.0187 0.2471,0.0145 0.6712,0.0479 -0.3909,0.4239 -0.971,0.8869 -1.7181,0.9189 z"
         style="fill:#000000;fill-rule:evenodd"
         id="path27972" />
      <path
         d="m 128.3353,76.63 c 0.2081,-0.1235 0.3565,-0.2458 0.5647,-0.3694 -0.6119,-0.9045 -1.4767,-1.2948 -2.5165,-1.3058 -0.004,-0.2255 -0.0341,-0.5237 -0.0379,-0.7492 -0.004,-0.0818 -0.1058,-0.1326 -0.2092,-0.0669 -0.4664,0.5716 -0.7238,0.8678 -1.3883,1.6655 -0.178,0.2375 -0.1745,0.2902 0.1037,0.3102 0.6379,0.0882 1.2642,0.2004 1.9021,0.2887 0.1506,0.0333 0.2593,-0.0258 0.2055,-0.1654 -0.116,-0.228 -0.1145,-0.2174 -0.3037,-0.5948 0.5683,0.1142 1.2677,0.369 1.6796,0.9871 z"
         style="fill:#000000;fill-rule:evenodd"
         id="path27974" />
      <path
         d="m 124.3103,76.8889 c -0.2115,-0.1181 -0.3922,-0.1853 -0.6036,-0.3034 -0.4913,0.9738 -0.4061,1.9109 0.0986,2.8112 -0.1961,0.1148 -0.4428,0.2883 -0.639,0.403 -0.0698,0.0439 -0.064,0.1566 0.0448,0.2132 0.7325,0.1187 1.1199,0.1938 2.1488,0.3713 0.2966,0.0358 0.3411,0.0067 0.221,-0.2426 -0.2381,-0.5925 -0.4495,-1.1871 -0.6875,-1.7796 -0.0453,-0.1461 -0.1509,-0.2105 -0.2469,-0.0951 -0.1427,0.2125 -0.1342,0.206 -0.3718,0.5554 -0.1809,-0.5455 -0.3032,-1.2734 0.0356,-1.9334 z"
         style="fill:#000000;fill-rule:evenodd"
         id="path27976" />
    </g>
  </g>
</svg>
