<?xml version="1.0" encoding="UTF-8" standalone="no"?>
<svg
   xmlns:dc="http://purl.org/dc/elements/1.1/"
   xmlns:cc="http://creativecommons.org/ns#"
   xmlns:rdf="http://www.w3.org/1999/02/22-rdf-syntax-ns#"
   xmlns:svg="http://www.w3.org/2000/svg"
   xmlns="http://www.w3.org/2000/svg"
   xmlns:sodipodi="http://sodipodi.sourceforge.net/DTD/sodipodi-0.dtd"
   xmlns:inkscape="http://www.inkscape.org/namespaces/inkscape"
   version="1.1"
   width="791.48108"
   height="791.50085"
   id="svg29062"
   viewBox="0 0 791.48109 791.50079"
   sodipodi:docname="A-14.svg"
   inkscape:version="1.0.2 (e86c870879, 2021-01-15)">
  <metadata
     id="metadata29068">
    <rdf:RDF>
      <cc:Work
         rdf:about="">
        <dc:format>image/svg+xml</dc:format>
        <dc:type
           rdf:resource="http://purl.org/dc/dcmitype/StillImage" />
        <dc:title />
      </cc:Work>
    </rdf:RDF>
  </metadata>
  <defs
     id="defs29066" />
  <sodipodi:namedview
     pagecolor="#ffffff"
     bordercolor="#666666"
     borderopacity="1"
     objecttolerance="10"
     gridtolerance="10"
     guidetolerance="10"
     inkscape:pageopacity="0"
     inkscape:pageshadow="2"
     inkscape:window-width="1518"
     inkscape:window-height="752"
     id="namedview29064"
     showgrid="false"
     inkscape:zoom="0.069654859"
     inkscape:cx="-2434.5108"
     inkscape:cy="1156.7315"
     inkscape:window-x="0"
     inkscape:window-y="114"
     inkscape:window-maximized="0"
     inkscape:current-layer="svg29062"
     showguides="false"
     inkscape:document-rotation="0" />
  <g
     id="Layer1073"
     transform="matrix(65.957993,0,0,65.957993,-10752.37,-4764.6191)">
    <path
       d="m 163.2814,77.5997 5.0995,-5.0995 c 0.3507,-0.3507 0.9244,-0.3507 1.2748,0 l 5.0998,5.0995 c 0.3503,0.3506 0.3503,0.9244 0,1.275 l -5.0998,5.0996 c -0.3504,0.3506 -0.9241,0.3506 -1.2748,0 l -5.0995,-5.0996 c -0.3506,-0.3506 -0.3506,-0.9244 0,-1.275 z"
       style="fill:#ffec00;fill-rule:evenodd"
       id="path27994" />
    <path
       d="m 163.3838,77.7577 5.1552,-5.1551 c 0.132,-0.132 0.3058,-0.198 0.4795,-0.198 0.1737,0 0.3475,0.066 0.4794,0.198 l 5.1552,5.1551 c 0.132,0.132 0.1979,0.3058 0.1979,0.4795 0,0.1737 -0.0659,0.3475 -0.1979,0.4795 l -5.1552,5.1551 c -0.1319,0.132 -0.3057,0.198 -0.4794,0.198 -0.1737,0 -0.3476,-0.066 -0.4795,-0.198 l -5.1552,-5.1551 c -0.132,-0.132 -0.1979,-0.3058 -0.1979,-0.4795 0,-0.1737 0.0659,-0.3475 0.1979,-0.4795 z m 5.3464,-4.9639 -5.1552,5.1551 c -0.0791,0.0792 -0.1187,0.1837 -0.1187,0.2883 0,0.1046 0.0396,0.2091 0.1187,0.2883 l 5.1552,5.1551 c 0.0791,0.0792 0.1836,0.1188 0.2883,0.1188 0.1046,0 0.2091,-0.0396 0.2882,-0.1188 l 5.1552,-5.1551 c 0.0791,-0.0792 0.1187,-0.1837 0.1187,-0.2883 0,-0.1046 -0.0396,-0.2091 -0.1187,-0.2883 l -5.1552,-5.1551 c -0.0791,-0.0792 -0.1836,-0.1187 -0.2882,-0.1187 -0.1047,0 -0.2092,0.0395 -0.2883,0.1187 z"
       style="fill:#000000;fill-rule:evenodd"
       id="path27996" />
    <g
       id="Layer1074">
      <path
         d="m 168.1433,76.2572 c 0,0.4832 0.3919,0.8751 0.8751,0.8751 0.4833,0 0.8752,-0.3919 0.8752,-0.8751 0,-0.4833 -0.3919,-0.8751 -0.8752,-0.8751 -0.4832,0 -0.8751,0.3918 -0.8751,0.8751 z"
         style="fill:#ff0000;fill-rule:evenodd"
         id="path27998" />
      <path
         d="m 168.1433,80.1768 c 0,0.4833 0.3919,0.8752 0.8751,0.8752 0.4833,0 0.8752,-0.3919 0.8752,-0.8752 0,-0.4832 -0.3919,-0.8751 -0.8752,-0.8751 -0.4832,0 -0.8751,0.3919 -0.8751,0.8751 z"
         style="fill:#009933;fill-rule:evenodd"
         id="path28000" />
      <path
         d="m 168.2162,75.1744 h 1.6044 c 0.1605,0 0.2917,0.1312 0.2917,0.2917 v 5.5425 c 0,0.1605 -0.1312,0.2917 -0.2917,0.2917 h -1.6044 c -0.1604,0 -0.2916,-0.1312 -0.2916,-0.2917 v -5.5425 c 0,-0.1605 0.1312,-0.2917 0.2916,-0.2917 z"
         style="fill:none;stroke:#1b1918;stroke-width:0.5669;stroke-linecap:butt;stroke-linejoin:miter;stroke-dasharray:none"
         id="path28002" />
      <path
         d="m 169.0184,75.3821 c 0.4833,0 0.8752,0.3918 0.8752,0.8751 0,0.4832 -0.3919,0.8751 -0.8752,0.8751 -0.4832,0 -0.8751,-0.3919 -0.8751,-0.8751 0,-0.4833 0.3919,-0.8751 0.8751,-0.8751 z m 0,1.98 c 0.4833,0 0.8752,0.3919 0.8752,0.8751 0,0.4832 -0.3919,0.8751 -0.8752,0.8751 -0.4832,0 -0.8751,-0.3919 -0.8751,-0.8751 0,-0.4832 0.3919,-0.8751 0.8751,-0.8751 z m 0.8022,-2.1878 h -1.6043 c -0.1605,0 -0.2918,0.1312 -0.2918,0.2917 v 5.5424 c 0,0.1605 0.1313,0.2917 0.2918,0.2917 h 1.6043 c 0.1605,0 0.2918,-0.1312 0.2918,-0.2917 V 75.466 c 0,-0.1605 -0.1313,-0.2917 -0.2918,-0.2917 z m -0.8022,4.1274 c 0.4833,0 0.8752,0.3919 0.8752,0.8751 0,0.4833 -0.3919,0.8752 -0.8752,0.8752 -0.4832,0 -0.8751,-0.3919 -0.8751,-0.8752 0,-0.4832 0.3919,-0.8751 0.8751,-0.8751 z"
         style="fill:#000000;fill-rule:evenodd"
         id="path28004" />
    </g>
  </g>
</svg>
