<?xml version="1.0" encoding="UTF-8" standalone="no"?>
<svg
   xmlns:dc="http://purl.org/dc/elements/1.1/"
   xmlns:cc="http://creativecommons.org/ns#"
   xmlns:rdf="http://www.w3.org/1999/02/22-rdf-syntax-ns#"
   xmlns:svg="http://www.w3.org/2000/svg"
   xmlns="http://www.w3.org/2000/svg"
   xmlns:sodipodi="http://sodipodi.sourceforge.net/DTD/sodipodi-0.dtd"
   xmlns:inkscape="http://www.inkscape.org/namespaces/inkscape"
   version="1.1"
   width="791.48602"
   height="791.49591"
   id="svg29062"
   viewBox="0 0 791.48603 791.49585"
   sodipodi:docname="A-15.svg"
   inkscape:version="1.0.2 (e86c870879, 2021-01-15)">
  <metadata
     id="metadata29068">
    <rdf:RDF>
      <cc:Work
         rdf:about="">
        <dc:format>image/svg+xml</dc:format>
        <dc:type
           rdf:resource="http://purl.org/dc/dcmitype/StillImage" />
        <dc:title />
      </cc:Work>
    </rdf:RDF>
  </metadata>
  <defs
     id="defs29066" />
  <sodipodi:namedview
     pagecolor="#ffffff"
     bordercolor="#666666"
     borderopacity="1"
     objecttolerance="10"
     gridtolerance="10"
     guidetolerance="10"
     inkscape:pageopacity="0"
     inkscape:pageshadow="2"
     inkscape:window-width="1920"
     inkscape:window-height="1016"
     id="namedview29064"
     showgrid="false"
     inkscape:zoom="0.034827429"
     inkscape:cx="8110.0141"
     inkscape:cy="406.82321"
     inkscape:window-x="0"
     inkscape:window-y="27"
     inkscape:window-maximized="1"
     inkscape:current-layer="svg29062"
     showguides="false"
     inkscape:document-rotation="0" />
  <g
     id="Layer1075"
     transform="matrix(65.957993,0,0,65.957993,-207.84518,-5708.6016)">
    <path
       d="M 3.4142,91.9115 8.5137,86.812 c 0.3507,-0.3506 0.9244,-0.3506 1.2748,0 l 5.0998,5.0995 c 0.3503,0.3507 0.3503,0.9244 0,1.2751 l -5.0998,5.0995 c -0.3504,0.3506 -0.9241,0.3506 -1.2748,0 L 3.4142,93.1866 c -0.3507,-0.3507 -0.3507,-0.9244 0,-1.2751 z"
       style="fill:#ffec00;fill-rule:evenodd"
       id="path28008" />
    <path
       d="m 3.5166,92.0696 5.1552,-5.1552 c 0.1319,-0.132 0.3057,-0.1979 0.4794,-0.1979 0.1737,0 0.3475,0.0659 0.4795,0.1979 l 5.1552,5.1552 c 0.1319,0.1319 0.1979,0.3058 0.1979,0.4795 0,0.1736 -0.066,0.3475 -0.1979,0.4794 l -5.1552,5.1552 c -0.132,0.132 -0.3058,0.1979 -0.4795,0.1979 -0.1737,0 -0.3475,-0.0659 -0.4794,-0.1979 L 3.5166,93.0285 c -0.132,-0.1319 -0.1979,-0.3058 -0.1979,-0.4794 0,-0.1737 0.0659,-0.3476 0.1979,-0.4795 z m 5.3464,-4.964 -5.1552,5.1552 c -0.0791,0.0791 -0.1187,0.1836 -0.1187,0.2883 0,0.1046 0.0396,0.2091 0.1187,0.2882 l 5.1552,5.1552 c 0.0791,0.0791 0.1836,0.1187 0.2882,0.1187 0.1046,0 0.2092,-0.0396 0.2883,-0.1187 l 5.1552,-5.1552 c 0.0791,-0.0791 0.1187,-0.1836 0.1187,-0.2882 0,-0.1047 -0.0396,-0.2092 -0.1187,-0.2883 L 9.4395,87.1056 C 9.3604,87.0265 9.2558,86.9869 9.1512,86.9869 c -0.1046,0 -0.2091,0.0396 -0.2882,0.1187 z"
       style="fill:#000000;fill-rule:evenodd"
       id="path28010" />
    <path
       d="m 7.1361,92.1356 c 0,0.1259 -0.0251,0.2425 -0.0755,0.35 -0.0504,0.1074 -0.1187,0.1893 -0.205,0.2458 -0.027,0.0173 -0.0526,0.032 -0.0769,0.0439 -0.0243,0.012 -0.0495,0.0212 -0.0755,0.0277 -0.0261,0.0065 -0.0549,0.0114 -0.0864,0.0146 -0.0314,0.0033 -0.0678,0.0049 -0.1092,0.0049 H 6.0328 V 93.643 H 5.6767 v -2.1878 h 0.8498 c 0.0755,0 0.1367,0.0065 0.1834,0.0195 0.0468,0.013 0.0953,0.0369 0.1457,0.0716 0.0863,0.0608 0.1546,0.1433 0.205,0.2474 0.0504,0.1042 0.0755,0.2182 0.0755,0.3419 z m -0.3561,0 c 0,-0.0695 -0.0211,-0.1275 -0.0633,-0.1742 -0.0423,-0.0467 -0.0976,-0.07 -0.1659,-0.07 h -0.518 v 0.4949 h 0.518 c 0.0701,0 0.1258,-0.0228 0.1672,-0.0684 C 6.7594,92.2723 6.78,92.2116 6.78,92.1356 Z M 8.7277,93.643 8.5551,93.1286 H 7.8402 L 7.6676,93.643 H 7.2818 l 0.7283,-2.1878 h 0.375 L 9.1135,93.643 Z M 8.2071,92.0802 7.9859,92.6923 h 0.4235 z m 2.3145,1.5628 -0.2482,-0.8205 H 9.7986 v 0.8205 h -0.356 v -2.1878 h 0.8173 c 0.0378,0 0.0715,0.0016 0.1012,0.0048 0.0297,0.0033 0.0575,0.0082 0.0836,0.0147 0.0261,0.0065 0.0508,0.0157 0.0742,0.0277 0.0234,0.0119 0.0477,0.0266 0.0728,0.0439 0.0882,0.0608 0.1574,0.1433 0.2078,0.2474 0.0503,0.1042 0.0755,0.2182 0.0755,0.3419 0,0.1194 -0.0225,0.2301 -0.0675,0.3321 -0.0449,0.102 -0.1088,0.1855 -0.1915,0.2506 l 0.286,0.9247 z m 0,-1.5074 c 0,-0.0695 -0.0216,-0.1275 -0.0647,-0.1742 -0.0432,-0.0467 -0.0981,-0.07 -0.1646,-0.07 H 9.7986 v 0.4949 h 0.4937 c 0.0665,0 0.1214,-0.0228 0.1646,-0.0684 0.0431,-0.0456 0.0647,-0.1063 0.0647,-0.1823 z m 0.7607,1.5074 v -2.1878 h 1.3191 v 0.4362 h -0.963 v 0.3581 h 0.5449 v 0.4363 h -0.5449 v 0.5209 h 0.9873 v 0.4363 z"
       style="fill:#000000;fill-rule:evenodd"
       id="path28012" />
  </g>
</svg>
