<?xml version="1.0" encoding="UTF-8" standalone="no"?>
<svg
   xmlns:dc="http://purl.org/dc/elements/1.1/"
   xmlns:cc="http://creativecommons.org/ns#"
   xmlns:rdf="http://www.w3.org/1999/02/22-rdf-syntax-ns#"
   xmlns:svg="http://www.w3.org/2000/svg"
   xmlns="http://www.w3.org/2000/svg"
   xmlns:sodipodi="http://sodipodi.sourceforge.net/DTD/sodipodi-0.dtd"
   xmlns:inkscape="http://www.inkscape.org/namespaces/inkscape"
   version="1.1"
   width="791.48602"
   height="791.50085"
   id="svg29062"
   viewBox="0 0 791.48603 791.50079"
   sodipodi:docname="A-16.svg"
   inkscape:version="1.0.2 (e86c870879, 2021-01-15)">
  <metadata
     id="metadata29068">
    <rdf:RDF>
      <cc:Work
         rdf:about="">
        <dc:format>image/svg+xml</dc:format>
        <dc:type
           rdf:resource="http://purl.org/dc/dcmitype/StillImage" />
        <dc:title />
      </cc:Work>
    </rdf:RDF>
  </metadata>
  <defs
     id="defs29066" />
  <sodipodi:namedview
     pagecolor="#ffffff"
     bordercolor="#666666"
     borderopacity="1"
     objecttolerance="10"
     gridtolerance="10"
     guidetolerance="10"
     inkscape:pageopacity="0"
     inkscape:pageshadow="2"
     inkscape:window-width="1920"
     inkscape:window-height="1016"
     id="namedview29064"
     showgrid="false"
     inkscape:zoom="0.034827429"
     inkscape:cx="7024.1229"
     inkscape:cy="360.77625"
     inkscape:window-x="0"
     inkscape:window-y="27"
     inkscape:window-maximized="1"
     inkscape:current-layer="svg29062"
     showguides="false"
     inkscape:document-rotation="0" />
  <g
     id="Layer1076"
     transform="matrix(65.957993,0,0,65.957993,-1293.7364,-5754.6486)">
    <path
       d="m 19.8775,92.6097 5.0996,-5.0995 c 0.3506,-0.3507 0.9243,-0.3507 1.2747,0 l 5.0998,5.0995 c 0.3504,0.3507 0.3504,0.9244 0,1.275 l -5.0998,5.0996 c -0.3504,0.3506 -0.9241,0.3506 -1.2747,0 l -5.0996,-5.0996 c -0.3506,-0.3506 -0.3506,-0.9243 0,-1.275 z"
       style="fill:#ffec00;fill-rule:evenodd"
       id="path28015" />
    <path
       d="m 19.98,92.7677 5.1551,-5.1551 c 0.132,-0.132 0.3058,-0.198 0.4795,-0.198 0.1737,0 0.3475,0.066 0.4795,0.198 l 5.1551,5.1551 c 0.132,0.132 0.198,0.3058 0.198,0.4795 0,0.1737 -0.066,0.3475 -0.198,0.4795 l -5.1551,5.1552 c -0.132,0.1319 -0.3058,0.1979 -0.4795,0.1979 -0.1737,0 -0.3475,-0.066 -0.4795,-0.1979 L 19.98,93.7267 c -0.132,-0.132 -0.198,-0.3058 -0.198,-0.4795 0,-0.1737 0.066,-0.3475 0.198,-0.4795 z m 5.3463,-4.9639 -5.1551,5.1552 c -0.0792,0.0791 -0.1188,0.1836 -0.1188,0.2882 0,0.1046 0.0396,0.2091 0.1188,0.2883 l 5.1551,5.1551 c 0.0792,0.0792 0.1837,0.1188 0.2883,0.1188 0.1046,0 0.2091,-0.0396 0.2882,-0.1188 l 5.1552,-5.1551 c 0.0792,-0.0792 0.1187,-0.1837 0.1187,-0.2883 0,-0.1046 -0.0395,-0.2091 -0.1187,-0.2882 l -5.1552,-5.1552 c -0.0791,-0.0791 -0.1836,-0.1187 -0.2882,-0.1187 -0.1046,0 -0.2091,0.0396 -0.2883,0.1187 z"
       style="fill:#000000;fill-rule:evenodd"
       id="path28017" />
    <path
       d="m 27.2172,94.3292 c -0.1745,0 -0.3161,0.1416 -0.3161,0.3161 0,0.1746 0.1416,0.3161 0.3161,0.3161 0.1745,0 0.3161,-0.1415 0.3161,-0.3161 0,-0.1745 -0.1416,-0.3161 -0.3161,-0.3161 z m -2.4605,-4.1346 0.8124,1.4867 c -0.0031,3e-4 -0.0061,5e-4 -0.0091,7e-4 l -0.08,0.1373 -0.5186,-0.0049 -0.1665,0.1517 h -1.4191 c -0.4526,0 -1.0539,-0.0908 -1.15,0.2692 h 0.1223 v 2.2265 h 1.2234 c 0.1762,0 0.2223,-0.2202 0.416,-0.2202 h 0.8808 c 0.1824,0 0.2579,0.2202 0.367,0.2202 h 0.783 c 0.1091,0 0.1846,-0.2202 0.367,-0.2202 h 0.8808 c 0.1824,0 0.2579,0.2202 0.367,0.2202 h 1.2479 v -2.251 h 0.1223 c -0.1846,-0.349 -0.6292,-0.2447 -1.15,-0.2447 -0.4648,0 -0.9297,0 -1.3994,0.005 l -0.1665,-0.1518 h -0.5138 c -0.0307,-0.0579 -0.0642,-0.1107 -0.0987,-0.1631 -9e-4,4e-4 -0.0018,7e-4 -0.0027,0.0011 l -0.826,-1.5116 c -0.0134,-0.0247 -0.0446,-0.0338 -0.0692,-0.0203 -0.0246,0.0134 -0.0337,0.0445 -0.0203,0.0692 z m -1.181,2.045 c 0.0092,0 0.0168,0.0098 0.0168,0.0219 v 2.0273 c 0,0.0121 -0.0076,0.0219 -0.0168,0.0219 h -0.3019 c -0.0093,0 -0.0168,-0.0098 -0.0168,-0.0219 v -2.0273 c 0,-0.0121 0.0075,-0.0219 0.0168,-0.0219 z m 2.5754,0.0023 h 0.5907 c 0.0181,0 0.0328,0.0061 0.0328,0.0136 v 1.2563 c 0,0.0075 -0.0147,0.0136 -0.0328,0.0136 h -0.5907 c -0.018,0 -0.0328,-0.0061 -0.0328,-0.0136 v -1.2563 c 0,-0.0075 0.0148,-0.0136 0.0328,-0.0136 z m 0.7502,1.2699 v -1.2563 c 0,-0.0075 0.0147,-0.0136 0.0328,-0.0136 h 0.5907 c 0.018,0 0.0328,0.0061 0.0328,0.0136 v 1.2563 c 0,0.0075 -0.0148,0.0136 -0.0328,0.0136 h -0.5907 c -0.0181,0 -0.0328,-0.0061 -0.0328,-0.0136 z m 0.7599,0.777 v -2.0273 c 0,-0.0121 0.0075,-0.0219 0.0167,-0.0219 h 0.3019 c 0.0093,0 0.0168,0.0098 0.0168,0.0219 v 2.0273 c 0,0.0121 -0.0075,0.0219 -0.0168,0.0219 h -0.3019 c -0.0092,0 -0.0167,-0.0098 -0.0167,-0.0219 z m 0.4404,0 v -2.0273 c 0,-0.0121 0.0075,-0.0219 0.0167,-0.0219 h 0.302 c 0.0092,0 0.0167,0.0098 0.0167,0.0219 v 2.0273 c 0,0.0121 -0.0075,0.0219 -0.0167,0.0219 h -0.302 c -0.0092,0 -0.0167,-0.0098 -0.0167,-0.0219 z m 0.4425,-0.8493 v -1.185 c 0,-0.0071 0.0052,-0.0128 0.0117,-0.0128 h 0.21 c 0.0064,0 0.0117,0.0057 0.0117,0.0128 v 1.185 c 0,0.007 -0.0053,0.0128 -0.0117,0.0128 h -0.21 c -0.0065,0 -0.0117,-0.0058 -0.0117,-0.0128 z m -2.848,-1.1999 h 0.3019 c 0.0092,0 0.0167,0.0098 0.0167,0.0219 v 2.0273 c 0,0.0121 -0.0075,0.0219 -0.0167,0.0219 h -0.3019 c -0.0093,0 -0.0168,-0.0098 -0.0168,-0.0219 v -2.0273 c 0,-0.0121 0.0075,-0.0219 0.0168,-0.0219 z m -0.1218,0.0219 v 2.0273 c 0,0.0121 -0.0075,0.0219 -0.0167,0.0219 h -0.302 c -0.0092,0 -0.0167,-0.0098 -0.0167,-0.0219 v -2.0273 c 0,-0.0121 0.0075,-0.0219 0.0167,-0.0219 h 0.302 c 0.0092,0 0.0167,0.0098 0.0167,0.0219 z m -0.4512,-0.006 v 1.2563 c 0,0.0075 -0.0148,0.0136 -0.0328,0.0136 h -0.5907 c -0.0181,0 -0.0329,-0.0061 -0.0329,-0.0136 v -1.2563 c 0,-0.0075 0.0148,-0.0136 0.0329,-0.0136 h 0.5907 c 0.018,0 0.0328,0.0061 0.0328,0.0136 z m -0.7708,0 v 1.2563 c 0,0.0075 -0.0147,0.0136 -0.0328,0.0136 h -0.5907 c -0.018,0 -0.0328,-0.0061 -0.0328,-0.0136 v -1.2563 c 0,-0.0075 0.0148,-0.0136 0.0328,-0.0136 h 0.5907 c 0.0181,0 0.0328,0.0061 0.0328,0.0136 z m -1.2041,0.0078 v 2.0274 c 0,0.012 -0.0075,0.0219 -0.0168,0.0219 h -0.3019 c -0.0092,0 -0.0167,-0.0099 -0.0167,-0.0219 v -2.0274 c 0,-0.012 0.0075,-0.0219 0.0167,-0.0219 h 0.3019 c 0.0093,0 0.0168,0.0099 0.0168,0.0219 z m -0.4298,-0.0031 v 1.185 c 0,0.0071 -0.0053,0.0128 -0.0117,0.0128 h -0.21 c -0.0065,0 -0.0117,-0.0057 -0.0117,-0.0128 v -1.185 c 0,-0.007 0.0052,-0.0128 0.0117,-0.0128 h 0.21 c 0.0064,0 0.0117,0.0058 0.0117,0.0128 z m 1.6219,2.3851 c 0,-0.1745 -0.1416,-0.3161 -0.3161,-0.3161 -0.1746,0 -0.3161,0.1416 -0.3161,0.3161 0,0.1746 0.1415,0.3161 0.3161,0.3161 0.1745,0 0.3161,-0.1415 0.3161,-0.3161 z m 0.783,0.0181 c 0,-0.1746 -0.1415,-0.3161 -0.3161,-0.3161 -0.1745,0 -0.3161,0.1415 -0.3161,0.3161 0,0.1745 0.1416,0.3161 0.3161,0.3161 0.1746,0 0.3161,-0.1416 0.3161,-0.3161 z m 1.3109,-0.3342 c -0.1745,0 -0.3161,0.1416 -0.3161,0.3161 0,0.1746 0.1416,0.3161 0.3161,0.3161 0.1746,0 0.3161,-0.1415 0.3161,-0.3161 0,-0.1745 -0.1415,-0.3161 -0.3161,-0.3161 z"
       style="fill:#000000;fill-rule:evenodd"
       id="path28019" />
  </g>
</svg>
