<?xml version="1.0" encoding="UTF-8" standalone="no"?>
<svg
   xmlns:dc="http://purl.org/dc/elements/1.1/"
   xmlns:cc="http://creativecommons.org/ns#"
   xmlns:rdf="http://www.w3.org/1999/02/22-rdf-syntax-ns#"
   xmlns:svg="http://www.w3.org/2000/svg"
   xmlns="http://www.w3.org/2000/svg"
   xmlns:sodipodi="http://sodipodi.sourceforge.net/DTD/sodipodi-0.dtd"
   xmlns:inkscape="http://www.inkscape.org/namespaces/inkscape"
   version="1.1"
   width="791.48602"
   height="791.50085"
   id="svg29062"
   viewBox="0 0 791.48603 791.50079"
   sodipodi:docname="A-17.svg"
   inkscape:version="1.0.2 (e86c870879, 2021-01-15)">
  <metadata
     id="metadata29068">
    <rdf:RDF>
      <cc:Work
         rdf:about="">
        <dc:format>image/svg+xml</dc:format>
        <dc:type
           rdf:resource="http://purl.org/dc/dcmitype/StillImage" />
        <dc:title />
      </cc:Work>
    </rdf:RDF>
  </metadata>
  <defs
     id="defs29066" />
  <sodipodi:namedview
     pagecolor="#ffffff"
     bordercolor="#666666"
     borderopacity="1"
     objecttolerance="10"
     gridtolerance="10"
     guidetolerance="10"
     inkscape:pageopacity="0"
     inkscape:pageshadow="2"
     inkscape:window-width="1920"
     inkscape:window-height="1016"
     id="namedview29064"
     showgrid="false"
     inkscape:zoom="0.049253423"
     inkscape:cx="6000.3823"
     inkscape:cy="-3130.3279"
     inkscape:window-x="0"
     inkscape:window-y="27"
     inkscape:window-maximized="1"
     inkscape:current-layer="svg29062"
     showguides="false"
     inkscape:document-rotation="0" />
  <g
     id="Layer1077"
     transform="matrix(65.957993,0,0,65.957993,-2317.477,-5827.2485)">
    <path
       d="m 35.3986,93.7104 5.0996,-5.0995 c 0.3506,-0.3507 0.9243,-0.3507 1.2747,0 l 5.0998,5.0995 c 0.3504,0.3507 0.3504,0.9244 0,1.275 l -5.0998,5.0996 c -0.3504,0.3506 -0.9241,0.3506 -1.2747,0 l -5.0996,-5.0996 c -0.3506,-0.3506 -0.3506,-0.9243 0,-1.275 z"
       style="fill:#ffec00;fill-rule:evenodd"
       id="path28022" />
    <path
       d="m 35.5011,93.8684 5.1551,-5.1551 c 0.132,-0.132 0.3058,-0.198 0.4795,-0.198 0.1737,0 0.3475,0.066 0.4795,0.198 l 5.1551,5.1551 c 0.132,0.132 0.198,0.3058 0.198,0.4795 0,0.1737 -0.066,0.3475 -0.198,0.4795 l -5.1551,5.1551 c -0.132,0.132 -0.3058,0.198 -0.4795,0.198 -0.1737,0 -0.3475,-0.066 -0.4795,-0.198 l -5.1551,-5.1551 c -0.132,-0.132 -0.198,-0.3058 -0.198,-0.4795 0,-0.1737 0.066,-0.3475 0.198,-0.4795 z m 5.3463,-4.9639 -5.1551,5.1552 c -0.0792,0.0791 -0.1188,0.1836 -0.1188,0.2882 0,0.1046 0.0396,0.2091 0.1188,0.2883 l 5.1551,5.1551 c 0.0792,0.0792 0.1837,0.1188 0.2883,0.1188 0.1046,0 0.2091,-0.0396 0.2883,-0.1188 l 5.1551,-5.1551 c 0.0792,-0.0792 0.1187,-0.1837 0.1187,-0.2883 0,-0.1046 -0.0395,-0.2091 -0.1187,-0.2882 L 41.424,88.9045 c -0.0792,-0.0792 -0.1837,-0.1187 -0.2883,-0.1187 -0.1046,0 -0.2091,0.0395 -0.2883,0.1187 z"
       style="fill:#000000;fill-rule:evenodd"
       id="path28024" />
    <path
       d="m 36.9736,94.3643 v 1.0473 h 8.3242 v -1.0473 c -0.727,-0.1712 -0.3945,-1.0801 -1.328,-1.0801 h -0.1296 c -0.8628,0 -0.661,1.0801 -1.2956,1.0801 -0.6922,0 -0.3996,-1.0801 -1.3603,-1.0801 h -0.1296 c -0.8603,0 -0.6708,1.0801 -1.2632,1.0801 -0.7536,0 -0.419,-1.0801 -1.3928,-1.0801 h -0.0971 c -0.3454,0 -0.6179,0.2367 -0.7448,0.4584 -0.2217,0.3872 -0.0238,0.49 -0.5832,0.6217 z"
       style="fill:#000000;fill-rule:evenodd"
       id="path28026" />
  </g>
</svg>
