<?xml version="1.0" encoding="UTF-8" standalone="no"?>
<svg
   xmlns:dc="http://purl.org/dc/elements/1.1/"
   xmlns:cc="http://creativecommons.org/ns#"
   xmlns:rdf="http://www.w3.org/1999/02/22-rdf-syntax-ns#"
   xmlns:svg="http://www.w3.org/2000/svg"
   xmlns="http://www.w3.org/2000/svg"
   xmlns:sodipodi="http://sodipodi.sourceforge.net/DTD/sodipodi-0.dtd"
   xmlns:inkscape="http://www.inkscape.org/namespaces/inkscape"
   version="1.1"
   width="791.48602"
   height="791.49591"
   id="svg29062"
   viewBox="0 0 791.48603 791.49585"
   sodipodi:docname="A-1b.svg"
   inkscape:version="1.0.2 (e86c870879, 2021-01-15)">
  <metadata
     id="metadata29068">
    <rdf:RDF>
      <cc:Work
         rdf:about="">
        <dc:format>image/svg+xml</dc:format>
        <dc:type
           rdf:resource="http://purl.org/dc/dcmitype/StillImage" />
        <dc:title />
      </cc:Work>
    </rdf:RDF>
  </metadata>
  <defs
     id="defs29066" />
  <sodipodi:namedview
     pagecolor="#ffffff"
     bordercolor="#666666"
     borderopacity="1"
     objecttolerance="10"
     gridtolerance="10"
     guidetolerance="10"
     inkscape:pageopacity="0"
     inkscape:pageshadow="2"
     inkscape:window-width="1920"
     inkscape:window-height="1016"
     id="namedview29064"
     showgrid="false"
     inkscape:zoom="0.049253423"
     inkscape:cx="5030.45"
     inkscape:cy="2721.4262"
     inkscape:window-x="0"
     inkscape:window-y="27"
     inkscape:window-maximized="1"
     inkscape:current-layer="svg29062"
     showguides="false"
     inkscape:document-rotation="0" />
  <g
     id="Layer1052"
     transform="matrix(65.957993,0,0,65.957993,-3287.409,-3764.4568)">
    <path
       d="m 50.1039,62.436 5.0995,-5.0995 c 0.3507,-0.3506 0.9244,-0.3506 1.2748,0 l 5.0998,5.0995 c 0.3504,0.3507 0.3504,0.9244 0,1.2751 l -5.0998,5.0995 c -0.3504,0.3506 -0.9241,0.3506 -1.2748,0 l -5.0995,-5.0995 c -0.3506,-0.3507 -0.3506,-0.9244 0,-1.2751 z"
       style="fill:#ffec00;fill-rule:evenodd"
       id="path27849" />
    <path
       d="m 50.2063,62.5941 5.1552,-5.1552 c 0.132,-0.132 0.3058,-0.1979 0.4795,-0.1979 0.1737,0 0.3475,0.0659 0.4795,0.1979 l 5.1551,5.1552 c 0.132,0.132 0.198,0.3058 0.198,0.4795 0,0.1737 -0.066,0.3475 -0.198,0.4794 l -5.1551,5.1552 c -0.132,0.132 -0.3058,0.1979 -0.4795,0.1979 -0.1737,0 -0.3475,-0.0659 -0.4795,-0.1979 L 50.2063,63.553 c -0.1319,-0.1319 -0.1979,-0.3057 -0.1979,-0.4794 0,-0.1737 0.066,-0.3475 0.1979,-0.4795 z m 5.3464,-4.964 -5.1551,5.1552 c -0.0792,0.0791 -0.1188,0.1837 -0.1188,0.2883 0,0.1046 0.0396,0.2091 0.1188,0.2882 l 5.1551,5.1552 c 0.0792,0.0791 0.1837,0.1187 0.2883,0.1187 0.1046,0 0.2091,-0.0396 0.2882,-0.1187 l 5.1552,-5.1552 c 0.0791,-0.0791 0.1187,-0.1836 0.1187,-0.2882 0,-0.1046 -0.0396,-0.2092 -0.1187,-0.2883 l -5.1552,-5.1552 c -0.0791,-0.0791 -0.1836,-0.1187 -0.2882,-0.1187 -0.1046,0 -0.2091,0.0396 -0.2883,0.1187 z"
       style="fill:#000000;fill-rule:evenodd"
       id="path27851" />
    <path
       d="m 53.663,65.8847 c 2e-4,-1.2808 4e-4,-2.5608 5e-4,-3.8417 0.0094,-0.4207 0.2859,-0.8199 0.8074,-0.8415 0.5477,0 1.1006,0 1.6484,0 -0.1157,-0.2594 -0.2314,-0.5081 -0.3471,-0.7675 -0.0534,-0.118 0.0398,-0.2131 0.1576,-0.1564 0.6781,0.4338 1.3562,0.8675 2.0343,1.3012 0.0731,0.0506 0.073,0.1012 0,0.1517 -0.6656,0.4242 -1.326,0.8483 -1.9915,1.2724 -0.1405,0.1046 -0.2514,0.0108 -0.2008,-0.1224 0.1193,-0.2589 0.2232,-0.5072 0.3425,-0.7662 -0.5082,0 -1.0009,0 -1.5091,0 -0.0552,-0.002 -0.0651,0.0201 -0.0645,0.0788 -1e-4,1.2253 -3e-4,2.4664 -4e-4,3.6916 -0.2924,0.0056 -0.5848,-0.0055 -0.8773,0 z"
       style="fill:#000000;fill-rule:evenodd"
       id="path27853" />
  </g>
</svg>
