<?xml version="1.0" encoding="UTF-8" standalone="no"?>
<svg
   xmlns:dc="http://purl.org/dc/elements/1.1/"
   xmlns:cc="http://creativecommons.org/ns#"
   xmlns:rdf="http://www.w3.org/1999/02/22-rdf-syntax-ns#"
   xmlns:svg="http://www.w3.org/2000/svg"
   xmlns="http://www.w3.org/2000/svg"
   xmlns:sodipodi="http://sodipodi.sourceforge.net/DTD/sodipodi-0.dtd"
   xmlns:inkscape="http://www.inkscape.org/namespaces/inkscape"
   version="1.1"
   width="791.48602"
   height="791.49921"
   id="svg29062"
   viewBox="0 0 791.48603 791.49915"
   sodipodi:docname="A-20a.svg"
   inkscape:version="1.0.2 (e86c870879, 2021-01-15)">
  <metadata
     id="metadata29068">
    <rdf:RDF>
      <cc:Work
         rdf:about="">
        <dc:format>image/svg+xml</dc:format>
        <dc:type
           rdf:resource="http://purl.org/dc/dcmitype/StillImage" />
        <dc:title />
      </cc:Work>
    </rdf:RDF>
  </metadata>
  <defs
     id="defs29066" />
  <sodipodi:namedview
     pagecolor="#ffffff"
     bordercolor="#666666"
     borderopacity="1"
     objecttolerance="10"
     gridtolerance="10"
     guidetolerance="10"
     inkscape:pageopacity="0"
     inkscape:pageshadow="2"
     inkscape:window-width="1920"
     inkscape:window-height="1016"
     id="namedview29064"
     showgrid="false"
     inkscape:zoom="0.049253423"
     inkscape:cx="3134.2091"
     inkscape:cy="5058.24"
     inkscape:window-x="0"
     inkscape:window-y="27"
     inkscape:window-maximized="1"
     inkscape:current-layer="svg29062"
     showguides="false"
     inkscape:document-rotation="0" />
  <g
     id="Layer1080"
     transform="matrix(65.957993,0,0,65.957993,-5183.6502,-5779.7786)">
    <path
       d="m 78.8532,92.9907 5.0995,-5.0995 c 0.3507,-0.3507 0.9244,-0.3507 1.2747,0 l 5.0999,5.0995 c 0.3503,0.3506 0.3503,0.9244 0,1.275 l -5.0999,5.0995 c -0.3503,0.3507 -0.924,0.3507 -1.2747,0 l -5.0995,-5.0995 c -0.3507,-0.3506 -0.3507,-0.9244 0,-1.275 z"
       style="fill:#ffec00;fill-rule:evenodd"
       id="path28043" />
    <path
       d="m 78.9556,93.1487 5.1552,-5.1551 c 0.1319,-0.132 0.3057,-0.198 0.4794,-0.198 0.1737,0 0.3475,0.066 0.4795,0.198 l 5.1552,5.1551 c 0.1319,0.132 0.1979,0.3058 0.1979,0.4795 0,0.1737 -0.066,0.3475 -0.1979,0.4795 l -5.1552,5.1551 c -0.132,0.132 -0.3058,0.198 -0.4795,0.198 -0.1737,0 -0.3475,-0.066 -0.4794,-0.198 l -5.1552,-5.1551 c -0.132,-0.132 -0.198,-0.3058 -0.198,-0.4795 0,-0.1737 0.066,-0.3475 0.198,-0.4795 z m 5.3464,-4.9639 -5.1552,5.1551 c -0.0791,0.0792 -0.1187,0.1837 -0.1187,0.2883 0,0.1046 0.0396,0.2091 0.1187,0.2883 l 5.1552,5.1551 c 0.0791,0.0792 0.1836,0.1187 0.2882,0.1187 0.1046,0 0.2091,-0.0395 0.2883,-0.1187 l 5.1552,-5.1551 c 0.0791,-0.0792 0.1187,-0.1837 0.1187,-0.2883 0,-0.1046 -0.0396,-0.2091 -0.1187,-0.2883 l -5.1552,-5.1551 c -0.0792,-0.0792 -0.1837,-0.1187 -0.2883,-0.1187 -0.1046,0 -0.2091,0.0395 -0.2882,0.1187 z"
       style="fill:#000000;fill-rule:evenodd"
       id="path28045" />
    <g
       id="Layer1081">
      <path
         d="m 87.6322,94.9739 h -6.6139 l 6.6241,-2.3571 z"
         style="fill:#000000;fill-rule:evenodd;stroke:#1b1918;stroke-width:0.216;stroke-linecap:butt;stroke-linejoin:miter;stroke-dasharray:none"
         id="path28047" />
      <g
         id="Layer1082">
        <path
           d="m 83.2821,94.139 c 0.2193,0 0.3982,-0.1789 0.3982,-0.3982 0,-0.2193 -0.1789,-0.3982 -0.3982,-0.3982 -0.2193,0 -0.3982,0.1789 -0.3982,0.3982 0,0.2193 0.1789,0.3982 0.3982,0.3982 z m 0.0029,-0.2558 c 0.08,0 0.1453,-0.0653 0.1453,-0.1453 0,-0.08 -0.0653,-0.1453 -0.1453,-0.1453 -0.08,0 -0.1453,0.0653 -0.1453,0.1453 0,0.08 0.0653,0.1453 0.1453,0.1453 z"
           style="fill:#000000;fill-rule:evenodd"
           id="path28049" />
        <path
           d="m 86.078,93.1335 c 0.2193,0 0.3981,-0.1789 0.3981,-0.3982 0,-0.2193 -0.1788,-0.3982 -0.3981,-0.3982 -0.2194,0 -0.3982,0.1789 -0.3982,0.3982 0,0.2193 0.1788,0.3982 0.3982,0.3982 z m 0.0029,-0.2558 c 0.08,0 0.1453,-0.0653 0.1453,-0.1453 0,-0.08 -0.0653,-0.1453 -0.1453,-0.1453 -0.08,0 -0.1453,0.0653 -0.1453,0.1453 0,0.08 0.0653,0.1453 0.1453,0.1453 z"
           style="fill:#000000;fill-rule:evenodd"
           id="path28051" />
        <path
           d="m 82.8273,93.8948 c -0.1499,-0.6016 0.5898,-0.8806 0.8835,-0.3197 l 1.9067,-0.6859 c -0.1183,-0.6375 0.5774,-0.8564 0.901,-0.3255 l 0.5115,-0.186 -0.0465,-0.1337 -0.0349,0.0232 -0.0291,-0.372 -0.8544,-0.7906 -0.157,-0.0174 -2.331,0.808 -0.5522,0.8894 -1.0114,0.4883 0.0523,0.3313 0.2441,0.2616 -0.0465,0.0174 0.0465,0.1279 z m 1.6508,-1.552 -1.1509,0.3895 -0.0349,-0.1163 0.3778,-0.6104 0.6162,-0.2208 z m 1.2382,-0.4243 -1.1161,0.3836 -0.1918,-0.5522 0.715,-0.2442 0.5406,0.2849 z m 0.1686,-0.6685 -0.5871,0.2034 0.4592,0.2325 0.0814,0.1802 0.6277,-0.2034 -0.4301,-0.4011 z"
           style="fill:#000000;fill-rule:evenodd;stroke:#1b1918;stroke-width:0.216;stroke-linecap:butt;stroke-linejoin:miter;stroke-dasharray:none"
           id="path28053" />
      </g>
    </g>
  </g>
</svg>
