<?xml version="1.0" encoding="UTF-8" standalone="no"?>
<svg
   xmlns:dc="http://purl.org/dc/elements/1.1/"
   xmlns:cc="http://creativecommons.org/ns#"
   xmlns:rdf="http://www.w3.org/1999/02/22-rdf-syntax-ns#"
   xmlns:svg="http://www.w3.org/2000/svg"
   xmlns="http://www.w3.org/2000/svg"
   xmlns:sodipodi="http://sodipodi.sourceforge.net/DTD/sodipodi-0.dtd"
   xmlns:inkscape="http://www.inkscape.org/namespaces/inkscape"
   version="1.1"
   width="791.48602"
   height="791.50085"
   id="svg29062"
   viewBox="0 0 791.48603 791.5008"
   sodipodi:docname="A-20b.svg"
   inkscape:version="1.0.2 (e86c870879, 2021-01-15)">
  <metadata
     id="metadata29068">
    <rdf:RDF>
      <cc:Work
         rdf:about="">
        <dc:format>image/svg+xml</dc:format>
        <dc:type
           rdf:resource="http://purl.org/dc/dcmitype/StillImage" />
        <dc:title />
      </cc:Work>
    </rdf:RDF>
  </metadata>
  <defs
     id="defs29066" />
  <sodipodi:namedview
     pagecolor="#ffffff"
     bordercolor="#666666"
     borderopacity="1"
     objecttolerance="10"
     gridtolerance="10"
     guidetolerance="10"
     inkscape:pageopacity="0"
     inkscape:pageshadow="2"
     inkscape:window-width="1920"
     inkscape:window-height="1016"
     id="namedview29064"
     showgrid="false"
     inkscape:zoom="0.049253423"
     inkscape:cx="2251.5345"
     inkscape:cy="-2084.3351"
     inkscape:window-x="0"
     inkscape:window-y="27"
     inkscape:window-maximized="1"
     inkscape:current-layer="svg29062"
     showguides="false"
     inkscape:document-rotation="0" />
  <g
     id="Layer1083"
     transform="matrix(65.957993,0,0,65.957993,-6066.3248,-5736.121)">
    <path
       d="m 92.2355,92.3288 5.0996,-5.0995 c 0.3506,-0.3507 0.9243,-0.3507 1.2747,0 l 5.0998,5.0995 c 0.3504,0.3506 0.3504,0.9244 0,1.275 l -5.0998,5.0996 c -0.3504,0.3506 -0.9241,0.3506 -1.2747,0 l -5.0996,-5.0996 c -0.3506,-0.3506 -0.3506,-0.9244 0,-1.275 z"
       style="fill:#ffec00;fill-rule:evenodd"
       id="path28058" />
    <path
       d="m 92.338,92.4868 5.1551,-5.1551 c 0.132,-0.132 0.3058,-0.198 0.4795,-0.198 0.1737,0 0.3475,0.066 0.4795,0.198 l 5.1551,5.1551 c 0.132,0.132 0.198,0.3058 0.198,0.4795 0,0.1737 -0.066,0.3475 -0.198,0.4795 l -5.1551,5.1551 c -0.132,0.132 -0.3058,0.198 -0.4795,0.198 -0.1737,0 -0.3475,-0.066 -0.4795,-0.198 L 92.338,93.4458 C 92.206,93.3138 92.14,93.14 92.14,92.9663 c 0,-0.1737 0.066,-0.3475 0.198,-0.4795 z m 5.3463,-4.9639 -5.1551,5.1551 c -0.0792,0.0792 -0.1188,0.1837 -0.1188,0.2883 0,0.1046 0.0396,0.2091 0.1188,0.2883 l 5.1551,5.1551 c 0.0792,0.0792 0.1837,0.1188 0.2883,0.1188 0.1046,0 0.2091,-0.0396 0.2883,-0.1188 l 5.1551,-5.1551 c 0.0792,-0.0792 0.1187,-0.1837 0.1187,-0.2883 0,-0.1046 -0.0395,-0.2091 -0.1187,-0.2883 l -5.1551,-5.1551 c -0.0792,-0.0792 -0.1837,-0.1187 -0.2883,-0.1187 -0.1046,0 -0.2091,0.0395 -0.2883,0.1187 z"
       style="fill:#000000;fill-rule:evenodd"
       id="path28060" />
    <g
       id="Layer1084">
      <path
         d="m 94.6707,94.6604 h 6.6139 l -6.6241,-2.3571 z"
         style="fill:#000000;fill-rule:evenodd;stroke:#1b1918;stroke-width:0.216;stroke-linecap:butt;stroke-linejoin:miter;stroke-dasharray:none"
         id="path28062" />
      <path
         d="m 96.1325,92.8263 c 0.1701,0.1384 0.4217,0.1126 0.5601,-0.0575 0.1385,-0.1701 0.1127,-0.4217 -0.0574,-0.5602 -0.1701,-0.1384 -0.4218,-0.1126 -0.5602,0.0575 -0.1385,0.1701 -0.1126,0.4217 0.0575,0.5602 z m 0.1637,-0.1966 c 0.062,0.0505 0.1539,0.0411 0.2044,-0.021 0.0505,-0.062 0.0411,-0.1539 -0.021,-0.2044 -0.062,-0.0505 -0.1539,-0.0411 -0.2044,0.021 -0.0505,0.062 -0.0411,0.1539 0.021,0.2044 z"
         style="fill:#000000;fill-rule:evenodd"
         id="path28064" />
      <path
         d="m 98.9356,93.8113 c 0.1701,0.1385 0.4217,0.1127 0.5601,-0.0574 0.1385,-0.1701 0.1127,-0.4218 -0.0574,-0.5602 -0.1701,-0.1385 -0.4218,-0.1127 -0.5602,0.0574 -0.1385,0.1701 -0.1126,0.4218 0.0575,0.5602 z m 0.1637,-0.1965 c 0.062,0.0505 0.1539,0.0411 0.2044,-0.021 0.0505,-0.062 0.0411,-0.1539 -0.021,-0.2044 -0.062,-0.0505 -0.1539,-0.0411 -0.2044,0.0209 -0.0505,0.0621 -0.0411,0.154 0.021,0.2045 z"
         style="fill:#000000;fill-rule:evenodd"
         id="path28066" />
      <path
         d="m 95.9338,92.3498 c 0.2635,-0.5613 1.0133,-0.3107 0.8871,0.3098 l 1.9117,0.6716 c 0.3107,-0.5691 0.9885,-0.2998 0.9043,0.3163 l 0.5142,0.1786 0.0483,-0.1331 -0.0417,-0.0039 0.2123,-0.3069 -0.1637,-1.1526 -0.1107,-0.1126 -2.3179,-0.8447 -0.9897,0.3411 -1.0927,-0.2597 -0.1686,0.29 0.0242,0.357 -0.0471,-0.0159 -0.0446,0.1286 z m 2.2601,-0.1616 -1.1385,-0.4245 0.0463,-0.1122 0.6784,-0.2349 0.6173,0.2177 z m 1.2282,0.4524 -1.1078,-0.4069 0.1998,-0.5494 0.7086,0.262 0.2395,0.5621 z m 0.5527,-0.412 -0.5838,-0.2128 0.2094,0.4702 -0.0506,0.1911 0.6153,0.2385 -0.0804,-0.5826 z"
         style="fill:#000000;fill-rule:evenodd;stroke:#1b1918;stroke-width:0.216;stroke-linecap:butt;stroke-linejoin:miter;stroke-dasharray:none"
         id="path28068" />
    </g>
  </g>
</svg>
