<?xml version="1.0" encoding="UTF-8" standalone="no"?>
<svg
   xmlns:dc="http://purl.org/dc/elements/1.1/"
   xmlns:cc="http://creativecommons.org/ns#"
   xmlns:rdf="http://www.w3.org/1999/02/22-rdf-syntax-ns#"
   xmlns:svg="http://www.w3.org/2000/svg"
   xmlns="http://www.w3.org/2000/svg"
   xmlns:sodipodi="http://sodipodi.sourceforge.net/DTD/sodipodi-0.dtd"
   xmlns:inkscape="http://www.inkscape.org/namespaces/inkscape"
   version="1.1"
   width="791.48602"
   height="791.50085"
   id="svg29062"
   viewBox="0 0 791.48603 791.5008"
   sodipodi:docname="A-21d.svg"
   inkscape:version="1.0.2 (e86c870879, 2021-01-15)">
  <metadata
     id="metadata29068">
    <rdf:RDF>
      <cc:Work
         rdf:about="">
        <dc:format>image/svg+xml</dc:format>
        <dc:type
           rdf:resource="http://purl.org/dc/dcmitype/StillImage" />
        <dc:title />
      </cc:Work>
    </rdf:RDF>
  </metadata>
  <defs
     id="defs29066" />
  <sodipodi:namedview
     pagecolor="#ffffff"
     bordercolor="#666666"
     borderopacity="1"
     objecttolerance="10"
     gridtolerance="10"
     guidetolerance="10"
     inkscape:pageopacity="0"
     inkscape:pageshadow="2"
     inkscape:window-width="1518"
     inkscape:window-height="752"
     id="namedview29064"
     showgrid="false"
     inkscape:zoom="0.049253423"
     inkscape:cx="-1497.2755"
     inkscape:cy="-485.96053"
     inkscape:window-x="0"
     inkscape:window-y="114"
     inkscape:window-maximized="0"
     inkscape:current-layer="svg29062"
     showguides="false"
     inkscape:document-rotation="0" />
  <g
     id="Layer1091"
     transform="matrix(65.957993,0,0,65.957993,-9815.1347,-5754.6486)">
    <path
       d="m 149.0719,92.6097 5.0995,-5.0995 c 0.3507,-0.3507 0.9244,-0.3507 1.2748,0 l 5.0998,5.0995 c 0.3503,0.3507 0.3503,0.9244 0,1.275 l -5.0998,5.0996 c -0.3504,0.3506 -0.9241,0.3506 -1.2748,0 l -5.0995,-5.0996 c -0.3507,-0.3506 -0.3507,-0.9243 0,-1.275 z"
       style="fill:#ffec00;fill-rule:evenodd"
       id="path28102" />
    <path
       d="m 149.1743,92.7677 5.1552,-5.1551 c 0.1319,-0.132 0.3057,-0.198 0.4794,-0.198 0.1737,0 0.3475,0.066 0.4795,0.198 l 5.1552,5.1551 c 0.1319,0.132 0.1979,0.3058 0.1979,0.4795 0,0.1737 -0.066,0.3475 -0.1979,0.4795 l -5.1552,5.1552 c -0.132,0.1319 -0.3058,0.1979 -0.4795,0.1979 -0.1737,0 -0.3475,-0.066 -0.4794,-0.1979 l -5.1552,-5.1552 c -0.132,-0.132 -0.198,-0.3058 -0.198,-0.4795 0,-0.1737 0.066,-0.3475 0.198,-0.4795 z m 5.3464,-4.9639 -5.1552,5.1552 c -0.0791,0.0791 -0.1187,0.1836 -0.1187,0.2882 0,0.1046 0.0396,0.2091 0.1187,0.2883 l 5.1552,5.1551 c 0.0791,0.0792 0.1836,0.1188 0.2882,0.1188 0.1046,0 0.2092,-0.0396 0.2883,-0.1188 l 5.1552,-5.1551 c 0.0791,-0.0792 0.1187,-0.1837 0.1187,-0.2883 0,-0.1046 -0.0396,-0.2091 -0.1187,-0.2882 l -5.1552,-5.1552 c -0.0791,-0.0791 -0.1837,-0.1187 -0.2883,-0.1187 -0.1046,0 -0.2091,0.0396 -0.2882,0.1187 z"
       style="fill:#000000;fill-rule:evenodd"
       id="path28104" />
    <g
       id="Layer1092">
      <path
         d="m 155.686,96.1644 h 0.9011 v -5.8329 h -0.9011 z"
         style="fill:#000000;fill-rule:evenodd"
         id="path28106" />
      <path
         d="m 153.4552,93.3057 -0.4243,-0.4243 v -2.5512 h 0.901 v 2.1824 l 0.675,0.675 0.1307,0.1307 v 2.8449 h -0.9011 v -2.4761 z"
         style="fill:#000000;fill-rule:evenodd"
         id="path28108" />
    </g>
  </g>
</svg>
