<?xml version="1.0" encoding="UTF-8" standalone="no"?>
<svg
   xmlns:dc="http://purl.org/dc/elements/1.1/"
   xmlns:cc="http://creativecommons.org/ns#"
   xmlns:rdf="http://www.w3.org/1999/02/22-rdf-syntax-ns#"
   xmlns:svg="http://www.w3.org/2000/svg"
   xmlns="http://www.w3.org/2000/svg"
   xmlns:sodipodi="http://sodipodi.sourceforge.net/DTD/sodipodi-0.dtd"
   xmlns:inkscape="http://www.inkscape.org/namespaces/inkscape"
   version="1.1"
   width="791.48602"
   height="791.49591"
   id="svg29062"
   viewBox="0 0 791.48603 791.49586"
   sodipodi:docname="A-21c.svg"
   inkscape:version="1.0.2 (e86c870879, 2021-01-15)">
  <metadata
     id="metadata29068">
    <rdf:RDF>
      <cc:Work
         rdf:about="">
        <dc:format>image/svg+xml</dc:format>
        <dc:type
           rdf:resource="http://purl.org/dc/dcmitype/StillImage" />
        <dc:title />
      </cc:Work>
    </rdf:RDF>
  </metadata>
  <defs
     id="defs29066" />
  <sodipodi:namedview
     pagecolor="#ffffff"
     bordercolor="#666666"
     borderopacity="1"
     objecttolerance="10"
     gridtolerance="10"
     guidetolerance="10"
     inkscape:pageopacity="0"
     inkscape:pageshadow="2"
     inkscape:window-width="1920"
     inkscape:window-height="1016"
     id="namedview29064"
     showgrid="false"
     inkscape:zoom="0.049253423"
     inkscape:cx="-560.10307"
     inkscape:cy="-1720.7133"
     inkscape:window-x="0"
     inkscape:window-y="27"
     inkscape:window-maximized="1"
     inkscape:current-layer="svg29062"
     showguides="false"
     inkscape:document-rotation="0" />
  <g
     id="Layer1089"
     transform="matrix(65.957993,0,0,65.957993,-8877.9623,-5736.0863)">
    <path
       d="m 134.8632,92.3282 5.0996,-5.0995 c 0.3506,-0.3506 0.9243,-0.3506 1.2747,0 l 5.0998,5.0995 c 0.3504,0.3507 0.3504,0.9244 0,1.2751 l -5.0998,5.0995 c -0.3504,0.3506 -0.9241,0.3506 -1.2747,0 l -5.0996,-5.0995 c -0.3506,-0.3507 -0.3506,-0.9244 0,-1.2751 z"
       style="fill:#ffec00;fill-rule:evenodd"
       id="path28092" />
    <path
       d="m 134.9656,92.4863 5.1552,-5.1552 c 0.132,-0.132 0.3058,-0.198 0.4795,-0.198 0.1737,0 0.3475,0.066 0.4795,0.198 l 5.1551,5.1552 c 0.132,0.1319 0.198,0.3057 0.198,0.4794 0,0.1737 -0.066,0.3475 -0.198,0.4795 l -5.1551,5.1552 c -0.132,0.1319 -0.3058,0.1979 -0.4795,0.1979 -0.1737,0 -0.3475,-0.066 -0.4795,-0.1979 l -5.1552,-5.1552 c -0.1319,-0.132 -0.1979,-0.3058 -0.1979,-0.4795 0,-0.1737 0.066,-0.3475 0.1979,-0.4794 z m 5.3464,-4.964 -5.1551,5.1552 c -0.0792,0.0791 -0.1188,0.1836 -0.1188,0.2882 0,0.1046 0.0396,0.2092 0.1188,0.2883 l 5.1551,5.1552 c 0.0792,0.0791 0.1837,0.1187 0.2883,0.1187 0.1046,0 0.2091,-0.0396 0.2882,-0.1187 l 5.1552,-5.1552 c 0.0792,-0.0791 0.1187,-0.1837 0.1187,-0.2883 0,-0.1046 -0.0395,-0.2091 -0.1187,-0.2882 l -5.1552,-5.1552 c -0.0791,-0.0791 -0.1836,-0.1187 -0.2882,-0.1187 -0.1046,0 -0.2091,0.0396 -0.2883,0.1187 z"
       style="fill:#000000;fill-rule:evenodd"
       id="path28094" />
    <g
       id="Layer1090">
      <path
         d="m 139.7232,90.0486 h -0.9011 v 5.8329 h 0.9011 z"
         style="fill:#000000;fill-rule:evenodd"
         id="path28096" />
      <path
         d="m 141.954,92.9072 0.4243,0.4243 v 2.5513 h -0.901 v -2.1824 l -0.675,-0.675 -0.1306,-0.1307 v -2.8449 h 0.901 v 2.4761 z"
         style="fill:#000000;fill-rule:evenodd"
         id="path28098" />
    </g>
  </g>
</svg>
