<?xml version="1.0" encoding="UTF-8" standalone="no"?>
<svg
   xmlns:dc="http://purl.org/dc/elements/1.1/"
   xmlns:cc="http://creativecommons.org/ns#"
   xmlns:rdf="http://www.w3.org/1999/02/22-rdf-syntax-ns#"
   xmlns:svg="http://www.w3.org/2000/svg"
   xmlns="http://www.w3.org/2000/svg"
   xmlns:sodipodi="http://sodipodi.sourceforge.net/DTD/sodipodi-0.dtd"
   xmlns:inkscape="http://www.inkscape.org/namespaces/inkscape"
   version="1.1"
   width="791.48602"
   height="791.50085"
   id="svg29062"
   viewBox="0 0 791.48603 791.5008"
   sodipodi:docname="A-22.svg"
   inkscape:version="1.0.2 (e86c870879, 2021-01-15)">
  <metadata
     id="metadata29068">
    <rdf:RDF>
      <cc:Work
         rdf:about="">
        <dc:format>image/svg+xml</dc:format>
        <dc:type
           rdf:resource="http://purl.org/dc/dcmitype/StillImage" />
        <dc:title />
      </cc:Work>
    </rdf:RDF>
  </metadata>
  <defs
     id="defs29066" />
  <sodipodi:namedview
     pagecolor="#ffffff"
     bordercolor="#666666"
     borderopacity="1"
     objecttolerance="10"
     gridtolerance="10"
     guidetolerance="10"
     inkscape:pageopacity="0"
     inkscape:pageshadow="2"
     inkscape:window-width="1920"
     inkscape:window-height="1016"
     id="namedview29064"
     showgrid="false"
     inkscape:zoom="0.049253423"
     inkscape:cx="8110.0142"
     inkscape:cy="-570.66106"
     inkscape:window-x="0"
     inkscape:window-y="27"
     inkscape:window-maximized="1"
     inkscape:current-layer="svg29062"
     showguides="false"
     inkscape:document-rotation="0" />
  <g
     id="Layer1095"
     transform="matrix(65.957993,0,0,65.957993,-207.84518,-6686.0859)">
    <path
       d="m 3.4142,106.7314 5.0995,-5.0996 c 0.3507,-0.3506 0.9244,-0.3506 1.2748,0 l 5.0998,5.0996 c 0.3503,0.3506 0.3503,0.9243 0,1.275 l -5.0998,5.0995 c -0.3504,0.3507 -0.9241,0.3507 -1.2748,0 l -5.0995,-5.0995 c -0.3507,-0.3507 -0.3507,-0.9244 0,-1.275 z"
       style="fill:#ffec00;fill-rule:evenodd"
       id="path28122" />
    <path
       d="m 3.5166,106.8894 5.1552,-5.1552 c 0.1319,-0.1319 0.3057,-0.1979 0.4794,-0.1979 0.1737,0 0.3475,0.066 0.4795,0.1979 l 5.1552,5.1552 c 0.1319,0.132 0.1979,0.3058 0.1979,0.4795 0,0.1737 -0.066,0.3475 -0.1979,0.4794 l -5.1552,5.1552 c -0.132,0.132 -0.3058,0.198 -0.4795,0.198 -0.1737,0 -0.3475,-0.066 -0.4794,-0.198 l -5.1552,-5.1552 c -0.132,-0.1319 -0.1979,-0.3057 -0.1979,-0.4794 0,-0.1737 0.0659,-0.3475 0.1979,-0.4795 z m 5.3464,-4.964 -5.1552,5.1552 c -0.0791,0.0791 -0.1187,0.1837 -0.1187,0.2883 0,0.1046 0.0396,0.2091 0.1187,0.2882 l 5.1552,5.1552 c 0.0791,0.0791 0.1836,0.1187 0.2882,0.1187 0.1046,0 0.2092,-0.0396 0.2883,-0.1187 l 5.1552,-5.1552 c 0.0791,-0.0791 0.1187,-0.1836 0.1187,-0.2882 0,-0.1046 -0.0396,-0.2092 -0.1187,-0.2883 l -5.1552,-5.1552 c -0.0791,-0.0791 -0.1837,-0.1187 -0.2883,-0.1187 -0.1046,0 -0.2091,0.0396 -0.2882,0.1187 z"
       style="fill:#000000;fill-rule:evenodd"
       id="path28124" />
    <g
       id="Layer1096">
      <path
         d="m 8.3302,109.7873 0.3218,-0.617 v -3.5882 l -0.2967,-0.5688 -0.3368,-0.6458 -0.8487,0.4512 0.5191,0.9952 v 3.1245 l -0.5125,0.9825 0.8487,0.4512 z"
         style="fill:#000000;fill-rule:evenodd"
         id="path28126" />
      <path
         d="m 9.9723,109.7854 -0.3218,-0.617 v -3.5882 l 0.2966,-0.5687 0.3369,-0.6459 0.8487,0.4512 -0.5191,0.9952 v 3.1246 l 0.5124,0.9825 -0.8487,0.4512 z"
         style="fill:#000000;fill-rule:evenodd"
         id="path28128" />
    </g>
  </g>
</svg>
