<?xml version="1.0" encoding="UTF-8" standalone="no"?>
<svg
   xmlns:dc="http://purl.org/dc/elements/1.1/"
   xmlns:cc="http://creativecommons.org/ns#"
   xmlns:rdf="http://www.w3.org/1999/02/22-rdf-syntax-ns#"
   xmlns:svg="http://www.w3.org/2000/svg"
   xmlns="http://www.w3.org/2000/svg"
   xmlns:sodipodi="http://sodipodi.sourceforge.net/DTD/sodipodi-0.dtd"
   xmlns:inkscape="http://www.inkscape.org/namespaces/inkscape"
   version="1.1"
   width="791.48602"
   height="791.49921"
   id="svg29062"
   viewBox="0 0 791.48603 791.49915"
   sodipodi:docname="A-23.svg"
   inkscape:version="1.0.2 (e86c870879, 2021-01-15)">
  <metadata
     id="metadata29068">
    <rdf:RDF>
      <cc:Work
         rdf:about="">
        <dc:format>image/svg+xml</dc:format>
        <dc:type
           rdf:resource="http://purl.org/dc/dcmitype/StillImage" />
        <dc:title />
      </cc:Work>
    </rdf:RDF>
  </metadata>
  <defs
     id="defs29066" />
  <sodipodi:namedview
     pagecolor="#ffffff"
     bordercolor="#666666"
     borderopacity="1"
     objecttolerance="10"
     gridtolerance="10"
     guidetolerance="10"
     inkscape:pageopacity="0"
     inkscape:pageshadow="2"
     inkscape:window-width="1920"
     inkscape:window-height="1016"
     id="namedview29064"
     showgrid="false"
     inkscape:zoom="0.049253423"
     inkscape:cx="7024.1231"
     inkscape:cy="-610.20452"
     inkscape:window-x="0"
     inkscape:window-y="27"
     inkscape:window-maximized="1"
     inkscape:current-layer="svg29062"
     showguides="false"
     inkscape:document-rotation="0" />
  <g
     id="Layer1097"
     transform="matrix(65.957993,0,0,65.957993,-1293.7364,-6725.6294)">
    <path
       d="m 19.8775,107.3309 5.0996,-5.0995 c 0.3506,-0.3507 0.9243,-0.3507 1.2747,0 l 5.0998,5.0995 c 0.3504,0.3506 0.3504,0.9244 0,1.275 l -5.0998,5.0995 c -0.3504,0.3507 -0.9241,0.3507 -1.2747,0 l -5.0996,-5.0995 c -0.3506,-0.3506 -0.3506,-0.9244 0,-1.275 z"
       style="fill:#ffec00;fill-rule:evenodd"
       id="path28132" />
    <path
       d="m 19.98,107.4889 5.1551,-5.1551 c 0.132,-0.132 0.3058,-0.198 0.4795,-0.198 0.1737,0 0.3475,0.066 0.4795,0.198 l 5.1551,5.1551 c 0.132,0.132 0.198,0.3058 0.198,0.4795 0,0.1737 -0.066,0.3475 -0.198,0.4795 l -5.1551,5.1551 c -0.132,0.132 -0.3058,0.198 -0.4795,0.198 -0.1737,0 -0.3475,-0.066 -0.4795,-0.198 L 19.98,108.4479 c -0.132,-0.132 -0.198,-0.3058 -0.198,-0.4795 0,-0.1737 0.066,-0.3475 0.198,-0.4795 z m 5.3463,-4.9639 -5.1551,5.1551 c -0.0792,0.0792 -0.1188,0.1837 -0.1188,0.2883 0,0.1046 0.0396,0.2091 0.1188,0.2883 l 5.1551,5.1551 c 0.0792,0.0792 0.1837,0.1187 0.2883,0.1187 0.1046,0 0.2091,-0.0395 0.2882,-0.1187 l 5.1552,-5.1551 c 0.0792,-0.0792 0.1187,-0.1837 0.1187,-0.2883 0,-0.1046 -0.0395,-0.2091 -0.1187,-0.2883 l -5.1552,-5.1551 c -0.0791,-0.0792 -0.1836,-0.1188 -0.2882,-0.1188 -0.1046,0 -0.2091,0.0396 -0.2883,0.1188 z"
       style="fill:#000000;fill-rule:evenodd"
       id="path28134" />
    <g
       id="Layer1098">
      <path
         d="m 23.706,106.8086 0.4753,0.0111 0.0192,0.4835 0.9432,-0.9544 -0.4933,-0.48 z"
         style="fill:#000000;fill-rule:evenodd"
         id="path28136" />
      <path
         d="m 26.1135,106.3488 0.9624,0.9351 v -0.4642 l 0.4708,-0.007 -0.9417,-0.9559 z"
         style="fill:#000000;fill-rule:evenodd"
         id="path28138" />
      <path
         d="m 27.3217,108.4855 2.4031,-1e-4 -0.9285,-1.4199 h -1.4746 z"
         style="fill:#000000;fill-rule:evenodd"
         id="path28140" />
      <path
         d="m 23.9075,108.484 h -2.4032 l 0.9285,-1.42 h 1.4747 z"
         style="fill:#000000;fill-rule:evenodd"
         id="path28142" />
      <path
         d="m 23.9124,108.921 c 0.0149,0.01 0.0328,0.0197 0.0431,0.0251 0.1743,0.0919 0.407,0.0705 0.5587,-0.0656 0.0115,-0.0103 0.0151,-0.0191 0.0292,-0.0294 l 0.014,0.015 c 0.0057,0.006 0.0104,0.0111 0.0168,0.0164 0.0326,0.027 0.074,0.0566 0.1147,0.0739 0.0669,0.0285 0.1281,0.0442 0.2059,0.0446 0.1409,6e-4 0.2272,-0.0376 0.3248,-0.1144 0.0139,-0.0109 0.0209,-0.0238 0.0335,-0.0342 0.0134,0.006 0.0903,0.1121 0.266,0.1412 0.0285,0.005 0.0575,0.008 0.0855,0.009 0.2475,0.004 0.3505,-0.1418 0.3662,-0.1485 0.0126,0.0104 0.0195,0.0233 0.0334,0.0342 0.0974,0.0769 0.1835,0.1151 0.324,0.1144 0.0777,-4e-4 0.1387,-0.0161 0.2055,-0.0446 0.0405,-0.0173 0.0818,-0.0469 0.1144,-0.0739 0.0063,-0.005 0.0111,-0.01 0.0167,-0.0163 l 0.014,-0.0151 c 0.014,0.0103 0.0177,0.0192 0.0291,0.0294 0.1513,0.1362 0.3835,0.1575 0.5574,0.0657 0.0141,-0.008 0.0429,-0.0236 0.0581,-0.0361 v -0.1754 c -0.0149,0.0147 -0.0374,0.0313 -0.0517,0.0406 -0.0223,0.0146 -0.0524,0.031 -0.0801,0.0417 -0.0634,0.0245 -0.136,0.0357 -0.2101,0.0291 -0.1208,-0.0108 -0.2076,-0.0562 -0.284,-0.1362 l -0.0298,-0.0323 c -0.0276,0.0449 -0.0944,0.0948 -0.1398,0.118 -0.1631,0.0835 -0.3638,0.0661 -0.4988,-0.0483 -0.0139,-0.0118 -0.0229,-0.0175 -0.0352,-0.0313 l -0.0281,-0.0352 -0.0014,-0.006 c -0.001,0.002 -0.0022,0.004 -0.0035,0.006 -0.0281,0.0305 -0.0487,0.0546 -0.0779,0.0772 -0.0058,0.004 -0.0117,0.009 -0.0176,0.0128 -0.0128,0.009 -0.0273,0.0171 -0.0445,0.0257 -0.0379,0.0191 -0.0777,0.0329 -0.1183,0.0413 -0.1006,0.0193 -0.2057,0.004 -0.2993,-0.0426 -0.07,-0.0352 -0.0958,-0.0676 -0.1401,-0.1155 -7e-4,-10e-4 -0.0014,-0.002 -0.002,-0.004 l -0.0313,0.0382 c -0.0122,0.0138 -0.0213,0.0194 -0.0352,0.0312 -0.1354,0.1145 -0.3366,0.1319 -0.5,0.0484 -0.0455,-0.0233 -0.1125,-0.0731 -0.1402,-0.118 l -0.0298,0.0322 c -0.0767,0.08 -0.1637,0.1254 -0.2847,0.1362 -0.0743,0.007 -0.1471,-0.005 -0.2106,-0.0291 -0.0278,-0.0107 -0.058,-0.027 -0.0804,-0.0416 -0.009,-0.006 -0.0215,-0.0148 -0.0332,-0.0243 v 0.127 c 0,0.0146 -0.0012,0.029 -0.0034,0.043 z"
         style="fill:#000000;fill-rule:evenodd"
         id="path28144" />
      <path
         d="m 23.8958,109.4511 c 0.0149,0.01 0.0328,0.0197 0.0431,0.0251 0.1743,0.0919 0.407,0.0705 0.5587,-0.0656 0.0115,-0.0103 0.0151,-0.0192 0.0292,-0.0295 l 0.014,0.0151 c 0.0056,0.006 0.0104,0.0111 0.0168,0.0163 0.0326,0.027 0.074,0.0567 0.1147,0.074 0.0669,0.0284 0.1281,0.0442 0.2059,0.0445 0.1409,7e-4 0.2272,-0.0375 0.3248,-0.1144 0.0139,-0.0109 0.0209,-0.0238 0.0335,-0.0341 0.0134,0.006 0.0903,0.112 0.266,0.1411 0.0285,0.005 0.0575,0.008 0.0855,0.009 0.2475,0.004 0.3505,-0.1418 0.3662,-0.1485 0.0125,0.0104 0.0195,0.0233 0.0334,0.0342 0.0974,0.0768 0.1835,0.115 0.324,0.1144 0.0777,-4e-4 0.1387,-0.0161 0.2055,-0.0446 0.0405,-0.0173 0.0818,-0.0469 0.1144,-0.0739 0.0063,-0.005 0.0111,-0.01 0.0167,-0.0164 l 0.014,-0.015 c 0.014,0.0103 0.0177,0.0191 0.0291,0.0294 0.1513,0.1361 0.3835,0.1575 0.5574,0.0656 0.0141,-0.008 0.0429,-0.0236 0.0581,-0.036 v -0.1754 c -0.0149,0.0146 -0.0374,0.0312 -0.0517,0.0405 -0.0223,0.0147 -0.0524,0.031 -0.0801,0.0417 -0.0634,0.0246 -0.136,0.0358 -0.2101,0.0291 -0.1208,-0.0108 -0.2076,-0.0562 -0.284,-0.1362 l -0.0298,-0.0322 c -0.0276,0.0449 -0.0944,0.0947 -0.1398,0.118 -0.1631,0.0835 -0.3638,0.0661 -0.4988,-0.0484 -0.0139,-0.0118 -0.0229,-0.0174 -0.0352,-0.0312 l -0.0281,-0.0352 -0.0014,-0.006 c -0.001,0.002 -0.0022,0.004 -0.0035,0.006 -0.0281,0.0305 -0.0487,0.0547 -0.0779,0.0773 -0.0058,0.004 -0.0117,0.009 -0.0176,0.0127 -0.0128,0.009 -0.0273,0.0171 -0.0445,0.0258 -0.0379,0.0191 -0.0777,0.0329 -0.1183,0.0413 -0.1006,0.0193 -0.2057,0.004 -0.2993,-0.0427 -0.07,-0.0352 -0.0958,-0.0675 -0.1401,-0.1155 -7e-4,-10e-4 -0.0014,-0.002 -0.002,-0.004 l -0.0313,0.0382 c -0.0122,0.0137 -0.0213,0.0194 -0.0352,0.0312 -0.1354,0.1144 -0.3366,0.1318 -0.5,0.0484 -0.0455,-0.0233 -0.1125,-0.0731 -0.1402,-0.1181 l -0.0298,0.0323 c -0.0767,0.08 -0.1637,0.1254 -0.2847,0.1362 -0.0743,0.007 -0.1471,-0.005 -0.2106,-0.0291 -0.0278,-0.0107 -0.058,-0.0271 -0.0804,-0.0417 -0.009,-0.006 -0.0215,-0.0148 -0.0332,-0.0242 v 0.1269 c 0,0.0147 -0.0012,0.0291 -0.0034,0.0431 z"
         style="fill:#000000;fill-rule:evenodd"
         id="path28146" />
      <path
         d="m 23.9094,109.9972 c 0.0149,0.01 0.0329,0.0197 0.0432,0.0252 0.1742,0.0918 0.407,0.0704 0.5587,-0.0657 0.0114,-0.0102 0.0151,-0.0191 0.0292,-0.0294 l 0.014,0.015 c 0.0056,0.006 0.0104,0.0111 0.0167,0.0164 0.0327,0.027 0.074,0.0566 0.1147,0.0739 0.0669,0.0285 0.1281,0.0442 0.206,0.0446 0.1408,7e-4 0.2272,-0.0376 0.3248,-0.1144 0.0139,-0.0109 0.0209,-0.0238 0.0334,-0.0342 0.0134,0.006 0.0903,0.1121 0.2661,0.1412 0.0284,0.005 0.0575,0.008 0.0854,0.009 0.2475,0.004 0.3506,-0.1418 0.3663,-0.1484 0.0125,0.0103 0.0195,0.0232 0.0333,0.0341 0.0974,0.0769 0.1836,0.1151 0.3241,0.1144 0.0776,-3e-4 0.1387,-0.0161 0.2054,-0.0445 0.0406,-0.0173 0.0818,-0.047 0.1144,-0.074 0.0064,-0.005 0.0111,-0.01 0.0168,-0.0163 l 0.0139,-0.0151 c 0.0141,0.0103 0.0177,0.0192 0.0291,0.0295 0.1514,0.1361 0.3836,0.1575 0.5574,0.0656 0.0142,-0.008 0.043,-0.0236 0.0582,-0.0361 v -0.1753 c -0.0149,0.0146 -0.0375,0.0312 -0.0517,0.0405 -0.0224,0.0146 -0.0525,0.031 -0.0802,0.0417 -0.0634,0.0245 -0.136,0.0357 -0.2101,0.0291 -0.1207,-0.0108 -0.2075,-0.0562 -0.284,-0.1362 l -0.0297,-0.0323 c -0.0276,0.0449 -0.0945,0.0948 -0.1399,0.1181 -0.163,0.0834 -0.3638,0.066 -0.4988,-0.0484 -0.0139,-0.0118 -0.0229,-0.0175 -0.0351,-0.0312 l -0.0281,-0.0352 -0.0014,-0.006 c -0.0011,0.002 -0.0022,0.004 -0.0035,0.006 -0.0282,0.0305 -0.0487,0.0547 -0.0779,0.0773 -0.0059,0.004 -0.0118,0.009 -0.0176,0.0127 -0.0128,0.009 -0.0273,0.0171 -0.0445,0.0257 -0.0379,0.0191 -0.0778,0.0329 -0.1184,0.0413 -0.1005,0.0194 -0.2056,0.004 -0.2992,-0.0426 -0.0701,-0.0352 -0.0958,-0.0675 -0.1401,-0.1155 -8e-4,-0.001 -0.0014,-0.002 -0.0021,-0.004 l -0.0312,0.0381 c -0.0123,0.0138 -0.0213,0.0195 -0.0353,0.0312 -0.1353,0.1145 -0.3365,0.1319 -0.5,0.0484 -0.0455,-0.0232 -0.1125,-0.0731 -0.1402,-0.118 l -0.0298,0.0323 c -0.0766,0.08 -0.1636,0.1254 -0.2847,0.1362 -0.0743,0.007 -0.1471,-0.005 -0.2106,-0.0292 -0.0277,-0.0107 -0.0579,-0.027 -0.0803,-0.0416 -0.0091,-0.006 -0.0215,-0.0148 -0.0332,-0.0243 v 0.127 c 0,0.0146 -0.0012,0.029 -0.0035,0.043 z"
         style="fill:#000000;fill-rule:evenodd"
         id="path28148" />
    </g>
  </g>
</svg>
