<?xml version="1.0" encoding="UTF-8" standalone="no"?>
<svg
   xmlns:dc="http://purl.org/dc/elements/1.1/"
   xmlns:cc="http://creativecommons.org/ns#"
   xmlns:rdf="http://www.w3.org/1999/02/22-rdf-syntax-ns#"
   xmlns:svg="http://www.w3.org/2000/svg"
   xmlns="http://www.w3.org/2000/svg"
   xmlns:sodipodi="http://sodipodi.sourceforge.net/DTD/sodipodi-0.dtd"
   xmlns:inkscape="http://www.inkscape.org/namespaces/inkscape"
   version="1.1"
   width="791.48602"
   height="791.50085"
   id="svg29062"
   viewBox="0 0 791.48603 791.5008"
   sodipodi:docname="A-24.svg"
   inkscape:version="1.0.2 (e86c870879, 2021-01-15)">
  <metadata
     id="metadata29068">
    <rdf:RDF>
      <cc:Work
         rdf:about="">
        <dc:format>image/svg+xml</dc:format>
        <dc:type
           rdf:resource="http://purl.org/dc/dcmitype/StillImage" />
        <dc:title />
      </cc:Work>
    </rdf:RDF>
  </metadata>
  <defs
     id="defs29066" />
  <sodipodi:namedview
     pagecolor="#ffffff"
     bordercolor="#666666"
     borderopacity="1"
     objecttolerance="10"
     gridtolerance="10"
     guidetolerance="10"
     inkscape:pageopacity="0"
     inkscape:pageshadow="2"
     inkscape:window-width="1920"
     inkscape:window-height="1016"
     id="namedview29064"
     showgrid="false"
     inkscape:zoom="0.049253423"
     inkscape:cx="6000.3825"
     inkscape:cy="-578.12087"
     inkscape:window-x="0"
     inkscape:window-y="27"
     inkscape:window-maximized="1"
     inkscape:current-layer="svg29062"
     showguides="false"
     inkscape:document-rotation="0" />
  <g
     id="Layer1099"
     transform="matrix(65.957993,0,0,65.957993,-2317.477,-6693.5457)">
    <path
       d="m 35.3986,106.8445 5.0996,-5.0996 c 0.3506,-0.3506 0.9243,-0.3506 1.2747,0 l 5.0998,5.0996 c 0.3504,0.3506 0.3504,0.9243 0,1.275 l -5.0998,5.0995 c -0.3504,0.3507 -0.9241,0.3507 -1.2747,0 l -5.0996,-5.0995 c -0.3506,-0.3507 -0.3506,-0.9244 0,-1.275 z"
       style="fill:#ff6600;fill-rule:evenodd"
       id="path28152" />
    <path
       d="m 35.5011,107.0025 5.1551,-5.1552 c 0.132,-0.1319 0.3058,-0.1979 0.4795,-0.1979 0.1737,0 0.3475,0.066 0.4795,0.1979 l 5.1551,5.1552 c 0.132,0.132 0.198,0.3058 0.198,0.4795 0,0.1737 -0.066,0.3475 -0.198,0.4794 l -5.1551,5.1552 c -0.132,0.132 -0.3058,0.198 -0.4795,0.198 -0.1737,0 -0.3475,-0.066 -0.4795,-0.198 l -5.1551,-5.1552 c -0.132,-0.1319 -0.198,-0.3057 -0.198,-0.4794 0,-0.1737 0.066,-0.3475 0.198,-0.4795 z m 5.3463,-4.964 -5.1551,5.1552 c -0.0792,0.0792 -0.1188,0.1837 -0.1188,0.2883 0,0.1046 0.0396,0.2091 0.1188,0.2882 l 5.1551,5.1552 c 0.0792,0.0791 0.1837,0.1187 0.2883,0.1187 0.1046,0 0.2091,-0.0396 0.2883,-0.1187 l 5.1551,-5.1552 c 0.0792,-0.0791 0.1187,-0.1836 0.1187,-0.2882 0,-0.1046 -0.0395,-0.2092 -0.1187,-0.2883 l -5.1551,-5.1552 c -0.0792,-0.0791 -0.1837,-0.1187 -0.2883,-0.1187 -0.1046,0 -0.2091,0.0396 -0.2883,0.1187 z"
       style="fill:#000000;fill-rule:evenodd"
       id="path28154" />
    <g
       id="Layer1100">
      <path
         d="m 40.5049,104.8956 v 0.1327 c -0.0451,0.0105 -0.1326,0.0421 -0.1326,0.0884 0,0.0338 0.0146,0.0704 0.0448,0.0704 l 0.2205,-0.0262 c 0.0376,0.1617 0.1993,0.3316 0.3979,0.3316 h 0.0663 c 0.2554,0 0.4421,-0.1697 0.4421,-0.42 v -0.1106 c 0,-0.0762 -0.0164,-0.0855 -0.0221,-0.1547 0.0492,-0.0131 0.0663,-0.005 0.0663,-0.0663 0,-0.0196 -0.1773,-0.1905 -0.2073,-0.2127 -0.071,-0.0523 -0.2138,-0.1189 -0.3232,-0.1189 -0.2805,0 -0.5527,0.219 -0.5527,0.4863 z"
         style="fill:#000000;fill-rule:evenodd"
         id="path28156" />
      <path
         d="m 40.5934,107.7693 c 0.0389,-0.1457 0.2314,-0.3058 0.2877,-0.508 0.0362,-0.1298 0.1291,-0.4989 0.1323,-0.6414 0.0804,0.0538 0.284,0.7337 0.2873,0.8842 z m 2.096,-0.8403 c -0.0401,0.0237 -0.2295,0.1109 -0.2834,0.1109 -0.0321,0 -0.2624,-0.9566 -0.2653,-1.0832 l 0.5716,0.2504 0.0032,0.3464 z m -3.0466,1.2161 c -0.1288,-0.0681 -0.2499,-0.1547 -0.4421,-0.1547 h -0.0884 c -0.246,0 -0.3979,0.2462 -0.3976,0.5313 l -0.1147,0.0448 0.0509,0.1383 1.5004,-0.6039 c 0.0351,0.0186 0.0998,0.0663 0.1326,0.0663 h 0.0663 c 0.1342,0 0.1768,-0.083 0.1801,-0.213 l 0.8146,-0.3175 c -0.061,0.2619 -0.4642,1.1376 -0.4642,1.3263 0,0.3345 -0.0631,1.5916 0.2211,1.5916 h 0.1547 c 0.2402,0 0.1995,-1.0098 0.199,-1.2821 -7e-4,-0.31 0.059,-0.3582 0.1723,-0.5571 0.0857,-0.1503 0.1663,-0.3627 0.2698,-0.4818 0.0254,0.3054 0.2403,1.0275 0.3445,1.2912 0.0729,0.1845 0.4379,1.0298 0.606,1.0298 h 0.0663 c 0.1514,0 0.2211,-0.1108 0.2211,-0.2652 0,-0.0749 -0.2475,-0.6941 -0.2915,-0.7917 -0.1339,-0.2973 -0.1411,-0.5336 -0.2036,-0.9017 -0.0556,-0.3277 -0.0728,-0.6488 -0.1375,-0.9678 -0.0187,-0.0925 -0.0984,-0.4113 -0.0445,-0.4465 0.1958,-0.1277 0.2752,-0.0534 0.4118,-0.0534 0.1127,0 0.144,-0.0405 0.1714,-0.116 0.0463,-0.1277 0.0553,-0.0693 0.1824,-0.1271 0.1054,-0.048 0.3324,-0.1514 0.4473,-0.178 l -0.0331,-0.1462 -0.569,0.2136 v -0.3095 c 0,-0.5904 0.1187,-0.482 -0.3612,-0.722 -0.1079,-0.054 -0.6957,-0.3612 -0.7662,-0.3612 -0.2177,0 -0.7589,0.2474 -0.9285,0.3316 -0.3069,0.1524 -0.3133,0.4993 -0.3713,0.8886 -0.0654,0.4384 -0.1674,0.5911 -0.3288,0.9313 -0.0295,0.0623 -0.1799,0.4176 -0.2077,0.4334 -0.1054,0.0601 -0.3423,0.1206 -0.4627,0.1783 z"
         style="fill:#000000;fill-rule:evenodd"
         id="path28158" />
    </g>
  </g>
</svg>
