<?xml version="1.0" encoding="UTF-8" standalone="no"?>
<svg
   xmlns:dc="http://purl.org/dc/elements/1.1/"
   xmlns:cc="http://creativecommons.org/ns#"
   xmlns:rdf="http://www.w3.org/1999/02/22-rdf-syntax-ns#"
   xmlns:svg="http://www.w3.org/2000/svg"
   xmlns="http://www.w3.org/2000/svg"
   xmlns:sodipodi="http://sodipodi.sourceforge.net/DTD/sodipodi-0.dtd"
   xmlns:inkscape="http://www.inkscape.org/namespaces/inkscape"
   version="1.1"
   width="791.48602"
   height="791.49591"
   id="svg29062"
   viewBox="0 0 791.48603 791.49586"
   sodipodi:docname="A-25.svg"
   inkscape:version="1.0.2 (e86c870879, 2021-01-15)">
  <metadata
     id="metadata29068">
    <rdf:RDF>
      <cc:Work
         rdf:about="">
        <dc:format>image/svg+xml</dc:format>
        <dc:type
           rdf:resource="http://purl.org/dc/dcmitype/StillImage" />
        <dc:title />
      </cc:Work>
    </rdf:RDF>
  </metadata>
  <defs
     id="defs29066" />
  <sodipodi:namedview
     pagecolor="#ffffff"
     bordercolor="#666666"
     borderopacity="1"
     objecttolerance="10"
     gridtolerance="10"
     guidetolerance="10"
     inkscape:pageopacity="0"
     inkscape:pageshadow="2"
     inkscape:window-width="1920"
     inkscape:window-height="1016"
     id="namedview29064"
     showgrid="false"
     inkscape:zoom="0.049253423"
     inkscape:cx="5030.4505"
     inkscape:cy="-567.40934"
     inkscape:window-x="0"
     inkscape:window-y="27"
     inkscape:window-maximized="1"
     inkscape:current-layer="svg29062"
     showguides="false"
     inkscape:document-rotation="0" />
  <g
     id="Layer1101"
     transform="matrix(65.957993,0,0,65.957993,-3287.409,-6682.8342)">
    <path
       d="m 50.1039,106.682 5.0995,-5.0995 c 0.3507,-0.3506 0.9244,-0.3506 1.2748,0 l 5.0998,5.0995 c 0.3504,0.3507 0.3504,0.9244 0,1.2751 l -5.0998,5.0995 c -0.3504,0.3506 -0.9241,0.3506 -1.2748,0 l -5.0995,-5.0995 c -0.3506,-0.3507 -0.3506,-0.9244 0,-1.2751 z"
       style="fill:#ffec00;fill-rule:evenodd"
       id="path28162" />
    <path
       d="m 50.2063,106.8401 5.1552,-5.1552 c 0.132,-0.132 0.3058,-0.198 0.4795,-0.198 0.1737,0 0.3475,0.066 0.4795,0.198 l 5.1551,5.1552 c 0.132,0.1319 0.198,0.3057 0.198,0.4794 0,0.1737 -0.066,0.3475 -0.198,0.4795 l -5.1551,5.1552 c -0.132,0.1319 -0.3058,0.1979 -0.4795,0.1979 -0.1737,0 -0.3475,-0.066 -0.4795,-0.1979 l -5.1552,-5.1552 c -0.1319,-0.132 -0.1979,-0.3058 -0.1979,-0.4795 0,-0.1737 0.066,-0.3475 0.1979,-0.4794 z m 5.3464,-4.964 -5.1551,5.1552 c -0.0792,0.0791 -0.1188,0.1836 -0.1188,0.2882 0,0.1046 0.0396,0.2091 0.1188,0.2883 l 5.1551,5.1552 c 0.0792,0.0791 0.1837,0.1187 0.2883,0.1187 0.1046,0 0.2091,-0.0396 0.2882,-0.1187 l 5.1552,-5.1552 c 0.0791,-0.0791 0.1187,-0.1837 0.1187,-0.2883 0,-0.1046 -0.0396,-0.2091 -0.1187,-0.2882 l -5.1552,-5.1552 c -0.0791,-0.0791 -0.1836,-0.1187 -0.2882,-0.1187 -0.1046,0 -0.2091,0.0396 -0.2883,0.1187 z"
       style="fill:#000000;fill-rule:evenodd"
       id="path28164" />
    <g
       id="Layer1102">
      <path
         d="m 57.3199,110.4979 -0.904,6e-4 -5e-4,-4.7687 -0.4129,0.2062 c -0.0624,0.028 -0.1344,0.009 -0.1777,-0.0467 -0.0433,-0.0558 -0.0477,-0.1353 -0.011,-0.1963 l 1.0369,-1.5405 c 0,0 0,0 0,0 0.0082,-0.0111 0.022,-0.0177 0.0369,-0.0177 0.0148,-1e-4 0.0285,0.007 0.0367,0.0174 l 1.0383,1.5394 c 0.0369,0.0609 0.0325,0.1405 -0.0107,0.1963 -0.0433,0.0558 -0.1153,0.0748 -0.1776,0.0469 l -0.4571,-0.2046 z"
         style="fill:#000000;fill-rule:evenodd"
         id="path28166" />
      <path
         d="m 55.2253,104.2341 -0.9041,-6e-4 -4e-4,4.699 -0.413,-0.2031 c -0.0623,-0.0276 -0.1343,-0.009 -0.1776,0.046 -0.0433,0.055 -0.0478,0.1334 -0.011,0.1934 l 1.0368,1.518 c 1e-4,0 1e-4,1e-4 1e-4,1e-4 0.0081,0.0109 0.022,0.0174 0.0368,0.0174 0.0148,0 0.0286,-0.006 0.0367,-0.0172 l 1.0384,-1.5169 c 0.0368,-0.06 0.0325,-0.1384 -0.0108,-0.1934 -0.0432,-0.055 -0.1152,-0.0738 -0.1776,-0.0463 l -0.457,0.2017 z"
         style="fill:#000000;fill-rule:evenodd"
         id="path28168" />
    </g>
  </g>
</svg>
