<?xml version="1.0" encoding="UTF-8" standalone="no"?>
<svg
   xmlns:dc="http://purl.org/dc/elements/1.1/"
   xmlns:cc="http://creativecommons.org/ns#"
   xmlns:rdf="http://www.w3.org/1999/02/22-rdf-syntax-ns#"
   xmlns:svg="http://www.w3.org/2000/svg"
   xmlns="http://www.w3.org/2000/svg"
   xmlns:sodipodi="http://sodipodi.sourceforge.net/DTD/sodipodi-0.dtd"
   xmlns:inkscape="http://www.inkscape.org/namespaces/inkscape"
   version="1.1"
   width="791.48602"
   height="791.50085"
   id="svg29062"
   viewBox="0 0 791.48603 791.5008"
   sodipodi:docname="A-27.svg"
   inkscape:version="1.0.2 (e86c870879, 2021-01-15)">
  <metadata
     id="metadata29068">
    <rdf:RDF>
      <cc:Work
         rdf:about="">
        <dc:format>image/svg+xml</dc:format>
        <dc:type
           rdf:resource="http://purl.org/dc/dcmitype/StillImage" />
        <dc:title />
      </cc:Work>
    </rdf:RDF>
  </metadata>
  <defs
     id="defs29066" />
  <sodipodi:namedview
     pagecolor="#ffffff"
     bordercolor="#666666"
     borderopacity="1"
     objecttolerance="10"
     gridtolerance="10"
     guidetolerance="10"
     inkscape:pageopacity="0"
     inkscape:pageshadow="2"
     inkscape:window-width="1920"
     inkscape:window-height="1016"
     id="namedview29064"
     showgrid="false"
     inkscape:zoom="0.049253423"
     inkscape:cx="2251.5347"
     inkscape:cy="-627.34699"
     inkscape:window-x="0"
     inkscape:window-y="27"
     inkscape:window-maximized="1"
     inkscape:current-layer="svg29062"
     showguides="false"
     inkscape:document-rotation="0" />
  <g
     id="Layer1107"
     transform="matrix(65.957993,0,0,65.957993,-6066.3248,-6742.7718)">
    <path
       d="m 92.2355,107.5908 5.0996,-5.0995 c 0.3506,-0.3507 0.9243,-0.3507 1.2747,0 l 5.0998,5.0995 c 0.3504,0.3507 0.3504,0.9244 0,1.275 l -5.0998,5.0996 c -0.3504,0.3506 -0.9241,0.3506 -1.2747,0 l -5.0996,-5.0996 c -0.3506,-0.3506 -0.3506,-0.9243 0,-1.275 z"
       style="fill:#ffec00;fill-rule:evenodd"
       id="path28192" />
    <path
       d="m 92.338,107.7488 5.1551,-5.1551 c 0.132,-0.132 0.3058,-0.198 0.4795,-0.198 0.1737,0 0.3475,0.066 0.4795,0.198 l 5.1551,5.1551 c 0.132,0.132 0.198,0.3058 0.198,0.4795 0,0.1737 -0.066,0.3475 -0.198,0.4795 l -5.1551,5.1552 c -0.132,0.1319 -0.3058,0.1979 -0.4795,0.1979 -0.1737,0 -0.3475,-0.066 -0.4795,-0.1979 l -5.1551,-5.1552 c -0.132,-0.132 -0.198,-0.3058 -0.198,-0.4795 0,-0.1737 0.066,-0.3475 0.198,-0.4795 z m 5.3463,-4.9639 -5.1551,5.1552 c -0.0792,0.0791 -0.1188,0.1836 -0.1188,0.2882 0,0.1046 0.0396,0.2091 0.1188,0.2883 l 5.1551,5.1551 c 0.0792,0.0792 0.1837,0.1188 0.2883,0.1188 0.1046,0 0.2091,-0.0396 0.2883,-0.1188 l 5.1551,-5.1551 c 0.0792,-0.0792 0.1187,-0.1837 0.1187,-0.2883 0,-0.1046 -0.0395,-0.2091 -0.1187,-0.2882 l -5.1551,-5.1552 c -0.0792,-0.0791 -0.1837,-0.1187 -0.2883,-0.1187 -0.1046,0 -0.2091,0.0396 -0.2883,0.1187 z"
       style="fill:#000000;fill-rule:evenodd"
       id="path28194" />
    <path
       d="m 99.5932,105.1584 c 0,0.0895 0.0623,0.2916 0.1231,0.2916 0.1429,0 0.1878,-0.1302 0.246,-0.2333 -0.0219,-0.1117 -0.0939,-0.2624 -0.1968,-0.2624 -0.0642,0 -0.1723,0.1548 -0.1723,0.2041 z m -2.5097,2.3035 h -1.5993 c -0.1935,0 -0.4991,0.0284 -0.6801,0.0687 -0.253,0.0564 -0.3041,0.2032 -0.3041,0.5436 v 0.2041 c 0,0.2409 0.0479,0.554 0.246,0.554 h 3.1495 c 0.1704,0 0.246,-0.2455 0.246,-0.4374 v -0.4082 c 0,-0.2985 -0.0994,-0.4574 -0.344,-0.467 -0.2467,-0.01 -0.4413,-0.0578 -0.714,-0.0578 z m 0.3151,1.0264 v -0.2984 h 0.4036 v 0.2984 z m -2.1894,-0.2984 v 0.2984 h -0.4036 v -0.2984 z m 2.145,1.5754 c 0,0.0943 0.0893,0.1458 0.1722,0.1458 h 0.1968 c 0.0574,0 0.1231,-0.0778 0.1231,-0.1458 v -0.4665 h -0.4921 z m -2.559,0 c 0,0.0943 0.0894,0.1458 0.1723,0.1458 h 0.1968 c 0.0574,0 0.123,-0.0778 0.123,-0.1458 v -0.4665 h -0.4921 z m 4.2567,-0.3207 c 0.1004,0 0.1969,-0.1716 0.1969,-0.2916 0,-0.088 -0.1004,-0.2333 -0.1723,-0.2333 -0.068,0 -0.1548,0.2906 -0.1722,0.3791 0.0287,0.0508 0.0796,0.1458 0.1476,0.1458 z m 1.1565,-3.5281 c 0,0.105 0.1476,0.2706 0.1476,0.4374 0,0.1529 -0.1281,0.2832 -0.1738,0.4063 -0.0495,0.1333 0.002,0.3598 0.002,0.5559 0,0.1096 -0.1231,0.1743 -0.1231,0.4082 v 0.1166 c 0,0.2765 0.0774,0.3135 -0.0557,0.5172 -0.0888,0.136 -0.1154,0.2698 -0.1686,0.4415 -0.115,0.3712 -0.3662,0.4444 -0.3662,0.8199 l -0.2159,0.2695 0.0191,0.0221 h 2.4421 l 1.5763,-1.6404 -2.8676,-3.0542 c -0.0131,0 -0.0201,0.0483 -0.0399,0.0646 0,0.4295 -0.1759,0.312 -0.1759,0.6354 z m -2.1161,3.1199 c 0,-0.0683 -0.0408,-0.1167 -0.0984,-0.1167 h -3.2971 c -0.0664,0 -0.0678,0.014 -0.123,0.0292 -0.0084,0.1198 -0.0246,0.0651 -0.0246,0.1749 0,0.0314 0.072,0.1167 0.123,0.1167 h 3.3709 c 0.0279,-0.1238 0.0492,-0.051 0.0492,-0.1458 z m 1.4025,-0.8456 v 0.0292 c 0,0.1474 0.0422,0.1006 0.0738,0.2041 0.1156,-0.003 0.2707,-0.1649 0.2707,-0.2333 0,-0.066 -0.0651,-0.2624 -0.1476,-0.2624 -0.071,0 -0.1969,0.1916 -0.1969,0.2624 z m -0.7873,-0.3207 v 0.1749 c 0,0.0702 0.0883,0.175 0.1476,0.175 h 0.0492 c 0.1308,0 0.2237,-0.1281 0.2707,-0.2333 -0.056,-0.1381 -0.0473,-0.4665 -0.2461,-0.4665 -0.156,0 -0.2214,0.1666 -0.2214,0.3499 z m 0.6889,-0.5832 v 0.0292 c 0,0.1514 0.0654,0.2108 0.1476,0.2624 0.2587,-0.0714 0.296,-0.1546 0.3199,-0.4957 h -0.2707 c -0.0551,0 -0.1968,0.1208 -0.1968,0.2041 z m -0.4429,-0.9622 v 0.0292 c 0,0.1441 0.3349,0.3207 0.4921,0.3207 0.2201,0 0.3691,-0.3145 0.3691,-0.5831 0,-0.0683 -0.0408,-0.1167 -0.0984,-0.1167 h -0.1231 c -0.2778,0 -0.6397,0.0426 -0.6397,0.3499 z m -4.0348,0.8529 c -4e-4,-0.2211 0.063,-0.3494 0.103,-0.5262 0.053,-0.2345 0.0947,-0.2368 0.3166,-0.2663 0.3013,-0.0402 0.7374,-0.0312 1.0563,-0.0312 h 0.369 c 0.15,0 0.6525,0.0317 0.748,0.0758 0.1121,0.0518 0.2116,0.5638 0.2116,0.7426 l -1.181,-0.0603 -0.7388,-0.0105 z m -0.2465,0.2259 1.2549,-0.0583 0.9847,-0.0107 1.0821,0.069 c 0,-0.0947 -0.1092,-0.5709 -0.1401,-0.6796 -0.0658,-0.2319 -0.0558,-0.4889 -0.2675,-0.5577 -0.2105,-0.0684 -1.0981,-0.0747 -1.3886,-0.0747 -0.2632,0 -1.0712,0.0125 -1.2108,0.1105 -0.1201,0.0842 -0.3147,0.938 -0.3147,1.2015 z"
       style="fill:#000000;fill-rule:evenodd"
       id="path28196" />
  </g>
</svg>
