<?xml version="1.0" encoding="UTF-8" standalone="no"?>
<svg
   xmlns:dc="http://purl.org/dc/elements/1.1/"
   xmlns:cc="http://creativecommons.org/ns#"
   xmlns:rdf="http://www.w3.org/1999/02/22-rdf-syntax-ns#"
   xmlns:svg="http://www.w3.org/2000/svg"
   xmlns="http://www.w3.org/2000/svg"
   xmlns:sodipodi="http://sodipodi.sourceforge.net/DTD/sodipodi-0.dtd"
   xmlns:inkscape="http://www.inkscape.org/namespaces/inkscape"
   version="1.1"
   width="791.48602"
   height="791.50085"
   id="svg29062"
   viewBox="0 0 791.48603 791.5008"
   sodipodi:docname="A-28.svg"
   inkscape:version="1.0.2 (e86c870879, 2021-01-15)">
  <metadata
     id="metadata29068">
    <rdf:RDF>
      <cc:Work
         rdf:about="">
        <dc:format>image/svg+xml</dc:format>
        <dc:type
           rdf:resource="http://purl.org/dc/dcmitype/StillImage" />
        <dc:title />
      </cc:Work>
    </rdf:RDF>
  </metadata>
  <defs
     id="defs29066" />
  <sodipodi:namedview
     pagecolor="#ffffff"
     bordercolor="#666666"
     borderopacity="1"
     objecttolerance="10"
     gridtolerance="10"
     guidetolerance="10"
     inkscape:pageopacity="0"
     inkscape:pageshadow="2"
     inkscape:window-width="1920"
     inkscape:window-height="1016"
     id="namedview29064"
     showgrid="false"
     inkscape:zoom="0.049253423"
     inkscape:cx="1314.3227"
     inkscape:cy="7389.4936"
     inkscape:window-x="0"
     inkscape:window-y="27"
     inkscape:window-maximized="1"
     inkscape:current-layer="svg29062"
     showguides="true"
     inkscape:document-rotation="0"
     inkscape:guide-bbox="true" />
  <g
     id="Layer1108"
     transform="matrix(65.957993,0,0,65.957993,-7003.5368,-6743.3523)">
    <path
       d="m 106.4448,107.5996 5.0995,-5.0995 c 0.3506,-0.3507 0.9244,-0.3507 1.2747,0 l 5.0999,5.0995 c 0.3503,0.3507 0.3503,0.9244 0,1.275 l -5.0999,5.0996 c -0.3503,0.3506 -0.9241,0.3506 -1.2747,0 l -5.0995,-5.0996 c -0.3507,-0.3506 -0.3507,-0.9243 0,-1.275 z"
       style="fill:#ffec00;fill-rule:evenodd"
       id="path28199" />
    <path
       d="m 106.5472,107.7576 5.1551,-5.1551 c 0.132,-0.132 0.3058,-0.198 0.4795,-0.198 0.1737,0 0.3475,0.066 0.4795,0.198 l 5.1552,5.1551 c 0.1319,0.132 0.1979,0.3058 0.1979,0.4795 0,0.1737 -0.066,0.3475 -0.1979,0.4795 l -5.1552,5.1551 c -0.132,0.132 -0.3058,0.198 -0.4795,0.198 -0.1737,0 -0.3475,-0.066 -0.4795,-0.198 l -5.1551,-5.1551 c -0.132,-0.132 -0.198,-0.3058 -0.198,-0.4795 0,-0.1737 0.066,-0.3475 0.198,-0.4795 z m 5.3464,-4.9639 -5.1552,5.1551 c -0.0791,0.0792 -0.1187,0.1837 -0.1187,0.2883 0,0.1046 0.0396,0.2091 0.1187,0.2883 l 5.1552,5.1551 c 0.0791,0.0792 0.1836,0.1188 0.2882,0.1188 0.1046,0 0.2091,-0.0396 0.2883,-0.1188 l 5.1551,-5.1551 c 0.0792,-0.0792 0.1188,-0.1837 0.1188,-0.2883 0,-0.1046 -0.0396,-0.2091 -0.1188,-0.2883 l -5.1551,-5.1551 c -0.0792,-0.0792 -0.1837,-0.1187 -0.2883,-0.1187 -0.1046,0 -0.2091,0.0395 -0.2882,0.1187 z"
       style="fill:#000000;fill-rule:evenodd"
       id="path28201" />
    <path
       d="m 113.2035,107.017 0.3014,-0.003 c 0.0291,0.021 0.0234,0.1502 0.0151,0.191 -0.005,0.023 -0.01,0.0242 -0.0129,0.0288 l -0.3062,-0.004 c -0.0148,-0.0315 -0.009,-0.0565 -0.009,-0.1009 10e-5,-0.0191 -0.002,-0.0463 -7e-4,-0.0641 0.003,-0.0491 -0.002,-0.0241 0.0127,-0.0476 z m -2.5988,0.004 0.3098,-0.006 7e-4,0.0504 -1e-4,0.1676 -0.3105,-0.001 z m -0.377,0.1333 c 0.008,0.1829 0.0475,0.3612 0.1977,0.4013 0.0947,0.0253 2.7024,0.009 3.0034,0.009 0.2274,0 0.3369,-2e-4 0.4089,-0.1913 0.0524,-0.1391 0.043,-0.4013 0.0311,-0.5595 -0.0153,-0.2037 -0.074,-0.3045 -0.2564,-0.3493 -0.4392,-0.108 -2.4368,-0.0813 -2.9227,-0.0411 -0.4659,0.0385 -0.4813,0.2746 -0.462,0.7305 z"
       style="fill:#000000;fill-rule:evenodd"
       id="path28203" />
    <path
       d="m 109.8991,111.2339 h 1.0377 c 0.0302,-0.0666 0.0735,-0.1125 0.1115,-0.1698 0.2121,-0.3202 0.6368,-0.7694 0.7752,-1.1449 0.2698,-0.7317 -1.013,-0.6938 -1.2506,-0.8783 -0.005,-0.0821 0.1055,-0.1728 0.1632,-0.2212 0.0625,-0.0524 0.1397,-0.1105 0.1871,-0.1752 -0.0629,-0.009 -0.2844,-0.0107 -0.3504,-0.005 -0.0931,0.008 -0.3348,0.2609 -0.3787,0.3321 -0.0736,0.1191 -0.0361,0.1709 0.0507,0.2294 0.2798,0.1885 0.8939,0.3199 0.9263,0.4795 0.0304,0.1497 -0.1749,0.3368 -0.2593,0.4508 -0.0794,0.1073 -0.4921,0.5294 -0.6002,0.6377 -0.0646,0.0647 -0.3936,0.4158 -0.4125,0.4647 z"
       style="fill:#000000;fill-rule:evenodd"
       id="path28205" />
    <path
       d="m 113.0633,111.2339 h 1.036 c 0.0239,-0.2024 0.1122,-0.4371 0.1777,-0.617 0.0348,-0.0958 0.0675,-0.1926 0.0994,-0.2922 0.0221,-0.0692 0.0657,-0.2717 0.0882,-0.3158 0.0592,-0.1819 0.0806,-0.2948 0,-0.4471 -0.0903,-0.1079 -0.0722,-0.1206 -0.2484,-0.2142 -0.1001,-0.0532 -0.2181,-0.0955 -0.3365,-0.1311 -0.1151,-0.0346 -0.6799,-0.157 -0.7272,-0.1929 0.058,-0.0465 0.3571,-0.3273 0.3809,-0.3779 -0.2177,-0.002 -0.352,-0.0402 -0.453,0.042 -0.0949,0.0774 -0.1691,0.1456 -0.2499,0.2429 -0.0436,0.0526 -0.1106,0.1442 -0.0446,0.2178 0.1243,0.1386 0.6644,0.2944 0.884,0.4046 0.0828,0.0415 0.1558,0.0706 0.1567,0.1773 0.002,0.2809 -0.6536,1.1435 -0.7633,1.5036 z"
       style="fill:#000000;fill-rule:evenodd"
       id="path28207" />
    <path
       d="m 110.6399,106.1449 c 0.008,-0.1383 0.0627,-0.3014 0.0957,-0.433 0.0449,-0.1792 0.1051,-0.1926 0.3027,-0.2175 0.361,-0.0453 1.6655,-0.0431 2.0334,-0.003 0.1828,0.0198 0.2286,0.075 0.291,0.2256 0.0503,0.1215 0.0866,0.2876 0.0968,0.4314 -0.3234,-0.01 -1.1717,-0.069 -1.4173,-0.0511 -0.166,0.012 -1.2923,0.057 -1.4023,0.0478 z m -0.2401,0.2224 c 0.8277,-0.045 1.6627,-0.1083 2.4942,-0.0529 0.1599,0.0107 0.6933,0.0648 0.8037,0.008 0.0283,-0.1045 -0.0771,-0.4512 -0.1114,-0.5642 -0.0454,-0.1492 -0.1173,-0.409 -0.2451,-0.4498 -0.2566,-0.082 -1.0062,-0.0652 -1.3145,-0.0652 -0.3168,0 -1.0435,-0.0288 -1.296,0.0836 -0.1027,0.0456 -0.1101,0.093 -0.1475,0.2063 -0.0615,0.1861 -0.1959,0.6737 -0.1834,0.8338 z"
       style="fill:#000000;fill-rule:evenodd"
       id="path28209" />
    <path
       d="m 113.7041,107.9058 c 0.1521,-0.0185 0.1626,-0.2198 0.0302,-0.261 -0.0649,-0.0202 -2.571,-0.007 -2.8697,-0.007 -0.1532,0 -0.3298,-0.008 -0.48,-3e-4 -0.1587,0.008 -0.1224,0.2417 -0.0379,0.2695 z"
       style="fill:#000000;fill-rule:evenodd"
       id="path28211" />
    <path
       d="m 110.5256,108.3636 c 0.0167,0.0821 0.0774,0.1066 0.1743,0.1065 0.3813,-4e-4 0.2941,0.045 0.3053,-0.509 l -0.4841,-0.001 z"
       style="fill:#000000;fill-rule:evenodd"
       id="path28213" />
    <path
       d="m 113.1024,108.3889 c 0.0129,0.0971 0.0797,0.0813 0.1874,0.0808 0.0705,-3e-4 0.184,0.0132 0.2335,-0.0213 0.0932,-0.065 0.0551,-0.3301 0.0618,-0.4636 h -0.4816 z"
       style="fill:#000000;fill-rule:evenodd"
       id="path28215" />
  </g>
</svg>
