<?xml version="1.0" encoding="UTF-8" standalone="no"?>
<svg
   xmlns:dc="http://purl.org/dc/elements/1.1/"
   xmlns:cc="http://creativecommons.org/ns#"
   xmlns:rdf="http://www.w3.org/1999/02/22-rdf-syntax-ns#"
   xmlns:svg="http://www.w3.org/2000/svg"
   xmlns="http://www.w3.org/2000/svg"
   xmlns:sodipodi="http://sodipodi.sourceforge.net/DTD/sodipodi-0.dtd"
   xmlns:inkscape="http://www.inkscape.org/namespaces/inkscape"
   version="1.1"
   width="791.48108"
   height="791.50085"
   id="svg29062"
   viewBox="0 0 791.48109 791.5008"
   sodipodi:docname="A-29.svg"
   inkscape:version="1.0.2 (e86c870879, 2021-01-15)">
  <metadata
     id="metadata29068">
    <rdf:RDF>
      <cc:Work
         rdf:about="">
        <dc:format>image/svg+xml</dc:format>
        <dc:type
           rdf:resource="http://purl.org/dc/dcmitype/StillImage" />
        <dc:title />
      </cc:Work>
    </rdf:RDF>
  </metadata>
  <defs
     id="defs29066" />
  <sodipodi:namedview
     pagecolor="#ffffff"
     bordercolor="#666666"
     borderopacity="1"
     objecttolerance="10"
     gridtolerance="10"
     guidetolerance="10"
     inkscape:pageopacity="0"
     inkscape:pageshadow="2"
     inkscape:window-width="1920"
     inkscape:window-height="1016"
     id="namedview29064"
     showgrid="false"
     inkscape:zoom="0.049253423"
     inkscape:cx="377.10746"
     inkscape:cy="-604.18256"
     inkscape:window-x="0"
     inkscape:window-y="27"
     inkscape:window-maximized="1"
     inkscape:current-layer="svg29062"
     showguides="false"
     inkscape:document-rotation="0" />
  <g
     id="Layer1109"
     transform="matrix(65.957993,0,0,65.957993,-7940.752,-6719.6074)">
    <path
       d="m 120.654,107.2396 5.0995,-5.0995 c 0.3507,-0.3507 0.9244,-0.3507 1.2748,0 l 5.0998,5.0995 c 0.3503,0.3507 0.3503,0.9244 0,1.275 l -5.0998,5.0996 c -0.3504,0.3506 -0.9241,0.3506 -1.2748,0 l -5.0995,-5.0996 c -0.3506,-0.3506 -0.3506,-0.9243 0,-1.275 z"
       style="fill:#ffec00;fill-rule:evenodd"
       id="path28218" />
    <path
       d="m 120.7564,107.3976 5.1552,-5.1551 c 0.132,-0.132 0.3058,-0.198 0.4795,-0.198 0.1736,0 0.3475,0.066 0.4794,0.198 l 5.1552,5.1551 c 0.132,0.132 0.1979,0.3058 0.1979,0.4795 0,0.1737 -0.0659,0.3475 -0.1979,0.4795 l -5.1552,5.1551 c -0.1319,0.132 -0.3057,0.198 -0.4794,0.198 -0.1737,0 -0.3476,-0.066 -0.4795,-0.198 l -5.1552,-5.1551 c -0.132,-0.132 -0.1979,-0.3058 -0.1979,-0.4795 0,-0.1737 0.0659,-0.3475 0.1979,-0.4795 z m 5.3464,-4.9639 -5.1552,5.1551 c -0.0791,0.0792 -0.1187,0.1837 -0.1187,0.2883 0,0.1046 0.0396,0.2091 0.1187,0.2883 l 5.1552,5.1551 c 0.0791,0.0792 0.1836,0.1188 0.2883,0.1188 0.1046,0 0.2091,-0.0396 0.2882,-0.1188 l 5.1552,-5.1551 c 0.0791,-0.0792 0.1187,-0.1837 0.1187,-0.2883 0,-0.1046 -0.0396,-0.2091 -0.1187,-0.2883 l -5.1552,-5.1551 c -0.0791,-0.0792 -0.1836,-0.1187 -0.2882,-0.1187 -0.1047,0 -0.2092,0.0395 -0.2883,0.1187 z"
       style="fill:#000000;fill-rule:evenodd"
       id="path28220" />
    <g
       id="Layer1110">
      <path
         d="m 129.2334,107.0896 c 0,0.0499 0.0994,0.1837 0.1575,0.1837 h 0.0263 c 0.1263,0 0.2888,-0.072 0.2888,-0.1837 0,-0.0993 -0.1215,-0.2888 -0.2101,-0.2888 h -0.0262 c -0.0884,0 -0.2363,0.1954 -0.2363,0.2888 z"
         style="fill:#000000;fill-rule:evenodd"
         id="path28222" />
      <path
         d="m 123.3003,107.1421 c 0,-0.139 0.2202,-0.5269 0.2626,-0.7089 h 2.389 c 0.0885,0 0.315,0.5786 0.315,0.7089 0,0.0367 -0.0358,0.0525 -0.0788,0.0525 h -2.809 c -0.043,0 -0.0788,-0.0158 -0.0788,-0.0525 z m -0.2887,0.1837 c 0,0.0368 0.0357,0.0525 0.0787,0.0525 h 3.4654 c 0,-0.2 -0.3574,-1.1551 -0.4988,-1.1551 h -2.5203 c -0.1682,0 -0.2538,0.36 -0.307,0.5068 -0.049,0.135 -0.218,0.4798 -0.218,0.5958 z"
         style="fill:#000000;fill-rule:evenodd"
         id="path28224" />
      <path
         d="m 129.3647,107.6409 v 0.0525 c 0,0.1082 0.0882,0.2362 0.1838,0.2362 h 0.1312 c 0.0137,-0.0588 0.0263,-0.0603 0.0263,-0.1312 v -0.0263 c 0,-0.1354 -0.1093,-0.21 -0.2363,-0.21 h -0.0263 c -0.0605,0 -0.0787,0.0183 -0.0787,0.0788 z"
         style="fill:#000000;fill-rule:evenodd"
         id="path28226" />
      <path
         d="m 130.126,107.9821 v 0.1576 c 0,0.0724 0.1302,0.1575 0.1838,0.1575 h 0.0262 c 0.1298,0 0.2363,-0.1065 0.2363,-0.2363 v -0.0788 c 0,-0.0884 -0.0464,-0.1837 -0.1313,-0.1837 h -0.0787 c -0.1025,0 -0.2363,0.1001 -0.2363,0.1837 z"
         style="fill:#000000;fill-rule:evenodd"
         id="path28228" />
      <path
         d="m 126.9232,108.8747 c 0.009,-0.0207 0.0262,-0.0977 0.0262,-0.1312 0,-0.0807 -0.0769,-0.105 -0.1575,-0.105 h -4.0429 c -0.0614,0 -0.105,0.0435 -0.105,0.105 v 0.0525 c 0,0.0807 0.0769,0.105 0.1575,0.105 h 3.9904 c 0.0709,0 0.0724,-0.0126 0.1313,-0.0263 z"
         style="fill:#000000;fill-rule:evenodd"
         id="path28230" />
      <path
         d="m 130.336,108.901 c 0,-0.1226 -0.0612,-0.1838 -0.1837,-0.1838 h -0.1838 c -0.0615,0 -0.105,0.0436 -0.105,0.105 v 0.0263 c 0,0.1263 0.131,0.2888 0.2363,0.2888 h 0.0787 c 0.0632,0 0.1575,-0.0944 0.1575,-0.1576 z"
         style="fill:#000000;fill-rule:evenodd"
         id="path28232" />
      <path
         d="m 126.6082,109.531 c 0.009,-0.0206 0.0262,-0.0977 0.0262,-0.1312 v -0.4201 h -0.5775 v 0.4726 c 0,0.0605 0.0182,0.0787 0.0787,0.0787 z"
         style="fill:#000000;fill-rule:evenodd"
         id="path28234" />
      <path
         d="m 123.4316,109.531 c 0.0807,0 0.105,-0.0769 0.105,-0.1575 v -0.3938 h -0.6038 v 0.4463 c 0,0.0615 0.0436,0.105 0.105,0.105 z"
         style="fill:#000000;fill-rule:evenodd"
         id="path28236" />
      <path
         d="m 126.7615,109.4607 c 0.1282,0.0358 2.752,-0.3771 2.7704,-0.4083 0.022,-0.0373 -0.0217,-0.1117 -0.0371,-0.1438 -0.2651,-0.0122 -1.0529,0.1951 -1.3737,0.2488 -0.2033,0.0341 -1.2751,0.1839 -1.3596,0.3033 z"
         style="fill:#000000;fill-rule:evenodd"
         id="path28238" />
      <path
         d="m 126.9292,109.0377 c 0.1514,0.0199 3.0652,-0.8717 3.0811,-0.9101 0.019,-0.046 -0.0426,-0.1234 -0.0653,-0.1573 -0.3031,0.0288 -1.1646,0.3912 -1.5203,0.5039 -0.2255,0.0714 -1.4188,0.4143 -1.4955,0.5635 z"
         style="fill:#000000;fill-rule:evenodd"
         id="path28240" />
      <path
         d="m 126.6898,107.4543 h -3.7901 c -0.0527,0 -0.0958,0.0246 -0.0958,0.0547 v 0.9845 c 0,0.0301 0.0431,0.0547 0.0958,0.0547 h 3.7901 c 0.0528,0 0.0959,-0.0246 0.0959,-0.0547 v -0.9845 c 0,-0.0301 -0.0431,-0.0547 -0.0959,-0.0547 z m -0.6524,0.6176 c 0,-0.1449 0.1176,-0.2625 0.2626,-0.2625 0.1449,0 0.2625,0.1176 0.2625,0.2625 0,0.145 -0.1176,0.2626 -0.2625,0.2626 -0.145,0 -0.2626,-0.1176 -0.2626,-0.2626 z m -2.7579,-0.2524 c 0.145,0 0.2625,0.1176 0.2625,0.2625 0,0.145 -0.1175,0.2626 -0.2625,0.2626 -0.145,0 -0.2625,-0.1176 -0.2625,-0.2626 0,-0.1449 0.1175,-0.2625 0.2625,-0.2625 z"
         style="fill:#000000;fill-rule:evenodd"
         id="path28242" />
      <path
         d="m 127.0231,108.3721 c 0.111,-0.005 2.0871,-1.0106 2.0936,-1.0402 0.008,-0.0353 -0.0461,-0.083 -0.0666,-0.1045 -0.2136,0.0588 -0.7854,0.427 -1.0261,0.5526 -0.1526,0.0795 -0.9647,0.4755 -1.0009,0.5921 z"
         style="fill:#000000;fill-rule:evenodd"
         id="path28244" />
      <path
         d="m 127.0681,108.6342 c 0.0948,0.006 1.864,-0.6753 1.8721,-0.6998 0.01,-0.0294 -0.0318,-0.0747 -0.0474,-0.0948 -0.1868,0.0312 -0.7055,0.2938 -0.9213,0.3794 -0.1368,0.0541 -0.8623,0.3192 -0.9034,0.4152 z"
         style="fill:#000000;fill-rule:evenodd"
         id="path28246" />
    </g>
  </g>
</svg>
