<?xml version="1.0" encoding="UTF-8" standalone="no"?>
<svg
   xmlns:dc="http://purl.org/dc/elements/1.1/"
   xmlns:cc="http://creativecommons.org/ns#"
   xmlns:rdf="http://www.w3.org/1999/02/22-rdf-syntax-ns#"
   xmlns:svg="http://www.w3.org/2000/svg"
   xmlns="http://www.w3.org/2000/svg"
   xmlns:sodipodi="http://sodipodi.sourceforge.net/DTD/sodipodi-0.dtd"
   xmlns:inkscape="http://www.inkscape.org/namespaces/inkscape"
   version="1.1"
   width="791.48602"
   height="791.49591"
   id="svg29062"
   viewBox="0 0 791.48603 791.49585"
   sodipodi:docname="A-2a.svg"
   inkscape:version="1.0.2 (e86c870879, 2021-01-15)">
  <metadata
     id="metadata29068">
    <rdf:RDF>
      <cc:Work
         rdf:about="">
        <dc:format>image/svg+xml</dc:format>
        <dc:type
           rdf:resource="http://purl.org/dc/dcmitype/StillImage" />
        <dc:title />
      </cc:Work>
    </rdf:RDF>
  </metadata>
  <defs
     id="defs29066" />
  <sodipodi:namedview
     pagecolor="#ffffff"
     bordercolor="#666666"
     borderopacity="1"
     objecttolerance="10"
     gridtolerance="10"
     guidetolerance="10"
     inkscape:pageopacity="0"
     inkscape:pageshadow="2"
     inkscape:window-width="1920"
     inkscape:window-height="1016"
     id="namedview29064"
     showgrid="false"
     inkscape:zoom="0.049253423"
     inkscape:cx="4082.3368"
     inkscape:cy="4986.4885"
     inkscape:window-x="0"
     inkscape:window-y="27"
     inkscape:window-maximized="1"
     inkscape:current-layer="svg29062"
     showguides="false"
     inkscape:document-rotation="0" />
  <g
     id="Layer1053"
     transform="matrix(65.957993,0,0,65.957993,-4235.5222,-3764.4568)">
    <path
       d="m 64.4784,62.436 5.0995,-5.0995 c 0.3507,-0.3506 0.9244,-0.3506 1.2748,0 l 5.0998,5.0995 c 0.3504,0.3507 0.3504,0.9244 0,1.2751 l -5.0998,5.0995 c -0.3504,0.3506 -0.9241,0.3506 -1.2748,0 l -5.0995,-5.0995 c -0.3506,-0.3507 -0.3506,-0.9244 0,-1.2751 z"
       style="fill:#ffec00;fill-rule:evenodd"
       id="path27856" />
    <path
       d="m 64.5808,62.5941 5.1552,-5.1552 c 0.132,-0.132 0.3058,-0.1979 0.4795,-0.1979 0.1737,0 0.3475,0.0659 0.4794,0.1979 l 5.1552,5.1552 c 0.132,0.132 0.198,0.3058 0.198,0.4795 0,0.1737 -0.066,0.3475 -0.198,0.4794 l -5.1552,5.1552 c -0.1319,0.132 -0.3057,0.1979 -0.4794,0.1979 -0.1737,0 -0.3475,-0.0659 -0.4795,-0.1979 L 64.5808,63.553 c -0.1319,-0.1319 -0.1979,-0.3057 -0.1979,-0.4794 0,-0.1737 0.066,-0.3475 0.1979,-0.4795 z m 5.3464,-4.964 -5.1552,5.1552 c -0.0791,0.0791 -0.1187,0.1837 -0.1187,0.2883 0,0.1046 0.0396,0.2091 0.1187,0.2882 l 5.1552,5.1552 c 0.0792,0.0791 0.1837,0.1187 0.2883,0.1187 0.1046,0 0.2091,-0.0396 0.2882,-0.1187 l 5.1552,-5.1552 c 0.0791,-0.0791 0.1187,-0.1836 0.1187,-0.2882 0,-0.1046 -0.0396,-0.2092 -0.1187,-0.2883 l -5.1552,-5.1552 c -0.0791,-0.0791 -0.1836,-0.1187 -0.2882,-0.1187 -0.1046,0 -0.2091,0.0396 -0.2883,0.1187 z"
       style="fill:#000000;fill-rule:evenodd"
       id="path27858" />
    <path
       d="m 69.7735,61.0408 0.6163,0.3047 c 0.6094,0.3216 1.175,0.704 1.5906,1.2122 0.6213,0.7597 0.5494,1.3366 0.5671,2.2446 0.0059,0.3044 0.0211,0.624 0.016,0.9307 l -0.9351,0.0022 c -0.0062,-0.4624 0.0072,-1.0693 0.0019,-1.5485 -0.0035,-0.3147 0.0088,-0.3905 -0.1303,-0.6356 -0.2397,-0.4222 -0.7793,-0.8746 -1.1768,-1.1661 -0.0875,-0.0641 -0.9645,-0.6817 -1.0363,-0.4759 -0.0084,0.0239 -0.0078,0.0262 -0.0123,0.0544 -0.0453,0.2856 -0.0134,0.6162 -0.2398,0.6206 -0.1529,0.003 -0.1914,-0.1399 -0.2512,-0.2493 -0.2876,-0.5263 -0.5591,-1.0735 -0.8557,-1.6058 -0.1654,-0.297 -0.0072,-0.2483 0.5941,-0.2666 l 1.4193,-0.0483 c 0.1382,-0.0049 0.3405,-0.0158 0.3453,0.1479 0.0058,0.1931 -0.4008,0.3432 -0.5131,0.4788 z"
       style="fill:#000000;fill-rule:evenodd"
       id="path27860" />
  </g>
</svg>
