<?xml version="1.0" encoding="UTF-8" standalone="no"?>
<svg
   xmlns:dc="http://purl.org/dc/elements/1.1/"
   xmlns:cc="http://creativecommons.org/ns#"
   xmlns:rdf="http://www.w3.org/1999/02/22-rdf-syntax-ns#"
   xmlns:svg="http://www.w3.org/2000/svg"
   xmlns="http://www.w3.org/2000/svg"
   xmlns:sodipodi="http://sodipodi.sourceforge.net/DTD/sodipodi-0.dtd"
   xmlns:inkscape="http://www.inkscape.org/namespaces/inkscape"
   version="1.1"
   width="791.48108"
   height="791.49591"
   id="svg29062"
   viewBox="0 0 791.48109 791.49585"
   sodipodi:docname="A-30c.svg"
   inkscape:version="1.0.2 (e86c870879, 2021-01-15)">
  <metadata
     id="metadata29068">
    <rdf:RDF>
      <cc:Work
         rdf:about="">
        <dc:format>image/svg+xml</dc:format>
        <dc:type
           rdf:resource="http://purl.org/dc/dcmitype/StillImage" />
        <dc:title />
      </cc:Work>
    </rdf:RDF>
  </metadata>
  <defs
     id="defs29066" />
  <sodipodi:namedview
     pagecolor="#ffffff"
     bordercolor="#666666"
     borderopacity="1"
     objecttolerance="10"
     gridtolerance="10"
     guidetolerance="10"
     inkscape:pageopacity="0"
     inkscape:pageshadow="2"
     inkscape:window-width="1920"
     inkscape:window-height="1016"
     id="namedview29064"
     showgrid="false"
     inkscape:zoom="0.049253423"
     inkscape:cx="-2434.5104"
     inkscape:cy="-539.11995"
     inkscape:window-x="0"
     inkscape:window-y="27"
     inkscape:window-maximized="1"
     inkscape:current-layer="svg29062"
     showguides="false"
     inkscape:document-rotation="0" />
  <g
     id="Layer1115"
     transform="matrix(65.957993,0,0,65.957993,-10752.37,-6654.5448)">
    <path
       d="m 163.2814,106.2531 5.0995,-5.0995 c 0.3507,-0.3506 0.9244,-0.3506 1.2748,0 l 5.0998,5.0995 c 0.3503,0.3507 0.3503,0.9244 0,1.2751 l -5.0998,5.0995 c -0.3504,0.3506 -0.9241,0.3506 -1.2748,0 l -5.0995,-5.0995 c -0.3506,-0.3507 -0.3506,-0.9244 0,-1.2751 z"
       style="fill:#ffec00;fill-rule:evenodd"
       id="path28298" />
    <path
       d="m 163.3838,106.4112 5.1552,-5.1552 c 0.132,-0.1319 0.3058,-0.1979 0.4795,-0.1979 0.1737,0 0.3475,0.066 0.4794,0.1979 l 5.1552,5.1552 c 0.132,0.132 0.1979,0.3058 0.1979,0.4795 0,0.1737 -0.0659,0.3475 -0.1979,0.4794 l -5.1552,5.1552 c -0.1319,0.132 -0.3057,0.198 -0.4794,0.198 -0.1737,0 -0.3476,-0.066 -0.4795,-0.198 l -5.1552,-5.1552 c -0.132,-0.1319 -0.1979,-0.3057 -0.1979,-0.4794 0,-0.1737 0.0659,-0.3475 0.1979,-0.4795 z m 5.3464,-4.964 -5.1552,5.1552 c -0.0791,0.0791 -0.1187,0.1837 -0.1187,0.2883 0,0.1046 0.0396,0.2091 0.1187,0.2882 l 5.1552,5.1552 c 0.0791,0.0791 0.1836,0.1187 0.2883,0.1187 0.1046,0 0.2091,-0.0396 0.2882,-0.1187 l 5.1552,-5.1552 c 0.0791,-0.0791 0.1187,-0.1836 0.1187,-0.2882 0,-0.1046 -0.0396,-0.2092 -0.1187,-0.2883 l -5.1552,-5.1552 c -0.0791,-0.0791 -0.1836,-0.1187 -0.2882,-0.1187 -0.1047,0 -0.2092,0.0396 -0.2883,0.1187 z"
       style="fill:#000000;fill-rule:evenodd"
       id="path28300" />
    <g
       id="Layer1116">
      <path
         d="m 170.1922,105.3175 c 0.3041,0 0.6081,0 0.9123,0 0.129,0.0363 0.1432,0.1615 0.1683,0.2423 0.0849,0.5047 0.1585,1.0094 0.2434,1.5141 -5e-4,0.1585 -0.2932,0.173 -0.3305,0 -0.007,-0.1736 -0.0161,-0.3472 -0.0235,-0.5208 -0.0485,-0.1777 -0.097,-0.3554 -0.1455,-0.533 0.0242,1.0417 0.0444,2.0834 0.0686,3.1251 -0.0201,0.1804 -0.3103,0.1912 -0.3598,0 -0.0566,-0.65 -0.1131,-1.3001 -0.1696,-1.9502 -0.0404,0.5774 -0.0808,1.1548 -0.1212,1.7322 -0.0667,0.1478 -0.2825,0.1561 -0.3396,-0.0121 0.0324,-0.6824 0.0647,-1.3648 0.0971,-2.0471 -0.0243,-0.3109 -0.0485,-0.6218 -0.0728,-0.9327 -0.0566,0.1332 -0.1132,0.2665 -0.1698,0.3997 0,0.2221 0,0.4442 0,0.6662 0.001,0.1605 -0.2179,0.1634 -0.2303,0 0,-0.2261 -0.0279,-0.4522 -0.0279,-0.6783 0.097,-0.2826 0.194,-0.5653 0.291,-0.8479 0.0607,-0.1171 0.1491,-0.1696 0.2098,-0.1575 z"
         style="fill:#000000;fill-rule:evenodd"
         id="path28302" />
      <path
         d="m 170.562,104.4575 c 0.197,0 0.3577,0.1605 0.3577,0.3573 0,0.1969 -0.1607,0.3574 -0.3577,0.3574 -0.197,0 -0.3577,-0.1605 -0.3577,-0.3574 0,-0.1968 0.1607,-0.3573 0.3577,-0.3573 z"
         style="fill:#000000;fill-rule:evenodd"
         id="path28304" />
      <path
         d="m 166.9481,105.2576 c 0.2049,0 0.4098,0 0.6147,0 0.3947,0.232 0.5097,0.598 0.4332,1.0248 -0.0475,0.0487 -0.099,0.0487 -0.179,0 -0.003,-0.1409 -0.007,-0.2818 -0.0101,-0.4227 -0.047,-0.0604 -0.1064,-0.1208 -0.1534,-0.1812 0,0.2148 0,0.4255 0,0.6403 0.1175,0 0.2351,0 0.3526,0 0,0.047 0,0.0935 0,0.1405 -0.1175,0 -0.2351,0 -0.3526,0 0,0.1979 0,0.4006 0,0.5985 0.0806,0.0972 0.1612,0.1944 0.2418,0.2916 0,0.4228 0,0.8455 0,1.2683 0.0112,0.1238 -0.3131,0.1496 -0.3239,0 0,-0.3424 0,-0.6848 0,-1.0272 -0.0354,-0.1144 -0.1084,-0.1679 -0.2404,-0.1606 0,0.0269 5e-4,0.1055 5e-4,0.1324 0.027,1e-4 0.0537,-10e-5 0.0807,0 0,0.5301 0,1.0895 0,1.6196 -0.009,0.1892 -0.2446,0.1892 -0.2633,0 0,-0.5371 5e-4,-1.0826 5e-4,-1.6196 0.0203,5e-4 0.05,-5e-4 0.0704,0 0,-0.0269 -4e-4,-0.1055 -4e-4,-0.1324 -0.0877,0.0145 -0.144,0.0615 -0.1504,0.1409 0,0.2248 0,0.4496 0,0.6745 -0.002,0.1153 -0.1456,0.1104 -0.1414,0.002 0.006,-0.1 0.01,-0.1998 0.0104,-0.302 -0.0919,-6e-4 -0.1735,-3e-4 -0.3269,0 -1e-4,-0.0433 5e-4,-0.0528 0,-0.1039 0.1405,2e-4 0.2167,1e-4 0.3261,6e-4 -9e-4,-0.0935 -0.004,-0.1881 -0.01,-0.2819 0.0143,-0.165 0.133,-0.2488 0.2936,-0.2514 9e-4,-0.0145 7e-4,-0.0253 0,-0.0463 -0.0897,-0.0477 -0.2438,-0.0669 -0.3335,-0.1147 0,0.1778 0.006,0.3556 0.006,0.5335 -0.0244,0.1887 -0.3046,0.1704 -0.2985,0 0,-0.2988 0,-0.5976 0,-0.8964 0.0151,-0.1337 0.1306,-0.0919 0.2658,-0.0157 0.0181,0.0114 0.0272,-10e-4 0.0272,-0.0124 0,-0.0923 0,-0.2003 0,-0.2978 -0.1444,-2e-4 -0.207,6e-4 -0.342,0 6e-4,-0.0448 -2e-4,-0.0776 0,-0.1393 0.0438,0.002 0.2062,0.001 0.3432,0.002 0,-0.2279 -0.001,-0.4587 -0.001,-0.6865 -0.0653,0.0668 -0.1043,0.1284 -0.1552,0.186 -0.0149,0.0506 -0.0265,0.1041 -0.0401,0.1533 0.0146,0.0695 0.0193,0.1369 0.0297,0.1955 0.0114,0.1358 -0.1748,0.1552 -0.1986,-3e-4 -0.0308,-0.4249 0.1461,-0.7796 0.424,-0.9122 z"
         style="fill:#000000;fill-rule:evenodd"
         id="path28306" />
      <path
         d="m 167.5907,108.7415 h 0.2948 c 0.004,0 0.008,0.003 0.008,0.007 v 0.0787 c 0,0.004 -0.004,0.008 -0.008,0.008 h -0.2948 c -0.004,0 -0.008,-0.003 -0.008,-0.008 v -0.0787 c 0,-0.004 0.004,-0.007 0.008,-0.007 z"
         style="fill:#000000;fill-rule:evenodd"
         id="path28308" />
      <path
         d="m 167.2215,104.6706 c 0.1396,0 0.2534,0.1137 0.2534,0.2531 0,0.1394 -0.1138,0.253 -0.2534,0.253 -0.1395,0 -0.2533,-0.1136 -0.2533,-0.253 0,-0.1394 0.1138,-0.2531 0.2533,-0.2531 z"
         style="fill:#000000;fill-rule:evenodd"
         id="path28310" />
    </g>
  </g>
</svg>
