<?xml version="1.0" encoding="UTF-8" standalone="no"?>
<svg
   xmlns:dc="http://purl.org/dc/elements/1.1/"
   xmlns:cc="http://creativecommons.org/ns#"
   xmlns:rdf="http://www.w3.org/1999/02/22-rdf-syntax-ns#"
   xmlns:svg="http://www.w3.org/2000/svg"
   xmlns="http://www.w3.org/2000/svg"
   xmlns:sodipodi="http://sodipodi.sourceforge.net/DTD/sodipodi-0.dtd"
   xmlns:inkscape="http://www.inkscape.org/namespaces/inkscape"
   version="1.1"
   width="791.48602"
   height="791.49921"
   id="svg29062"
   viewBox="0 0 791.48603 791.49915"
   sodipodi:docname="A-30a.svg"
   inkscape:version="1.0.2 (e86c870879, 2021-01-15)">
  <metadata
     id="metadata29068">
    <rdf:RDF>
      <cc:Work
         rdf:about="">
        <dc:format>image/svg+xml</dc:format>
        <dc:type
           rdf:resource="http://purl.org/dc/dcmitype/StillImage" />
        <dc:title />
      </cc:Work>
    </rdf:RDF>
  </metadata>
  <defs
     id="defs29066" />
  <sodipodi:namedview
     pagecolor="#ffffff"
     bordercolor="#666666"
     borderopacity="1"
     objecttolerance="10"
     gridtolerance="10"
     guidetolerance="10"
     inkscape:pageopacity="0"
     inkscape:pageshadow="2"
     inkscape:window-width="1920"
     inkscape:window-height="1016"
     id="namedview29064"
     showgrid="false"
     inkscape:zoom="0.049253423"
     inkscape:cx="-560.10289"
     inkscape:cy="-565.20139"
     inkscape:window-x="0"
     inkscape:window-y="27"
     inkscape:window-maximized="1"
     inkscape:current-layer="svg29062"
     showguides="false"
     inkscape:document-rotation="0" />
  <g
     id="Layer1111"
     transform="matrix(65.957993,0,0,65.957993,-8877.9623,-6680.6262)">
    <path
       d="m 134.8632,106.6486 5.0996,-5.0995 c 0.3506,-0.3507 0.9243,-0.3507 1.2747,0 l 5.0998,5.0995 c 0.3504,0.3506 0.3504,0.9244 0,1.275 l -5.0998,5.0995 c -0.3504,0.3507 -0.9241,0.3507 -1.2747,0 l -5.0996,-5.0995 c -0.3506,-0.3506 -0.3506,-0.9244 0,-1.275 z"
       style="fill:#ffec00;fill-rule:evenodd"
       id="path28250" />
    <path
       d="m 134.9656,106.8066 5.1552,-5.1551 c 0.132,-0.132 0.3058,-0.198 0.4795,-0.198 0.1737,0 0.3475,0.066 0.4795,0.198 l 5.1551,5.1551 c 0.132,0.132 0.198,0.3058 0.198,0.4795 0,0.1737 -0.066,0.3475 -0.198,0.4795 l -5.1551,5.1551 c -0.132,0.132 -0.3058,0.198 -0.4795,0.198 -0.1737,0 -0.3475,-0.066 -0.4795,-0.198 l -5.1552,-5.1551 c -0.1319,-0.132 -0.1979,-0.3058 -0.1979,-0.4795 0,-0.1737 0.066,-0.3475 0.1979,-0.4795 z m 5.3464,-4.9639 -5.1551,5.1551 c -0.0792,0.0792 -0.1188,0.1837 -0.1188,0.2883 0,0.1046 0.0396,0.2091 0.1188,0.2883 l 5.1551,5.1551 c 0.0792,0.0792 0.1837,0.1187 0.2883,0.1187 0.1046,0 0.2091,-0.0395 0.2882,-0.1187 l 5.1552,-5.1551 c 0.0792,-0.0792 0.1187,-0.1837 0.1187,-0.2883 0,-0.1046 -0.0395,-0.2091 -0.1187,-0.2883 l -5.1552,-5.1551 c -0.0791,-0.0792 -0.1836,-0.1188 -0.2882,-0.1188 -0.1046,0 -0.2091,0.0396 -0.2883,0.1188 z"
       style="fill:#000000;fill-rule:evenodd"
       id="path28252" />
    <g
       id="Layer1112">
      <path
         d="m 141.649,106.9412 c 0.0342,-0.1131 0.0488,-0.1982 0.0146,-0.3113 -0.1993,-0.4832 -0.4427,-0.8962 -0.7301,-1.4403 -0.0925,-0.1592 -0.2925,-0.1967 -0.4779,-0.009 -0.3666,0.4518 -0.7429,0.9036 -1.1095,1.3555 -0.006,0.2019 0.1002,0.3522 0.3678,0.2121 0.2553,-0.2887 0.3982,-0.5071 0.6535,-0.7957 0.0982,0.2259 0.2159,0.4518 0.3141,0.6777 0.0732,0.1269 -0.0344,0.1787 -0.0784,0.2259 -0.3077,0.1256 -0.6251,0.2792 -0.9035,0.4187 -0.0521,0.113 -0.0407,0.2025 0.0343,0.3061 0.1898,0.3326 0.3357,0.6184 0.5255,0.951 0.0899,0.0516 0.1505,0.0189 0.216,0.0377 -0.0524,0.1381 -0.0706,0.2527 -0.1229,0.3908 0.0479,0.311 0.2718,0.3035 0.4712,0.1742 0.3077,-0.7529 0.5225,-1.3887 0.8253,-2.1931 z m -1.3695,0.6248 c 0.1637,-0.0823 0.3005,-0.1414 0.6,-0.2622 0.0499,-0.0201 0.0813,-0.0101 0.0702,0.0185 -0.0408,0.1049 -0.2224,0.5956 -0.324,0.8863 -0.1713,-0.3138 -0.2088,-0.3922 -0.3462,-0.6426 z"
         style="fill:#000000;fill-rule:evenodd"
         id="path28254" />
      <path
         d="m 140.1164,105.1064 c 0.2715,0 0.493,-0.2123 0.493,-0.4726 0,-0.2603 -0.2215,-0.4726 -0.493,-0.4726 -0.2715,0 -0.4929,0.2123 -0.4929,0.4726 0,0.2603 0.2214,0.4726 0.4929,0.4726 z"
         style="fill:#000000;fill-rule:evenodd"
         id="path28256" />
      <path
         d="m 139.7192,107.7326 c -0.1369,-0.1239 -0.1356,-0.1244 -0.5854,-0.5351 0.2052,0.003 0.2425,-4e-4 0.5059,-0.002 0.0522,-0.0318 0.1051,-0.0764 0.152,-0.1175 -0.1942,0.003 -0.3265,5e-4 -0.5801,0.004 0.0591,-0.0863 0.0852,-0.1239 0.1639,-0.2401 -0.003,-0.002 -0.0862,-0.0506 -0.1007,-0.058 -0.0607,0.0865 -0.1847,0.2694 -0.2876,0.4196 -0.0759,0.1109 -0.1357,0.1932 -0.1506,0.217 -0.1767,-0.1027 -0.3525,-0.1489 -0.5611,-0.1523 -0.5825,-0.01 -1.0392,0.4475 -1.0392,0.9962 0,0.5487 0.4668,0.9963 1.0392,0.9963 0.5724,0 1.0336,-0.453 1.0392,-0.9963 0.003,-0.3045 -0.1228,-0.5701 -0.38,-0.7813 0.0508,-0.0688 0.0552,-0.0777 0.1298,-0.1862 0.2724,0.2404 0.3393,0.3068 0.7446,0.6663 -0.0546,-0.1464 -0.0327,-0.0913 -0.0899,-0.2313 z m -0.8578,-0.1382 c 0.2007,0.1599 0.3227,0.4019 0.3227,0.6707 0,0.4798 -0.4082,0.871 -0.9086,0.871 -0.5004,0 -0.9086,-0.3912 -0.9086,-0.871 0,-0.4797 0.4082,-0.871 0.9086,-0.871 0.1681,0 0.3518,0.0619 0.4914,0.1313 -0.1951,0.2831 -0.2255,0.3334 -0.4083,0.5975 -0.0686,-0.005 -0.1526,-0.007 -0.2138,0.0786 -0.1202,0.1685 0.1679,0.3853 0.3058,0.2005 0.0498,-0.0667 0.0279,-0.1633 0.005,-0.218 0.1823,-0.2647 0.2428,-0.3598 0.4062,-0.5896 z"
         style="fill:#000000;fill-rule:evenodd"
         id="path28258" />
      <path
         d="m 142.5485,107.3391 c -0.2196,0 -0.3914,0.0466 -0.5896,0.1803 -0.1133,-0.1421 -0.1155,-0.1454 -0.2544,-0.3221 -0.0144,0.0531 -0.0191,0.0953 -0.0357,0.1641 0.0819,0.1085 0.1092,0.1401 0.1839,0.2415 -0.2018,0.1866 -0.2936,0.4004 -0.2988,0.6656 -0.0951,7e-4 -0.1233,2e-4 -0.2487,-3e-4 -0.0121,0.0471 -0.0121,0.057 -0.0281,0.1208 0.1188,0.002 0.1493,0.002 0.2757,0.002 0.0376,0.499 0.4719,0.886 0.9957,0.8855 0.5541,-4e-4 1.0052,-0.4352 1.0052,-0.9688 0,-0.5336 -0.4539,-0.9687 -1.0052,-0.9687 z m -0.5055,0.2961 c 0.146,-0.1042 0.3177,-0.1621 0.5134,-0.1635 0.4817,-0.004 0.8746,0.3739 0.8746,0.8323 0,0.4584 -0.3929,0.8323 -0.8746,0.8323 -0.4515,0 -0.8251,-0.3307 -0.87,-0.7478 0.2142,-8e-4 0.457,0.002 0.6319,6e-4 0.1215,0.1623 0.2722,0.0903 0.3165,0.007 0.0402,-0.0759 0.0219,-0.2171 -0.1748,-0.222 -0.1706,-0.2391 -0.211,-0.2779 -0.417,-0.5384 z m -0.1084,0.0752 c 0.1786,0.2241 0.2119,0.2685 0.4364,0.5615 -0.2326,-0.001 -0.3476,-0.001 -0.6845,-0.002 -0.018,-0.1458 0.0848,-0.4192 0.2481,-0.559 z"
         style="fill:#000000;fill-rule:evenodd"
         id="path28260" />
    </g>
  </g>
</svg>
