<?xml version="1.0" encoding="UTF-8" standalone="no"?>
<svg
   xmlns:dc="http://purl.org/dc/elements/1.1/"
   xmlns:cc="http://creativecommons.org/ns#"
   xmlns:rdf="http://www.w3.org/1999/02/22-rdf-syntax-ns#"
   xmlns:svg="http://www.w3.org/2000/svg"
   xmlns="http://www.w3.org/2000/svg"
   xmlns:sodipodi="http://sodipodi.sourceforge.net/DTD/sodipodi-0.dtd"
   xmlns:inkscape="http://www.inkscape.org/namespaces/inkscape"
   version="1.1"
   width="791.48602"
   height="791.49921"
   id="svg29062"
   viewBox="0 0 791.48603 791.49915"
   sodipodi:docname="A-30b.svg"
   inkscape:version="1.0.2 (e86c870879, 2021-01-15)">
  <metadata
     id="metadata29068">
    <rdf:RDF>
      <cc:Work
         rdf:about="">
        <dc:format>image/svg+xml</dc:format>
        <dc:type
           rdf:resource="http://purl.org/dc/dcmitype/StillImage" />
        <dc:title />
      </cc:Work>
    </rdf:RDF>
  </metadata>
  <defs
     id="defs29066" />
  <sodipodi:namedview
     pagecolor="#ffffff"
     bordercolor="#666666"
     borderopacity="1"
     objecttolerance="10"
     gridtolerance="10"
     guidetolerance="10"
     inkscape:pageopacity="0"
     inkscape:pageshadow="2"
     inkscape:window-width="1920"
     inkscape:window-height="1016"
     id="namedview29064"
     showgrid="false"
     inkscape:zoom="0.049253423"
     inkscape:cx="-1497.2753"
     inkscape:cy="-469.97786"
     inkscape:window-x="0"
     inkscape:window-y="27"
     inkscape:window-maximized="1"
     inkscape:current-layer="svg29062"
     showguides="false"
     inkscape:document-rotation="0" />
  <g
     id="Layer1113"
     transform="matrix(65.957993,0,0,65.957993,-9815.1347,-6585.4027)">
    <path
       d="m 149.0719,105.2049 5.0995,-5.0995 c 0.3507,-0.3507 0.9244,-0.3507 1.2748,0 l 5.0998,5.0995 c 0.3503,0.3506 0.3503,0.9244 0,1.275 l -5.0998,5.0995 c -0.3504,0.3507 -0.9241,0.3507 -1.2748,0 l -5.0995,-5.0995 c -0.3507,-0.3506 -0.3507,-0.9244 0,-1.275 z"
       style="fill:#ffec00;fill-rule:evenodd"
       id="path28264" />
    <path
       d="m 149.1743,105.3629 5.1552,-5.1551 c 0.1319,-0.132 0.3057,-0.198 0.4794,-0.198 0.1737,0 0.3475,0.066 0.4795,0.198 l 5.1552,5.1551 c 0.1319,0.132 0.1979,0.3058 0.1979,0.4795 0,0.1737 -0.066,0.3475 -0.1979,0.4795 l -5.1552,5.1551 c -0.132,0.132 -0.3058,0.198 -0.4795,0.198 -0.1737,0 -0.3475,-0.066 -0.4794,-0.198 l -5.1552,-5.1551 c -0.132,-0.132 -0.198,-0.3058 -0.198,-0.4795 0,-0.1737 0.066,-0.3475 0.198,-0.4795 z m 5.3464,-4.9639 -5.1552,5.1551 c -0.0791,0.0792 -0.1187,0.1837 -0.1187,0.2883 0,0.1046 0.0396,0.2091 0.1187,0.2883 l 5.1552,5.1551 c 0.0791,0.0792 0.1836,0.1188 0.2882,0.1188 0.1046,0 0.2092,-0.0396 0.2883,-0.1188 l 5.1552,-5.1551 c 0.0791,-0.0792 0.1187,-0.1837 0.1187,-0.2883 0,-0.1046 -0.0396,-0.2091 -0.1187,-0.2883 l -5.1552,-5.1551 c -0.0791,-0.0792 -0.1837,-0.1187 -0.2883,-0.1187 -0.1046,0 -0.2091,0.0395 -0.2882,0.1187 z"
       style="fill:#000000;fill-rule:evenodd"
       id="path28266" />
    <g
       id="Layer1114">
      <path
         d="m 156.0875,104.9583 c 0.0342,-0.1132 0.0488,-0.1982 0.0146,-0.3113 -0.1994,-0.4832 -0.4427,-0.8962 -0.7301,-1.4403 -0.0925,-0.1593 -0.2925,-0.1968 -0.4779,-0.009 -0.3666,0.4519 -0.743,0.9037 -1.1095,1.3555 -0.006,0.2019 0.1002,0.3523 0.3678,0.2122 0.2552,-0.2887 0.3982,-0.5071 0.6535,-0.7958 0.0982,0.2259 0.2159,0.4518 0.3141,0.6778 0.0732,0.1268 -0.0344,0.1787 -0.0785,0.2259 -0.3076,0.1255 -0.6251,0.2791 -0.9034,0.4187 -0.0521,0.1129 -0.0407,0.2025 0.0343,0.3061 0.1898,0.3326 0.3357,0.6183 0.5255,0.9509 0.0899,0.0516 0.1505,0.0189 0.2159,0.0378 -0.0524,0.138 -0.0705,0.2527 -0.1229,0.3907 0.048,0.3111 0.2718,0.3036 0.4713,0.1743 0.3076,-0.7529 0.5225,-1.3887 0.8253,-2.1931 z m -1.3696,0.6248 c 0.1637,-0.0824 0.3005,-0.1415 0.6,-0.2622 0.0499,-0.0202 0.0814,-0.0101 0.0702,0.0185 -0.0407,0.1048 -0.2224,0.5956 -0.324,0.8863 -0.1713,-0.3139 -0.2087,-0.3922 -0.3462,-0.6426 z"
         style="fill:#000000;fill-rule:evenodd"
         id="path28268" />
      <path
         d="m 154.5549,103.1234 c 0.2715,0 0.4929,-0.2123 0.4929,-0.4726 0,-0.2602 -0.2214,-0.4725 -0.4929,-0.4725 -0.2715,0 -0.493,0.2123 -0.493,0.4725 0,0.2603 0.2215,0.4726 0.493,0.4726 z"
         style="fill:#000000;fill-rule:evenodd"
         id="path28270" />
      <path
         d="m 154.1577,105.7497 c -0.1369,-0.1239 -0.1357,-0.1244 -0.5855,-0.5352 0.2053,0.003 0.2425,-3e-4 0.506,-0.002 0.0522,-0.0318 0.105,-0.0764 0.1519,-0.1176 -0.1941,0.003 -0.3264,6e-4 -0.58,0.004 0.0591,-0.0863 0.0851,-0.1239 0.1639,-0.24 -0.003,-0.002 -0.0862,-0.0506 -0.1007,-0.058 -0.0607,0.0865 -0.1847,0.2694 -0.2876,0.4196 -0.076,0.1109 -0.1357,0.1932 -0.1507,0.217 -0.1766,-0.1027 -0.3524,-0.1489 -0.561,-0.1524 -0.5825,-0.01 -1.0392,0.4476 -1.0392,0.9963 0,0.5487 0.4668,0.9962 1.0392,0.9962 0.5723,0 1.0335,-0.4529 1.0392,-0.9962 0.003,-0.3046 -0.1228,-0.5701 -0.3801,-0.7814 0.0508,-0.0688 0.0553,-0.0777 0.1298,-0.1861 0.2725,0.2404 0.3394,0.3067 0.7447,0.6662 -0.0546,-0.1463 -0.0327,-0.0912 -0.0899,-0.2312 z m -0.8579,-0.1383 c 0.2007,0.16 0.3227,0.402 0.3227,0.6708 0,0.4797 -0.4081,0.871 -0.9085,0.871 -0.5005,0 -0.9086,-0.3913 -0.9086,-0.871 0,-0.4798 0.4081,-0.871 0.9086,-0.871 0.1681,0 0.3518,0.0619 0.4914,0.1313 -0.1951,0.2831 -0.2256,0.3334 -0.4083,0.5975 -0.0687,-0.005 -0.1526,-0.007 -0.2138,0.0785 -0.1202,0.1685 0.1679,0.3853 0.3058,0.2006 0.0498,-0.0668 0.0278,-0.1633 0.004,-0.218 0.1824,-0.2648 0.2428,-0.3599 0.4062,-0.5897 z"
         style="fill:#000000;fill-rule:evenodd"
         id="path28272" />
      <path
         d="m 156.987,105.3561 c -0.2197,0 -0.3914,0.0466 -0.5896,0.1804 -0.1134,-0.1422 -0.1156,-0.1454 -0.2544,-0.3221 -0.0145,0.0531 -0.0191,0.0952 -0.0357,0.164 0.0819,0.1086 0.1092,0.1402 0.1838,0.2416 -0.2017,0.1866 -0.2936,0.4004 -0.2988,0.6656 -0.0951,6e-4 -0.1232,2e-4 -0.2486,-4e-4 -0.0121,0.0472 -0.0122,0.057 -0.0282,0.1208 0.1188,0.002 0.1494,0.002 0.2757,0.002 0.0376,0.4991 0.4719,0.886 0.9958,0.8856 0.5541,-5e-4 1.0052,-0.4352 1.0052,-0.9688 0,-0.5336 -0.4539,-0.9688 -1.0052,-0.9688 z m -0.5055,0.2961 c 0.146,-0.1041 0.3177,-0.1621 0.5134,-0.1635 0.4817,-0.003 0.8745,0.3739 0.8745,0.8324 0,0.4584 -0.3928,0.8323 -0.8745,0.8323 -0.4516,0 -0.8251,-0.3307 -0.87,-0.7478 0.2142,-9e-4 0.4569,0.002 0.6319,5e-4 0.1215,0.1624 0.2722,0.0904 0.3165,0.007 0.0402,-0.0759 0.0218,-0.2172 -0.1748,-0.2221 -0.1707,-0.239 -0.211,-0.2779 -0.417,-0.5384 z m -0.1084,0.0752 c 0.1785,0.2241 0.2118,0.2685 0.4364,0.5616 -0.2326,-0.001 -0.3477,-0.002 -0.6846,-0.002 -0.018,-0.1459 0.0849,-0.4193 0.2482,-0.5591 z"
         style="fill:#000000;fill-rule:evenodd"
         id="path28274" />
      <path
         d="m 150.7859,106.1811 v -0.5175 h -0.4463 v 0.5175 z"
         style="fill:#000000;fill-rule:evenodd"
         id="path28276" />
      <path
         d="m 151.2247,105.6636 v 0.5175 h 0.2725 c -0.0159,-0.1973 -0.002,-0.3336 0.1738,-0.5175 z"
         style="fill:#000000;fill-rule:evenodd"
         id="path28278" />
      <path
         d="m 157.9469,105.6636 c 0.1761,0.1839 0.1897,0.3202 0.1738,0.5175 h 0.2725 v -0.5175 z"
         style="fill:#000000;fill-rule:evenodd"
         id="path28280" />
      <path
         d="m 158.832,105.6636 v 0.5175 h 0.4463 v -0.5175 z"
         style="fill:#000000;fill-rule:evenodd"
         id="path28282" />
      <path
         d="m 153.0763,108.496 v -0.5175 H 152.63 v 0.5175 z"
         style="fill:#000000;fill-rule:evenodd"
         id="path28284" />
      <path
         d="m 153.4714,107.9785 v 0.5175 h 0.4463 v -0.5175 z"
         style="fill:#000000;fill-rule:evenodd"
         id="path28286" />
      <path
         d="m 154.2875,107.9785 v 0.5175 h 0.4463 v -0.5175 z"
         style="fill:#000000;fill-rule:evenodd"
         id="path28288" />
      <path
         d="m 155.1082,107.9785 v 0.5175 h 0.4463 v -0.5175 z"
         style="fill:#000000;fill-rule:evenodd"
         id="path28290" />
      <path
         d="m 155.9496,107.9785 v 0.5175 h 0.4463 v -0.5175 z"
         style="fill:#000000;fill-rule:evenodd"
         id="path28292" />
      <path
         d="m 156.7657,107.9785 v 0.5175 h 0.4463 v -0.5175 z"
         style="fill:#000000;fill-rule:evenodd"
         id="path28294" />
    </g>
  </g>
  <g
     id="Layer1190"
     transform="matrix(65.957993,0,0,65.957993,-9815.1347,-6585.4027)">
    <path
       d="m 148.5072,160.1809 h 25.0226 v 15.7623 h -25.0226 z"
       style="fill:#ffffff;fill-rule:evenodd"
       id="path29039" />
    <path
       d="m 149.1541,160.6078 h 23.7288 c 0.1185,0 0.2154,0.0969 0.2154,0.2154 v 14.4777 c 0,0.1185 -0.0969,0.2154 -0.2154,0.2154 h -23.7288 c -0.1185,0 -0.2154,-0.0969 -0.2154,-0.2154 v -14.4777 c 0,-0.1185 0.0969,-0.2154 0.2154,-0.2154 z"
       style="fill:#ffffff;fill-rule:evenodd"
       id="path29041" />
    <path
       d="m 149.1544,160.4998 h 23.7282 c 0.0888,0 0.1696,0.0364 0.2281,0.095 l 5e-4,4e-4 c 0.0585,0.0586 0.0949,0.1394 0.0949,0.2282 v 14.4772 c 0,0.0887 -0.0364,0.1695 -0.0949,0.2281 l -5e-4,5e-4 c -0.0585,0.0585 -0.1393,0.0949 -0.2281,0.0949 h -23.7282 c -0.0888,0 -0.1696,-0.0364 -0.2282,-0.0949 l -4e-4,-5e-4 c -0.0586,-0.0586 -0.095,-0.1394 -0.095,-0.2281 v -14.4772 c 0,-0.0888 0.0364,-0.1696 0.095,-0.2282 l 4e-4,-4e-4 c 0.0586,-0.0586 0.1394,-0.095 0.2282,-0.095 z m 23.7282,0.2157 h -23.7282 c -0.0298,0 -0.0568,0.0121 -0.0763,0.0316 -0.0195,0.0195 -0.0316,0.0465 -0.0316,0.0763 v 14.4772 c 0,0.0297 0.0121,0.0567 0.0316,0.0763 0.0195,0.0194 0.0465,0.0315 0.0763,0.0315 h 23.7282 c 0.0297,0 0.0567,-0.0121 0.0763,-0.0315 0.0194,-0.0196 0.0315,-0.0466 0.0315,-0.0763 v -14.4772 c 0,-0.0298 -0.0121,-0.0568 -0.0315,-0.0763 -0.0196,-0.0195 -0.0466,-0.0316 -0.0763,-0.0316 z"
       style="fill:#ffffff;fill-rule:evenodd"
       id="path29043" />
    <path
       d="m 152.0398,161.8445 h -0.3776 v 1.4035 h -0.2582 v -1.4035 h -0.3728 v -0.229 h 1.0086 z m 1.5519,1.4035 h -0.2729 l -0.1608,-0.4581 h -0.5094 l -0.1607,0.4581 h -0.2752 l 0.5604,-1.6325 h 0.2582 z m -0.5264,-0.7212 -0.1607,-0.4581 -0.1658,0.4581 z m 1.8054,0.7212 h -0.28 l -0.2634,-0.709 h -0.3092 v 0.709 h -0.2583 v -1.6325 h 0.6455 c 0.1332,0.002 0.2384,0.0502 0.3155,0.1451 0.0774,0.095 0.1159,0.1993 0.1159,0.313 0,0.0861 -0.0235,0.1678 -0.0709,0.2449 -0.047,0.0771 -0.108,0.1326 -0.1825,0.1669 z m -0.29,-1.1671 c 0,-0.0632 -0.019,-0.1119 -0.0572,-0.1462 -0.038,-0.0341 -0.0808,-0.0519 -0.1279,-0.0536 h -0.3775 v 0.4019 h 0.3872 c 0.0487,0 0.0901,-0.0178 0.1244,-0.0535 0.034,-0.0358 0.051,-0.0854 0.051,-0.1486 z m 0.8748,1.1671 h -0.2633 v -1.6325 h 0.2633 z m 1.3399,-1.3743 h -0.7551 v 0.4023 h 0.4751 v 0.263 h -0.4751 v 0.709 h -0.2582 v -1.6325 h 1.0133 z m 1.5472,1.3743 h -0.273 l -0.1607,-0.4581 h -0.5094 l -0.1607,0.4581 h -0.2753 l 0.5605,-1.6325 h 0.2582 z m -0.5264,-0.7212 -0.1607,-0.4581 -0.1658,0.4581 z m 2.4267,-0.0949 c -0.002,0.284 -0.0603,0.4912 -0.1766,0.621 -0.1162,0.1301 -0.2588,0.1951 -0.4274,0.1951 h -0.5094 v -1.6325 h 0.5094 c 0.1686,0 0.3112,0.0652 0.4274,0.195 0.1163,0.1298 0.1749,0.337 0.1766,0.6214 z m -0.8552,0 v 0.5578 h 0.2512 c 0.1085,-0.003 0.1936,-0.0553 0.2545,-0.1559 0.061,-0.1006 0.0922,-0.2347 0.0939,-0.4019 0,-0.1789 -0.0309,-0.3155 -0.0927,-0.4108 -0.0618,-0.0949 -0.1472,-0.144 -0.2557,-0.1474 h -0.2512 z m 2.1099,0.8161 h -1.0134 v -1.6325 h 0.9623 v 0.2582 h -0.7041 v 0.4023 h 0.4751 v 0.263 h -0.4751 v 0.4459 h 0.7552 z m 1.4473,-0.709 h -0.3095 v 0.709 h -0.2583 v -1.6325 h 0.5383 c 0.1202,0 0.2169,0.0176 0.29,0.0524 0.0732,0.0349 0.133,0.0907 0.1792,0.167 0.0462,0.0762 0.0694,0.1559 0.0694,0.2387 0,0.0861 -0.0187,0.1641 -0.0561,0.2338 -0.0374,0.07 -0.0938,0.1264 -0.1692,0.1695 -0.0757,0.0431 -0.1701,0.0638 -0.2838,0.0621 z m 0.2483,-0.4606 c 0,-0.0632 -0.0189,-0.112 -0.0572,-0.146 -0.038,-0.0343 -0.0808,-0.0522 -0.1279,-0.0536 h -0.3775 v 0.402 h 0.3872 c 0.0487,0 0.0901,-0.0179 0.1244,-0.0536 0.034,-0.0357 0.051,-0.0853 0.051,-0.1488 z m 1.5325,1.1696 h -1.0134 v -1.6325 h 0.9623 v 0.2582 h -0.7041 v 0.4023 h 0.4751 v 0.263 h -0.4751 v 0.4459 h 0.7552 z m 1.3521,-0.8161 c -0.002,0.284 -0.0604,0.4912 -0.1766,0.621 -0.1162,0.1301 -0.2588,0.1951 -0.4275,0.1951 h -0.5094 v -1.6325 h 0.5094 c 0.1687,0 0.3113,0.0652 0.4275,0.195 0.1162,0.1298 0.1749,0.337 0.1766,0.6214 z m -0.8552,0 v 0.5578 h 0.2511 c 0.1086,-0.003 0.1936,-0.0553 0.2546,-0.1559 0.0609,-0.1006 0.0921,-0.2347 0.0938,-0.4019 0,-0.1789 -0.0309,-0.3155 -0.0927,-0.4108 -0.0618,-0.0949 -0.1471,-0.144 -0.2557,-0.1474 h -0.2511 z m 1.491,-0.8845 0.1584,-0.3339 h 0.2827 l -0.2631,0.3339 z m 0.9113,1.7006 h -0.2729 l -0.1608,-0.4581 h -0.5094 l -0.1607,0.4581 h -0.2752 l 0.5604,-1.6325 h 0.2582 z m -0.5264,-0.7212 -0.1607,-0.4581 -0.1658,0.4581 z m 1.2816,0.4896 c 0.1462,-0.003 0.233,-0.1038 0.2608,-0.3019 H 168.39 v -0.273 h 0.5457 v 0.0706 c -0.002,0.2517 -0.0516,0.4422 -0.15,0.5714 -0.0981,0.129 -0.231,0.1936 -0.3983,0.1936 -0.1964,-0.002 -0.3463,-0.0762 -0.4495,-0.2242 -0.1032,-0.1477 -0.1548,-0.3549 -0.1548,-0.621 0,-0.2665 0.0516,-0.4737 0.1548,-0.6214 0.1032,-0.1477 0.2506,-0.2217 0.4422,-0.2217 0.2355,0.005 0.4028,0.108 0.502,0.3093 l -0.2412,0.1196 c -0.0536,-0.1122 -0.1406,-0.1689 -0.2608,-0.1706 -0.1137,0 -0.1965,0.0538 -0.2486,0.1618 -0.0519,0.108 -0.078,0.2492 -0.078,0.423 0,0.1737 0.0261,0.3146 0.078,0.4226 0.0521,0.108 0.1349,0.1619 0.2486,0.1619 z m 1.133,0.2316 h -0.2634 v -1.6325 h 0.2634 z m 0.8918,0.0291 c -0.1917,0 -0.3391,-0.0725 -0.4422,-0.2179 -0.1032,-0.1455 -0.1548,-0.3546 -0.1548,-0.6273 0,-0.2665 0.0516,-0.4737 0.1548,-0.6214 0.1031,-0.1477 0.2505,-0.2217 0.4422,-0.2217 0.1947,0 0.343,0.074 0.4444,0.2217 0.1018,0.1477 0.1525,0.3549 0.1525,0.6214 0,0.2727 -0.0507,0.4818 -0.1525,0.6273 -0.1014,0.1454 -0.2497,0.2179 -0.4444,0.2179 z m 0,-1.43 c -0.1137,0 -0.1968,0.0538 -0.2486,0.1618 -0.0519,0.108 -0.0788,0.2475 -0.0805,0.4179 0,0.1919 0.0258,0.337 0.0768,0.4362 0.0513,0.0992 0.1352,0.1477 0.2523,0.1463 0.1233,-0.003 0.2086,-0.0544 0.2557,-0.1537 0.047,-0.0989 0.0722,-0.242 0.0756,-0.4288 -0.003,-0.1817 -0.0306,-0.3223 -0.0816,-0.4213 -0.0513,-0.0992 -0.1344,-0.1519 -0.2497,-0.1584 z"
       style="fill:#ffffff;fill-rule:evenodd"
       id="path29045" />
    <path
       d="m 148.9386,164.1541 h 24.1597 v 0.2157 h -24.1597 z"
       style="fill:#ffffff;fill-rule:evenodd"
       id="path29047" />
    <path
       d="m 150.8163,166.2895 h -0.1621 v -0.5941 l -0.2373,0.5941 -0.2375,-0.5941 v 0.5941 h -0.1622 v -1.0258 h 0.1622 l 0.2375,0.5757 0.2373,-0.5757 h 0.1621 z m 0.5023,0.0185 c -0.1204,0 -0.2131,-0.0457 -0.2778,-0.1372 -0.0649,-0.0913 -0.0972,-0.2226 -0.0972,-0.3941 0,-0.1675 0.0323,-0.2976 0.0972,-0.3906 0.0647,-0.0927 0.1574,-0.1392 0.2778,-0.1392 0.1225,0 0.2157,0.0465 0.2795,0.1392 0.0638,0.093 0.0956,0.2231 0.0956,0.3906 0,0.1715 -0.0318,0.3028 -0.0956,0.3941 -0.0638,0.0915 -0.157,0.1372 -0.2795,0.1372 z m 0,-0.8989 c -0.0714,0 -0.1236,0.034 -0.1562,0.102 -0.0326,0.0678 -0.0493,0.1554 -0.0504,0.2625 0,0.1205 0.0161,0.2118 0.0482,0.2741 0.032,0.0621 0.085,0.0927 0.1584,0.0919 0.0777,-0.002 0.1313,-0.0343 0.1608,-0.0967 0.0297,-0.0621 0.0453,-0.1519 0.0476,-0.2693 -0.002,-0.1142 -0.0193,-0.2027 -0.0513,-0.265 -0.0323,-0.0621 -0.0845,-0.0953 -0.1571,-0.0995 z m 1.1438,-0.001 h -0.2373 v 0.8818 h -0.1624 v -0.8818 h -0.2341 v -0.144 h 0.6338 z m 0.51,0.9003 c -0.1205,0 -0.2132,-0.0457 -0.2778,-0.1372 -0.0649,-0.0913 -0.0973,-0.2226 -0.0973,-0.3941 0,-0.1675 0.0324,-0.2976 0.0973,-0.3906 0.0646,-0.0927 0.1573,-0.1392 0.2778,-0.1392 0.1224,0 0.2157,0.0465 0.2795,0.1392 0.0637,0.093 0.0955,0.2231 0.0955,0.3906 0,0.1715 -0.0318,0.3028 -0.0955,0.3941 -0.0638,0.0915 -0.1571,0.1372 -0.2795,0.1372 z m 0,-0.8989 c -0.0715,0 -0.1236,0.034 -0.1562,0.102 -0.0326,0.0678 -0.0493,0.1554 -0.0505,0.2625 0,0.1205 0.0162,0.2118 0.0482,0.2741 0.032,0.0621 0.085,0.0927 0.1585,0.0919 0.0776,-0.002 0.1312,-0.0343 0.1607,-0.0967 0.0298,-0.0621 0.0453,-0.1519 0.0476,-0.2693 -0.002,-0.1142 -0.0193,-0.2027 -0.0513,-0.265 -0.0323,-0.0621 -0.0845,-0.0953 -0.157,-0.0995 z m 0.8881,0.735 c 0.0756,-0.001 0.1301,-0.0368 0.1638,-0.1071 l 0.1517,0.0748 c -0.0624,0.1267 -0.1676,0.1916 -0.3155,0.1945 -0.1205,0 -0.2132,-0.0463 -0.2778,-0.1392 -0.065,-0.093 -0.0973,-0.2231 -0.0973,-0.3904 0,-0.1675 0.0323,-0.2976 0.0973,-0.3906 0.0646,-0.0927 0.1573,-0.1392 0.2778,-0.1392 0.1479,0.003 0.2531,0.0678 0.3155,0.1945 l -0.1517,0.0748 c -0.0337,-0.0703 -0.0882,-0.106 -0.1638,-0.1071 -0.0715,0 -0.1236,0.034 -0.1562,0.102 -0.0326,0.0678 -0.0491,0.1562 -0.0491,0.2656 0,0.1092 0.0165,0.1976 0.0491,0.2656 0.0326,0.0678 0.0847,0.1018 0.1562,0.1018 z m 0.6876,0.1454 h -0.1655 v -1.0258 h 0.1655 z m 0.5831,-0.1454 c 0.0757,-0.001 0.1301,-0.0368 0.1639,-0.1071 l 0.1516,0.0748 c -0.0623,0.1267 -0.1675,0.1916 -0.3155,0.1945 -0.1204,0 -0.2131,-0.0463 -0.2778,-0.1392 -0.0649,-0.093 -0.0972,-0.2231 -0.0972,-0.3904 0,-0.1675 0.0323,-0.2976 0.0972,-0.3906 0.0647,-0.0927 0.1574,-0.1392 0.2778,-0.1392 0.148,0.003 0.2532,0.0678 0.3155,0.1945 l -0.1516,0.0748 c -0.0338,-0.0703 -0.0882,-0.106 -0.1639,-0.1071 -0.0714,0 -0.1236,0.034 -0.1562,0.102 -0.0326,0.0678 -0.049,0.1562 -0.049,0.2656 0,0.1092 0.0164,0.1976 0.049,0.2656 0.0326,0.0678 0.0848,0.1018 0.1562,0.1018 z m 1.1087,0.1454 h -0.637 v -1.0258 h 0.1624 v 0.8606 h 0.4746 z m 0.7886,0 h -0.637 v -1.0258 h 0.6046 v 0.1624 h -0.4422 v 0.2526 h 0.2985 v 0.1652 h -0.2985 v 0.2804 h 0.4746 z m 0.7854,-0.8818 h -0.2372 v 0.8818 h -0.1624 v -0.8818 h -0.2342 v -0.144 h 0.6338 z m 0.9754,0.8818 h -0.1715 l -0.1009,-0.2877 h -0.32 l -0.1012,0.2877 h -0.1729 l 0.3521,-1.0258 h 0.1624 z m -0.3308,-0.4532 -0.1009,-0.2877 -0.104,0.2877 z"
       style="fill:#ffffff;fill-rule:evenodd"
       id="path29049" />
    <path
       d="m 150.8838,168.7769 h -0.1715 l -0.1009,-0.2877 h -0.32 l -0.1012,0.2877 h -0.173 l 0.3521,-1.0258 h 0.1624 z m -0.3308,-0.4532 -0.1009,-0.2877 -0.1041,0.2877 z m 1.1347,0.0859 c 0,0.0805 -0.0159,0.1513 -0.0476,0.2126 -0.0255,0.0513 -0.0664,0.0927 -0.1225,0.125 -0.0561,0.032 -0.1156,0.0482 -0.1791,0.0482 -0.0632,0 -0.1228,-0.0162 -0.1789,-0.0482 -0.0561,-0.0323 -0.0975,-0.0737 -0.1242,-0.125 -0.0306,-0.0613 -0.0459,-0.1321 -0.0459,-0.2126 v -0.6585 h 0.1625 v 0.6585 c 0,0.0663 0.017,0.1196 0.051,0.1598 0.0343,0.0403 0.0793,0.0607 0.1355,0.0607 0.0564,0 0.1015,-0.0204 0.1355,-0.0607 0.0343,-0.0402 0.0513,-0.0935 0.0513,-0.1598 v -0.6585 h 0.1624 z m 0.7855,-0.5145 h -0.2373 v 0.8818 h -0.1624 v -0.8818 h -0.2341 v -0.144 h 0.6338 z m 0.5099,0.9003 c -0.1204,0 -0.2131,-0.0457 -0.2778,-0.1372 -0.0649,-0.0913 -0.0972,-0.2226 -0.0972,-0.3941 0,-0.1675 0.0323,-0.2976 0.0972,-0.3906 0.0647,-0.0927 0.1574,-0.1392 0.2778,-0.1392 0.1225,0 0.2158,0.0465 0.2795,0.1392 0.0638,0.093 0.0956,0.2231 0.0956,0.3906 0,0.1715 -0.0318,0.3028 -0.0956,0.3941 -0.0637,0.0915 -0.157,0.1372 -0.2795,0.1372 z m 0,-0.8989 c -0.0714,0 -0.1236,0.034 -0.1562,0.102 -0.0326,0.0678 -0.0493,0.1554 -0.0504,0.2625 0,0.1205 0.0161,0.2118 0.0482,0.2741 0.032,0.0621 0.085,0.0927 0.1584,0.0919 0.0777,-0.002 0.1313,-0.0343 0.1608,-0.0967 0.0297,-0.0621 0.0453,-0.1519 0.0476,-0.2693 -0.002,-0.1142 -0.0193,-0.2027 -0.0513,-0.265 -0.0323,-0.0621 -0.0845,-0.0953 -0.1571,-0.0995 z m 1.3045,0.8804 h -0.1621 v -0.5941 l -0.2373,0.5941 -0.2375,-0.5941 v 0.5941 h -0.1621 v -1.0258 h 0.1621 l 0.2375,0.5757 0.2373,-0.5757 h 0.1621 z m 0.5023,0.0185 c -0.1204,0 -0.2131,-0.0457 -0.2778,-0.1372 -0.0649,-0.0913 -0.0972,-0.2226 -0.0972,-0.3941 0,-0.1675 0.0323,-0.2976 0.0972,-0.3906 0.0647,-0.0927 0.1574,-0.1392 0.2778,-0.1392 0.1225,0 0.2158,0.0465 0.2795,0.1392 0.0638,0.093 0.0956,0.2231 0.0956,0.3906 0,0.1715 -0.0318,0.3028 -0.0956,0.3941 -0.0637,0.0915 -0.157,0.1372 -0.2795,0.1372 z m 0,-0.8989 c -0.0714,0 -0.1236,0.034 -0.1562,0.102 -0.0326,0.0678 -0.0493,0.1554 -0.0504,0.2625 0,0.1205 0.0161,0.2118 0.0482,0.2741 0.032,0.0621 0.085,0.0927 0.1584,0.0919 0.0777,-0.002 0.1313,-0.0343 0.1608,-0.0967 0.0297,-0.0621 0.0453,-0.1519 0.0476,-0.2693 -0.002,-0.1142 -0.0193,-0.2027 -0.0513,-0.265 -0.0323,-0.0621 -0.0845,-0.0953 -0.1571,-0.0995 z m -0.1377,-0.1882 0.0995,-0.2098 h 0.1777 l -0.1655,0.2098 z m 1.3841,0.0428 -0.3169,1.0258 h -0.1485 l -0.3124,-1.0258 h 0.1701 l 0.2188,0.6845 0.216,-0.6845 z m 0.7504,1.0258 h -0.637 v -1.0258 h 0.6046 v 0.1624 h -0.4422 v 0.2526 h 0.2985 v 0.1652 h -0.2985 v 0.2804 h 0.4746 z m 0.7886,0 h -0.637 v -1.0258 h 0.1624 v 0.8606 h 0.4746 z m -6.814,1.3275 c 0,0.0805 -0.0158,0.1514 -0.0476,0.2126 -0.0255,0.0513 -0.0663,0.0927 -0.1224,0.125 -0.0562,0.032 -0.1157,0.0482 -0.1792,0.0482 -0.0632,0 -0.1227,-0.0162 -0.1789,-0.0482 -0.0561,-0.0323 -0.0975,-0.0737 -0.1241,-0.125 -0.0306,-0.0612 -0.0459,-0.1321 -0.0459,-0.2126 v -0.6585 h 0.1624 v 0.6585 c 0,0.0663 0.017,0.1196 0.051,0.1599 0.0343,0.0402 0.0794,0.0606 0.1355,0.0606 0.0564,0 0.1015,-0.0204 0.1355,-0.0606 0.0343,-0.0403 0.0513,-0.0936 0.0513,-0.1599 v -0.6585 h 0.1624 z m 0.7855,-0.5145 h -0.2372 v 0.8819 h -0.1625 v -0.8819 h -0.2341 v -0.144 h 0.6338 z m 0.3708,0.8819 h -0.1656 v -1.0259 h 0.1656 z m 0.8419,0 h -0.637 v -1.0259 h 0.1625 v 0.8606 h 0.4745 z m 0.3676,0 h -0.1655 v -1.0259 h 0.1655 z m 0.8388,-0.8819 h -0.2373 v 0.8819 h -0.1624 v -0.8819 h -0.2341 v -0.144 h 0.6338 z m 0.4028,-0.1868 0.0995,-0.2098 h 0.1777 l -0.1655,0.2098 z m 0.5726,1.0687 h -0.1715 l -0.1009,-0.2878 h -0.32 l -0.1012,0.2878 h -0.1729 l 0.352,-1.0259 h 0.1624 z m -0.3308,-0.4533 -0.1009,-0.2877 -0.104,0.2877 z m 1.1347,0.4533 h -0.176 l -0.1656,-0.4456 h -0.1941 v 0.4456 h -0.1625 v -1.0259 h 0.4057 c 0.0839,0.001 0.1499,0.0315 0.1984,0.0913 0.0485,0.0595 0.0726,0.1253 0.0726,0.1967 0,0.0541 -0.0148,0.1052 -0.0443,0.1539 -0.0297,0.0485 -0.068,0.0834 -0.1148,0.1046 z m -0.1823,-0.7334 c 0,-0.0399 -0.0119,-0.0705 -0.036,-0.0918 -0.0238,-0.0215 -0.0507,-0.0326 -0.0802,-0.0337 h -0.2372 v 0.2525 h 0.2432 c 0.0306,0 0.0567,-0.011 0.0782,-0.0337 0.0213,-0.0224 0.032,-0.0536 0.032,-0.0933 z m 0.55,0.7334 h -0.1656 v -1.0259 h 0.1656 z m 0.5601,0.0184 c -0.1205,0 -0.2132,-0.0456 -0.2778,-0.1372 -0.0649,-0.0913 -0.0972,-0.2225 -0.0972,-0.394 0,-0.1676 0.0323,-0.2977 0.0972,-0.3906 0.0646,-0.0927 0.1573,-0.1392 0.2778,-0.1392 0.1224,0 0.2157,0.0465 0.2795,0.1392 0.0638,0.0929 0.0955,0.223 0.0955,0.3906 0,0.1715 -0.0317,0.3027 -0.0955,0.394 -0.0638,0.0916 -0.1571,0.1372 -0.2795,0.1372 z m 0,-0.8989 c -0.0714,0 -0.1236,0.034 -0.1562,0.1021 -0.0326,0.0677 -0.0493,0.1553 -0.0505,0.2625 0,0.1204 0.0162,0.2117 0.0482,0.2741 0.0321,0.062 0.0851,0.0927 0.1585,0.0918 0.0777,-0.002 0.1312,-0.0343 0.1607,-0.0967 0.0298,-0.062 0.0454,-0.1519 0.0476,-0.2692 -0.002,-0.1143 -0.0192,-0.2027 -0.0513,-0.2651 -0.0323,-0.0621 -0.0844,-0.0952 -0.157,-0.0995 z"
       style="fill:#ffffff;fill-rule:evenodd"
       id="path29051" />
    <path
       d="m 150.3923,172.5782 c 0.0757,-0.001 0.1301,-0.0369 0.1638,-0.1072 l 0.1517,0.0749 c -0.0624,0.1267 -0.1676,0.1916 -0.3155,0.1944 -0.1205,0 -0.2132,-0.0462 -0.2778,-0.1392 -0.0649,-0.0929 -0.0973,-0.223 -0.0973,-0.3903 0,-0.1675 0.0324,-0.2976 0.0973,-0.3906 0.0646,-0.0927 0.1573,-0.1392 0.2778,-0.1392 0.1479,0.003 0.2531,0.0678 0.3155,0.1945 l -0.1517,0.0748 c -0.0337,-0.0703 -0.0881,-0.106 -0.1638,-0.1071 -0.0715,0 -0.1236,0.034 -0.1562,0.102 -0.0326,0.0678 -0.0491,0.1562 -0.0491,0.2656 0,0.1092 0.0165,0.1976 0.0491,0.2656 0.0326,0.0678 0.0847,0.1018 0.1562,0.1018 z m 0.8268,0.1638 c -0.1204,0 -0.2131,-0.0456 -0.2778,-0.1372 -0.0649,-0.0912 -0.0972,-0.2225 -0.0972,-0.394 0,-0.1675 0.0323,-0.2976 0.0972,-0.3906 0.0647,-0.0927 0.1574,-0.1392 0.2778,-0.1392 0.1225,0 0.2158,0.0465 0.2795,0.1392 0.0638,0.093 0.0956,0.2231 0.0956,0.3906 0,0.1715 -0.0318,0.3028 -0.0956,0.394 -0.0637,0.0916 -0.157,0.1372 -0.2795,0.1372 z m 0,-0.8988 c -0.0714,0 -0.1236,0.034 -0.1562,0.102 -0.0326,0.0678 -0.0493,0.1554 -0.0504,0.2625 0,0.1205 0.0161,0.2117 0.0482,0.2741 0.032,0.0621 0.085,0.0927 0.1584,0.0919 0.0777,-0.002 0.1313,-0.0343 0.1608,-0.0967 0.0297,-0.0621 0.0453,-0.1519 0.0476,-0.2693 -0.002,-0.1142 -0.0193,-0.2027 -0.0513,-0.265 -0.0323,-0.0621 -0.0845,-0.0953 -0.1571,-0.0995 z m 1.3045,0.8804 h -0.1621 v -0.5941 l -0.2373,0.5941 -0.2375,-0.5941 v 0.5941 h -0.1621 v -1.0259 h 0.1621 l 0.2375,0.5758 0.2373,-0.5758 h 0.1621 z m 0.7841,0 h -0.6369 v -1.0259 h 0.6046 v 0.1625 h -0.4422 v 0.2525 h 0.2985 v 0.1653 h -0.2985 v 0.2803 h 0.4745 z m 0.8498,0 h -0.176 l -0.1655,-0.4456 h -0.1942 v 0.4456 h -0.1624 v -1.0259 h 0.4056 c 0.0839,0.001 0.1499,0.0315 0.1984,0.0913 0.0485,0.0596 0.0726,0.1253 0.0726,0.1967 0,0.0542 -0.0148,0.1052 -0.0442,0.154 -0.0298,0.0484 -0.0681,0.0833 -0.1148,0.1046 z m -0.1822,-0.7333 c 0,-0.04 -0.0119,-0.0706 -0.036,-0.0919 -0.0239,-0.0215 -0.0508,-0.0326 -0.0803,-0.0337 h -0.2372 v 0.2526 h 0.2432 c 0.0306,0 0.0567,-0.0111 0.0782,-0.0338 0.0213,-0.0224 0.0321,-0.0535 0.0321,-0.0932 z m 0.712,0.5879 c 0.0757,-0.001 0.1301,-0.0369 0.1639,-0.1072 l 0.1516,0.0749 c -0.0623,0.1267 -0.1675,0.1916 -0.3155,0.1944 -0.1204,0 -0.2131,-0.0462 -0.2778,-0.1392 -0.0649,-0.0929 -0.0972,-0.223 -0.0972,-0.3903 0,-0.1675 0.0323,-0.2976 0.0972,-0.3906 0.0647,-0.0927 0.1574,-0.1392 0.2778,-0.1392 0.148,0.003 0.2532,0.0678 0.3155,0.1945 l -0.1516,0.0748 c -0.0338,-0.0703 -0.0882,-0.106 -0.1639,-0.1071 -0.0714,0 -0.1236,0.034 -0.1562,0.102 -0.0326,0.0678 -0.049,0.1562 -0.049,0.2656 0,0.1092 0.0164,0.1976 0.049,0.2656 0.0326,0.0678 0.0848,0.1018 0.1562,0.1018 z m 0.6877,0.1454 h -0.1655 v -1.0259 h 0.1655 z m 1.0256,0 h -0.1715 l -0.1009,-0.2877 h -0.3201 l -0.1012,0.2877 h -0.1729 l 0.3521,-1.0259 h 0.1624 z m -0.3308,-0.4533 -0.1009,-0.2877 -0.1041,0.2877 z m 1.0735,0.4533 h -0.637 v -1.0259 h 0.1624 v 0.8606 h 0.4746 z m -6.7618,1.2492 h -0.1945 v 0.4456 h -0.1621 v -1.0258 h 0.3382 c 0.0757,0 0.1363,0.011 0.1822,0.0329 0.046,0.0221 0.0837,0.0569 0.1126,0.1048 0.0292,0.0482 0.0436,0.0981 0.0436,0.1503 0,0.0541 -0.0116,0.1029 -0.0351,0.1468 -0.0235,0.044 -0.059,0.0794 -0.1063,0.1066 -0.0476,0.0269 -0.1072,0.04 -0.1786,0.0388 z m 0.1562,-0.2891 c 0,-0.04 -0.0119,-0.0706 -0.036,-0.0921 -0.0238,-0.0213 -0.0508,-0.0326 -0.0802,-0.0335 h -0.2373 v 0.2526 h 0.2432 c 0.0306,0 0.0567,-0.0113 0.0783,-0.0337 0.0212,-0.0224 0.032,-0.0536 0.032,-0.0933 z m 0.6814,0.7532 c -0.1204,0 -0.2131,-0.0457 -0.2778,-0.1372 -0.0649,-0.0913 -0.0972,-0.2226 -0.0972,-0.394 0,-0.1676 0.0323,-0.2977 0.0972,-0.3907 0.0647,-0.0927 0.1574,-0.1391 0.2778,-0.1391 0.1225,0 0.2158,0.0464 0.2795,0.1391 0.0638,0.093 0.0956,0.2231 0.0956,0.3907 0,0.1714 -0.0318,0.3027 -0.0956,0.394 -0.0637,0.0915 -0.157,0.1372 -0.2795,0.1372 z m 0,-0.8989 c -0.0714,0 -0.1236,0.034 -0.1562,0.102 -0.0326,0.0678 -0.0493,0.1554 -0.0504,0.2625 0,0.1205 0.0161,0.2118 0.0482,0.2741 0.032,0.0621 0.085,0.0927 0.1584,0.0919 0.0777,-0.002 0.1313,-0.0343 0.1608,-0.0967 0.0297,-0.0621 0.0453,-0.1519 0.0476,-0.2693 -0.002,-0.1142 -0.0193,-0.2026 -0.0513,-0.265 -0.0323,-0.0621 -0.0845,-0.0952 -0.1571,-0.0995 z m 1.2082,0.8804 h -0.1761 l -0.1655,-0.4456 h -0.1942 v 0.4456 h -0.1624 v -1.0258 h 0.4056 c 0.0839,0.001 0.15,0.0314 0.1984,0.0913 0.0485,0.0595 0.0726,0.1252 0.0726,0.1967 0,0.0541 -0.0147,0.1051 -0.0442,0.1539 -0.0298,0.0485 -0.068,0.0833 -0.1148,0.1046 z m -0.1823,-0.7333 c 0,-0.04 -0.0119,-0.0706 -0.036,-0.0918 -0.0238,-0.0216 -0.0507,-0.0326 -0.0802,-0.0338 h -0.2373 v 0.2526 h 0.2432 c 0.0306,0 0.0567,-0.011 0.0783,-0.0337 0.0212,-0.0224 0.032,-0.0536 0.032,-0.0933 z m 1.3612,0.7333 h -0.637 v -1.0258 h 0.6047 v 0.1624 h -0.4422 v 0.2526 h 0.2985 v 0.1652 h -0.2985 v 0.2804 h 0.4745 z m 0.3676,0 h -0.1655 v -1.0258 h 0.1655 z m 0.8725,0 h -0.1836 l -0.1656,-0.3413 -0.1652,0.3413 h -0.1837 l 0.2557,-0.5281 -0.2373,-0.4977 h 0.1823 l 0.1482,0.3064 0.1471,-0.3064 h 0.1837 l -0.2404,0.4977 z m 0.4763,0.0185 c -0.1205,0 -0.2132,-0.0457 -0.2778,-0.1372 -0.0649,-0.0913 -0.0973,-0.2226 -0.0973,-0.394 0,-0.1676 0.0324,-0.2977 0.0973,-0.3907 0.0646,-0.0927 0.1573,-0.1391 0.2778,-0.1391 0.1224,0 0.2157,0.0464 0.2795,0.1391 0.0637,0.093 0.0955,0.2231 0.0955,0.3907 0,0.1714 -0.0318,0.3027 -0.0955,0.394 -0.0638,0.0915 -0.1571,0.1372 -0.2795,0.1372 z m 0,-0.8989 c -0.0715,0 -0.1236,0.034 -0.1562,0.102 -0.0326,0.0678 -0.0493,0.1554 -0.0505,0.2625 0,0.1205 0.0162,0.2118 0.0482,0.2741 0.032,0.0621 0.085,0.0927 0.1585,0.0919 0.0776,-0.002 0.1312,-0.0343 0.1607,-0.0967 0.0298,-0.0621 0.0453,-0.1519 0.0476,-0.2693 -0.002,-0.1142 -0.0193,-0.2026 -0.0513,-0.265 -0.0323,-0.0621 -0.0845,-0.0952 -0.157,-0.0995 z"
       style="fill:#ffffff;fill-rule:evenodd"
       id="path29053" />
    <path
       d="m 163.7165,166.0032 h -0.176 l -0.1656,-0.4456 h -0.1941 v 0.4456 h -0.1625 v -1.0258 h 0.4057 c 0.0839,0.001 0.1499,0.0314 0.1984,0.0912 0.0485,0.0596 0.0726,0.1253 0.0726,0.1968 0,0.0541 -0.0148,0.1051 -0.0442,0.1539 -0.0298,0.0485 -0.0681,0.0833 -0.1148,0.1046 z m -0.1822,-0.7333 c 0,-0.04 -0.012,-0.0706 -0.036,-0.0918 -0.0239,-0.0216 -0.0508,-0.0326 -0.0803,-0.0338 h -0.2372 v 0.2526 h 0.2432 c 0.0306,0 0.0567,-0.0111 0.0782,-0.0337 0.0213,-0.0224 0.0321,-0.0536 0.0321,-0.0933 z m 0.729,-0.4181 v 0.1746 h -0.1394 v -0.1746 z m 0,1.1528 v 0.1747 h -0.1394 v -0.1747 z m 0.0658,-0.7945 c -0.0326,-0.0601 -0.0834,-0.0907 -0.1517,-0.0918 -0.0397,0 -0.0728,0.0121 -0.0995,0.0368 -0.0266,0.0244 -0.0394,0.0536 -0.0382,0.0873 0,0.0244 0.0119,0.0465 0.036,0.0658 0.0241,0.0192 0.062,0.0331 0.1139,0.0414 0.1236,0.0212 0.2132,0.0629 0.2687,0.1247 0.0556,0.0618 0.0834,0.1324 0.0834,0.212 0,0.0879 -0.0332,0.1656 -0.0995,0.2336 -0.0663,0.0677 -0.1488,0.1018 -0.248,0.1018 -0.1571,-0.002 -0.2739,-0.0817 -0.3504,-0.239 l 0.1545,-0.078 c 0.0479,0.099 0.1142,0.1486 0.199,0.1486 0.049,8e-4 0.0915,-0.0162 0.1273,-0.0513 0.0357,-0.0352 0.0535,-0.0763 0.0535,-0.1233 9e-4,-0.0318 -0.0127,-0.063 -0.0414,-0.0941 -0.0286,-0.0312 -0.079,-0.0533 -0.1516,-0.0667 -0.0981,-0.0144 -0.1729,-0.0442 -0.2251,-0.0895 -0.0521,-0.0454 -0.0779,-0.0998 -0.0779,-0.163 -0.002,-0.0757 0.0243,-0.1452 0.0796,-0.2092 0.055,-0.0638 0.1279,-0.0956 0.2189,-0.0956 0.1275,0.003 0.2225,0.0633 0.2845,0.1806 z m 0.6338,1.0979 v -0.0981 h 0.8909 v 0.0981 z m 0.8513,0 v -0.0981 h 0.8909 v 0.0981 z m 1.1131,-0.3768 c 0,0.0562 -0.0133,0.1021 -0.0399,0.1378 -0.0264,0.0357 -0.0658,0.0604 -0.118,0.0734 v -0.0244 c 0.0491,-0.0286 0.0771,-0.0632 0.0842,-0.104 h -0.009 c -0.0216,0 -0.0406,-0.008 -0.0576,-0.0252 -0.0167,-0.017 -0.0252,-0.036 -0.0252,-0.0576 0,-0.0212 0.008,-0.0405 0.0252,-0.0572 0.017,-0.017 0.036,-0.0255 0.0576,-0.0255 0.0215,0 0.0405,0.008 0.0572,0.0255 0.017,0.0167 0.0255,0.036 0.0255,0.0572 z m 0.4422,0.3768 v -0.0981 h 0.891 v 0.0981 z m 0.8513,0 v -0.0981 h 0.8909 v 0.0981 z"
       style="fill:#ffffff;fill-rule:evenodd"
       id="path29055" />
    <path
       d="m 163.7165,169.4178 h -0.176 l -0.1656,-0.4456 h -0.1941 v 0.4456 h -0.1625 v -1.0258 h 0.4057 c 0.0839,0.001 0.1499,0.0314 0.1984,0.0913 0.0485,0.0595 0.0726,0.1253 0.0726,0.1967 0,0.0541 -0.0148,0.1051 -0.0442,0.1539 -0.0298,0.0485 -0.0681,0.0833 -0.1148,0.1046 z m -0.1822,-0.7333 c 0,-0.0399 -0.012,-0.0706 -0.036,-0.0918 -0.0239,-0.0216 -0.0508,-0.0326 -0.0803,-0.0338 h -0.2372 v 0.2526 h 0.2432 c 0.0306,0 0.0567,-0.011 0.0782,-0.0337 0.0213,-0.0224 0.0321,-0.0536 0.0321,-0.0933 z m 0.729,-0.4181 v 0.1746 h -0.1394 v -0.1746 z m 0,1.1529 v 0.1746 h -0.1394 v -0.1746 z m 0.0658,-0.7946 c -0.0326,-0.0601 -0.0834,-0.0907 -0.1517,-0.0918 -0.0397,0 -0.0728,0.0122 -0.0995,0.0368 -0.0266,0.0244 -0.0394,0.0536 -0.0382,0.0873 0,0.0244 0.0119,0.0465 0.036,0.0658 0.0241,0.0193 0.062,0.0332 0.1139,0.0414 0.1236,0.0212 0.2132,0.0629 0.2687,0.1247 0.0556,0.0618 0.0834,0.1324 0.0834,0.212 0,0.0879 -0.0332,0.1656 -0.0995,0.2336 -0.0663,0.0678 -0.1488,0.1018 -0.248,0.1018 -0.1571,-0.002 -0.2739,-0.0817 -0.3504,-0.239 l 0.1545,-0.0779 c 0.0479,0.0989 0.1142,0.1485 0.199,0.1485 0.049,8e-4 0.0915,-0.0162 0.1273,-0.0513 0.0357,-0.0352 0.0535,-0.0763 0.0535,-0.1233 9e-4,-0.0318 -0.0127,-0.063 -0.0414,-0.0941 -0.0286,-0.0312 -0.079,-0.0533 -0.1516,-0.0666 -0.0981,-0.0145 -0.1729,-0.0443 -0.2251,-0.0896 -0.0521,-0.0454 -0.0779,-0.0998 -0.0779,-0.163 -0.002,-0.0757 0.0243,-0.1451 0.0796,-0.2092 0.055,-0.0638 0.1279,-0.0955 0.2189,-0.0955 0.1275,0.003 0.2225,0.0632 0.2845,0.1805 z m 0.6338,1.0979 v -0.0981 h 0.8909 v 0.0981 z m 0.8513,0 v -0.0981 h 0.8909 v 0.0981 z m 1.1131,-0.3768 c 0,0.0562 -0.0133,0.1021 -0.0399,0.1378 -0.0264,0.0357 -0.0658,0.0604 -0.118,0.0734 v -0.0244 c 0.0491,-0.0286 0.0771,-0.0632 0.0842,-0.104 h -0.009 c -0.0216,0 -0.0406,-0.008 -0.0576,-0.0252 -0.0167,-0.017 -0.0252,-0.036 -0.0252,-0.0576 0,-0.0212 0.008,-0.0405 0.0252,-0.0572 0.017,-0.017 0.036,-0.0255 0.0576,-0.0255 0.0215,0 0.0405,0.008 0.0572,0.0255 0.017,0.0167 0.0255,0.036 0.0255,0.0572 z m 0.4422,0.3768 v -0.0981 h 0.891 v 0.0981 z m 0.8513,0 v -0.0981 h 0.8909 v 0.0981 z"
       style="fill:#ffffff;fill-rule:evenodd"
       id="path29057" />
    <path
       d="m 163.7165,173.4824 h -0.176 l -0.1656,-0.4456 h -0.1941 v 0.4456 h -0.1625 v -1.0258 h 0.4057 c 0.0839,0.001 0.1499,0.0314 0.1984,0.0913 0.0485,0.0595 0.0726,0.1252 0.0726,0.1967 0,0.0541 -0.0148,0.1051 -0.0442,0.1539 -0.0298,0.0485 -0.0681,0.0833 -0.1148,0.1046 z m -0.1822,-0.7333 c 0,-0.04 -0.012,-0.0706 -0.036,-0.0918 -0.0239,-0.0216 -0.0508,-0.0326 -0.0803,-0.0338 h -0.2372 v 0.2526 h 0.2432 c 0.0306,0 0.0567,-0.011 0.0782,-0.0337 0.0213,-0.0224 0.0321,-0.0536 0.0321,-0.0933 z m 0.729,-0.4181 v 0.1746 h -0.1394 v -0.1746 z m 0,1.1529 v 0.1746 h -0.1394 v -0.1746 z m 0.0658,-0.7946 c -0.0326,-0.0601 -0.0834,-0.0907 -0.1517,-0.0918 -0.0397,0 -0.0728,0.0122 -0.0995,0.0368 -0.0266,0.0244 -0.0394,0.0536 -0.0382,0.0873 0,0.0244 0.0119,0.0465 0.036,0.0658 0.0241,0.0193 0.062,0.0332 0.1139,0.0414 0.1236,0.0212 0.2132,0.0629 0.2687,0.1247 0.0556,0.0618 0.0834,0.1324 0.0834,0.212 0,0.0879 -0.0332,0.1656 -0.0995,0.2336 -0.0663,0.0678 -0.1488,0.1018 -0.248,0.1018 -0.1571,-0.002 -0.2739,-0.0817 -0.3504,-0.239 l 0.1545,-0.0779 c 0.0479,0.0989 0.1142,0.1485 0.199,0.1485 0.049,8e-4 0.0915,-0.0162 0.1273,-0.0513 0.0357,-0.0352 0.0535,-0.0763 0.0535,-0.1233 9e-4,-0.0318 -0.0127,-0.063 -0.0414,-0.0941 -0.0286,-0.0312 -0.079,-0.0533 -0.1516,-0.0667 -0.0981,-0.0144 -0.1729,-0.0442 -0.2251,-0.0895 -0.0521,-0.0454 -0.0779,-0.0998 -0.0779,-0.163 -0.002,-0.0757 0.0243,-0.1452 0.0796,-0.2092 0.055,-0.0638 0.1279,-0.0955 0.2189,-0.0955 0.1275,0.003 0.2225,0.0632 0.2845,0.1805 z m 0.6338,1.0979 v -0.0981 h 0.8909 v 0.0981 z m 0.8513,0 v -0.0981 h 0.8909 v 0.0981 z m 1.1131,-0.3768 c 0,0.0562 -0.0133,0.1021 -0.0399,0.1378 -0.0264,0.0357 -0.0658,0.0604 -0.118,0.0734 v -0.0244 c 0.0491,-0.0286 0.0771,-0.0632 0.0842,-0.104 h -0.009 c -0.0216,0 -0.0406,-0.008 -0.0576,-0.0252 -0.0167,-0.017 -0.0252,-0.036 -0.0252,-0.0576 0,-0.0212 0.008,-0.0405 0.0252,-0.0572 0.017,-0.017 0.036,-0.0255 0.0576,-0.0255 0.0215,0 0.0405,0.008 0.0572,0.0255 0.017,0.0167 0.0255,0.036 0.0255,0.0572 z m 0.4422,0.3768 v -0.0981 h 0.891 v 0.0981 z m 0.8513,0 v -0.0981 h 0.8909 v 0.0981 z"
       style="fill:#ffffff;fill-rule:evenodd"
       id="path29059" />
  </g>
</svg>
