<?xml version="1.0" encoding="UTF-8" standalone="no"?>
<svg
   xmlns:dc="http://purl.org/dc/elements/1.1/"
   xmlns:cc="http://creativecommons.org/ns#"
   xmlns:rdf="http://www.w3.org/1999/02/22-rdf-syntax-ns#"
   xmlns:svg="http://www.w3.org/2000/svg"
   xmlns="http://www.w3.org/2000/svg"
   xmlns:sodipodi="http://sodipodi.sourceforge.net/DTD/sodipodi-0.dtd"
   xmlns:inkscape="http://www.inkscape.org/namespaces/inkscape"
   version="1.1"
   width="791.48602"
   height="791.49591"
   id="svg29062"
   viewBox="0 0 791.48603 791.49585"
   sodipodi:docname="A-31.svg"
   inkscape:version="1.0.2 (e86c870879, 2021-01-15)">
  <metadata
     id="metadata29068">
    <rdf:RDF>
      <cc:Work
         rdf:about="">
        <dc:format>image/svg+xml</dc:format>
        <dc:type
           rdf:resource="http://purl.org/dc/dcmitype/StillImage" />
        <dc:title />
      </cc:Work>
    </rdf:RDF>
  </metadata>
  <defs
     id="defs29066" />
  <sodipodi:namedview
     pagecolor="#ffffff"
     bordercolor="#666666"
     borderopacity="1"
     objecttolerance="10"
     gridtolerance="10"
     guidetolerance="10"
     inkscape:pageopacity="0"
     inkscape:pageshadow="2"
     inkscape:window-width="1920"
     inkscape:window-height="1016"
     id="namedview29064"
     showgrid="false"
     inkscape:zoom="0.049253423"
     inkscape:cx="8110.0144"
     inkscape:cy="-1587.0737"
     inkscape:window-x="0"
     inkscape:window-y="27"
     inkscape:window-maximized="1"
     inkscape:current-layer="svg29062"
     showguides="false"
     inkscape:document-rotation="0" />
  <g
     id="Layer1117"
     transform="matrix(65.957993,0,0,65.957993,-207.84518,-7702.4986)">
    <path
       d="m 3.4142,122.1413 5.0995,-5.0995 c 0.3507,-0.3506 0.9244,-0.3506 1.2748,0 l 5.0998,5.0995 c 0.3503,0.3507 0.3503,0.9244 0,1.2751 l -5.0998,5.0995 c -0.3504,0.3506 -0.9241,0.3506 -1.2748,0 l -5.0995,-5.0995 c -0.3507,-0.3507 -0.3507,-0.9244 0,-1.2751 z"
       style="fill:#ffec00;fill-rule:evenodd"
       id="path28314" />
    <path
       d="m 3.5166,122.2994 5.1552,-5.1552 c 0.1319,-0.132 0.3057,-0.1979 0.4794,-0.1979 0.1737,0 0.3475,0.0659 0.4795,0.1979 l 5.1552,5.1552 c 0.1319,0.1319 0.1979,0.3057 0.1979,0.4794 0,0.1737 -0.066,0.3475 -0.1979,0.4795 l -5.1552,5.1552 c -0.132,0.1319 -0.3058,0.1979 -0.4795,0.1979 -0.1737,0 -0.3475,-0.066 -0.4794,-0.1979 l -5.1552,-5.1552 c -0.132,-0.132 -0.1979,-0.3058 -0.1979,-0.4795 0,-0.1737 0.0659,-0.3475 0.1979,-0.4794 z m 5.3464,-4.964 -5.1552,5.1552 c -0.0791,0.0791 -0.1187,0.1836 -0.1187,0.2882 0,0.1046 0.0396,0.2092 0.1187,0.2883 l 5.1552,5.1552 c 0.0791,0.0791 0.1836,0.1187 0.2882,0.1187 0.1046,0 0.2092,-0.0396 0.2883,-0.1187 l 5.1552,-5.1552 c 0.0791,-0.0791 0.1187,-0.1837 0.1187,-0.2883 0,-0.1046 -0.0396,-0.2091 -0.1187,-0.2882 l -5.1552,-5.1552 c -0.0791,-0.0791 -0.1837,-0.1187 -0.2883,-0.1187 -0.1046,0 -0.2091,0.0396 -0.2882,0.1187 z"
       style="fill:#000000;fill-rule:evenodd"
       id="path28316" />
    <g
       id="Layer1118">
      <path
         d="m 10.6113,122.8127 c 0.4873,0 0.8825,0.3951 0.8825,0.8824 0,0.4873 -0.3952,0.8824 -0.8825,0.8824 -0.4872,0 -0.8824,-0.3951 -0.8824,-0.8824 0,-0.4873 0.3952,-0.8824 0.8824,-0.8824 z m -1.3345,0.8824 c 0,0.7369 0.5976,1.3346 1.3345,1.3346 0.737,0 1.3346,-0.5977 1.3346,-1.3346 0,-0.7369 -0.5976,-1.3346 -1.3346,-1.3346 -0.7369,0 -1.3345,0.5977 -1.3345,1.3346 z"
         style="fill:#000000;fill-rule:evenodd"
         id="path28318" />
      <path
         d="m 9.8407,123.6951 c 0,0.4275 0.3451,0.7741 0.7706,0.7741 0.4256,0 0.7707,-0.3466 0.7707,-0.7741 0,-0.4275 -0.3451,-0.7741 -0.7707,-0.7741 -0.4255,0 -0.7706,0.3466 -0.7706,0.7741 z"
         style="fill:#000000;fill-rule:evenodd"
         id="path28320" />
      <path
         d="m 9.5253,122.4755 -0.178,0.1948 -0.1402,0.2244 -0.0964,0.2454 -0.0505,0.2595 -0.0014,0.2642 0.0459,0.2602"
         style="fill:#000000;fill-rule:evenodd"
         id="path28322" />
      <path
         d="M 6.7071,121.7556 H 9.2307"
         style="fill:#000000;fill-rule:evenodd"
         id="path28324" />
      <path
         d="M 9.5253,122.4755 9.2307,121.7556"
         style="fill:#000000;fill-rule:evenodd"
         id="path28326" />
      <path
         d="M 6.3754,122.2193 6.854,123.618"
         style="fill:#000000;fill-rule:evenodd"
         id="path28328" />
      <path
         d="m 6.7071,121.7556 -0.1092,0.0175 -0.0984,0.0506 -0.0776,0.0788 -0.0492,0.0984 -0.0161,0.1099 0.0188,0.1085"
         style="fill:#000000;fill-rule:evenodd"
         id="path28330" />
      <path
         d="M 7.5833,123.924 H 9.1047"
         style="fill:#000000;fill-rule:evenodd"
         id="path28332" />
      <path
         d="M 7.5833,123.924 7.4741,123.798 7.3387,123.6995 7.185,123.6348 7.0205,123.6072 6.854,123.618"
         style="fill:#000000;fill-rule:evenodd"
         id="path28334" />
      <path
         d="m 10.812,120.9777 v 1.214"
         style="fill:#000000;fill-rule:evenodd"
         id="path28336" />
      <path
         d="m 10.1899,121.73 v 0.4583"
         style="fill:#000000;fill-rule:evenodd"
         id="path28338" />
      <path
         d="M 10.5209,120.847 9.499,121.7556"
         style="fill:#000000;fill-rule:evenodd"
         id="path28340" />
      <path
         d="m 10.1899,121.73 -0.3984,0.3545"
         style="fill:#000000;fill-rule:evenodd"
         id="path28342" />
      <path
         d="m 10.812,120.9777 -0.0283,-0.095 -0.0748,-0.0647 -0.0984,-0.0135 -0.0896,0.0425"
         style="fill:#000000;fill-rule:evenodd"
         id="path28344" />
      <path
         d="m 10.812,122.1917 -0.2062,-0.0324 -0.209,-0.001 -0.2069,0.0303"
         style="fill:#000000;fill-rule:evenodd"
         id="path28346" />
      <path
         d="m 9.499,121.7556 -0.029,0.091 0.0094,0.0957 0.0479,0.0829 0.0768,0.0566 0.0931,0.0209 0.0943,-0.0182"
         style="fill:#000000;fill-rule:evenodd"
         id="path28348" />
      <path
         d="m 10.812,122.1917 -3e-4,0.002 -0.2061,-0.0323 -0.2086,-0.001 -0.2067,0.0303 -4e-4,-0.002 h -0.0025 v -0.4527 l -0.3942,0.3508 -0.0017,-0.002 5e-4,0.002 -0.0944,0.0182 -5e-4,10e-5 -5e-4,-10e-5 -0.093,-0.0209 -5e-4,-1e-4 -4e-4,-4e-4 -0.0769,-0.0566 -4e-4,-3e-4 -3e-4,-4e-4 -0.0478,-0.083 -3e-4,-4e-4 -10e-5,-6e-4 -0.0094,-0.0957 v -5e-4 l 10e-5,-5e-4 0.029,-0.091 0.0024,8e-4 -0.0017,-0.002 1.0219,-0.9086 0.0017,0.002 -0.0011,-0.002 0.0896,-0.0425 7e-4,-3e-4 7e-4,10e-5 0.0985,0.0135 7e-4,1e-4 6e-4,5e-4 0.0748,0.0647 5e-4,5e-4 2e-4,7e-4 0.0284,0.095 -0.0025,7e-4 h 0.0026 v 1.214 z"
         style="fill:#000000;fill-rule:evenodd"
         id="path28350" />
      <path
         d="m 9.1017,123.9215 -0.0454,-0.2573 v -10e-5 -3e-4 l 0.0014,-0.2642 v -2e-4 -3e-4 l 0.0506,-0.2595 v -3e-4 l 10e-5,-1e-4 0.0964,-0.2454 10e-5,-2e-4 10e-5,-2e-4 0.1402,-0.2245 10e-5,-2e-4 2e-4,-1e-4 0.1769,-0.1937 -0.2934,-0.7168 H 6.7073 l -0.1087,0.0174 -0.0976,0.0502 -0.077,0.0783 -0.0488,0.0977 -0.0161,0.109 0.0188,0.108 0.4779,1.3966 0.1646,-0.0106 h 2e-4 3e-4 l 0.1645,0.0276 2e-4,1e-4 4e-4,10e-5 0.1536,0.0647 3e-4,1e-4 2e-4,2e-4 0.1355,0.0984 3e-4,2e-4 10e-5,2e-4 0.1085,0.1252 z"
         style="fill:#000000;fill-rule:evenodd"
         id="path28352" />
      <path
         d="m 6.8163,124.3338 c 0,-0.0921 0.0744,-0.1669 0.1661,-0.1669 0.0918,0 0.1661,0.0748 0.1661,0.1669 0,0.0922 -0.0743,0.1669 -0.1661,0.1669 -0.0917,0 -0.1661,-0.0747 -0.1661,-0.1669 z m 0.7104,0 c 0,-0.3019 -0.2437,-0.5467 -0.5443,-0.5467 -0.3005,0 -0.5442,0.2448 -0.5442,0.5467 0,0.3019 0.2437,0.5467 0.5442,0.5467 0.3006,0 0.5443,-0.2448 0.5443,-0.5467 z"
         style="fill:#000000;fill-rule:evenodd"
         id="path28354" />
      <path
         d="m 10.4177,120.1333 c 0.1647,0 0.298,0.1335 0.298,0.2979 0,0.1644 -0.1333,0.2979 -0.298,0.2979 -0.1644,0 -0.2979,-0.1335 -0.2979,-0.2979 0,-0.1644 0.1335,-0.2979 0.2979,-0.2979 z"
         style="fill:#000000;fill-rule:evenodd;stroke:#1b1918;stroke-width:0.5669;stroke-linecap:butt;stroke-linejoin:miter;stroke-dasharray:none"
         id="path28356" />
    </g>
  </g>
</svg>
