<?xml version="1.0" encoding="UTF-8" standalone="no"?>
<svg
   xmlns:dc="http://purl.org/dc/elements/1.1/"
   xmlns:cc="http://creativecommons.org/ns#"
   xmlns:rdf="http://www.w3.org/1999/02/22-rdf-syntax-ns#"
   xmlns:svg="http://www.w3.org/2000/svg"
   xmlns="http://www.w3.org/2000/svg"
   xmlns:sodipodi="http://sodipodi.sourceforge.net/DTD/sodipodi-0.dtd"
   xmlns:inkscape="http://www.inkscape.org/namespaces/inkscape"
   version="1.1"
   width="791.48602"
   height="791.50085"
   id="svg29062"
   viewBox="0 0 791.48603 791.50079"
   sodipodi:docname="A-32b.svg"
   inkscape:version="1.0.2 (e86c870879, 2021-01-15)">
  <metadata
     id="metadata29068">
    <rdf:RDF>
      <cc:Work
         rdf:about="">
        <dc:format>image/svg+xml</dc:format>
        <dc:type
           rdf:resource="http://purl.org/dc/dcmitype/StillImage" />
        <dc:title />
      </cc:Work>
    </rdf:RDF>
  </metadata>
  <defs
     id="defs29066" />
  <sodipodi:namedview
     pagecolor="#ffffff"
     bordercolor="#666666"
     borderopacity="1"
     objecttolerance="10"
     gridtolerance="10"
     guidetolerance="10"
     inkscape:pageopacity="0"
     inkscape:pageshadow="2"
     inkscape:window-width="1920"
     inkscape:window-height="1016"
     id="namedview29064"
     showgrid="false"
     inkscape:zoom="0.049253423"
     inkscape:cx="6000.3827"
     inkscape:cy="6896.5969"
     inkscape:window-x="0"
     inkscape:window-y="27"
     inkscape:window-maximized="1"
     inkscape:current-layer="svg29062"
     showguides="false"
     inkscape:document-rotation="0" />
  <g
     id="Layer1121"
     transform="matrix(65.957993,0,0,65.957993,-2317.477,-7641.6391)">
    <path
       d="m 35.3986,121.2187 5.0996,-5.0996 c 0.3506,-0.3506 0.9243,-0.3506 1.2747,0 l 5.0998,5.0996 c 0.3504,0.3506 0.3504,0.9243 0,1.275 l -5.0998,5.0995 c -0.3504,0.3507 -0.9241,0.3507 -1.2747,0 l -5.0996,-5.0995 c -0.3506,-0.3507 -0.3506,-0.9244 0,-1.275 z"
       style="fill:#ffec00;fill-rule:evenodd"
       id="path28370" />
    <path
       d="m 35.5011,121.3767 5.1551,-5.1552 c 0.132,-0.1319 0.3058,-0.1979 0.4795,-0.1979 0.1737,0 0.3475,0.066 0.4795,0.1979 l 5.1551,5.1552 c 0.132,0.132 0.198,0.3058 0.198,0.4795 0,0.1737 -0.066,0.3475 -0.198,0.4794 l -5.1551,5.1552 c -0.132,0.132 -0.3058,0.198 -0.4795,0.198 -0.1737,0 -0.3475,-0.066 -0.4795,-0.198 l -5.1551,-5.1552 c -0.132,-0.1319 -0.198,-0.3057 -0.198,-0.4794 0,-0.1737 0.066,-0.3475 0.198,-0.4795 z m 5.3463,-4.964 -5.1551,5.1552 c -0.0792,0.0792 -0.1188,0.1837 -0.1188,0.2883 0,0.1046 0.0396,0.2091 0.1188,0.2882 l 5.1551,5.1552 c 0.0792,0.0791 0.1837,0.1187 0.2883,0.1187 0.1046,0 0.2091,-0.0396 0.2883,-0.1187 l 5.1551,-5.1552 c 0.0792,-0.0791 0.1187,-0.1836 0.1187,-0.2882 0,-0.1046 -0.0395,-0.2091 -0.1187,-0.2883 l -5.1551,-5.1552 c -0.0792,-0.0791 -0.1837,-0.1187 -0.2883,-0.1187 -0.1046,0 -0.2091,0.0396 -0.2883,0.1187 z"
       style="fill:#000000;fill-rule:evenodd"
       id="path28372" />
    <g
       id="Layer1122">
      <path
         d="m 40.4834,120.209 c 0.0402,0.0692 0.1259,0.4389 0.1549,0.5477 0.0484,0.1814 0.0984,0.3649 0.1487,0.5488 0.0386,0.1413 0.027,0.1262 -0.0222,0.2606 -0.3415,0.9328 -0.6428,1.9158 -0.9824,2.8539 -0.0659,0.1823 -0.1413,0.3572 -0.0479,0.5532 0.1673,0.3508 0.6175,0.307 0.8014,-0.1233 0.0704,-0.1647 0.1326,-0.3389 0.1947,-0.503 0.0398,-0.1054 0.7474,-1.9647 0.785,-2.0154 0.0387,0.196 0.5983,2.4974 0.6437,2.6089 0.1315,0.3229 0.6672,0.3376 0.7972,-0.0118 0.0614,-0.1648 -0.0058,-0.3904 -0.0391,-0.5578 -0.1428,-0.7174 -0.2987,-1.4383 -0.4618,-2.1425 -0.0524,-0.2261 -0.439,-1.9273 -0.4654,-2.1401 0.071,0.0244 0.4721,0.2696 0.5712,0.3267 0.1973,0.1136 0.3775,0.2251 0.5739,0.3355 0.1665,0.0935 0.4435,0.3098 0.6421,0.1283 0.0834,-0.0761 0.1104,-0.2088 0.0466,-0.3308 -0.0569,-0.1088 -0.137,-0.1472 -0.242,-0.2194 l -0.5615,-0.3479 c -0.196,-0.1158 -0.37,-0.2396 -0.5502,-0.3593 -0.1868,-0.1241 -0.3719,-0.2271 -0.5567,-0.3525 -0.2514,-0.1705 -0.2763,-0.2489 -0.6711,-0.1918 -0.1633,0.0236 -0.676,0.0707 -0.7904,0.1204 -0.142,0.0617 -0.427,0.4425 -0.5478,0.5864 l -0.2575,0.3028 c -0.0303,0.0399 -0.0179,0.0324 -0.0756,0.0486 -0.2387,0.0669 -0.475,0.1285 -0.7129,0.1963 -0.1217,0.0346 -0.2556,0.0616 -0.3129,0.136 -0.0763,0.0992 -0.075,0.2573 -0.0061,0.3569 0.1184,0.1712 0.5159,0.0294 0.7189,-0.0158 0.252,-0.056 0.4955,-0.106 0.7475,-0.1634 0.2818,-0.0641 0.1946,-0.0925 0.4147,-0.3704 z"
         style="fill:#000000;fill-rule:evenodd"
         id="path28374" />
      <path
         d="m 43.5947,125.0094 c 0.0344,-0.011 0.0038,0.003 0.028,-0.0128 l 0.6243,-0.6187 -0.9026,-2.5139 -0.6224,-8e-4 z"
         style="fill:#000000;fill-rule:evenodd"
         id="path28376" />
      <path
         d="m 37.9962,124.2862 0.6198,0.6206 c 0.0333,-0.0474 0.4685,-1.9493 0.551,-2.2867 0.0312,-0.1275 0.0592,-0.253 0.0898,-0.3819 0.0259,-0.1094 0.0743,-0.2696 0.0851,-0.3727 l -0.6447,-0.002 z"
         style="fill:#000000;fill-rule:evenodd"
         id="path28378" />
      <path
         d="m 41.6544,125.8483 0.9654,-6e-4 -0.0713,-0.5594 c -0.2992,-0.0701 -0.423,-0.1516 -0.4957,-0.4417 l -0.4723,-1.8693 c -0.0215,-0.0847 -0.0879,-0.303 -0.0933,-0.3667 -0.0146,0.2115 0.0248,0.5651 0.0354,0.7914 0.012,0.2574 0.1099,2.383 0.1318,2.4463 z"
         style="fill:#000000;fill-rule:evenodd"
         id="path28380" />
      <path
         d="m 44.9109,123.6993 0.5231,-0.5175 -0.781,-1.319 -0.5367,5e-4 z"
         style="fill:#000000;fill-rule:evenodd"
         id="path28382" />
      <path
         d="m 36.8374,123.1281 0.5223,0.522 0.6947,-1.7847 -0.5953,-0.002 c -0.0466,0.0679 -0.1146,0.2226 -0.1597,0.3111 -0.0536,0.1051 -0.1035,0.2138 -0.1547,0.3188 z"
         style="fill:#000000;fill-rule:evenodd"
         id="path28384" />
      <path
         d="m 40.7791,117.8763 c -0.273,0.057 -0.501,0.3193 -0.4444,0.6553 0.0473,0.2805 0.326,0.5193 0.6675,0.4559 0.2762,-0.0513 0.5071,-0.3273 0.4466,-0.6616 -0.0502,-0.2778 -0.3334,-0.5198 -0.6697,-0.4496 z"
         style="fill:#000000;fill-rule:evenodd"
         id="path28386" />
      <path
         d="m 39.8557,123.9665 c 0.0132,-0.0127 0.004,0.005 0.0195,-0.0256 l 0.1759,-0.4977 c 0.0625,-0.1775 0.1235,-0.3495 0.186,-0.5244 0.0508,-0.1424 0.3557,-0.9819 0.3655,-1.0552 l -0.587,-5e-4 z"
         style="fill:#000000;fill-rule:evenodd"
         id="path28388" />
      <path
         d="m 39.7309,125.1277 -0.0674,0.701 0.9439,0.01 9e-4,-0.9285 c -0.0319,0.033 -0.0425,0.07 -0.0665,0.1076 -0.1654,0.2594 -0.452,0.3616 -0.7103,0.1822 -0.0364,-0.0254 -0.0707,-0.0595 -0.1006,-0.0723 z"
         style="fill:#000000;fill-rule:evenodd"
         id="path28390" />
    </g>
  </g>
</svg>
