<?xml version="1.0" encoding="UTF-8" standalone="no"?>
<svg
   xmlns:dc="http://purl.org/dc/elements/1.1/"
   xmlns:cc="http://creativecommons.org/ns#"
   xmlns:rdf="http://www.w3.org/1999/02/22-rdf-syntax-ns#"
   xmlns:svg="http://www.w3.org/2000/svg"
   xmlns="http://www.w3.org/2000/svg"
   xmlns:sodipodi="http://sodipodi.sourceforge.net/DTD/sodipodi-0.dtd"
   xmlns:inkscape="http://www.inkscape.org/namespaces/inkscape"
   version="1.1"
   width="791.48602"
   height="791.49591"
   id="svg29062"
   viewBox="0 0 791.48603 791.49585"
   sodipodi:docname="A-32a.svg"
   inkscape:version="1.0.2 (e86c870879, 2021-01-15)">
  <metadata
     id="metadata29068">
    <rdf:RDF>
      <cc:Work
         rdf:about="">
        <dc:format>image/svg+xml</dc:format>
        <dc:type
           rdf:resource="http://purl.org/dc/dcmitype/StillImage" />
        <dc:title />
      </cc:Work>
    </rdf:RDF>
  </metadata>
  <defs
     id="defs29066" />
  <sodipodi:namedview
     pagecolor="#ffffff"
     bordercolor="#666666"
     borderopacity="1"
     objecttolerance="10"
     gridtolerance="10"
     guidetolerance="10"
     inkscape:pageopacity="0"
     inkscape:pageshadow="2"
     inkscape:window-width="1920"
     inkscape:window-height="1016"
     id="namedview29064"
     showgrid="false"
     inkscape:zoom="0.049253423"
     inkscape:cx="7024.1232"
     inkscape:cy="-1564.0214"
     inkscape:window-x="0"
     inkscape:window-y="27"
     inkscape:window-maximized="1"
     inkscape:current-layer="svg29062"
     showguides="false"
     inkscape:document-rotation="0" />
  <g
     id="Layer1119"
     transform="matrix(65.957993,0,0,65.957993,-1293.7364,-7679.4463)">
    <path
       d="m 19.8775,121.7918 5.0996,-5.0995 c 0.3506,-0.3506 0.9243,-0.3506 1.2747,0 l 5.0998,5.0995 c 0.3504,0.3507 0.3504,0.9244 0,1.2751 l -5.0998,5.0995 c -0.3504,0.3506 -0.9241,0.3506 -1.2747,0 l -5.0996,-5.0995 c -0.3506,-0.3507 -0.3506,-0.9244 0,-1.2751 z"
       style="fill:#ffec00;fill-rule:evenodd"
       id="path28360" />
    <path
       d="m 19.98,121.9499 5.1551,-5.1552 c 0.132,-0.132 0.3058,-0.198 0.4795,-0.198 0.1737,0 0.3475,0.066 0.4795,0.198 l 5.1551,5.1552 c 0.132,0.1319 0.198,0.3057 0.198,0.4794 0,0.1737 -0.066,0.3475 -0.198,0.4795 l -5.1551,5.1552 c -0.132,0.1319 -0.3058,0.1979 -0.4795,0.1979 -0.1737,0 -0.3475,-0.066 -0.4795,-0.1979 L 19.98,122.9088 c -0.132,-0.132 -0.198,-0.3058 -0.198,-0.4795 0,-0.1737 0.066,-0.3475 0.198,-0.4794 z m 5.3463,-4.964 -5.1551,5.1552 c -0.0792,0.0791 -0.1188,0.1836 -0.1188,0.2882 0,0.1046 0.0396,0.2091 0.1188,0.2883 l 5.1551,5.1552 c 0.0792,0.0791 0.1837,0.1187 0.2883,0.1187 0.1046,0 0.2091,-0.0396 0.2882,-0.1187 l 5.1552,-5.1552 c 0.0792,-0.0792 0.1187,-0.1837 0.1187,-0.2883 0,-0.1046 -0.0395,-0.2091 -0.1187,-0.2882 l -5.1552,-5.1552 c -0.0791,-0.0791 -0.1836,-0.1187 -0.2882,-0.1187 -0.1046,0 -0.2091,0.0396 -0.2883,0.1187 z"
       style="fill:#000000;fill-rule:evenodd"
       id="path28362" />
    <g
       id="Layer1120">
      <path
         d="m 24.9147,121.0304 c 0.124,0.3361 0.2023,0.7269 0.3101,1.083 0.0732,0.2421 -0.0056,0.3118 -0.0792,0.5293 l -0.9192,2.6415 c -0.0579,0.1652 -0.1666,0.3669 -0.0752,0.5698 0.0687,0.1526 0.2463,0.2722 0.4971,0.2267 0.2246,-0.0408 0.2476,-0.1898 0.3243,-0.3801 0.1526,-0.3791 0.9139,-2.4496 0.9957,-2.5591 0.072,0.0953 0.4443,1.8383 0.503,2.1128 0.0759,0.3551 0.1131,0.8102 0.4926,0.8289 0.1836,0.009 0.3459,-0.095 0.4093,-0.2402 0.0774,-0.1773 -6e-4,-0.3844 -0.0369,-0.5605 -0.0684,-0.333 -0.8996,-4.1512 -0.9134,-4.3476 0.141,0.0528 0.944,0.5315 1.1551,0.6472 0.1509,0.0827 0.4461,0.329 0.639,0.1488 0.291,-0.272 -0.1137,-0.4729 -0.2065,-0.5322 -0.3623,-0.2314 -0.75,-0.4848 -1.1202,-0.7221 -0.1925,-0.1234 -0.357,-0.2255 -0.5623,-0.3603 -0.314,-0.2062 -0.2565,-0.2321 -0.6817,-0.1793 -0.9643,0.1198 -0.743,1e-4 -1.4145,0.845 -0.2536,0.3192 -0.3611,0.2507 -0.9727,0.4224 -0.1005,0.0283 -0.2303,0.0518 -0.3021,0.1436 -0.0729,0.0932 -0.0628,0.2683 0.0247,0.3503 0.1476,0.1382 0.5389,0.003 0.732,-0.0451 0.2368,-0.0587 0.5087,-0.121 0.7397,-0.1716 0.1774,-0.0389 0.1759,-0.0843 0.2595,-0.1942 0.0636,-0.0836 0.1331,-0.177 0.2018,-0.257 z"
         style="fill:#000000;fill-rule:evenodd"
         id="path28364" />
      <path
         d="m 25.2501,118.782 c -0.7612,0.1705 -0.488,1.2669 0.2376,1.1114 0.2682,-0.0574 0.4952,-0.3257 0.4302,-0.6834 -0.0481,-0.2642 -0.3353,-0.5025 -0.6678,-0.428 z"
         style="fill:#000000;fill-rule:evenodd"
         id="path28366" />
    </g>
  </g>
</svg>
