<?xml version="1.0" encoding="UTF-8" standalone="no"?>
<svg
   xmlns:dc="http://purl.org/dc/elements/1.1/"
   xmlns:cc="http://creativecommons.org/ns#"
   xmlns:rdf="http://www.w3.org/1999/02/22-rdf-syntax-ns#"
   xmlns:svg="http://www.w3.org/2000/svg"
   xmlns="http://www.w3.org/2000/svg"
   xmlns:sodipodi="http://sodipodi.sourceforge.net/DTD/sodipodi-0.dtd"
   xmlns:inkscape="http://www.inkscape.org/namespaces/inkscape"
   version="1.1"
   width="791.48602"
   height="791.49921"
   id="svg29062"
   viewBox="0 0 791.48603 791.49914"
   sodipodi:docname="A-33a.svg"
   inkscape:version="1.0.2 (e86c870879, 2021-01-15)">
  <metadata
     id="metadata29068">
    <rdf:RDF>
      <cc:Work
         rdf:about="">
        <dc:format>image/svg+xml</dc:format>
        <dc:type
           rdf:resource="http://purl.org/dc/dcmitype/StillImage" />
        <dc:title />
      </cc:Work>
    </rdf:RDF>
  </metadata>
  <defs
     id="defs29066" />
  <sodipodi:namedview
     pagecolor="#ffffff"
     bordercolor="#666666"
     borderopacity="1"
     objecttolerance="10"
     gridtolerance="10"
     guidetolerance="10"
     inkscape:pageopacity="0"
     inkscape:pageshadow="2"
     inkscape:window-width="1920"
     inkscape:window-height="1016"
     id="namedview29064"
     showgrid="false"
     inkscape:zoom="0.049253423"
     inkscape:cx="5030.4507"
     inkscape:cy="-1470.4418"
     inkscape:window-x="0"
     inkscape:window-y="27"
     inkscape:window-maximized="1"
     inkscape:current-layer="svg29062"
     showguides="false"
     inkscape:document-rotation="0" />
  <g
     id="Layer1123"
     transform="matrix(65.957993,0,0,65.957993,-3287.409,-7585.8667)">
    <path
       d="m 50.1039,120.3731 5.0995,-5.0995 c 0.3507,-0.3507 0.9244,-0.3507 1.2748,0 l 5.0998,5.0995 c 0.3504,0.3506 0.3504,0.9244 0,1.275 l -5.0998,5.0995 c -0.3504,0.3507 -0.9241,0.3507 -1.2748,0 l -5.0995,-5.0995 c -0.3506,-0.3506 -0.3506,-0.9244 0,-1.275 z"
       style="fill:#ffec00;fill-rule:evenodd"
       id="path28394" />
    <path
       d="m 50.2063,120.5311 5.1552,-5.1551 c 0.132,-0.132 0.3058,-0.198 0.4795,-0.198 0.1737,0 0.3475,0.066 0.4795,0.198 l 5.1551,5.1551 c 0.132,0.132 0.198,0.3058 0.198,0.4795 0,0.1737 -0.066,0.3475 -0.198,0.4795 l -5.1551,5.1551 c -0.132,0.132 -0.3058,0.198 -0.4795,0.198 -0.1737,0 -0.3475,-0.066 -0.4795,-0.198 l -5.1552,-5.1551 c -0.1319,-0.132 -0.1979,-0.3058 -0.1979,-0.4795 0,-0.1737 0.066,-0.3475 0.1979,-0.4795 z m 5.3464,-4.9639 -5.1551,5.1551 c -0.0792,0.0792 -0.1188,0.1837 -0.1188,0.2883 0,0.1046 0.0396,0.2091 0.1188,0.2883 l 5.1551,5.1551 c 0.0792,0.0792 0.1837,0.1187 0.2883,0.1187 0.1046,0 0.2091,-0.0395 0.2882,-0.1187 l 5.1552,-5.1551 c 0.0791,-0.0792 0.1187,-0.1837 0.1187,-0.2883 0,-0.1046 -0.0396,-0.2091 -0.1187,-0.2883 l -5.1552,-5.1551 c -0.0791,-0.0792 -0.1836,-0.1188 -0.2882,-0.1188 -0.1046,0 -0.2091,0.0396 -0.2883,0.1188 z"
       style="fill:#000000;fill-rule:evenodd"
       id="path28396" />
    <g
       id="Layer1124">
      <path
         d="m 56.0978,119.4489 c 0.0253,0.0374 0.2194,0.8466 0.2401,0.955 0.0181,0.095 -0.1916,0.8178 -0.2305,0.9669 -0.1656,0.6349 -0.3178,1.2891 -0.4951,1.9204 -0.0471,0.1677 -0.0865,0.3277 0.0145,0.4826 0.0655,0.1005 0.2174,0.2211 0.41,0.1861 0.1663,-0.0302 0.2456,-0.1485 0.2937,-0.3052 0.0479,-0.1564 0.0931,-0.3154 0.139,-0.4702 0.0922,-0.3113 0.1814,-0.6235 0.2777,-0.9306 0.0958,-0.3055 0.1777,-0.6314 0.2775,-0.9288 0.034,0.0512 0.569,2.0919 0.6546,2.4081 0.0538,0.1988 0.0876,0.3086 0.2429,0.3804 0.3702,0.1713 0.6169,-0.251 0.5413,-0.6021 -0.0711,-0.3304 -0.1656,-0.6637 -0.243,-0.9888 -0.0786,-0.3305 -0.1601,-0.6589 -0.2427,-0.9892 -0.0826,-0.3306 -0.1621,-0.6578 -0.2433,-0.9894 -0.0791,-0.3224 -0.1793,-0.6674 -0.241,-0.9869 l 0.7834,0.8465 c 0.2209,0.2276 0.439,0.0302 0.4843,-0.124 0.0572,-0.1943 -0.0843,-0.2466 -0.1999,-0.3921 l -1.2671,-1.3921 c -0.0936,-0.0938 -0.1883,-0.0632 -0.3258,-0.046 -0.348,0.0437 -0.7804,0.0786 -1.1015,0.1288 -0.137,0.0215 -0.1333,0.0974 -0.1816,0.2231 l -0.2244,0.5928 c -0.0664,0.1801 -0.062,0.2249 -0.1861,0.326 l -0.3826,0.337 c -0.0579,0.0512 -0.1638,0.1141 -0.1864,0.2168 -0.0437,0.198 0.2087,0.4379 0.4168,0.2579 l 0.4476,-0.3696 c 0.2776,-0.2322 0.1856,-0.1069 0.3787,-0.451 0.0385,-0.0685 0.1096,-0.2119 0.1489,-0.2624 z"
         style="fill:#000000;fill-rule:evenodd"
         id="path28398" />
      <path
         d="m 53.5213,121.2323 c -0.0194,0.1392 -0.0896,0.3398 -0.1282,0.4861 -0.1532,0.581 -0.2307,0.5054 0.1588,0.5006 -0.001,0.0999 -0.0626,0.3413 -0.0845,0.4507 l -0.1817,0.9041 c -0.0314,0.1754 0.073,0.3031 0.2391,0.3066 0.1829,0.004 0.2392,-0.1139 0.2708,-0.2704 0.031,-0.1534 0.0621,-0.3045 0.0942,-0.4564 0.0633,-0.2992 0.1295,-0.6021 0.1846,-0.9036 0.0443,0.0664 0.2497,1.1479 0.2992,1.386 0.0337,0.1622 0.1154,0.2718 0.2981,0.2715 0.1825,-3e-4 0.266,-0.1176 0.2349,-0.306 -0.0509,-0.309 -0.1288,-0.6214 -0.2066,-0.9263 -0.0358,-0.1405 -0.0909,-0.3172 -0.1125,-0.457 0.3247,-10e-4 0.4389,0.057 0.4023,-0.0885 -0.0725,-0.2886 -0.275,-0.9819 -0.3047,-1.161 0.0615,0.0328 0.1325,0.0876 0.19,0.1289 0.0433,0.0311 0.1443,0.11 0.1863,0.1291 -0.0531,0.1168 -0.1585,0.0529 0.1929,0.3212 0.123,0.0939 0.0808,0.1172 0.3615,-0.2667 0.3077,-0.4207 0.3187,-0.3007 0.0554,-0.4919 -0.0428,-0.0311 -0.1583,-0.1234 -0.2066,-0.1326 -0.0575,0.0305 -0.1124,0.1747 -0.1582,0.2257 -0.0557,-0.0222 -0.6795,-0.4449 -0.7865,-0.5155 -0.1048,-0.0692 -0.0868,-0.068 -0.2382,-0.0823 -0.3598,-0.0338 -0.4069,-0.045 -0.7107,0.2572 l -0.4715,0.5046 c -0.3856,0.3237 -0.1014,0.5459 0.084,0.4991 0.1197,-0.0303 0.1155,-0.0857 0.1819,-0.1481 z"
         style="fill:#000000;fill-rule:evenodd"
         id="path28400" />
      <path
         d="m 56.1906,117.3715 c -0.6667,0.1743 -0.4112,1.1855 0.2338,1.0218 0.2359,-0.0599 0.4426,-0.3203 0.3711,-0.632 -0.055,-0.2398 -0.2952,-0.4707 -0.6049,-0.3898 z"
         style="fill:#000000;fill-rule:evenodd"
         id="path28402" />
      <path
         d="m 54.0712,119.4148 c -0.5059,0.0917 -0.372,0.8926 0.1341,0.7952 0.5012,-0.0965 0.3699,-0.8865 -0.1341,-0.7952 z"
         style="fill:#000000;fill-rule:evenodd"
         id="path28404" />
    </g>
  </g>
</svg>
