<?xml version="1.0" encoding="UTF-8" standalone="no"?>
<svg
   xmlns:dc="http://purl.org/dc/elements/1.1/"
   xmlns:cc="http://creativecommons.org/ns#"
   xmlns:rdf="http://www.w3.org/1999/02/22-rdf-syntax-ns#"
   xmlns:svg="http://www.w3.org/2000/svg"
   xmlns="http://www.w3.org/2000/svg"
   xmlns:sodipodi="http://sodipodi.sourceforge.net/DTD/sodipodi-0.dtd"
   xmlns:inkscape="http://www.inkscape.org/namespaces/inkscape"
   version="1.1"
   width="791.48602"
   height="791.50085"
   id="svg29062"
   viewBox="0 0 791.48603 791.50079"
   sodipodi:docname="A-33b.svg"
   inkscape:version="1.0.2 (e86c870879, 2021-01-15)">
  <metadata
     id="metadata29068">
    <rdf:RDF>
      <cc:Work
         rdf:about="">
        <dc:format>image/svg+xml</dc:format>
        <dc:type
           rdf:resource="http://purl.org/dc/dcmitype/StillImage" />
        <dc:title />
      </cc:Work>
    </rdf:RDF>
  </metadata>
  <defs
     id="defs29066" />
  <sodipodi:namedview
     pagecolor="#ffffff"
     bordercolor="#666666"
     borderopacity="1"
     objecttolerance="10"
     gridtolerance="10"
     guidetolerance="10"
     inkscape:pageopacity="0"
     inkscape:pageshadow="2"
     inkscape:window-width="1920"
     inkscape:window-height="1016"
     id="namedview29064"
     showgrid="false"
     inkscape:zoom="0.049253423"
     inkscape:cx="4082.3375"
     inkscape:cy="-1467.0763"
     inkscape:window-x="0"
     inkscape:window-y="27"
     inkscape:window-maximized="1"
     inkscape:current-layer="svg29062"
     showguides="false"
     inkscape:document-rotation="0" />
  <g
     id="Layer1125"
     transform="matrix(65.957993,0,0,65.957993,-4235.5222,-7582.5012)">
    <path
       d="m 64.4784,120.3221 5.0995,-5.0996 c 0.3507,-0.3506 0.9244,-0.3506 1.2748,0 l 5.0998,5.0996 c 0.3504,0.3506 0.3504,0.9243 0,1.275 l -5.0998,5.0995 c -0.3504,0.3507 -0.9241,0.3507 -1.2748,0 l -5.0995,-5.0995 c -0.3506,-0.3507 -0.3506,-0.9244 0,-1.275 z"
       style="fill:#ffec00;fill-rule:evenodd"
       id="path28408" />
    <path
       d="m 64.5808,120.4801 5.1552,-5.1552 c 0.132,-0.1319 0.3058,-0.1979 0.4795,-0.1979 0.1737,0 0.3475,0.066 0.4794,0.1979 l 5.1552,5.1552 c 0.132,0.132 0.198,0.3058 0.198,0.4795 0,0.1737 -0.066,0.3475 -0.198,0.4794 l -5.1552,5.1552 c -0.1319,0.132 -0.3057,0.198 -0.4794,0.198 -0.1737,0 -0.3475,-0.066 -0.4795,-0.198 l -5.1552,-5.1552 c -0.1319,-0.1319 -0.1979,-0.3057 -0.1979,-0.4794 0,-0.1737 0.066,-0.3475 0.1979,-0.4795 z m 5.3464,-4.9639 -5.1552,5.1551 c -0.0791,0.0792 -0.1187,0.1837 -0.1187,0.2883 0,0.1046 0.0396,0.2091 0.1187,0.2882 l 5.1552,5.1552 c 0.0792,0.0791 0.1837,0.1187 0.2883,0.1187 0.1046,0 0.2091,-0.0396 0.2882,-0.1187 l 5.1552,-5.1552 c 0.0791,-0.0791 0.1187,-0.1836 0.1187,-0.2882 0,-0.1046 -0.0396,-0.2091 -0.1187,-0.2883 l -5.1552,-5.1551 c -0.0791,-0.0792 -0.1836,-0.1188 -0.2882,-0.1188 -0.1046,0 -0.2091,0.0396 -0.2883,0.1188 z"
       style="fill:#000000;fill-rule:evenodd"
       id="path28410" />
    <g
       id="Layer1126">
      <path
         d="m 69.1103,120.0982 c -0.3125,-0.1567 -0.3307,-0.3175 -0.8364,-0.2806 -0.2603,0.0189 -0.6989,0.5824 -0.8892,0.7829 -0.0921,0.097 -0.239,0.1433 -0.2164,0.3493 0.0162,0.1466 0.1814,0.2433 0.3324,0.16 0.0571,-0.0315 0.2201,-0.2326 0.2881,-0.284 -0.0516,0.2489 -0.2756,0.8957 -0.234,0.9921 l 0.273,0.008 c -0.037,0.2869 -0.1252,0.6339 -0.1834,0.9247 -0.0499,0.2494 -0.2401,0.7621 0.1409,0.7794 0.3391,0.0154 0.3211,-0.4429 0.3829,-0.7225 l 0.1847,-0.8752 c 0.0261,-0.0715 0.0096,-0.0297 0.0261,-0.0555 0.0758,0.2924 0.1335,0.6285 0.1929,0.9352 0.0566,0.2919 0.0704,0.7553 0.414,0.7477 0.5181,-0.0114 0.0163,-1.0622 -0.0923,-1.7318 l 0.4121,-0.009 c 0.01,-0.2014 -0.2588,-1.0059 -0.3098,-1.2745 0.1352,0.0639 0.2676,0.1862 0.3793,0.2549 -0.0317,0.0734 -0.0377,0.0446 -0.0445,0.1282 0.0656,0.0645 0.2756,0.2381 0.3412,0.2686 0.0697,-0.0456 0.5089,-0.6294 0.5281,-0.6852 -0.084,-0.0891 -0.291,-0.2407 -0.4056,-0.2926 -0.1154,0.1036 -0.0646,0.1355 -0.1715,0.2254 l -0.4452,-0.3063 c 0.2178,0.0384 0.2993,-0.0773 0.4131,-0.173 0.5778,-0.4858 0.4548,-0.2846 0.7869,-0.8788 0.006,-0.0107 0.0211,-0.0366 0.0287,-0.0469 l 0.0544,-0.0589 c 0.0285,0.2935 0.2141,0.7235 0.2333,0.9974 0.0063,0.0907 -0.6997,2.7649 -0.7535,2.9601 -0.1286,0.4672 0.1144,0.7199 0.4341,0.6779 0.3118,-0.041 0.3625,-0.5118 0.4525,-0.7977 0.0997,-0.3163 0.1941,-0.6368 0.2876,-0.9628 0.0579,-0.2021 0.2086,-0.7967 0.2882,-0.9438 0.2387,0.8056 0.4465,1.6387 0.6624,2.4495 0.0517,0.1938 0.0923,0.318 0.2361,0.4021 0.3023,0.1767 0.6673,-0.1358 0.5738,-0.6217 -0.0628,-0.326 -0.1688,-0.6781 -0.2489,-1.0036 l -0.7414,-3.0423 c 0.1219,0.0999 0.5621,0.6235 0.6408,0.6942 0.1088,0.0976 0.2027,0.2916 0.3977,0.2695 0.1138,-0.0129 0.4749,-0.2251 0.1207,-0.568 -0.0836,-0.081 -0.0983,-0.0903 -0.1663,-0.1765 l -1.1359,-1.2402 c -0.0547,-0.0632 -0.0816,-0.1336 -0.2067,-0.1443 l -1.2377,0.1376 c -0.2389,0.0258 -0.2008,0.0349 -0.3251,0.3676 -0.0606,0.1621 -0.1223,0.3185 -0.1816,0.4799 -0.1291,0.3522 -0.1592,0.3056 -0.4628,0.5668 -0.0812,0.07 -0.092,0.0957 -0.1822,0.1608 -0.2225,0.1608 -0.1408,0.2674 -0.0356,0.4566 z"
         style="fill:#000000;fill-rule:evenodd"
         id="path28412" />
      <path
         d="m 69.0149,121.9147 c 0.0649,0.6629 0.5704,1.5454 0.0994,1.7136 -0.1178,0.0421 -0.1764,0.009 -0.2834,0.0103 l -0.0925,1.446 0.8995,4e-4 0.0032,-3.7943 c -0.1331,-0.0875 -0.3487,-0.2976 -0.4327,-0.31 0.0229,0.1666 0.103,0.432 0.1501,0.6007 0.1056,0.3783 0.0082,0.3354 -0.3436,0.3333 z"
         style="fill:#000000;fill-rule:evenodd"
         id="path28414" />
      <path
         d="m 70.7461,125.0694 c 0.1574,0.0608 0.6744,0.0132 0.8906,0.0172 l -0.4718,-3.0359 c -0.1451,0.2167 -0.2894,1.0875 -0.4413,1.398 -0.0872,0.1783 -0.1259,0.0647 -0.0966,0.3458 0.0293,0.2816 0.0695,1.127 0.1191,1.2749 z"
         style="fill:#000000;fill-rule:evenodd"
         id="path28416" />
      <path
         d="m 66.0382,122.3562 0.497,0.4786 0.0774,-0.0906 c 0.0236,-0.0345 0.0379,-0.0602 0.0655,-0.1062 l 0.3988,-0.6308 c 0.0975,-0.1514 0.1811,-0.2743 0.2685,-0.4172 0.0613,-0.1003 0.2313,-0.3392 0.2569,-0.431 -0.2271,0.1131 -0.247,0.0868 -0.4574,-0.0129 -0.0497,0.0775 -0.1886,0.2342 -0.2642,0.2981 -0.1573,0.1331 -0.2786,0.2897 -0.4163,0.4415 -0.086,0.0948 -0.3511,0.2897 -0.4262,0.4705 z"
         style="fill:#000000;fill-rule:evenodd"
         id="path28418" />
      <path
         d="m 70.5003,116.8463 c -0.6555,0.2269 -0.3497,1.2392 0.3137,1.033 0.2249,-0.0699 0.4296,-0.3578 0.3431,-0.6668 -0.0677,-0.2421 -0.3406,-0.4757 -0.6568,-0.3662 z"
         style="fill:#000000;fill-rule:evenodd"
         id="path28420" />
      <path
         d="m 73.9589,122.7127 0.4338,-0.4382 -0.6442,-1.2955 -0.5043,0.001 z"
         style="fill:#000000;fill-rule:evenodd"
         id="path28422" />
      <path
         d="m 67.7508,124.0558 0.1124,-0.4343 c -0.7678,0.005 -0.1808,-0.9701 -0.1527,-1.7078 -0.0929,10e-4 -0.1828,-0.0113 -0.2441,-0.0296 l -0.3746,1.2659 c -0.0665,0.2462 -0.1198,0.1369 0.2145,0.4856 0.1465,0.1528 0.248,0.2747 0.4445,0.4202 z"
         style="fill:#000000;fill-rule:evenodd"
         id="path28424" />
      <path
         d="m 68.3014,118.9581 c -0.5017,0.1779 -0.2452,0.9619 0.2567,0.7827 0.1731,-0.0618 0.3238,-0.2759 0.2495,-0.5212 -0.056,-0.1849 -0.2694,-0.3455 -0.5062,-0.2615 z"
         style="fill:#000000;fill-rule:evenodd"
         id="path28426" />
      <path
         d="m 72.3266,123.8786 0.1109,0.3791 c 0.0494,-0.0198 0.0094,0.006 0.0629,-0.0371 0.128,-0.1034 0.7035,-0.7341 0.7245,-0.7833 -0.0331,-0.0525 -0.6839,-2.048 -0.6988,-2.137 0.0228,0.2007 0.1137,0.4972 0.1687,0.7216 0.1061,0.4326 0.3572,1.2042 0.2425,1.5326 -0.0868,0.2486 -0.2835,0.3815 -0.6107,0.3241 z"
         style="fill:#000000;fill-rule:evenodd"
         id="path28428" />
    </g>
  </g>
</svg>
