<?xml version="1.0" encoding="UTF-8" standalone="no"?>
<svg
   xmlns:dc="http://purl.org/dc/elements/1.1/"
   xmlns:cc="http://creativecommons.org/ns#"
   xmlns:rdf="http://www.w3.org/1999/02/22-rdf-syntax-ns#"
   xmlns:svg="http://www.w3.org/2000/svg"
   xmlns="http://www.w3.org/2000/svg"
   xmlns:sodipodi="http://sodipodi.sourceforge.net/DTD/sodipodi-0.dtd"
   xmlns:inkscape="http://www.inkscape.org/namespaces/inkscape"
   version="1.1"
   width="791.48602"
   height="791.49591"
   id="svg29062"
   viewBox="0 0 791.48603 791.49585"
   sodipodi:docname="A-34.svg"
   inkscape:version="1.0.2 (e86c870879, 2021-01-15)">
  <metadata
     id="metadata29068">
    <rdf:RDF>
      <cc:Work
         rdf:about="">
        <dc:format>image/svg+xml</dc:format>
        <dc:type
           rdf:resource="http://purl.org/dc/dcmitype/StillImage" />
        <dc:title />
      </cc:Work>
    </rdf:RDF>
  </metadata>
  <defs
     id="defs29066" />
  <sodipodi:namedview
     pagecolor="#ffffff"
     bordercolor="#666666"
     borderopacity="1"
     objecttolerance="10"
     gridtolerance="10"
     guidetolerance="10"
     inkscape:pageopacity="0"
     inkscape:pageshadow="2"
     inkscape:window-width="1920"
     inkscape:window-height="1016"
     id="namedview29064"
     showgrid="false"
     inkscape:zoom="0.049253423"
     inkscape:cx="3134.2094"
     inkscape:cy="-1402.8728"
     inkscape:window-x="0"
     inkscape:window-y="27"
     inkscape:window-maximized="1"
     inkscape:current-layer="svg29062"
     showguides="false"
     inkscape:document-rotation="0" />
  <g
     id="Layer1127"
     transform="matrix(65.957993,0,0,65.957993,-5183.6502,-7518.2977)">
    <path
       d="m 78.8532,119.3486 5.0995,-5.0995 c 0.3507,-0.3506 0.9244,-0.3506 1.2747,0 l 5.0999,5.0995 c 0.3503,0.3507 0.3503,0.9244 0,1.2751 l -5.0999,5.0995 c -0.3503,0.3506 -0.924,0.3506 -1.2747,0 l -5.0995,-5.0995 c -0.3507,-0.3507 -0.3507,-0.9244 0,-1.2751 z"
       style="fill:#ffec00;fill-rule:evenodd"
       id="path28432" />
    <path
       d="m 78.9556,119.5067 5.1552,-5.1552 c 0.1319,-0.132 0.3057,-0.1979 0.4794,-0.1979 0.1737,0 0.3475,0.0659 0.4795,0.1979 l 5.1552,5.1552 c 0.1319,0.1319 0.1979,0.3058 0.1979,0.4795 0,0.1737 -0.066,0.3475 -0.1979,0.4794 l -5.1552,5.1552 c -0.132,0.132 -0.3058,0.1979 -0.4795,0.1979 -0.1737,0 -0.3475,-0.0659 -0.4794,-0.1979 l -5.1552,-5.1552 c -0.132,-0.1319 -0.198,-0.3058 -0.198,-0.4794 0,-0.1737 0.066,-0.3475 0.198,-0.4795 z m 5.3464,-4.964 -5.1552,5.1552 c -0.0791,0.0791 -0.1187,0.1836 -0.1187,0.2883 0,0.1046 0.0396,0.2091 0.1187,0.2882 l 5.1552,5.1552 c 0.0791,0.0791 0.1836,0.1187 0.2882,0.1187 0.1046,0 0.2091,-0.0396 0.2883,-0.1187 l 5.1552,-5.1552 c 0.0791,-0.0791 0.1187,-0.1836 0.1187,-0.2882 0,-0.1047 -0.0396,-0.2092 -0.1187,-0.2883 l -5.1552,-5.1552 c -0.0792,-0.0791 -0.1837,-0.1187 -0.2883,-0.1187 -0.1046,0 -0.2091,0.0396 -0.2882,0.1187 z"
       style="fill:#000000;fill-rule:evenodd"
       id="path28434" />
    <g
       id="Layer1128">
      <path
         d="m 85.5511,118.7868 c 0.169,0.0451 0.388,0.3183 0.388,0.5563 -1e-4,0.2975 -0.076,0.7028 0.2173,0.7028 0.1224,0 0.2421,-0.0874 0.2421,-0.2179 v -0.8717 c 0,-0.0411 -0.7617,-0.8717 -0.8959,-0.8717 h -1.138 c -0.2213,0 -0.5881,0.6233 -0.7438,0.7817 -0.2023,0.2058 -0.9754,0.2211 -0.9754,0.55 v 0.0242 c 0,0.125 0.1008,0.1937 0.2179,0.1937 0.1984,0 0.6986,-0.1846 0.8963,-0.2417 0.2047,-0.0592 0.4258,-0.5159 0.5808,-0.5573 v 1.1623 c 0,0.3806 -0.5041,1.2902 -0.4552,1.5927 0.0448,0.2773 0.066,0.6328 0.1301,0.9116 0.0598,0.2605 0.0294,0.6919 0.3251,0.6919 h 0.0242 c 0.4157,0 0.1587,-1.0991 0.1187,-1.4264 -0.0316,-0.2586 0.1125,-0.4162 0.2203,-0.6318 0.0976,-0.1953 0.1891,-0.3894 0.2905,-0.5811 0.2851,0.1909 0.5635,1.2107 0.9928,1.2107 h 0.9686 c 0.1593,0 0.3147,-0.0849 0.3147,-0.2422 v -0.0726 c 0,-0.3311 -0.7913,-0.2664 -1.138,-0.2664 -0.0598,-0.0893 -0.5811,-1.2611 -0.5811,-1.3317 z"
         style="fill:#000000;fill-rule:evenodd"
         id="path28436" />
      <path
         d="m 82.5121,121.2357 c 0.3325,0 0.6021,0.2695 0.6021,0.602 0,0.3326 -0.2696,0.6021 -0.6021,0.6021 -0.3325,0 -0.6018,-0.2695 -0.6018,-0.6021 0,-0.3325 0.2693,-0.602 0.6018,-0.602 z"
         style="fill:#000000;fill-rule:evenodd"
         id="path28438" />
      <path
         d="m 84.8006,116.7788 c 0.2797,0 0.5068,0.2267 0.5068,0.5068 0,0.2798 -0.2271,0.5068 -0.5068,0.5068 -0.2801,0 -0.5072,-0.227 -0.5072,-0.5068 0,-0.2801 0.2271,-0.5068 0.5072,-0.5068 z"
         style="fill:#000000;fill-rule:evenodd"
         id="path28440" />
    </g>
  </g>
</svg>
