<?xml version="1.0" encoding="UTF-8" standalone="no"?>
<svg
   xmlns:dc="http://purl.org/dc/elements/1.1/"
   xmlns:cc="http://creativecommons.org/ns#"
   xmlns:rdf="http://www.w3.org/1999/02/22-rdf-syntax-ns#"
   xmlns:svg="http://www.w3.org/2000/svg"
   xmlns="http://www.w3.org/2000/svg"
   xmlns:sodipodi="http://sodipodi.sourceforge.net/DTD/sodipodi-0.dtd"
   xmlns:inkscape="http://www.inkscape.org/namespaces/inkscape"
   version="1.1"
   width="791.48602"
   height="791.50085"
   id="svg29062"
   viewBox="0 0 791.48603 791.50079"
   sodipodi:docname="A-35.svg"
   inkscape:version="1.0.2 (e86c870879, 2021-01-15)">
  <metadata
     id="metadata29068">
    <rdf:RDF>
      <cc:Work
         rdf:about="">
        <dc:format>image/svg+xml</dc:format>
        <dc:type
           rdf:resource="http://purl.org/dc/dcmitype/StillImage" />
        <dc:title />
      </cc:Work>
    </rdf:RDF>
  </metadata>
  <defs
     id="defs29066" />
  <sodipodi:namedview
     pagecolor="#ffffff"
     bordercolor="#666666"
     borderopacity="1"
     objecttolerance="10"
     gridtolerance="10"
     guidetolerance="10"
     inkscape:pageopacity="0"
     inkscape:pageshadow="2"
     inkscape:window-width="1920"
     inkscape:window-height="1016"
     id="namedview29064"
     showgrid="false"
     inkscape:zoom="0.049253423"
     inkscape:cx="2251.5348"
     inkscape:cy="25.40073"
     inkscape:window-x="0"
     inkscape:window-y="27"
     inkscape:window-maximized="1"
     inkscape:current-layer="svg29062"
     showguides="false"
     inkscape:document-rotation="0" />
  <g
     id="Layer1129"
     transform="matrix(65.957993,0,0,65.957993,-6066.3248,-7582.5012)">
    <path
       d="m 92.2355,120.3221 5.0996,-5.0996 c 0.3506,-0.3506 0.9243,-0.3506 1.2747,0 l 5.0998,5.0996 c 0.3504,0.3506 0.3504,0.9243 0,1.275 l -5.0998,5.0995 c -0.3504,0.3507 -0.9241,0.3507 -1.2747,0 l -5.0996,-5.0995 c -0.3506,-0.3507 -0.3506,-0.9244 0,-1.275 z"
       style="fill:#ffec00;fill-rule:evenodd"
       id="path28444" />
    <path
       d="m 92.338,120.4801 5.1551,-5.1552 c 0.132,-0.1319 0.3058,-0.1979 0.4795,-0.1979 0.1737,0 0.3475,0.066 0.4795,0.1979 l 5.1551,5.1552 c 0.132,0.132 0.198,0.3058 0.198,0.4795 0,0.1737 -0.066,0.3475 -0.198,0.4794 l -5.1551,5.1552 c -0.132,0.132 -0.3058,0.198 -0.4795,0.198 -0.1737,0 -0.3475,-0.066 -0.4795,-0.198 L 92.338,121.439 c -0.132,-0.1319 -0.198,-0.3057 -0.198,-0.4794 0,-0.1737 0.066,-0.3475 0.198,-0.4795 z m 5.3463,-4.9639 -5.1551,5.1551 c -0.0792,0.0792 -0.1188,0.1837 -0.1188,0.2883 0,0.1046 0.0396,0.2091 0.1188,0.2882 l 5.1551,5.1552 c 0.0792,0.0791 0.1837,0.1187 0.2883,0.1187 0.1046,0 0.2091,-0.0396 0.2883,-0.1187 l 5.1551,-5.1552 c 0.0792,-0.0791 0.1187,-0.1836 0.1187,-0.2882 0,-0.1046 -0.0395,-0.2091 -0.1187,-0.2883 l -5.1551,-5.1551 c -0.0792,-0.0792 -0.1837,-0.1188 -0.2883,-0.1188 -0.1046,0 -0.2091,0.0396 -0.2883,0.1188 z"
       style="fill:#000000;fill-rule:evenodd"
       id="path28446" />
    <path
       d="m 96.3476,119.4314 c -0.1287,0.005 -0.1386,-0.1484 -0.4889,-0.1484 l -0.4003,-0.2713 0.0065,0.0848 0.1401,0.2552 -0.014,0.0247 -0.3883,-0.1989 c 0.0877,0.3423 0.1766,0.2586 0.3075,0.454 -0.0161,0.1928 -0.097,0.3006 -0.1162,0.5344 -0.0102,0.1237 -0.1692,0.3223 -0.302,0.3253 v 0.1858 c 0,0.0842 0.2437,0.2324 0.3253,0.2324 0.0642,0 0.4666,-0.2324 0.6737,-0.2324 0.2816,0 0.2499,0.273 0.3029,0.5103 0.0596,0.267 0.1809,0.3162 0.3921,0.4211 0.1655,0.0822 0.1181,0.4135 0.1182,0.6485 0,0.1168 0.02,0.2946 -0.0219,0.373 -0.05,0.0933 -0.1272,0.0913 -0.1408,0.2543 H 97.09 v -0.1627 c 0,-0.0968 0.062,-0.1334 0.0702,-0.2551 0.0064,-0.0953 -0.0048,-0.2064 -0.0014,-0.3034 0.0039,-0.1112 0.0796,-0.4192 0.1403,-0.4637 l 0.0592,0.9765 -0.1225,0.2219 0.3421,0.01 0.0249,-0.4181 c 0.0198,-0.2845 -0.1136,-0.8903 0.2537,-0.9064 0.3444,-0.0152 0.7964,-0.0927 1.0922,-0.0927 0.0821,0 0.0095,0.2091 0.3253,0.2091 v 0.1626 c 0.1003,-0.008 0.0906,-0.0131 0.0929,-0.1162 0.0892,0.1027 -0.0071,0.1273 0.1394,0.1395 l 0.029,-0.185 c 0.115,0.063 0.1801,0.2392 0.1801,0.4173 0,0.2218 -0.1352,0.2964 -0.1394,0.4879 -0.096,0.0256 -0.1628,0.1565 -0.1859,0.2555 h 0.3485 c 0,-0.41 0.302,-0.6348 0.302,-0.8131 v -0.1162 l -0.0265,-0.2551 c 0.1487,0.0969 0.3983,0.6596 0.3983,0.9521 0,0.0531 -0.0741,0.1513 -0.093,0.2323 h 0.3253 l 0.026,-0.2086 c 0.007,-0.0626 -0.0826,-0.6738 -0.0976,-0.7884 -0.0224,-0.1709 -0.2537,-0.5121 -0.2537,-0.606 v -0.1162 c 0,-0.2394 0.1859,-0.4776 0.1859,-0.6738 0.0733,0.0537 0.2091,0.7387 0.2091,0.9061 v 0.2091 c 0,0.1485 -0.0465,0.1768 -0.0465,0.3253 v 0.0929 l 0.0261,0.2087 c 0.3457,-0.0927 0.0303,-1.4501 -0.0354,-1.7095 -0.0941,-0.372 -0.0128,-0.5271 -0.2744,-0.7711 -0.129,-0.1204 -0.5463,-0.2357 -0.8082,-0.214 l -0.673,0.0557 -0.4654,-0.009 c -0.1493,0 -0.5022,-0.0343 -0.6075,-0.0663 -0.1016,-0.0308 -0.4305,-0.1428 -0.5077,-0.1428 h -0.1859 z"
       style="fill:#000000;fill-rule:evenodd"
       id="path28448" />
  </g>
</svg>
