<?xml version="1.0" encoding="UTF-8" standalone="no"?>
<svg
   xmlns:dc="http://purl.org/dc/elements/1.1/"
   xmlns:cc="http://creativecommons.org/ns#"
   xmlns:rdf="http://www.w3.org/1999/02/22-rdf-syntax-ns#"
   xmlns:svg="http://www.w3.org/2000/svg"
   xmlns="http://www.w3.org/2000/svg"
   xmlns:sodipodi="http://sodipodi.sourceforge.net/DTD/sodipodi-0.dtd"
   xmlns:inkscape="http://www.inkscape.org/namespaces/inkscape"
   version="1.1"
   width="791.48602"
   height="791.50085"
   id="svg29062"
   viewBox="0 0 791.48603 791.50079"
   sodipodi:docname="A-36.svg"
   inkscape:version="1.0.2 (e86c870879, 2021-01-15)">
  <metadata
     id="metadata29068">
    <rdf:RDF>
      <cc:Work
         rdf:about="">
        <dc:format>image/svg+xml</dc:format>
        <dc:type
           rdf:resource="http://purl.org/dc/dcmitype/StillImage" />
        <dc:title />
      </cc:Work>
    </rdf:RDF>
  </metadata>
  <defs
     id="defs29066" />
  <sodipodi:namedview
     pagecolor="#ffffff"
     bordercolor="#666666"
     borderopacity="1"
     objecttolerance="10"
     gridtolerance="10"
     guidetolerance="10"
     inkscape:pageopacity="0"
     inkscape:pageshadow="2"
     inkscape:window-width="1920"
     inkscape:window-height="1016"
     id="namedview29064"
     showgrid="false"
     inkscape:zoom="0.049253423"
     inkscape:cx="1314.3228"
     inkscape:cy="-197.41838"
     inkscape:window-x="0"
     inkscape:window-y="27"
     inkscape:window-maximized="1"
     inkscape:current-layer="svg29062"
     showguides="false"
     inkscape:document-rotation="0" />
  <g
     id="Layer1130"
     transform="matrix(65.957993,0,0,65.957993,-7003.5368,-7641.6391)">
    <path
       d="m 106.4448,121.2187 5.0995,-5.0996 c 0.3506,-0.3506 0.9244,-0.3506 1.2747,0 l 5.0999,5.0996 c 0.3503,0.3506 0.3503,0.9243 0,1.275 l -5.0999,5.0995 c -0.3503,0.3507 -0.9241,0.3507 -1.2747,0 l -5.0995,-5.0995 c -0.3507,-0.3507 -0.3507,-0.9244 0,-1.275 z"
       style="fill:#ffec00;fill-rule:evenodd"
       id="path28451" />
    <path
       d="m 106.5472,121.3767 5.1551,-5.1552 c 0.132,-0.1319 0.3058,-0.1979 0.4795,-0.1979 0.1737,0 0.3475,0.066 0.4795,0.1979 l 5.1552,5.1552 c 0.1319,0.132 0.1979,0.3058 0.1979,0.4795 0,0.1737 -0.066,0.3475 -0.1979,0.4794 l -5.1552,5.1552 c -0.132,0.132 -0.3058,0.198 -0.4795,0.198 -0.1737,0 -0.3475,-0.066 -0.4795,-0.198 l -5.1551,-5.1552 c -0.132,-0.1319 -0.198,-0.3057 -0.198,-0.4794 0,-0.1737 0.066,-0.3475 0.198,-0.4795 z m 5.3464,-4.964 -5.1552,5.1552 c -0.0791,0.0792 -0.1187,0.1837 -0.1187,0.2883 0,0.1046 0.0396,0.2091 0.1187,0.2882 l 5.1552,5.1552 c 0.0791,0.0791 0.1836,0.1187 0.2882,0.1187 0.1046,0 0.2091,-0.0396 0.2883,-0.1187 l 5.1551,-5.1552 c 0.0792,-0.0791 0.1188,-0.1836 0.1188,-0.2882 0,-0.1046 -0.0396,-0.2091 -0.1188,-0.2883 l -5.1551,-5.1552 c -0.0792,-0.0791 -0.1837,-0.1187 -0.2883,-0.1187 -0.1046,0 -0.2091,0.0396 -0.2882,0.1187 z"
       style="fill:#000000;fill-rule:evenodd"
       id="path28453" />
    <path
       d="m 112.8973,121.9934 c -0.1761,-0.0485 -0.5159,-0.2399 -0.6489,-0.346 -0.5351,-0.4269 -0.4929,-0.6076 -0.4929,-1.5203 0.008,-0.0127 0.3341,-0.2843 0.1658,-0.2843 -0.0622,0 -0.0614,0.0387 -0.1658,0.0474 0.005,-0.2345 0.2368,-0.4572 0.2368,-0.5922 v -0.0473 c 0,-0.072 -0.0411,-0.0804 -0.0947,-0.0948 l -0.0288,0.1652 -0.0505,0.0903 c -0.2948,-0.002 0.002,-0.4307 -0.2287,-0.4923 -0.0167,0.072 -0.0335,0.1895 -0.1184,0.1895 -0.122,0 0.0515,-0.3136 -0.1658,-0.3317 -0.0124,0.0532 -0.0237,0.0545 -0.0237,0.1185 v 0.1895 c -0.1604,-0.0176 -0.0573,-0.1746 -0.2368,-0.1895 0,0.5553 0.5684,0.3192 0.5684,0.829 0,0.0942 -0.0601,0.1505 -0.1184,0.1895 h -0.3316 c -0.195,0.1306 -0.3021,0.0382 -0.5448,0.0947 0,0.279 0.2648,0.352 0.45,0.4501 0,0.121 0.0231,0.5864 0.009,0.6247 -0.0525,0.1435 -0.2459,0.2615 -0.2459,0.4175 v 0.2131 l -0.6574,-0.1653 -0.006,0.0232 c -0.0124,0.0532 -0.0237,0.0545 -0.0237,0.1185 v 0.0947 c 0,0.131 0.0902,0.1182 0.0957,0.3069 0.004,0.1444 -0.0129,0.23 0.0413,0.3377 0.0467,0.0928 0.2728,0.3647 0.3841,0.3739 0.0124,-0.0531 0.0237,-0.0544 0.0237,-0.1184 v -0.0474 c 0,-0.2083 -0.1895,-0.1423 -0.1895,-0.2605 v -0.3316 c 0.1091,0.009 0.3164,0.2266 0.4972,0.308 0.1871,0.0843 0.3602,0.1701 0.5612,0.2442 0.4874,0.1798 0.7668,0.1343 1.1918,0.4189 0,0.7374 1.0659,0.3109 1.0659,1.6107 0.0366,0.0548 0.2952,0.3079 0.3553,0.3079 0.0332,0 0.0473,-0.0323 0.0473,-0.0711 v -0.1421 l -0.1364,-0.0795 -0.006,-0.6311 c 0,-0.0306 -0.4263,-0.5494 -0.4263,-0.7579 v -0.0474 c 0,-0.1633 0.1184,-0.2948 0.1184,-0.4737 v -0.0474 c 0,-0.1146 -0.0602,-0.1062 -0.0711,-0.2369 0.1889,-0.004 0.4027,-0.0929 0.4027,-0.2842 v -0.0474 c 0,-0.1144 -0.0723,-0.2105 -0.1895,-0.2132 v 0.0711 l -0.0265,0.2128 -0.2788,0.1248 c -0.1603,-0.0894 -0.1235,-0.1466 -0.3191,-0.2106 -0.1271,-0.0416 -0.2627,-0.0733 -0.3892,-0.1082 z"
       style="fill:#000000;fill-rule:evenodd"
       id="path28455" />
  </g>
</svg>
