<?xml version="1.0" encoding="UTF-8" standalone="no"?>
<svg
   version="1.1"
   width="791.48108"
   height="791.50085"
   id="svg29062"
   viewBox="0 0 791.48109 791.50079"
   sodipodi:docname="A-37.svg"
   inkscape:version="1.2.2 (b0a8486541, 2022-12-01)"
   xmlns:inkscape="http://www.inkscape.org/namespaces/inkscape"
   xmlns:sodipodi="http://sodipodi.sourceforge.net/DTD/sodipodi-0.dtd"
   xmlns="http://www.w3.org/2000/svg"
   xmlns:svg="http://www.w3.org/2000/svg"
   xmlns:rdf="http://www.w3.org/1999/02/22-rdf-syntax-ns#"
   xmlns:cc="http://creativecommons.org/ns#"
   xmlns:dc="http://purl.org/dc/elements/1.1/">
  <metadata
     id="metadata29068">
    <rdf:RDF>
      <cc:Work
         rdf:about="">
        <dc:format>image/svg+xml</dc:format>
        <dc:type
           rdf:resource="http://purl.org/dc/dcmitype/StillImage" />
      </cc:Work>
    </rdf:RDF>
  </metadata>
  <defs
     id="defs29066" />
  <sodipodi:namedview
     pagecolor="#ffffff"
     bordercolor="#666666"
     borderopacity="1"
     objecttolerance="10"
     gridtolerance="10"
     guidetolerance="10"
     inkscape:pageopacity="0"
     inkscape:pageshadow="2"
     inkscape:window-width="1920"
     inkscape:window-height="1011"
     id="namedview29064"
     showgrid="false"
     inkscape:zoom="0.78805477"
     inkscape:cx="395.2771"
     inkscape:cy="394.64262"
     inkscape:window-x="0"
     inkscape:window-y="32"
     inkscape:window-maximized="1"
     inkscape:current-layer="svg29062"
     showguides="false"
     inkscape:document-rotation="0"
     inkscape:showpageshadow="2"
     inkscape:pagecheckerboard="0"
     inkscape:deskcolor="#d1d1d1" />
  <path
     d="M 17.343687,353.70142 353.69647,17.348631 c 23.13147,-23.1314682 60.97157,-23.1314682 84.08325,0 L 774.15229,353.70142 c 23.10509,23.13146 23.10509,60.97156 0,84.09644 L 437.77972,774.15724 c -23.11168,23.12487 -60.95178,23.12487 -84.08325,0 L 17.343687,437.79786 c -23.1248719,-23.12488 -23.1248719,-60.96498 0,-84.09644 z"
     style="fill:#ffec00;fill-rule:evenodd;stroke-width:65.958"
     id="path28458" />
  <path
     d="M 24.097786,364.12278 364.12443,24.102729 c 8.70646,-8.706455 20.16996,-13.059682 31.62686,-13.059682 11.4569,0 22.9204,4.353227 31.62026,13.059682 L 767.3982,364.12278 c 8.70645,8.70645 13.05308,20.16995 13.05308,31.62686 0,11.4569 -4.34663,22.9204 -13.05308,31.62685 L 427.37155,767.40314 c -8.69986,8.69986 -20.16336,13.05309 -31.62026,13.05309 -11.4569,0 -22.927,-4.35323 -31.62686,-13.05309 L 24.097786,427.37649 c -8.706455,-8.70645 -13.053087,-20.16995 -13.053087,-31.62685 0,-11.45691 4.346632,-22.92041 13.053087,-31.62686 z M 376.7356,36.713898 36.708954,376.74054 c -5.217277,5.21728 -7.829214,12.10989 -7.829214,19.0091 0,6.8992 2.611937,13.79181 7.829214,19.01569 L 376.7356,754.78538 c 5.21728,5.22387 12.10989,7.83581 19.01569,7.83581 6.89921,0 13.79182,-2.61194 19.00909,-7.83581 L 754.78703,414.76533 c 5.21728,-5.22388 7.82921,-12.11649 7.82921,-19.01569 0,-6.89921 -2.61193,-13.79182 -7.82921,-19.0091 L 414.76038,36.713898 c -5.21727,-5.223873 -12.10988,-7.829214 -19.00909,-7.829214 -6.9058,0 -13.79841,2.605341 -19.01569,7.829214 z"
     style="fill:#000000;fill-rule:evenodd;stroke-width:65.958"
     id="path28460" />
  <path
     d="m 313.73252,160.4379 86.80072,86.80732 86.80732,-86.80732 z"
     style="fill:#000000;fill-rule:evenodd;stroke-width:65.958"
     id="path28464" />
  <path
     d="m 314.32615,631.06797 86.80731,-86.80732 86.80732,86.80732 z"
     style="fill:#000000;fill-rule:evenodd;stroke-width:65.958"
     id="path28466" />
  <text
     xml:space="preserve"
     style="font-style:normal;text-align:center;font-weight:normal;font-size:199.842px;line-height:1.25;font-family:sans-serif;fill:#000000;fill-opacity:1;stroke:none;stroke-width:4.99604"
     x="200.82541"
     y="462.95312"
     id="face">?,?m</text>
</svg>
