<?xml version="1.0" encoding="UTF-8" standalone="no"?>
<svg
   xmlns:dc="http://purl.org/dc/elements/1.1/"
   xmlns:cc="http://creativecommons.org/ns#"
   xmlns:rdf="http://www.w3.org/1999/02/22-rdf-syntax-ns#"
   xmlns:svg="http://www.w3.org/2000/svg"
   xmlns="http://www.w3.org/2000/svg"
   xmlns:sodipodi="http://sodipodi.sourceforge.net/DTD/sodipodi-0.dtd"
   xmlns:inkscape="http://www.inkscape.org/namespaces/inkscape"
   version="1.1"
   width="791.48108"
   height="791.50085"
   id="svg29062"
   viewBox="0 0 791.48109 791.50079"
   sodipodi:docname="A-37.svg"
   inkscape:version="1.0.2 (e86c870879, 2021-01-15)">
  <metadata
     id="metadata29068">
    <rdf:RDF>
      <cc:Work
         rdf:about="">
        <dc:format>image/svg+xml</dc:format>
        <dc:type
           rdf:resource="http://purl.org/dc/dcmitype/StillImage" />
        <dc:title />
      </cc:Work>
    </rdf:RDF>
  </metadata>
  <defs
     id="defs29066" />
  <sodipodi:namedview
     pagecolor="#ffffff"
     bordercolor="#666666"
     borderopacity="1"
     objecttolerance="10"
     gridtolerance="10"
     guidetolerance="10"
     inkscape:pageopacity="0"
     inkscape:pageshadow="2"
     inkscape:window-width="1920"
     inkscape:window-height="1016"
     id="namedview29064"
     showgrid="false"
     inkscape:zoom="0.049253423"
     inkscape:cx="377.10761"
     inkscape:cy="-426.00147"
     inkscape:window-x="0"
     inkscape:window-y="27"
     inkscape:window-maximized="1"
     inkscape:current-layer="svg29062"
     showguides="false"
     inkscape:document-rotation="0" />
  <g
     id="Layer1131"
     transform="matrix(65.957993,0,0,65.957993,-7940.752,-7623.034)">
    <path
       d="m 120.654,120.9366 5.0995,-5.0995 c 0.3507,-0.3507 0.9244,-0.3507 1.2748,0 l 5.0998,5.0995 c 0.3503,0.3507 0.3503,0.9244 0,1.275 l -5.0998,5.0996 c -0.3504,0.3506 -0.9241,0.3506 -1.2748,0 l -5.0995,-5.0996 c -0.3506,-0.3506 -0.3506,-0.9243 0,-1.275 z"
       style="fill:#ffec00;fill-rule:evenodd"
       id="path28458" />
    <path
       d="m 120.7564,121.0946 5.1552,-5.1551 c 0.132,-0.132 0.3058,-0.198 0.4795,-0.198 0.1737,0 0.3475,0.066 0.4794,0.198 l 5.1552,5.1551 c 0.132,0.132 0.1979,0.3058 0.1979,0.4795 0,0.1737 -0.0659,0.3475 -0.1979,0.4795 l -5.1552,5.1552 c -0.1319,0.1319 -0.3057,0.1979 -0.4794,0.1979 -0.1737,0 -0.3476,-0.066 -0.4795,-0.1979 l -5.1552,-5.1552 c -0.132,-0.132 -0.1979,-0.3058 -0.1979,-0.4795 0,-0.1737 0.0659,-0.3475 0.1979,-0.4795 z m 5.3464,-4.9639 -5.1552,5.1552 c -0.0791,0.0791 -0.1187,0.1836 -0.1187,0.2882 0,0.1046 0.0396,0.2091 0.1187,0.2883 l 5.1552,5.1551 c 0.0791,0.0792 0.1836,0.1188 0.2883,0.1188 0.1046,0 0.2091,-0.0396 0.2882,-0.1188 l 5.1552,-5.1551 c 0.0791,-0.0792 0.1187,-0.1837 0.1187,-0.2883 0,-0.1046 -0.0396,-0.2091 -0.1187,-0.2882 l -5.1552,-5.1552 c -0.0791,-0.0792 -0.1836,-0.1187 -0.2882,-0.1187 -0.1047,0 -0.2092,0.0395 -0.2883,0.1187 z"
       style="fill:#000000;fill-rule:evenodd"
       id="path28460" />
    <g
       id="Layer1132">
      <path
         d="m 123.6176,122.3807 v -0.2683 h -0.7205 c -0.0906,0 -0.1587,-0.0207 -0.2042,-0.0621 -0.0456,-0.0413 -0.0681,-0.0975 -0.0681,-0.1689 0,-0.0182 0.003,-0.0364 0.01,-0.0551 0.007,-0.0187 0.0166,-0.0384 0.0304,-0.0591 0.0132,-0.0207 0.0269,-0.0408 0.0416,-0.06 0.0142,-0.0193 0.0318,-0.0429 0.0529,-0.0705 l 0.7606,-1.0226 c 0.0495,-0.067 0.0906,-0.1157 0.1225,-0.1462 0.0323,-0.0301 0.0705,-0.0453 0.1156,-0.0453 0.1454,0 0.2179,0.0837 0.2179,0.2511 v 1.1167 h 0.0617 c 0.0735,0 0.1328,0.01 0.1773,0.03 0.0446,0.0202 0.0666,0.0645 0.0666,0.1324 0,0.0557 -0.0181,0.0961 -0.0543,0.1217 -0.0368,0.0251 -0.0911,0.0379 -0.1636,0.0379 h -0.0877 v 0.2683 c 0,0.0739 -0.0161,0.129 -0.049,0.1649 -0.0323,0.036 -0.0759,0.0542 -0.1302,0.0542 -0.0534,0 -0.097,-0.0187 -0.1298,-0.0556 -0.0329,-0.037 -0.0495,-0.0916 -0.0495,-0.1635 z m -0.6171,-0.5903 h 0.6171 v -0.839 z m 1.8019,0.8124 c -0.0632,0 -0.1176,-0.0197 -0.1636,-0.0586 -0.0455,-0.0389 -0.0686,-0.0936 -0.0686,-0.1635 0,-0.0606 0.0226,-0.1118 0.0676,-0.1531 0.0446,-0.0414 0.098,-0.0621 0.1587,-0.0621 0.0461,0 0.0877,0.0124 0.1249,0.0375 0.0372,0.0251 0.0666,0.062 0.0877,0.1103 0.021,0.0487 0.0313,0.1088 0.0313,0.1797 0,0.0955 -0.02,0.1846 -0.0602,0.2678 -0.0402,0.0832 -0.0892,0.1487 -0.1469,0.1975 -0.0578,0.0487 -0.1102,0.0728 -0.1568,0.0728 -0.0299,0 -0.0539,-0.01 -0.0725,-0.0295 -0.0186,-0.0197 -0.0279,-0.0424 -0.0279,-0.0685 0,-0.0393 0.0196,-0.0714 0.0588,-0.0955 0.1117,-0.0625 0.1675,-0.1408 0.1675,-0.2348 z m 2.0601,-1.0759 c 0,0.1581 -0.01,0.2935 -0.0289,0.4067 -0.0191,0.1138 -0.0544,0.2167 -0.1063,0.3088 -0.0652,0.1132 -0.1489,0.2008 -0.2523,0.2624 -0.1033,0.0615 -0.2184,0.0921 -0.3448,0.0921 -0.145,0 -0.2757,-0.0414 -0.3908,-0.1241 -0.1151,-0.0827 -0.2018,-0.197 -0.2606,-0.3427 -0.0294,-0.0798 -0.0509,-0.1684 -0.0651,-0.2649 -0.0138,-0.0965 -0.0206,-0.2009 -0.0206,-0.3136 0,-0.1453 0.008,-0.2758 0.023,-0.392 0.0152,-0.1166 0.0392,-0.2166 0.0715,-0.3003 0.0563,-0.1384 0.1386,-0.2437 0.2459,-0.3161 0.1077,-0.0724 0.2361,-0.1088 0.3855,-0.1088 0.0984,0 0.188,0.0162 0.2684,0.0482 0.0803,0.0325 0.1508,0.0793 0.2116,0.1413 0.0607,0.0621 0.1121,0.1389 0.1542,0.23 0.073,0.1585 0.1093,0.383 0.1093,0.673 z m -0.3938,-0.0285 c 0,-0.1758 -0.0103,-0.32 -0.0314,-0.4318 -0.021,-0.1123 -0.0568,-0.197 -0.1063,-0.2541 -0.0499,-0.0571 -0.119,-0.0856 -0.2067,-0.0856 -0.1263,0 -0.214,0.064 -0.2635,0.192 -0.0494,0.1275 -0.0739,0.3244 -0.0739,0.5908 0,0.1807 0.0103,0.3289 0.0313,0.4441 0.0211,0.1157 0.0568,0.2029 0.1063,0.262 0.05,0.059 0.1176,0.0886 0.2028,0.0886 0.0877,0 0.1567,-0.0305 0.2067,-0.0921 0.0494,-0.0615 0.0842,-0.1497 0.1043,-0.2639 0.0201,-0.1147 0.0304,-0.2644 0.0304,-0.45 z m 2.7717,0.3299 v 0.5234 c 0,0.0827 -0.0186,0.1447 -0.0558,0.1861 -0.0373,0.0413 -0.0867,0.062 -0.1475,0.062 -0.0592,0 -0.1072,-0.0207 -0.144,-0.062 -0.0367,-0.0414 -0.0553,-0.1034 -0.0553,-0.1861 v -0.6273 c 0,-0.0995 -0.003,-0.1763 -0.0103,-0.2309 -0.006,-0.0547 -0.0245,-0.1 -0.0544,-0.1349 -0.0298,-0.035 -0.0764,-0.0527 -0.141,-0.0527 -0.1284,0 -0.2126,0.0443 -0.2533,0.1329 -0.0406,0.0881 -0.0612,0.2152 -0.0612,0.3806 v 0.5323 c 0,0.0817 -0.0186,0.1437 -0.0553,0.1856 -0.0368,0.0418 -0.0852,0.0625 -0.145,0.0625 -0.0593,0 -0.1078,-0.0207 -0.1455,-0.0625 -0.0377,-0.0419 -0.0568,-0.1039 -0.0568,-0.1856 v -1.1266 c 0,-0.0738 0.0172,-0.1305 0.051,-0.1689 0.0337,-0.0384 0.0783,-0.0576 0.1337,-0.0576 0.0538,0 0.0984,0.0183 0.1342,0.0542 0.0357,0.0359 0.0538,0.0857 0.0538,0.1492 v 0.0374 c 0.0676,-0.0817 0.1406,-0.1418 0.218,-0.1802 0.0774,-0.0384 0.1636,-0.0576 0.2581,-0.0576 0.099,0 0.1832,0.0197 0.2542,0.0591 0.071,0.0394 0.1293,0.0989 0.1749,0.1787 0.0661,-0.0807 0.1371,-0.1403 0.2125,-0.1792 0.0755,-0.0389 0.1592,-0.0586 0.2513,-0.0586 0.1073,0 0.1994,0.0212 0.2767,0.0635 0.0774,0.0424 0.1357,0.1029 0.1739,0.1817 0.0333,0.0709 0.05,0.1831 0.05,0.3358 v 0.7691 c 0,0.0827 -0.0186,0.1447 -0.0559,0.1861 -0.0372,0.0413 -0.0867,0.062 -0.1474,0.062 -0.0592,0 -0.1077,-0.0207 -0.1455,-0.0625 -0.0377,-0.0419 -0.0568,-0.1039 -0.0568,-0.1856 v -0.6623 c 0,-0.0847 -0.003,-0.1521 -0.0107,-0.2033 -0.007,-0.0507 -0.0265,-0.0936 -0.0583,-0.1285 -0.0314,-0.0345 -0.0794,-0.0517 -0.1435,-0.0517 -0.052,0 -0.1009,0.0152 -0.1475,0.0463 -0.046,0.0305 -0.0822,0.0718 -0.1082,0.124 -0.0289,0.066 -0.0431,0.1837 -0.0431,0.3521 z"
         style="fill:#000000;fill-rule:evenodd"
         id="path28462" />
      <path
         d="m 125.1476,118.0065 1.316,1.3161 1.3161,-1.3161 z"
         style="fill:#000000;fill-rule:evenodd"
         id="path28464" />
      <path
         d="m 125.1566,125.1418 1.3161,-1.3161 1.3161,1.3161 z"
         style="fill:#000000;fill-rule:evenodd"
         id="path28466" />
    </g>
  </g>
</svg>
