<?xml version="1.0" encoding="UTF-8" standalone="no"?>
<svg
   xmlns:dc="http://purl.org/dc/elements/1.1/"
   xmlns:cc="http://creativecommons.org/ns#"
   xmlns:rdf="http://www.w3.org/1999/02/22-rdf-syntax-ns#"
   xmlns:svg="http://www.w3.org/2000/svg"
   xmlns="http://www.w3.org/2000/svg"
   xmlns:sodipodi="http://sodipodi.sourceforge.net/DTD/sodipodi-0.dtd"
   xmlns:inkscape="http://www.inkscape.org/namespaces/inkscape"
   version="1.1"
   width="791.48602"
   height="791.49591"
   id="svg29062"
   viewBox="0 0 791.48603 791.49585"
   sodipodi:docname="A-38.svg"
   inkscape:version="1.0.2 (e86c870879, 2021-01-15)">
  <metadata
     id="metadata29068">
    <rdf:RDF>
      <cc:Work
         rdf:about="">
        <dc:format>image/svg+xml</dc:format>
        <dc:type
           rdf:resource="http://purl.org/dc/dcmitype/StillImage" />
        <dc:title />
      </cc:Work>
    </rdf:RDF>
  </metadata>
  <defs
     id="defs29066" />
  <sodipodi:namedview
     pagecolor="#ffffff"
     bordercolor="#666666"
     borderopacity="1"
     objecttolerance="10"
     gridtolerance="10"
     guidetolerance="10"
     inkscape:pageopacity="0"
     inkscape:pageshadow="2"
     inkscape:window-width="1920"
     inkscape:window-height="1016"
     id="namedview29064"
     showgrid="false"
     inkscape:zoom="0.049253423"
     inkscape:cx="-560.10274"
     inkscape:cy="-1494.1323"
     inkscape:window-x="0"
     inkscape:window-y="27"
     inkscape:window-maximized="1"
     inkscape:current-layer="svg29062"
     showguides="false"
     inkscape:document-rotation="0" />
  <g
     id="Layer1133"
     transform="matrix(65.957993,0,0,65.957993,-8877.9623,-7609.5572)">
    <path
       d="m 134.8632,120.7322 5.0996,-5.0995 c 0.3506,-0.3506 0.9243,-0.3506 1.2747,0 l 5.0998,5.0995 c 0.3504,0.3507 0.3504,0.9244 0,1.2751 l -5.0998,5.0995 c -0.3504,0.3506 -0.9241,0.3506 -1.2747,0 l -5.0996,-5.0995 c -0.3506,-0.3507 -0.3506,-0.9244 0,-1.2751 z"
       style="fill:#ffec00;fill-rule:evenodd"
       id="path28470" />
    <path
       d="m 134.9656,120.8903 5.1552,-5.1552 c 0.132,-0.132 0.3058,-0.198 0.4795,-0.198 0.1737,0 0.3475,0.066 0.4795,0.198 l 5.1551,5.1552 c 0.132,0.1319 0.198,0.3057 0.198,0.4794 0,0.1737 -0.066,0.3475 -0.198,0.4795 l -5.1551,5.1552 c -0.132,0.1319 -0.3058,0.1979 -0.4795,0.1979 -0.1737,0 -0.3475,-0.066 -0.4795,-0.1979 l -5.1552,-5.1552 c -0.1319,-0.132 -0.1979,-0.3058 -0.1979,-0.4795 0,-0.1737 0.066,-0.3475 0.1979,-0.4794 z m 5.3464,-4.964 -5.1551,5.1552 c -0.0792,0.0791 -0.1188,0.1836 -0.1188,0.2882 0,0.1046 0.0396,0.2092 0.1188,0.2883 l 5.1551,5.1552 c 0.0792,0.0791 0.1837,0.1187 0.2883,0.1187 0.1046,0 0.2091,-0.0396 0.2882,-0.1187 l 5.1552,-5.1552 c 0.0792,-0.0791 0.1187,-0.1837 0.1187,-0.2883 0,-0.1046 -0.0395,-0.2091 -0.1187,-0.2882 l -5.1552,-5.1552 c -0.0791,-0.0791 -0.1836,-0.1187 -0.2882,-0.1187 -0.1046,0 -0.2091,0.0396 -0.2883,0.1187 z"
       style="fill:#000000;fill-rule:evenodd"
       id="path28472" />
    <path
       d="m 136.649,122.5445 1.2107,-1.2108 -1.2107,-1.2107 z"
       style="fill:#000000;fill-rule:evenodd"
       id="path28474" />
    <path
       d="m 144.5515,122.5163 -1.2107,-1.2108 1.2107,-1.2107 z"
       style="fill:#000000;fill-rule:evenodd"
       id="path28476" />
    <path
       d="m 139.5098,123.3259 h 0.3605 v 0.2027 c 0.1293,-0.1559 0.2832,-0.2341 0.4621,-0.2341 0.095,0 0.1774,0.0195 0.2472,0.0586 0.07,0.0392 0.1273,0.0981 0.1715,0.1772 0.0655,-0.0791 0.136,-0.138 0.2114,-0.1772 0.0754,-0.0391 0.1559,-0.0586 0.2418,-0.0586 0.1086,0 0.2007,0.0218 0.2767,0.0663 0.0751,0.0442 0.1315,0.1091 0.1687,0.195 0.0272,0.063 0.0405,0.1653 0.0405,0.307 v 0.9482 h -0.392 v -0.8476 c 0,-0.1474 -0.0134,-0.2423 -0.0406,-0.2845 -0.0363,-0.0559 -0.0924,-0.084 -0.1678,-0.084 -0.0547,0 -0.1069,0.0168 -0.1553,0.0499 -0.0482,0.0341 -0.0836,0.0831 -0.1052,0.1474 -0.0213,0.0649 -0.0317,0.167 -0.0317,0.3067 v 0.7121 h -0.3921 v -0.8127 c 0,-0.144 -0.007,-0.2375 -0.0209,-0.2789 -0.0139,-0.042 -0.0355,-0.0734 -0.065,-0.0941 -0.0292,-0.0204 -0.0691,-0.0304 -0.1193,-0.0304 -0.0607,0 -0.1148,0.0162 -0.163,0.0485 -0.0487,0.0329 -0.083,0.0797 -0.104,0.1412 -0.021,0.0615 -0.0315,0.1635 -0.0315,0.3058 v 0.7206 h -0.392 z"
       style="fill:#000000;fill-rule:evenodd"
       id="path28478" />
    <path
       d="m 138.7371,121.8321 0.3804,-0.0462 c 0.0119,0.0972 0.0442,0.1715 0.0972,0.2231 0.0527,0.0516 0.1165,0.0771 0.1913,0.0771 0.0805,0 0.1483,-0.0309 0.2036,-0.0924 0.0547,-0.0616 0.0824,-0.1443 0.0824,-0.2492 0,-0.0987 -0.026,-0.1772 -0.079,-0.235 -0.053,-0.0575 -0.1174,-0.0867 -0.1936,-0.0867 -0.0499,0 -0.1095,0.0102 -0.1792,0.0297 l 0.0434,-0.3183 c 0.106,0.003 0.1865,-0.0207 0.2421,-0.0697 0.0558,-0.0485 0.0833,-0.114 0.0833,-0.1954 0,-0.0691 -0.0204,-0.1238 -0.0612,-0.1652 -0.0411,-0.0411 -0.0956,-0.0615 -0.1636,-0.0615 -0.0672,0 -0.1244,0.0232 -0.1715,0.07 -0.0476,0.0468 -0.0762,0.1148 -0.0867,0.2044 l -0.3603,-0.0615 c 0.0252,-0.1248 0.0629,-0.2243 0.1139,-0.2991 0.0505,-0.0745 0.1216,-0.1329 0.2121,-0.176 0.0904,-0.0423 0.1924,-0.0638 0.305,-0.0638 0.1924,0 0.3469,0.0615 0.4632,0.1848 0.0958,0.1012 0.1437,0.2154 0.1437,0.3427 0,0.18 -0.0981,0.3246 -0.2948,0.4317 0.117,0.0253 0.2106,0.0814 0.2812,0.1693 0.07,0.0876 0.1051,0.1933 0.1051,0.3172 0,0.1797 -0.0657,0.333 -0.1967,0.4597 -0.131,0.127 -0.2939,0.1902 -0.4895,0.1902 -0.1849,0 -0.3382,-0.0532 -0.4598,-0.1604 -0.1219,-0.1069 -0.1925,-0.2463 -0.212,-0.4195 z m 1.6758,0.1511 h 0.3917 v 0.2806 c 0,0.1134 -0.01,0.2035 -0.0292,0.2687 -0.0195,0.0658 -0.0566,0.125 -0.1111,0.1769 -0.0541,0.0524 -0.1233,0.093 -0.2066,0.123 l -0.0763,-0.163 c 0.0786,-0.0263 0.1344,-0.062 0.1678,-0.1077 0.0329,-0.0453 0.0505,-0.1077 0.0525,-0.1868 h -0.1888 z m 1.3847,-1.6668 c 0.1982,0 0.3529,0.0711 0.4649,0.2129 0.1329,0.1678 0.1998,0.4467 0.1998,0.8353 0,0.3884 -0.0671,0.6676 -0.2012,0.8374 -0.1108,0.14 -0.2653,0.21 -0.4635,0.21 -0.1993,0 -0.36,-0.0768 -0.4819,-0.2301 -0.1219,-0.1534 -0.1828,-0.4275 -0.1828,-0.8209 0,-0.3864 0.0672,-0.6648 0.201,-0.8346 0.1111,-0.14 0.2653,-0.21 0.4637,-0.21 z m 0,0.326 c -0.0467,0 -0.0887,0.0153 -0.125,0.0456 -0.0366,0.0301 -0.0652,0.0845 -0.0853,0.163 -0.0267,0.1015 -0.04,0.273 -0.04,0.5136 0,0.2413 0.0119,0.4065 0.0357,0.4967 0.0239,0.0901 0.0539,0.1499 0.0902,0.18 0.0363,0.03 0.0777,0.0448 0.1244,0.0448 0.0465,0 0.0885,-0.0151 0.1253,-0.0457 0.036,-0.03 0.0646,-0.0844 0.0848,-0.163 0.0266,-0.1006 0.0399,-0.2715 0.0399,-0.5128 0,-0.2406 -0.0119,-0.4059 -0.0357,-0.496 -0.0238,-0.0899 -0.0538,-0.1505 -0.0901,-0.1806 -0.036,-0.0303 -0.0777,-0.0456 -0.1242,-0.0456 z"
       style="fill:#000000;fill-rule:evenodd"
       id="path28480" />
  </g>
</svg>
