<?xml version="1.0" encoding="UTF-8" standalone="no"?>
<svg
   xmlns:dc="http://purl.org/dc/elements/1.1/"
   xmlns:cc="http://creativecommons.org/ns#"
   xmlns:rdf="http://www.w3.org/1999/02/22-rdf-syntax-ns#"
   xmlns:svg="http://www.w3.org/2000/svg"
   xmlns="http://www.w3.org/2000/svg"
   xmlns:sodipodi="http://sodipodi.sourceforge.net/DTD/sodipodi-0.dtd"
   xmlns:inkscape="http://www.inkscape.org/namespaces/inkscape"
   version="1.1"
   width="791.48602"
   height="791.49591"
   id="svg29062"
   viewBox="0 0 791.48603 791.49585"
   sodipodi:docname="A-39.svg"
   inkscape:version="1.0.2 (e86c870879, 2021-01-15)">
  <metadata
     id="metadata29068">
    <rdf:RDF>
      <cc:Work
         rdf:about="">
        <dc:format>image/svg+xml</dc:format>
        <dc:type
           rdf:resource="http://purl.org/dc/dcmitype/StillImage" />
        <dc:title />
      </cc:Work>
    </rdf:RDF>
  </metadata>
  <defs
     id="defs29066" />
  <sodipodi:namedview
     pagecolor="#ffffff"
     bordercolor="#666666"
     borderopacity="1"
     objecttolerance="10"
     gridtolerance="10"
     guidetolerance="10"
     inkscape:pageopacity="0"
     inkscape:pageshadow="2"
     inkscape:window-width="1920"
     inkscape:window-height="1016"
     id="namedview29064"
     showgrid="false"
     inkscape:zoom="0.049253423"
     inkscape:cx="-1497.2752"
     inkscape:cy="-1463.132"
     inkscape:window-x="0"
     inkscape:window-y="27"
     inkscape:window-maximized="1"
     inkscape:current-layer="svg29062"
     showguides="false"
     inkscape:document-rotation="0" />
  <g
     id="Layer1134"
     transform="matrix(65.957993,0,0,65.957993,-9815.1347,-7578.5569)">
    <path
       d="m 149.0719,120.2623 5.0995,-5.0996 c 0.3507,-0.3506 0.9244,-0.3506 1.2748,0 l 5.0998,5.0996 c 0.3503,0.3506 0.3503,0.9243 0,1.275 l -5.0998,5.0995 c -0.3504,0.3506 -0.9241,0.3506 -1.2748,0 l -5.0995,-5.0995 c -0.3507,-0.3507 -0.3507,-0.9244 0,-1.275 z"
       style="fill:#ffec00;fill-rule:evenodd"
       id="path28483" />
    <path
       d="m 149.1743,120.4203 5.1552,-5.1552 c 0.1319,-0.1319 0.3057,-0.1979 0.4794,-0.1979 0.1737,0 0.3475,0.066 0.4795,0.1979 l 5.1552,5.1552 c 0.1319,0.132 0.1979,0.3058 0.1979,0.4795 0,0.1737 -0.066,0.3475 -0.1979,0.4794 l -5.1552,5.1552 c -0.132,0.132 -0.3058,0.198 -0.4795,0.198 -0.1737,0 -0.3475,-0.066 -0.4794,-0.198 l -5.1552,-5.1552 c -0.132,-0.1319 -0.198,-0.3057 -0.198,-0.4794 0,-0.1737 0.066,-0.3475 0.198,-0.4795 z m 5.3464,-4.964 -5.1552,5.1552 c -0.0791,0.0791 -0.1187,0.1837 -0.1187,0.2883 0,0.1046 0.0396,0.2091 0.1187,0.2882 l 5.1552,5.1552 c 0.0791,0.0791 0.1836,0.1187 0.2882,0.1187 0.1046,0 0.2092,-0.0396 0.2883,-0.1187 l 5.1552,-5.1552 c 0.0791,-0.0791 0.1187,-0.1836 0.1187,-0.2882 0,-0.1046 -0.0396,-0.2092 -0.1187,-0.2883 l -5.1552,-5.1552 c -0.0791,-0.0791 -0.1837,-0.1187 -0.2883,-0.1187 -0.1046,0 -0.2091,0.0396 -0.2882,0.1187 z"
       style="fill:#000000;fill-rule:evenodd"
       id="path28485" />
    <g
       id="Layer1135">
      <path
         d="m 154.15,120.462 h 0.4553 v 0.3023 h 0.4208 v -0.3035 h 0.4553 v 0.3035 h 0.4553 v -0.3023 h 0.4553 v 0.3023 h 0.4285 v -0.3035 h 0.4553 v 0.3035 h 0.4554 v -0.3023 h 0.4553 v 0.3023 h 0.4165 v 0.253 h -0.4165 v 0.3047 h -0.4553 v -0.3047 h -0.4554 v 0.3035 h -0.4553 v -0.3035 h -0.4285 v 0.3047 h -0.4553 v -0.3047 h -0.4553 v 0.3035 h -0.4553 v -0.3035 h -0.4208 v 0.3047 H 154.15 v -0.3047 h -0.4554 v 0.3035 h -0.4553 v -0.3035 h -0.4285 v 0.3047 h -0.4553 v -0.3047 h -0.4553 v 0.3035 h -0.4553 v -0.3035 h -0.43 v -0.253 h 0.43 v -0.3035 h 0.4553 v 0.3035 h 0.4553 v -0.3023 h 0.4553 v 0.3023 h 0.4285 v -0.3035 h 0.4553 v 0.3035 h 0.4554 z"
         style="fill:#000000;fill-rule:evenodd"
         id="path28487" />
      <path
         d="m 154.8195,119.9343 -2.1132,-2.0303 -0.9187,0.929 1.3576,1.3043 h 1.463 0.4225 1.4631 l 1.3575,-1.3043 -0.9186,-0.929 z"
         style="fill:#000000;fill-rule:evenodd"
         id="path28489" />
      <path
         d="m 154.8089,121.8652 -2.1132,2.0303 -0.9186,-0.929 1.3575,-1.3043 h 1.4631 0.4225 1.4631 l 1.3575,1.3043 -0.9187,0.929 z"
         style="fill:#000000;fill-rule:evenodd"
         id="path28491" />
    </g>
  </g>
</svg>
