<?xml version="1.0" encoding="UTF-8" standalone="no"?>
<svg
   xmlns:dc="http://purl.org/dc/elements/1.1/"
   xmlns:cc="http://creativecommons.org/ns#"
   xmlns:rdf="http://www.w3.org/1999/02/22-rdf-syntax-ns#"
   xmlns:svg="http://www.w3.org/2000/svg"
   xmlns="http://www.w3.org/2000/svg"
   xmlns:sodipodi="http://sodipodi.sourceforge.net/DTD/sodipodi-0.dtd"
   xmlns:inkscape="http://www.inkscape.org/namespaces/inkscape"
   version="1.1"
   width="791.48602"
   height="791.49591"
   id="svg29062"
   viewBox="0 0 791.48603 791.49585"
   sodipodi:docname="A-3a.svg"
   inkscape:version="1.0.2 (e86c870879, 2021-01-15)">
  <metadata
     id="metadata29068">
    <rdf:RDF>
      <cc:Work
         rdf:about="">
        <dc:format>image/svg+xml</dc:format>
        <dc:type
           rdf:resource="http://purl.org/dc/dcmitype/StillImage" />
        <dc:title />
      </cc:Work>
    </rdf:RDF>
  </metadata>
  <defs
     id="defs29066" />
  <sodipodi:namedview
     pagecolor="#ffffff"
     bordercolor="#666666"
     borderopacity="1"
     objecttolerance="10"
     gridtolerance="10"
     guidetolerance="10"
     inkscape:pageopacity="0"
     inkscape:pageshadow="2"
     inkscape:window-width="1920"
     inkscape:window-height="1016"
     id="namedview29064"
     showgrid="false"
     inkscape:zoom="0.049253423"
     inkscape:cx="2251.5342"
     inkscape:cy="6235.2389"
     inkscape:window-x="0"
     inkscape:window-y="27"
     inkscape:window-maximized="1"
     inkscape:current-layer="svg29062"
     showguides="false"
     inkscape:document-rotation="0" />
  <g
     id="Layer1055"
     transform="matrix(65.957993,0,0,65.957993,-6066.3248,-3764.4568)">
    <path
       d="m 92.2355,62.436 5.0996,-5.0995 c 0.3506,-0.3506 0.9243,-0.3506 1.2747,0 l 5.0998,5.0995 c 0.3504,0.3507 0.3504,0.9244 0,1.2751 l -5.0998,5.0995 c -0.3504,0.3506 -0.9241,0.3506 -1.2747,0 l -5.0996,-5.0995 c -0.3506,-0.3507 -0.3506,-0.9244 0,-1.2751 z"
       style="fill:#ffec00;fill-rule:evenodd"
       id="path27870" />
    <path
       d="m 92.338,62.5941 5.1551,-5.1552 c 0.132,-0.132 0.3058,-0.1979 0.4795,-0.1979 0.1737,0 0.3475,0.0659 0.4795,0.1979 l 5.1551,5.1552 c 0.132,0.132 0.198,0.3058 0.198,0.4795 0,0.1737 -0.066,0.3475 -0.198,0.4794 l -5.1551,5.1552 c -0.132,0.132 -0.3058,0.1979 -0.4795,0.1979 -0.1737,0 -0.3475,-0.0659 -0.4795,-0.1979 L 92.338,63.553 c -0.132,-0.1319 -0.198,-0.3057 -0.198,-0.4794 0,-0.1737 0.066,-0.3475 0.198,-0.4795 z m 5.3463,-4.964 -5.1551,5.1552 c -0.0792,0.0791 -0.1188,0.1837 -0.1188,0.2883 0,0.1046 0.0396,0.2091 0.1188,0.2882 l 5.1551,5.1552 c 0.0792,0.0791 0.1837,0.1187 0.2883,0.1187 0.1046,0 0.2091,-0.0396 0.2883,-0.1187 l 5.1551,-5.1552 c 0.0792,-0.0791 0.1187,-0.1836 0.1187,-0.2882 0,-0.1046 -0.0395,-0.2092 -0.1187,-0.2883 l -5.1551,-5.1552 c -0.0792,-0.0791 -0.1837,-0.1187 -0.2883,-0.1187 -0.1046,0 -0.2091,0.0396 -0.2883,0.1187 z"
       style="fill:#000000;fill-rule:evenodd"
       id="path27872" />
    <path
       d="m 97.5746,67.0117 c 0.0082,-0.7324 -0.0205,-1.1257 -0.2872,-1.3917 -0.4558,-0.4546 -0.6663,-0.5384 -0.7773,-1.1882 -0.0116,-0.8518 1.1613,-1.0345 1.8314,-1.3657 0.3228,-0.1595 0.4086,-0.2505 0.077,-0.5094 -0.8171,-0.6376 -0.9185,-0.8687 -0.9099,-1.7633 -0.2064,0.0883 -0.381,0.2148 -0.5873,0.3031 -0.1979,0.0599 -0.2304,-0.071 -0.1421,-0.2272 0.339,-0.5448 0.6781,-1.0897 1.0171,-1.6345 0.0717,-0.0824 0.0916,-0.1582 0.2086,-0.0335 0.3611,0.5522 0.738,1.1391 1.0991,1.6913 0.016,0.0851 -0.0146,0.188 -0.1285,0.1775 -0.2211,-0.1031 -0.3975,-0.1861 -0.6186,-0.2891 -0.2902,1.0344 1.0561,1.0866 1.0782,2.0762 -0.0518,0.8498 -1.14,1.0358 -1.8922,1.391 -0.2124,0.0638 -0.329,0.2611 -0.0198,0.4816 0.7761,0.5537 0.9143,1.5677 0.8764,2.2819 -0.4005,-1e-4 -0.5287,-5e-4 -0.8249,0 z"
       style="fill:#000000;fill-rule:evenodd"
       id="path27874" />
  </g>
</svg>
