<?xml version="1.0" encoding="UTF-8" standalone="no"?>
<svg
   xmlns:dc="http://purl.org/dc/elements/1.1/"
   xmlns:cc="http://creativecommons.org/ns#"
   xmlns:rdf="http://www.w3.org/1999/02/22-rdf-syntax-ns#"
   xmlns:svg="http://www.w3.org/2000/svg"
   xmlns="http://www.w3.org/2000/svg"
   xmlns:sodipodi="http://sodipodi.sourceforge.net/DTD/sodipodi-0.dtd"
   xmlns:inkscape="http://www.inkscape.org/namespaces/inkscape"
   version="1.1"
   width="791.48602"
   height="791.50085"
   id="svg29062"
   viewBox="0 0 791.48603 791.50079"
   sodipodi:docname="A-42c.svg"
   inkscape:version="1.0.2 (e86c870879, 2021-01-15)">
  <metadata
     id="metadata29068">
    <rdf:RDF>
      <cc:Work
         rdf:about="">
        <dc:format>image/svg+xml</dc:format>
        <dc:type
           rdf:resource="http://purl.org/dc/dcmitype/StillImage" />
        <dc:title />
      </cc:Work>
    </rdf:RDF>
  </metadata>
  <defs
     id="defs29066" />
  <sodipodi:namedview
     pagecolor="#ffffff"
     bordercolor="#666666"
     borderopacity="1"
     objecttolerance="10"
     gridtolerance="10"
     guidetolerance="10"
     inkscape:pageopacity="0"
     inkscape:pageshadow="2"
     inkscape:window-width="1920"
     inkscape:window-height="1016"
     id="namedview29064"
     showgrid="false"
     inkscape:zoom="0.049253423"
     inkscape:cx="6000.3828"
     inkscape:cy="4545.9142"
     inkscape:window-x="0"
     inkscape:window-y="27"
     inkscape:window-maximized="1"
     inkscape:current-layer="svg29062"
     showguides="false"
     inkscape:document-rotation="0" />
  <g
     id="Layer1141"
     transform="matrix(65.957993,0,0,65.957993,-2317.477,-8625.9105)">
    <path
       d="m 35.3986,136.1414 5.0996,-5.0996 c 0.3506,-0.3506 0.9243,-0.3506 1.2747,0 l 5.0998,5.0996 c 0.3504,0.3506 0.3504,0.9243 0,1.275 l -5.0998,5.0995 c -0.3504,0.3507 -0.9241,0.3507 -1.2747,0 l -5.0996,-5.0995 c -0.3506,-0.3507 -0.3506,-0.9244 0,-1.275 z"
       style="fill:#ffec00;fill-rule:evenodd"
       id="path28526" />
    <path
       d="m 35.5011,136.2994 5.1551,-5.1552 c 0.132,-0.1319 0.3058,-0.1979 0.4795,-0.1979 0.1737,0 0.3475,0.066 0.4795,0.1979 l 5.1551,5.1552 c 0.132,0.132 0.198,0.3058 0.198,0.4795 0,0.1737 -0.066,0.3475 -0.198,0.4795 l -5.1551,5.1551 c -0.132,0.132 -0.3058,0.198 -0.4795,0.198 -0.1737,0 -0.3475,-0.066 -0.4795,-0.198 l -5.1551,-5.1551 c -0.132,-0.132 -0.198,-0.3058 -0.198,-0.4795 0,-0.1737 0.066,-0.3475 0.198,-0.4795 z m 5.3463,-4.9639 -5.1551,5.1551 c -0.0792,0.0792 -0.1188,0.1837 -0.1188,0.2883 0,0.1046 0.0396,0.2091 0.1188,0.2882 l 5.1551,5.1552 c 0.0792,0.0791 0.1837,0.1187 0.2883,0.1187 0.1046,0 0.2091,-0.0396 0.2883,-0.1187 l 5.1551,-5.1552 c 0.0792,-0.0791 0.1187,-0.1836 0.1187,-0.2882 0,-0.1046 -0.0395,-0.2091 -0.1187,-0.2883 l -5.1551,-5.1551 c -0.0792,-0.0792 -0.1837,-0.1188 -0.2883,-0.1188 -0.1046,0 -0.2091,0.0396 -0.2883,0.1188 z"
       style="fill:#000000;fill-rule:evenodd"
       id="path28528" />
    <g
       id="Layer1142">
      <path
         d="m 41.8896,135.2595 c 0,0.4987 -0.3861,0.8996 -0.8754,0.8996 -0.4332,0 -0.8753,-0.3957 -0.8753,-0.8024 v -1.7263 h 1.7507 z"
         style="fill:#000000;fill-rule:evenodd"
         id="path28530" />
      <path
         d="m 38.7056,137.7661 1.5181,2.1613 0.6853,-0.4814 -1.5181,-2.1612 0.7146,-0.3311 -2.0163,-0.7947 0.0626,2.1671 z"
         style="fill:#000000;fill-rule:evenodd"
         id="path28532" />
      <path
         d="m 43.5657,137.7661 -1.5181,2.1613 -0.6853,-0.4814 1.5182,-2.1612 -0.7147,-0.3311 2.0163,-0.7947 -0.0626,2.1671 z"
         style="fill:#000000;fill-rule:evenodd"
         id="path28534" />
    </g>
  </g>
</svg>
