<?xml version="1.0" encoding="UTF-8" standalone="no"?>
<svg
   xmlns:dc="http://purl.org/dc/elements/1.1/"
   xmlns:cc="http://creativecommons.org/ns#"
   xmlns:rdf="http://www.w3.org/1999/02/22-rdf-syntax-ns#"
   xmlns:svg="http://www.w3.org/2000/svg"
   xmlns="http://www.w3.org/2000/svg"
   xmlns:sodipodi="http://sodipodi.sourceforge.net/DTD/sodipodi-0.dtd"
   xmlns:inkscape="http://www.inkscape.org/namespaces/inkscape"
   version="1.1"
   width="791.48602"
   height="791.50085"
   id="svg29062"
   viewBox="0 0 791.48603 791.50079"
   sodipodi:docname="A-42b.svg"
   inkscape:version="1.0.2 (e86c870879, 2021-01-15)">
  <metadata
     id="metadata29068">
    <rdf:RDF>
      <cc:Work
         rdf:about="">
        <dc:format>image/svg+xml</dc:format>
        <dc:type
           rdf:resource="http://purl.org/dc/dcmitype/StillImage" />
        <dc:title />
      </cc:Work>
    </rdf:RDF>
  </metadata>
  <defs
     id="defs29066" />
  <sodipodi:namedview
     pagecolor="#ffffff"
     bordercolor="#666666"
     borderopacity="1"
     objecttolerance="10"
     gridtolerance="10"
     guidetolerance="10"
     inkscape:pageopacity="0"
     inkscape:pageshadow="2"
     inkscape:window-width="1920"
     inkscape:window-height="1016"
     id="namedview29064"
     showgrid="false"
     inkscape:zoom="0.049253423"
     inkscape:cx="7024.1234"
     inkscape:cy="5205.6137"
     inkscape:window-x="0"
     inkscape:window-y="27"
     inkscape:window-maximized="1"
     inkscape:current-layer="svg29062"
     showguides="false"
     inkscape:document-rotation="0" />
  <g
     id="Layer1139"
     transform="matrix(65.957993,0,0,65.957993,-1293.7364,-8709.2962)">
    <path
       d="m 19.8775,137.4056 5.0996,-5.0995 c 0.3506,-0.3507 0.9243,-0.3507 1.2747,0 l 5.0998,5.0995 c 0.3504,0.3507 0.3504,0.9244 0,1.275 l -5.0998,5.0996 c -0.3504,0.3506 -0.9241,0.3506 -1.2747,0 l -5.0996,-5.0996 c -0.3506,-0.3506 -0.3506,-0.9243 0,-1.275 z"
       style="fill:#ffec00;fill-rule:evenodd"
       id="path28514" />
    <path
       d="m 19.98,137.5637 5.1551,-5.1552 c 0.132,-0.132 0.3058,-0.198 0.4795,-0.198 0.1737,0 0.3475,0.066 0.4795,0.198 l 5.1551,5.1552 c 0.132,0.1319 0.198,0.3057 0.198,0.4794 0,0.1737 -0.066,0.3475 -0.198,0.4795 l -5.1551,5.1552 c -0.132,0.1319 -0.3058,0.1979 -0.4795,0.1979 -0.1737,0 -0.3475,-0.066 -0.4795,-0.1979 L 19.98,138.5226 c -0.132,-0.132 -0.198,-0.3058 -0.198,-0.4795 0,-0.1737 0.066,-0.3475 0.198,-0.4794 z m 5.3463,-4.964 -5.1551,5.1552 c -0.0792,0.0791 -0.1188,0.1836 -0.1188,0.2882 0,0.1046 0.0396,0.2091 0.1188,0.2883 l 5.1551,5.1551 c 0.0792,0.0792 0.1837,0.1188 0.2883,0.1188 0.1046,0 0.2091,-0.0396 0.2882,-0.1188 l 5.1552,-5.1551 c 0.0792,-0.0792 0.1187,-0.1837 0.1187,-0.2883 0,-0.1046 -0.0395,-0.2091 -0.1187,-0.2882 l -5.1552,-5.1552 c -0.0791,-0.0791 -0.1836,-0.1187 -0.2882,-0.1187 -0.1046,0 -0.2091,0.0396 -0.2883,0.1187 z"
       style="fill:#000000;fill-rule:evenodd"
       id="path28516" />
    <g
       id="Layer1140">
      <path
         d="m 24.7296,139.9175 c 0,-0.4987 0.3861,-0.8996 0.8753,-0.8996 0.4333,0 0.8754,0.3957 0.8754,0.8024 v 1.7263 h -1.7507 z"
         style="fill:#000000;fill-rule:evenodd"
         id="path28518" />
      <path
         d="m 23.9224,137.9077 c 0.0132,-0.7271 0.1992,-1.0645 0.5385,-1.4914 0.3673,-0.4621 0.4819,-0.8452 0.4819,-1.6578 v -0.2188 h -0.851 v 0.5106 c 0,0.6575 -0.4021,0.881 -0.6451,1.3 -0.2103,0.3626 -0.3704,0.9795 -0.3759,1.5393 l -0.0067,-5e-4 -0.1072,0.002 -2e-4,0.005 -0.8701,-0.0233 1.3058,1.9835 1.4101,-1.9107 -0.7303,-0.0196 4e-4,-0.0136 c -0.0498,-0.001 -0.1004,-5e-4 -0.1502,-0.005 z"
         style="fill:#000000;fill-rule:evenodd"
         id="path28520" />
      <path
         d="m 27.155,136.5087 c 0.0132,0.7272 0.1992,1.0646 0.5385,1.4915 0.3672,0.462 0.4819,0.8451 0.4819,1.6578 v 0.2188 h -0.851 v -0.5106 c 0,-0.6575 -0.4021,-0.8811 -0.6451,-1.3 -0.2103,-0.3626 -0.3704,-0.9795 -0.376,-1.5393 l -0.0066,5e-4 -0.1072,-0.002 -2e-4,-0.005 -0.8701,0.0233 1.3058,-1.9835 1.4101,1.9107 -0.7303,0.0196 4e-4,0.0135 c -0.0498,0.001 -0.1004,6e-4 -0.1502,0.005 z"
         style="fill:#000000;fill-rule:evenodd"
         id="path28522" />
    </g>
  </g>
</svg>
