<?xml version="1.0" encoding="UTF-8" standalone="no"?>
<svg
   xmlns:dc="http://purl.org/dc/elements/1.1/"
   xmlns:cc="http://creativecommons.org/ns#"
   xmlns:rdf="http://www.w3.org/1999/02/22-rdf-syntax-ns#"
   xmlns:svg="http://www.w3.org/2000/svg"
   xmlns="http://www.w3.org/2000/svg"
   xmlns:sodipodi="http://sodipodi.sourceforge.net/DTD/sodipodi-0.dtd"
   xmlns:inkscape="http://www.inkscape.org/namespaces/inkscape"
   version="1.1"
   width="791.48602"
   height="791.49591"
   id="svg29062"
   viewBox="0 0 791.48603 791.49585"
   sodipodi:docname="A-42a.svg"
   inkscape:version="1.0.2 (e86c870879, 2021-01-15)">
  <metadata
     id="metadata29068">
    <rdf:RDF>
      <cc:Work
         rdf:about="">
        <dc:format>image/svg+xml</dc:format>
        <dc:type
           rdf:resource="http://purl.org/dc/dcmitype/StillImage" />
        <dc:title />
      </cc:Work>
    </rdf:RDF>
  </metadata>
  <defs
     id="defs29066" />
  <sodipodi:namedview
     pagecolor="#ffffff"
     bordercolor="#666666"
     borderopacity="1"
     objecttolerance="10"
     gridtolerance="10"
     guidetolerance="10"
     inkscape:pageopacity="0"
     inkscape:pageshadow="2"
     inkscape:window-width="1920"
     inkscape:window-height="1016"
     id="namedview29064"
     showgrid="false"
     inkscape:zoom="0.049253423"
     inkscape:cx="8110.0146"
     inkscape:cy="-2539.4675"
     inkscape:window-x="0"
     inkscape:window-y="27"
     inkscape:window-maximized="1"
     inkscape:current-layer="svg29062"
     showguides="false"
     inkscape:document-rotation="0" />
  <g
     id="Layer1137"
     transform="matrix(65.957993,0,0,65.957993,-207.84518,-8654.8924)">
    <path
       d="m 3.4142,136.5807 5.0995,-5.0995 c 0.3507,-0.3506 0.9244,-0.3506 1.2748,0 l 5.0998,5.0995 c 0.3503,0.3507 0.3503,0.9244 0,1.2751 l -5.0998,5.0995 c -0.3504,0.3506 -0.9241,0.3506 -1.2748,0 l -5.0995,-5.0995 c -0.3507,-0.3507 -0.3507,-0.9244 0,-1.2751 z"
       style="fill:#ffec00;fill-rule:evenodd"
       id="path28502" />
    <path
       d="m 3.5166,136.7388 5.1552,-5.1552 c 0.1319,-0.132 0.3057,-0.1979 0.4794,-0.1979 0.1737,0 0.3475,0.0659 0.4795,0.1979 l 5.1552,5.1552 c 0.1319,0.1319 0.1979,0.3057 0.1979,0.4794 0,0.1737 -0.066,0.3475 -0.1979,0.4795 l -5.1552,5.1552 c -0.132,0.132 -0.3058,0.1979 -0.4795,0.1979 -0.1737,0 -0.3475,-0.066 -0.4794,-0.1979 l -5.1552,-5.1552 c -0.132,-0.132 -0.1979,-0.3058 -0.1979,-0.4795 0,-0.1737 0.0659,-0.3475 0.1979,-0.4794 z m 5.3464,-4.964 -5.1552,5.1552 c -0.0791,0.0791 -0.1187,0.1836 -0.1187,0.2882 0,0.1047 0.0396,0.2092 0.1187,0.2883 l 5.1552,5.1552 c 0.0791,0.0791 0.1836,0.1187 0.2882,0.1187 0.1046,0 0.2092,-0.0396 0.2883,-0.1187 l 5.1552,-5.1552 c 0.0791,-0.0791 0.1187,-0.1836 0.1187,-0.2883 0,-0.1046 -0.0396,-0.2091 -0.1187,-0.2882 l -5.1552,-5.1552 c -0.0791,-0.0791 -0.1837,-0.1187 -0.2883,-0.1187 -0.1046,0 -0.2091,0.0396 -0.2882,0.1187 z"
       style="fill:#000000;fill-rule:evenodd"
       id="path28504" />
    <g
       id="Layer1138">
      <path
         d="m 8.3841,135.5717 c 0,0.4387 0.3395,0.7912 0.7698,0.7912 0.381,0 0.7697,-0.348 0.7697,-0.7056 v -1.5182 H 8.3841 Z"
         style="fill:#000000;fill-rule:evenodd"
         id="path28506" />
      <path
         d="m 10.6286,137.3354 c -0.0116,0.6395 -0.1752,0.9362 -0.4736,1.3116 -0.3229,0.4064 -0.4238,0.7433 -0.4238,1.4579 v 0.1925 h 0.7484 v -0.4491 c 0,-0.5782 0.3537,-0.7748 0.5674,-1.1432 0.1849,-0.3189 0.3257,-0.8614 0.3306,-1.3537 l 0.0058,5e-4 0.0943,-0.002 10e-5,-0.004 0.7652,0.0205 -1.1483,-1.7443 -1.2401,1.6803 0.6423,0.0172 -4e-4,0.0119 c 0.0438,0.001 0.0883,5e-4 0.1321,0.004 z"
         style="fill:#000000;fill-rule:evenodd"
         id="path28508" />
      <path
         d="m 7.7858,138.5658 c -0.0116,-0.6395 -0.1752,-0.9362 -0.4736,-1.3117 -0.323,-0.4063 -0.4238,-0.7432 -0.4238,-1.4579 v -0.1924 h 0.7484 v 0.449 c 0,0.5783 0.3536,0.7749 0.5674,1.1433 0.1849,0.3188 0.3257,0.8614 0.3305,1.3537 l 0.0059,-5e-4 0.0943,0.002 10e-5,0.005 0.7652,-0.0205 -1.1483,1.7443 -1.2401,-1.6803 0.6422,-0.0172 -3e-4,-0.012 c 0.0438,-0.001 0.0883,-4e-4 0.1321,-0.004 z"
         style="fill:#000000;fill-rule:evenodd"
         id="path28510" />
    </g>
  </g>
</svg>
