<?xml version="1.0" encoding="UTF-8" standalone="no"?>
<svg
   xmlns:dc="http://purl.org/dc/elements/1.1/"
   xmlns:cc="http://creativecommons.org/ns#"
   xmlns:rdf="http://www.w3.org/1999/02/22-rdf-syntax-ns#"
   xmlns:svg="http://www.w3.org/2000/svg"
   xmlns="http://www.w3.org/2000/svg"
   xmlns:sodipodi="http://sodipodi.sourceforge.net/DTD/sodipodi-0.dtd"
   xmlns:inkscape="http://www.inkscape.org/namespaces/inkscape"
   version="1.1"
   width="791.48602"
   height="791.49591"
   id="svg29062"
   viewBox="0 0 791.48603 791.49585"
   sodipodi:docname="A-43.svg"
   inkscape:version="1.0.2 (e86c870879, 2021-01-15)">
  <metadata
     id="metadata29068">
    <rdf:RDF>
      <cc:Work
         rdf:about="">
        <dc:format>image/svg+xml</dc:format>
        <dc:type
           rdf:resource="http://purl.org/dc/dcmitype/StillImage" />
        <dc:title />
      </cc:Work>
    </rdf:RDF>
  </metadata>
  <defs
     id="defs29066" />
  <sodipodi:namedview
     pagecolor="#ffffff"
     bordercolor="#666666"
     borderopacity="1"
     objecttolerance="10"
     gridtolerance="10"
     guidetolerance="10"
     inkscape:pageopacity="0"
     inkscape:pageshadow="2"
     inkscape:window-width="1920"
     inkscape:window-height="1016"
     id="namedview29064"
     showgrid="false"
     inkscape:zoom="0.049253423"
     inkscape:cx="5030.4508"
     inkscape:cy="-2132.6539"
     inkscape:window-x="0"
     inkscape:window-y="27"
     inkscape:window-maximized="1"
     inkscape:current-layer="svg29062"
     showguides="false"
     inkscape:document-rotation="0" />
  <g
     id="Layer1143"
     transform="matrix(65.957993,0,0,65.957993,-3287.409,-8654.8924)">
    <path
       d="m 50.1039,136.5807 5.0995,-5.0995 c 0.3507,-0.3506 0.9244,-0.3506 1.2748,0 l 5.0998,5.0995 c 0.3504,0.3507 0.3504,0.9244 0,1.2751 l -5.0998,5.0995 c -0.3504,0.3506 -0.9241,0.3506 -1.2748,0 l -5.0995,-5.0995 c -0.3506,-0.3507 -0.3506,-0.9244 0,-1.2751 z"
       style="fill:#ffec00;fill-rule:evenodd"
       id="path28538" />
    <path
       d="m 50.2063,136.7388 5.1552,-5.1552 c 0.132,-0.132 0.3058,-0.1979 0.4795,-0.1979 0.1737,0 0.3475,0.0659 0.4795,0.1979 l 5.1551,5.1552 c 0.132,0.1319 0.198,0.3057 0.198,0.4794 0,0.1737 -0.066,0.3475 -0.198,0.4795 l -5.1551,5.1552 c -0.132,0.132 -0.3058,0.1979 -0.4795,0.1979 -0.1737,0 -0.3475,-0.066 -0.4795,-0.1979 l -5.1552,-5.1552 c -0.1319,-0.132 -0.1979,-0.3058 -0.1979,-0.4795 0,-0.1737 0.066,-0.3475 0.1979,-0.4794 z m 5.3464,-4.964 -5.1551,5.1552 c -0.0792,0.0791 -0.1188,0.1836 -0.1188,0.2882 0,0.1047 0.0396,0.2092 0.1188,0.2883 l 5.1551,5.1552 c 0.0792,0.0791 0.1837,0.1187 0.2883,0.1187 0.1046,0 0.2091,-0.0396 0.2882,-0.1187 l 5.1552,-5.1552 c 0.0791,-0.0791 0.1187,-0.1836 0.1187,-0.2883 0,-0.1046 -0.0396,-0.2091 -0.1187,-0.2882 l -5.1552,-5.1552 c -0.0791,-0.0791 -0.1836,-0.1187 -0.2882,-0.1187 -0.1046,0 -0.2091,0.0396 -0.2883,0.1187 z"
       style="fill:#000000;fill-rule:evenodd"
       id="path28540" />
    <path
       d="m 55.3612,137.4463 1e-4,0.2408 0.1103,1.9842 c -0.1094,0.0573 -0.7862,0.3947 -0.7862,0.4798 v 0.2616 l 0.8938,-0.1104 2e-4,0.1976 h 0.5015 v -0.1962 l 0.9163,0.1053 -5e-4,-0.3015 -0.7834,-0.4389 0.1239,-2.2205 2.7309,0.5015 2e-4,-0.5678 c 0,-0.0901 -1.1549,-0.5709 -1.3154,-0.6472 -0.2928,-0.1392 -1.098,-0.5331 -1.3667,-0.5957 v -0.2399 c 0,-0.2953 -0.0789,-0.8575 -0.1358,-1.1289 -0.0558,-0.2668 -0.0869,-0.8336 -0.4093,-0.8336 -0.3398,0 -0.3686,0.6346 -0.4308,0.943 -0.077,0.3819 -0.1144,0.7876 -0.1144,1.2376 l -2.6765,1.2115 -0.0057,0.619 z"
       style="fill:#000000;fill-rule:evenodd"
       id="path28542" />
  </g>
</svg>
