<?xml version="1.0" encoding="UTF-8" standalone="no"?>
<svg
   xmlns:dc="http://purl.org/dc/elements/1.1/"
   xmlns:cc="http://creativecommons.org/ns#"
   xmlns:rdf="http://www.w3.org/1999/02/22-rdf-syntax-ns#"
   xmlns:svg="http://www.w3.org/2000/svg"
   xmlns="http://www.w3.org/2000/svg"
   xmlns:sodipodi="http://sodipodi.sourceforge.net/DTD/sodipodi-0.dtd"
   xmlns:inkscape="http://www.inkscape.org/namespaces/inkscape"
   version="1.1"
   width="791.48602"
   height="791.50085"
   id="svg29062"
   viewBox="0 0 791.48603 791.50079"
   sodipodi:docname="A-44.svg"
   inkscape:version="1.0.2 (e86c870879, 2021-01-15)">
  <metadata
     id="metadata29068">
    <rdf:RDF>
      <cc:Work
         rdf:about="">
        <dc:format>image/svg+xml</dc:format>
        <dc:type
           rdf:resource="http://purl.org/dc/dcmitype/StillImage" />
        <dc:title />
      </cc:Work>
    </rdf:RDF>
  </metadata>
  <defs
     id="defs29066" />
  <sodipodi:namedview
     pagecolor="#ffffff"
     bordercolor="#666666"
     borderopacity="1"
     objecttolerance="10"
     gridtolerance="10"
     guidetolerance="10"
     inkscape:pageopacity="0"
     inkscape:pageshadow="2"
     inkscape:window-width="1920"
     inkscape:window-height="1016"
     id="namedview29064"
     showgrid="false"
     inkscape:zoom="0.049253423"
     inkscape:cx="4082.3376"
     inkscape:cy="-2581.9642"
     inkscape:window-x="0"
     inkscape:window-y="27"
     inkscape:window-maximized="1"
     inkscape:current-layer="svg29062"
     showguides="false"
     inkscape:document-rotation="0" />
  <g
     id="Layer1144"
     transform="matrix(65.957993,0,0,65.957993,-4235.5222,-8697.3891)">
    <path
       d="m 64.4784,137.2251 5.0995,-5.0996 c 0.3507,-0.3506 0.9244,-0.3506 1.2748,0 l 5.0998,5.0996 c 0.3504,0.3506 0.3504,0.9243 0,1.275 l -5.0998,5.0995 c -0.3504,0.3507 -0.9241,0.3507 -1.2748,0 l -5.0995,-5.0995 c -0.3506,-0.3507 -0.3506,-0.9244 0,-1.275 z"
       style="fill:#ffec00;fill-rule:evenodd"
       id="path28545" />
    <path
       d="m 64.5808,137.3831 5.1552,-5.1552 c 0.132,-0.1319 0.3058,-0.1979 0.4795,-0.1979 0.1737,0 0.3475,0.066 0.4794,0.1979 l 5.1552,5.1552 c 0.132,0.132 0.198,0.3058 0.198,0.4795 0,0.1737 -0.066,0.3475 -0.198,0.4794 l -5.1552,5.1552 c -0.1319,0.132 -0.3057,0.198 -0.4794,0.198 -0.1737,0 -0.3475,-0.066 -0.4795,-0.198 l -5.1552,-5.1552 c -0.1319,-0.1319 -0.1979,-0.3057 -0.1979,-0.4794 0,-0.1737 0.066,-0.3475 0.1979,-0.4795 z m 5.3464,-4.964 -5.1552,5.1552 c -0.0791,0.0791 -0.1187,0.1837 -0.1187,0.2883 0,0.1046 0.0396,0.2091 0.1187,0.2882 l 5.1552,5.1552 c 0.0792,0.0791 0.1837,0.1187 0.2883,0.1187 0.1046,0 0.2091,-0.0396 0.2882,-0.1187 l 5.1552,-5.1552 c 0.0791,-0.0791 0.1187,-0.1836 0.1187,-0.2882 0,-0.1046 -0.0396,-0.2092 -0.1187,-0.2883 l -5.1552,-5.1552 c -0.0791,-0.0791 -0.1836,-0.1187 -0.2882,-0.1187 -0.1046,0 -0.2091,0.0396 -0.2883,0.1187 z"
       style="fill:#000000;fill-rule:evenodd"
       id="path28547" />
    <g
       id="Layer1145">
      <path
         d="m 67.2675,136.4833 c 0,-0.1564 0.0985,-0.3294 0.2471,-0.3294 h 0.0617 c -0.0101,0.1212 -0.0412,0.0429 -0.0412,0.1235 0,0.0482 0.0062,0.0533 0.0206,0.0823 -0.0558,0.1055 -0.1029,0.1416 -0.1029,0.3088 0,0.0556 0.0098,0.0568 0.0206,0.103 -0.12,-0.0321 -0.2059,-0.1347 -0.2059,-0.2882 z m 0.5147,-0.5765 c 0,-0.5713 0.2548,-0.7617 0.8235,-0.7617 h 0.1646 l 0.8644,0.0651 c -0.1814,-0.1612 -0.6307,-0.3533 -0.9673,-0.3533 h -0.3088 c -0.4202,0 -0.7823,0.3642 -0.7823,0.7823 v 0.3912 h -0.1235 c -0.1927,0 -0.3911,0.2303 -0.3911,0.4323 v 0.0411 c 0,0.2712 0.1922,0.4842 0.4117,0.5353 v 1.0705 c 0,1.0016 0.2081,1.6231 0.3911,2.4086 -0.0722,0.1079 -0.1852,0.146 -0.1852,0.3294 0.0461,0.0108 0.0473,0.0206 0.1029,0.0206 h 2.2233 c 0.057,0 0.0496,-0.0159 0.0618,-0.0618 -0.1175,-0.0273 -0.2443,-0.1189 -0.3954,-0.1604 -0.1497,-0.0411 -0.2754,-0.0932 -0.448,-0.1078 -0.3368,-0.0286 -0.63,-0.0817 -1.03,-0.0817 -0.0381,-0.1636 -0.1551,-0.4197 -0.2177,-0.6058 -0.073,-0.2173 -0.1094,-0.4044 -0.1578,-0.6451 -0.0738,-0.367 -0.1599,-1.0089 -0.1391,-1.4666 l 0.0258,-0.6585 0.1388,-2e-4 c 0.2108,0 0.3258,-0.1236 0.4324,-0.1236 h 0.0411 c 0.2293,0 0.3567,0.1442 0.6382,0.1442 h 0.0824 c 0.2633,0 0.696,-0.2222 0.7411,-0.3912 h -0.7617 c -0.3818,0 -1.0423,-0.1085 -1.0499,-0.4529 0.0737,-0.0172 0.0967,-0.0412 0.1852,-0.0412 h 0.1236 c 0.2458,0 0.7088,0.2557 1.0499,0.2059 l 0.7655,-0.0975 -0.0038,-0.026 c -0.6637,0 -0.8938,-0.3088 -1.6058,-0.3088 h -0.1235 l -0.3497,0.0242 c 0.0826,-0.1273 0.305,-0.3536 0.4938,-0.3536 h 0.103 c 0.219,0 0.428,0.1309 0.6095,0.1934 0.2394,0.0824 0.4002,0.0742 0.708,0.0742 -0.0369,-0.0504 -0.2076,-0.1292 -0.28,-0.1729 -0.1102,-0.0664 -0.1465,-0.1347 -0.2554,-0.1975 -0.1233,-0.0712 -0.5097,-0.206 -0.6998,-0.206 h -0.0823 c -0.4369,0 -0.6258,0.3283 -0.8235,0.5558 z"
         style="fill:#000000;fill-rule:evenodd"
         id="path28549" />
      <path
         d="m 69.8756,135.1931 h 1.2237 c 0.0222,0 0.0404,-0.0114 0.0404,-0.0253 v -0.0505 c 0,-0.0139 -0.0182,-0.0253 -0.0404,-0.0253 h -1.2237 c -0.0223,0 -0.0404,0.0114 -0.0404,0.0253 v 0.0505 c 0,0.0139 0.0181,0.0253 0.0404,0.0253 z"
         style="fill:#000000;fill-rule:evenodd;stroke:#1b1918;stroke-width:0.5669;stroke-linecap:butt;stroke-linejoin:miter;stroke-dasharray:none"
         id="path28551" />
      <path
         d="m 70.1085,135.8194 h 1.7679 c 0.0321,0 0.0584,-0.0114 0.0584,-0.0253 v -0.0505 c 0,-0.0139 -0.0263,-0.0253 -0.0584,-0.0253 h -1.7679 c -0.0321,0 -0.0584,0.0114 -0.0584,0.0253 v 0.0505 c 0,0.0139 0.0263,0.0253 0.0584,0.0253 z"
         style="fill:#000000;fill-rule:evenodd;stroke:#1b1918;stroke-width:0.5669;stroke-linecap:butt;stroke-linejoin:miter;stroke-dasharray:none"
         id="path28553" />
      <path
         d="m 70.3002,136.4255 h 2.2864 c 0.0415,0 0.0755,-0.0114 0.0755,-0.0253 v -0.0505 c 0,-0.0139 -0.034,-0.0252 -0.0755,-0.0252 h -2.2864 c -0.0415,0 -0.0755,0.0113 -0.0755,0.0252 v 0.0505 c 0,0.0139 0.034,0.0253 0.0755,0.0253 z"
         style="fill:#000000;fill-rule:evenodd;stroke:#1b1918;stroke-width:0.5669;stroke-linecap:butt;stroke-linejoin:miter;stroke-dasharray:none"
         id="path28555" />
      <path
         d="m 70.1032,136.8295 h 3.1616 c 0.0575,0 0.1044,-0.0113 0.1044,-0.0252 v -0.0505 c 0,-0.0139 -0.0469,-0.0253 -0.1044,-0.0253 h -3.1616 c -0.0574,0 -0.1044,0.0114 -0.1044,0.0253 v 0.0505 c 0,0.0139 0.047,0.0252 0.1044,0.0252 z"
         style="fill:#000000;fill-rule:evenodd;stroke:#1b1918;stroke-width:0.5669;stroke-linecap:butt;stroke-linejoin:miter;stroke-dasharray:none"
         id="path28557" />
    </g>
  </g>
</svg>
