<?xml version="1.0" encoding="UTF-8" standalone="no"?>
<svg
   xmlns:dc="http://purl.org/dc/elements/1.1/"
   xmlns:cc="http://creativecommons.org/ns#"
   xmlns:rdf="http://www.w3.org/1999/02/22-rdf-syntax-ns#"
   xmlns:svg="http://www.w3.org/2000/svg"
   xmlns="http://www.w3.org/2000/svg"
   xmlns:sodipodi="http://sodipodi.sourceforge.net/DTD/sodipodi-0.dtd"
   xmlns:inkscape="http://www.inkscape.org/namespaces/inkscape"
   version="1.1"
   width="791.48602"
   height="791.49591"
   id="svg29062"
   viewBox="0 0 791.48603 791.49585"
   sodipodi:docname="A-45.svg"
   inkscape:version="1.0.2 (e86c870879, 2021-01-15)">
  <metadata
     id="metadata29068">
    <rdf:RDF>
      <cc:Work
         rdf:about="">
        <dc:format>image/svg+xml</dc:format>
        <dc:type
           rdf:resource="http://purl.org/dc/dcmitype/StillImage" />
        <dc:title />
      </cc:Work>
    </rdf:RDF>
  </metadata>
  <defs
     id="defs29066" />
  <sodipodi:namedview
     pagecolor="#ffffff"
     bordercolor="#666666"
     borderopacity="1"
     objecttolerance="10"
     gridtolerance="10"
     guidetolerance="10"
     inkscape:pageopacity="0"
     inkscape:pageshadow="2"
     inkscape:window-width="1920"
     inkscape:window-height="1016"
     id="namedview29064"
     showgrid="false"
     inkscape:zoom="0.049253423"
     inkscape:cx="3134.2096"
     inkscape:cy="-2044.0342"
     inkscape:window-x="0"
     inkscape:window-y="27"
     inkscape:window-maximized="1"
     inkscape:current-layer="svg29062"
     showguides="false"
     inkscape:document-rotation="0" />
  <g
     id="Layer1146"
     transform="matrix(65.957993,0,0,65.957993,-5183.6502,-8538.6546)">
    <path
       d="m 78.8532,134.8184 5.0995,-5.0995 c 0.3507,-0.3506 0.9244,-0.3506 1.2747,0 l 5.0999,5.0995 c 0.3503,0.3507 0.3503,0.9244 0,1.2751 l -5.0999,5.0995 c -0.3503,0.3506 -0.924,0.3506 -1.2747,0 l -5.0995,-5.0995 c -0.3507,-0.3507 -0.3507,-0.9244 0,-1.2751 z"
       style="fill:#ffec00;fill-rule:evenodd"
       id="path28561" />
    <path
       d="m 78.9556,134.9765 5.1552,-5.1552 c 0.1319,-0.132 0.3057,-0.1979 0.4794,-0.1979 0.1737,0 0.3475,0.0659 0.4795,0.1979 l 5.1552,5.1552 c 0.1319,0.1319 0.1979,0.3057 0.1979,0.4794 0,0.1737 -0.066,0.3475 -0.1979,0.4795 l -5.1552,5.1552 c -0.132,0.132 -0.3058,0.1979 -0.4795,0.1979 -0.1737,0 -0.3475,-0.066 -0.4794,-0.1979 l -5.1552,-5.1552 c -0.132,-0.132 -0.198,-0.3058 -0.198,-0.4795 0,-0.1737 0.066,-0.3475 0.198,-0.4794 z m 5.3464,-4.964 -5.1552,5.1552 c -0.0791,0.0791 -0.1187,0.1836 -0.1187,0.2882 0,0.1047 0.0396,0.2092 0.1187,0.2883 l 5.1552,5.1552 c 0.0791,0.0791 0.1836,0.1187 0.2882,0.1187 0.1046,0 0.2091,-0.0396 0.2883,-0.1187 l 5.1552,-5.1552 c 0.0791,-0.0791 0.1187,-0.1836 0.1187,-0.2883 0,-0.1046 -0.0396,-0.2091 -0.1187,-0.2882 l -5.1552,-5.1552 c -0.0792,-0.0791 -0.1837,-0.1187 -0.2883,-0.1187 -0.1046,0 -0.2091,0.0396 -0.2882,0.1187 z"
       style="fill:#000000;fill-rule:evenodd"
       id="path28563" />
    <path
       d="m 82.7891,133.4887 -3e-4,-1.4454 h 0.5559 c 0.1394,0 0.2409,0.0131 0.3044,0.0389 0.0635,0.026 0.114,0.072 0.152,0.1383 0.0382,0.0666 0.0572,0.1423 0.0572,0.2279 0,0.1086 -0.0286,0.1981 -0.0862,0.2687 -0.0572,0.0706 -0.1431,0.1151 -0.2573,0.1335 0.0566,0.0369 0.1037,0.0771 0.1403,0.1214 0.0371,0.0439 0.087,0.1224 0.1496,0.2347 l 0.1593,0.282 h -0.3149 l -0.1896,-0.3155 c -0.0675,-0.1122 -0.1143,-0.1828 -0.1395,-0.212 -0.0249,-0.0289 -0.0513,-0.0493 -0.0794,-0.0601 -0.0283,-0.0105 -0.0725,-0.0159 -0.1335,-0.0159 h -0.0535 l 2e-4,0.6035 z m 0.2645,-0.8337 h 0.1953 c 0.1264,0 0.2052,-0.006 0.2367,-0.0178 0.0314,-0.0119 0.0564,-0.0323 0.0742,-0.0612 0.0179,-0.029 0.0267,-0.0655 0.0264,-0.1089 0,-0.0488 -0.0116,-0.0879 -0.0349,-0.1179 -0.0238,-0.0301 -0.0567,-0.0488 -0.0992,-0.0567 -0.0218,-0.003 -0.0859,-0.005 -0.1927,-0.005 h -0.2058 z m 1.053,-0.6117 h 0.2648 v 0.7832 c 3e-4,0.1245 0.0034,0.205 0.0099,0.2415 0.0111,0.0593 0.0377,0.1072 0.0797,0.1429 0.0422,0.036 0.0997,0.0536 0.1726,0.0536 0.074,0 0.1301,-0.0167 0.1678,-0.0508 0.0374,-0.034 0.0601,-0.0754 0.0677,-0.1247 0.0074,-0.0496 0.0117,-0.1312 0.0117,-0.2457 l -3e-4,-0.8 h 0.2645 l 2e-4,0.76 c 0,0.1738 -0.007,0.2965 -0.0212,0.3682 -0.0145,0.0714 -0.0406,0.1321 -0.0788,0.1817 -0.038,0.0493 -0.089,0.0885 -0.1528,0.1177 -0.0644,0.0291 -0.1477,0.0442 -0.2506,0.0442 -0.1247,0 -0.2188,-0.0159 -0.2829,-0.0479 -0.0643,-0.0321 -0.1151,-0.0735 -0.1525,-0.1245 -0.0374,-0.0513 -0.0618,-0.1043 -0.0737,-0.1604 -0.0173,-0.0828 -0.0258,-0.2052 -0.0258,-0.3671 z m 2.4954,1.4454 h -0.2852 l -0.1128,-0.3291 h -0.5241 l -0.1086,0.3291 h -0.2798 l 0.5071,-1.4454 h 0.2795 z m -0.4839,-0.5734 -0.1814,-0.5349 -0.1766,0.5349 z m -3.3982,2.3607 0.2571,-0.0284 c 0.0159,0.0953 0.0468,0.165 0.0939,0.2095 0.0473,0.0448 0.1108,0.0672 0.1907,0.0672 0.0845,0 0.1486,-0.0199 0.1914,-0.0596 0.0428,-0.0396 0.0646,-0.0861 0.0646,-0.1394 0,-0.0343 -0.0094,-0.0632 -0.0272,-0.0873 -0.0179,-0.0241 -0.0496,-0.0448 -0.0947,-0.0624 -0.0306,-0.0122 -0.1006,-0.0329 -0.21,-0.0632 -0.1409,-0.0391 -0.2399,-0.0867 -0.2968,-0.1437 -0.08,-0.0797 -0.1197,-0.1769 -0.1197,-0.2917 0,-0.0737 0.0188,-0.1432 0.0562,-0.2072 0.0377,-0.0644 0.0918,-0.1131 0.1627,-0.1469 0.0708,-0.0337 0.1559,-0.0504 0.2565,-0.0504 0.163,0 0.2863,0.04 0.3688,0.1205 0.0828,0.0805 0.1259,0.1873 0.1304,0.3217 l -0.2648,0.01 c -0.0113,-0.0745 -0.0354,-0.1281 -0.072,-0.1607 -0.0368,-0.0326 -0.0924,-0.049 -0.1658,-0.049 -0.0762,0 -0.1358,0.0172 -0.1786,0.0524 -0.0277,0.0224 -0.0416,0.0524 -0.0416,0.0901 0,0.0343 0.013,0.0635 0.0394,0.0879 0.0331,0.0312 0.1133,0.0635 0.2415,0.0972 0.1281,0.0332 0.2228,0.0684 0.284,0.1041 0.0612,0.036 0.1094,0.0847 0.144,0.1468 0.0349,0.0624 0.0522,0.1392 0.0522,0.2302 0,0.0827 -0.0204,0.1604 -0.0624,0.233 -0.0417,0.0723 -0.1003,0.1261 -0.1766,0.161 -0.0757,0.0354 -0.1706,0.053 -0.284,0.053 -0.1653,0 -0.2923,-0.0422 -0.3804,-0.1267 -0.0888,-0.0839 -0.1415,-0.2069 -0.1588,-0.3679 z m 1.2867,0.4682 -3e-4,-1.4453 h 0.9674 v 0.244 H 84.271 v 0.3212 h 0.6531 l 3e-4,0.2443 H 84.271 l 3e-4,0.3915 h 0.728 v 0.2443 z m 1.2135,0 -3e-4,-1.4453 h 0.3963 l 0.2344,0.9858 0.2313,-0.9858 h 0.3974 v 1.4453 h -0.2446 l -9e-4,-1.1378 -0.2573,1.1378 h -0.2546 l -0.2562,-1.1378 -9e-4,1.1378 z m -3.5141,1.7876 0.2574,-0.0284 c 0.0155,0.0953 0.0464,0.165 0.0935,0.2095 0.0473,0.0448 0.1108,0.0672 0.1908,0.0672 0.0844,0 0.1485,-0.0199 0.1913,-0.0595 0.0428,-0.0397 0.0646,-0.0862 0.0646,-0.1395 0,-0.0343 -0.0093,-0.0632 -0.0272,-0.0873 -0.0178,-0.0241 -0.0496,-0.0448 -0.0944,-0.0624 -0.0309,-0.0122 -0.1009,-0.0329 -0.2103,-0.0632 -0.1409,-0.0391 -0.2398,-0.0867 -0.2968,-0.1437 -0.0799,-0.0797 -0.1196,-0.1769 -0.1196,-0.2917 0,-0.0737 0.0187,-0.1431 0.0561,-0.2072 0.0377,-0.0644 0.0919,-0.1131 0.1627,-0.1468 0.0709,-0.0338 0.1559,-0.0505 0.2566,-0.0505 0.1632,0 0.2863,0.04 0.369,0.1205 0.0828,0.0805 0.1259,0.1873 0.1301,0.3217 l -0.2647,0.01 c -0.0114,-0.0745 -0.0354,-0.1281 -0.072,-0.1607 -0.0369,-0.0326 -0.0921,-0.049 -0.1658,-0.049 -0.076,0 -0.1358,0.0173 -0.1786,0.0524 -0.0278,0.0224 -0.0417,0.0524 -0.0417,0.0901 0,0.0343 0.013,0.0635 0.0394,0.0879 0.0332,0.0312 0.1137,0.0635 0.2418,0.0972 0.1281,0.0332 0.2225,0.0684 0.2838,0.1041 0.0612,0.036 0.1094,0.0847 0.144,0.1468 0.0348,0.0624 0.0521,0.1392 0.0521,0.2302 0,0.0828 -0.0204,0.1604 -0.0624,0.233 -0.0416,0.0723 -0.1003,0.1261 -0.1763,0.161 -0.0759,0.0354 -0.1709,0.053 -0.2843,0.053 -0.1652,0 -0.292,-0.0422 -0.3804,-0.1267 -0.0887,-0.0839 -0.1412,-0.2069 -0.1587,-0.3679 z M 84.1698,138 h -0.2851 l -0.1128,-0.3291 H 83.2477 L 83.1392,138 h -0.2798 l 0.5071,-1.4453 h 0.2795 z m -0.4838,-0.5734 -0.1814,-0.5349 -0.1766,0.5349 z m 0.6154,0.5734 -3e-4,-1.4453 h 0.2647 V 138 Z m -0.0423,-1.5766 0.1242,-0.2948 h 0.2789 l -0.246,0.2948 z m 0.5582,0.1313 h 0.4813 c 0.1086,0 0.1913,0.009 0.248,0.0275 0.0766,0.0249 0.1423,0.0694 0.1968,0.1332 0.0547,0.0635 0.096,0.1417 0.1247,0.2341 0.028,0.0922 0.0425,0.2064 0.0425,0.3416 0,0.1191 -0.0133,0.2214 -0.0403,0.3076 -0.0323,0.1051 -0.0788,0.1904 -0.1394,0.2554 -0.0457,0.0493 -0.1075,0.0878 -0.1848,0.1153 C 85.488,137.9898 85.4103,138 85.3131,138 h -0.4955 z m 0.2647,0.244 3e-4,0.957 h 0.1959 c 0.0734,0 0.1264,-0.004 0.159,-0.0136 0.0428,-0.0119 0.0782,-0.032 0.106,-0.0604 0.0284,-0.0283 0.0513,-0.0745 0.0686,-0.1392 0.0182,-0.0646 0.027,-0.153 0.027,-0.2647 0,-0.112 -0.0091,-0.1973 -0.027,-0.2571 -0.0173,-0.0601 -0.0425,-0.1063 -0.0742,-0.1401 -0.0321,-0.0334 -0.0726,-0.0561 -0.1219,-0.068 -0.0366,-0.009 -0.1086,-0.0139 -0.2157,-0.0139 z M 87.3126,138 h -0.2852 l -0.1128,-0.3291 H 86.3908 L 86.2819,138 h -0.2797 l 0.5071,-1.4453 h 0.2798 z m -0.4839,-0.5734 -0.1814,-0.5349 -0.1766,0.5349 z"
       style="fill:#000000;fill-rule:evenodd"
       id="path28565" />
  </g>
</svg>
