<?xml version="1.0" encoding="UTF-8" standalone="no"?>
<svg
   xmlns:dc="http://purl.org/dc/elements/1.1/"
   xmlns:cc="http://creativecommons.org/ns#"
   xmlns:rdf="http://www.w3.org/1999/02/22-rdf-syntax-ns#"
   xmlns:svg="http://www.w3.org/2000/svg"
   xmlns="http://www.w3.org/2000/svg"
   xmlns:sodipodi="http://sodipodi.sourceforge.net/DTD/sodipodi-0.dtd"
   xmlns:inkscape="http://www.inkscape.org/namespaces/inkscape"
   version="1.1"
   width="791.48602"
   height="791.49591"
   id="svg29062"
   viewBox="0 0 791.48603 791.49585"
   sodipodi:docname="A-46.svg"
   inkscape:version="1.0.2 (e86c870879, 2021-01-15)">
  <metadata
     id="metadata29068">
    <rdf:RDF>
      <cc:Work
         rdf:about="">
        <dc:format>image/svg+xml</dc:format>
        <dc:type
           rdf:resource="http://purl.org/dc/dcmitype/StillImage" />
        <dc:title />
      </cc:Work>
    </rdf:RDF>
  </metadata>
  <defs
     id="defs29066" />
  <sodipodi:namedview
     pagecolor="#ffffff"
     bordercolor="#666666"
     borderopacity="1"
     objecttolerance="10"
     gridtolerance="10"
     guidetolerance="10"
     inkscape:pageopacity="0"
     inkscape:pageshadow="2"
     inkscape:window-width="1920"
     inkscape:window-height="1016"
     id="namedview29064"
     showgrid="false"
     inkscape:zoom="0.049253423"
     inkscape:cx="2251.535"
     inkscape:cy="-2424.9315"
     inkscape:window-x="0"
     inkscape:window-y="27"
     inkscape:window-maximized="1"
     inkscape:current-layer="svg29062"
     showguides="false"
     inkscape:document-rotation="0" />
  <g
     id="Layer1147"
     transform="matrix(65.957993,0,0,65.957993,-6066.3248,-8540.3564)">
    <path
       d="m 92.2355,134.8442 5.0996,-5.0995 c 0.3506,-0.3506 0.9243,-0.3506 1.2747,0 l 5.0998,5.0995 c 0.3504,0.3507 0.3504,0.9244 0,1.2751 l -5.0998,5.0995 c -0.3504,0.3506 -0.9241,0.3506 -1.2747,0 l -5.0996,-5.0995 c -0.3506,-0.3507 -0.3506,-0.9244 0,-1.2751 z"
       style="fill:#ffec00;fill-rule:evenodd"
       id="path28568" />
    <path
       d="m 92.338,135.0023 5.1551,-5.1552 c 0.132,-0.132 0.3058,-0.198 0.4795,-0.198 0.1737,0 0.3475,0.066 0.4795,0.198 l 5.1551,5.1552 c 0.132,0.1319 0.198,0.3057 0.198,0.4794 0,0.1737 -0.066,0.3475 -0.198,0.4795 l -5.1551,5.1552 c -0.132,0.1319 -0.3058,0.1979 -0.4795,0.1979 -0.1737,0 -0.3475,-0.066 -0.4795,-0.1979 l -5.1551,-5.1552 c -0.132,-0.132 -0.198,-0.3058 -0.198,-0.4795 0,-0.1737 0.066,-0.3475 0.198,-0.4794 z m 5.3463,-4.964 -5.1551,5.1552 c -0.0792,0.0791 -0.1188,0.1836 -0.1188,0.2882 0,0.1046 0.0396,0.2092 0.1188,0.2883 l 5.1551,5.1552 c 0.0792,0.0791 0.1837,0.1187 0.2883,0.1187 0.1046,0 0.2091,-0.0396 0.2883,-0.1187 l 5.1551,-5.1552 c 0.0792,-0.0791 0.1187,-0.1837 0.1187,-0.2883 0,-0.1046 -0.0395,-0.2091 -0.1187,-0.2882 l -5.1551,-5.1552 c -0.0792,-0.0791 -0.1837,-0.1187 -0.2883,-0.1187 -0.1046,0 -0.2091,0.0396 -0.2883,0.1187 z"
       style="fill:#000000;fill-rule:evenodd"
       id="path28570" />
    <path
       d="m 96.3129,136.2876 h -0.4533 v -1.7149 c -0.1655,0.1556 -0.3605,0.2707 -0.5856,0.3452 v -0.4135 c 0.1185,-0.0386 0.2472,-0.112 0.3855,-0.2206 0.1389,-0.1083 0.2339,-0.2344 0.2857,-0.3784 h 0.3677 z m 1.4482,-2.3822 c 0.2293,0 0.4085,0.0822 0.5383,0.2466 0.1537,0.1939 0.231,0.5168 0.231,0.9666 0,0.4493 -0.0779,0.7725 -0.2327,0.9689 -0.1284,0.1622 -0.3073,0.2432 -0.5366,0.2432 -0.2304,0 -0.4164,-0.0887 -0.5576,-0.2664 -0.1411,-0.1775 -0.2117,-0.4947 -0.2117,-0.9502 0,-0.447 0.0779,-0.769 0.2327,-0.9655 0.1284,-0.1621 0.3073,-0.2432 0.5366,-0.2432 z m 0,0.3773 c -0.0541,0 -0.1026,0.0176 -0.1445,0.053 -0.0426,0.0346 -0.0755,0.0975 -0.0987,0.1885 -0.0309,0.1174 -0.0462,0.3161 -0.0462,0.5944 0,0.279 0.0136,0.4703 0.0414,0.5746 0.0275,0.1043 0.0621,0.1738 0.104,0.2084 0.042,0.0348 0.0899,0.0518 0.144,0.0518 0.0542,0 0.1026,-0.0175 0.1452,-0.053 0.0416,-0.0346 0.0748,-0.0975 0.098,-0.1885 0.0309,-0.1162 0.0462,-0.3143 0.0462,-0.5933 0,-0.2783 -0.0136,-0.47 -0.0414,-0.574 -0.0274,-0.1043 -0.062,-0.1743 -0.104,-0.2089 -0.0419,-0.0354 -0.0898,-0.053 -0.144,-0.053 z m 2.8738,0.2877 v 0.3606 h -0.3113 v 0.6956 c 0,0.1412 0.003,0.2231 0.009,0.2463 0.006,0.0233 0.0193,0.0425 0.0408,0.0579 0.0207,0.015 0.0462,0.0226 0.0766,0.0226 0.0425,0 0.1031,-0.0141 0.1831,-0.0436 l 0.038,0.3529 c -0.1055,0.0453 -0.2245,0.068 -0.3578,0.068 -0.0816,0 -0.155,-0.0139 -0.2208,-0.0414 -0.0655,-0.0275 -0.1134,-0.0635 -0.1437,-0.1071 -0.0309,-0.0439 -0.0519,-0.1029 -0.0641,-0.178 -0.0093,-0.053 -0.0144,-0.1599 -0.0144,-0.3215 V 134.931 H 99.662 v -0.3606 h 0.2084 v -0.3407 l 0.4532,-0.2679 v 0.6086 z"
       style="fill:#000000;fill-rule:evenodd"
       id="path28572" />
    <path
       d="m 96.0683,136.9105 1.9043,1.9043 1.9043,-1.9043 z"
       style="fill:#000000;fill-rule:evenodd"
       id="path28574" />
  </g>
</svg>
