<?xml version="1.0" encoding="UTF-8" standalone="no"?>
<svg
   xmlns:dc="http://purl.org/dc/elements/1.1/"
   xmlns:cc="http://creativecommons.org/ns#"
   xmlns:rdf="http://www.w3.org/1999/02/22-rdf-syntax-ns#"
   xmlns:svg="http://www.w3.org/2000/svg"
   xmlns="http://www.w3.org/2000/svg"
   xmlns:sodipodi="http://sodipodi.sourceforge.net/DTD/sodipodi-0.dtd"
   xmlns:inkscape="http://www.inkscape.org/namespaces/inkscape"
   version="1.1"
   width="791.48602"
   height="791.49591"
   id="svg29062"
   viewBox="0 0 791.48603 791.49585"
   sodipodi:docname="A-47.svg"
   inkscape:version="1.0.2 (e86c870879, 2021-01-15)">
  <metadata
     id="metadata29068">
    <rdf:RDF>
      <cc:Work
         rdf:about="">
        <dc:format>image/svg+xml</dc:format>
        <dc:type
           rdf:resource="http://purl.org/dc/dcmitype/StillImage" />
        <dc:title />
      </cc:Work>
    </rdf:RDF>
  </metadata>
  <defs
     id="defs29066" />
  <sodipodi:namedview
     pagecolor="#ffffff"
     bordercolor="#666666"
     borderopacity="1"
     objecttolerance="10"
     gridtolerance="10"
     guidetolerance="10"
     inkscape:pageopacity="0"
     inkscape:pageshadow="2"
     inkscape:window-width="1920"
     inkscape:window-height="1016"
     id="namedview29064"
     showgrid="false"
     inkscape:zoom="0.049253423"
     inkscape:cx="1314.323"
     inkscape:cy="-2917.3088"
     inkscape:window-x="0"
     inkscape:window-y="27"
     inkscape:window-maximized="1"
     inkscape:current-layer="svg29062"
     showguides="false"
     inkscape:document-rotation="0" />
  <g
     id="Layer1148"
     transform="matrix(65.957993,0,0,65.957993,-7003.5368,-8575.9737)">
    <path
       d="m 106.4448,135.3842 5.0995,-5.0995 c 0.3506,-0.3506 0.9244,-0.3506 1.2747,0 l 5.0999,5.0995 c 0.3503,0.3507 0.3503,0.9244 0,1.2751 l -5.0999,5.0995 c -0.3503,0.3506 -0.9241,0.3506 -1.2747,0 l -5.0995,-5.0995 c -0.3507,-0.3507 -0.3507,-0.9244 0,-1.2751 z"
       style="fill:#ffec00;fill-rule:evenodd"
       id="path28577" />
    <path
       d="m 106.5472,135.5423 5.1551,-5.1552 c 0.132,-0.132 0.3058,-0.198 0.4795,-0.198 0.1737,0 0.3475,0.066 0.4795,0.198 l 5.1552,5.1552 c 0.1319,0.1319 0.1979,0.3057 0.1979,0.4794 0,0.1737 -0.066,0.3475 -0.1979,0.4795 l -5.1552,5.1552 c -0.132,0.1319 -0.3058,0.1979 -0.4795,0.1979 -0.1737,0 -0.3475,-0.066 -0.4795,-0.1979 l -5.1551,-5.1552 c -0.132,-0.132 -0.198,-0.3058 -0.198,-0.4795 0,-0.1737 0.066,-0.3475 0.198,-0.4794 z m 5.3464,-4.964 -5.1552,5.1552 c -0.0791,0.0791 -0.1187,0.1836 -0.1187,0.2882 0,0.1046 0.0396,0.2092 0.1187,0.2883 l 5.1552,5.1552 c 0.0791,0.0791 0.1836,0.1187 0.2882,0.1187 0.1046,0 0.2091,-0.0396 0.2883,-0.1187 l 5.1551,-5.1552 c 0.0792,-0.0791 0.1188,-0.1837 0.1188,-0.2883 0,-0.1046 -0.0396,-0.2091 -0.1188,-0.2882 l -5.1551,-5.1552 c -0.0792,-0.0791 -0.1837,-0.1187 -0.2883,-0.1187 -0.1046,0 -0.2091,0.0396 -0.2882,0.1187 z"
       style="fill:#000000;fill-rule:evenodd"
       id="path28579" />
    <g
       id="Layer1149">
      <path
         d="m 111.9769,134.7759 v 0.311 h -1.1778 c 0.0127,-0.1185 0.051,-0.2302 0.1148,-0.3359 0.0635,-0.1058 0.1896,-0.2461 0.3773,-0.4213 0.1516,-0.1411 0.244,-0.2369 0.2783,-0.2874 0.0462,-0.0692 0.0695,-0.1377 0.0695,-0.2061 0,-0.0751 -0.0199,-0.1326 -0.0604,-0.1729 -0.04,-0.0405 -0.0955,-0.0604 -0.1661,-0.0604 -0.0703,0 -0.1256,0.0213 -0.1673,0.0635 -0.0413,0.0423 -0.0649,0.1123 -0.0714,0.2107 l -0.3356,-0.0335 c 0.0201,-0.1851 0.0825,-0.3183 0.1879,-0.3991 0.1052,-0.0805 0.2367,-0.1208 0.3946,-0.1208 0.1729,0 0.309,0.0471 0.4082,0.1403 0.0986,0.0936 0.148,0.2098 0.148,0.349 0,0.0794 -0.0142,0.1545 -0.0423,0.2262 -0.0283,0.0714 -0.0731,0.146 -0.1349,0.2245 -0.0403,0.0522 -0.1142,0.127 -0.2203,0.2245 -0.1065,0.0975 -0.1737,0.1619 -0.2021,0.1942 -0.0286,0.0317 -0.0513,0.0632 -0.0688,0.0935 z m 1.5599,-0.9601 v 0.2671 h -0.2302 v 0.5147 c 0,0.1043 0.002,0.1653 0.007,0.1823 0.005,0.0173 0.0145,0.0315 0.0303,0.0428 0.0156,0.011 0.0343,0.0167 0.0567,0.0167 0.0315,0 0.0763,-0.0105 0.1355,-0.032 l 0.0281,0.2611 c -0.078,0.0334 -0.1661,0.0501 -0.2648,0.0501 -0.0603,0 -0.1148,-0.0102 -0.1632,-0.0306 -0.0485,-0.0204 -0.0842,-0.0468 -0.1066,-0.0791 -0.0227,-0.0326 -0.0383,-0.0762 -0.0474,-0.1318 -0.007,-0.0391 -0.0104,-0.1185 -0.0104,-0.2378 v -0.5564 h -0.1542 v -0.2671 h 0.1542 v -0.252 l 0.3353,-0.1984 v 0.4504 z"
         style="fill:#000000;fill-rule:evenodd"
         id="path28581" />
      <g
         id="Layer1150">
        <path
           d="m 110.8759,135.4767 1.3059,1.3059 1.306,-1.3059 z"
           style="fill:#000000;fill-rule:evenodd"
           id="path28583" />
        <path
           d="m 109.7306,137.0052 h 0.6079 c 0.0779,0 0.1416,0.0637 0.1416,0.1415 v 0.4689 h 1.1852 c 0.0925,-0.1948 0.291,-0.3295 0.521,-0.3295 0.2299,0 0.4284,0.1347 0.5209,0.3295 h 1.1764 v -0.4687 c 0,-0.0778 0.0636,-0.1415 0.1415,-0.1415 h 0.6079 c 0.0778,0 0.1415,0.0637 0.1415,0.1415 v 1.4316 c 0,0.0779 -0.0637,0.1415 -0.1415,0.1415 h -0.6079 c -0.0779,0 -0.1415,-0.0636 -0.1415,-0.1415 v -0.489 h -1.1674 c -0.0881,0.2055 -0.2922,0.3495 -0.5299,0.3495 -0.2378,0 -0.4419,-0.144 -0.53,-0.3495 h -1.1762 v 0.4888 c 0,0.0779 -0.0637,0.1416 -0.1416,0.1416 h -0.6079 c -0.0778,0 -0.1415,-0.0637 -0.1415,-0.1416 v -1.4316 c 0,-0.0778 0.0637,-0.1415 0.1415,-0.1415 z"
           style="fill:#000000;fill-rule:evenodd"
           id="path28585" />
      </g>
    </g>
  </g>
</svg>
