<?xml version="1.0" encoding="UTF-8" standalone="no"?>
<svg
   xmlns:dc="http://purl.org/dc/elements/1.1/"
   xmlns:cc="http://creativecommons.org/ns#"
   xmlns:rdf="http://www.w3.org/1999/02/22-rdf-syntax-ns#"
   xmlns:svg="http://www.w3.org/2000/svg"
   xmlns="http://www.w3.org/2000/svg"
   xmlns:sodipodi="http://sodipodi.sourceforge.net/DTD/sodipodi-0.dtd"
   xmlns:inkscape="http://www.inkscape.org/namespaces/inkscape"
   version="1.1"
   width="791.48108"
   height="791.49921"
   id="svg29062"
   viewBox="0 0 791.48109 791.49915"
   sodipodi:docname="A-48.svg"
   inkscape:version="1.0.2 (e86c870879, 2021-01-15)">
  <metadata
     id="metadata29068">
    <rdf:RDF>
      <cc:Work
         rdf:about="">
        <dc:format>image/svg+xml</dc:format>
        <dc:type
           rdf:resource="http://purl.org/dc/dcmitype/StillImage" />
        <dc:title />
      </cc:Work>
    </rdf:RDF>
  </metadata>
  <defs
     id="defs29066" />
  <sodipodi:namedview
     pagecolor="#ffffff"
     bordercolor="#666666"
     borderopacity="1"
     objecttolerance="10"
     gridtolerance="10"
     guidetolerance="10"
     inkscape:pageopacity="0"
     inkscape:pageshadow="2"
     inkscape:window-width="1920"
     inkscape:window-height="1016"
     id="namedview29064"
     showgrid="false"
     inkscape:zoom="0.049253423"
     inkscape:cx="377.10778"
     inkscape:cy="2743.4543"
     inkscape:window-x="0"
     inkscape:window-y="27"
     inkscape:window-maximized="1"
     inkscape:current-layer="svg29062"
     showguides="false"
     inkscape:document-rotation="0" />
  <g
     id="Layer1151"
     transform="matrix(65.957993,0,0,65.957993,-7940.752,-8542.0927)">
    <path
       d="m 120.654,134.8706 5.0995,-5.0995 c 0.3507,-0.3507 0.9244,-0.3507 1.2748,0 l 5.0998,5.0995 c 0.3503,0.3506 0.3503,0.9244 0,1.275 l -5.0998,5.0995 c -0.3504,0.3507 -0.9241,0.3507 -1.2748,0 l -5.0995,-5.0995 c -0.3506,-0.3506 -0.3506,-0.9244 0,-1.275 z"
       style="fill:#ffec00;fill-rule:evenodd"
       id="path28590" />
    <path
       d="m 120.7564,135.0286 5.1552,-5.1551 c 0.132,-0.132 0.3058,-0.198 0.4795,-0.198 0.1737,0 0.3475,0.066 0.4794,0.198 l 5.1552,5.1551 c 0.132,0.132 0.1979,0.3058 0.1979,0.4795 0,0.1737 -0.0659,0.3475 -0.1979,0.4795 l -5.1552,5.1551 c -0.1319,0.132 -0.3057,0.198 -0.4794,0.198 -0.1737,0 -0.3476,-0.066 -0.4795,-0.198 l -5.1552,-5.1551 c -0.132,-0.132 -0.1979,-0.3058 -0.1979,-0.4795 0,-0.1737 0.0659,-0.3475 0.1979,-0.4795 z m 5.3464,-4.9639 -5.1552,5.1551 c -0.0791,0.0792 -0.1187,0.1837 -0.1187,0.2883 0,0.1046 0.0396,0.2091 0.1187,0.2883 l 5.1552,5.1551 c 0.0791,0.0792 0.1836,0.1188 0.2883,0.1188 0.1046,0 0.2091,-0.0396 0.2882,-0.1188 l 5.1552,-5.1551 c 0.0791,-0.0792 0.1187,-0.1837 0.1187,-0.2883 0,-0.1046 -0.0396,-0.2091 -0.1187,-0.2883 l -5.1552,-5.1551 c -0.0791,-0.0792 -0.1836,-0.1187 -0.2882,-0.1187 -0.1047,0 -0.2092,0.0395 -0.2883,0.1187 z"
       style="fill:#000000;fill-rule:evenodd"
       id="path28592" />
    <path
       d="m 125.1733,137.8254 h -0.2305 v -0.89 c -0.0842,0.0807 -0.1834,0.1406 -0.2979,0.1791 v -0.2146 c 0.0604,-0.0201 0.1256,-0.0581 0.1959,-0.1145 0.0708,-0.0561 0.1187,-0.1216 0.1451,-0.1964 h 0.1874 z m 0.7367,-1.2364 c 0.1165,0 0.2078,0.0428 0.2735,0.1281 0.0783,0.1006 0.1177,0.2681 0.1177,0.5017 0,0.233 -0.0397,0.4008 -0.1185,0.5026 -0.0652,0.0842 -0.1562,0.1264 -0.2727,0.1264 -0.1174,0 -0.2117,-0.0462 -0.2837,-0.1383 -0.0718,-0.0921 -0.108,-0.2568 -0.108,-0.4932 0,-0.2319 0.0399,-0.3992 0.1187,-0.5009 0.0652,-0.0842 0.1562,-0.1264 0.273,-0.1264 z m 0,0.1958 c -0.0275,0 -0.0524,0.009 -0.0737,0.0275 -0.0215,0.0179 -0.0383,0.0505 -0.0502,0.0978 -0.0156,0.061 -0.0235,0.1642 -0.0235,0.3087 0,0.1446 0.007,0.2441 0.0213,0.2982 0.0138,0.0539 0.0314,0.0902 0.0527,0.108 0.0212,0.0182 0.0459,0.027 0.0734,0.027 0.0275,0 0.0522,-0.009 0.0734,-0.0275 0.0216,-0.0179 0.0386,-0.0505 0.0502,-0.0978 0.0159,-0.0604 0.0235,-0.1633 0.0235,-0.3079 0,-0.1445 -0.007,-0.244 -0.021,-0.2982 -0.0138,-0.0538 -0.0317,-0.0904 -0.0532,-0.1083 -0.021,-0.0184 -0.0454,-0.0275 -0.0729,-0.0275 z m 1.046,0.1494 h 0.212 v 0.1216 c 0.076,-0.0935 0.1667,-0.1406 0.2716,-0.1406 0.0558,0 0.1046,0.0119 0.1454,0.0352 0.0414,0.0235 0.0751,0.0589 0.1012,0.1066 0.0383,-0.0477 0.0799,-0.0831 0.1241,-0.1066 0.0446,-0.0233 0.0916,-0.0352 0.1423,-0.0352 0.0638,0 0.118,0.0134 0.1628,0.04 0.0442,0.0266 0.0773,0.0655 0.0992,0.1171 0.0161,0.0377 0.0238,0.0992 0.0238,0.1842 v 0.5689 h -0.2305 v -0.5085 c 0,-0.0884 -0.008,-0.1454 -0.0238,-0.1709 -0.0215,-0.0335 -0.0547,-0.0505 -0.0986,-0.0505 -0.0324,0 -0.0632,0.0102 -0.0919,0.0301 -0.0283,0.0204 -0.0487,0.0498 -0.0615,0.0884 -0.0127,0.0391 -0.0187,0.1003 -0.0187,0.1843 v 0.4271 h -0.2307 v -0.4875 c 0,-0.0865 -0.004,-0.1426 -0.0125,-0.1676 -0.008,-0.0252 -0.0204,-0.0442 -0.038,-0.0564 -0.0173,-0.0122 -0.0405,-0.0184 -0.07,-0.0184 -0.036,0 -0.0678,0.01 -0.0961,0.0292 -0.0286,0.0199 -0.0488,0.0479 -0.0612,0.0848 -0.0122,0.0368 -0.0185,0.0983 -0.0185,0.1834 v 0.4325 h -0.2304 z"
       style="fill:#000000;fill-rule:evenodd"
       id="path28594" />
    <path
       d="m 125.9926,133.1159 v 1.7357 c 0,0.0588 0.0178,0.0765 0.0766,0.0765 h 2.7821 c 0.0589,0 0.0766,-0.0177 0.0766,-0.0765 v -1.7357 c -0.0572,-0.0133 -0.0587,-0.0255 -0.1276,-0.0255 h -2.6801 c -0.0402,0 -0.0967,0.0135 -0.1276,0.0255 z"
       style="fill:#000000;fill-rule:evenodd"
       id="path28596" />
    <path
       d="m 123.5168,134.1879 v 0.8423 c 0.0572,0.0134 0.0586,0.0256 0.1276,0.0256 h 0.1786 c 0.1092,0 0.1298,-0.2042 0.4084,-0.2042 h 0.1787 c 0.1892,0 0.3049,0.2042 0.3829,0.2042 h 0.8678 c 0.0785,0 0.1021,-0.0748 0.1021,-0.1532 v -1.1486 c 0,-0.0597 -0.0424,-0.1021 -0.1021,-0.1021 h -0.8423 c -0.2473,0 -0.3658,0.284 -0.4888,0.4301 -0.1284,0.1525 -0.5975,0.0557 -0.8129,0.1059 z m 1.1142,0.042 h 0.9332 v -0.3589 h -0.6939 c -0.0836,0 -0.2315,0.2658 -0.2393,0.3589 z"
       style="fill:#000000;fill-rule:evenodd"
       id="path28598" />
    <path
       d="m 124.631,134.2299 h 0.9332 v -0.3589 h -0.6939 c -0.0836,0 -0.2315,0.2658 -0.2393,0.3589 z"
       style="fill:#fee901;fill-rule:evenodd"
       id="path28600" />
    <path
       d="m 124.308,135.8015 c 0.2286,0 0.4139,-0.1854 0.4139,-0.4139 0,-0.2286 -0.1853,-0.414 -0.4139,-0.414 -0.2286,0 -0.4139,0.1854 -0.4139,0.414 0,0.2285 0.1853,0.4139 0.4139,0.4139 z"
       style="fill:#000000;fill-rule:evenodd"
       id="path28602" />
    <path
       d="m 127.2561,135.8015 c 0.2285,0 0.4139,-0.1854 0.4139,-0.4139 0,-0.2286 -0.1854,-0.414 -0.4139,-0.414 -0.2286,0 -0.414,0.1854 -0.414,0.414 0,0.2285 0.1854,0.4139 0.414,0.4139 z"
       style="fill:#000000;fill-rule:evenodd"
       id="path28604" />
    <path
       d="m 128.2898,135.8015 c 0.2286,0 0.4139,-0.1854 0.4139,-0.4139 0,-0.2286 -0.1853,-0.414 -0.4139,-0.414 -0.2286,0 -0.4139,0.1854 -0.4139,0.414 0,0.2285 0.1853,0.4139 0.4139,0.4139 z"
       style="fill:#000000;fill-rule:evenodd"
       id="path28606" />
    <g
       id="Layer1152">
      <path
         d="m 124.2512,137.9258 -0.7075,-0.7075 0.7075,-0.7075 z"
         style="fill:#000000;fill-rule:evenodd"
         id="path28608" />
      <path
         d="m 128.5578,137.9258 0.7075,-0.7075 -0.7075,-0.7075 z"
         style="fill:#000000;fill-rule:evenodd"
         id="path28610" />
    </g>
  </g>
</svg>
