<?xml version="1.0" encoding="UTF-8" standalone="no"?>
<svg
   xmlns:dc="http://purl.org/dc/elements/1.1/"
   xmlns:cc="http://creativecommons.org/ns#"
   xmlns:rdf="http://www.w3.org/1999/02/22-rdf-syntax-ns#"
   xmlns:svg="http://www.w3.org/2000/svg"
   xmlns="http://www.w3.org/2000/svg"
   xmlns:sodipodi="http://sodipodi.sourceforge.net/DTD/sodipodi-0.dtd"
   xmlns:inkscape="http://www.inkscape.org/namespaces/inkscape"
   version="1.1"
   width="791.48108"
   height="791.50085"
   id="svg29062"
   viewBox="0 0 791.48109 791.50079"
   sodipodi:docname="A-4a.svg"
   inkscape:version="1.0.2 (e86c870879, 2021-01-15)">
  <metadata
     id="metadata29068">
    <rdf:RDF>
      <cc:Work
         rdf:about="">
        <dc:format>image/svg+xml</dc:format>
        <dc:type
           rdf:resource="http://purl.org/dc/dcmitype/StillImage" />
        <dc:title />
      </cc:Work>
    </rdf:RDF>
  </metadata>
  <defs
     id="defs29066" />
  <sodipodi:namedview
     pagecolor="#ffffff"
     bordercolor="#666666"
     borderopacity="1"
     objecttolerance="10"
     gridtolerance="10"
     guidetolerance="10"
     inkscape:pageopacity="0"
     inkscape:pageshadow="2"
     inkscape:window-width="1920"
     inkscape:window-height="1016"
     id="namedview29064"
     showgrid="false"
     inkscape:zoom="0.049253423"
     inkscape:cx="377.10701"
     inkscape:cy="2870.801"
     inkscape:window-x="0"
     inkscape:window-y="27"
     inkscape:window-maximized="1"
     inkscape:current-layer="svg29062"
     showguides="false"
     inkscape:document-rotation="0" />
  <g
     id="Layer1057"
     transform="matrix(65.957993,0,0,65.957993,-7940.752,-3800.2209)">
    <path
       d="m 120.654,62.9783 5.0995,-5.0995 c 0.3507,-0.3507 0.9244,-0.3507 1.2748,0 l 5.0998,5.0995 c 0.3503,0.3507 0.3503,0.9244 0,1.275 l -5.0998,5.0996 c -0.3504,0.3506 -0.9241,0.3506 -1.2748,0 l -5.0995,-5.0996 c -0.3506,-0.3506 -0.3506,-0.9243 0,-1.275 z"
       style="fill:#ffec00;fill-rule:evenodd"
       id="path27884" />
    <path
       d="m 120.7564,63.1363 5.1552,-5.1551 c 0.132,-0.132 0.3058,-0.198 0.4795,-0.198 0.1736,0 0.3475,0.066 0.4794,0.198 l 5.1552,5.1551 c 0.132,0.132 0.1979,0.3058 0.1979,0.4795 0,0.1737 -0.0659,0.3475 -0.1979,0.4795 l -5.1552,5.1552 c -0.1319,0.1319 -0.3057,0.1979 -0.4794,0.1979 -0.1737,0 -0.3476,-0.066 -0.4795,-0.1979 l -5.1552,-5.1552 c -0.132,-0.132 -0.1979,-0.3058 -0.1979,-0.4795 0,-0.1737 0.0659,-0.3475 0.1979,-0.4795 z m 5.3464,-4.9639 -5.1552,5.1552 c -0.0791,0.0791 -0.1187,0.1836 -0.1187,0.2882 0,0.1046 0.0396,0.2091 0.1187,0.2883 l 5.1552,5.1551 c 0.0791,0.0792 0.1836,0.1188 0.2883,0.1188 0.1046,0 0.2091,-0.0396 0.2882,-0.1188 l 5.1552,-5.1551 c 0.0791,-0.0792 0.1187,-0.1837 0.1187,-0.2883 0,-0.1046 -0.0396,-0.2091 -0.1187,-0.2882 l -5.1552,-5.1552 c -0.0791,-0.0791 -0.1836,-0.1187 -0.2882,-0.1187 -0.1047,0 -0.2092,0.0396 -0.2883,0.1187 z"
       style="fill:#000000;fill-rule:evenodd"
       id="path27886" />
    <path
       d="m 127.903,66.4715 c 0,-0.4173 0,-0.8375 0,-1.2549 0.013,-0.5609 -0.4768,-0.8099 -0.9928,-0.8856 -0.4511,-0.0321 -0.9456,0.0397 -1.388,-0.2956 -0.5287,-0.4391 -0.6046,-0.9131 -0.6564,-1.4476 -0.2172,0.0919 -0.4654,0.2033 -0.6826,0.2951 -0.0572,0.0063 -0.2725,-0.0419 -0.1077,-0.2697 0.3675,-0.5925 0.7698,-1.1851 1.1373,-1.7776 0.0492,-0.0981 0.1347,-0.1091 0.1912,0.0037 0.3921,0.5925 0.7539,1.2206 1.146,1.8131 0.1043,0.1552 -0.0362,0.2653 -0.1513,0.2284 -0.2321,-0.0876 -0.4447,-0.181 -0.6768,-0.2685 0.0428,0.2679 0.0716,0.5622 0.4048,0.7715 0.4774,0.1757 0.9177,0.0181 1.3982,0.1999 0.5295,0.2238 1.0064,0.6821 1.159,1.2576 0.1298,0.5561 0.0699,1.071 0.0699,1.6302 -0.2704,0.0032 -0.438,0.0014 -0.8508,0 z"
       style="fill:#000000;fill-rule:evenodd"
       id="path27888" />
  </g>
</svg>
