<?xml version="1.0" encoding="UTF-8" standalone="no"?>
<svg
   xmlns:dc="http://purl.org/dc/elements/1.1/"
   xmlns:cc="http://creativecommons.org/ns#"
   xmlns:rdf="http://www.w3.org/1999/02/22-rdf-syntax-ns#"
   xmlns:svg="http://www.w3.org/2000/svg"
   xmlns="http://www.w3.org/2000/svg"
   xmlns:sodipodi="http://sodipodi.sourceforge.net/DTD/sodipodi-0.dtd"
   xmlns:inkscape="http://www.inkscape.org/namespaces/inkscape"
   version="1.1"
   width="791.48108"
   height="791.50085"
   id="svg29062"
   viewBox="0 0 791.48109 791.50079"
   sodipodi:docname="A-5b.svg"
   inkscape:version="1.0.2 (e86c870879, 2021-01-15)">
  <metadata
     id="metadata29068">
    <rdf:RDF>
      <cc:Work
         rdf:about="">
        <dc:format>image/svg+xml</dc:format>
        <dc:type
           rdf:resource="http://purl.org/dc/dcmitype/StillImage" />
        <dc:title />
      </cc:Work>
    </rdf:RDF>
  </metadata>
  <defs
     id="defs29066" />
  <sodipodi:namedview
     pagecolor="#ffffff"
     bordercolor="#666666"
     borderopacity="1"
     objecttolerance="10"
     gridtolerance="10"
     guidetolerance="10"
     inkscape:pageopacity="0"
     inkscape:pageshadow="2"
     inkscape:window-width="1920"
     inkscape:window-height="1016"
     id="namedview29064"
     showgrid="false"
     inkscape:zoom="0.049253423"
     inkscape:cx="-2434.5109"
     inkscape:cy="-1098.8373"
     inkscape:window-x="0"
     inkscape:window-y="27"
     inkscape:window-maximized="1"
     inkscape:current-layer="svg29062"
     showguides="false"
     inkscape:document-rotation="0" />
  <g
     id="Layer1060"
     transform="matrix(65.957993,0,0,65.957993,-10752.37,-3800.2209)">
    <path
       d="m 163.2814,62.9783 5.0995,-5.0995 c 0.3507,-0.3507 0.9244,-0.3507 1.2748,0 l 5.0998,5.0995 c 0.3503,0.3507 0.3503,0.9244 0,1.275 l -5.0998,5.0996 c -0.3504,0.3506 -0.9241,0.3506 -1.2748,0 l -5.0995,-5.0996 c -0.3506,-0.3506 -0.3506,-0.9243 0,-1.275 z"
       style="fill:#ffec00;fill-rule:evenodd"
       id="path27905" />
    <path
       d="m 163.3838,63.1363 5.1552,-5.1551 c 0.132,-0.132 0.3058,-0.198 0.4795,-0.198 0.1737,0 0.3475,0.066 0.4794,0.198 l 5.1552,5.1551 c 0.132,0.132 0.1979,0.3058 0.1979,0.4795 0,0.1737 -0.0659,0.3475 -0.1979,0.4795 l -5.1552,5.1552 c -0.1319,0.1319 -0.3057,0.1979 -0.4794,0.1979 -0.1737,0 -0.3476,-0.066 -0.4795,-0.1979 l -5.1552,-5.1552 c -0.132,-0.132 -0.1979,-0.3058 -0.1979,-0.4795 0,-0.1737 0.0659,-0.3475 0.1979,-0.4795 z m 5.3464,-4.9639 -5.1552,5.1552 c -0.0791,0.0791 -0.1187,0.1836 -0.1187,0.2882 0,0.1046 0.0396,0.2091 0.1187,0.2883 l 5.1552,5.1551 c 0.0791,0.0792 0.1836,0.1188 0.2883,0.1188 0.1046,0 0.2091,-0.0396 0.2882,-0.1188 l 5.1552,-5.1551 c 0.0791,-0.0792 0.1187,-0.1837 0.1187,-0.2883 0,-0.1046 -0.0396,-0.2091 -0.1187,-0.2882 l -5.1552,-5.1552 c -0.0791,-0.0791 -0.1836,-0.1187 -0.2882,-0.1187 -0.1047,0 -0.2092,0.0396 -0.2883,0.1187 z"
       style="fill:#000000;fill-rule:evenodd"
       id="path27907" />
    <path
       d="m 167.9158,66.6925 c 0.0109,-0.7325 0.6464,-1.7349 1.2588,-2.1478 0.6961,-0.5521 0.9193,-1.3961 0.8974,-2.1748 0.2477,0.1262 0.4942,0.2535 0.7419,0.3796 0.1444,0.0121 0.1765,-0.1096 0.1311,-0.2049 -0.3788,-0.6259 -0.7564,-1.2517 -1.1352,-1.8775 -0.1021,-0.1706 -0.2042,-0.1706 -0.3063,0 -0.3739,0.6161 -0.7477,1.2323 -1.1215,1.8484 -0.0211,0.152 0.0469,0.2151 0.204,0.1892 0.2331,-0.1213 0.4662,-0.2426 0.6993,-0.3639 0.003,0.9188 -0.7748,1.6357 -1.3505,2.1712 -0.4641,0.4456 -0.8038,1.431 -0.8621,2.1805 0.2963,0 0.5469,0 0.8431,0 z"
       style="fill:#000000;fill-rule:evenodd"
       id="path27909" />
  </g>
</svg>
