<?xml version="1.0" encoding="UTF-8" standalone="no"?>
<svg
   xmlns:dc="http://purl.org/dc/elements/1.1/"
   xmlns:cc="http://creativecommons.org/ns#"
   xmlns:rdf="http://www.w3.org/1999/02/22-rdf-syntax-ns#"
   xmlns:svg="http://www.w3.org/2000/svg"
   xmlns="http://www.w3.org/2000/svg"
   xmlns:sodipodi="http://sodipodi.sourceforge.net/DTD/sodipodi-0.dtd"
   xmlns:inkscape="http://www.inkscape.org/namespaces/inkscape"
   version="1.1"
   width="791.48602"
   height="791.50085"
   id="svg29062"
   viewBox="0 0 791.48603 791.50079"
   sodipodi:docname="A-6.svg"
   inkscape:version="1.0.2 (e86c870879, 2021-01-15)">
  <metadata
     id="metadata29068">
    <rdf:RDF>
      <cc:Work
         rdf:about="">
        <dc:format>image/svg+xml</dc:format>
        <dc:type
           rdf:resource="http://purl.org/dc/dcmitype/StillImage" />
        <dc:title />
      </cc:Work>
    </rdf:RDF>
  </metadata>
  <defs
     id="defs29066" />
  <sodipodi:namedview
     pagecolor="#ffffff"
     bordercolor="#666666"
     borderopacity="1"
     objecttolerance="10"
     gridtolerance="10"
     guidetolerance="10"
     inkscape:pageopacity="0"
     inkscape:pageshadow="2"
     inkscape:window-width="1920"
     inkscape:window-height="1016"
     id="namedview29064"
     showgrid="false"
     inkscape:zoom="0.049253423"
     inkscape:cx="8110.014"
     inkscape:cy="5037.3508"
     inkscape:window-x="0"
     inkscape:window-y="27"
     inkscape:window-maximized="1"
     inkscape:current-layer="svg29062"
     showguides="false"
     inkscape:document-rotation="0" />
  <g
     id="Layer1061"
     transform="matrix(65.957993,0,0,65.957993,-207.84518,-4697.6651)">
    <path
       d="m 3.4142,76.5846 5.0995,-5.0995 c 0.3507,-0.3507 0.9244,-0.3507 1.2748,0 l 5.0998,5.0995 c 0.3503,0.3507 0.3503,0.9244 0,1.275 l -5.0998,5.0996 c -0.3504,0.3506 -0.9241,0.3506 -1.2748,0 L 3.4142,77.8596 c -0.3507,-0.3506 -0.3507,-0.9243 0,-1.275 z"
       style="fill:#ffec00;fill-rule:evenodd"
       id="path27912" />
    <path
       d="m 3.5166,76.7426 5.1552,-5.1551 c 0.1319,-0.132 0.3057,-0.198 0.4794,-0.198 0.1737,0 0.3475,0.066 0.4795,0.198 l 5.1552,5.1551 c 0.1319,0.132 0.1979,0.3058 0.1979,0.4795 0,0.1737 -0.066,0.3475 -0.1979,0.4795 l -5.1552,5.1552 c -0.132,0.1319 -0.3058,0.1979 -0.4795,0.1979 -0.1737,0 -0.3475,-0.066 -0.4794,-0.1979 L 3.5166,77.7016 c -0.132,-0.132 -0.1979,-0.3058 -0.1979,-0.4795 0,-0.1737 0.0659,-0.3475 0.1979,-0.4795 z M 8.863,71.7787 3.7078,76.9339 c -0.0791,0.0791 -0.1187,0.1836 -0.1187,0.2882 0,0.1046 0.0396,0.2091 0.1187,0.2883 l 5.1552,5.1551 c 0.0791,0.0792 0.1836,0.1188 0.2882,0.1188 0.1046,0 0.2092,-0.0396 0.2883,-0.1188 l 5.1552,-5.1551 c 0.0791,-0.0792 0.1187,-0.1837 0.1187,-0.2883 0,-0.1046 -0.0396,-0.2091 -0.1187,-0.2882 L 9.4395,71.7787 C 9.3604,71.6995 9.2558,71.66 9.1512,71.66 c -0.1046,0 -0.2091,0.0395 -0.2882,0.1187 z"
       style="fill:#000000;fill-rule:evenodd"
       id="path27914" />
    <path
       d="M 8.614,76.6396 H 5.972 v 1.0584 h 2.642 v 2.7034 H 9.6751 V 77.698 h 2.6554 V 76.6396 H 9.6751 V 74.0429 H 8.614 Z"
       style="fill:#000000;fill-rule:evenodd"
       id="path27916" />
  </g>
</svg>
