<?xml version="1.0" encoding="UTF-8" standalone="no"?>
<svg
   xmlns:dc="http://purl.org/dc/elements/1.1/"
   xmlns:cc="http://creativecommons.org/ns#"
   xmlns:rdf="http://www.w3.org/1999/02/22-rdf-syntax-ns#"
   xmlns:svg="http://www.w3.org/2000/svg"
   xmlns="http://www.w3.org/2000/svg"
   xmlns:sodipodi="http://sodipodi.sourceforge.net/DTD/sodipodi-0.dtd"
   xmlns:inkscape="http://www.inkscape.org/namespaces/inkscape"
   version="1.1"
   width="791.48602"
   height="791.50085"
   id="svg29062"
   viewBox="0 0 791.48603 791.50079"
   sodipodi:docname="A-9.svg"
   inkscape:version="1.0.2 (e86c870879, 2021-01-15)">
  <metadata
     id="metadata29068">
    <rdf:RDF>
      <cc:Work
         rdf:about="">
        <dc:format>image/svg+xml</dc:format>
        <dc:type
           rdf:resource="http://purl.org/dc/dcmitype/StillImage" />
        <dc:title />
      </cc:Work>
    </rdf:RDF>
  </metadata>
  <defs
     id="defs29066" />
  <sodipodi:namedview
     pagecolor="#ffffff"
     bordercolor="#666666"
     borderopacity="1"
     objecttolerance="10"
     gridtolerance="10"
     guidetolerance="10"
     inkscape:pageopacity="0"
     inkscape:pageshadow="2"
     inkscape:window-width="1920"
     inkscape:window-height="1016"
     id="namedview29064"
     showgrid="false"
     inkscape:zoom="0.049253423"
     inkscape:cx="4082.337"
     inkscape:cy="1374.4005"
     inkscape:window-x="0"
     inkscape:window-y="27"
     inkscape:window-maximized="1"
     inkscape:current-layer="svg29062"
     showguides="false"
     inkscape:document-rotation="0" />
  <g
     id="Layer1065"
     transform="matrix(65.957993,0,0,65.957993,-4235.5222,-4741.0243)">
    <path
       d="m 64.4784,77.242 5.0995,-5.0996 c 0.3507,-0.3506 0.9244,-0.3506 1.2748,0 l 5.0998,5.0996 c 0.3504,0.3506 0.3504,0.9243 0,1.275 l -5.0998,5.0995 c -0.3504,0.3507 -0.9241,0.3507 -1.2748,0 L 64.4784,78.517 c -0.3506,-0.3507 -0.3506,-0.9244 0,-1.275 z"
       style="fill:#ffec00;fill-rule:evenodd"
       id="path27940" />
    <path
       d="m 64.5808,77.4 5.1552,-5.1552 c 0.132,-0.1319 0.3058,-0.1979 0.4795,-0.1979 0.1737,0 0.3475,0.066 0.4794,0.1979 L 75.8501,77.4 c 0.132,0.132 0.198,0.3058 0.198,0.4795 0,0.1737 -0.066,0.3475 -0.198,0.4795 l -5.1552,5.1551 c -0.1319,0.132 -0.3057,0.198 -0.4794,0.198 -0.1737,0 -0.3475,-0.066 -0.4795,-0.198 L 64.5808,78.359 c -0.1319,-0.132 -0.1979,-0.3058 -0.1979,-0.4795 0,-0.1737 0.066,-0.3475 0.1979,-0.4795 z m 5.3464,-4.9639 -5.1552,5.1551 c -0.0791,0.0792 -0.1187,0.1837 -0.1187,0.2883 0,0.1046 0.0396,0.2091 0.1187,0.2882 l 5.1552,5.1552 c 0.0792,0.0791 0.1837,0.1187 0.2883,0.1187 0.1046,0 0.2091,-0.0396 0.2882,-0.1187 l 5.1552,-5.1552 c 0.0791,-0.0791 0.1187,-0.1836 0.1187,-0.2882 0,-0.1046 -0.0396,-0.2091 -0.1187,-0.2883 l -5.1552,-5.1551 c -0.0791,-0.0792 -0.1836,-0.1188 -0.2882,-0.1188 -0.1046,0 -0.2091,0.0396 -0.2883,0.1188 z"
       style="fill:#000000;fill-rule:evenodd"
       id="path27942" />
    <path
       d="m 67.6236,76.1245 c 0.1836,0.1248 2.0793,2.0515 2.0793,2.1052 v 3.3959 h 1.037 v -3.3959 c 0,-0.1478 1.8587,-1.8045 2.0674,-2.1193 l -0.7258,-0.7385 -1.8629,1.8496 -1.8684,-1.8645 -0.0033,0.039 z"
       style="fill:#000000;fill-rule:evenodd"
       id="path27944" />
  </g>
</svg>
