<?xml version="1.0" encoding="UTF-8" standalone="no"?>
<svg
   xmlns:dc="http://purl.org/dc/elements/1.1/"
   xmlns:cc="http://creativecommons.org/ns#"
   xmlns:rdf="http://www.w3.org/1999/02/22-rdf-syntax-ns#"
   xmlns:svg="http://www.w3.org/2000/svg"
   xmlns="http://www.w3.org/2000/svg"
   xmlns:sodipodi="http://sodipodi.sourceforge.net/DTD/sodipodi-0.dtd"
   xmlns:inkscape="http://www.inkscape.org/namespaces/inkscape"
   version="1.1"
   width="791.48602"
   height="791.49921"
   id="svg29062"
   viewBox="0 0 791.48603 791.49915"
   sodipodi:docname="other.svg"
   inkscape:version="1.0.2 (e86c870879, 2021-01-15)">
  <metadata
     id="metadata29068">
    <rdf:RDF>
      <cc:Work
         rdf:about="">
        <dc:format>image/svg+xml</dc:format>
        <dc:type
           rdf:resource="http://purl.org/dc/dcmitype/StillImage" />
        <dc:title></dc:title>
      </cc:Work>
    </rdf:RDF>
  </metadata>
  <defs
     id="defs29066" />
  <sodipodi:namedview
     pagecolor="#ffffff"
     bordercolor="#666666"
     borderopacity="1"
     objecttolerance="10"
     gridtolerance="10"
     guidetolerance="10"
     inkscape:pageopacity="0"
     inkscape:pageshadow="2"
     inkscape:window-width="1920"
     inkscape:window-height="1016"
     id="namedview29064"
     showgrid="false"
     inkscape:zoom="0.28451947"
     inkscape:cx="-596.38164"
     inkscape:cy="365.73565"
     inkscape:window-x="0"
     inkscape:window-y="27"
     inkscape:window-maximized="1"
     inkscape:current-layer="svg29062"
     showguides="false"
     inkscape:document-rotation="0" />
  <g
     id="Layer1190"
     transform="matrix(65.957993,0,0,65.957993,-9815.1347,-6585.4027)">
    <path
       d="m 148.5072,160.1809 h 25.0226 v 15.7623 h -25.0226 z"
       style="fill:#ffffff;fill-rule:evenodd"
       id="path29039" />
    <path
       d="m 149.1541,160.6078 h 23.7288 c 0.1185,0 0.2154,0.0969 0.2154,0.2154 v 14.4777 c 0,0.1185 -0.0969,0.2154 -0.2154,0.2154 h -23.7288 c -0.1185,0 -0.2154,-0.0969 -0.2154,-0.2154 v -14.4777 c 0,-0.1185 0.0969,-0.2154 0.2154,-0.2154 z"
       style="fill:#ffffff;fill-rule:evenodd"
       id="path29041" />
    <path
       d="m 149.1544,160.4998 h 23.7282 c 0.0888,0 0.1696,0.0364 0.2281,0.095 l 5e-4,4e-4 c 0.0585,0.0586 0.0949,0.1394 0.0949,0.2282 v 14.4772 c 0,0.0887 -0.0364,0.1695 -0.0949,0.2281 l -5e-4,5e-4 c -0.0585,0.0585 -0.1393,0.0949 -0.2281,0.0949 h -23.7282 c -0.0888,0 -0.1696,-0.0364 -0.2282,-0.0949 l -4e-4,-5e-4 c -0.0586,-0.0586 -0.095,-0.1394 -0.095,-0.2281 v -14.4772 c 0,-0.0888 0.0364,-0.1696 0.095,-0.2282 l 4e-4,-4e-4 c 0.0586,-0.0586 0.1394,-0.095 0.2282,-0.095 z m 23.7282,0.2157 h -23.7282 c -0.0298,0 -0.0568,0.0121 -0.0763,0.0316 -0.0195,0.0195 -0.0316,0.0465 -0.0316,0.0763 v 14.4772 c 0,0.0297 0.0121,0.0567 0.0316,0.0763 0.0195,0.0194 0.0465,0.0315 0.0763,0.0315 h 23.7282 c 0.0297,0 0.0567,-0.0121 0.0763,-0.0315 0.0194,-0.0196 0.0315,-0.0466 0.0315,-0.0763 v -14.4772 c 0,-0.0298 -0.0121,-0.0568 -0.0315,-0.0763 -0.0196,-0.0195 -0.0466,-0.0316 -0.0763,-0.0316 z"
       style="fill:#ffffff;fill-rule:evenodd"
       id="path29043" />
    <path
       d="m 152.0398,161.8445 h -0.3776 v 1.4035 h -0.2582 v -1.4035 h -0.3728 v -0.229 h 1.0086 z m 1.5519,1.4035 h -0.2729 l -0.1608,-0.4581 h -0.5094 l -0.1607,0.4581 h -0.2752 l 0.5604,-1.6325 h 0.2582 z m -0.5264,-0.7212 -0.1607,-0.4581 -0.1658,0.4581 z m 1.8054,0.7212 h -0.28 l -0.2634,-0.709 h -0.3092 v 0.709 h -0.2583 v -1.6325 h 0.6455 c 0.1332,0.002 0.2384,0.0502 0.3155,0.1451 0.0774,0.095 0.1159,0.1993 0.1159,0.313 0,0.0861 -0.0235,0.1678 -0.0709,0.2449 -0.047,0.0771 -0.108,0.1326 -0.1825,0.1669 z m -0.29,-1.1671 c 0,-0.0632 -0.019,-0.1119 -0.0572,-0.1462 -0.038,-0.0341 -0.0808,-0.0519 -0.1279,-0.0536 h -0.3775 v 0.4019 h 0.3872 c 0.0487,0 0.0901,-0.0178 0.1244,-0.0535 0.034,-0.0358 0.051,-0.0854 0.051,-0.1486 z m 0.8748,1.1671 h -0.2633 v -1.6325 h 0.2633 z m 1.3399,-1.3743 h -0.7551 v 0.4023 h 0.4751 v 0.263 h -0.4751 v 0.709 h -0.2582 v -1.6325 h 1.0133 z m 1.5472,1.3743 h -0.273 l -0.1607,-0.4581 h -0.5094 l -0.1607,0.4581 h -0.2753 l 0.5605,-1.6325 h 0.2582 z m -0.5264,-0.7212 -0.1607,-0.4581 -0.1658,0.4581 z m 2.4267,-0.0949 c -0.002,0.284 -0.0603,0.4912 -0.1766,0.621 -0.1162,0.1301 -0.2588,0.1951 -0.4274,0.1951 h -0.5094 v -1.6325 h 0.5094 c 0.1686,0 0.3112,0.0652 0.4274,0.195 0.1163,0.1298 0.1749,0.337 0.1766,0.6214 z m -0.8552,0 v 0.5578 h 0.2512 c 0.1085,-0.003 0.1936,-0.0553 0.2545,-0.1559 0.061,-0.1006 0.0922,-0.2347 0.0939,-0.4019 0,-0.1789 -0.0309,-0.3155 -0.0927,-0.4108 -0.0618,-0.0949 -0.1472,-0.144 -0.2557,-0.1474 h -0.2512 z m 2.1099,0.8161 h -1.0134 v -1.6325 h 0.9623 v 0.2582 h -0.7041 v 0.4023 h 0.4751 v 0.263 h -0.4751 v 0.4459 h 0.7552 z m 1.4473,-0.709 h -0.3095 v 0.709 h -0.2583 v -1.6325 h 0.5383 c 0.1202,0 0.2169,0.0176 0.29,0.0524 0.0732,0.0349 0.133,0.0907 0.1792,0.167 0.0462,0.0762 0.0694,0.1559 0.0694,0.2387 0,0.0861 -0.0187,0.1641 -0.0561,0.2338 -0.0374,0.07 -0.0938,0.1264 -0.1692,0.1695 -0.0757,0.0431 -0.1701,0.0638 -0.2838,0.0621 z m 0.2483,-0.4606 c 0,-0.0632 -0.0189,-0.112 -0.0572,-0.146 -0.038,-0.0343 -0.0808,-0.0522 -0.1279,-0.0536 h -0.3775 v 0.402 h 0.3872 c 0.0487,0 0.0901,-0.0179 0.1244,-0.0536 0.034,-0.0357 0.051,-0.0853 0.051,-0.1488 z m 1.5325,1.1696 h -1.0134 v -1.6325 h 0.9623 v 0.2582 h -0.7041 v 0.4023 h 0.4751 v 0.263 h -0.4751 v 0.4459 h 0.7552 z m 1.3521,-0.8161 c -0.002,0.284 -0.0604,0.4912 -0.1766,0.621 -0.1162,0.1301 -0.2588,0.1951 -0.4275,0.1951 h -0.5094 v -1.6325 h 0.5094 c 0.1687,0 0.3113,0.0652 0.4275,0.195 0.1162,0.1298 0.1749,0.337 0.1766,0.6214 z m -0.8552,0 v 0.5578 h 0.2511 c 0.1086,-0.003 0.1936,-0.0553 0.2546,-0.1559 0.0609,-0.1006 0.0921,-0.2347 0.0938,-0.4019 0,-0.1789 -0.0309,-0.3155 -0.0927,-0.4108 -0.0618,-0.0949 -0.1471,-0.144 -0.2557,-0.1474 h -0.2511 z m 1.491,-0.8845 0.1584,-0.3339 h 0.2827 l -0.2631,0.3339 z m 0.9113,1.7006 h -0.2729 l -0.1608,-0.4581 h -0.5094 l -0.1607,0.4581 h -0.2752 l 0.5604,-1.6325 h 0.2582 z m -0.5264,-0.7212 -0.1607,-0.4581 -0.1658,0.4581 z m 1.2816,0.4896 c 0.1462,-0.003 0.233,-0.1038 0.2608,-0.3019 H 168.39 v -0.273 h 0.5457 v 0.0706 c -0.002,0.2517 -0.0516,0.4422 -0.15,0.5714 -0.0981,0.129 -0.231,0.1936 -0.3983,0.1936 -0.1964,-0.002 -0.3463,-0.0762 -0.4495,-0.2242 -0.1032,-0.1477 -0.1548,-0.3549 -0.1548,-0.621 0,-0.2665 0.0516,-0.4737 0.1548,-0.6214 0.1032,-0.1477 0.2506,-0.2217 0.4422,-0.2217 0.2355,0.005 0.4028,0.108 0.502,0.3093 l -0.2412,0.1196 c -0.0536,-0.1122 -0.1406,-0.1689 -0.2608,-0.1706 -0.1137,0 -0.1965,0.0538 -0.2486,0.1618 -0.0519,0.108 -0.078,0.2492 -0.078,0.423 0,0.1737 0.0261,0.3146 0.078,0.4226 0.0521,0.108 0.1349,0.1619 0.2486,0.1619 z m 1.133,0.2316 h -0.2634 v -1.6325 h 0.2634 z m 0.8918,0.0291 c -0.1917,0 -0.3391,-0.0725 -0.4422,-0.2179 -0.1032,-0.1455 -0.1548,-0.3546 -0.1548,-0.6273 0,-0.2665 0.0516,-0.4737 0.1548,-0.6214 0.1031,-0.1477 0.2505,-0.2217 0.4422,-0.2217 0.1947,0 0.343,0.074 0.4444,0.2217 0.1018,0.1477 0.1525,0.3549 0.1525,0.6214 0,0.2727 -0.0507,0.4818 -0.1525,0.6273 -0.1014,0.1454 -0.2497,0.2179 -0.4444,0.2179 z m 0,-1.43 c -0.1137,0 -0.1968,0.0538 -0.2486,0.1618 -0.0519,0.108 -0.0788,0.2475 -0.0805,0.4179 0,0.1919 0.0258,0.337 0.0768,0.4362 0.0513,0.0992 0.1352,0.1477 0.2523,0.1463 0.1233,-0.003 0.2086,-0.0544 0.2557,-0.1537 0.047,-0.0989 0.0722,-0.242 0.0756,-0.4288 -0.003,-0.1817 -0.0306,-0.3223 -0.0816,-0.4213 -0.0513,-0.0992 -0.1344,-0.1519 -0.2497,-0.1584 z"
       style="fill:#ffffff;fill-rule:evenodd"
       id="path29045" />
    <path
       d="m 148.9386,164.1541 h 24.1597 v 0.2157 h -24.1597 z"
       style="fill:#ffffff;fill-rule:evenodd"
       id="path29047" />
    <path
       d="m 150.8163,166.2895 h -0.1621 v -0.5941 l -0.2373,0.5941 -0.2375,-0.5941 v 0.5941 h -0.1622 v -1.0258 h 0.1622 l 0.2375,0.5757 0.2373,-0.5757 h 0.1621 z m 0.5023,0.0185 c -0.1204,0 -0.2131,-0.0457 -0.2778,-0.1372 -0.0649,-0.0913 -0.0972,-0.2226 -0.0972,-0.3941 0,-0.1675 0.0323,-0.2976 0.0972,-0.3906 0.0647,-0.0927 0.1574,-0.1392 0.2778,-0.1392 0.1225,0 0.2157,0.0465 0.2795,0.1392 0.0638,0.093 0.0956,0.2231 0.0956,0.3906 0,0.1715 -0.0318,0.3028 -0.0956,0.3941 -0.0638,0.0915 -0.157,0.1372 -0.2795,0.1372 z m 0,-0.8989 c -0.0714,0 -0.1236,0.034 -0.1562,0.102 -0.0326,0.0678 -0.0493,0.1554 -0.0504,0.2625 0,0.1205 0.0161,0.2118 0.0482,0.2741 0.032,0.0621 0.085,0.0927 0.1584,0.0919 0.0777,-0.002 0.1313,-0.0343 0.1608,-0.0967 0.0297,-0.0621 0.0453,-0.1519 0.0476,-0.2693 -0.002,-0.1142 -0.0193,-0.2027 -0.0513,-0.265 -0.0323,-0.0621 -0.0845,-0.0953 -0.1571,-0.0995 z m 1.1438,-0.001 h -0.2373 v 0.8818 h -0.1624 v -0.8818 h -0.2341 v -0.144 h 0.6338 z m 0.51,0.9003 c -0.1205,0 -0.2132,-0.0457 -0.2778,-0.1372 -0.0649,-0.0913 -0.0973,-0.2226 -0.0973,-0.3941 0,-0.1675 0.0324,-0.2976 0.0973,-0.3906 0.0646,-0.0927 0.1573,-0.1392 0.2778,-0.1392 0.1224,0 0.2157,0.0465 0.2795,0.1392 0.0637,0.093 0.0955,0.2231 0.0955,0.3906 0,0.1715 -0.0318,0.3028 -0.0955,0.3941 -0.0638,0.0915 -0.1571,0.1372 -0.2795,0.1372 z m 0,-0.8989 c -0.0715,0 -0.1236,0.034 -0.1562,0.102 -0.0326,0.0678 -0.0493,0.1554 -0.0505,0.2625 0,0.1205 0.0162,0.2118 0.0482,0.2741 0.032,0.0621 0.085,0.0927 0.1585,0.0919 0.0776,-0.002 0.1312,-0.0343 0.1607,-0.0967 0.0298,-0.0621 0.0453,-0.1519 0.0476,-0.2693 -0.002,-0.1142 -0.0193,-0.2027 -0.0513,-0.265 -0.0323,-0.0621 -0.0845,-0.0953 -0.157,-0.0995 z m 0.8881,0.735 c 0.0756,-0.001 0.1301,-0.0368 0.1638,-0.1071 l 0.1517,0.0748 c -0.0624,0.1267 -0.1676,0.1916 -0.3155,0.1945 -0.1205,0 -0.2132,-0.0463 -0.2778,-0.1392 -0.065,-0.093 -0.0973,-0.2231 -0.0973,-0.3904 0,-0.1675 0.0323,-0.2976 0.0973,-0.3906 0.0646,-0.0927 0.1573,-0.1392 0.2778,-0.1392 0.1479,0.003 0.2531,0.0678 0.3155,0.1945 l -0.1517,0.0748 c -0.0337,-0.0703 -0.0882,-0.106 -0.1638,-0.1071 -0.0715,0 -0.1236,0.034 -0.1562,0.102 -0.0326,0.0678 -0.0491,0.1562 -0.0491,0.2656 0,0.1092 0.0165,0.1976 0.0491,0.2656 0.0326,0.0678 0.0847,0.1018 0.1562,0.1018 z m 0.6876,0.1454 h -0.1655 v -1.0258 h 0.1655 z m 0.5831,-0.1454 c 0.0757,-0.001 0.1301,-0.0368 0.1639,-0.1071 l 0.1516,0.0748 c -0.0623,0.1267 -0.1675,0.1916 -0.3155,0.1945 -0.1204,0 -0.2131,-0.0463 -0.2778,-0.1392 -0.0649,-0.093 -0.0972,-0.2231 -0.0972,-0.3904 0,-0.1675 0.0323,-0.2976 0.0972,-0.3906 0.0647,-0.0927 0.1574,-0.1392 0.2778,-0.1392 0.148,0.003 0.2532,0.0678 0.3155,0.1945 l -0.1516,0.0748 c -0.0338,-0.0703 -0.0882,-0.106 -0.1639,-0.1071 -0.0714,0 -0.1236,0.034 -0.1562,0.102 -0.0326,0.0678 -0.049,0.1562 -0.049,0.2656 0,0.1092 0.0164,0.1976 0.049,0.2656 0.0326,0.0678 0.0848,0.1018 0.1562,0.1018 z m 1.1087,0.1454 h -0.637 v -1.0258 h 0.1624 v 0.8606 h 0.4746 z m 0.7886,0 h -0.637 v -1.0258 h 0.6046 v 0.1624 h -0.4422 v 0.2526 h 0.2985 v 0.1652 h -0.2985 v 0.2804 h 0.4746 z m 0.7854,-0.8818 h -0.2372 v 0.8818 h -0.1624 v -0.8818 h -0.2342 v -0.144 h 0.6338 z m 0.9754,0.8818 h -0.1715 l -0.1009,-0.2877 h -0.32 l -0.1012,0.2877 h -0.1729 l 0.3521,-1.0258 h 0.1624 z m -0.3308,-0.4532 -0.1009,-0.2877 -0.104,0.2877 z"
       style="fill:#ffffff;fill-rule:evenodd"
       id="path29049" />
    <path
       d="m 150.8838,168.7769 h -0.1715 l -0.1009,-0.2877 h -0.32 l -0.1012,0.2877 h -0.173 l 0.3521,-1.0258 h 0.1624 z m -0.3308,-0.4532 -0.1009,-0.2877 -0.1041,0.2877 z m 1.1347,0.0859 c 0,0.0805 -0.0159,0.1513 -0.0476,0.2126 -0.0255,0.0513 -0.0664,0.0927 -0.1225,0.125 -0.0561,0.032 -0.1156,0.0482 -0.1791,0.0482 -0.0632,0 -0.1228,-0.0162 -0.1789,-0.0482 -0.0561,-0.0323 -0.0975,-0.0737 -0.1242,-0.125 -0.0306,-0.0613 -0.0459,-0.1321 -0.0459,-0.2126 v -0.6585 h 0.1625 v 0.6585 c 0,0.0663 0.017,0.1196 0.051,0.1598 0.0343,0.0403 0.0793,0.0607 0.1355,0.0607 0.0564,0 0.1015,-0.0204 0.1355,-0.0607 0.0343,-0.0402 0.0513,-0.0935 0.0513,-0.1598 v -0.6585 h 0.1624 z m 0.7855,-0.5145 h -0.2373 v 0.8818 h -0.1624 v -0.8818 h -0.2341 v -0.144 h 0.6338 z m 0.5099,0.9003 c -0.1204,0 -0.2131,-0.0457 -0.2778,-0.1372 -0.0649,-0.0913 -0.0972,-0.2226 -0.0972,-0.3941 0,-0.1675 0.0323,-0.2976 0.0972,-0.3906 0.0647,-0.0927 0.1574,-0.1392 0.2778,-0.1392 0.1225,0 0.2158,0.0465 0.2795,0.1392 0.0638,0.093 0.0956,0.2231 0.0956,0.3906 0,0.1715 -0.0318,0.3028 -0.0956,0.3941 -0.0637,0.0915 -0.157,0.1372 -0.2795,0.1372 z m 0,-0.8989 c -0.0714,0 -0.1236,0.034 -0.1562,0.102 -0.0326,0.0678 -0.0493,0.1554 -0.0504,0.2625 0,0.1205 0.0161,0.2118 0.0482,0.2741 0.032,0.0621 0.085,0.0927 0.1584,0.0919 0.0777,-0.002 0.1313,-0.0343 0.1608,-0.0967 0.0297,-0.0621 0.0453,-0.1519 0.0476,-0.2693 -0.002,-0.1142 -0.0193,-0.2027 -0.0513,-0.265 -0.0323,-0.0621 -0.0845,-0.0953 -0.1571,-0.0995 z m 1.3045,0.8804 h -0.1621 v -0.5941 l -0.2373,0.5941 -0.2375,-0.5941 v 0.5941 h -0.1621 v -1.0258 h 0.1621 l 0.2375,0.5757 0.2373,-0.5757 h 0.1621 z m 0.5023,0.0185 c -0.1204,0 -0.2131,-0.0457 -0.2778,-0.1372 -0.0649,-0.0913 -0.0972,-0.2226 -0.0972,-0.3941 0,-0.1675 0.0323,-0.2976 0.0972,-0.3906 0.0647,-0.0927 0.1574,-0.1392 0.2778,-0.1392 0.1225,0 0.2158,0.0465 0.2795,0.1392 0.0638,0.093 0.0956,0.2231 0.0956,0.3906 0,0.1715 -0.0318,0.3028 -0.0956,0.3941 -0.0637,0.0915 -0.157,0.1372 -0.2795,0.1372 z m 0,-0.8989 c -0.0714,0 -0.1236,0.034 -0.1562,0.102 -0.0326,0.0678 -0.0493,0.1554 -0.0504,0.2625 0,0.1205 0.0161,0.2118 0.0482,0.2741 0.032,0.0621 0.085,0.0927 0.1584,0.0919 0.0777,-0.002 0.1313,-0.0343 0.1608,-0.0967 0.0297,-0.0621 0.0453,-0.1519 0.0476,-0.2693 -0.002,-0.1142 -0.0193,-0.2027 -0.0513,-0.265 -0.0323,-0.0621 -0.0845,-0.0953 -0.1571,-0.0995 z m -0.1377,-0.1882 0.0995,-0.2098 h 0.1777 l -0.1655,0.2098 z m 1.3841,0.0428 -0.3169,1.0258 h -0.1485 l -0.3124,-1.0258 h 0.1701 l 0.2188,0.6845 0.216,-0.6845 z m 0.7504,1.0258 h -0.637 v -1.0258 h 0.6046 v 0.1624 h -0.4422 v 0.2526 h 0.2985 v 0.1652 h -0.2985 v 0.2804 h 0.4746 z m 0.7886,0 h -0.637 v -1.0258 h 0.1624 v 0.8606 h 0.4746 z m -6.814,1.3275 c 0,0.0805 -0.0158,0.1514 -0.0476,0.2126 -0.0255,0.0513 -0.0663,0.0927 -0.1224,0.125 -0.0562,0.032 -0.1157,0.0482 -0.1792,0.0482 -0.0632,0 -0.1227,-0.0162 -0.1789,-0.0482 -0.0561,-0.0323 -0.0975,-0.0737 -0.1241,-0.125 -0.0306,-0.0612 -0.0459,-0.1321 -0.0459,-0.2126 v -0.6585 h 0.1624 v 0.6585 c 0,0.0663 0.017,0.1196 0.051,0.1599 0.0343,0.0402 0.0794,0.0606 0.1355,0.0606 0.0564,0 0.1015,-0.0204 0.1355,-0.0606 0.0343,-0.0403 0.0513,-0.0936 0.0513,-0.1599 v -0.6585 h 0.1624 z m 0.7855,-0.5145 h -0.2372 v 0.8819 h -0.1625 v -0.8819 h -0.2341 v -0.144 h 0.6338 z m 0.3708,0.8819 h -0.1656 v -1.0259 h 0.1656 z m 0.8419,0 h -0.637 v -1.0259 h 0.1625 v 0.8606 h 0.4745 z m 0.3676,0 h -0.1655 v -1.0259 h 0.1655 z m 0.8388,-0.8819 h -0.2373 v 0.8819 h -0.1624 v -0.8819 h -0.2341 v -0.144 h 0.6338 z m 0.4028,-0.1868 0.0995,-0.2098 h 0.1777 l -0.1655,0.2098 z m 0.5726,1.0687 h -0.1715 l -0.1009,-0.2878 h -0.32 l -0.1012,0.2878 h -0.1729 l 0.352,-1.0259 h 0.1624 z m -0.3308,-0.4533 -0.1009,-0.2877 -0.104,0.2877 z m 1.1347,0.4533 h -0.176 l -0.1656,-0.4456 h -0.1941 v 0.4456 h -0.1625 v -1.0259 h 0.4057 c 0.0839,0.001 0.1499,0.0315 0.1984,0.0913 0.0485,0.0595 0.0726,0.1253 0.0726,0.1967 0,0.0541 -0.0148,0.1052 -0.0443,0.1539 -0.0297,0.0485 -0.068,0.0834 -0.1148,0.1046 z m -0.1823,-0.7334 c 0,-0.0399 -0.0119,-0.0705 -0.036,-0.0918 -0.0238,-0.0215 -0.0507,-0.0326 -0.0802,-0.0337 h -0.2372 v 0.2525 h 0.2432 c 0.0306,0 0.0567,-0.011 0.0782,-0.0337 0.0213,-0.0224 0.032,-0.0536 0.032,-0.0933 z m 0.55,0.7334 h -0.1656 v -1.0259 h 0.1656 z m 0.5601,0.0184 c -0.1205,0 -0.2132,-0.0456 -0.2778,-0.1372 -0.0649,-0.0913 -0.0972,-0.2225 -0.0972,-0.394 0,-0.1676 0.0323,-0.2977 0.0972,-0.3906 0.0646,-0.0927 0.1573,-0.1392 0.2778,-0.1392 0.1224,0 0.2157,0.0465 0.2795,0.1392 0.0638,0.0929 0.0955,0.223 0.0955,0.3906 0,0.1715 -0.0317,0.3027 -0.0955,0.394 -0.0638,0.0916 -0.1571,0.1372 -0.2795,0.1372 z m 0,-0.8989 c -0.0714,0 -0.1236,0.034 -0.1562,0.1021 -0.0326,0.0677 -0.0493,0.1553 -0.0505,0.2625 0,0.1204 0.0162,0.2117 0.0482,0.2741 0.0321,0.062 0.0851,0.0927 0.1585,0.0918 0.0777,-0.002 0.1312,-0.0343 0.1607,-0.0967 0.0298,-0.062 0.0454,-0.1519 0.0476,-0.2692 -0.002,-0.1143 -0.0192,-0.2027 -0.0513,-0.2651 -0.0323,-0.0621 -0.0844,-0.0952 -0.157,-0.0995 z"
       style="fill:#ffffff;fill-rule:evenodd"
       id="path29051" />
    <path
       d="m 150.3923,172.5782 c 0.0757,-0.001 0.1301,-0.0369 0.1638,-0.1072 l 0.1517,0.0749 c -0.0624,0.1267 -0.1676,0.1916 -0.3155,0.1944 -0.1205,0 -0.2132,-0.0462 -0.2778,-0.1392 -0.0649,-0.0929 -0.0973,-0.223 -0.0973,-0.3903 0,-0.1675 0.0324,-0.2976 0.0973,-0.3906 0.0646,-0.0927 0.1573,-0.1392 0.2778,-0.1392 0.1479,0.003 0.2531,0.0678 0.3155,0.1945 l -0.1517,0.0748 c -0.0337,-0.0703 -0.0881,-0.106 -0.1638,-0.1071 -0.0715,0 -0.1236,0.034 -0.1562,0.102 -0.0326,0.0678 -0.0491,0.1562 -0.0491,0.2656 0,0.1092 0.0165,0.1976 0.0491,0.2656 0.0326,0.0678 0.0847,0.1018 0.1562,0.1018 z m 0.8268,0.1638 c -0.1204,0 -0.2131,-0.0456 -0.2778,-0.1372 -0.0649,-0.0912 -0.0972,-0.2225 -0.0972,-0.394 0,-0.1675 0.0323,-0.2976 0.0972,-0.3906 0.0647,-0.0927 0.1574,-0.1392 0.2778,-0.1392 0.1225,0 0.2158,0.0465 0.2795,0.1392 0.0638,0.093 0.0956,0.2231 0.0956,0.3906 0,0.1715 -0.0318,0.3028 -0.0956,0.394 -0.0637,0.0916 -0.157,0.1372 -0.2795,0.1372 z m 0,-0.8988 c -0.0714,0 -0.1236,0.034 -0.1562,0.102 -0.0326,0.0678 -0.0493,0.1554 -0.0504,0.2625 0,0.1205 0.0161,0.2117 0.0482,0.2741 0.032,0.0621 0.085,0.0927 0.1584,0.0919 0.0777,-0.002 0.1313,-0.0343 0.1608,-0.0967 0.0297,-0.0621 0.0453,-0.1519 0.0476,-0.2693 -0.002,-0.1142 -0.0193,-0.2027 -0.0513,-0.265 -0.0323,-0.0621 -0.0845,-0.0953 -0.1571,-0.0995 z m 1.3045,0.8804 h -0.1621 v -0.5941 l -0.2373,0.5941 -0.2375,-0.5941 v 0.5941 h -0.1621 v -1.0259 h 0.1621 l 0.2375,0.5758 0.2373,-0.5758 h 0.1621 z m 0.7841,0 h -0.6369 v -1.0259 h 0.6046 v 0.1625 h -0.4422 v 0.2525 h 0.2985 v 0.1653 h -0.2985 v 0.2803 h 0.4745 z m 0.8498,0 h -0.176 l -0.1655,-0.4456 h -0.1942 v 0.4456 h -0.1624 v -1.0259 h 0.4056 c 0.0839,0.001 0.1499,0.0315 0.1984,0.0913 0.0485,0.0596 0.0726,0.1253 0.0726,0.1967 0,0.0542 -0.0148,0.1052 -0.0442,0.154 -0.0298,0.0484 -0.0681,0.0833 -0.1148,0.1046 z m -0.1822,-0.7333 c 0,-0.04 -0.0119,-0.0706 -0.036,-0.0919 -0.0239,-0.0215 -0.0508,-0.0326 -0.0803,-0.0337 h -0.2372 v 0.2526 h 0.2432 c 0.0306,0 0.0567,-0.0111 0.0782,-0.0338 0.0213,-0.0224 0.0321,-0.0535 0.0321,-0.0932 z m 0.712,0.5879 c 0.0757,-0.001 0.1301,-0.0369 0.1639,-0.1072 l 0.1516,0.0749 c -0.0623,0.1267 -0.1675,0.1916 -0.3155,0.1944 -0.1204,0 -0.2131,-0.0462 -0.2778,-0.1392 -0.0649,-0.0929 -0.0972,-0.223 -0.0972,-0.3903 0,-0.1675 0.0323,-0.2976 0.0972,-0.3906 0.0647,-0.0927 0.1574,-0.1392 0.2778,-0.1392 0.148,0.003 0.2532,0.0678 0.3155,0.1945 l -0.1516,0.0748 c -0.0338,-0.0703 -0.0882,-0.106 -0.1639,-0.1071 -0.0714,0 -0.1236,0.034 -0.1562,0.102 -0.0326,0.0678 -0.049,0.1562 -0.049,0.2656 0,0.1092 0.0164,0.1976 0.049,0.2656 0.0326,0.0678 0.0848,0.1018 0.1562,0.1018 z m 0.6877,0.1454 h -0.1655 v -1.0259 h 0.1655 z m 1.0256,0 h -0.1715 l -0.1009,-0.2877 h -0.3201 l -0.1012,0.2877 h -0.1729 l 0.3521,-1.0259 h 0.1624 z m -0.3308,-0.4533 -0.1009,-0.2877 -0.1041,0.2877 z m 1.0735,0.4533 h -0.637 v -1.0259 h 0.1624 v 0.8606 h 0.4746 z m -6.7618,1.2492 h -0.1945 v 0.4456 h -0.1621 v -1.0258 h 0.3382 c 0.0757,0 0.1363,0.011 0.1822,0.0329 0.046,0.0221 0.0837,0.0569 0.1126,0.1048 0.0292,0.0482 0.0436,0.0981 0.0436,0.1503 0,0.0541 -0.0116,0.1029 -0.0351,0.1468 -0.0235,0.044 -0.059,0.0794 -0.1063,0.1066 -0.0476,0.0269 -0.1072,0.04 -0.1786,0.0388 z m 0.1562,-0.2891 c 0,-0.04 -0.0119,-0.0706 -0.036,-0.0921 -0.0238,-0.0213 -0.0508,-0.0326 -0.0802,-0.0335 h -0.2373 v 0.2526 h 0.2432 c 0.0306,0 0.0567,-0.0113 0.0783,-0.0337 0.0212,-0.0224 0.032,-0.0536 0.032,-0.0933 z m 0.6814,0.7532 c -0.1204,0 -0.2131,-0.0457 -0.2778,-0.1372 -0.0649,-0.0913 -0.0972,-0.2226 -0.0972,-0.394 0,-0.1676 0.0323,-0.2977 0.0972,-0.3907 0.0647,-0.0927 0.1574,-0.1391 0.2778,-0.1391 0.1225,0 0.2158,0.0464 0.2795,0.1391 0.0638,0.093 0.0956,0.2231 0.0956,0.3907 0,0.1714 -0.0318,0.3027 -0.0956,0.394 -0.0637,0.0915 -0.157,0.1372 -0.2795,0.1372 z m 0,-0.8989 c -0.0714,0 -0.1236,0.034 -0.1562,0.102 -0.0326,0.0678 -0.0493,0.1554 -0.0504,0.2625 0,0.1205 0.0161,0.2118 0.0482,0.2741 0.032,0.0621 0.085,0.0927 0.1584,0.0919 0.0777,-0.002 0.1313,-0.0343 0.1608,-0.0967 0.0297,-0.0621 0.0453,-0.1519 0.0476,-0.2693 -0.002,-0.1142 -0.0193,-0.2026 -0.0513,-0.265 -0.0323,-0.0621 -0.0845,-0.0952 -0.1571,-0.0995 z m 1.2082,0.8804 h -0.1761 l -0.1655,-0.4456 h -0.1942 v 0.4456 h -0.1624 v -1.0258 h 0.4056 c 0.0839,0.001 0.15,0.0314 0.1984,0.0913 0.0485,0.0595 0.0726,0.1252 0.0726,0.1967 0,0.0541 -0.0147,0.1051 -0.0442,0.1539 -0.0298,0.0485 -0.068,0.0833 -0.1148,0.1046 z m -0.1823,-0.7333 c 0,-0.04 -0.0119,-0.0706 -0.036,-0.0918 -0.0238,-0.0216 -0.0507,-0.0326 -0.0802,-0.0338 h -0.2373 v 0.2526 h 0.2432 c 0.0306,0 0.0567,-0.011 0.0783,-0.0337 0.0212,-0.0224 0.032,-0.0536 0.032,-0.0933 z m 1.3612,0.7333 h -0.637 v -1.0258 h 0.6047 v 0.1624 h -0.4422 v 0.2526 h 0.2985 v 0.1652 h -0.2985 v 0.2804 h 0.4745 z m 0.3676,0 h -0.1655 v -1.0258 h 0.1655 z m 0.8725,0 h -0.1836 l -0.1656,-0.3413 -0.1652,0.3413 h -0.1837 l 0.2557,-0.5281 -0.2373,-0.4977 h 0.1823 l 0.1482,0.3064 0.1471,-0.3064 h 0.1837 l -0.2404,0.4977 z m 0.4763,0.0185 c -0.1205,0 -0.2132,-0.0457 -0.2778,-0.1372 -0.0649,-0.0913 -0.0973,-0.2226 -0.0973,-0.394 0,-0.1676 0.0324,-0.2977 0.0973,-0.3907 0.0646,-0.0927 0.1573,-0.1391 0.2778,-0.1391 0.1224,0 0.2157,0.0464 0.2795,0.1391 0.0637,0.093 0.0955,0.2231 0.0955,0.3907 0,0.1714 -0.0318,0.3027 -0.0955,0.394 -0.0638,0.0915 -0.1571,0.1372 -0.2795,0.1372 z m 0,-0.8989 c -0.0715,0 -0.1236,0.034 -0.1562,0.102 -0.0326,0.0678 -0.0493,0.1554 -0.0505,0.2625 0,0.1205 0.0162,0.2118 0.0482,0.2741 0.032,0.0621 0.085,0.0927 0.1585,0.0919 0.0776,-0.002 0.1312,-0.0343 0.1607,-0.0967 0.0298,-0.0621 0.0453,-0.1519 0.0476,-0.2693 -0.002,-0.1142 -0.0193,-0.2026 -0.0513,-0.265 -0.0323,-0.0621 -0.0845,-0.0952 -0.157,-0.0995 z"
       style="fill:#ffffff;fill-rule:evenodd"
       id="path29053" />
    <path
       d="m 163.7165,166.0032 h -0.176 l -0.1656,-0.4456 h -0.1941 v 0.4456 h -0.1625 v -1.0258 h 0.4057 c 0.0839,0.001 0.1499,0.0314 0.1984,0.0912 0.0485,0.0596 0.0726,0.1253 0.0726,0.1968 0,0.0541 -0.0148,0.1051 -0.0442,0.1539 -0.0298,0.0485 -0.0681,0.0833 -0.1148,0.1046 z m -0.1822,-0.7333 c 0,-0.04 -0.012,-0.0706 -0.036,-0.0918 -0.0239,-0.0216 -0.0508,-0.0326 -0.0803,-0.0338 h -0.2372 v 0.2526 h 0.2432 c 0.0306,0 0.0567,-0.0111 0.0782,-0.0337 0.0213,-0.0224 0.0321,-0.0536 0.0321,-0.0933 z m 0.729,-0.4181 v 0.1746 h -0.1394 v -0.1746 z m 0,1.1528 v 0.1747 h -0.1394 v -0.1747 z m 0.0658,-0.7945 c -0.0326,-0.0601 -0.0834,-0.0907 -0.1517,-0.0918 -0.0397,0 -0.0728,0.0121 -0.0995,0.0368 -0.0266,0.0244 -0.0394,0.0536 -0.0382,0.0873 0,0.0244 0.0119,0.0465 0.036,0.0658 0.0241,0.0192 0.062,0.0331 0.1139,0.0414 0.1236,0.0212 0.2132,0.0629 0.2687,0.1247 0.0556,0.0618 0.0834,0.1324 0.0834,0.212 0,0.0879 -0.0332,0.1656 -0.0995,0.2336 -0.0663,0.0677 -0.1488,0.1018 -0.248,0.1018 -0.1571,-0.002 -0.2739,-0.0817 -0.3504,-0.239 l 0.1545,-0.078 c 0.0479,0.099 0.1142,0.1486 0.199,0.1486 0.049,8e-4 0.0915,-0.0162 0.1273,-0.0513 0.0357,-0.0352 0.0535,-0.0763 0.0535,-0.1233 9e-4,-0.0318 -0.0127,-0.063 -0.0414,-0.0941 -0.0286,-0.0312 -0.079,-0.0533 -0.1516,-0.0667 -0.0981,-0.0144 -0.1729,-0.0442 -0.2251,-0.0895 -0.0521,-0.0454 -0.0779,-0.0998 -0.0779,-0.163 -0.002,-0.0757 0.0243,-0.1452 0.0796,-0.2092 0.055,-0.0638 0.1279,-0.0956 0.2189,-0.0956 0.1275,0.003 0.2225,0.0633 0.2845,0.1806 z m 0.6338,1.0979 v -0.0981 h 0.8909 v 0.0981 z m 0.8513,0 v -0.0981 h 0.8909 v 0.0981 z m 1.1131,-0.3768 c 0,0.0562 -0.0133,0.1021 -0.0399,0.1378 -0.0264,0.0357 -0.0658,0.0604 -0.118,0.0734 v -0.0244 c 0.0491,-0.0286 0.0771,-0.0632 0.0842,-0.104 h -0.009 c -0.0216,0 -0.0406,-0.008 -0.0576,-0.0252 -0.0167,-0.017 -0.0252,-0.036 -0.0252,-0.0576 0,-0.0212 0.008,-0.0405 0.0252,-0.0572 0.017,-0.017 0.036,-0.0255 0.0576,-0.0255 0.0215,0 0.0405,0.008 0.0572,0.0255 0.017,0.0167 0.0255,0.036 0.0255,0.0572 z m 0.4422,0.3768 v -0.0981 h 0.891 v 0.0981 z m 0.8513,0 v -0.0981 h 0.8909 v 0.0981 z"
       style="fill:#ffffff;fill-rule:evenodd"
       id="path29055" />
    <path
       d="m 163.7165,169.4178 h -0.176 l -0.1656,-0.4456 h -0.1941 v 0.4456 h -0.1625 v -1.0258 h 0.4057 c 0.0839,0.001 0.1499,0.0314 0.1984,0.0913 0.0485,0.0595 0.0726,0.1253 0.0726,0.1967 0,0.0541 -0.0148,0.1051 -0.0442,0.1539 -0.0298,0.0485 -0.0681,0.0833 -0.1148,0.1046 z m -0.1822,-0.7333 c 0,-0.0399 -0.012,-0.0706 -0.036,-0.0918 -0.0239,-0.0216 -0.0508,-0.0326 -0.0803,-0.0338 h -0.2372 v 0.2526 h 0.2432 c 0.0306,0 0.0567,-0.011 0.0782,-0.0337 0.0213,-0.0224 0.0321,-0.0536 0.0321,-0.0933 z m 0.729,-0.4181 v 0.1746 h -0.1394 v -0.1746 z m 0,1.1529 v 0.1746 h -0.1394 v -0.1746 z m 0.0658,-0.7946 c -0.0326,-0.0601 -0.0834,-0.0907 -0.1517,-0.0918 -0.0397,0 -0.0728,0.0122 -0.0995,0.0368 -0.0266,0.0244 -0.0394,0.0536 -0.0382,0.0873 0,0.0244 0.0119,0.0465 0.036,0.0658 0.0241,0.0193 0.062,0.0332 0.1139,0.0414 0.1236,0.0212 0.2132,0.0629 0.2687,0.1247 0.0556,0.0618 0.0834,0.1324 0.0834,0.212 0,0.0879 -0.0332,0.1656 -0.0995,0.2336 -0.0663,0.0678 -0.1488,0.1018 -0.248,0.1018 -0.1571,-0.002 -0.2739,-0.0817 -0.3504,-0.239 l 0.1545,-0.0779 c 0.0479,0.0989 0.1142,0.1485 0.199,0.1485 0.049,8e-4 0.0915,-0.0162 0.1273,-0.0513 0.0357,-0.0352 0.0535,-0.0763 0.0535,-0.1233 9e-4,-0.0318 -0.0127,-0.063 -0.0414,-0.0941 -0.0286,-0.0312 -0.079,-0.0533 -0.1516,-0.0666 -0.0981,-0.0145 -0.1729,-0.0443 -0.2251,-0.0896 -0.0521,-0.0454 -0.0779,-0.0998 -0.0779,-0.163 -0.002,-0.0757 0.0243,-0.1451 0.0796,-0.2092 0.055,-0.0638 0.1279,-0.0955 0.2189,-0.0955 0.1275,0.003 0.2225,0.0632 0.2845,0.1805 z m 0.6338,1.0979 v -0.0981 h 0.8909 v 0.0981 z m 0.8513,0 v -0.0981 h 0.8909 v 0.0981 z m 1.1131,-0.3768 c 0,0.0562 -0.0133,0.1021 -0.0399,0.1378 -0.0264,0.0357 -0.0658,0.0604 -0.118,0.0734 v -0.0244 c 0.0491,-0.0286 0.0771,-0.0632 0.0842,-0.104 h -0.009 c -0.0216,0 -0.0406,-0.008 -0.0576,-0.0252 -0.0167,-0.017 -0.0252,-0.036 -0.0252,-0.0576 0,-0.0212 0.008,-0.0405 0.0252,-0.0572 0.017,-0.017 0.036,-0.0255 0.0576,-0.0255 0.0215,0 0.0405,0.008 0.0572,0.0255 0.017,0.0167 0.0255,0.036 0.0255,0.0572 z m 0.4422,0.3768 v -0.0981 h 0.891 v 0.0981 z m 0.8513,0 v -0.0981 h 0.8909 v 0.0981 z"
       style="fill:#ffffff;fill-rule:evenodd"
       id="path29057" />
    <path
       d="m 163.7165,173.4824 h -0.176 l -0.1656,-0.4456 h -0.1941 v 0.4456 h -0.1625 v -1.0258 h 0.4057 c 0.0839,0.001 0.1499,0.0314 0.1984,0.0913 0.0485,0.0595 0.0726,0.1252 0.0726,0.1967 0,0.0541 -0.0148,0.1051 -0.0442,0.1539 -0.0298,0.0485 -0.0681,0.0833 -0.1148,0.1046 z m -0.1822,-0.7333 c 0,-0.04 -0.012,-0.0706 -0.036,-0.0918 -0.0239,-0.0216 -0.0508,-0.0326 -0.0803,-0.0338 h -0.2372 v 0.2526 h 0.2432 c 0.0306,0 0.0567,-0.011 0.0782,-0.0337 0.0213,-0.0224 0.0321,-0.0536 0.0321,-0.0933 z m 0.729,-0.4181 v 0.1746 h -0.1394 v -0.1746 z m 0,1.1529 v 0.1746 h -0.1394 v -0.1746 z m 0.0658,-0.7946 c -0.0326,-0.0601 -0.0834,-0.0907 -0.1517,-0.0918 -0.0397,0 -0.0728,0.0122 -0.0995,0.0368 -0.0266,0.0244 -0.0394,0.0536 -0.0382,0.0873 0,0.0244 0.0119,0.0465 0.036,0.0658 0.0241,0.0193 0.062,0.0332 0.1139,0.0414 0.1236,0.0212 0.2132,0.0629 0.2687,0.1247 0.0556,0.0618 0.0834,0.1324 0.0834,0.212 0,0.0879 -0.0332,0.1656 -0.0995,0.2336 -0.0663,0.0678 -0.1488,0.1018 -0.248,0.1018 -0.1571,-0.002 -0.2739,-0.0817 -0.3504,-0.239 l 0.1545,-0.0779 c 0.0479,0.0989 0.1142,0.1485 0.199,0.1485 0.049,8e-4 0.0915,-0.0162 0.1273,-0.0513 0.0357,-0.0352 0.0535,-0.0763 0.0535,-0.1233 9e-4,-0.0318 -0.0127,-0.063 -0.0414,-0.0941 -0.0286,-0.0312 -0.079,-0.0533 -0.1516,-0.0667 -0.0981,-0.0144 -0.1729,-0.0442 -0.2251,-0.0895 -0.0521,-0.0454 -0.0779,-0.0998 -0.0779,-0.163 -0.002,-0.0757 0.0243,-0.1452 0.0796,-0.2092 0.055,-0.0638 0.1279,-0.0955 0.2189,-0.0955 0.1275,0.003 0.2225,0.0632 0.2845,0.1805 z m 0.6338,1.0979 v -0.0981 h 0.8909 v 0.0981 z m 0.8513,0 v -0.0981 h 0.8909 v 0.0981 z m 1.1131,-0.3768 c 0,0.0562 -0.0133,0.1021 -0.0399,0.1378 -0.0264,0.0357 -0.0658,0.0604 -0.118,0.0734 v -0.0244 c 0.0491,-0.0286 0.0771,-0.0632 0.0842,-0.104 h -0.009 c -0.0216,0 -0.0406,-0.008 -0.0576,-0.0252 -0.0167,-0.017 -0.0252,-0.036 -0.0252,-0.0576 0,-0.0212 0.008,-0.0405 0.0252,-0.0572 0.017,-0.017 0.036,-0.0255 0.0576,-0.0255 0.0215,0 0.0405,0.008 0.0572,0.0255 0.017,0.0167 0.0255,0.036 0.0255,0.0572 z m 0.4422,0.3768 v -0.0981 h 0.891 v 0.0981 z m 0.8513,0 v -0.0981 h 0.8909 v 0.0981 z"
       style="fill:#ffffff;fill-rule:evenodd"
       id="path29059" />
  </g>
  <path
     d="M 5.197359,150.42791 H 800.98462 V 651.71894 H 5.197359 Z"
     style="fill:#00620d;fill-opacity:1;fill-rule:evenodd;stroke-width:31.2016"
     id="path2246" />
  <path
     d="M 25.777904,160.57466 H 780.40405 c 2.82374,0 5.39164,1.15758 7.25749,3.02032 l 0.0125,0.0125 c 1.86273,1.86585 3.02031,4.43374 3.02031,7.25749 v 460.41694 c 0,2.82375 -1.15758,5.39476 -3.02031,7.25749 l -0.0125,0.0125 c -1.86585,1.86274 -4.43375,3.02032 -7.25749,3.02032 H 25.777904 c -2.823747,0 -5.394729,-1.15758 -7.257481,-3.02032 l -0.01223,-0.0125 C 16.64544,636.67667 15.48786,634.10566 15.48786,631.28191 V 170.86495 c 0,-2.82375 1.15758,-5.39163 3.020333,-7.25749 l 0.01223,-0.0125 c 1.862752,-1.86274 4.433734,-3.02032 7.257481,-3.02032 z M 780.40405,167.4359 H 25.777904 c -0.948536,0 -1.806574,0.38378 -2.427441,1.00156 -0.617809,0.62091 -1.00158,1.48208 -1.00158,2.42749 V 631.2819 c 0,0.94541 0.383771,1.80657 1.00158,2.42748 0.620867,0.61779 1.478905,1.00158 2.427441,1.00158 H 780.40405 c 0.94541,0 1.80345,-0.38379 2.42436,-1.00158 0.62092,-0.62091 1.0047,-1.48207 1.0047,-2.42748 V 170.86495 c 0,-0.94541 -0.38378,-1.80658 -1.0047,-2.42749 -0.62091,-0.61778 -1.47895,-1.00156 -2.42436,-1.00156 z"
     style="fill:#ffffff;fill-rule:evenodd;stroke-width:31.2016"
     id="path2248" />
  <path
     d="m 321.21957,253.10611 c 4.06868,-0.0624 7.00787,-1.9813 8.82069,-5.77541 l 8.16234,4.04061 c -3.35105,6.8113 -9.01102,10.30276 -16.98303,10.47125 -6.48058,0 -11.4697,-2.50237 -14.96429,-7.50711 -3.48521,-4.99849 -5.22626,-12.00325 -5.22626,-21.01427 0,-9.01414 1.74105,-16.0189 5.22626,-21.02363 3.49459,-4.9985 8.48371,-7.50086 14.96429,-7.50086 7.97201,0.156 13.63198,3.6537 16.98303,10.47125 l -8.16234,4.03437 c -1.81282,-3.78788 -4.75201,-5.71614 -8.82069,-5.76918 -3.84716,0 -6.64906,1.83153 -8.40883,5.48524 -1.75353,3.65371 -2.63653,8.42131 -2.63653,14.30281 0,5.8815 0.883,10.6491 2.63653,14.29969 1.75977,3.65371 4.56167,5.48524 8.40883,5.48524 z m 35.77886,-43.86008 c 0,1.26367 -0.4337,2.32452 -1.31982,3.17321 -0.87365,0.84868 -1.9189,1.28238 -3.12953,1.28238 -1.15133,0 -2.1841,-0.45866 -3.08583,-1.36039 -0.91108,-0.91109 -1.36351,-1.93762 -1.36351,-3.0952 0,-1.15134 0.45243,-2.18411 1.36351,-3.08896 0.90173,-0.91108 1.9345,-1.36038 3.08583,-1.36038 1.15758,0 2.18412,0.4493 3.0952,1.36038 0.90173,0.90485 1.35415,1.93762 1.35415,3.08896 z m 0.0874,51.68544 c -0.71764,9.4572 -4.39631,16.10627 -11.04537,19.94406 l -3.54762,-7.99385 c 3.35105,-2.79566 5.21691,-6.78323 5.60693,-11.95021 v -40.3031 h 8.98606 z m 18.45886,-3.87212 c 0,1.26367 -0.44306,2.31516 -1.3167,3.1732 -0.88613,0.8518 -1.92827,1.27615 -3.13265,1.27615 -1.15758,0 -2.1841,-0.45243 -3.09519,-1.36351 -0.90173,-0.90173 -1.36351,-1.93762 -1.36351,-3.08584 0,-1.16069 0.46178,-2.18411 1.36351,-3.09519 0.91109,-0.90173 1.93761,-1.35416 3.09519,-1.35416 1.15134,0 2.18411,0.45243 3.08584,1.35416 0.91109,0.91108 1.36351,1.9345 1.36351,3.09519 z m 73.37367,3.87212 h -9.23255 l -5.44156,-15.49471 h -17.2264 l -5.44156,15.49471 h -9.31991 l 18.96121,-55.2237 h 8.73956 z m -17.81299,-24.39965 -5.43844,-15.49783 -5.60069,15.49783 z m 46.6651,-14.09063 -2.88303,7.99384 c -1.65368,-1.65368 -3.32609,-2.44932 -5.03282,-2.39628 -3.68178,0.12481 -5.635,2.69894 -5.85653,7.74735 v 25.14537 h -8.89558 v -40.96769 h 8.81758 v 2.96415 c 1.48519,-2.19347 3.62562,-3.29177 6.42752,-3.29177 2.80503,0.0624 5.28243,0.99221 7.42286,2.80503 z m 36.67747,38.49028 h -8.48995 v -1.3167 c -2.14043,1.53823 -4.53671,2.33388 -7.17325,2.38691 -4.3963,-0.0624 -8.04064,-1.29798 -10.92367,-3.75043 -2.88303,-2.43996 -4.32454,-6.00318 -4.32454,-10.67406 0,-4.00628 1.33542,-7.37605 3.99692,-10.09996 2.6615,-2.71454 6.28088,-4.04996 10.84255,-3.99692 2.52109,0 4.89241,0.31201 7.08589,0.91109 0.1248,-4.01565 -1.9189,-6.20912 -6.10304,-6.59914 -3.56322,-0.0936 -6.78322,0.883 -9.64129,2.97039 l -4.36822,-6.67714 c 3.95324,-2.8019 8.54299,-4.29022 13.76302,-4.44935 4.29022,0 7.90649,1.22311 10.84255,3.66307 2.93607,2.44933 4.43999,6.00631 4.49303,10.67406 z m -9.23255,-9.31367 v -9.06407 c -2.415,-0.66459 -4.83936,-0.99221 -7.25437,-0.99221 -1.9189,0 -3.51954,0.63027 -4.7832,1.89394 -1.25743,1.26366 -1.86586,2.69894 -1.81281,4.29022 0,1.64432 0.64275,3.21064 1.93449,4.69584 1.29175,1.48519 3.04216,2.22779 5.23563,2.22779 2.36196,0 4.59287,-1.01717 6.68026,-3.05151 z m 16.4058,-11.04537 c 0,-5.65996 1.07021,-10.24972 3.21064,-13.76302 2.85495,-4.78321 7.39478,-7.17325 13.60389,-7.17325 7.96889,0 13.07971,3.37913 15.33559,10.1374 l -8.16545,3.29801 c -1.21063,-3.51954 -3.62563,-5.25435 -7.25125,-5.19195 -2.9704,0 -5.11083,1.5944 -6.43065,4.77697 -0.93605,2.25588 -1.40407,4.89241 -1.40407,7.91584 0,3.02344 0.46802,5.65997 1.40407,7.91585 1.31982,3.18256 3.46025,4.77696 6.43065,4.77696 3.62562,0.0624 6.04062,-1.67241 7.25125,-5.19195 l 8.16545,3.29802 c -2.25588,6.75826 -7.3667,10.13739 -15.33559,10.13739 -6.20911,0 -10.74894,-2.39005 -13.60389,-7.17325 -2.14043,-3.51329 -3.21064,-8.10305 -3.21064,-13.76302 z m 9.31368,34.86467 v -4.44935 c 1.64432,0.4961 3.21064,0.8674 4.69583,1.11701 1.4852,0.24962 2.77694,0.3713 3.87524,0.3713 0.93605,0 1.6256,-0.21841 2.05931,-0.62091 0.44306,-0.41498 0.66459,-1.06086 0.66459,-1.93762 0,-0.66148 -0.28081,-1.15758 -0.86741,-1.4852 -0.5741,-0.32761 -1.55695,-0.4961 -2.92671,-0.4961 -0.44306,0 -0.78003,0 -1.02652,0 -0.24962,0 -0.48675,0 -0.70828,0 v -7.00476 h 3.62562 v 2.63653 h 0.6646 c 2.30891,0 4.12173,0.54915 5.43844,1.65369 1.3167,1.0983 1.9813,2.68957 1.9813,4.77696 0,2.36196 -0.71764,4.14669 -2.14043,5.36044 -1.43216,1.21062 -3.49458,1.81281 -6.18104,1.81281 -1.21374,0 -2.57413,-0.15601 -4.08741,-0.45242 -1.51328,-0.31202 -3.20128,-0.73324 -5.06713,-1.28238 z m 60.99911,-14.50563 h -8.48996 v -1.3167 c -2.14042,1.53823 -4.5367,2.33388 -7.17324,2.38691 -4.39631,-0.0624 -8.04065,-1.29798 -10.92368,-3.75043 -2.88302,-2.43996 -4.32454,-6.00318 -4.32454,-10.67406 0,-4.00628 1.33543,-7.37605 3.99692,-10.09996 2.66462,-2.71454 6.28089,-4.04996 10.84568,-3.99692 2.52109,0 4.88929,0.31201 7.08276,0.91109 0.12481,-4.01565 -1.9189,-6.20912 -6.10303,-6.59914 -3.56322,-0.0936 -6.78323,0.883 -9.63817,2.97039 l -4.37135,-6.67714 c 3.95325,-2.8019 8.54612,-4.29022 13.76302,-4.44935 4.29023,0 7.90649,1.22311 10.84256,3.66307 2.93607,2.44933 4.43999,6.00631 4.49303,10.67406 z m -9.23255,-9.31367 v -9.06407 c -2.41501,-0.66459 -4.83937,-0.99221 -7.25125,-0.99221 -1.92202,0 -3.52266,0.63027 -4.78632,1.89394 -1.25743,1.26366 -1.86586,2.69894 -1.81282,4.29022 0,1.64432 0.64587,3.21064 1.93762,4.69584 1.29175,1.48519 3.04216,2.22779 5.23563,2.22779 2.36196,0 4.58975,-1.01717 6.67714,-3.05151 z m 45.91314,-1.56321 c -0.0624,3.51019 -1.42591,6.35889 -4.12173,8.52428 -2.68958,2.17787 -6.39633,3.29177 -11.12648,3.34481 -5.38852,-0.0624 -10.33085,-2.11547 -14.83324,-6.18416 l 5.76605,-5.77541 c 3.35105,2.64589 6.3776,3.99068 9.06719,4.04373 1.92825,0.0624 3.56322,-0.34634 4.90801,-1.19502 1.34478,-0.84869 1.99065,-1.90954 1.93761,-3.17321 0.0624,-1.26678 -0.54914,-2.44308 -1.81281,-3.54762 -1.26678,-1.09829 -3.30113,-2.19347 -6.10303,-3.29177 -4.06869,-1.3791 -7.03284,-3.07647 -8.90806,-5.11082 -1.86585,-2.03434 -2.79566,-4.3963 -2.79566,-7.09212 -0.15601,-2.68958 0.94853,-5.2013 3.33545,-7.54454 2.38692,-2.337 5.53829,-3.50394 9.43849,-3.50394 5.93453,0.12481 10.85191,2.22779 14.75211,6.34952 l -5.51956,5.51956 c -2.68959,-2.46804 -5.71302,-3.75978 -9.06406,-3.87211 -1.37288,0 -2.46182,0.28081 -3.25746,0.86428 -0.79563,0.58347 -1.22934,1.36351 -1.28238,2.3526 -0.0624,0.87676 0.24961,1.5944 0.94853,2.14043 0.68955,0.54915 2.40564,1.34479 5.1545,2.39005 3.9002,1.21061 7.12956,2.97039 9.68498,5.2793 2.55541,2.30892 3.83155,5.46652 3.83155,9.48216 z m -358.15996,94.30058 c 4.94233,-0.1248 7.88776,-3.51954 8.81757,-10.22476 h -8.48995 v -9.23256 h 18.4651 v 2.38693 c -0.053,8.51804 -1.74105,14.96429 -5.06714,19.3325 -3.32609,4.37135 -7.81912,6.55546 -13.47909,6.55546 -6.65218,-0.0624 -11.71932,-2.58349 -15.20454,-7.58823 -3.49145,-4.99849 -5.23562,-12.00325 -5.23562,-21.01427 0,-9.01414 1.74417,-16.0189 5.23562,-21.02364 3.48522,-4.99849 8.47436,-7.50086 14.95805,-7.50086 7.96888,0.15601 13.62885,3.65371 16.9799,10.47126 l -8.16233,4.03437 c -1.81282,-3.78788 -4.74889,-5.71302 -8.81757,-5.76606 -3.84716,0 -6.65218,1.82841 -8.41195,5.48212 -1.75041,3.6537 -2.63654,8.42131 -2.63654,14.30281 0,5.8815 0.88613,10.6491 2.63654,14.29969 1.75977,3.65371 4.56479,5.48524 8.41195,5.48524 z m 58.19721,7.82536 h -8.57108 v -2.05931 c -2.41501,2.03435 -5.63501,3.05152 -9.64129,3.05152 -4.67712,0 -8.16234,-1.59128 -10.47126,-4.78632 -2.30891,-3.18257 -3.46649,-6.88932 -3.46649,-11.12649 v -25.3825 h 8.48995 v 25.21401 c -0.10608,2.09675 0.58347,3.97196 2.05931,5.65373 1.48831,1.6724 3.35417,2.45868 5.61004,2.34323 2.35884,0 4.16541,-0.68019 5.40412,-2.0593 1.22934,-1.37286 1.84713,-3.35417 1.84713,-5.93766 v -25.21401 h 8.73957 z m 38.57765,0 h -8.48996 v -1.31671 c -2.14042,1.53824 -4.53671,2.33388 -7.17324,2.38693 -4.39631,-0.0624 -8.04065,-1.29799 -10.92368,-3.75044 -2.88303,-2.43996 -4.32454,-6.00318 -4.32454,-10.67407 0,-4.00628 1.33543,-7.37605 3.99692,-10.09995 2.66462,-2.71454 6.28088,-4.04996 10.84568,-3.99692 2.52108,0 4.88929,0.31202 7.08276,0.91108 0.11544,-4.01564 -1.9189,-6.20911 -6.10304,-6.59913 -3.56322,-0.0936 -6.78322,0.883 -9.63816,2.97039 l -4.37135,-6.67714 c 3.95324,-2.8019 8.54612,-4.29022 13.76302,-4.44935 4.29022,0 7.90649,1.2231 10.84256,3.66306 2.93606,2.44934 4.43999,6.00631 4.49303,10.67407 z m -9.23255,-9.31056 v -9.06718 c -2.41501,-0.66459 -4.83937,-0.98909 -7.25125,-0.98909 -1.92202,0 -3.52266,0.62716 -4.78633,1.89082 -1.25743,1.26366 -1.86586,2.69894 -1.81281,4.29021 0,1.64433 0.64587,3.21065 1.93762,4.69584 1.29175,1.4852 3.04215,2.2278 5.23562,2.2278 2.36196,0 4.58976,-1.01717 6.67715,-3.0484 z m 40.64007,-29.17972 -2.88303,7.99696 c -1.65368,-1.6568 -3.32608,-2.45244 -5.03281,-2.3994 -3.67867,0.1248 -5.63501,2.69894 -5.85342,7.74736 v 25.14536 h -8.89869 v -40.96769 h 8.81756 v 2.96415 c 1.4852,-2.19347 3.62563,-3.29177 6.43065,-3.29177 2.8019,0.0624 5.27931,0.99221 7.41974,2.80503 z m 36.67748,38.49028 h -8.48996 v -1.31671 c -2.14043,1.53824 -4.53671,2.33388 -7.17325,2.38693 -4.3963,-0.0624 -8.03753,-1.29799 -10.92368,-3.75044 -2.88303,-2.43996 -4.32453,-6.00318 -4.32453,-10.67407 0,-4.00628 1.33542,-7.37605 4.00004,-10.09995 2.6615,-2.71454 6.27776,-4.04996 10.84255,-3.99692 2.5211,0 4.88929,0.31202 7.08276,0.91108 0.12481,-4.01564 -1.9189,-6.20911 -6.0999,-6.59913 -3.56635,-0.0936 -6.78635,0.883 -9.6413,2.97039 l -4.37134,-6.67714 c 3.95636,-2.8019 8.54611,-4.29022 13.76302,-4.44935 4.29022,0 7.90648,1.2231 10.84255,3.66306 2.9392,2.44934 4.43999,6.00631 4.49304,10.67407 z m -9.23256,-9.31056 v -9.06718 c -2.415,-0.66459 -4.83937,-0.98909 -7.25125,-0.98909 -1.9189,0 -3.52266,0.62716 -4.78633,1.89082 -1.25429,1.26366 -1.86585,2.69894 -1.81281,4.29021 0,1.64433 0.64588,3.21065 1.93762,4.69584 1.29175,1.4852 3.04216,2.2278 5.23563,2.2278 2.36197,0 4.58975,-1.01717 6.67714,-3.0484 z m 16.81454,-31.48864 h 8.57731 v 2.5554 c 2.41501,-2.03434 5.63502,-3.05151 9.6413,-3.05151 4.67088,0 8.16234,1.5944 10.47126,4.77696 2.30891,3.19193 3.46026,6.89868 3.46026,11.12649 v 25.39186 h -8.49308 v -25.22337 c 0.12481,-2.08739 -0.57411,-3.97196 -2.05931,-5.64437 -1.47583,-1.67864 -3.35105,-2.45868 -5.59757,-2.3526 -2.37131,0 -4.16852,0.69267 -5.40411,2.06243 -1.2387,1.36975 -1.85961,3.35105 -1.85961,5.93454 v 25.22337 h -8.73645 z m 39.15488,-11.04537 8.57731,-4.29022 v 17.89099 c 2.41501,-2.03434 5.63501,-3.05151 9.6413,-3.05151 4.67088,0 8.16234,1.5944 10.47126,4.77696 2.30891,3.19193 3.46025,6.89868 3.46025,11.12649 v 25.39186 h -8.49307 v -25.22337 c 0.12481,-2.08739 -0.57411,-3.97196 -2.05931,-5.64437 -1.47583,-1.67864 -3.35105,-2.45868 -5.59757,-2.3526 -2.37131,0 -4.16852,0.69267 -5.40411,2.06243 -1.2387,1.36975 -1.85961,3.35105 -1.85961,5.93454 v 25.22337 h -8.73645 z m 71.305,51.84457 h -8.57108 v -2.05931 c -2.415,2.03435 -5.63501,3.05152 -9.64129,3.05152 -4.67712,0 -8.16234,-1.59128 -10.47126,-4.78632 -2.30891,-3.18257 -3.46649,-6.88932 -3.46649,-11.12649 v -25.3825 h 8.48995 v 25.21401 c -0.0936,2.09675 0.58347,3.97196 2.05931,5.65373 1.48831,1.6724 3.35417,2.45868 5.61005,2.34323 2.35884,0 4.1654,-0.68019 5.40411,-2.0593 1.22934,-1.37286 1.84714,-3.35417 1.84714,-5.93766 v -25.21401 h 8.73956 z m 7.00476,-40.7992 h 8.57732 v 2.5554 c 2.415,-2.03434 5.635,-3.05151 9.64128,-3.05151 4.67089,0 8.16235,1.5944 10.47126,4.77696 2.30892,3.19193 3.46026,6.89868 3.46026,11.12649 v 25.39186 h -8.49308 v -25.22337 c 0.12481,-2.08739 -0.57411,-3.97196 -2.0593,-5.64437 -1.47895,-1.67864 -3.35105,-2.45868 -5.59756,-2.3526 -2.37133,0 -4.16854,0.69267 -5.40412,2.06243 -1.2387,1.36975 -1.85962,3.35105 -1.85962,5.93454 v 25.22337 h -8.73644 z m 68.25348,29.92233 c -0.0624,3.51017 -1.42591,6.35888 -4.12173,8.52427 -2.68958,2.17787 -6.39633,3.29177 -11.12648,3.34481 -5.38852,-0.0624 -10.33085,-2.11547 -14.83324,-6.18415 l 5.76605,-5.77542 c 3.35105,2.64589 6.3776,3.99068 9.06719,4.04372 1.92825,0.0624 3.56322,-0.34633 4.90801,-1.19501 1.34478,-0.84869 1.99065,-1.90954 1.93761,-3.17321 0.0624,-1.26678 -0.54914,-2.44308 -1.81281,-3.54762 -1.26678,-1.09829 -3.30113,-2.19347 -6.10303,-3.29176 -4.06869,-1.37912 -7.03284,-3.07648 -8.90806,-5.11083 -1.86585,-2.03434 -2.79566,-4.3963 -2.79566,-7.09212 -0.15601,-2.68958 0.94853,-5.2013 3.33545,-7.54454 2.38692,-2.337 5.53829,-3.50395 9.43849,-3.50395 5.93453,0.12481 10.85191,2.2278 14.75211,6.34953 l -5.51956,5.51957 c -2.68959,-2.46805 -5.71302,-3.7598 -9.06406,-3.87212 -1.37288,0 -2.46182,0.28081 -3.25746,0.86428 -0.79563,0.58347 -1.22934,1.36351 -1.28238,2.3526 -0.0624,0.87676 0.24961,1.5944 0.94853,2.14043 0.68955,0.54915 2.40564,1.34479 5.1545,2.39004 3.9002,1.21062 7.12956,2.97039 9.68498,5.27931 2.55541,2.30892 3.83155,5.46652 3.83155,9.48217 z"
     style="fill:#ffffff;fill-rule:evenodd;stroke-width:31.2016"
     id="path2250" />
  <path
     d="M 18.919786,397.64749 H 787.26216 v 6.85811 H 18.919786 Z"
     style="fill:#ffffff;fill-rule:evenodd;stroke-width:31.2016"
     id="path2252" />
  <path
     d="m 740.06351,281.26242 -12.85193,-53.33599 c -0.34634,-1.74729 -2.43685,-5.14203 -6.79883,-4.30582 L 667.239,238.21047 c -7.28246,3.02344 -2.7551,10.30276 0.59282,10.46502 l 27.3794,4.73015 -26.59623,39.61355 22.721,13.45725 21.76311,-42.57458 17.63514,22.06265 c 3.87835,4.19037 10.79574,0.56475 9.32927,-4.70209 z"
     style="fill:#ffffff;fill-rule:evenodd;stroke-width:31.2016"
     id="path2254" />
  <path
     d="m 278.13953,449.79159 -17.06103,55.2237 h -7.99697 l -16.82078,-55.2237 h 9.15455 l 11.78796,36.84597 11.62259,-36.84597 z m 37.01445,55.2237 h -8.48996 v -1.31671 c -2.14042,1.53824 -4.53983,2.33388 -7.17324,2.38693 -4.39631,-0.0624 -8.04065,-1.30111 -10.92368,-3.75043 -2.88302,-2.43997 -4.32454,-6.00631 -4.32454,-10.67407 0,-4.00628 1.33543,-7.37606 3.99692,-10.09995 2.6615,-2.71766 6.28089,-4.05309 10.84256,-4.00005 2.52108,0 4.89241,0.31202 7.08588,0.91108 0.11544,-4.01564 -1.91889,-6.20911 -6.10303,-6.59601 -3.56322,-0.0936 -6.78323,0.883 -9.64129,2.97039 l -4.36823,-6.67714 c 3.95324,-2.80502 8.543,-4.29022 13.76302,-4.44935 4.2871,0 7.90649,1.21998 10.84256,3.66307 2.93607,2.44932 4.43999,6.00319 4.49303,10.67407 z m -9.23255,-9.31367 v -9.06406 c -2.41501,-0.6646 -4.83937,-0.99221 -7.25437,-0.99221 -1.9189,0 -3.51954,0.62715 -4.7832,1.89393 -1.25743,1.26366 -1.86899,2.69582 -1.81594,4.29022 0,1.64432 0.64587,3.21064 1.93762,4.69584 1.29175,1.48519 3.04215,2.2278 5.23562,2.2278 2.36196,0 4.59288,-1.01718 6.68027,-3.05152 z m 27.8599,9.31367 h -8.89869 v -51.68856 l 8.89869,-4.44622 z m 41.71029,-16.48692 h -23.73817 c 0,2.58349 0.68019,4.71456 2.0593,6.38696 1.37287,1.67865 3.1576,2.48365 5.35107,2.43061 3.0796,0.12481 5.4478,-1.23558 7.09525,-4.03125 l 7.82535,3.21065 c -2.74262,6.15607 -7.65998,9.31368 -14.75211,9.48217 -4.99849,0 -9.02038,-1.8409 -12.0719,-5.52893 -3.0515,-3.67867 -4.58351,-8.95173 -4.58351,-15.82232 0,-5.65998 1.47896,-10.57111 4.41503,-14.7178 2.94543,-4.14981 7.02348,-6.21848 12.24038,-6.21848 4.89241,0 8.80821,1.9189 11.74429,5.76606 2.94542,3.84716 4.41502,10.1998 4.41502,19.04233 z m -8.81757,-8.07498 c 0.053,-2.30891 -0.59283,-4.31517 -1.93762,-6.0219 -1.35415,-1.69736 -3.14824,-2.55541 -5.40412,-2.55541 -2.415,-0.0624 -4.34326,0.83932 -5.76605,2.68021 -1.43215,1.83778 -2.08738,3.80972 -1.9813,5.8971 z m 71.38301,24.5619 h -34.29055 v -55.2237 h 32.55885 v 8.73645 h -23.81929 v 13.59453 h 16.06882 v 8.90806 h -16.06882 v 15.07973 h 25.55099 z m 7.50086,-40.7992 h 8.58044 v 2.55541 c 2.41187,-2.03434 5.63188,-3.05152 9.63816,-3.05152 4.67089,0 8.16546,1.59129 10.47438,4.77697 2.3058,3.19192 3.45714,6.89867 3.45714,11.12649 v 25.39185 h -8.48996 v -25.22336 c 0.12481,-2.08739 -0.57723,-3.97197 -2.06242,-5.64438 -1.47584,-1.67864 -3.35106,-2.45868 -5.59756,-2.35259 -2.37133,0 -4.16542,0.68955 -5.40413,2.06242 -1.23869,1.36975 -1.85649,3.35105 -1.85649,5.93455 v 25.22336 h -8.73956 z m 38.74925,20.44017 c 0,-5.65998 1.07022,-10.25285 3.20753,-13.76303 2.85806,-4.78632 7.39477,-7.17325 13.60389,-7.17325 7.96889,0 13.08283,3.37914 15.33559,10.1374 l -8.16234,3.29801 c -1.21062,-3.51954 -3.62563,-5.25435 -7.25125,-5.19195 -2.97351,0 -5.11394,1.59129 -6.43065,4.77697 -0.93916,2.25587 -1.40719,4.88929 -1.40719,7.91585 0,3.02342 0.46803,5.65996 1.40719,7.91583 1.31671,3.18257 3.45714,4.77385 6.43065,4.77385 3.62562,0.0624 6.04063,-1.66929 7.25125,-5.19194 l 8.16234,3.30112 c -2.25276,6.75515 -7.3667,10.13428 -15.33559,10.13428 -6.20912,0 -10.74583,-2.38692 -13.60389,-7.17324 -2.13731,-3.51018 -3.20753,-8.09994 -3.20753,-13.7599 z m 70.31279,20.35903 h -8.48995 v -1.31671 c -2.14043,1.53824 -4.53671,2.33388 -7.17325,2.38693 -4.3963,-0.0624 -8.04064,-1.30111 -10.92367,-3.75043 -2.88303,-2.43997 -4.32454,-6.00631 -4.32454,-10.67407 0,-4.00628 1.33542,-7.37606 3.99692,-10.09995 2.6615,-2.71766 6.28088,-4.05309 10.84255,-4.00005 2.52109,0 4.89241,0.31202 7.08589,0.91108 0.1248,-4.01564 -1.9189,-6.20911 -6.10304,-6.59601 -3.56322,-0.0936 -6.78322,0.883 -9.64129,2.97039 l -4.36822,-6.67714 c 3.95324,-2.80502 8.54299,-4.29022 13.76302,-4.44935 4.2871,0 7.90649,1.21998 10.84255,3.66307 2.93608,2.44932 4.43999,6.00319 4.49303,10.67407 z m -9.23255,-9.31367 v -9.06406 c -2.415,-0.6646 -4.83936,-0.99221 -7.25437,-0.99221 -1.9189,0 -3.51954,0.62715 -4.7832,1.89393 -1.25742,1.26366 -1.86586,2.69582 -1.81281,4.29022 0,1.64432 0.64275,3.21064 1.93449,4.69584 1.29175,1.48519 3.04216,2.2278 5.23563,2.2278 2.36196,0 4.59287,-1.01718 6.68026,-3.05152 z m 16.81142,-31.48553 h 8.58044 v 2.55541 c 2.41501,-2.03434 5.635,-3.05152 9.64129,-3.05152 4.66776,0 8.16234,1.59129 10.47125,4.77697 2.30892,3.19192 3.45714,6.89867 3.45714,11.12649 v 25.39185 H 585.859 v -25.22336 c 0.1248,-2.08739 -0.57411,-3.97197 -2.06243,-5.64438 -1.47583,-1.67864 -3.35105,-2.45868 -5.59756,-2.35259 -2.37132,0 -4.16541,0.68955 -5.40412,2.06242 -1.2387,1.36975 -1.85649,3.35105 -1.85649,5.93455 v 25.22336 h -8.73957 z m 58.86181,31.98163 -2.39004,8.73957 c -1.37912,0.70516 -2.97039,1.07022 -4.78321,1.07022 -2.08739,0 -3.98132,-0.96414 -5.68805,-2.88615 -1.70673,-1.92515 -2.55541,-4.50863 -2.55541,-7.74736 v -22.50883 h -5.85654 v -8.15298 h 5.85654 v -11.63195 l 8.48995,-4.19973 v 15.83168 h 7.00476 v 7.99386 h -7.00476 v 21.67886 c 0,2.19347 0.82372,3.35105 2.47741,3.45713 1.36975,0.0624 2.85806,-0.4961 4.44935,-1.64432 z m 37.01444,8.81757 h -8.48995 v -1.31671 c -2.14042,1.53824 -4.53983,2.33388 -7.17324,2.38693 -4.39631,-0.0624 -8.04065,-1.30111 -10.92368,-3.75043 -2.88303,-2.43997 -4.32454,-6.00631 -4.32454,-10.67407 0,-4.00628 1.33543,-7.37606 3.99692,-10.09995 2.6615,-2.71766 6.28088,-4.05309 10.84256,-4.00005 2.52108,0 4.89241,0.31202 7.08588,0.91108 0.12481,-4.01564 -1.9189,-6.20911 -6.10304,-6.59601 -3.56322,-0.0936 -6.78322,0.883 -9.64129,2.97039 l -4.36822,-6.67714 c 3.95324,-2.80502 8.543,-4.29022 13.76302,-4.44935 4.2871,0 7.90649,1.21998 10.84256,3.66307 2.93606,2.44932 4.43999,6.00319 4.49302,10.67407 z m -9.23567,-9.31367 v -9.06406 c -2.41188,-0.6646 -4.83624,-0.99221 -7.25125,-0.99221 -1.91889,0 -3.51953,0.62715 -4.78632,1.89393 -1.25431,1.26366 -1.86586,2.69582 -1.81281,4.29022 0,1.64432 0.64587,3.21064 1.93762,4.69584 1.29174,1.48519 3.04215,2.2278 5.23562,2.2278 2.36196,0 4.58976,-1.01718 6.67714,-3.05152 z m 34.13143,10.30589 c -10.99232,0 -16.48381,-6.84564 -16.48381,-20.53065 0,-14.28409 5.54452,-21.53534 16.64293,-21.75688 3.30114,0.0624 5.82847,1.01718 7.58823,2.88303 v -13.35428 l 8.73957,-4.36822 v 56.13478 h -8.73957 v -1.39783 c -2.30579,1.59128 -4.88929,2.39005 -7.74735,2.39005 z m -7.91585,-20.60866 c 0.0624,8.51804 2.66462,12.80514 7.82848,12.85818 3.07648,0.0624 5.63501,-1.23559 7.66935,-3.87212 V 476.2443 c -1.59439,-2.68957 -4.06868,-4.03437 -7.42286,-4.03437 -5.38539,0.32763 -8.07497,4.72393 -8.07497,13.18892 z m 65.20197,-0.57411 c -0.0624,5.54453 -1.14822,10.08124 -3.28865,13.59142 -2.85806,4.78632 -7.36669,7.31677 -13.52277,7.59135 -6.15607,-0.28082 -10.65846,-2.80503 -13.51652,-7.59135 -2.14667,-3.51018 -3.24497,-8.04689 -3.29802,-13.59142 0.0625,-5.77541 1.15135,-10.42133 3.29802,-13.93151 2.9111,-4.61783 7.41349,-7.01412 13.51652,-7.17325 6.10303,0.15601 10.6023,2.55542 13.52277,7.17325 2.14043,3.51018 3.23561,8.1561 3.28865,13.93151 z m -16.89254,12.4432 c 3.18568,0 5.51956,-1.56632 7.00476,-4.69585 0.99221,-2.20282 1.48519,-4.75824 1.48519,-7.66935 0,-3.07647 -0.49298,-5.71301 -1.48519,-7.91584 -1.43216,-3.12952 -3.76603,-4.69584 -7.00476,-4.69584 -3.12952,0 -5.41348,1.56632 -6.84563,4.69584 -0.98909,2.20283 -1.47584,4.83937 -1.47584,7.91584 0,2.91111 0.48675,5.46653 1.47584,7.66935 1.65369,3.12953 3.93764,4.69585 6.84563,4.69585 z m -518.27097,98.99641 h -9.23565 l -5.43845,-15.49471 h -17.22948 l -5.43845,15.49471 h -9.32301 l 18.96115,-55.2237 h 8.7396 z m -17.81298,-24.40276 -5.4415,-15.49472 -5.59759,15.49472 z m 59.60131,-15.90034 -15.6632,40.3031 h -7.74739 l -15.49468,-40.3031 h 9.31368 l 10.05624,27.11731 9.72868,-27.11731 z m 14.26848,36.43098 c 0,1.26367 -0.44306,2.31516 -1.31983,3.1732 -0.883,0.84869 -1.92825,1.27303 -3.12952,1.27303 -1.16069,0 -2.18411,-0.44931 -3.09519,-1.36039 -0.90485,-0.90173 -1.36351,-1.93762 -1.36351,-3.08584 0,-1.16069 0.45866,-2.18723 1.36351,-3.09831 0.91108,-0.90173 1.9345,-1.35104 3.09519,-1.35104 1.14822,0 2.18411,0.44931 3.08584,1.35104 0.91109,0.91108 1.36351,1.93762 1.36351,3.09831 z m 49.54501,-3.95636 c 4.06869,-0.0624 7.00476,-1.9813 8.81757,-5.77541 l 8.16546,4.04373 c -3.35418,6.8113 -9.01414,10.30276 -16.98303,10.47125 -6.48369,0 -11.46971,-2.50237 -14.96428,-7.51023 -3.48522,-4.99537 -5.22627,-12.00013 -5.22627,-21.01427 0,-9.01102 1.74105,-16.01578 5.22627,-21.02363 3.49457,-4.99538 8.48059,-7.49774 14.96428,-7.49774 7.96889,0.156 13.62885,3.65058 16.98303,10.47125 l -8.16546,4.03124 c -1.81281,-3.78475 -4.74888,-5.71301 -8.81757,-5.76605 -3.84716,0 -6.64906,1.83153 -8.40883,5.48524 -1.75353,3.65059 -2.63654,8.41819 -2.63654,14.29969 0,5.8815 0.88301,10.6491 2.63654,14.30281 1.75977,3.65371 4.56167,5.48212 8.40883,5.48212 z m 34.13142,3.95636 c 0,1.26367 -0.44306,2.31516 -1.3167,3.1732 -0.88613,0.84869 -1.92826,1.27303 -3.13264,1.27303 -1.15758,0 -2.18412,-0.44931 -3.0952,-1.36039 -0.90173,-0.90173 -1.36039,-1.93762 -1.36039,-3.08584 0,-1.16069 0.45866,-2.18723 1.36039,-3.09831 0.91108,-0.90173 1.93762,-1.35104 3.0952,-1.35104 1.15134,0 2.18411,0.44931 3.08895,1.35104 0.91109,0.91108 1.36039,1.93762 1.36039,3.09831 z m 63.47652,3.87212 h -34.29055 v -55.2237 h 8.73957 v 46.31877 h 25.55098 z m 18.54935,-51.68856 c 0,1.26679 -0.4337,2.32764 -1.31983,3.17632 -0.87364,0.84869 -1.9189,1.28239 -3.12951,1.28239 -1.15135,0 -2.18412,-0.45866 -3.08585,-1.36039 -0.91108,-0.91109 -1.3635,-1.93762 -1.3635,-3.09832 0,-1.14822 0.45242,-2.18411 1.3635,-3.08584 0.90173,-0.91108 1.9345,-1.36038 3.08585,-1.36038 1.15757,0 2.18411,0.4493 3.09519,1.36038 0.90173,0.90173 1.35415,1.93762 1.35415,3.08584 z m 0.0936,51.68856 h -8.98607 v -40.3031 h 8.98607 z m 9.05782,-40.7992 h 8.57732 v 2.55541 c 2.415,-2.03435 5.635,-3.05152 9.64129,-3.05152 4.67088,0 8.16233,1.59129 10.47125,4.77697 2.30892,3.19192 3.46026,6.89867 3.46026,11.12648 v 25.39186 h -8.49308 v -25.22337 c 0.12481,-2.08739 -0.5741,-3.97196 -2.0593,-5.64436 -1.47584,-1.67865 -3.35105,-2.45869 -5.59756,-2.35261 -2.37133,0 -4.16854,0.68956 -5.40412,2.06243 -1.2387,1.36975 -1.85962,3.35105 -1.85962,5.93454 v 25.22337 h -8.73644 z m 56.47176,41.79141 c -10.99544,0 -16.48692,-6.84563 -16.48692,-20.53065 0,-14.28408 5.54452,-21.53534 16.64605,-21.75687 3.29801,0.0624 5.82846,1.01717 7.58823,2.88303 v -13.35428 l 8.73956,-4.36822 v 56.13478 h -8.73956 v -1.39783 c -2.30892,1.59128 -4.89241,2.39004 -7.74736,2.39004 z m -7.91584,-20.60865 c 0.0624,8.51804 2.6615,12.80513 7.82848,12.85818 3.07648,0.0624 5.63188,-1.23559 7.66623,-3.87212 v -18.14061 c -1.59128,-2.68957 -4.06869,-4.03436 -7.41974,-4.03436 -5.38539,0.32761 -8.07497,4.72392 -8.07497,13.18891 z m 64.79635,3.12952 h -23.74129 c 0,2.58349 0.68331,4.71456 2.06242,6.38696 1.36974,1.68177 3.1576,2.48365 5.35107,2.43061 3.07648,0.1248 5.4478,-1.23558 7.09213,-4.03125 l 7.82847,3.21065 c -2.74262,6.15607 -7.65998,9.31367 -14.75211,9.48216 -4.9985,0 -9.0235,-1.84089 -12.07502,-5.52892 -3.05151,-3.67867 -4.58039,-8.95174 -4.58039,-15.82233 0,-5.65996 1.47583,-10.5711 4.4119,-14.71779 2.94543,-4.14981 7.02349,-6.21848 12.24351,-6.21848 4.88929,0 8.80821,1.9189 11.74428,5.76606 2.94543,3.84715 4.41503,10.19979 4.41503,19.04233 z m -8.82069,-8.07497 c 0.0624,-2.30892 -0.59284,-4.31519 -1.9345,-6.02191 -1.35416,-1.69737 -3.15137,-2.55541 -5.40412,-2.55541 -2.415,-0.0624 -4.34326,0.83932 -5.76917,2.68022 -1.43215,1.83777 -2.08739,3.80971 -1.9813,5.8971 z m 15.40735,-16.23731 h 8.58043 v 2.55541 c 2.415,-2.03435 5.63501,-3.05152 9.64129,-3.05152 4.66776,0 8.16234,1.59129 10.47126,4.77697 2.30891,3.19192 3.45713,6.89867 3.45713,11.12648 v 25.39186 h -8.48995 v -25.22337 c 0.12481,-2.08739 -0.57411,-3.97196 -2.05931,-5.64436 -1.47895,-1.67865 -3.35417,-2.45869 -5.60068,-2.35261 -2.3682,0 -4.16541,0.68956 -5.40412,2.06243 -1.2387,1.36975 -1.85649,3.35105 -1.85649,5.93454 v 25.22337 h -8.74581 z m 56.47488,41.79141 c -2.85807,0 -5.44156,-0.79876 -7.75048,-2.39004 v 1.39783 h -8.73644 v -51.76656 l 8.73644,-4.36822 v 17.7225 c 1.75353,-1.86586 4.28086,-2.82998 7.58199,-2.88303 11.0984,0.21842 16.65228,7.47279 16.65228,21.75687 0,13.68502 -5.50084,20.53065 -16.48379,20.53065 z m 7.90648,-20.60865 c 0,-8.46499 -2.68958,-12.8613 -8.07497,-13.18891 -3.35418,0 -5.82846,1.34479 -7.42286,4.03436 v 18.14061 c 2.03434,2.63653 4.59287,3.92515 7.66935,3.87212 5.16386,-0.0625 7.77544,-4.34014 7.82848,-12.85818 z m 48.9709,3.12952 H 645.557 c 0,2.58349 0.68019,4.71456 2.0593,6.38696 1.37287,1.68177 3.1576,2.48365 5.35107,2.43061 3.0796,0.1248 5.45093,-1.23558 7.09525,-4.03125 l 7.82535,3.21065 c -2.73949,6.15607 -7.65686,9.31367 -14.75211,9.48216 -4.99537,0 -9.02038,-1.84089 -12.0719,-5.52892 -3.05151,-3.67867 -4.58039,-8.95174 -4.58039,-15.82233 0,-5.65996 1.47584,-10.5711 4.41191,-14.71779 2.94543,-4.14981 7.02348,-6.21848 12.24038,-6.21848 4.89241,0 8.81133,1.9189 11.7474,5.76606 2.94543,3.84715 4.41191,10.19979 4.41191,19.04233 z m -8.81757,-8.07497 c 0.0624,-2.30892 -0.59283,-4.31519 -1.93762,-6.02191 -1.35103,-1.69737 -3.14824,-2.55541 -5.40412,-2.55541 -2.415,-0.0624 -4.34326,0.83932 -5.76605,2.68022 -1.43215,1.83777 -2.08739,3.80971 -1.9813,5.8971 z m 39.23288,-13.92839 -2.88303,7.99384 c -1.65368,-1.65368 -3.32297,-2.44932 -5.03281,-2.39628 -3.67867,0.12481 -5.63189,2.69894 -5.85342,7.74735 v 25.14537 h -8.89869 v -40.96769 h 8.81756 v 2.96415 c 1.48832,-2.19347 3.62875,-3.29177 6.43065,-3.29177 2.80503,0.0624 5.27932,0.99221 7.41974,2.80503 z m 22.42147,39.48249 c -10.99233,0 -16.4838,-6.84563 -16.4838,-20.53065 0,-14.28408 5.54452,-21.53534 16.64293,-21.75687 3.30112,0.0624 5.82845,1.01717 7.58822,2.88303 v -2.55541 h 8.73957 v 39.56986 c -0.39002,10.76455 -5.30739,17.88475 -14.76147,21.34189 l -3.62563,-7.25125 c 6.59914,-2.63654 9.80666,-7.33237 9.64753,-14.09064 -2.3058,1.59128 -4.88929,2.39004 -7.74735,2.39004 z m -7.91585,-20.60865 c 0.0624,8.51804 2.66462,12.80513 7.82848,12.85818 3.07648,0.0624 5.63501,-1.23559 7.66935,-3.87212 v -18.14061 c -1.5944,-2.68957 -4.06868,-4.03436 -7.42285,-4.03436 -5.3854,0.32761 -8.07498,4.72392 -8.07498,13.18891 z"
     style="fill:#ffffff;fill-rule:evenodd;stroke-width:31.2016"
     id="path2256" />
  <path
     d="M 123.57306,507.2462 85.775484,467.48289 c -1.173172,-1.33855 -4.680231,-3.23248 -8.040691,-0.32761 l -38.755507,39.21728 c -4.792512,6.26216 2.76451,10.30277 5.747391,8.76764 l 26.07517,-9.59136 -3.226243,47.60427 26.405896,0.28082 -2.44311,-47.75092 26.30921,10.28716 c 5.45404,1.69113 9.62882,-4.90801 5.72546,-8.73645 z"
     style="fill:#ffffff;fill-rule:evenodd;stroke-width:31.2016"
     id="path2258" />
</svg>
