<?xml version="1.0" encoding="UTF-8" standalone="no"?>
<svg
   xmlns:dc="http://purl.org/dc/elements/1.1/"
   xmlns:cc="http://creativecommons.org/ns#"
   xmlns:rdf="http://www.w3.org/1999/02/22-rdf-syntax-ns#"
   xmlns:svg="http://www.w3.org/2000/svg"
   xmlns="http://www.w3.org/2000/svg"
   xmlns:sodipodi="http://sodipodi.sourceforge.net/DTD/sodipodi-0.dtd"
   xmlns:inkscape="http://www.inkscape.org/namespaces/inkscape"
   version="1.1"
   width="791.48932"
   height="791.48932"
   id="svg29062"
   viewBox="0 0 791.48933 791.48926"
   sodipodi:docname="R-1.svg"
   inkscape:version="1.0.2 (e86c870879, 2021-01-15)">
  <metadata
     id="metadata29068">
    <rdf:RDF>
      <cc:Work
         rdf:about="">
        <dc:format>image/svg+xml</dc:format>
        <dc:type
           rdf:resource="http://purl.org/dc/dcmitype/StillImage" />
        <dc:title />
      </cc:Work>
    </rdf:RDF>
  </metadata>
  <defs
     id="defs29066" />
  <sodipodi:namedview
     pagecolor="#ffffff"
     bordercolor="#666666"
     borderopacity="1"
     objecttolerance="10"
     gridtolerance="10"
     guidetolerance="10"
     inkscape:pageopacity="0"
     inkscape:pageshadow="2"
     inkscape:window-width="1920"
     inkscape:window-height="1016"
     id="namedview29064"
     showgrid="false"
     inkscape:zoom="0.049253423"
     inkscape:cx="2121.6925"
     inkscape:cy="5835.9279"
     inkscape:window-x="0"
     inkscape:window-y="27"
     inkscape:window-maximized="1"
     inkscape:current-layer="svg29062"
     inkscape:document-rotation="0" />
  <g
     id="Layer1010"
     transform="matrix(65.957993,0,0,65.957993,-207.85342,-279.497)">
    <path
       d="M 6.666,4.2375 3.1513,7.7522 v 4.9705 l 3.5147,3.5147 h 4.9705 l 3.5147,-3.5147 V 7.7522 L 11.6365,4.2375 Z"
       style="fill:#ff0000;fill-rule:evenodd"
       id="path27223" />
    <path
       d="M 3.7513,8.0007 6.9145,4.8375 h 4.4735 l 3.1632,3.1632 v 4.4735 L 11.388,15.6374 H 6.9145 L 3.7513,12.4742 Z m -0.4,-0.1657 v 4.8049 l 3.3975,3.3975 h 4.8048 l 3.3976,-3.3975 V 7.835 L 11.5536,4.4375 H 6.7488 Z"
       style="fill:#ffffff;fill-rule:evenodd"
       id="path27225" />
    <path
       d="m 6.3738,9.5795 c 0,0.0808 -0.0121,0.1591 -0.036,0.235 -0.0238,0.0763 -0.0569,0.148 -0.0986,0.2152 -0.042,0.0669 -0.0907,0.1258 -0.1463,0.1766 -0.055,0.0507 -0.1159,0.0913 -0.1814,0.121 -0.0689,0.0329 -0.1491,0.0581 -0.2404,0.076 -0.0912,0.0181 -0.1953,0.0269 -0.3121,0.0269 H 4.8026 v 1.3074 H 4.3267 V 8.7379 H 5.359 c 0.1228,0 0.2268,0.0068 0.3121,0.0202 0.0854,0.0133 0.1656,0.0379 0.2404,0.0739 0.0655,0.0329 0.1264,0.0754 0.1814,0.1276 0.0556,0.0522 0.1043,0.112 0.1463,0.1792 0.0417,0.0669 0.0748,0.1386 0.0986,0.2148 0.0239,0.076 0.036,0.1514 0.036,0.2259 z m -0.485,0 C 5.8888,9.5169 5.8715,9.4574 5.8372,9.4007 5.8029,9.3437 5.7601,9.2992 5.7094,9.2663 5.6674,9.2422 5.6278,9.2275 5.5906,9.2215 5.5529,9.2156 5.4968,9.2125 5.422,9.2125 H 4.8026 V 9.9466 H 5.422 c 0.0748,0 0.1309,-0.0028 0.1686,-0.0088 C 5.6278,9.9319 5.6674,9.9183 5.7094,9.8976 5.7601,9.8707 5.8029,9.8267 5.8372,9.7655 5.8715,9.7043 5.8888,9.6422 5.8888,9.5795 Z M 8.5917,11.7376 8.2954,10.896 H 7.3572 L 7.0607,11.7376 H 6.5536 L 7.5905,8.7379 h 0.4714 l 1.0372,2.9997 z M 7.8331,9.5708 7.5233,10.4124 h 0.6018 z m 3.2505,2.1668 -0.4847,-1.3074 h -0.5703 v 1.3074 H 9.5529 V 8.7379 h 0.9918 c 0.1171,0 0.2172,0.0068 0.3008,0.0202 0.0839,0.0133 0.1633,0.0379 0.2381,0.0739 0.0658,0.0329 0.1264,0.0754 0.1817,0.1276 0.0556,0.0522 0.1035,0.112 0.1437,0.1792 0.0403,0.0669 0.072,0.1386 0.0944,0.2148 0.0224,0.076 0.0335,0.1514 0.0335,0.2259 0,0.0808 -0.0111,0.1591 -0.0335,0.235 -0.0224,0.0763 -0.0541,0.148 -0.0944,0.2152 -0.0402,0.0669 -0.0898,0.1275 -0.1482,0.1811 -0.0581,0.0539 -0.1219,0.0955 -0.1905,0.1253 l 0.5298,1.4015 z M 11.0609,9.5795 c 0,-0.0626 -0.0164,-0.1221 -0.049,-0.1788 C 10.979,9.3437 10.9325,9.2992 10.8727,9.2663 10.8336,9.2453 10.7979,9.2312 10.765,9.2238 10.7318,9.2161 10.6766,9.2125 10.5989,9.2125 h -0.5703 v 0.7341 h 0.5703 c 0.0748,0 0.1292,-0.0028 0.1638,-0.0088 0.0343,-0.0059 0.0709,-0.0195 0.11,-0.0402 0.0598,-0.0329 0.1063,-0.0785 0.1392,-0.1366 0.0326,-0.0581 0.049,-0.1188 0.049,-0.1815 z m 1.0466,2.1581 V 8.7379 h 1.7731 v 0.4746 h -1.2975 v 0.7341 h 0.8757 v 0.4836 h -0.8757 v 0.8238 h 1.3918 v 0.4836 z"
       style="fill:#ffffff;fill-rule:evenodd"
       id="path27227" />
  </g>
</svg>
