<?xml version="1.0" encoding="UTF-8" standalone="no"?>
<svg
   xmlns:dc="http://purl.org/dc/elements/1.1/"
   xmlns:cc="http://creativecommons.org/ns#"
   xmlns:rdf="http://www.w3.org/1999/02/22-rdf-syntax-ns#"
   xmlns:svg="http://www.w3.org/2000/svg"
   xmlns="http://www.w3.org/2000/svg"
   xmlns:sodipodi="http://sodipodi.sourceforge.net/DTD/sodipodi-0.dtd"
   xmlns:inkscape="http://www.inkscape.org/namespaces/inkscape"
   version="1.1"
   width="791.48932"
   height="791.48932"
   id="svg29062"
   viewBox="0 0 791.48933 791.48926"
   sodipodi:docname="R-10.svg"
   inkscape:version="1.0.2 (e86c870879, 2021-01-15)">
  <metadata
     id="metadata29068">
    <rdf:RDF>
      <cc:Work
         rdf:about="">
        <dc:format>image/svg+xml</dc:format>
        <dc:type
           rdf:resource="http://purl.org/dc/dcmitype/StillImage" />
        <dc:title />
      </cc:Work>
    </rdf:RDF>
  </metadata>
  <defs
     id="defs29066" />
  <sodipodi:namedview
     pagecolor="#ffffff"
     bordercolor="#666666"
     borderopacity="1"
     objecttolerance="10"
     gridtolerance="10"
     guidetolerance="10"
     inkscape:pageopacity="0"
     inkscape:pageshadow="2"
     inkscape:window-width="1920"
     inkscape:window-height="1016"
     id="namedview29064"
     showgrid="false"
     inkscape:zoom="0.049253423"
     inkscape:cx="12.065434"
     inkscape:cy="1055.5662"
     inkscape:window-x="0"
     inkscape:window-y="27"
     inkscape:window-maximized="1"
     inkscape:current-layer="svg29062"
     showguides="false"
     inkscape:document-rotation="0" />
  <g
     id="Layer1023"
     transform="matrix(65.957993,0,0,65.957993,-2317.4803,-1157.5892)">
    <path
       d="m 41.1357,17.5504 c -3.3132,0 -6,2.6869 -6,6 0,3.3131 2.6868,5.9999 6,5.9999 3.3131,0 5.9999,-2.6868 5.9999,-5.9999 0,-3.3131 -2.6868,-6 -5.9999,-6 z m -4.8,6 c 0,-2.6505 2.1495,-4.8 4.8,-4.8 2.6505,0 4.7999,2.1495 4.7999,4.8 0,2.6505 -2.1494,4.7999 -4.7999,4.7999 -2.6505,0 -4.8,-2.1494 -4.8,-4.7999 z"
       style="fill:#ff0000;fill-rule:evenodd"
       id="path27428" />
    <path
       d="m 43.2702,20.997 c 0.0281,0.0011 0.0496,0.0148 0.0645,0.0409 l 0.6801,1.6486 c 0.017,0.0438 0.0089,0.0685 -0.0337,0.0678 -1.8958,0 -3.7916,0 -5.6875,0 -0.0426,7e-4 -0.0506,-0.024 -0.0336,-0.0678 l 0.6801,-1.6486 c 0.0148,-0.0261 0.0363,-0.0398 0.0645,-0.0409 1.4218,0 2.8437,0 4.2656,0 z m -5.26,1.8972 h 6.251 c 0.0923,0 0.1678,0.0755 0.1678,0.1679 v 1.5715 h -6.5447 c -0.0231,0 -0.042,-0.0189 -0.042,-0.042 v -1.5295 c 0,-0.0924 0.0756,-0.1679 0.1679,-0.1679 z m 5.2396,2.2613 h 0.9205 v 0.8116 c 0,0.0752 -0.0615,0.1367 -0.1367,0.1367 h -0.6471 c -0.0752,0 -0.1367,-0.0615 -0.1367,-0.1367 z m -5.1141,0 h 0.9205 v 0.8116 c 0,0.0752 -0.0615,0.1367 -0.1367,0.1367 h -0.6471 c -0.0752,0 -0.1367,-0.0615 -0.1367,-0.1367 z m -0.48,-0.4346 h 6.9599 v 0.3037 c 0,0.0428 -0.035,0.0779 -0.0779,0.0779 h -6.8041 c -0.0428,0 -0.0779,-0.0351 -0.0779,-0.0779 z m 5.3399,-0.4171 h 1.08 c 0.033,0 0.06,-0.027 0.06,-0.06 v -0.48 c 0,-0.033 -0.027,-0.06 -0.06,-0.06 h -1.08 c -0.0329,0 -0.0599,0.027 -0.0599,0.06 v 0.48 c 0,0.033 0.027,0.06 0.0599,0.06 z m -4.7999,0 h 1.08 c 0.033,0 0.06,-0.027 0.06,-0.06 v -0.48 c 0,-0.033 -0.027,-0.06 -0.06,-0.06 h -1.08 c -0.033,0 -0.06,0.027 -0.06,0.06 v 0.48 c 0,0.033 0.027,0.06 0.06,0.06 z m 5.4025,-1.8025 c 0.0204,-5e-4 0.0308,-0.0171 0.025,-0.0356 l -0.4558,-1.1458 c -0.0057,-0.0101 -0.0147,-0.0161 -0.0287,-0.0161 -1.3342,0 -2.6684,0 -4.0026,0 -0.014,0 -0.023,0.006 -0.0287,0.0161 l -0.4558,1.1458 c -0.0059,0.0185 0.0045,0.0351 0.025,0.0356 1.6405,0 3.2811,0 4.9216,0 z"
       style="fill:#000000;fill-rule:evenodd;stroke:#1b1918;stroke-width:0.216;stroke-linecap:butt;stroke-linejoin:miter;stroke-dasharray:none"
       id="path27430" />
    <path
       d="m 44.682,27.9453 0.8486,-0.8486 -7.9413,-7.9412 -0.8485,0.8485 z"
       style="fill:#ff0000;fill-rule:evenodd;stroke:#ff0000;stroke-width:0.0027;stroke-linecap:butt;stroke-linejoin:miter;stroke-dasharray:none"
       id="path27432" />
  </g>
</svg>
