<?xml version="1.0" encoding="UTF-8" standalone="no"?>
<svg
   xmlns:dc="http://purl.org/dc/elements/1.1/"
   xmlns:cc="http://creativecommons.org/ns#"
   xmlns:rdf="http://www.w3.org/1999/02/22-rdf-syntax-ns#"
   xmlns:svg="http://www.w3.org/2000/svg"
   xmlns="http://www.w3.org/2000/svg"
   xmlns:sodipodi="http://sodipodi.sourceforge.net/DTD/sodipodi-0.dtd"
   xmlns:inkscape="http://www.inkscape.org/namespaces/inkscape"
   version="1.1"
   width="791.48932"
   height="791.48932"
   id="svg29062"
   viewBox="0 0 791.48933 791.48926"
   sodipodi:docname="R-11.svg"
   inkscape:version="1.0.2 (e86c870879, 2021-01-15)">
  <metadata
     id="metadata29068">
    <rdf:RDF>
      <cc:Work
         rdf:about="">
        <dc:format>image/svg+xml</dc:format>
        <dc:type
           rdf:resource="http://purl.org/dc/dcmitype/StillImage" />
        <dc:title />
      </cc:Work>
    </rdf:RDF>
  </metadata>
  <defs
     id="defs29066" />
  <sodipodi:namedview
     pagecolor="#ffffff"
     bordercolor="#666666"
     borderopacity="1"
     objecttolerance="10"
     gridtolerance="10"
     guidetolerance="10"
     inkscape:pageopacity="0"
     inkscape:pageshadow="2"
     inkscape:window-width="1920"
     inkscape:window-height="1016"
     id="namedview29064"
     showgrid="false"
     inkscape:zoom="0.049253423"
     inkscape:cx="-957.86659"
     inkscape:cy="4957.8359"
     inkscape:window-x="0"
     inkscape:window-y="27"
     inkscape:window-maximized="1"
     inkscape:current-layer="svg29062"
     showguides="false"
     inkscape:document-rotation="0" />
  <g
     id="Layer1024"
     transform="matrix(65.957993,0,0,65.957993,-3287.4123,-1157.5892)">
    <path
       d="m 55.841,28.3503 c 2.6505,0 4.7999,-2.1494 4.7999,-4.7999 0,-2.6505 -2.1494,-4.8 -4.7999,-4.8 -2.6505,0 -4.8,2.1495 -4.8,4.8 0,2.6505 2.1495,4.7999 4.8,4.7999 z"
       style="fill:#ffffff;fill-rule:evenodd"
       id="path27435" />
    <path
       d="m 55.841,17.5504 c -3.3132,0 -6,2.6869 -6,6 0,3.3131 2.6868,5.9999 6,5.9999 3.3131,0 5.9999,-2.6868 5.9999,-5.9999 0,-3.3131 -2.6868,-6 -5.9999,-6 z m -4.8,6 c 0,-2.6505 2.1495,-4.8 4.8,-4.8 2.6505,0 4.7999,2.1495 4.7999,4.8 0,2.6505 -2.1494,4.7999 -4.7999,4.7999 -2.6505,0 -4.8,-2.1494 -4.8,-4.7999 z"
       style="fill:#ff0000;fill-rule:evenodd"
       id="path27437" />
    <path
       d="m 52.3788,22.2674 0.11,0.0702 0.0897,0.1202 0.0906,0.0897 0.0998,0.1007 0.1405,0.0601 0.0896,0.0795 0.1396,0.0499 h 0.1007 l 0.11,0.0101 h 0.1294 l 0.11,-0.0194 0.1608,-0.0203 h 0.22 l 0.1793,-0.0102 0.1507,0.0398 0.1793,0.0101 0.0573,0.0268"
       style="fill:none"
       id="path27439" />
    <path
       d="m 55.5602,23.8988 0.0092,0.0295 v 0.1303 l 0.0703,0.1304 0.0702,0.1599 0.0093,0.1599 -0.0398,0.0804 -0.0804,0.0499 -0.0296,0.0896 -0.06,-0.1497 -0.0703,-0.0702 -0.0896,-0.1294 -0.0204,-0.1405 -0.0601,-0.1599 -0.0896,-0.0906 -0.0102,-0.11 -0.0101,-0.1497 v -0.0499 h -0.1294 v 0.0397 0.0897 l -0.0102,0.1802 v 0.1405 l 0.0702,0.0998 0.0795,0.0398 0.0703,0.0305 0.06,0.0998 0.0195,0.1201 0.0508,0.1405 0.0397,0.1202 0.0398,0.0998 0.0601,0.0998 0.0804,0.0703 v 0.0998 l 0.0295,0.0499 0.0601,-0.0296"
       style="fill:none"
       id="path27441" />
    <path
       d="m 55.6794,25.1696 0.0703,0.0194 0.0795,0.0703 v 0.0906 l 0.0203,0.11 -0.22,-0.1008 -0.0499,-0.0795 -0.0601,-0.0305 h -0.0702 l -0.11,-0.3096 -0.1599,-0.2699 -0.0897,-0.1507 -0.1303,-0.0795 -0.1599,-0.1404 -0.1303,-0.1304 -0.0703,-0.0295 -0.0092,0.1395 0.0194,0.1303 0.0305,0.0999 0.0093,0.11 -0.11,0.1099 -0.1498,0.111 -0.0896,0.0795 -0.11,0.0905 -0.0601,0.1193 -0.0804,0.0508 0.0102,0.0601 0.0397,0.0896 -0.1802,0.0999 -0.0795,0.0101 0.0397,-0.1497 0.0499,-0.1008 v -0.0896 l 0.05,-0.0804 0.1007,-0.11 0.1294,-0.1202 0.0702,-0.0795 0.0805,-0.0998 V 24.5189 L 54.3189,24.3692 54.269,24.249 54.2191,24.1086 54.1987,23.9884 v -0.1497 l -0.1497,0.0702 -0.1599,0.0703 -0.1802,0.0499 -0.1294,0.0295 -0.1507,0.0601 -0.1396,0.0204 -0.0804,0.0101 h -0.0795 v 0.1895 l -0.0101,0.1202 -0.0102,0.1201 0.0102,0.1405 0.0499,0.11 0.1396,0.0897 0.0905,0.06 0.0398,0.0703 0.0203,0.0702 0.0795,-0.0305 0.11,0.0102 0.0906,0.2006 -0.0906,0.0397 -0.1396,-0.0499 -0.1405,-0.0703 -0.0795,-0.0905 -0.1303,-0.1396 -0.1303,-0.1202 -0.0693,-0.0896 -0.0102,-0.11 -0.0601,-0.2302 -0.0203,-0.1404 v -0.1405 -0.0897 l -0.0897,0.0102 -0.0998,0.0998 -0.1405,0.11 -0.1303,0.0601 -0.1294,0.0998 -0.0998,0.0906 -0.0508,0.17 -0.05,0.1701 -0.0194,0.0795 v 0.0702 l -0.0406,0.0601 0.0406,0.0703 0.0102,0.11 -0.0407,0.06 -0.0702,0.0601 -0.11,0.0203 -0.0092,-0.0905 0.0092,-0.1304 0.0305,-0.0693 v -0.0804 l 0.0102,-0.0702 0.06,-0.1498 -0.0101,-0.0998 0.0397,-0.0804 0.0398,-0.1303 0.06,-0.1599 0.0906,-0.1202 0.0897,-0.1303 0.1303,-0.1793 -0.0305,-0.1008 -0.0499,-0.0896 -0.0398,-0.1701 0.0102,-0.1506 -0.0102,-0.0999 -0.0101,-0.0795 -0.0499,-0.1201 -0.0703,-0.1405 -0.0296,-0.1701 -0.06,-0.1303 -0.0601,0.0305 -0.11,0.0102 -0.1701,0.0092 -0.0998,0.0509 -0.0601,0.06 -0.0905,-0.0203"
       style="fill:none"
       id="path27443" />
    <path
       d="m 51.4583,22.8081 -0.0795,-0.0499 -0.0398,-0.11 0.0296,-0.0804 0.11,-0.0601 0.0896,-0.1303 0.0906,-0.0998 0.0398,-0.0897 0.1303,-0.0407 0.0795,-0.0795 -0.0897,-0.1404 0.0204,-0.0601 0.1497,0.1007 -0.0203,-0.1201 0.0406,-0.0102 0.0693,0.0998 0.05,0.0601 0.06,0.0702 0.0703,0.0795 0.0804,0.0601 0.0397,0.0601"
       style="fill:none"
       id="path27445" />
    <path
       d="m 54.5361,22.8747 1.0241,1.024"
       style="fill:none"
       id="path27447" />
    <path
       d="M 54.2113,24.7914 Z"
       style="fill:#1b1918;fill-rule:evenodd"
       id="path27449" />
    <path
       d="M 54.3871,24.8369 Z"
       style="fill:#1b1918;fill-rule:evenodd"
       id="path27451" />
    <path
       d="m 52.3788,22.2674 -0.0028,0.0019 -0.0395,-0.0596 -0.0799,-0.0597 -2e-4,-2e-4 -3e-4,-3e-4 -0.0702,-0.0795 h -10e-5 l -0.0601,-0.0703 v 0 l -0.0499,-0.0601 -2e-4,-2e-4 -0.0679,-0.0978 -0.0353,0.0088 0.0198,0.117 0.0013,0.0079 -0.0066,-0.0045 -0.146,-0.0982 -0.0184,0.0542 0.0888,0.1391 0.0015,0.0023 -0.002,0.002 -0.0795,0.0795 -6e-4,6e-4 -8e-4,2e-4 -0.1288,0.0402 -0.0391,0.0883 -2e-4,5e-4 -4e-4,4e-4 -0.0904,0.0996 -0.0896,0.1302 -4e-4,6e-4 -7e-4,4e-4 -0.1089,0.0595 -0.0287,0.078 0.0389,0.1077 0.078,0.049 0.0881,0.0198 0.0588,-0.0588 4e-4,-4e-4 5e-4,-2e-4 0.0998,-0.0508 6e-4,-4e-4 h 8e-4 l 0.1699,-0.0092 10e-5,-10e-5 0.1092,-0.0101 0.0595,-0.0302 0.0032,-0.0016 0.0015,0.0033 0.0601,0.1303 2e-4,4e-4 1e-4,4e-4 0.0294,0.1696 0.0701,0.14 1e-4,3e-4 0.0499,0.1201 1e-4,4e-4 10e-5,5e-4 0.0102,0.0795 v 10e-5 l 0.0102,0.0998 v 4e-4 2e-4 l -0.0102,0.1502 0.0396,0.1691 0.0496,0.0892 2e-4,4e-4 1e-4,2e-4 0.0305,0.1008 5e-4,0.0016 -10e-4,0.0014 -0.1303,0.1792 v 10e-5 l -0.0896,0.1303 -1e-4,10e-5 -0.0903,0.1198 -0.0598,0.1592 v 0 l -0.0398,0.1303 -1e-4,2e-4 -1e-4,3e-4 -0.0393,0.0795 0.0101,0.0989 10e-5,8e-4 -4e-4,8e-4 -0.0599,0.1494 -0.01,0.0694 v 0.0803 8e-4 l -3e-4,6e-4 -0.0303,0.0688 -0.0092,0.1295 0.0088,0.0865 0.1055,-0.0195 0.0691,-0.0592 0.0397,-0.0587 -0.0099,-0.108 -0.0403,-0.0696 -0.0011,-0.0018 0.0012,-0.0018 0.0401,-0.0592 v -0.0692 -4e-4 l 1e-4,-4e-4 0.0194,-0.0795 v -2e-4 l 0.0499,-0.17 0.0509,-0.1701 2e-4,-9e-4 8e-4,-7e-4 0.0998,-0.0905 2e-4,-2e-4 0.1294,-0.0999 3e-4,-2e-4 4e-4,-2e-4 0.13,-0.0599 0.1399,-0.1095 0.0997,-0.0998 9e-4,-8e-4 0.0012,-10e-5 0.0896,-0.0102 0.0038,-5e-4 v 0.0039 0.0897 0.1403 l 0.0203,0.1399 0.0601,0.23 v 3e-4 3e-4 l 0.0101,0.1089 0.0686,0.0887 0.1301,0.12 1e-4,10e-5 0.1304,0.1396 v 10e-5 l 0.0791,0.09 0.1396,0.0699 0.1382,0.0494 0.0861,-0.0378 -0.0883,-0.1956 -0.1072,-0.0099 -0.0788,0.0302 -0.0035,0.0014 -10e-4,-0.0036 -0.0202,-0.0699 -0.0392,-0.0692 -0.0898,-0.0595 v -10e-5 l -0.1396,-0.0896 -8e-4,-5e-4 -4e-4,-0.001 -0.05,-0.11 -3e-4,-6e-4 v -6e-4 l -0.0102,-0.1404 v -3e-4 -3e-4 l 0.0102,-0.1201 0.0102,-0.1202 v -0.1892 -0.0034 h 0.0035 0.0794 l 0.08,-0.0101 v 0 l 0.1391,-0.0203 0.1503,-0.06 h 2e-4 l 3e-4,-10e-5 0.1292,-0.0295 2e-4,-10e-5 0.1797,-0.0497 0.1597,-0.0702 h 1e-4 l 0.1497,-0.0702 0.0049,-0.0023 v 0.0054 0.1494 l 0.0202,0.1195 0.0498,0.1401 v 2e-4 l 0.0499,0.12 v 2e-4 l 1e-4,2e-4 0.0407,0.1497 10e-5,5e-4 v 4e-4 0.0906 0.0013 l -8e-4,9e-4 -0.0804,0.0998 -10e-5,10e-5 -0.0702,0.0795 -2e-4,3e-4 -0.1293,0.1199 -1e-4,2e-4 -0.1004,0.1096 -0.0492,0.0793 v 0.0886 8e-4 l -4e-4,8e-4 -0.0497,0.1004 -0.0383,0.1445 0.0737,-0.0095 0.1769,-0.0979 -0.0385,-0.0868 -2e-4,-4e-4 v -4e-4 l -0.0102,-0.0601 -4e-4,-0.0023 0.002,-0.0012 0.0796,-0.0504 0.0596,-0.1183 3e-4,-7e-4 6e-4,-4e-4 0.1099,-0.0905 1e-4,-10e-5 0.0895,-0.0794 3e-4,-2e-4 0.1495,-0.1108 0.1087,-0.1086 -0.0091,-0.1081 -0.0304,-0.0995 -1e-4,-10e-5 v -4e-4 l -0.0194,-0.1303 -1e-4,-4e-4 v -3e-4 l 0.0093,-0.1396 3e-4,-0.0048 0.0045,0.0019 0.0702,0.0296 7e-4,2e-4 4e-4,5e-4 0.1302,0.1302 2e-4,1e-4 0.1594,0.1401 0.1301,0.0794 8e-4,4e-4 4e-4,8e-4 0.0897,0.1506 v 0 l 0.1599,0.2699 10e-5,4e-4 2e-4,2e-4 0.1091,0.3074 h 0.0678 8e-4 l 8e-4,4e-4 0.0601,0.0304 8e-4,5e-4 5e-4,8e-4 0.0494,0.0786 0.213,0.0975 -0.0191,-0.1034 -1e-4,-4e-4 v -2e-4 -0.0891 l -0.0777,-0.0687 -0.0682,-0.0188 -0.0589,0.029 -0.0029,0.0014 -0.0016,-0.0027 -0.0296,-0.05 -5e-4,-8e-4 v -9e-4 -0.0983 l -0.0792,-0.0692 -4e-4,-3e-4 -3e-4,-5e-4 -0.0601,-0.0998 -2e-4,-3e-4 v -2e-4 l -0.0398,-0.0998 v -2e-4 l -0.0398,-0.1201 v -10e-5 l -0.0508,-0.1404 -10e-5,-3e-4 -1e-4,-3e-4 L 55.2962,24.4 55.2371,24.3017 55.1678,24.2716 h -10e-5 l -0.0795,-0.0398 -8e-4,-4e-4 -5e-4,-7e-4 -0.0702,-0.0998 -7e-4,-9e-4 v -0.0011 -0.1405 -2e-4 l 0.0102,-0.18 v -2e-4 -0.0895 -0.0397 -0.0035 h 0.0035 0.1294 0.0034 v 0.0035 0.0496 3e-4 l 0.0101,0.1494 10e-5,10e-5 0.01,0.1087 0.0888,0.0897 5e-4,5e-4 3e-4,7e-4 0.06,0.1599 2e-4,3e-4 v 4e-4 l 0.0202,0.1397 0.089,0.1284 0.0701,0.0701 4e-4,4e-4 4e-4,8e-4 0.0565,0.1409 0.0266,-0.0807 4e-4,-0.0012 0.0011,-6e-4 0.0796,-0.0494 0.0389,-0.0787 -0.0092,-0.1584 -0.0699,-0.1591 -1e-4,-3e-4 -0.0701,-0.13 -4e-4,-8e-4 v -8e-4 -0.1299 l -0.0086,-0.0273 -0.0037,0.0037 -1.0241,-1.0241 0.0039,-0.0039 -0.0555,-0.0259 -0.1787,-0.0102 h -3e-4 l -4e-4,-10e-5 -0.1501,-0.0396 -0.1788,0.0102 h -2e-4 -0.2199 l -0.1603,0.0202 v 0 l -0.11,0.0195 h -3e-4 -3e-4 -0.1294 -10e-5 -2e-4 l -0.1097,-0.0102 h -0.1007 -6e-4 l -6e-4,-2e-4 -0.1395,-0.0499 -6e-4,-2e-4 -6e-4,-5e-4 -0.0892,-0.0791 -0.14,-0.0598 -6e-4,-3e-4 -5e-4,-5e-4 -0.0998,-0.1007 v 0 l -0.0905,-0.0897 -2e-4,-10e-5 -2e-4,-2e-4 -0.0892,-0.1196 -0.1095,-0.07 z"
       style="fill:#000000;fill-rule:evenodd"
       id="path27453" />
    <path
       d="m 58.0111,24.8785 -0.0024,0.0024 -0.2403,-0.2403 0.0024,-0.0024 -0.0017,-0.003 0.0048,-0.0028 5e-4,-4e-4 0.0705,-0.0412 8e-4,-5e-4 h 9e-4 0.0878 9e-4 l 8e-4,5e-4 0.0768,0.0444 7e-4,5e-4 5e-4,7e-4 0.0444,0.0758 5e-4,8e-4 v 10e-4 0.0887 9e-4 l -5e-4,8e-4 -0.0364,0.0622 -0.0033,0.0055 v 10e-5 l -0.0037,0.0063 -10e-4,0.0017 z"
       style="fill:#1b1918;fill-rule:evenodd"
       id="path27455" />
    <path
       d="m 57.7764,24.6389 0.0483,0.0483 0.1423,0.1422 0.0434,0.0435 0.0033,-0.0057 v -10e-5 l 0.0031,-0.0052 0.0352,-0.0601 v -0.0869 l -0.0434,-0.0742 -0.0751,-0.0435 h -0.086 l -0.0679,0.0399 -6e-4,3e-4 -0.0013,8e-4 z"
       style="fill:#000000;fill-rule:evenodd"
       id="path27457" />
    <path
       d="m 58.4409,25.3043 3e-4,2e-4 0.1031,0.1024 0.0211,0.021 0.0084,-0.0105 0.1221,-0.1526 0.092,-0.1925 0.0479,-0.2071 v -0.2137 l -0.0479,-0.2072 -0.0921,-0.1916 -0.1325,-0.1666 -0.1668,-0.1327 -0.1915,-0.093 -0.2081,-0.0469 h -0.2128 l -0.2072,0.0469 -0.1914,0.093 -0.1637,0.1302 -4e-4,3e-4 0.102,0.102 0.0217,0.0216 0.1574,-0.1202 4e-4,-3e-4 4e-4,-10e-5 0.1867,-0.0777 3e-4,-10e-5 6e-4,-10e-5 0.1996,-0.0259 h 5e-4 4e-4 l 0.1997,0.0259 5e-4,10e-5 4e-4,10e-5 0.1857,0.0777 4e-4,10e-5 4e-4,3e-4 0.1599,0.122 4e-4,4e-4 2e-4,3e-4 0.123,0.1598 2e-4,4e-4 2e-4,4e-4 0.0768,0.1867 10e-5,4e-4 1e-4,5e-4 0.0268,0.1997 v 4e-4 5e-4 l -0.0268,0.1996 -1e-4,5e-4 -10e-5,4e-4 -0.0768,0.1867 -2e-4,4e-4 -2e-4,4e-4 -0.1129,0.1468 -6e-4,7e-4 z"
       style="fill:#000000;fill-rule:evenodd"
       id="path27459" />
    <path
       d="M 59.4782,23.5505 V 23.53 23.2367 h -1.6337 v 0.0427 0.2711 h 0.0203 0.2125 z"
       style="fill:#ffffff;fill-rule:evenodd"
       id="path27461" />
    <path
       d="m 59.3873,27.9453 0.8486,-0.8486 -7.9413,-7.9412 -0.8485,0.8485 z"
       style="fill:#ff0000;fill-rule:evenodd;stroke:#ff0000;stroke-width:0.0027;stroke-linecap:butt;stroke-linejoin:miter;stroke-dasharray:none"
       id="path27463" />
    <path
       d="m 57.8445,23.2367 h 1.6337 v 0.2933 0.0205 h -1.4009 -0.2125 -0.0203 v -0.2711 z m -0.3069,0.5634 h 2.1243 0.1536 l -4e-4,-0.0206 -0.0032,-0.1527 -0.15,0.0027 v -0.0034 h -0.0035 v -1.2497 h 0.0035 V 22.373 h 0.0226 0.131 l -4e-4,-0.02 -0.0032,-0.1533 -0.15,0.0027 V 22.199 h -0.0035 v -0.1491 h -0.1533 -0.02 v 0.1279 0.0221 h -0.0034 v 0.0035 h -3.4809 v -0.0035 h -0.0034 v -0.15 H 55.824 v 0.0889 0.5461 l 0.5449,0.5449 h 1.1056 0.1863 v 0.0034 h 0.0035 v 0.2746 0.0462 h -0.0035 v 0.0034 h -0.947 -0.0172 l 0.2426,0.2427 h 0.241 0.1711 z m 0.5397,-1.1064 h -0.2125 -0.0203 v -0.2711 -0.0427 h 1.6337 v 0.2933 0.0205 z m -0.413,-0.3173 v 0.2746 0.0462 h -0.0035 v 0.0034 h -1.66 v -0.0034 h -0.0034 v -0.3208 h 0.0034 V 22.373 h 0.2391 1.1819 0.239 v 0.0034 z"
       style="fill:#000000;fill-rule:evenodd"
       id="path27465" />
  </g>
</svg>
