<?xml version="1.0" encoding="UTF-8" standalone="no"?>
<svg
   xmlns:dc="http://purl.org/dc/elements/1.1/"
   xmlns:cc="http://creativecommons.org/ns#"
   xmlns:rdf="http://www.w3.org/1999/02/22-rdf-syntax-ns#"
   xmlns:svg="http://www.w3.org/2000/svg"
   xmlns="http://www.w3.org/2000/svg"
   xmlns:sodipodi="http://sodipodi.sourceforge.net/DTD/sodipodi-0.dtd"
   xmlns:inkscape="http://www.inkscape.org/namespaces/inkscape"
   version="1.1"
   width="791.48932"
   height="791.48932"
   id="svg29062"
   viewBox="0 0 791.48933 791.48926"
   sodipodi:docname="R-12.svg"
   inkscape:version="1.0.2 (e86c870879, 2021-01-15)">
  <metadata
     id="metadata29068">
    <rdf:RDF>
      <cc:Work
         rdf:about="">
        <dc:format>image/svg+xml</dc:format>
        <dc:type
           rdf:resource="http://purl.org/dc/dcmitype/StillImage" />
        <dc:title />
      </cc:Work>
    </rdf:RDF>
  </metadata>
  <defs
     id="defs29066" />
  <sodipodi:namedview
     pagecolor="#ffffff"
     bordercolor="#666666"
     borderopacity="1"
     objecttolerance="10"
     gridtolerance="10"
     guidetolerance="10"
     inkscape:pageopacity="0"
     inkscape:pageshadow="2"
     inkscape:window-width="1920"
     inkscape:window-height="1016"
     id="namedview29064"
     showgrid="false"
     inkscape:zoom="0.049253423"
     inkscape:cx="4112.7036"
     inkscape:cy="6862.4164"
     inkscape:window-x="0"
     inkscape:window-y="27"
     inkscape:window-maximized="1"
     inkscape:current-layer="svg29062"
     showguides="false"
     inkscape:document-rotation="0" />
  <path
     d="m 385.9565,454.6522 10.4279,22.0761 c 8.2976,-4.4389 13.9502,-13.086 13.9502,-22.9929 0,-14.4052 -11.9516,-26.159 -26.6009,-26.159 -14.6493,0 -26.5943,11.7538 -26.5943,26.159 0,14.4052 11.945,26.1523 26.5943,26.1523 3.3507,0 6.5562,-0.62 9.5177,-1.7347 l -10.5467,-22.2212 c -0.8244,-0.376 -1.3917,-1.1939 -1.3917,-2.1436 0,-1.2994 1.0752,-2.3613 2.4009,-2.3613 1.3258,0 2.4075,1.0619 2.4075,2.3613 0,0.3034 -0.059,0.5936 -0.1649,0.864 z m -159.8756,1.7017 c -12.2748,0 -22.2278,-9.7881 -22.2278,-21.8585 0,-10.0915 6.9519,-18.5803 16.3971,-21.0999 l 20.8757,-46.4674 c -5.7779,-1.4247 -11.8131,-2.1832 -18.0263,-2.1832 -41.0523,0 -74.5325,32.9262 -74.5325,73.2925 0,40.3597 33.4802,73.2793 74.5325,73.2793 41.0457,0 74.5259,-32.9196 74.5259,-73.2793 0,-28.3026 -16.4565,-52.9379 -40.4388,-65.1401 l -19.418,42.998 c 6.3253,3.8519 10.5466,10.7445 10.5466,18.6001 0,12.0704 -9.953,21.8585 -22.2344,21.8585 z m -2.9813,-109.9256 c -51.3153,0 -93.1591,41.1512 -93.1591,91.6091 0,50.4513 41.8438,91.6024 93.1591,91.6024 51.3087,0 93.1591,-41.1511 93.1591,-91.6024 0,-35.7492 -21.0077,-66.8221 -51.5,-81.9001 l 8.3568,-18.5078 85.9433,90.3691 c -6.9652,6.4573 -11.325,15.6122 -11.325,25.7368 0,19.4972 16.1729,35.3996 35.9999,35.3996 4.7754,0 9.3265,-0.9234 13.5016,-2.5921 l 4.6302,9.7618 -7.6775,3.3045 c -1.794,0.9234 -0.6266,3.8057 1.4049,3.1528 l 9.2078,-3.9707 c 1.0157,-0.3562 1.207,-1.7281 0.7519,-2.6581 l -5.2041,-11.0084 c 0.1121,-0.059 0.2243,-0.1121 0.3298,-0.1715 l 77.184,-13.1256 c 13.7259,33.8166 47.3909,57.8121 86.5765,57.8121 51.3087,0 93.1591,-41.1511 93.1591,-91.6024 0,-50.4579 -41.8504,-91.6091 -93.1591,-91.6091 -9.5705,0 -18.8112,1.4313 -27.5111,4.0894 l -27.7683,-75.5746 v -0.013 l 13.0861,-18.864 h 19.4378 c 11.9054,-0.2045 9.9069,-22.2938 -3.0407,-20.7372 l -48.3802,3.2055 c -11.3052,1.7611 -10.5334,17.3272 -0.5672,17.5317 h 13.9237 l -7.9545,11.4635 h -191.166 l 22.0959,-49.3564 h 34.1662 c 8.0931,0 11.2986,-4.1224 11.2986,-9.155 v 0 c 0,-5.0391 -3.2055,-9.1615 -11.2986,-9.1615 h -25.9676 -18.6266 l -67.4222,150.1072 c -8.1524,-2.302 -16.76,-3.5354 -25.6445,-3.5354 z m 295.2544,12.044 c -22.4983,12.6639 -39.1527,34.2849 -44.8911,59.8568 h -63.7615 l 83.3577,-120.182 z m -46.4609,69.1041 c -0.4023,3.4365 -0.6134,6.919 -0.6134,10.461 0,8.6471 1.2269,17.0237 3.5288,24.9651 l -60.7209,9.7354 c 3.5749,-5.4943 5.6526,-12.0176 5.6526,-19.0025 0,-10.3422 -4.5511,-19.6753 -11.7801,-26.159 z m 92.5457,-62.8315 c -7.3477,0 -14.458,1.0619 -21.1725,3.0274 l 18.9101,51.4539 c 0.653,-0.066 -3.7266,-0.099 1.9854,-0.099 5.7119,0 19.5301,8.6273 19.5301,19.2004 0,10.5731 -8.7724,19.2004 -19.5301,19.2004 -0.7453,0 -1.4841,-0.04 -2.2096,-0.1253 v 0.1253 l -65.2193,11.0941 c 11.8263,25.163 37.7478,42.6946 67.7059,42.6946 41.0457,0 74.5259,-32.9196 74.5259,-73.2793 0,-40.3663 -33.4802,-73.2925 -74.5259,-73.2925 z m -38.9152,10.8369 c -15.8101,9.5705 -27.7485,24.7804 -32.8669,42.7473 h 50.7877 z m -34.8522,51.9946 c -0.5013,3.4167 -0.7585,6.9058 -0.7585,10.461 0,7.6577 1.2004,15.045 3.4364,21.997 l 56.1896,-9.0099 c -3.0473,-3.3902 -4.9007,-8.2777 -4.9007,-12.6969 0,-4.4192 1.24,-7.6775 3.3573,-10.7512 z M 279.0584,324.3522 h 0.053 l 91.6487,96.3646 c 4.03,-1.5434 8.403,-2.3877 12.9739,-2.3877 h 7.3411 L 482.9612,285.8459 H 296.3001 Z M 561.972,419.246 h -0.02 v 0.01 c 0.01,0 0.013,-0.01 0.02,-0.01 z"
     style="fill:#000000;fill-rule:evenodd;stroke-width:65.958"
     id="path27771-9" />
  <path
     d="M 395.7479,0 C 177.2159,0 0,177.2159 0,395.748 0,614.2734 177.2159,791.4893 395.7479,791.4893 614.2733,791.4893 791.4893,614.2734 791.4893,395.748 791.4893,177.2159 614.2733,0 395.7479,0 Z M 645.8276,589.8623 201.6335,145.6616 c 53.6107,-41.6788 120.9604,-66.512 194.1144,-66.512 174.8217,0 316.5918,141.7767 316.5918,316.5984 0,73.1474 -24.8332,140.4971 -66.5121,194.1143 z M 145.6616,201.6336 589.8623,645.8277 c -53.6107,41.6854 -120.967,66.512 -194.1144,66.512 -174.8216,0 -316.5984,-141.7701 -316.5984,-316.5917 0,-73.1541 24.8332,-140.5104 66.5121,-194.1144 z"
     style="fill:#ff0000;fill-rule:evenodd;stroke-width:65.958"
     id="path27234-8" />
</svg>
