<?xml version="1.0" encoding="UTF-8" standalone="no"?>
<svg
   xmlns:dc="http://purl.org/dc/elements/1.1/"
   xmlns:cc="http://creativecommons.org/ns#"
   xmlns:rdf="http://www.w3.org/1999/02/22-rdf-syntax-ns#"
   xmlns:svg="http://www.w3.org/2000/svg"
   xmlns="http://www.w3.org/2000/svg"
   xmlns:sodipodi="http://sodipodi.sourceforge.net/DTD/sodipodi-0.dtd"
   xmlns:inkscape="http://www.inkscape.org/namespaces/inkscape"
   version="1.1"
   width="791.48932"
   height="791.48932"
   id="svg29062"
   viewBox="0 0 791.48933 791.48926"
   sodipodi:docname="R-13.svg"
   inkscape:version="1.0.2 (e86c870879, 2021-01-15)">
  <metadata
     id="metadata29068">
    <rdf:RDF>
      <cc:Work
         rdf:about="">
        <dc:format>image/svg+xml</dc:format>
        <dc:type
           rdf:resource="http://purl.org/dc/dcmitype/StillImage" />
        <dc:title />
      </cc:Work>
    </rdf:RDF>
  </metadata>
  <defs
     id="defs29066" />
  <sodipodi:namedview
     pagecolor="#ffffff"
     bordercolor="#666666"
     borderopacity="1"
     objecttolerance="10"
     gridtolerance="10"
     guidetolerance="10"
     inkscape:pageopacity="0"
     inkscape:pageshadow="2"
     inkscape:window-width="1920"
     inkscape:window-height="1016"
     id="namedview29064"
     showgrid="false"
     inkscape:zoom="0.049253423"
     inkscape:cx="-1905.9798"
     inkscape:cy="6008.8367"
     inkscape:window-x="0"
     inkscape:window-y="27"
     inkscape:window-maximized="1"
     inkscape:current-layer="svg29062"
     showguides="false"
     inkscape:document-rotation="0" />
  <g
     id="Layer1025"
     transform="matrix(65.957993,0,0,65.957993,-4235.5255,-1157.5892)">
    <path
       d="m 70.2154,18.7504 c -2.6505,0 -4.7999,2.1495 -4.7999,4.8 0,2.6505 2.1494,4.7999 4.7999,4.7999 2.6505,0 4.8,-2.1494 4.8,-4.7999 0,-2.6505 -2.1495,-4.8 -4.8,-4.8 z m -5.9999,4.8 c 0,-3.3131 2.6868,-6 5.9999,-6 3.3132,0 6,2.6869 6,6 0,3.3131 -2.6868,5.9999 -6,5.9999 -3.3131,0 -5.9999,-2.6868 -5.9999,-5.9999 z"
       style="fill:#ff0000;fill-rule:evenodd"
       id="path27468" />
    <path
       d="m 66.9992,21.88 h 3.4605"
       style="fill:none"
       id="path27470" />
    <path
       d="M 70.8636,22.8671 70.4597,21.88"
       style="fill:none"
       id="path27472" />
    <path
       d="m 66.5444,22.5159 0.6563,1.9178"
       style="fill:none"
       id="path27474" />
    <path
       d="m 66.9992,21.88 -0.1498,0.024 -0.1349,0.0693 -0.1063,0.1082 -0.0675,0.1349 -0.0222,0.1507 0.0259,0.1488"
       style="fill:none"
       id="path27476" />
    <path
       d="m 68.2007,24.8534 h 2.0861"
       style="fill:none"
       id="path27478" />
    <path
       d="M 68.2007,24.8534 68.051,24.6805 67.8652,24.5456 67.6545,24.4568 67.429,24.419 67.2007,24.4337"
       style="fill:none"
       id="path27480" />
    <path
       d="M 72.628,20.8134 V 22.478"
       style="fill:none"
       id="path27482" />
    <path
       d="m 71.7749,21.8448 v 0.6286"
       style="fill:none"
       id="path27484" />
    <path
       d="M 72.2287,20.634 70.8275,21.88"
       style="fill:none"
       id="path27486" />
    <path
       d="m 72.6068,20.1127 -0.0305,-0.1515 -0.086,-0.1276 -0.1276,-0.0859 -0.1515,-0.0305 -0.1516,0.0305 -0.1285,0.0859 -0.086,0.1276 -0.0295,0.1515 0.0295,0.1516 0.086,0.1285 0.1285,0.086 0.1516,0.0305 0.1515,-0.0305 0.1276,-0.086 0.086,-0.1285 z"
       style="fill:none"
       id="path27488" />
    <path
       d="M 71.7749,21.8448 71.2287,22.331"
       style="fill:none"
       id="path27490" />
    <path
       d="M 72.628,20.8134 72.5892,20.683 72.4866,20.5943 72.3517,20.5758 72.2287,20.634"
       style="fill:none"
       id="path27492" />
    <path
       d="m 70.8275,21.88 -0.0397,0.1247 0.0129,0.1313 0.0656,0.1137 0.1054,0.0776 0.1276,0.0287 0.1294,-0.025"
       style="fill:none"
       id="path27494" />
    <path
       d="m 72.628,22.478 -5e-4,0.0034 -0.2826,-0.0443 -0.2861,-0.0019 -0.2834,0.0416 -5e-4,-0.0034 h -0.0035 v -0.6208 l -0.5404,0.481 -0.0023,-0.0026 6e-4,0.0034 -0.1294,0.025 -7e-4,10e-5 -7e-4,-2e-4 -0.1276,-0.0286 -7e-4,-2e-4 -5e-4,-4e-4 -0.1054,-0.0776 -6e-4,-5e-4 -4e-4,-6e-4 -0.0656,-0.1137 -3e-4,-6e-4 -10e-5,-8e-4 -0.013,-0.1312 v -7e-4 l 2e-4,-7e-4 0.0397,-0.1248 0.0033,0.0011 -0.0023,-0.0026 1.4012,-1.2459 0.0023,0.0025 -0.0014,-0.0031 0.1229,-0.0582 9e-4,-4e-4 10e-4,10e-5 0.135,0.0185 0.001,10e-5 8e-4,7e-4 0.1025,0.0887 8e-4,7e-4 3e-4,9e-4 0.0388,0.1304 -0.0033,9e-4 h 0.0035 v 1.6647 z"
       style="fill:#000000;fill-rule:evenodd"
       id="path27496" />
    <path
       d="m 70.2827,24.8499 -0.0622,-0.3527 v -3e-4 -3e-4 l 0.0019,-0.3624 v -2e-4 -4e-4 l 0.0694,-0.3558 v -4e-4 l 1e-4,-2e-4 0.1322,-0.3365 1e-4,-2e-4 2e-4,-3e-4 0.1922,-0.3078 2e-4,-3e-4 2e-4,-2e-4 0.2426,-0.2655 -0.4022,-0.983 h -3.458 l -0.1489,0.0239 -0.1339,0.0688 -0.1055,0.1074 -0.0671,0.134 -0.022,0.1495 0.0258,0.1481 0.6553,1.915 0.2256,-0.0146 h 4e-4 4e-4 l 0.2256,0.0379 3e-4,10e-5 4e-4,2e-4 0.2108,0.0887 3e-4,10e-5 3e-4,3e-4 0.1858,0.1349 4e-4,3e-4 2e-4,3e-4 0.1487,0.1716 z"
       style="fill:#000000;fill-rule:evenodd"
       id="path27498" />
    <path
       d="m 72.211,19.7191 c 0.218,0 0.3943,0.1763 0.3943,0.394 0,0.218 -0.1763,0.3943 -0.3943,0.3943 -0.2177,0 -0.394,-0.1763 -0.394,-0.3943 0,-0.2177 0.1763,-0.394 0.394,-0.394 z"
       style="fill:#000000;fill-rule:evenodd"
       id="path27500" />
    <path
       d="m 68.1313,25.4153 c 0,-0.4167 -0.3379,-0.7545 -0.7546,-0.7545 -0.4167,0 -0.7545,0.3378 -0.7545,0.7545 0,0.4167 0.3378,0.7546 0.7545,0.7546 0.4167,0 0.7546,-0.3379 0.7546,-0.7546 z m -0.7546,-0.2341 c 0.1293,0 0.2342,0.1048 0.2342,0.2341 0,0.1293 -0.1049,0.2342 -0.2342,0.2342 -0.1293,0 -0.2341,-0.1049 -0.2341,-0.2342 0,-0.1293 0.1048,-0.2341 0.2341,-0.2341 z"
       style="fill:#000000;fill-rule:evenodd"
       id="path27502" />
    <path
       d="m 73.2276,24.3258 c 0,-0.5728 -0.4644,-1.0372 -1.0372,-1.0372 -0.5728,0 -1.0371,0.4644 -1.0371,1.0372 0,0.5728 0.4643,1.0372 1.0371,1.0372 0.5728,0 1.0372,-0.4644 1.0372,-1.0372 z"
       style="fill:#000000;fill-rule:evenodd"
       id="path27504" />
    <path
       d="m 72.1904,23.1299 c 0.6605,0 1.1959,0.5354 1.1959,1.1959 0,0.6605 -0.5354,1.1959 -1.1959,1.1959 -0.6605,0 -1.1959,-0.5354 -1.1959,-1.1959 0,-0.6605 0.5354,-1.1959 1.1959,-1.1959 z m 1.8203,1.1959 c 0,-1.0053 -0.8149,-1.8203 -1.8203,-1.8203 -1.0053,0 -1.8203,0.815 -1.8203,1.8203 0,1.0053 0.815,1.8203 1.8203,1.8203 1.0054,0 1.8203,-0.815 1.8203,-1.8203 z"
       style="fill:#000000;fill-rule:evenodd"
       id="path27506" />
    <path
       d="m 73.5893,27.7331 0.8076,-0.8076 -7.5579,-7.5579 -0.805,0.8076 z"
       style="fill:#ff0000;fill-rule:evenodd;stroke:#ff0000;stroke-width:0.0025;stroke-linecap:butt;stroke-linejoin:miter;stroke-dasharray:none"
       id="path27508" />
  </g>
</svg>
