<?xml version="1.0" encoding="UTF-8" standalone="no"?>
<svg
   xmlns:dc="http://purl.org/dc/elements/1.1/"
   xmlns:cc="http://creativecommons.org/ns#"
   xmlns:rdf="http://www.w3.org/1999/02/22-rdf-syntax-ns#"
   xmlns:svg="http://www.w3.org/2000/svg"
   xmlns="http://www.w3.org/2000/svg"
   xmlns:sodipodi="http://sodipodi.sourceforge.net/DTD/sodipodi-0.dtd"
   xmlns:inkscape="http://www.inkscape.org/namespaces/inkscape"
   version="1.1"
   width="791.48932"
   height="791.48932"
   id="svg29062"
   viewBox="0 0 791.48933 791.48926"
   sodipodi:docname="R-14.svg"
   inkscape:version="1.0.2 (e86c870879, 2021-01-15)">
  <metadata
     id="metadata29068">
    <rdf:RDF>
      <cc:Work
         rdf:about="">
        <dc:format>image/svg+xml</dc:format>
        <dc:type
           rdf:resource="http://purl.org/dc/dcmitype/StillImage" />
        <dc:title />
      </cc:Work>
    </rdf:RDF>
  </metadata>
  <defs
     id="defs29066" />
  <sodipodi:namedview
     pagecolor="#ffffff"
     bordercolor="#666666"
     borderopacity="1"
     objecttolerance="10"
     gridtolerance="10"
     guidetolerance="10"
     inkscape:pageopacity="0"
     inkscape:pageshadow="2"
     inkscape:window-width="1920"
     inkscape:window-height="1016"
     id="namedview29064"
     showgrid="false"
     inkscape:zoom="0.049253423"
     inkscape:cx="-2854.093"
     inkscape:cy="7803.3999"
     inkscape:window-x="0"
     inkscape:window-y="27"
     inkscape:window-maximized="1"
     inkscape:current-layer="svg29062"
     showguides="false"
     inkscape:document-rotation="0" />
  <g
     id="Layer1026"
     transform="matrix(65.957993,0,0,65.957993,-5183.6387,-1157.5892)">
    <path
       d="m 84.5899,18.8004 c 2.6229,0 4.75,2.1271 4.75,4.75 0,2.6229 -2.1271,4.7499 -4.75,4.7499 -2.6229,0 -4.7499,-2.127 -4.7499,-4.7499 0,-2.6229 2.127,-4.75 4.7499,-4.75 z m 6,4.75 c 0,-3.3132 -2.6868,-6 -6,-6 -3.3131,0 -5.9999,2.6868 -5.9999,6 0,3.3131 2.6868,5.9999 5.9999,5.9999 3.3132,0 6,-2.6868 6,-5.9999 z"
       style="fill:#ff0000;fill-rule:evenodd"
       id="path27511" />
    <path
       d="m 86.409,24.9938 h -3.5011 v 3e-4 h -0.0022 l -1.7448,-3e-4 3.4973,2.1793 3.4979,-2.1782 -1.7449,-2e-4 H 86.409 Z"
       style="fill:#000000;fill-rule:evenodd"
       id="path27513" />
    <path
       d="m 82.024,23.359 v -1.6951 c -0.3328,0.2418 -0.557,0.3626 -0.6724,0.3626 -0.055,0 -0.104,-0.021 -0.1465,-0.0624 -0.0428,-0.0414 -0.0638,-0.0896 -0.0638,-0.1443 0,-0.0638 0.021,-0.1102 0.0627,-0.14 0.0419,-0.0292 0.1159,-0.068 0.2222,-0.1151 0.159,-0.0706 0.2857,-0.1451 0.3807,-0.2234 0.0949,-0.0782 0.1788,-0.1661 0.2528,-0.2627 0.0732,-0.0975 0.1214,-0.1565 0.1435,-0.1789 0.0221,-0.0224 0.0646,-0.0337 0.1264,-0.0337 0.0692,0 0.1256,0.0255 0.167,0.0762 0.0425,0.051 0.0632,0.1211 0.0632,0.2106 v 2.1331 c 0,0.25 -0.0902,0.3747 -0.2699,0.3747 -0.0796,0 -0.1443,-0.0255 -0.1925,-0.0765 -0.049,-0.0507 -0.0734,-0.1258 -0.0734,-0.2251 z m 3.4603,-1.0851 c 0,0.2044 -0.0134,0.3793 -0.0394,0.5259 -0.0264,0.1468 -0.0749,0.2797 -0.146,0.3988 -0.089,0.1463 -0.2038,0.2597 -0.3456,0.339 -0.1414,0.0797 -0.2993,0.1191 -0.4725,0.1191 -0.1987,0 -0.3781,-0.0533 -0.5357,-0.1605 -0.1579,-0.1068 -0.2764,-0.2542 -0.3569,-0.4427 -0.0406,-0.1029 -0.07,-0.2175 -0.0896,-0.3422 -0.0187,-0.1247 -0.0281,-0.2596 -0.0281,-0.4053 0,-0.1877 0.0108,-0.3563 0.0315,-0.5066 0.021,-0.1508 0.0539,-0.28 0.0981,-0.388 0.0771,-0.1789 0.1899,-0.315 0.337,-0.4085 0.1477,-0.0936 0.3235,-0.1406 0.5284,-0.1406 0.1349,0 0.2577,0.021 0.3679,0.0623 0.11,0.042 0.2067,0.1024 0.2897,0.1826 0.0834,0.0802 0.1537,0.1794 0.2115,0.2971 0.1001,0.2049 0.1497,0.4949 0.1497,0.8696 z m -0.5397,-0.0368 c 0,-0.2271 -0.0142,-0.4136 -0.0429,-0.5579 -0.0289,-0.1451 -0.0779,-0.2545 -0.1457,-0.3285 -0.0683,-0.0737 -0.1632,-0.1106 -0.2834,-0.1106 -0.1732,0 -0.2934,0.0828 -0.3609,0.2481 -0.0677,0.1649 -0.1014,0.4195 -0.1014,0.7636 0,0.2336 0.0141,0.4249 0.0428,0.574 0.0292,0.1494 0.0782,0.262 0.1457,0.3385 0.0686,0.0763 0.1612,0.1145 0.278,0.1145 0.1202,0 0.2149,-0.0394 0.2832,-0.119 0.068,-0.0797 0.1154,-0.1934 0.1429,-0.341 0.0275,-0.1483 0.0417,-0.3416 0.0417,-0.5817 z m 2.044,-0.5998 h 0.059 v -0.3062 c 0,-0.0822 0.002,-0.1462 0.0068,-0.1927 0.0045,-0.0471 0.0173,-0.0873 0.0382,-0.1202 0.0207,-0.0352 0.0511,-0.0638 0.0905,-0.0853 0.0388,-0.0219 0.0825,-0.0326 0.1315,-0.0326 0.068,0 0.129,0.0243 0.184,0.0725 0.0368,0.0326 0.0598,0.072 0.0697,0.1191 0.0102,0.0465 0.015,0.1125 0.015,0.1984 v 0.347 H 87.78 c 0.0757,0 0.1341,0.017 0.1738,0.0507 0.0403,0.0343 0.0604,0.0783 0.0604,0.1313 0,0.0686 -0.0289,0.1162 -0.0859,0.1437 -0.057,0.0272 -0.1383,0.0408 -0.2452,0.0408 h -0.0998 v 0.9351 c 0,0.0797 0.0026,0.1412 0.0085,0.184 0.006,0.0425 0.0216,0.0777 0.0471,0.1043 0.0263,0.0267 0.0677,0.04 0.1256,0.04 0.0309,0 0.0739,-0.0051 0.1272,-0.0159 0.0539,-0.0102 0.0961,-0.0159 0.1259,-0.0159 0.0436,0 0.0825,0.0168 0.1173,0.0497 0.0352,0.0331 0.0519,0.0739 0.0519,0.1221 0,0.0822 -0.047,0.1446 -0.1411,0.1877 -0.0947,0.0439 -0.2305,0.0657 -0.4074,0.0657 -0.1678,0 -0.2948,-0.0269 -0.3807,-0.0802 -0.0864,-0.0535 -0.1428,-0.1273 -0.1698,-0.2222 -0.0269,-0.0941 -0.0402,-0.22 -0.0402,-0.3779 V 22.0038 H 86.977 c -0.0777,0 -0.1369,-0.0173 -0.1772,-0.0524 -0.0411,-0.0343 -0.0609,-0.0788 -0.0609,-0.1321 0,-0.053 0.0215,-0.097 0.0635,-0.1313 0.0431,-0.0337 0.1049,-0.0507 0.1862,-0.0507 z"
       style="fill:#000000;fill-rule:evenodd"
       id="path27515" />
  </g>
</svg>
