<?xml version="1.0" encoding="UTF-8" standalone="no"?>
<svg
   xmlns:dc="http://purl.org/dc/elements/1.1/"
   xmlns:cc="http://creativecommons.org/ns#"
   xmlns:rdf="http://www.w3.org/1999/02/22-rdf-syntax-ns#"
   xmlns:svg="http://www.w3.org/2000/svg"
   xmlns="http://www.w3.org/2000/svg"
   xmlns:sodipodi="http://sodipodi.sourceforge.net/DTD/sodipodi-0.dtd"
   xmlns:inkscape="http://www.inkscape.org/namespaces/inkscape"
   version="1.1"
   width="791.48932"
   height="791.48932"
   id="svg29062"
   viewBox="0 0 791.48933 791.48926"
   sodipodi:docname="R-15.svg"
   inkscape:version="1.0.2 (e86c870879, 2021-01-15)">
  <metadata
     id="metadata29068">
    <rdf:RDF>
      <cc:Work
         rdf:about="">
        <dc:format>image/svg+xml</dc:format>
        <dc:type
           rdf:resource="http://purl.org/dc/dcmitype/StillImage" />
        <dc:title />
      </cc:Work>
    </rdf:RDF>
  </metadata>
  <defs
     id="defs29066" />
  <sodipodi:namedview
     pagecolor="#ffffff"
     bordercolor="#666666"
     borderopacity="1"
     objecttolerance="10"
     gridtolerance="10"
     guidetolerance="10"
     inkscape:pageopacity="0"
     inkscape:pageshadow="2"
     inkscape:window-width="1920"
     inkscape:window-height="1016"
     id="namedview29064"
     showgrid="false"
     inkscape:zoom="0.049253423"
     inkscape:cx="-3736.7626"
     inkscape:cy="4862.8177"
     inkscape:window-x="0"
     inkscape:window-y="27"
     inkscape:window-maximized="1"
     inkscape:current-layer="svg29062"
     showguides="true"
     inkscape:document-rotation="0"
     inkscape:guide-bbox="true" />
  <g
     id="Layer1027"
     transform="matrix(65.957993,0,0,65.957993,-6066.3083,-1157.5892)">
    <path
       d="m 97.9723,18.8004 c 2.6229,0 4.75,2.1271 4.75,4.75 0,2.6229 -2.1271,4.7499 -4.75,4.7499 -2.6229,0 -4.75,-2.127 -4.75,-4.7499 0,-2.6229 2.1271,-4.75 4.75,-4.75 z m 5.9999,4.75 c 0,-3.3132 -2.6868,-6 -5.9999,-6 -3.3131,0 -6,2.6868 -6,6 0,3.3131 2.6869,5.9999 6,5.9999 3.3131,0 5.9999,-2.6868 5.9999,-5.9999 z"
       style="fill:#ff0000;fill-rule:evenodd"
       id="path27518" />
    <path
       d="m 98.7782,27.6461 h -1.539 v -2e-4 h -10e-4 l -0.7671,2e-4 1.5375,-1.54 1.5377,1.5392 -0.7671,2e-4 h -0.001 z"
       style="fill:#000000;fill-rule:evenodd"
       id="path27520" />
    <path
       d="m 98.7611,19.4457 h -1.5215 v 2e-4 h -10e-4 l -0.7583,-2e-4 1.5199,1.54 1.5201,-1.5391 -0.7583,-2e-4 h -9e-4 z"
       style="fill:#000000;fill-rule:evenodd"
       id="path27522" />
    <path
       d="m 95.5232,23.871 c 0,0.1043 -0.021,0.2004 -0.0624,0.2891 -0.0419,0.0887 -0.0986,0.1661 -0.1706,0.2327 -0.072,0.0664 -0.1574,0.1185 -0.2557,0.1559 -0.0987,0.0377 -0.2058,0.0567 -0.3215,0.0567 -0.1258,0 -0.2477,-0.0226 -0.3654,-0.0683 -0.1179,-0.0453 -0.2225,-0.1145 -0.314,-0.2075 -0.0261,-0.0244 -0.0499,-0.0482 -0.0715,-0.0714 -0.0212,-0.0233 -0.0501,-0.0593 -0.0867,-0.108 l 0.2922,-0.2393 c 0.0715,0.1018 0.154,0.1755 0.2484,0.2209 0.0946,0.0456 0.2006,0.0683 0.3183,0.0683 0.1258,0 0.2279,-0.0289 0.3061,-0.0865 0.0783,-0.0575 0.1171,-0.1341 0.1171,-0.2293 0,-0.053 -0.0145,-0.1074 -0.0442,-0.1627 -0.0292,-0.0553 -0.0672,-0.0975 -0.114,-0.1264 -0.0283,-0.0153 -0.0589,-0.027 -0.0915,-0.0349 -0.0324,-0.0077 -0.0689,-0.0116 -0.1097,-0.0116 h -0.1004 v -0.3986 h 0.0882 c 0.0771,0 0.1417,-0.0204 0.1936,-0.0615 0.0519,-0.0411 0.0776,-0.0924 0.0776,-0.1545 0,-0.0663 -0.0323,-0.1224 -0.0975,-0.1678 -0.0649,-0.0453 -0.1522,-0.068 -0.2619,-0.068 -0.0853,0 -0.1664,0.0187 -0.2435,0.0564 -0.0774,0.0377 -0.1462,0.0918 -0.2072,0.1627 L 93.976,22.645 c 0.205,-0.2302 0.4527,-0.3456 0.7433,-0.3456 0.1012,0 0.1958,0.0156 0.2831,0.0465 0.0873,0.0312 0.1625,0.0749 0.2254,0.1313 0.0626,0.0567 0.1122,0.123 0.1474,0.1995 0.0357,0.0763 0.0536,0.1588 0.0536,0.2475 0,0.0754 -0.0122,0.1434 -0.0366,0.2044 -0.0244,0.0609 -0.0672,0.1332 -0.1278,0.2174 0.0507,0.0488 0.0921,0.0938 0.1247,0.1346 0.0323,0.0411 0.0589,0.0814 0.0791,0.1214 0.0204,0.0399 0.0346,0.0813 0.0428,0.1244 0.0079,0.0434 0.0122,0.0916 0.0122,0.1446 z m 0.5998,0.5916 c 0,0.0708 -0.0131,0.1383 -0.0394,0.2026 -0.0267,0.0641 -0.0649,0.1197 -0.116,0.1662 L 95.852,24.7681 c 0.0224,-0.0243 0.0428,-0.051 0.0609,-0.0796 0.0185,-0.0289 0.0318,-0.0567 0.0397,-0.0831 h -0.0212 c -0.0528,0 -0.097,-0.019 -0.1327,-0.0567 -0.0354,-0.0374 -0.0533,-0.0819 -0.0533,-0.1326 0,-0.0578 0.0156,-0.108 0.0471,-0.1514 0.0317,-0.0431 0.0728,-0.0646 0.1235,-0.0646 0.061,0 0.1106,0.0232 0.1491,0.0697 0.0386,0.0465 0.0579,0.1108 0.0579,0.1928 z m 2.0559,-1.0233 c 0,0.1437 -0.0158,0.2851 -0.0473,0.4235 -0.0315,0.1383 -0.0811,0.263 -0.1491,0.3738 -0.068,0.1106 -0.1559,0.1999 -0.2636,0.2674 -0.1075,0.0674 -0.2384,0.1014 -0.3929,0.1014 -0.1522,0 -0.2826,-0.0328 -0.3912,-0.098 -0.1085,-0.0655 -0.1976,-0.1523 -0.2667,-0.2608 -0.0686,-0.1086 -0.1196,-0.2322 -0.1522,-0.3705 -0.0324,-0.1384 -0.0485,-0.2809 -0.0485,-0.4269 0,-0.1463 0.0167,-0.2886 0.0502,-0.4269 0.0334,-0.1386 0.085,-0.2611 0.1553,-0.3674 0.07,-0.1063 0.1587,-0.1919 0.2665,-0.2574 0.1077,-0.0652 0.2366,-0.0981 0.3866,-0.0981 0.1525,0 0.2823,0.0332 0.3898,0.0998 0.1077,0.0664 0.1961,0.1534 0.265,0.2608 0.0692,0.1074 0.1193,0.2293 0.1508,0.3654 0.0315,0.1363 0.0473,0.2741 0.0473,0.4139 z m -0.3656,0.0099 c 0,-0.235 -0.0425,-0.4187 -0.1279,-0.5516 -0.0853,-0.133 -0.2049,-0.1993 -0.3594,-0.1993 -0.0913,0 -0.1684,0.0232 -0.2313,0.0697 -0.0629,0.0465 -0.1137,0.1057 -0.1522,0.1777 -0.0386,0.072 -0.0666,0.1517 -0.0839,0.2393 -0.0173,0.0876 -0.0258,0.1721 -0.0258,0.2543 0,0.248 0.0436,0.4379 0.1309,0.5697 0.0873,0.1318 0.2081,0.1976 0.3623,0.1976 0.0751,0 0.1429,-0.0181 0.2024,-0.0547 0.0601,-0.0366 0.1114,-0.0887 0.1539,-0.1562 0.0425,-0.0675 0.0754,-0.1485 0.0975,-0.2426 0.0224,-0.0942 0.0335,-0.1988 0.0335,-0.3138 z m 3.2683,1.1163 v -0.9703 c 0,-0.0907 -0.0235,-0.1627 -0.0703,-0.2158 -0.0465,-0.0532 -0.1097,-0.0799 -0.1885,-0.0799 -0.0365,0 -0.0706,0.0079 -0.102,0.0233 -0.0315,0.0155 -0.059,0.036 -0.0825,0.0615 -0.0233,0.0255 -0.0417,0.0555 -0.0547,0.0898 -0.0131,0.0343 -0.0199,0.0703 -0.0199,0.108 v 0.9834 h -0.3503 v -0.9703 c 0,-0.042 -0.007,-0.0814 -0.0213,-0.118 -0.0139,-0.0365 -0.0334,-0.068 -0.0575,-0.0946 -0.0247,-0.0264 -0.0536,-0.0471 -0.0871,-0.0615 -0.0334,-0.0142 -0.0686,-0.0216 -0.1051,-0.0216 -0.0709,0 -0.1293,0.0278 -0.1752,0.0831 -0.0456,0.0555 -0.0683,0.1241 -0.0683,0.206 v 0.9769 h -0.3654 v -1.6249 h 0.3654 v 0.133 c 0.0428,-0.0465 0.0955,-0.0867 0.1584,-0.1213 0.0627,-0.0343 0.1318,-0.0513 0.207,-0.0513 0.1522,0 0.2812,0.0652 0.3869,0.1958 0.0425,-0.0377 0.0822,-0.0691 0.1188,-0.0946 0.0363,-0.0256 0.0725,-0.0454 0.108,-0.0599 0.0357,-0.0141 0.0714,-0.0249 0.1083,-0.0314 0.0365,-0.0065 0.0751,-0.0099 0.1153,-0.0099 0.0794,0 0.152,0.0139 0.218,0.0413 0.0658,0.0278 0.1233,0.0661 0.1721,0.1148 0.0487,0.0488 0.087,0.1069 0.1142,0.1744 0.0275,0.0674 0.0411,0.14 0.0411,0.2177 v 1.1163 z"
       style="fill:#000000;fill-rule:evenodd"
       id="path27524" />
  </g>
</svg>
