<?xml version="1.0" encoding="UTF-8" standalone="no"?>
<svg
   xmlns:dc="http://purl.org/dc/elements/1.1/"
   xmlns:cc="http://creativecommons.org/ns#"
   xmlns:rdf="http://www.w3.org/1999/02/22-rdf-syntax-ns#"
   xmlns:svg="http://www.w3.org/2000/svg"
   xmlns="http://www.w3.org/2000/svg"
   xmlns:sodipodi="http://sodipodi.sourceforge.net/DTD/sodipodi-0.dtd"
   xmlns:inkscape="http://www.inkscape.org/namespaces/inkscape"
   version="1.1"
   width="791.48932"
   height="791.48932"
   id="svg29062"
   viewBox="0 0 791.48933 791.48926"
   sodipodi:docname="R-15.svg"
   inkscape:version="1.0.2 (e86c870879, 2021-01-15)">
  <metadata
     id="metadata29068">
    <rdf:RDF>
      <cc:Work
         rdf:about="">
        <dc:format>image/svg+xml</dc:format>
        <dc:type
           rdf:resource="http://purl.org/dc/dcmitype/StillImage" />
        <dc:title />
      </cc:Work>
    </rdf:RDF>
  </metadata>
  <defs
     id="defs29066" />
  <sodipodi:namedview
     pagecolor="#ffffff"
     bordercolor="#666666"
     borderopacity="1"
     objecttolerance="10"
     gridtolerance="10"
     guidetolerance="10"
     inkscape:pageopacity="0"
     inkscape:pageshadow="2"
     inkscape:window-width="1920"
     inkscape:window-height="1016"
     id="namedview29064"
     showgrid="false"
     inkscape:zoom="0.049253423"
     inkscape:cx="-3736.7626"
     inkscape:cy="802.18622"
     inkscape:window-x="0"
     inkscape:window-y="27"
     inkscape:window-maximized="1"
     inkscape:current-layer="svg29062"
     showguides="true"
     inkscape:document-rotation="0"
     inkscape:guide-bbox="true" />
  <path
     d="m 395.74798,82.447452 c 173.00122,0 313.30046,140.299248 313.30046,313.300468 0,173.00122 -140.29924,313.29387 -313.30046,313.29387 -173.00122,0 -313.300469,-140.29265 -313.300469,-313.29387 0,-173.00122 140.299249,-313.300468 313.300469,-313.300468 z M 791.48934,395.74792 C 791.48934,177.2159 614.2734,-3.96528e-5 395.74798,-3.96528e-5 177.22255,-3.96528e-5 1.9593901e-5,177.2159 1.9593901e-5,395.74792 1.9593901e-5,614.27334 177.22255,791.48928 395.74798,791.48928 c 218.52542,0 395.74136,-177.21594 395.74136,-395.74136 z"
     style="fill:#ff0000;fill-rule:evenodd;stroke-width:65.958"
     id="path27518" />
  <path
     d="M 448.90352,665.89207 H 347.39417 v -0.0132 h -0.066 l -50.59637,0.0132 101.41041,-101.57531 101.42361,101.52254 -50.59638,0.0132 h -0.066 z"
     style="fill:#000000;fill-rule:evenodd;stroke-width:65.958"
     id="path27520" />
  <path
     d="M 447.77564,125.01014 H 347.42056 v 0.0132 h -0.066 l -50.01595,-0.0132 100.24956,101.57531 100.26274,-101.51594 -50.01595,-0.0132 h -0.0594 z"
     style="fill:#000000;fill-rule:evenodd;stroke-width:65.958"
     id="path27522" />
</svg>
