<?xml version="1.0" encoding="UTF-8" standalone="no"?>
<svg
   xmlns:dc="http://purl.org/dc/elements/1.1/"
   xmlns:cc="http://creativecommons.org/ns#"
   xmlns:rdf="http://www.w3.org/1999/02/22-rdf-syntax-ns#"
   xmlns:svg="http://www.w3.org/2000/svg"
   xmlns="http://www.w3.org/2000/svg"
   xmlns:sodipodi="http://sodipodi.sourceforge.net/DTD/sodipodi-0.dtd"
   xmlns:inkscape="http://www.inkscape.org/namespaces/inkscape"
   version="1.1"
   width="791.48932"
   height="791.48932"
   id="svg29062"
   viewBox="0 0 791.48933 791.48926"
   sodipodi:docname="R-16.svg"
   inkscape:version="1.0.2 (e86c870879, 2021-01-15)">
  <metadata
     id="metadata29068">
    <rdf:RDF>
      <cc:Work
         rdf:about="">
        <dc:format>image/svg+xml</dc:format>
        <dc:type
           rdf:resource="http://purl.org/dc/dcmitype/StillImage" />
        <dc:title />
      </cc:Work>
    </rdf:RDF>
  </metadata>
  <defs
     id="defs29066" />
  <sodipodi:namedview
     pagecolor="#ffffff"
     bordercolor="#666666"
     borderopacity="1"
     objecttolerance="10"
     gridtolerance="10"
     guidetolerance="10"
     inkscape:pageopacity="0"
     inkscape:pageshadow="2"
     inkscape:window-width="1920"
     inkscape:window-height="1016"
     id="namedview29064"
     showgrid="false"
     inkscape:zoom="0.049253423"
     inkscape:cx="-4673.9795"
     inkscape:cy="7786.9245"
     inkscape:window-x="0"
     inkscape:window-y="27"
     inkscape:window-maximized="1"
     inkscape:current-layer="svg29062"
     showguides="false"
     inkscape:document-rotation="0" />
  <g
     id="Layer1009"
     transform="matrix(65.957993,0,0,65.957993,-7003.5252,-1157.5892)">
    <path
       d="m 112.1815,18.8004 c 2.6229,0 4.75,2.1271 4.75,4.75 0,2.6229 -2.1271,4.7499 -4.75,4.7499 -2.6229,0 -4.7499,-2.127 -4.7499,-4.7499 0,-2.6229 2.127,-4.75 4.7499,-4.75 z m 6,4.75 c 0,-3.3132 -2.6869,-6 -6,-6 -3.3131,0 -5.9999,2.6868 -5.9999,6 0,3.3131 2.6868,5.9999 5.9999,5.9999 3.3131,0 6,-2.6868 6,-5.9999 z"
       style="fill:#ff0000;fill-rule:evenodd"
       id="path27212" />
    <path
       d="m 116.2766,22.7795 -0.001,1.5214 h -2e-4 v 0.001 l -4e-4,0.7583 -1.5388,-1.5211 1.5404,-1.5189 -4e-4,0.7583 v 10e-4 z"
       style="fill:#000000;fill-rule:evenodd"
       id="path27214" />
    <path
       d="m 108.0314,22.7777 0.0141,1.5215 h 2e-4 v 9e-4 l 0.007,0.7583 1.5258,-1.5342 -1.5533,-1.5057 0.007,0.7583 v 9e-4 z"
       style="fill:#000000;fill-rule:evenodd"
       id="path27216" />
    <path
       d="m 110.4464,23.424 v -1.5943 c -0.2967,0.2274 -0.4966,0.3413 -0.5995,0.3413 -0.049,0 -0.093,-0.0198 -0.1307,-0.0586 -0.0382,-0.0392 -0.0567,-0.0845 -0.0567,-0.1361 0,-0.0598 0.0185,-0.1035 0.0556,-0.1315 0.0377,-0.0275 0.1035,-0.0641 0.1981,-0.1083 0.1418,-0.0666 0.2549,-0.1366 0.3394,-0.2101 0.085,-0.0737 0.1598,-0.1561 0.2256,-0.2471 0.0652,-0.0916 0.1083,-0.1472 0.1281,-0.1681 0.0196,-0.021 0.0573,-0.0318 0.1126,-0.0318 0.0615,0 0.1116,0.0238 0.1488,0.0717 0.0377,0.0479 0.0564,0.1137 0.0564,0.1982 v 2.0061 c 0,0.2349 -0.0802,0.3523 -0.2407,0.3523 -0.0711,0 -0.1287,-0.0238 -0.1718,-0.0717 -0.0436,-0.0479 -0.0652,-0.1185 -0.0652,-0.212 z m 1.6918,0.2874 c -0.0771,0 -0.1438,-0.0241 -0.1999,-0.0714 -0.0555,-0.0471 -0.0839,-0.1137 -0.0839,-0.1985 0,-0.0737 0.0275,-0.136 0.0828,-0.1862 0.0544,-0.0502 0.1196,-0.0754 0.1939,-0.0754 0.0561,0 0.1071,0.015 0.1525,0.0453 0.0456,0.0307 0.0813,0.0754 0.1071,0.1341 0.0258,0.0593 0.0383,0.1324 0.0383,0.2186 0,0.1159 -0.0244,0.2245 -0.0737,0.3254 -0.049,0.1012 -0.1089,0.1808 -0.1794,0.2401 -0.0706,0.0592 -0.1347,0.0884 -0.1917,0.0884 -0.0362,0 -0.0657,-0.0119 -0.0884,-0.0357 -0.0227,-0.0241 -0.034,-0.0516 -0.034,-0.0833 0,-0.0479 0.0238,-0.0868 0.0717,-0.116 0.1363,-0.0759 0.2047,-0.1712 0.2047,-0.2854 z m 0.7937,-1.9641 c 0,-0.1168 0.0317,-0.2268 0.0955,-0.3306 0.0635,-0.1034 0.157,-0.1859 0.2803,-0.2483 0.1231,-0.0615 0.2673,-0.0927 0.4326,-0.0927 0.1389,0 0.2608,0.0179 0.3662,0.0545 0.1052,0.036 0.1928,0.0861 0.2634,0.1496 0.07,0.0641 0.1221,0.1358 0.1556,0.2155 0.034,0.0802 0.0507,0.1652 0.0507,0.2554 0,0.1145 -0.0292,0.2168 -0.0884,0.3064 -0.0587,0.0898 -0.1474,0.1635 -0.2639,0.2208 0.0992,0.0386 0.1817,0.0893 0.2472,0.1517 0.0657,0.0626 0.1153,0.1352 0.1482,0.2171 0.0335,0.0825 0.0505,0.174 0.0505,0.2741 0,0.1471 -0.036,0.2806 -0.1072,0.4003 -0.0714,0.1196 -0.176,0.2137 -0.3138,0.2812 -0.138,0.0677 -0.301,0.1017 -0.4875,0.1017 -0.1939,0 -0.3603,-0.034 -0.4981,-0.1017 -0.138,-0.0675 -0.2423,-0.1608 -0.3123,-0.2793 -0.0701,-0.1184 -0.1052,-0.2514 -0.1052,-0.3988 0,-0.3141 0.1482,-0.5295 0.4459,-0.6463 -0.2401,-0.1117 -0.3597,-0.2888 -0.3597,-0.5306 z m 1.2566,1.1596 c 0,-0.091 -0.0185,-0.1703 -0.0562,-0.2381 -0.0371,-0.0683 -0.0898,-0.1202 -0.1576,-0.1562 -0.0674,-0.0366 -0.1434,-0.0544 -0.2279,-0.0544 -0.119,0 -0.2182,0.0394 -0.299,0.119 -0.0808,0.0797 -0.1211,0.1908 -0.1211,0.3334 0,0.0916 0.0193,0.1718 0.057,0.2412 0.0383,0.0695 0.0896,0.1233 0.1548,0.1616 0.0655,0.0377 0.1383,0.0567 0.2191,0.0567 0.0819,0 0.155,-0.019 0.2208,-0.0578 0.0652,-0.0386 0.1168,-0.093 0.1539,-0.163 0.0377,-0.0706 0.0562,-0.1508 0.0562,-0.2424 z m -0.438,-1.4972 c -0.1097,0 -0.1981,0.034 -0.265,0.1029 -0.0672,0.0683 -0.1007,0.1561 -0.1007,0.2639 0,0.0995 0.0341,0.1825 0.1029,0.2483 0.0689,0.0666 0.1579,0.0995 0.2662,0.0995 0.0553,0 0.1049,-0.0091 0.1497,-0.0264 0.045,-0.0173 0.0839,-0.0419 0.1156,-0.0731 0.0323,-0.0309 0.0573,-0.0675 0.0749,-0.1106 0.0173,-0.0425 0.026,-0.0898 0.026,-0.1411 0,-0.0689 -0.0153,-0.1313 -0.0464,-0.1863 -0.0307,-0.055 -0.0743,-0.0981 -0.1304,-0.1298 -0.0559,-0.0318 -0.1205,-0.0473 -0.1928,-0.0473 z"
       style="fill:#000000;fill-rule:evenodd"
       id="path27218" />
    <path
       d="m 112.5129,26.0704 v 0.6361 c 0,0.1006 -0.023,0.176 -0.0683,0.2262 -0.0457,0.0502 -0.106,0.0754 -0.1803,0.0754 -0.0723,0 -0.131,-0.0252 -0.1757,-0.0754 -0.0451,-0.0502 -0.0678,-0.1256 -0.0678,-0.2262 V 25.944 c 0,-0.1208 -0.004,-0.2141 -0.0125,-0.2807 -0.008,-0.0663 -0.03,-0.1213 -0.0666,-0.1638 -0.0363,-0.0425 -0.0932,-0.0641 -0.1723,-0.0641 -0.1568,0 -0.2597,0.0539 -0.3093,0.1616 -0.0496,0.1071 -0.0748,0.2613 -0.0748,0.4626 v 0.6469 c 0,0.0992 -0.0227,0.1746 -0.0675,0.2256 -0.0451,0.0508 -0.1043,0.076 -0.1772,0.076 -0.0725,0 -0.1318,-0.0252 -0.1777,-0.076 -0.0462,-0.051 -0.0694,-0.1264 -0.0694,-0.2256 v -1.3692 c 0,-0.0898 0.0209,-0.1587 0.062,-0.2055 0.0414,-0.0465 0.0959,-0.07 0.1636,-0.07 0.0658,0 0.1202,0.0224 0.1638,0.0661 0.0437,0.0436 0.0658,0.104 0.0658,0.1811 v 0.0456 c 0.0828,-0.0995 0.1718,-0.1723 0.2665,-0.2191 0.0944,-0.0468 0.1998,-0.07 0.3152,-0.07 0.121,0 0.2239,0.0241 0.3107,0.0717 0.0867,0.0479 0.1578,0.1205 0.2137,0.2174 0.0808,-0.098 0.1675,-0.1706 0.2596,-0.218 0.0922,-0.047 0.1945,-0.0711 0.307,-0.0711 0.131,0 0.2435,0.0258 0.3382,0.0771 0.0944,0.0516 0.1658,0.1253 0.2123,0.2211 0.0408,0.0862 0.0612,0.2225 0.0612,0.4079 v 0.9349 c 0,0.1006 -0.0229,0.176 -0.0683,0.2262 -0.0456,0.0502 -0.106,0.0754 -0.1802,0.0754 -0.0723,0 -0.1316,-0.0252 -0.1778,-0.076 -0.0459,-0.051 -0.0691,-0.1264 -0.0691,-0.2256 v -0.8051 c 0,-0.1029 -0.004,-0.1848 -0.0134,-0.2469 -0.009,-0.0618 -0.0323,-0.1139 -0.0711,-0.1562 -0.0383,-0.0419 -0.097,-0.0629 -0.1755,-0.0629 -0.0632,0 -0.1233,0.0184 -0.18,0.0561 -0.0564,0.0372 -0.1006,0.0876 -0.1324,0.1508 -0.0351,0.0803 -0.0524,0.2234 -0.0524,0.4281 z"
       style="fill:#000000;fill-rule:evenodd"
       id="path27220" />
  </g>
</svg>
