<?xml version="1.0" encoding="UTF-8" standalone="no"?>
<svg
   xmlns:dc="http://purl.org/dc/elements/1.1/"
   xmlns:cc="http://creativecommons.org/ns#"
   xmlns:rdf="http://www.w3.org/1999/02/22-rdf-syntax-ns#"
   xmlns:svg="http://www.w3.org/2000/svg"
   xmlns="http://www.w3.org/2000/svg"
   xmlns:sodipodi="http://sodipodi.sourceforge.net/DTD/sodipodi-0.dtd"
   xmlns:inkscape="http://www.inkscape.org/namespaces/inkscape"
   version="1.1"
   width="791.48932"
   height="791.48932"
   id="svg29062"
   viewBox="0 0 791.48933 791.48926"
   sodipodi:docname="R-17.svg"
   inkscape:version="1.0.2 (e86c870879, 2021-01-15)">
  <metadata
     id="metadata29068">
    <rdf:RDF>
      <cc:Work
         rdf:about="">
        <dc:format>image/svg+xml</dc:format>
        <dc:type
           rdf:resource="http://purl.org/dc/dcmitype/StillImage" />
        <dc:title />
      </cc:Work>
    </rdf:RDF>
  </metadata>
  <defs
     id="defs29066" />
  <sodipodi:namedview
     pagecolor="#ffffff"
     bordercolor="#666666"
     borderopacity="1"
     objecttolerance="10"
     gridtolerance="10"
     guidetolerance="10"
     inkscape:pageopacity="0"
     inkscape:pageshadow="2"
     inkscape:window-width="1920"
     inkscape:window-height="1016"
     id="namedview29064"
     showgrid="false"
     inkscape:zoom="0.049253423"
     inkscape:cx="-5611.1899"
     inkscape:cy="4957.8361"
     inkscape:window-x="0"
     inkscape:window-y="27"
     inkscape:window-maximized="1"
     inkscape:current-layer="svg29062"
     showguides="false"
     inkscape:document-rotation="0" />
  <g
     id="Layer1008"
     transform="matrix(65.957993,0,0,65.957993,-7940.7355,-1157.5892)">
    <path
       d="m 126.3908,18.8004 c 2.6228,0 4.7499,2.1271 4.7499,4.75 0,2.6229 -2.1271,4.7499 -4.7499,4.7499 -2.6229,0 -4.75,-2.127 -4.75,-4.7499 0,-2.6229 2.1271,-4.75 4.75,-4.75 z m 5.9999,4.75 c 0,-3.3131 -2.6868,-6 -5.9999,-6 -3.3132,0 -6,2.6869 -6,6 0,3.3131 2.6868,5.9999 6,5.9999 3.3131,0 5.9999,-2.6868 5.9999,-5.9999 z"
       style="fill:#ff0000;fill-rule:evenodd"
       id="path27203" />
    <path
       d="m 122.7697,24.1181 v 1.9322 c 0,0.1428 0.1114,0.2542 0.2543,0.2542 h 0.7627 c 0.1256,0 0.2288,-0.1032 0.2288,-0.2288 v -0.661 h 1.7034 c 0.0442,0.1657 0.3575,0.4322 0.5593,0.4322 h 0.1525 c 0.5373,0 0.6166,-0.4322 0.7373,-0.4322 h 1.6525 v 0.7118 c 0,0.0612 0.0914,0.1526 0.1526,0.1526 h 0.9152 c 0.0824,0 0.1526,-0.1105 0.1526,-0.2034 v -2.0339 c 0,-0.0612 -0.0914,-0.1525 -0.1526,-0.1525 h -0.9152 c -0.0612,0 -0.1526,0.0913 -0.1526,0.1525 v 0.7119 h -1.7288 c -0.0178,-0.2146 -0.3738,-0.4322 -0.6356,-0.4322 h -0.1017 c -0.2759,0 -0.5801,0.2244 -0.6355,0.4322 h -1.7034 v -0.6102 c 0,-0.1516 -0.0519,-0.2542 -0.2034,-0.2542 h -0.839 c -0.1312,0 -0.2034,0.1058 -0.2034,0.2288 z"
       style="fill:#000000;fill-rule:evenodd"
       id="path27205" />
    <path
       d="m 127.0243,22.4774 h -1.2212 v 2e-4 h -8e-4 l -0.6086,-2e-4 1.2199,1.22 1.2201,-1.2193 -0.6087,-2e-4 h -7e-4 z"
       style="fill:#000000;fill-rule:evenodd;stroke:#1b1918;stroke-width:0.5669;stroke-linecap:butt;stroke-linejoin:miter;stroke-dasharray:none"
       id="path27207" />
    <path
       d="m 125.2249,21.4978 h 0.8362 c 0.0836,0 0.1468,0.0173 0.1905,0.0522 0.0439,0.0343 0.0657,0.0813 0.0657,0.1406 0,0.0524 -0.0175,0.0975 -0.0518,0.1346 -0.0352,0.0366 -0.0873,0.0547 -0.1579,0.0547 h -1.1795 c -0.0805,0 -0.1429,-0.0221 -0.1877,-0.0669 -0.0448,-0.045 -0.0672,-0.0975 -0.0672,-0.1584 0,-0.0389 0.0139,-0.0902 0.0431,-0.1545 0.0292,-0.0644 0.0607,-0.1145 0.0947,-0.1517 0.1423,-0.1491 0.2701,-0.2769 0.3844,-0.3838 0.1145,-0.1063 0.1964,-0.1766 0.2449,-0.21 0.0882,-0.0624 0.1607,-0.1256 0.2188,-0.1894 0.0584,-0.0629 0.1026,-0.1278 0.1333,-0.1942 0.0303,-0.0666 0.0456,-0.1318 0.0456,-0.1956 0,-0.0691 -0.0164,-0.1312 -0.0488,-0.1859 -0.0326,-0.055 -0.0771,-0.0969 -0.1329,-0.1276 -0.0561,-0.0303 -0.1176,-0.0453 -0.1837,-0.0453 -0.1397,0 -0.25,0.0621 -0.3297,0.1868 -0.0107,0.0159 -0.0292,0.0604 -0.0544,0.1326 -0.0249,0.0726 -0.0527,0.1287 -0.0845,0.1673 -0.0311,0.0388 -0.0776,0.0587 -0.1386,0.0587 -0.0533,0 -0.0975,-0.0182 -0.1326,-0.0536 -0.0355,-0.0354 -0.053,-0.0842 -0.053,-0.1463 0,-0.0742 0.0164,-0.1522 0.0499,-0.233 0.0326,-0.0813 0.0824,-0.155 0.1479,-0.2211 0.0658,-0.0657 0.1488,-0.119 0.25,-0.1593 0.1004,-0.0405 0.2192,-0.0609 0.3549,-0.0609 0.163,0 0.3022,0.026 0.4176,0.0773 0.0751,0.0349 0.1411,0.0825 0.1976,0.1429 0.0569,0.061 0.1012,0.1307 0.132,0.2106 0.0321,0.0791 0.0477,0.1616 0.0477,0.2469 0,0.1347 -0.0326,0.2563 -0.0981,0.366 -0.0658,0.1097 -0.133,0.1961 -0.2013,0.2582 -0.0683,0.0618 -0.1828,0.1599 -0.3435,0.2928 -0.1608,0.133 -0.2713,0.2364 -0.3308,0.3096 -0.0258,0.0295 -0.0522,0.0649 -0.0788,0.1057 z m 2.2878,-1.3388 h 0.0482 v -0.2664 c 0,-0.0715 10e-4,-0.1273 0.005,-0.1679 0.004,-0.0411 0.0142,-0.0759 0.0309,-0.1046 0.017,-0.0306 0.0417,-0.0555 0.074,-0.0742 0.0317,-0.0187 0.0671,-0.0284 0.1071,-0.0284 0.0553,0 0.1049,0.0213 0.1497,0.0632 0.0303,0.0284 0.0487,0.0627 0.0572,0.1035 0.008,0.0405 0.0119,0.0981 0.0119,0.1729 v 0.3019 h 0.1602 c 0.0618,0 0.1094,0.0147 0.1417,0.0442 0.0326,0.0298 0.0491,0.0681 0.0491,0.114 0,0.0598 -0.0233,0.1015 -0.0698,0.1253 -0.0464,0.0238 -0.1128,0.0354 -0.1995,0.0354 h -0.0817 v 0.8138 c 0,0.0695 0.002,0.1231 0.007,0.1602 0.005,0.0371 0.0173,0.0675 0.0383,0.0907 0.0213,0.0232 0.0553,0.0349 0.1023,0.0349 0.025,0 0.0601,-0.0043 0.1038,-0.0136 0.0436,-0.0091 0.0779,-0.0139 0.102,-0.0139 0.0357,0 0.0675,0.0144 0.0958,0.0431 0.0287,0.0289 0.0423,0.0643 0.0423,0.1063 0,0.0714 -0.0383,0.1258 -0.1151,0.1632 -0.0768,0.0383 -0.1874,0.0573 -0.3317,0.0573 -0.1369,0 -0.2401,-0.0233 -0.3101,-0.0697 -0.0706,-0.0468 -0.1165,-0.1109 -0.1383,-0.1934 -0.0218,-0.0819 -0.0326,-0.1916 -0.0326,-0.3291 v -0.8498 h -0.0578 c -0.0632,0 -0.1114,-0.015 -0.144,-0.0453 -0.0335,-0.0301 -0.0499,-0.0689 -0.0499,-0.1154 0,-0.0459 0.0176,-0.0842 0.0521,-0.114 0.0349,-0.0295 0.0851,-0.0442 0.1514,-0.0442 z"
       style="fill:#000000;fill-rule:evenodd"
       id="path27209" />
  </g>
</svg>
