<?xml version="1.0" encoding="UTF-8" standalone="no"?>
<svg
   xmlns:dc="http://purl.org/dc/elements/1.1/"
   xmlns:cc="http://creativecommons.org/ns#"
   xmlns:rdf="http://www.w3.org/1999/02/22-rdf-syntax-ns#"
   xmlns:svg="http://www.w3.org/2000/svg"
   xmlns="http://www.w3.org/2000/svg"
   xmlns:sodipodi="http://sodipodi.sourceforge.net/DTD/sodipodi-0.dtd"
   xmlns:inkscape="http://www.inkscape.org/namespaces/inkscape"
   version="1.1"
   width="791.48932"
   height="791.48932"
   id="svg29062"
   viewBox="0 0 791.48933 791.48926"
   sodipodi:docname="R-18.svg"
   inkscape:version="1.0.2 (e86c870879, 2021-01-15)">
  <metadata
     id="metadata29068">
    <rdf:RDF>
      <cc:Work
         rdf:about="">
        <dc:format>image/svg+xml</dc:format>
        <dc:type
           rdf:resource="http://purl.org/dc/dcmitype/StillImage" />
        <dc:title />
      </cc:Work>
    </rdf:RDF>
  </metadata>
  <defs
     id="defs29066" />
  <sodipodi:namedview
     pagecolor="#ffffff"
     bordercolor="#666666"
     borderopacity="1"
     objecttolerance="10"
     gridtolerance="10"
     guidetolerance="10"
     inkscape:pageopacity="0"
     inkscape:pageshadow="2"
     inkscape:window-width="1920"
     inkscape:window-height="1016"
     id="namedview29064"
     showgrid="false"
     inkscape:zoom="0.049253423"
     inkscape:cx="-6548.4002"
     inkscape:cy="4957.8362"
     inkscape:window-x="0"
     inkscape:window-y="27"
     inkscape:window-maximized="1"
     inkscape:current-layer="svg29062"
     showguides="false"
     inkscape:document-rotation="0" />
  <g
     id="Layer1007"
     transform="matrix(65.957993,0,0,65.957993,-8877.9459,-1157.5892)">
    <path
       d="m 140.6,18.8004 c 2.6229,0 4.7499,2.1271 4.7499,4.75 0,2.6229 -2.127,4.7499 -4.7499,4.7499 -2.6229,0 -4.75,-2.127 -4.75,-4.7499 0,-2.6229 2.1271,-4.75 4.75,-4.75 z m 5.9999,4.75 c 0,-3.3131 -2.6868,-6 -5.9999,-6 -3.3131,0 -6,2.6869 -6,6 0,3.3131 2.6869,5.9999 6,5.9999 3.3131,0 5.9999,-2.6868 5.9999,-5.9999 z"
       style="fill:#ff0000;fill-rule:evenodd"
       id="path27186" />
    <path
       d="m 139.5634,20.5742 v 2.5169 c 0,0.0776 0.0245,0.1026 0.0509,0.1526 h 1.4491 c -0.0869,0.1298 -0.2542,0.1885 -0.2542,0.4576 v 0.1017 c 0,0.2676 0.2728,0.5085 0.5339,0.5085 h 0.0508 c 0.2496,0 0.5339,-0.2566 0.5339,-0.4831 v -0.0762 c 0,-0.33 -0.1366,-0.3329 -0.2542,-0.5085 h 0.7373 c -0.1407,0.1222 -0.2797,0.2463 -0.2797,0.5085 0,0.2648 0.2599,0.5593 0.5085,0.5593 h 0.0254 c 0.3298,0 0.6102,-0.2495 0.6102,-0.5593 0,-0.2488 -0.1464,-0.3927 -0.2797,-0.5085 h 0.7119 c 0.0264,-0.05 0.0508,-0.075 0.0508,-0.1526 v -2.5169 c 0,-0.0822 -0.0923,-0.1271 -0.1779,-0.1271 h -3.839 c -0.0857,0 -0.178,0.0449 -0.178,0.1271 z"
       style="fill:#020202;fill-rule:evenodd"
       id="path27188" />
    <path
       d="m 136.6906,22.1759 v 0.9661 c 0,0.0595 0.0422,0.1017 0.1017,0.1017 h 0.3813 c 0.0396,-0.1484 0.3541,-0.2797 0.5593,-0.2797 h 0.0763 c 0.2912,0 0.5226,0.2797 0.5848,0.2797 h 0.9152 c 0.0595,0 0.1017,-0.0422 0.1017,-0.1017 v -1.7034 c 0,-0.0586 -0.0177,-0.0763 -0.0763,-0.0763 h -0.8644 c -0.1444,0 -0.5592,0.4447 -0.6673,0.553 -0.1748,0.1753 -0.1231,0.1592 -0.4513,0.1589 -0.2034,-2e-4 -0.4068,0 -0.6102,0"
       style="fill:#020202;fill-rule:evenodd"
       id="path27190" />
    <path
       d="m 137.1736,23.7522 c 0,0.2857 0.2684,0.5593 0.5593,0.5593 0.3347,0 0.5848,-0.2532 0.5848,-0.5848 0,-0.2786 -0.2725,-0.5593 -0.5339,-0.5593 -0.3372,0 -0.6102,0.2554 -0.6102,0.5848 z"
       style="fill:#020202;fill-rule:evenodd"
       id="path27192" />
    <path
       d="m 138.0384,26.3407 -6e-4,-0.835 h -1e-4 v -5e-4 l -2e-4,-0.4162 -0.8852,0.8343 0.886,0.8341 -2e-4,-0.4162 v -5e-4 z"
       style="fill:#000000;fill-rule:evenodd"
       id="path27194" />
    <path
       d="m 138.7297,26.565 v -0.9689 c -0.1656,0.1381 -0.2772,0.2073 -0.3348,0.2073 -0.0272,0 -0.0519,-0.012 -0.0726,-0.0358 -0.0212,-0.0235 -0.0317,-0.051 -0.0317,-0.0825 0,-0.0362 0.0105,-0.0629 0.0309,-0.0799 0.021,-0.0167 0.0578,-0.0388 0.1105,-0.0658 0.0794,-0.0405 0.1423,-0.083 0.1894,-0.1278 0.0476,-0.0448 0.0893,-0.095 0.1261,-0.1502 0.0366,-0.0556 0.0604,-0.0893 0.0718,-0.1021 0.0107,-0.0127 0.0317,-0.0193 0.0626,-0.0193 0.0343,0 0.0624,0.0145 0.0831,0.0437 0.0209,0.0289 0.0314,0.0692 0.0314,0.1202 v 1.2195 c 0,0.1428 -0.0448,0.214 -0.1343,0.214 -0.0397,0 -0.0718,-0.0145 -0.0958,-0.0437 -0.0244,-0.0289 -0.0366,-0.072 -0.0366,-0.1287 z m 1.7223,-0.6202 c 0,0.1168 -0.006,0.2169 -0.0195,0.3005 -0.0131,0.0842 -0.0372,0.1601 -0.0726,0.2282 -0.0442,0.0836 -0.1015,0.1482 -0.1721,0.1939 -0.0703,0.0453 -0.1491,0.068 -0.2352,0.068 -0.099,0 -0.188,-0.0306 -0.2665,-0.0919 -0.0785,-0.0609 -0.1378,-0.1454 -0.178,-0.2531 -0.0201,-0.059 -0.0346,-0.1244 -0.0442,-0.1956 -0.009,-0.0714 -0.0142,-0.1485 -0.0142,-0.2316 0,-0.1074 0.005,-0.2038 0.0156,-0.2897 0.0105,-0.0861 0.0269,-0.1598 0.049,-0.2219 0.0383,-0.1021 0.0947,-0.18 0.1678,-0.2333 0.0734,-0.0536 0.1608,-0.0805 0.2631,-0.0805 0.0669,0 0.1278,0.0119 0.1828,0.0357 0.0547,0.0238 0.1029,0.0584 0.1443,0.1043 0.0414,0.0459 0.0765,0.1026 0.1052,0.1698 0.0499,0.1171 0.0745,0.2832 0.0745,0.4972 z m -0.2684,-0.021 c 0,-0.1298 -0.007,-0.2364 -0.0213,-0.3189 -0.0147,-0.083 -0.0388,-0.1457 -0.0728,-0.1879 -0.0341,-0.042 -0.0811,-0.0632 -0.1409,-0.0632 -0.0862,0 -0.146,0.0473 -0.1797,0.142 -0.0338,0.0941 -0.0505,0.2395 -0.0505,0.4362 0,0.1336 0.007,0.2433 0.0216,0.3283 0.0141,0.0853 0.0385,0.15 0.0722,0.1936 0.0341,0.0434 0.0803,0.0652 0.1384,0.0652 0.0598,0 0.1068,-0.0224 0.1411,-0.0677 0.0335,-0.0457 0.0576,-0.1109 0.0709,-0.1951 0.0139,-0.0847 0.021,-0.1953 0.021,-0.3325 z m 1.8907,0.2438 v 0.3867 c 0,0.0609 -0.0128,0.1068 -0.038,0.1374 -0.0255,0.0304 -0.0595,0.0457 -0.1009,0.0457 -0.0403,0 -0.0731,-0.0153 -0.0981,-0.0457 -0.0249,-0.0306 -0.0377,-0.0765 -0.0377,-0.1374 v -0.4635 c 0,-0.0734 -0.002,-0.1301 -0.007,-0.1707 -0.004,-0.0402 -0.0167,-0.0737 -0.0368,-0.0995 -0.0207,-0.026 -0.0522,-0.0391 -0.0964,-0.0391 -0.0876,0 -0.1451,0.0329 -0.1726,0.0984 -0.0281,0.0649 -0.042,0.1587 -0.042,0.2812 v 0.3932 c 0,0.0603 -0.0125,0.106 -0.0377,0.1369 -0.0252,0.0309 -0.0581,0.0462 -0.0989,0.0462 -0.0406,0 -0.0737,-0.0153 -0.0995,-0.0462 -0.0255,-0.0309 -0.0383,-0.0766 -0.0383,-0.1369 V 25.722 c 0,-0.0547 0.0116,-0.0964 0.0346,-0.1247 0.023,-0.0284 0.0533,-0.0425 0.091,-0.0425 0.0371,0 0.0672,0.0133 0.0918,0.0399 0.0244,0.0264 0.0366,0.0632 0.0366,0.11 v 0.0278 c 0.0462,-0.0604 0.0958,-0.1049 0.1488,-0.1332 0.0527,-0.0284 0.1117,-0.0426 0.176,-0.0426 0.0675,0 0.1248,0.0148 0.1732,0.0437 0.0485,0.0292 0.0885,0.0731 0.1194,0.1321 0.0453,-0.0595 0.0938,-0.1038 0.1451,-0.1324 0.0516,-0.0286 0.1086,-0.0434 0.1715,-0.0434 0.0731,0 0.1361,0.0156 0.1888,0.0471 0.0527,0.0312 0.0924,0.076 0.1185,0.1341 0.0227,0.0524 0.034,0.1355 0.034,0.248 v 0.5684 c 0,0.0609 -0.0127,0.1068 -0.038,0.1374 -0.0255,0.0304 -0.0589,0.0457 -0.1006,0.0457 -0.0405,0 -0.0734,-0.0153 -0.0992,-0.0462 -0.0255,-0.0309 -0.0386,-0.0766 -0.0386,-0.1369 V 26.065 c 0,-0.0627 -0.002,-0.1125 -0.008,-0.1502 -0.005,-0.0375 -0.0179,-0.0692 -0.0394,-0.095 -0.0219,-0.0255 -0.0545,-0.0383 -0.0981,-0.0383 -0.0354,0 -0.0689,0.0114 -0.1006,0.0343 -0.0315,0.0224 -0.0562,0.053 -0.0737,0.0916 -0.0199,0.0487 -0.0295,0.1358 -0.0295,0.2602 z"
       style="fill:#000000;fill-rule:evenodd"
       id="path27196" />
    <path
       d="m 143.074,26.3208 7e-4,-0.8195 h 1e-4 v -5e-4 l 2e-4,-0.4084 0.8852,0.8188 -0.886,0.8185 2e-4,-0.4084 v -5e-4 z"
       style="fill:#000000;fill-rule:evenodd"
       id="path27198" />
    <path
       d="m 138.394,23.2437 h 0.9152 c 0.0595,0 0.1017,-0.0422 0.1017,-0.1017 v -1.7034 c 0,-0.0586 -0.0177,-0.0763 -0.0763,-0.0763 h -0.8644 c -0.1444,0 -0.5592,0.4447 -0.6673,0.553 -0.1748,0.1753 -0.1231,0.1592 -0.4513,0.1589 -0.2034,-2e-4 -0.4068,0 -0.6102,0 -0.0307,0.0459 -0.0508,0.0447 -0.0508,0.1017 v 0.9661 c 0,0.0595 0.0422,0.1017 0.1017,0.1017 h 0.3813 c 0.0396,-0.1484 0.3541,-0.2797 0.5594,-0.2797 h 0.0762 c 0.2912,0 0.5226,0.2797 0.5848,0.2797 z m 0.7627,-1.1441 h -1.0678 c 0.0183,-0.0686 0.3094,-0.5084 0.3813,-0.5084 h 0.7627 v 0.4322 c 0,0.0585 -0.0176,0.0762 -0.0762,0.0762 z"
       style="fill:#000000;fill-rule:evenodd"
       id="path27200" />
  </g>
</svg>
