<?xml version="1.0" encoding="UTF-8" standalone="no"?>
<svg
   xmlns:dc="http://purl.org/dc/elements/1.1/"
   xmlns:cc="http://creativecommons.org/ns#"
   xmlns:rdf="http://www.w3.org/1999/02/22-rdf-syntax-ns#"
   xmlns:svg="http://www.w3.org/2000/svg"
   xmlns="http://www.w3.org/2000/svg"
   xmlns:sodipodi="http://sodipodi.sourceforge.net/DTD/sodipodi-0.dtd"
   xmlns:inkscape="http://www.inkscape.org/namespaces/inkscape"
   version="1.1"
   width="791.48932"
   height="791.48932"
   id="svg29062"
   viewBox="0 0 791.48933 791.48926"
   sodipodi:docname="R-19.svg"
   inkscape:version="1.0.2 (e86c870879, 2021-01-15)">
  <metadata
     id="metadata29068">
    <rdf:RDF>
      <cc:Work
         rdf:about="">
        <dc:format>image/svg+xml</dc:format>
        <dc:type
           rdf:resource="http://purl.org/dc/dcmitype/StillImage" />
        <dc:title />
      </cc:Work>
    </rdf:RDF>
  </metadata>
  <defs
     id="defs29066" />
  <sodipodi:namedview
     pagecolor="#ffffff"
     bordercolor="#666666"
     borderopacity="1"
     objecttolerance="10"
     gridtolerance="10"
     guidetolerance="10"
     inkscape:pageopacity="0"
     inkscape:pageshadow="2"
     inkscape:window-width="1920"
     inkscape:window-height="1016"
     id="namedview29064"
     showgrid="false"
     inkscape:zoom="0.049253423"
     inkscape:cx="-7485.5973"
     inkscape:cy="8231.2999"
     inkscape:window-x="0"
     inkscape:window-y="27"
     inkscape:window-maximized="1"
     inkscape:current-layer="svg29062"
     showguides="false"
     inkscape:document-rotation="0" />
  <g
     id="Layer1028"
     transform="matrix(65.957993,0,0,65.957993,-9815.143,-1157.5892)">
    <path
       d="m 154.8089,18.8004 c 2.6229,0 4.75,2.1271 4.75,4.75 0,2.6229 -2.1271,4.7499 -4.75,4.7499 -2.6229,0 -4.7499,-2.127 -4.7499,-4.7499 0,-2.6229 2.127,-4.75 4.7499,-4.75 z m 6,4.75 c 0,-3.3131 -2.6869,-6 -6,-6 -3.3131,0 -5.9999,2.6869 -5.9999,6 0,3.3131 2.6868,5.9999 5.9999,5.9999 3.3131,0 6,-2.6868 6,-5.9999 z"
       style="fill:#ff0000;fill-rule:evenodd"
       id="path27527" />
    <path
       d="m 154.2003,23.9532 c 0,0.1961 -0.0363,0.377 -0.1085,0.5428 -0.0723,0.1656 -0.1729,0.3084 -0.3025,0.428 -0.1293,0.12 -0.2832,0.2138 -0.462,0.2812 -0.1789,0.0678 -0.3765,0.1015 -0.5936,0.1015 -0.2279,0 -0.4402,-0.0414 -0.6361,-0.1241 -0.1962,-0.0831 -0.3719,-0.2007 -0.5278,-0.3532 -0.1562,-0.1525 -0.271,-0.3391 -0.3453,-0.559 -0.074,-0.2203 -0.1111,-0.4805 -0.1111,-0.7813 0,-0.462 0.0862,-0.8849 0.2594,-1.2685 0.1732,-0.3835 0.4215,-0.7038 0.7446,-0.9609 0.1103,-0.0873 0.2228,-0.1624 0.3368,-0.2256 0.1139,-0.0632 0.233,-0.1146 0.3566,-0.1537 0.1236,-0.0394 0.2548,-0.0677 0.3937,-0.085 0.1389,-0.0176 0.292,-0.0261 0.4595,-0.0261 v 0.7844 h -0.0686 c -0.2052,0 -0.3821,0.0209 -0.5306,0.0623 -0.1486,0.0414 -0.2892,0.1077 -0.4224,0.1993 -0.1749,0.1134 -0.3175,0.2429 -0.428,0.3889 -0.1103,0.1463 -0.2129,0.3348 -0.3079,0.5658 0.0837,-0.0264 0.1605,-0.049 0.2311,-0.0689 0.0703,-0.0195 0.1389,-0.0337 0.2052,-0.0425 0.0666,-0.0085 0.1341,-0.015 0.2027,-0.0196 0.0686,-0.0042 0.1408,-0.0065 0.2168,-0.0065 0.2092,0 0.4014,0.0329 0.5763,0.0981 0.1749,0.0655 0.3263,0.157 0.4538,0.2747 0.1273,0.1176 0.2271,0.2571 0.2994,0.4184 0.0722,0.1613 0.1085,0.3379 0.1085,0.5295 z m -0.6848,0.013 c 0,-0.1655 -0.0743,-0.2985 -0.2225,-0.3988 -0.1483,-0.1001 -0.3422,-0.1503 -0.582,-0.1503 -0.2398,0 -0.4317,0.0491 -0.5766,0.1472 -0.1442,0.098 -0.2165,0.2276 -0.2165,0.3889 0,0.1701 0.0723,0.3053 0.2165,0.4053 0.1449,0.1004 0.3368,0.1506 0.5766,0.1506 0.2398,0 0.4337,-0.0491 0.582,-0.1472 0.1482,-0.098 0.2225,-0.2299 0.2225,-0.3957 z m 4.8841,-0.9544 c 0,0.2832 -0.0295,0.5613 -0.0882,0.8337 -0.0592,0.2724 -0.1522,0.5176 -0.28,0.7356 -0.1273,0.2177 -0.2917,0.3931 -0.4936,0.5261 -0.2015,0.1329 -0.4467,0.1995 -0.7358,0.1995 -0.2852,0 -0.5295,-0.0643 -0.7334,-0.193 -0.2035,-0.1284 -0.3696,-0.2996 -0.4991,-0.5131 -0.1293,-0.2137 -0.2243,-0.4566 -0.2852,-0.7291 -0.0609,-0.2724 -0.0913,-0.5524 -0.0913,-0.8401 0,-0.2878 0.0315,-0.5678 0.0941,-0.8402 0.0627,-0.2724 0.1596,-0.5131 0.2912,-0.7223 0.1309,-0.2092 0.2976,-0.3781 0.4991,-0.5068 0.2016,-0.1287 0.4431,-0.1928 0.7246,-0.1928 0.2851,0 0.5286,0.0652 0.7302,0.1962 0.2018,0.1306 0.3671,0.3016 0.4966,0.513 0.1293,0.2115 0.2234,0.4513 0.2826,0.7192 0.0587,0.2681 0.0882,0.5394 0.0882,0.8141 z m -0.6849,0.0196 c 0,-0.4621 -0.0796,-0.8238 -0.2392,-1.0854 -0.1599,-0.2614 -0.3844,-0.3923 -0.6735,-0.3923 -0.1712,0 -0.3158,0.0459 -0.4337,0.1374 -0.118,0.0916 -0.2129,0.2081 -0.2852,0.3498 -0.0723,0.1418 -0.1247,0.2985 -0.1568,0.4706 -0.0326,0.1723 -0.0487,0.339 -0.0487,0.5003 0,0.4881 0.0819,0.862 0.2452,1.1214 0.1635,0.2594 0.39,0.3889 0.6792,0.3889 0.1409,0 0.2673,-0.036 0.3795,-0.108 0.112,-0.0717 0.2084,-0.1743 0.2883,-0.3073 0.0797,-0.1329 0.1406,-0.2919 0.1826,-0.4771 0.0416,-0.1853 0.0623,-0.3911 0.0623,-0.6179 z"
       style="fill:#000000;fill-rule:evenodd"
       id="path27529" />
    <path
       d="m 156.3823,27.0713 v -0.4226 c 0,-0.0325 -0.0101,-0.0598 -0.0304,-0.0819 -0.0204,-0.022 -0.0457,-0.033 -0.0762,-0.033 -0.0166,0 -0.033,0.0028 -0.0492,0.0086 -0.0161,0.0057 -0.0306,0.0136 -0.0436,0.0237 -0.0129,0.0101 -0.0235,0.0216 -0.0318,0.0345 -0.008,0.0129 -0.0125,0.0266 -0.0125,0.041 v 0.4297 h -0.1855 v -0.9054 l 0.1855,-0.0748 v 0.3148 c 0.0388,-0.0221 0.0716,-0.0372 0.0983,-0.0453 0.0268,-0.0082 0.0559,-0.0122 0.0873,-0.0122 0.0332,0 0.0643,0.0062 0.0934,0.0187 0.0291,0.0124 0.0547,0.0292 0.0769,0.0503 0.0221,0.021 0.0394,0.0459 0.0519,0.0747 0.0125,0.0287 0.0187,0.0594 0.0187,0.092 v 0.4872 z"
       style="fill:#000000;fill-rule:evenodd"
       id="path27531" />
    <path
       d="m 155.7275,26.0926 -0.3498,0.9766 h -0.1889 l 0.3498,-0.9766 z"
       style="fill:#000000;fill-rule:evenodd"
       id="path27533" />
    <path
       d="m 154.7706,27.0713 v -0.4226 c 0,-0.0163 -0.003,-0.0313 -0.01,-0.0452 -0.006,-0.0139 -0.0152,-0.0261 -0.0263,-0.0367 -0.011,-0.0105 -0.0237,-0.0187 -0.038,-0.0244 -0.0144,-0.0058 -0.0298,-0.0086 -0.0464,-0.0086 -0.0157,0 -0.0305,0.0031 -0.0443,0.0093 -0.0139,0.0062 -0.0261,0.0144 -0.0367,0.0244 -0.0106,0.0101 -0.0192,0.0216 -0.0256,0.0345 -0.006,0.013 -0.01,0.0261 -0.01,0.0396 v 0.4297 h -0.1759 v -0.4226 c 0,-0.0325 -0.0115,-0.0598 -0.0346,-0.0819 -0.0231,-0.022 -0.0508,-0.033 -0.0831,-0.033 -0.0166,0 -0.0321,0.0028 -0.0464,0.0086 -0.0143,0.0057 -0.027,0.0136 -0.038,0.0237 -0.0111,0.0101 -0.0199,0.022 -0.0263,0.0359 -0.007,0.0139 -0.01,0.0285 -0.01,0.0439 v 0.4254 h -0.1856 v -0.7028 h 0.1856 v 0.0374 c 0.0323,-0.0202 0.0616,-0.0343 0.0879,-0.0424 0.0263,-0.0082 0.0556,-0.0122 0.0879,-0.0122 0.0702,0 0.1297,0.0273 0.1786,0.0819 0.0222,-0.0163 0.0418,-0.0297 0.0589,-0.0403 0.017,-0.0105 0.0334,-0.0189 0.0491,-0.0251 0.0157,-0.0063 0.0316,-0.0106 0.0478,-0.013 0.0161,-0.0024 0.0339,-0.0035 0.0533,-0.0035 0.036,0 0.0702,0.0059 0.1025,0.0179 0.0323,0.012 0.0609,0.0285 0.0858,0.0496 0.0249,0.0211 0.0448,0.0462 0.0595,0.0754 0.0148,0.0293 0.0222,0.0606 0.0222,0.0942 v 0.4829 z"
       style="fill:#000000;fill-rule:evenodd"
       id="path27535" />
    <path
       d="m 153.4525,26.5841 0.1883,0.4872 h -0.1883 l -0.1232,-0.3248 -0.108,0.1121 v 0.2127 h -0.1856 v -0.9054 l 0.1856,-0.0748 v 0.4772 l 0.1952,-0.1969 h 0.2312 z"
       style="fill:#000000;fill-rule:evenodd"
       id="path27537" />
  </g>
</svg>
