<?xml version="1.0" encoding="UTF-8" standalone="no"?>
<svg
   xmlns:dc="http://purl.org/dc/elements/1.1/"
   xmlns:cc="http://creativecommons.org/ns#"
   xmlns:rdf="http://www.w3.org/1999/02/22-rdf-syntax-ns#"
   xmlns:svg="http://www.w3.org/2000/svg"
   xmlns="http://www.w3.org/2000/svg"
   xmlns:sodipodi="http://sodipodi.sourceforge.net/DTD/sodipodi-0.dtd"
   xmlns:inkscape="http://www.inkscape.org/namespaces/inkscape"
   version="1.1"
   width="791.48932"
   height="791.48932"
   id="svg29062"
   viewBox="0 0 791.48933 791.48926"
   sodipodi:docname="R-20.svg"
   inkscape:version="1.0.2 (e86c870879, 2021-01-15)">
  <metadata
     id="metadata29068">
    <rdf:RDF>
      <cc:Work
         rdf:about="">
        <dc:format>image/svg+xml</dc:format>
        <dc:type
           rdf:resource="http://purl.org/dc/dcmitype/StillImage" />
        <dc:title />
      </cc:Work>
    </rdf:RDF>
  </metadata>
  <defs
     id="defs29066" />
  <sodipodi:namedview
     pagecolor="#ffffff"
     bordercolor="#666666"
     borderopacity="1"
     objecttolerance="10"
     gridtolerance="10"
     guidetolerance="10"
     inkscape:pageopacity="0"
     inkscape:pageshadow="2"
     inkscape:window-width="1920"
     inkscape:window-height="1016"
     id="namedview29064"
     showgrid="false"
     inkscape:zoom="0.049253423"
     inkscape:cx="-8422.8076"
     inkscape:cy="4957.8362"
     inkscape:window-x="0"
     inkscape:window-y="27"
     inkscape:window-maximized="1"
     inkscape:current-layer="svg29062"
     showguides="false"
     inkscape:document-rotation="0" />
  <g
     id="Layer1029"
     transform="matrix(65.957993,0,0,65.957993,-10752.353,-1157.5892)">
    <path
       d="m 169.0182,18.7504 c -2.6505,0 -4.8,2.1495 -4.8,4.8 0,2.6505 2.1495,4.7999 4.8,4.7999 2.6504,0 4.7999,-2.1494 4.7999,-4.7999 0,-2.6505 -2.1495,-4.8 -4.7999,-4.8 z m -6,4.8 c 0,-3.3131 2.6868,-6 6,-6 3.3131,0 5.9999,2.6869 5.9999,6 0,3.3131 -2.6868,5.9999 -5.9999,5.9999 -3.3132,0 -6,-2.6868 -6,-5.9999 z"
       style="fill:#ff0000;fill-rule:evenodd"
       id="path27540" />
    <path
       d="m 171.6011,24.0637 -1e-4,-10e-5 -0.0308,-0.0397 -3e-4,-3e-4 -0.035,-0.038 -0.0393,-0.0321 -3e-4,-2e-4 -0.0424,-0.029 -0.0454,-0.0235 -0.0469,-0.0191 -0.0495,-0.0131 -5e-4,-10e-5 -0.0495,-0.0087 -0.0518,-0.0029 h -2.1665 l -0.2188,0.025 -1e-4,10e-5 -0.2192,0.0311 h -2e-4 l -0.2159,0.0385 h -1e-4 l -0.2162,0.0429 h -2e-4 l -0.2146,0.0503 h -2e-4 l -0.2132,0.0565 h -1e-4 l -0.2117,0.062 -2e-4,10e-5 -0.2087,0.0681 -1e-4,10e-5 -0.2086,0.074 h -1e-4 l -0.2043,0.08 -2e-4,10e-5 -0.2027,0.0857 h -1e-4 l -0.2014,0.0918 -1e-4,1e-4 -0.197,0.0976 -2e-4,10e-5 -0.1953,0.1036 -2e-4,10e-5 -0.1909,0.1081 h -1e-4 l -0.1894,0.1141 -2e-4,10e-5 -0.1851,0.1184 v 0 l -0.1821,0.1243 -1e-4,10e-5 -0.1776,0.1305 -0.003,-0.0045 -0.005,0.0023 -0.0668,-0.1482 -1e-4,-3e-4 -0.0594,-0.1498 -1e-4,-10e-5 -0.0547,-0.1526 v -2e-4 l -0.0491,-0.1556 -1e-4,-3e-4 -0.0414,-0.1557 v -2e-4 l -0.0372,-0.1586 v -2e-4 l -0.031,-0.1585 -1e-4,-3e-4 -0.0237,-0.1601 v -10e-5 l -0.0192,-0.1617 v -2e-4 l -0.0121,-0.1615 v -3e-4 l -0.006,-0.1615 v -2e-4 -0.1629 -2e-4 l 0.006,-0.1617 v -2e-4 l 0.0121,-0.1615 v -3e-4 l 0.0192,-0.1616 v -2e-4 l 0.0237,-0.16 1e-4,-3e-4 0.031,-0.1585 v -2e-4 l 0.0372,-0.1587 v -2e-4 l 0.0414,-0.1557 1e-4,-2e-4 0.0491,-0.1541 v -2e-4 l 0.0547,-0.1527 1e-4,-10e-5 0.0594,-0.1513 1e-4,-2e-4 0.0668,-0.1482 0.005,0.0022 0.003,-0.0044 0.1776,0.1304 1e-4,10e-5 0.1821,0.1243 v 0 l 0.1851,0.1185 h 2e-4 l 0.1894,0.1142 h 1e-4 l 0.1909,0.1095 2e-4,10e-5 0.1953,0.1021 10e-5,1e-4 0.1971,0.0977 h 1e-4 l 0.2014,0.0918 1e-4,10e-5 0.2027,0.0857 2e-4,10e-5 0.2043,0.08 h 1e-4 l 0.2086,0.074 h 1e-4 l 0.2087,0.0682 h 2e-4 l 0.2117,0.062 1e-4,10e-5 0.2132,0.0564 2e-4,10e-5 0.2146,0.0503 h 2e-4 l 0.2162,0.0428 1e-4,10e-5 0.2159,0.0385 h 2e-4 l 0.2192,0.0311 h 1e-4 l 0.2188,0.0251 h 2.1665 l 0.0519,-0.0029 0.0497,-0.0073 0.0495,-0.0146 0.0471,-0.0192 0.0454,-0.0234 0.0424,-0.029 3e-4,-3e-4 0.0394,-0.0321 0.0351,-0.0368 0.0309,-0.0411 v -10e-5 l 0.0459,-0.0607 3e-4,-3e-4 0.0489,-0.0563 2e-4,-3e-4 2e-4,-10e-5 0.0547,-0.0518 3e-4,-3e-4 0.0594,-0.0476 2e-4,-10e-5 2e-4,-2e-4 0.0623,-0.0414 3e-4,-2e-4 0.0652,-0.0372 3e-4,-2e-4 h 1e-4 l 0.0683,-0.0311 5e-4,-2e-4 0.0711,-0.0251 5e-4,-2e-4 0.0726,-0.0192 4e-4,-10e-5 0.0725,-0.0134 5e-4,-10e-5 0.0758,-0.0074 h 4e-4 l 0.0755,-0.0015 h 4e-4 2e-4 l 0.0741,0.006 4e-4,10e-5 0.074,0.0119 h 4e-4 l 0.0742,0.0177 1e-4,10e-5 4e-4,10e-5 0.0713,0.0239 4e-4,1e-4 0.0681,0.0296 3e-4,10e-5 0.0667,0.034 2e-4,10e-5 3e-4,2e-4 0.0637,0.0416 4e-4,3e-4 0.0594,0.0459 3e-4,3e-4 0.0548,0.0503 3e-4,3e-4 0.0518,0.0548 10e-5,10e-5 2e-4,3e-4 0.046,0.0595 2e-4,3e-4 0.0416,0.0622 2e-4,4e-4 0.037,0.0668 2e-4,2e-4 1e-4,3e-4 0.0296,0.0681 2e-4,3e-4 0.0253,0.0711 1e-4,3e-4 v 2e-4 l 0.0178,0.0728 v 3e-4 l 0.0133,0.074 1e-4,6e-4 h 1e-4 l 0.006,0.0756 v 4e-4 0.0741 4e-4 l -0.006,0.0757 v -2e-4 l -1e-4,2e-4 h 1e-4 -1e-4 l -1e-4,5e-4 -0.0133,0.0741 v 3e-4 l -0.0178,0.0727 v 3e-4 l -1e-4,3e-4 -0.0253,0.0711 -2e-4,4e-4 -0.0296,0.068 -2e-4,3e-4 v 10e-5 l -0.037,0.0669 -3e-4,4e-4 -0.0416,0.0623 -2e-4,3e-4 -0.046,0.0593 -2e-4,3e-4 -10e-5,2e-4 -0.0518,0.0548 -3e-4,3e-4 -0.0548,0.0503 -3e-4,2e-4 -0.0594,0.046 -4e-4,2e-4 -0.0637,0.0416 -3e-4,3e-4 -2e-4,10e-5 -0.0667,0.0339 -3e-4,2e-4 -0.0681,0.0295 -4e-4,2e-4 -0.0713,0.0238 -4e-4,2e-4 v 0 l -0.0743,0.0177 -4e-4,10e-5 -0.074,0.0119 -4e-4,10e-5 -0.0741,0.0059 h -2e-4 -4e-4 l -0.0755,-0.0014 -4e-4,-10e-5 -0.0758,-0.0074 h -5e-4 l -0.0725,-0.0135 h -4e-4 l -0.0726,-0.0193 -5e-4,-10e-5 -0.0711,-0.0252 -5e-4,-10e-5 -0.0683,-0.0311 -1e-4,-10e-5 -3e-4,-2e-4 -0.0652,-0.0372 -3e-4,-2e-4 -0.0623,-0.0414 -2e-4,-2e-4 -2e-4,-10e-5 -0.0594,-0.0476 -3e-4,-3e-4 -0.0547,-0.0517 -2e-4,-2e-4 -2e-4,-2e-4 -0.0489,-0.0564 -3e-4,-2e-4 z"
       style="fill:#000000;fill-rule:evenodd"
       id="path27542" />
    <path
       d="m 172.392,27.7331 0.8076,-0.8076 -7.5579,-7.5579 -0.805,0.8076 z"
       style="fill:#ff0000;fill-rule:evenodd;stroke:#ff0000;stroke-width:0.0025;stroke-linecap:butt;stroke-linejoin:miter;stroke-dasharray:none"
       id="path27544" />
  </g>
</svg>
