<?xml version="1.0" encoding="UTF-8" standalone="no"?>
<svg
   xmlns:dc="http://purl.org/dc/elements/1.1/"
   xmlns:cc="http://creativecommons.org/ns#"
   xmlns:rdf="http://www.w3.org/1999/02/22-rdf-syntax-ns#"
   xmlns:svg="http://www.w3.org/2000/svg"
   xmlns="http://www.w3.org/2000/svg"
   xmlns:sodipodi="http://sodipodi.sourceforge.net/DTD/sodipodi-0.dtd"
   xmlns:inkscape="http://www.inkscape.org/namespaces/inkscape"
   version="1.1"
   width="791.48932"
   height="791.48932"
   id="svg29062"
   viewBox="0 0 791.48933 791.48926"
   sodipodi:docname="R-22.svg"
   inkscape:version="1.0.2 (e86c870879, 2021-01-15)">
  <metadata
     id="metadata29068">
    <rdf:RDF>
      <cc:Work
         rdf:about="">
        <dc:format>image/svg+xml</dc:format>
        <dc:type
           rdf:resource="http://purl.org/dc/dcmitype/StillImage" />
        <dc:title />
      </cc:Work>
    </rdf:RDF>
  </metadata>
  <defs
     id="defs29066" />
  <sodipodi:namedview
     pagecolor="#ffffff"
     bordercolor="#666666"
     borderopacity="1"
     objecttolerance="10"
     gridtolerance="10"
     guidetolerance="10"
     inkscape:pageopacity="0"
     inkscape:pageshadow="2"
     inkscape:window-width="1920"
     inkscape:window-height="1016"
     id="namedview29064"
     showgrid="false"
     inkscape:zoom="0.049253423"
     inkscape:cx="7024.1396"
     inkscape:cy="4095.7851"
     inkscape:window-x="0"
     inkscape:window-y="27"
     inkscape:window-maximized="1"
     inkscape:current-layer="svg29062"
     showguides="false"
     inkscape:document-rotation="0" />
  <g
     id="Layer1031"
     transform="matrix(65.957993,0,0,65.957993,-1293.7199,-2019.6403)">
    <path
       d="m 23.4361,37.6842 c -0.1281,0.1146 0.173,0.0892 0.173,0.0892 0.05,0.0137 0.0316,0.0306 0.049,0.1491 0.048,0.3269 0.1517,0.7785 0.2642,1.0688 -0.0027,0.0024 -0.0078,0.0015 -0.0091,0.0059 l -0.0273,0.0175 c -0.0123,0.0081 -0.0176,0.0086 -0.0342,0.0244 l 0.0133,0.0445 c 0.0748,0.0634 0.0772,-0.0219 0.1293,0.0794 0.1225,0.2385 0.1611,0.3807 0.3778,0.6166 l 0.1863,0.1261 c 0.0479,0.0322 0.1006,0.0535 0.1242,0.1049 -0.015,0.0279 -0.0074,0.0226 -0.0621,0.0446 -0.0027,0.0011 -0.0084,0.0017 -0.0124,0.0033 0.1423,0.0364 0.2353,0.0224 0.3591,0.0412 -0.0243,0.0718 0.0054,0.0233 -0.0553,0.0702 0.1378,-0.055 -0.0167,-0.0613 0.1997,-0.0488 -0.1843,-0.0763 -0.2953,0.012 -0.3101,-0.1201 0.1204,-0.0432 0.367,0.0866 0.4566,0.039 0.0645,-0.0343 0.1755,-0.0213 0.2197,-0.005 l -0.0159,0.0293 c -0.0141,0.0178 -0.022,0.0156 -0.0361,0.0419 0.0238,0.0676 0.0494,0.0638 0.0882,0.0654 l 0.1072,0.0011 c 0.1751,-0.048 0.1741,0.0211 0.1868,0.062 0.0011,-0.0026 0.001,-0.0102 0.0012,-0.0084 2e-4,0.0019 10e-4,-0.0072 0.0013,-0.0087 3e-4,-0.0017 0.0011,-0.0074 0.0015,-0.0096 l 0.0109,-0.0456 c 0.0209,0.0017 0.0913,0.0343 0.1276,-0.0254 0.039,-0.0641 -0.0418,-0.0636 -0.0385,-0.1021 0.0572,-0.021 0.1603,-0.0126 0.2348,-0.0094 -0.0351,0.104 0.0443,-0.0965 -0.0328,0.0526 -0.0111,0.0214 -0.0157,-0.0158 -0.016,0.0578 0.0592,-0.1161 0.0558,-0.053 0.0797,-0.1073 -0.2278,-0.0607 -0.2933,0.0295 -0.3548,0.033 -0.023,-0.029 -0.0146,0.0293 -0.017,-0.051 0.0418,-0.0498 0.0623,-0.0645 0.1552,-0.0753 -0.1448,-0.1234 -0.138,-0.044 -0.3653,-0.3342 -0.076,-0.097 -0.1953,-0.3146 -0.2411,-0.4537 0.0635,0.0015 0.0477,0.01 0.0736,0.0154 l 0.0509,-0.0064 c 0.1104,-0.0169 -0.0011,0.0371 0.1388,0.0376 -0.0404,-0.0772 -0.0033,-0.0772 -0.034,-0.1348 -0.0185,0.0267 0.0033,-0.0161 -0.0029,0.0208 l -0.0087,0.0441 c -0.0692,0.0245 -0.1758,0.0115 -0.2591,0.0103 -0.0968,-0.0015 -0.2083,0.035 -0.2314,-0.0475 0.0417,-0.0595 0.1184,-0.0292 0.1995,-0.0298 0.0815,-6e-4 0.1741,-0.0094 0.2548,0.0026 0.0027,-0.0033 0.0063,-0.0131 0.0077,-0.0103 0.0044,0.0087 0.003,-0.0216 0.0561,-0.0438 l 0.0512,0.0806 c 0.0306,0.0848 0.0356,0.0592 -0.0237,0.0951 0.1418,-0.0161 0.1819,-0.0296 0.1997,-0.0944 l -0.0376,-0.0078 c -0.0378,-0.01 0.0114,0.02 -0.0399,-0.0135 0.0068,-0.0613 0.0351,-0.08 0.0573,-0.1401 0.0475,-0.0493 0.0845,-0.1312 0.1229,-0.1944 0.0178,-0.0291 0.0403,-0.0794 0.0772,-0.0625 0.0502,0.0229 0.007,0.0653 -0.0084,0.114 0.0739,-0.0653 0.0573,0.0093 0.1455,-0.1229 0.0746,-0.1117 0.0443,-0.0554 0.0621,-0.1972 l -0.023,0.0289 c -0.0467,0.0615 -0.037,0.0613 -0.0855,0.0646 -0.0385,-0.0723 0.1012,-0.219 0.1381,-0.3176 l -0.0254,0.0404 c -0.0127,-0.0137 -0.0106,-0.01 -0.023,-0.0319 -0.0867,-0.1533 -0.1901,-0.8392 -0.2011,-1.0006 l -0.0668,0.0421 c 0.0024,0.0012 0.0069,0.0013 0.008,0.0017 0.1015,0.0313 0.0484,0.1348 -0.0498,0.2114 -0.0758,0.059 -0.1528,0.1645 -0.2678,0.0723 0.0446,-0.0717 0.2832,-0.052 0.2948,-0.257 -0.0764,0.0334 -0.0257,0.0519 -0.1094,0.0446 -0.015,-0.0652 -0.0041,-0.0538 0.0299,-0.0876 l 0.2037,-0.164 c -0.0348,-0.0144 -0.0468,0.016 -0.058,-0.046 -0.029,-0.1607 -0.0248,-0.8473 0.0261,-0.9223 -0.0633,-0.0321 -0.0395,-0.0515 -0.1132,-0.078 -0.0609,0.1242 -0.2094,-0.0141 -0.2548,-0.0477 -0.1196,-0.0886 -0.15,-0.131 -0.0779,-0.2406 -0.0651,-0.0315 -0.0787,-0.0792 -0.1896,-0.1429 0.0287,0.0339 0.0254,0.013 0.043,0.0589 -0.1134,0.0535 -0.2323,0.052 -0.3654,0.018 0.0175,0.0558 -0.0393,0.7822 -0.0384,0.9409 l 0.0347,0.739 c 0.0124,0.1339 0.0462,0.157 -0.0471,0.2039 -0.0519,-0.3966 -0.0694,-1.3945 -0.0094,-1.8343 l 0.0465,-0.0792 c -0.0352,-0.035 -0.033,-0.0231 -0.0328,-0.0859 l -0.1808,10e-4 -0.053,1.0394 c -10e-5,0.3577 0.0303,0.6887 0.0617,1.0386 l -0.0308,-0.0169 c -0.0231,-0.0012 -0.005,-0.0445 -0.017,0.017 -0.1221,-0.0015 -0.0429,-0.047 -0.2076,-0.0489 -0.0354,-4e-4 -0.0883,-0.0036 -0.1208,0.0063 -0.0894,0.0273 0.0132,0.0353 -0.1027,0.0424 -0.0221,-0.0259 -0.0176,-0.0039 -0.0158,-0.054 -0.014,0.0253 -0.0108,0.0353 -0.0479,0.052 -0.1104,-0.2028 -0.062,-1.7821 -0.0042,-2.0769 l -0.155,4e-4 -0.029,0.0573 c -0.0103,0.0187 -0.0248,0.0412 -0.0407,0.0526 -0.0326,0.0234 -0.3951,0.0935 -0.3942,-0.1103 -0.0248,0.0202 -0.0348,5e-4 -0.0438,0.1051 -0.0285,0.3272 -0.0466,0.5825 -0.0465,0.9195 0,0.3707 0.0268,0.6917 0.0584,1.0533 -0.0596,0.0015 -0.1466,-0.0069 -0.1869,0.0127 z"
       style="fill:#111111;fill-rule:evenodd"
       id="path27552" />
    <path
       d="m 26.4865,33.539 c -0.0299,0.0415 -0.299,0.0979 -0.5088,0.552 -0.0138,0.0299 -0.0126,0.0347 -0.0279,0.0532 -0.0326,0.0396 0.0064,0.0135 -0.0462,0.0372 l -0.0143,0.0797 c -0.0208,0.0108 0.021,0.0421 -0.0351,-0.0027 l 0.1168,0.2051 c 0.0031,0.0049 0.0159,0.0242 0.0197,0.0296 0.0148,0.0207 0.0132,0.0175 0.0224,0.0281 L 25.9896,34.45 c 0.1416,-0.0115 0.1535,0.0381 0.2082,0.1208 0.0619,0.0938 0.0493,0.0586 0.0827,0.1549 l 0.0203,0.0504 c 0.0396,-0.1016 0.15,-0.2421 0.2372,-0.2939 0.0706,-0.0419 0.0808,-0.0251 0.0919,-0.0236 l 0.0244,0.0095 c -0.0139,0.0756 -0.0584,0.0417 -0.1329,0.1089 -0.1505,0.136 -0.1957,0.3114 -0.2224,0.3351 -0.042,0.0374 -0.0187,-0.0135 -0.0419,0.002 0.0322,0.0477 0.0939,0.1193 0.0808,0.1783 -0.0039,0.002 -0.0096,0.0037 -0.0123,0.004 -0.1118,0.0147 0.0322,0.0225 -0.0339,0.0019 -0.039,-0.0122 -0.1193,-0.1796 -0.1374,-0.2162 -0.1107,0.0912 -0.1805,-0.0323 -0.2283,-0.1028 -0.0505,-0.0743 -0.1062,-0.1302 -0.0618,-0.2213 0.0103,-0.0211 0.0127,-0.0184 0.0203,-0.0294 0.0277,-0.04 8e-4,0.0107 0.0202,-0.0286 -0.0276,-0.0432 -0.0679,-0.1029 -0.0829,-0.1467 l -0.0478,0.049 c 0.0481,0.0025 0.025,-0.0038 0.0457,0.018 -0.1595,0.413 -0.2474,1.1946 -0.2807,1.2535 l 0.061,0.0504 0.0276,-0.0334 c 0.1064,-0.0802 0.4373,0.1662 0.3227,0.2946 -0.0813,-0.0435 -0.0401,-0.1973 -0.3207,-0.2454 0.0431,0.0577 0.0526,0.0197 0.0489,0.0978 -0.057,0.0277 -0.0423,0.0084 -0.0934,-0.0191 0.0298,0.1899 0.2564,0.214 0.2988,0.2448 -0.0161,-0.0216 -0.0074,-0.011 -0.0295,-0.0343 -0.0582,-0.0612 -0.066,-0.0439 -0.0643,-0.1116 0.1065,-0.0038 0.1935,0.1446 0.2887,0.192 -0.0149,-0.1054 0.0373,-0.5029 0.0774,-0.5924 0.0657,-0.1469 0.2086,-0.3072 0.3732,-0.131 0.1981,0.2121 0.2589,0.6848 0.2755,1.0268 0.0195,0.4041 -0.006,0.8278 -0.1231,1.1921 -0.0483,0.1504 -0.1351,0.3578 -0.2867,0.3642 -0.1684,0.0071 -0.2727,-0.2697 -0.2849,-0.3561 -10e-4,-0.0074 -0.0041,-0.0089 -0.007,-0.0128 0.0072,0.1563 0.0621,0.3391 0.0998,0.4831 0.0575,0.0286 -0.0249,0.018 0.0218,-0.0074 0.0513,-0.028 -0.0393,-0.0302 0.0106,-0.0085 0.0088,0.0217 0.0299,0.0598 0.0296,0.0795 -0.001,0.0652 -0.0289,-0.0352 -0.0291,0.0913 0.0663,-0.0599 0.0021,-0.0711 0.0967,-0.0599 0.0226,0.0533 -0.0484,0.1483 -0.0775,0.1917 0.0294,0.0077 -0.0279,0.0172 0.0141,-0.004 l 0.0326,-0.0204 c 0.0186,0.0894 0.097,0.2134 0.1439,0.2775 0.1328,0.1811 0.1951,0.0871 0.2086,0.1928 -0.1469,0.072 -0.3552,-0.3085 -0.3855,-0.3515 0.0315,0.1428 -0.0146,0.1566 -0.0792,0.2563 -0.0256,0.0396 -0.0395,0.07 -0.0826,0.0939 -0.0448,0.025 -0.1157,0.0464 -0.1083,-0.0322 l -0.1444,0.2237 c 0.0035,0.0015 0.0074,-0.001 0.0079,0.0014 0.0087,0.0401 0.0041,-0.0324 0.03,0.0239 0.018,0.039 0.0121,0.0627 0.0098,0.1036 0.0454,-0.0133 0.0514,0.0566 0.122,0.1803 0.1416,0.2482 0.2311,0.3237 0.4721,0.4424 0.0729,-0.0753 0.0656,-0.0811 0.1424,-0.1253 0.0034,-0.0019 0.008,-0.0045 0.0111,-0.0064 l 0.0227,-0.0138 c -0.0011,-0.0935 -0.0281,-0.23 0.0107,-0.2993 0.0942,0.0139 0.0644,0.1025 0.0625,0.1878 -0.0052,0.225 0.0354,0.236 -0.0305,0.2885 -0.0659,0.0526 -0.111,0.0248 -0.1627,0.0253 -0.0672,6e-4 -0.0257,0.0485 -0.1247,0.1168 l 0.1438,-0.0511 0.016,0.0792 c 0.0604,-0.0508 0.0498,-0.0273 0.098,-0.0379 0.1526,-0.0335 0.0622,-0.1504 0.0805,-0.254 0.029,0.0341 0.0526,0.0331 0.0753,0.0731 0.0304,0.0537 0.011,0.0782 0.0276,0.1255 0.0143,-0.2231 0.058,-0.0649 0.2867,-0.4028 0.0468,-0.0693 0.0823,-0.1325 0.123,-0.2115 l 0.0855,-0.1691 c 0.0243,-0.0475 0.0241,0.0318 0.0113,-0.0641 -0.0034,0.0032 -0.0078,0.0039 -0.0092,0.0105 L 27.146,39.439 c -0.0402,0.0616 -0.208,0.2707 -0.2674,0.2874 -0.0506,0.0143 -0.0623,-0.0194 -0.0067,-0.0667 0.0999,-0.0849 0.0724,-0.0514 0.1696,-0.1667 0.1611,-0.1911 0.2916,-0.5278 0.3705,-0.7766 0.0386,-0.1218 0.0583,-0.0788 0.0302,-0.169 -0.0257,0.0469 -0.0266,0.0642 -0.1057,0.0308 -0.0517,-0.0218 -0.0586,-0.0501 -0.0898,-0.1028 -0.0613,-0.1035 -0.1122,-0.1245 -0.0689,-0.2614 -0.0423,0.0499 -0.0204,0.1507 -0.149,0.3591 -0.0582,0.0944 -0.1569,0.2346 -0.2853,0.2462 0.0085,-0.1191 0.0254,-0.0366 0.13,-0.1472 0.1278,-0.1351 0.2272,-0.3835 0.2776,-0.5653 l 0.0383,-0.0074 c -0.0277,-0.0537 -0.0482,-0.0722 -0.0477,-0.1465 l 0.0576,0.0053 c -0.0187,-0.0236 -0.0192,-0.0303 -0.0063,-0.0861 0.0532,-0.2298 0.0758,-0.4967 0.093,-0.573 0.0163,-0.0728 -0.0436,-0.0835 0.05,-0.069 l -0.0573,-0.0327 c 0.0305,-0.0828 0.0204,-0.0096 0.0386,-0.0744 0.0306,-0.1087 0.0128,-0.7365 0.0053,-0.8883 -0.0054,-0.1079 -0.0152,-0.0703 0.0419,-0.1113 0.0394,0.0522 0.0288,0.1593 0.0316,0.2238 l -0.0108,0.7807 -0.0493,0.0265 0.1263,0.0395 c -0.047,-0.0301 -0.0546,-0.0096 -0.037,-0.0556 0.0336,-0.0879 0.2156,-0.0299 0.2537,-0.0232 l -0.0073,-0.8648 c 0,-0.069 -0.0082,-0.059 0.0327,-0.0929 -0.1275,0.0183 -0.217,0.0811 -0.2893,-0.0329 0.0684,-0.0637 0.0565,0.0105 0.1856,-0.0202 0.1046,-0.0248 0.0722,-0.0557 0.1324,-0.1061 -0.0682,0.0136 -0.0694,0.0459 -0.1232,-0.0011 0.0144,-0.0717 0.0214,-0.0351 0.0808,-0.0797 -0.2323,-0.0505 -0.197,0.0678 -0.3123,0.0955 -8e-4,-0.1785 0.2051,-0.2133 0.3452,-0.1559 -0.0154,-0.1786 -0.0363,-0.3583 -0.065,-0.5329 -0.0133,-0.0811 -0.0266,-0.1599 -0.044,-0.244 -0.0287,-0.1394 -0.0071,-0.1436 -0.0143,-0.2606 -0.0409,0.1351 0.0205,0.0332 -0.0943,0.217 -0.0195,0.0313 -0.0375,0.0699 -0.0671,0.092 -0.051,0.0382 -0.0847,0.0227 -0.0848,0.0227 -0.032,-0.0047 -0.0259,-0.0059 -0.0388,-0.0142 0.0449,-0.1051 0.1509,-0.0486 0.1934,-0.3205 0.0078,-0.0501 -0.0172,-0.0268 0.0235,-0.051 0.0458,-0.0273 0.0109,0.0143 0.0405,0.0052 -0.0551,-0.0523 -0.0322,-0.0294 -0.0148,-0.1125 -0.0451,0.0714 -0.0516,0.1996 -0.1358,0.2006 -0.0309,-0.0592 0.0232,-0.1562 0.0535,-0.2155 -0.0018,-0.0011 -0.006,-0.0022 -0.0065,-2e-4 -6e-4,0.0021 -0.0066,0.0187 -0.0333,-0.0178 l -0.0867,-0.2494 c -0.1014,-0.2811 -0.2364,-0.5742 -0.4757,-0.7522 -0.0633,-0.047 -0.0367,-0.0167 -0.0427,-0.0624 l -0.0713,0.0521 c 0,-0.0941 0.0384,-0.1314 0.0107,-0.1845 -0.0172,-0.033 -0.0747,-0.0623 -0.1031,-0.1049 -8e-4,0.0017 3e-4,0.0034 3e-4,0.0057 10e-5,0.0024 3e-4,0.0052 3e-4,0.0057 0.0019,0.0509 0.0236,-0.0024 -6e-4,0.0279 l -0.0668,-0.0399 -0.0287,0.0639 -0.099,-0.0214 c 0.0106,0.0306 0.0173,0.0513 0.0337,0.0703 0.0706,0.0819 0,-0.0334 0.2394,0.0594 l 0.001,0.4001 c -0.0082,0.0643 -0.0054,0.0649 -0.055,0.0691 -0.0551,-0.0599 -0.0197,-0.2265 -0.0193,-0.3218 -0.1038,-0.0037 -0.1213,-0.0746 -0.1858,-0.104 z"
       style="fill:#111111;fill-rule:evenodd"
       id="path27554" />
    <path
       d="m 25.4895,33.2298 c 0.0257,-0.0238 0.0678,-0.0198 0.1104,-0.0198 -0.0224,0.1732 -0.112,0.1563 -0.3779,0.1367 -0.1831,-0.0136 -0.4236,0.2557 -0.5166,0.3834 -0.0845,0.116 -0.0941,0.1586 -0.1525,0.2601 -0.0326,0.0567 -0.0039,0.0074 -0.0201,0.0319 -0.005,10e-4 -0.0113,0.0021 -0.0151,0.0024 l -0.0276,0.0024 c -0.0011,0 -0.0379,-0.0054 -0.0381,-0.0054 0.0602,7e-4 0.0925,0.0438 0.0999,0.1111 -0.1148,-0.0024 -0.047,-0.0455 -0.2097,-0.0487 -0.1526,-0.003 -0.1073,0.0091 -0.198,0.0635 0.0736,0.002 0.0553,-0.015 0.0913,0.034 -0.0218,0.0404 0.0119,0.0256 -0.0559,0.0456 l -0.2838,0.0351 c -0.0183,0.0379 -0.0162,-0.034 0.0082,0.0103 0.0259,0.0469 -0.0201,0.114 -0.0581,0.2417 -0.0689,0.2316 -0.2044,0.7755 -0.2017,0.984 -0.0667,0.0058 -0.1608,-0.0074 -0.2093,0.0202 0.0583,0.0023 0.1159,0.0024 0.1743,0.002 0.0535,-5e-4 0.1308,-0.0126 0.175,0.0182 l 0.0075,-0.0249 c 0.0127,-0.0218 0.0037,-0.0389 0.0563,-0.0453 0.0298,0.0486 0.0036,0.1301 -0.0096,0.1837 0.0782,-1e-4 0.1235,0.0083 0.1859,-0.0179 -0.0158,-0.079 0.0355,0.0378 -0.013,-0.0215 -0.071,-0.0869 -0.0397,0.0192 -0.0529,-0.0827 0.0758,-0.0212 0.4494,-0.0277 0.5044,0.0085 -0.0045,0.1144 -0.1296,0.0138 -0.0587,0.0909 0.0433,0.0471 0.2725,0.0117 0.2892,0.0048 -0.0159,-0.079 0.0355,0.0378 -0.013,-0.0215 -0.0713,-0.087 -0.0399,0.0196 -0.053,-0.0827 0.0775,-0.0218 0.4454,-0.0281 0.5044,0.0085 -0.0047,0.1135 -0.1288,0.0144 -0.0609,0.0928 0.0237,0.0273 0.0046,0.0123 0.048,0.0197 0.0575,0.0098 0.2038,7e-4 0.2428,-0.0186 -0.0307,-0.056 -0.042,-0.0156 -0.0563,-0.0971 0.0228,-0.013 0.0051,-0.0134 0.0395,-0.0123 0.0447,0.0016 0.0043,-0.0103 0.0472,0.0166 -0.058,-0.0864 -0.0396,-0.0818 -0.1742,-0.0819 -0.1736,0 -0.1019,0.0432 -0.2306,0.0447 0.0371,-0.1415 0.1342,-0.1229 0.2792,-0.1188 0.1319,0.0038 0.2202,0.0746 0.1583,0.1984 l 0.0729,0.0487 c 0.0029,0.0019 0.0078,0.0054 0.012,0.0075 0.0128,-0.3357 0.1555,-0.9519 0.2644,-1.2358 l -0.2127,-0.0479 c 0.0353,0.056 -0.0099,0.1192 -0.0438,0.2385 -0.0592,0.2078 -0.1239,0.46 -0.1562,0.673 -0.0128,0.0841 0.003,0.1037 -0.064,0.1132 l -0.0106,-0.0248 c -0.0122,-0.0605 0.0143,-0.1594 0.0301,-0.2461 0.0298,-0.1637 0.1324,-0.6914 0.228,-0.7654 -0.0758,-0.0249 -0.0941,-0.0294 -0.104,-0.1167 0.0828,0.0013 0.0548,0.0049 0.113,0.0397 0.0205,-0.0658 0.007,-0.0077 0.0243,-0.0412 0.0189,-0.0367 0.0013,0.0142 0.018,-0.046 0.0177,-0.0636 4e-4,-0.0537 0.0401,-0.0896 -0.1385,-0.0149 -0.133,0.1198 -0.1891,-10e-4 -0.0202,0.0613 0.0018,0.0442 -0.0819,0.0446 0.0571,-0.2585 0.4549,-0.8152 0.7082,-0.7759 -0.1691,0.1011 -0.2123,0.1029 -0.3495,0.28 -0.0855,0.1104 -0.1827,0.2571 -0.2397,0.4056 0.0956,-0.0348 0.1366,-0.0354 0.241,-0.0023 0.1182,0.0374 0.1521,0.028 0.1784,0.1414 0.0526,-0.0237 0.0136,0.0024 0.0462,-0.0372 0.0153,-0.0185 0.0141,-0.0233 0.0279,-0.0532 0.2098,-0.4541 0.4789,-0.5105 0.5088,-0.552 -0.04,-0.0694 -0.1399,-0.1341 -0.0457,-0.1963 -0.3914,-0.1676 -0.0174,-6e-4 -0.427,-0.0015 -0.127,-3e-4 -0.1907,-0.0058 -0.2111,-0.1185 0.1192,0.0024 0.0911,0.078 0.3601,0.0361 -0.004,-0.0015 -0.0103,-0.0066 -0.0126,-0.0026 l -0.0407,-0.0046 c -0.0154,-5e-4 -0.0458,0.0014 -0.063,0.0018 -0.0498,10e-4 -0.0791,0.0012 -0.128,-0.0069 V 33.212 Z"
       style="fill:#111111;fill-rule:evenodd"
       id="path27556" />
    <path
       d="m 24.3259,37.6185 c 0.0711,-0.0613 0.053,-0.0657 0.1691,-0.0686 -0.0423,-0.5286 -0.0628,-1.1908 -0.0094,-1.7294 0.0082,-0.0828 -0.0078,-0.0681 0.0473,-0.0823 0.0389,0.0189 0.033,-0.0311 0.0275,0.0738 -0.0158,0.2999 -0.0429,0.4335 -0.0435,0.8062 -5e-4,0.3188 0.0418,0.6316 0.044,0.9317 0.0949,-1e-4 0.1165,0.0099 0.182,0.0378 -0.0628,-0.6158 -0.0679,-1.2814 0.001,-1.8952 -0.1411,0.0533 -0.2999,0.07 -0.418,-0.0319 0.0014,0.2038 -0.0519,0.6137 -0.0518,0.9735 0,0.4013 0.0484,0.7056 0.0518,0.9844 z"
       style="fill:#000000;fill-rule:evenodd"
       id="path27558" />
    <path
       d="m 24.452,34.0215 c 2e-4,0 0.037,0.0054 0.0381,0.0054 l 0.0276,-0.0024 c 0.0038,-3e-4 0.0101,-0.0014 0.0151,-0.0024 0.0162,-0.0245 -0.0125,0.0248 0.0201,-0.0319 0.0584,-0.1015 0.068,-0.1441 0.1525,-0.2601 0.093,-0.1277 0.3335,-0.397 0.5166,-0.3834 0.2659,0.0196 0.3555,0.0365 0.3779,-0.1367 -0.0426,0 -0.0847,-0.004 -0.1104,0.0198 -0.0753,0.0338 -0.1465,0.0227 -0.2303,0.02 l 0.0298,-0.033 c 0.0421,-0.0869 -0.0425,-0.0731 -0.0537,-0.1151 0.0731,-0.0212 0.1631,-0.0196 0.2372,-0.004 0.0049,0.0399 -0.0041,-0.0316 -0.0035,0.0171 2e-4,0.0142 -0.0088,-0.0038 0.0035,0.0212 l 0.446,-0.0018 7e-4,-0.0321 c -10e-5,-7e-4 -0.0011,-0.0041 -7e-4,-0.0061 l 0.223,-0.0056 c 0.0045,0.0461 -0.0042,-0.0214 -0.0036,0.0244 2e-4,0.0122 -0.0079,-0.0022 0.0036,0.0221 l 0.0827,0.0126 c -0.0847,-0.0854 -0.0571,-0.0817 -0.2106,-0.0807 -0.0916,5e-4 -0.0619,-0.0064 -0.1321,0.0256 -0.0193,0.0088 -0.0294,0.0449 -0.0833,-0.02 -0.0019,-0.0022 -0.0044,-0.0077 -0.0072,-0.0111 -0.0175,0.0764 -0.0711,0.0477 -0.1592,0.0477 -0.047,-0.0189 -0.0294,-0.0084 -0.0395,-0.0762 -0.0027,0.0039 -0.0052,0.006 -0.006,0.0128 l -0.0182,0.0633 c -0.1216,-0.0107 0.0026,-0.042 -0.2235,-0.0422 -0.1983,-2e-4 -0.0789,0.0424 -0.1792,0.0726 -0.0832,-0.0618 0.0153,0.0367 -0.0217,-0.0308 l -0.0165,-0.0352 c -0.0013,-0.0028 -0.0025,-0.0087 -0.0052,-0.0122 -0.0163,0.1632 -0.0485,0.065 -0.1713,0.1017 -0.1218,0.0365 -0.2137,0.0111 -0.353,0.0494 0.0416,0.0346 0.0526,0.0176 0.0809,0.0594 -0.0355,0.0435 -0.1885,0.1432 -0.2378,0.1757 -0.1144,0.0754 -0.0424,0.0336 -0.1138,0.0977 -0.1746,0.1567 -0.3455,0.5841 -0.3682,0.602 -0.0326,0.0258 0.0036,-0.0016 -0.0322,0.0149 l 0.1833,-0.0275 c 0.0446,-0.1697 0.154,-0.1127 0.3421,-0.1149 z"
       style="fill:#000000;fill-rule:evenodd"
       id="path27560" />
    <path
       d="m 27.336,37.2301 c -0.0936,-0.0145 -0.0337,-0.0038 -0.05,0.069 -0.0172,0.0763 -0.0398,0.3432 -0.093,0.573 -0.0129,0.0558 -0.0124,0.0625 0.0063,0.0861 0.0237,0.0413 0.0408,0.0746 0.0621,0.1188 0.0295,0.0612 -0.0027,0.0043 0.033,0.0617 l 0.0421,0.0601 -0.0159,-0.0667 c 0.1542,-0.024 0.2937,0.2192 0.2504,0.368 L 27.5867,38.48 c 0.0499,-0.0985 -0.0203,-0.0472 0.0246,-0.2503 0.0517,-0.2339 0.0806,-0.4853 0.1056,-0.7218 0.0088,-0.0826 0.0048,-0.0954 0.0663,-0.1079 -0.0648,-0.0499 -0.1587,-0.0428 -0.1702,-0.1261 l 0.0956,-0.0186 c -0.0243,-0.0645 -0.0171,-0.058 -0.089,-0.079 -0.0565,-0.0165 -0.0982,-0.0136 -0.1467,-0.0021 0.0157,0.0675 0.0406,0.0122 0.054,0.1031 -0.0636,0.0133 -0.1287,-0.0232 -0.1909,-0.0472 z"
       style="fill:#000000;fill-rule:evenodd"
       id="path27562" />
    <path
       d="m 23.865,39.0836 c 0.0761,0.0262 0.0941,0.019 0.1798,0.0291 l 0.137,0.0137 c 0.1183,-0.02 -0.092,0.036 0.0277,-0.0087 0.0043,-0.0016 0.0093,-0.0055 0.0127,-0.007 0.0034,-0.0016 0.0086,-0.0047 0.0123,-0.0079 -0.0209,-0.0777 -0.0102,-0.0274 -0.0893,-0.0628 0.0682,-0.0161 0.133,-0.0887 0.1876,-0.0082 0.0123,0.0182 0.014,0.0328 0.0223,0.0581 0.0352,0.1068 0.0419,0.0847 0.0663,0.0957 0.0213,-0.0134 0.0226,-0.0059 0.0201,-0.0402 0,-7e-4 -0.0018,-0.0045 -0.0019,-0.005 -10e-5,-5e-4 -0.0027,-0.003 -0.0023,-0.0048 0.0526,4e-4 0.4412,0.0135 0.4668,-0.0135 0.0358,-0.0379 -0.0101,-0.088 -0.0379,-0.1128 0.0509,-0.0098 0.1313,-0.0159 0.1916,-0.0112 0.1241,0.0096 0.0246,0.0459 0.1684,0.0484 -0.0351,-0.1506 -0.1856,-0.1403 -0.3771,-0.1145 -0.0056,-0.0899 -0.1094,-0.393 -0.1385,-0.5165 l -0.081,-0.3984 c -0.001,-0.0072 -0.0096,-0.0663 -0.01,-0.0674 -0.0257,-0.0685 0.0229,-0.0349 -0.0549,-0.0446 -0.0251,0.0353 -0.0258,0.0144 -0.0012,0.1473 l 0.2231,0.8787 c 0.0077,0.0207 0.0371,0.0425 -0.0308,0.1292 h -0.1061 l -0.27,-1.0802 c -0.0178,-0.1144 -0.0072,-0.0751 -0.0544,-0.1531 -0.0299,-0.0493 0.007,-0.021 -0.044,-0.0514 0.0217,0.2092 0.0648,0.4243 0.1084,0.6271 0.0433,0.2014 0.1473,0.5037 0.1635,0.5876 -0.0516,-0.0417 -0.0913,-0.0658 -0.1951,-0.0667 -0.0993,-8e-4 -0.1542,0.008 -0.2266,0.0391 -0.0221,-0.1549 -0.1837,-0.5861 -0.232,-0.9483 -0.001,-0.0076 -0.0094,-0.0665 -0.0098,-0.0674 -0.0262,-0.0659 0.0262,-0.0319 -0.0576,-0.0419 -0.0286,0.0481 0.0156,0.2259 0.0282,0.294 l 0.1406,0.5762 c 0.0377,0.1222 0.0472,0.1804 0.1105,0.2681 -0.0555,-0.0047 -0.1021,-0.0132 -0.1546,-0.0185 -0.0875,-0.0089 -0.091,-0.0196 -0.0918,0.0587 z"
       style="fill:#fdfdfd;fill-rule:evenodd"
       id="path27564" />
    <path
       d="m 25.5538,34.2658 c -0.0582,-0.0348 -0.0302,-0.0384 -0.113,-0.0397 0.0099,0.0873 0.0282,0.0918 0.104,0.1167 -0.0956,0.074 -0.1982,0.6017 -0.228,0.7654 -0.0158,0.0867 -0.0423,0.1856 -0.0301,0.2461 l 0.0106,0.0248 c 0.067,-0.0095 0.0512,-0.0291 0.064,-0.1132 0.0323,-0.213 0.097,-0.4652 0.1562,-0.673 0.0339,-0.1193 0.0791,-0.1825 0.0438,-0.2385 l 0.2127,0.0479 0.0478,-0.049 c 0.015,0.0438 0.0553,0.1035 0.0829,0.1467 -0.0194,0.0393 0.0075,-0.0114 -0.0202,0.0286 -0.0076,0.011 -0.01,0.0083 -0.0203,0.0294 -0.0444,0.0911 0.0113,0.147 0.0618,0.2213 0.0478,0.0705 0.1176,0.194 0.2283,0.1028 0.0181,0.0366 0.0984,0.204 0.1374,0.2162 0.0661,0.0206 -0.0779,0.0128 0.0339,-0.0019 0.0027,-3e-4 0.0084,-0.002 0.0123,-0.004 0.0131,-0.059 -0.0486,-0.1306 -0.0808,-0.1783 0.0232,-0.0155 -10e-5,0.0354 0.0419,-0.002 0.0267,-0.0237 0.0719,-0.1991 0.2224,-0.3351 0.0745,-0.0672 0.119,-0.0333 0.1329,-0.1089 l -0.0244,-0.0095 c -0.0111,-0.0015 -0.0213,-0.0183 -0.0919,0.0236 -0.0872,0.0518 -0.1976,0.1923 -0.2372,0.2939 L 26.2805,34.7257 C 26.2471,34.6294 26.2597,34.6646 26.1978,34.5708 26.1431,34.4881 26.1312,34.4385 25.9896,34.45 l 0.0235,0.0712 C 26.0039,34.5106 26.0055,34.5138 25.9907,34.4931 25.9869,34.4877 25.9741,34.4684 25.971,34.4635 l -0.1168,-0.2051 c -0.0353,-0.0443 -0.0165,-0.0482 -0.0732,-0.0691 -0.0225,0.0144 -0.0429,0.0052 -0.0279,0.0605 0.0038,0.0137 0.0281,0.0541 0.0366,0.0821 z"
       style="fill:#fdfdfd;fill-rule:evenodd"
       id="path27566" />
    <path
       d="m 24.4156,34.1655 c 0.0166,0.1231 0.0261,0.0056 0.0571,0.0719 0.0301,0.0645 -0.219,0.0399 -0.2253,0.039 -0.0988,-0.0145 -0.1333,-0.1435 -0.2361,0.2111 -0.0348,0.1199 -0.2063,0.7505 -0.1866,0.8673 6e-4,0.0035 0.0028,0.0094 0.0034,0.0122 6e-4,0.0029 0.0021,0.0083 0.004,0.0121 0.0841,-0.0101 0.0539,-0.0491 0.0954,-0.2561 0.0204,-0.1016 0.0424,-0.2007 0.0667,-0.3009 l 0.1207,-0.4063 c 0.0373,-0.1094 0.0231,-0.0629 -0.0111,-0.1442 0.0619,0.0764 0.092,0.0895 0.2383,0.0878 0.0456,-5e-4 0.1041,-0.0035 0.1407,-0.0211 0.0249,-0.0119 0.0279,-0.0174 0.0446,-0.0346 l 0.0337,-0.0387 c 0.0022,-0.0025 0.0058,-0.0071 0.0091,-0.0103 l -0.1739,0.6026 c -0.0263,0.1136 -0.1344,0.5708 -0.1023,0.6412 0.024,-0.0259 -0.0013,0.0038 0.018,-0.0272 0.0883,-0.1421 0.0501,-0.0698 0.0886,-0.2749 l 0.1625,-0.6659 c 0.0299,-0.1002 0.0832,-0.2174 0.1003,-0.3109 h 0.0924 c 0.0397,0.0567 0.0173,0.0785 0.0721,0.1127 0.0181,0.0112 0.3757,0.1048 0.394,-0.1062 -0.087,0.0023 -0.1115,0.0842 -0.3068,0.0519 -0.056,-0.0191 -0.0254,-0.0037 -0.0165,-0.0424 l 0.0133,-0.0838 c -0.0803,-0.0105 -0.4407,-0.0188 -0.4963,0.0137 z"
       style="fill:#fdfdfd;fill-rule:evenodd"
       id="path27568" />
    <path
       d="m 25.137,40.0106 c 0.06,0.0441 0.2267,-0.0157 0.316,0.006 0.0455,0.0111 0.0443,0.0241 0.0526,0.0284 0.0104,0.0054 -0.0057,0.0347 0.0561,0.0105 0.0435,-0.017 0.0082,0.0164 0.0329,-0.0437 0.0157,0.0853 -0.0167,0.026 0.0372,0.0498 h 0.1274 c 0.0551,-0.0273 0.0159,0.0046 0.0467,-0.051 0.0181,-0.0682 0.0059,-0.0354 0.0467,-0.0732 -0.4167,-0.1251 -0.5653,-0.6572 -0.6518,-0.7093 -0.0429,0.0488 -0.0572,0.0398 0.0596,0.2308 0.2656,0.4344 0.3725,0.3818 0.552,0.5051 -0.384,0.0301 -0.718,-0.4204 -0.8093,-0.6956 0.1413,0 0.1956,0.0063 0.2243,-0.1211 l -0.105,0.0081 c -0.0061,0.0173 0.0517,0.0121 -0.0217,0.0316 -0.1291,0.0343 -0.2797,-0.0393 -0.3279,-0.0396 0.0119,0.0571 0.0261,0.082 0.0736,0.1034 0.0983,0.0444 0.0527,-0.0243 0.106,0.0866 0.0685,0.1429 0.1902,0.3287 0.3,0.4315 0.1101,0.1032 0.1842,0.1275 0.2234,0.1654 -0.1515,0.0064 -0.1703,0.011 -0.3072,-0.0973 -0.2057,-0.163 -0.3121,-0.3559 -0.4254,-0.5943 -0.044,-0.0927 -0.0138,-0.094 -0.118,-0.0954 0.0608,0.2289 0.3336,0.6631 0.6148,0.7751 -0.0286,0.0292 -0.0561,0.0324 -0.103,0.0882 z"
       style="fill:#fdfdfd;fill-rule:evenodd"
       id="path27570" />
    <path
       d="m 25.3616,35.6323 c 0.1109,0.0637 0.1245,0.1114 0.1896,0.1429 -0.0721,0.1096 -0.0417,0.152 0.0779,0.2406 0.0454,0.0336 0.1939,0.1719 0.2548,0.0477 -0.0424,-0.0308 -0.269,-0.0549 -0.2988,-0.2448 0.0511,0.0275 0.0364,0.0468 0.0934,0.0191 0.0037,-0.0781 -0.0058,-0.0401 -0.0489,-0.0978 0.2806,0.0481 0.2394,0.2019 0.3207,0.2454 0.1146,-0.1284 -0.2163,-0.3748 -0.3227,-0.2946 L 25.6,35.7242 25.539,35.6738 c 0.0333,-0.0589 0.1212,-0.8405 0.2807,-1.2535 -0.0207,-0.0218 0.0024,-0.0155 -0.0457,-0.018 -0.1089,0.2839 -0.2516,0.9001 -0.2644,1.2358 -0.0042,-0.0021 -0.0091,-0.0056 -0.012,-0.0075 l -0.0729,-0.0487 c 0.0619,-0.1238 -0.0264,-0.1946 -0.1583,-0.1984 -0.145,-0.0041 -0.2421,-0.0227 -0.2792,0.1188 0.1287,-0.0015 0.057,-0.0447 0.2306,-0.0447 0.1346,1e-4 0.1162,-0.0045 0.1742,0.0819 -0.0429,-0.0269 -0.0025,-0.015 -0.0472,-0.0166 -0.0344,-0.0011 -0.0167,-7e-4 -0.0395,0.0123 0.0143,0.0815 0.0256,0.0411 0.0563,0.0971 z"
       style="fill:#fdfdfd;fill-rule:evenodd"
       id="path27572" />
    <path
       d="m 24.3253,37.827 c 0.054,0.0505 0.1104,0.0696 0.2236,0.0694 0.1505,-3e-4 0.1379,-0.0027 0.2218,-0.0816 0.0323,0.2059 0.0619,0.3923 0.1072,0.594 l 0.1103,0.4142 c 0.0274,0.0945 0.0054,0.091 0.1042,0.0918 -0.0459,-0.1851 -0.1082,-0.3564 -0.152,-0.5545 -0.0427,-0.1927 -0.0661,-0.4192 -0.1145,-0.6007 l 0.1667,1e-4 c -0.0016,0.1435 0.105,0.1374 0.2415,0.1366 0.1456,-8e-4 0.2106,-0.0299 0.2086,-0.1801 -0.074,0.0343 -0.0598,0.0291 -0.0954,0.0955 -0.069,-0.0017 -0.2324,0.0296 -0.2742,-0.0161 -0.0716,-0.0786 0.0444,0.0207 0.0586,-0.089 -0.0566,-0.0357 -0.4282,-0.0326 -0.5042,-0.0106 0.0119,0.1051 0.0506,0.0287 0.0658,0.104 -0.049,0.0212 -0.112,0.0139 -0.1772,0.0156 -0.1443,0.0037 -0.0716,-0.029 -0.1744,-0.0422 -0.0215,0.0309 -0.0161,-0.0322 -0.0164,0.0536 z"
       style="fill:#fdfdfd;fill-rule:evenodd"
       id="path27574" />
    <path
       d="M 26.4276,39.9315 C 26.3877,39.8909 26.3961,39.848 26.445,39.8065 L 26.4125,39.788 C 26.1382,39.6458 25.89,39.2864 25.902,39.1352 c -0.0594,0.0722 -0.1094,0.1005 -0.2265,0.1149 0.091,0.0325 0.0408,0.0143 0.1559,0.2101 0.0861,0.1464 0.2031,0.3041 0.3473,0.4016 0.0402,0.0272 0.0755,0.042 0.1271,0.0655 0.066,0.0302 0.0628,0.0464 0.1218,0.0042 z"
       style="fill:#000000;fill-rule:evenodd"
       id="path27576" />
    <path
       d="m 25.807,38.9255 c -0.0152,-0.1094 0.0318,-0.0055 -0.0034,-0.12 -0.103,-0.3352 -0.1387,-0.4632 -0.1976,-0.8228 -0.0155,-0.0948 -0.0296,-0.2784 -0.0538,-0.3573 -0.0734,0.0297 -0.0373,0.1103 -0.0086,0.2932 0.0368,0.2339 0.1437,0.7962 0.2402,0.9601 l -0.247,0.0515 c 0.0682,-0.0516 0.0413,-0.0125 -0.0262,-0.2477 -0.0678,-0.2361 -0.1174,-0.4475 -0.1539,-0.6901 -0.0141,-0.0938 0.0022,-0.0925 -0.0848,-0.0819 0.0262,0.1772 0.0571,0.3546 0.1,0.5301 l 0.1209,0.4347 c 0.0345,0.073 0.0028,0.0217 0.0373,0.0501 l -0.0584,0.0489 c -0.0391,0.0449 -0.02,0.0118 -0.0352,0.0724 0.0269,-6e-4 0.3487,-0.0977 0.3705,-0.1212 z"
       style="fill:#fdfdfd;fill-rule:evenodd"
       id="path27578" />
    <path
       d="m 23.9583,37.6894 c 0.0122,0.1118 0.0509,0.0353 0.066,0.1107 -0.1362,0.0581 -0.3285,-0.0251 -0.3739,-0.0267 0.0283,0.143 0.1239,0.1221 0.2772,0.1222 0.0513,0 0.0832,-0.0107 0.1275,-0.0235 0.0062,0.2549 0.1291,0.694 0.2063,0.9611 0.0264,0.0911 0.0106,0.0801 0.1027,0.0817 -0.1049,-0.3543 -0.1555,-0.5224 -0.2203,-0.8894 l -0.0457,-0.1959 c -0.0036,-0.0108 -7e-4,-0.0352 -0.0028,-0.0679 0.192,-0.0066 0.3553,0.041 0.3674,-0.0561 -0.0675,-0.0409 -0.4049,-0.0176 -0.5044,-0.0162 z"
       style="fill:#fdfdfd;fill-rule:evenodd"
       id="path27580" />
    <path
       d="m 24.7771,34.1324 c 0.1047,-2e-4 0.0383,-0.002 0.0912,-0.0274 0.1379,-0.0663 0.3061,0.0254 0.3335,0.0276 l 0.0207,-0.0587 c 0.0365,-0.1075 0.1784,-0.3308 0.2387,-0.4135 0.049,-0.0673 0.1135,-0.1291 0.1781,-0.1881 0.0781,-0.0713 0.1571,-0.0792 0.2303,-0.1339 -0.2919,-0.0201 -0.7315,0.5897 -0.6827,0.7008 l -0.173,-0.035 c 0.1148,-0.27 0.2931,-0.5063 0.5529,-0.6359 l 0.0608,-0.0385 c -0.2627,0.0406 -0.3776,0.1972 -0.4945,0.3368 -0.2574,0.3073 -0.0947,0.2997 -0.2675,0.355 -0.0628,0.02 -0.085,0.0367 -0.0885,0.1108 z"
       style="fill:#fdfdfd;fill-rule:evenodd"
       id="path27582" />
    <path
       d="m 26.4276,39.9315 c 0.099,-0.0683 0.0575,-0.1162 0.1247,-0.1168 0.0517,-5e-4 0.0968,0.0273 0.1627,-0.0253 0.0659,-0.0525 0.0253,-0.0635 0.0305,-0.2885 0.0019,-0.0853 0.0317,-0.1739 -0.0625,-0.1878 -0.0388,0.0693 -0.0118,0.2058 -0.0107,0.2993 l -0.0227,0.0138 c -0.0031,0.0019 -0.0077,0.0045 -0.0111,0.0064 -0.0768,0.0442 -0.0695,0.05 -0.1424,0.1253 -0.241,-0.1187 -0.3305,-0.1942 -0.4721,-0.4424 -0.0706,-0.1237 -0.0766,-0.1936 -0.122,-0.1803 -0.012,0.1512 0.2362,0.5106 0.5105,0.6528 l 0.0325,0.0185 c -0.0489,0.0415 -0.0573,0.0844 -0.0174,0.125 z"
       style="fill:#fdfdfd;fill-rule:evenodd"
       id="path27584" />
    <path
       d="M 24.7751,35.4642 24.737,35.4277 c -0.0644,-0.0548 -0.1132,-0.0446 -0.2043,-0.0442 -0.1365,7e-4 -0.1875,-10e-5 -0.2144,0.1188 0.1611,-0.0018 0.0264,-0.0636 0.2945,-0.044 0.109,0.0079 0.0524,0.0304 0.1151,0.0382 0.1082,0.0133 -0.0221,-0.0261 0.0729,-0.0057 0.0042,9e-4 -0.0084,0.0069 0.0378,0.0115 0.0448,-0.4161 0.157,-0.752 0.2613,-1.1329 -0.0979,0.0027 -0.0848,0.0045 -0.1468,0.2163 -0.0262,0.0897 -0.0509,0.1857 -0.0717,0.2789 -0.0416,0.1862 -0.088,0.4059 -0.1063,0.5996 z"
       style="fill:#fdfdfd;fill-rule:evenodd"
       id="path27586" />
    <path
       d="m 26.237,40.0235 0.0854,-0.0405 c 0.0172,-0.0095 0.0253,-0.0148 0.0331,-0.0202 -0.0746,0.0135 -0.0158,0.0088 -0.0537,0.0177 l -0.0559,0.0013 c 0.0072,-0.0236 0.0023,-0.0058 0.0558,-0.0288 -0.3636,-0.0747 -0.6577,-0.6249 -0.636,-0.6899 -0.1238,0.0084 -0.1462,0.0036 -0.209,-0.0687 0.0607,0.1901 0.205,0.3892 0.3035,0.5128 0.068,0.0855 0.1252,0.1172 0.2275,0.1871 0.0927,0.0633 0.0503,0.0251 0.1615,0.0469 0.0443,0.0087 0.0657,0.0215 0.0807,0.0534 l 0.006,0.0222 c 2e-4,9e-4 -10e-5,0.0048 0.0011,0.0067 z"
       style="fill:#000000;fill-rule:evenodd"
       id="path27588" />
    <path
       d="m 25.5538,34.2658 0.08,0.0069 c 0.0326,-0.1714 0.0911,-0.1183 0.012,-0.1689 0.1538,0.0146 0.1587,0.0278 0.2084,0.1546 0.0561,0.0448 0.0143,0.0135 0.0351,0.0027 l 0.0143,-0.0797 c -0.0263,-0.1134 -0.0602,-0.104 -0.1784,-0.1414 -0.1044,-0.0331 -0.1454,-0.0325 -0.241,0.0023 0.057,-0.1485 0.1542,-0.2952 0.2397,-0.4056 0.1372,-0.1771 0.1804,-0.1789 0.3495,-0.28 -0.2533,-0.0393 -0.6511,0.5174 -0.7082,0.7759 0.0837,-4e-4 0.0617,0.0167 0.0819,-0.0446 0.0561,0.1208 0.0506,-0.0139 0.1891,10e-4 -0.0397,0.0359 -0.0224,0.026 -0.0401,0.0896 -0.0167,0.0602 9e-4,0.0093 -0.018,0.046 -0.0173,0.0335 -0.0038,-0.0246 -0.0243,0.0412 z"
       style="fill:#fdfdfd;fill-rule:evenodd"
       id="path27590" />
    <path
       d="m 24.0604,35.4077 c -0.1346,-0.0375 -0.3748,-0.0687 -0.411,0.0946 0.1363,-0.0015 0.0474,-0.0439 0.2141,-0.0446 0.2333,-0.001 0.0877,0.0386 0.2234,0.0446 0.0017,-0.003 0.0024,-0.0124 0.0027,-0.0101 l 0.1175,-0.5378 c 0.0473,-0.2049 0.1192,-0.3988 0.1623,-0.5819 -0.1149,-0.0077 -0.108,0.0858 -0.1392,0.1909 -0.0267,0.0901 -0.0461,0.1727 -0.0687,0.2644 -0.032,0.1298 -0.1095,0.4569 -0.1011,0.5799 z"
       style="fill:#fdfdfd;fill-rule:evenodd"
       id="path27592" />
    <path
       d="m 26.2359,38.2384 c -0.0369,0.0986 -0.1766,0.2453 -0.1381,0.3176 0.0485,-0.0033 0.0388,-0.0031 0.0855,-0.0646 l 0.023,-0.0289 c -0.0178,0.1418 0.0125,0.0855 -0.0621,0.1972 -0.0882,0.1322 -0.0716,0.0576 -0.1455,0.1229 -0.0074,0.0786 0.0635,0.0572 0.1083,0.0322 0.0431,-0.0239 0.057,-0.0543 0.0826,-0.0939 0.0646,-0.0997 0.1107,-0.1135 0.0792,-0.2563 0.0303,0.043 0.2386,0.4235 0.3855,0.3515 -0.0135,-0.1057 -0.0758,-0.0117 -0.2086,-0.1928 -0.0469,-0.0641 -0.1253,-0.1881 -0.1439,-0.2775 l -0.0326,0.0204 c -0.042,0.0212 0.0153,0.0117 -0.0141,0.004 0.0291,-0.0434 0.1001,-0.1384 0.0775,-0.1917 -0.0946,-0.0112 -0.0304,0 -0.0967,0.0599 z"
       style="fill:#fdfdfd;fill-rule:evenodd"
       id="path27594" />
    <path
       d="m 26.8041,34.0062 c 0,0.089 0.0096,0.1317 -0.0182,0.1943 -0.0785,-0.0176 -0.0119,-0.0528 -0.1029,-0.0636 -0.0265,0.0652 -0.0174,0.1536 -0.0198,0.2357 -0.0028,0.0926 -0.0388,0.1895 0.0558,0.2048 0.0335,-0.0671 0.0159,-0.1978 0.0234,-0.2845 0.0037,-0.0025 0.0101,-0.0094 0.0122,-0.0058 0.002,0.0035 0.0092,-0.0044 0.012,-0.0057 0.1053,-0.0474 0.1167,-0.0629 0.113,-0.2112 -0.0036,-0.1483 0.0099,-0.2114 -0.1245,-0.2456 0.0043,0.1235 0.049,0.0584 0.049,0.1816 z"
       style="fill:#fdfdfd;fill-rule:evenodd"
       id="path27596" />
    <path
       d="m 25.4248,37.6057 -0.0273,-0.02 c -0.0098,-0.0065 -0.0052,-0.0077 -0.0296,-0.0186 -0.0615,-0.0274 -0.145,-0.0167 -0.2139,-0.0166 -0.115,-10e-5 -0.1451,0.0251 -0.1668,0.1222 0.1654,-0.0028 -0.0016,-0.0841 0.3904,-0.0334 -0.051,0.0616 -0.0876,0.0255 -0.0611,0.1246 0.0653,-0.0069 0.0719,-0.0216 0.1106,-0.0597 0.1112,-0.1096 0.2577,-0.1719 0.2524,-0.2726 -0.0616,-0.0028 -0.1009,0.0362 -0.1378,0.0684 z"
       style="fill:#fdfdfd;fill-rule:evenodd"
       id="path27598" />
    <path
       d="m 25.137,40.0106 c 0.0123,-0.0391 0.0158,-0.0391 0.0362,-0.0616 -0.4113,-0.0736 -0.5699,-0.5612 -0.6722,-0.6858 l -0.058,0.0172 c 0.0338,0.1646 0.3408,0.61 0.6388,0.6687 l -0.0275,0.0092 c -0.0738,0.0328 -0.0433,-2e-4 -0.0606,0.0428 0.0607,0.0176 0.107,0.0282 0.1433,0.0095 z"
       style="fill:#fdfdfd;fill-rule:evenodd"
       id="path27600" />
    <path
       d="m 24.6348,34.1315 0.0733,0.0012 c 0.0702,-0.1532 0.1545,-0.3274 0.2502,-0.4494 0.123,-0.1567 0.1762,-0.2247 0.3847,-0.3268 -0.2696,-0.0389 -0.641,0.5318 -0.7082,0.775 z"
       style="fill:#fdfdfd;fill-rule:evenodd"
       id="path27602" />
    <path
       d="m 27.2383,35.0893 c -0.0348,0.0613 -0.1041,0.157 -0.0902,0.2346 0.0807,0.0085 0.0605,-0.0208 0.1247,-0.1376 0.0304,-0.0552 0.0958,-0.127 0.0632,-0.1921 -0.0689,-9e-4 -0.0329,0.0071 -0.049,0.0146 l -0.0159,0.0097 c -0.0361,0.0197 0.0132,0.014 -0.0169,0.0092 -0.0394,-0.0695 0.0185,-0.129 0.0549,-0.1881 0.0706,-0.1147 0.1015,-0.0325 0.1267,-0.1495 -0.1468,-0.0047 -0.1628,0.0723 -0.2212,0.166 -0.0238,0.0381 -0.056,0.0838 -0.0549,0.1378 8e-4,0.0441 0.0113,0.0693 0.0484,0.0872 z"
       style="fill:#fdfdfd;fill-rule:evenodd"
       id="path27604" />
    <path
       d="m 25.6796,34.0127 c 0.0704,0.0255 0.0508,2e-4 0.1457,-0.1626 0.0455,-0.0779 0.086,-0.1442 0.1403,-0.2106 0.0712,-0.0873 0.167,-0.1888 0.2695,-0.2409 0.0217,-0.011 0.0364,-0.0163 0.0538,-0.0248 0.0145,-0.0072 0.0211,-0.0101 0.0343,-0.0183 0.0225,-0.0138 0.0226,-0.014 0.036,-0.0256 -0.3001,0.0408 -0.5829,0.3925 -0.6729,0.6216 z"
       style="fill:#fdfdfd;fill-rule:evenodd"
       id="path27606" />
    <path
       d="m 27.3365,38.1988 c 0.0135,0.0531 0.0208,0.0291 0.0055,0.0809 -0.0639,0.0232 -0.0249,0.0052 -0.0613,-0.0117 -0.0578,-0.0268 0.0116,-0.0235 -0.0274,-0.0123 -0.0379,0.0731 0.0723,0.2358 0.1464,0.2612 0.0018,-0.0032 0.0029,-0.0128 0.0031,-0.0107 l 0.006,-0.0324 c 0.0029,-0.0255 -0.0044,-0.0215 0.0047,-0.0559 0.1242,0.0046 0.0755,0.1269 0.1922,0.3176 l -0.0116,-0.0843 0.0365,-0.0079 c 0.0012,-2e-4 0.0055,4e-4 0.008,-4e-4 -0.0477,-0.0152 -0.0835,0.0092 -0.1239,-0.1508 -0.0074,-0.0293 -0.0346,-0.2814 -0.1782,-0.2933 z"
       style="fill:#000000;fill-rule:evenodd"
       id="path27608" />
    <path
       d="m 24.7124,39.8694 c -0.1212,-0.1434 -0.2111,-0.1562 -0.3671,-0.4522 -0.0864,-0.1638 -0.0409,-0.143 -0.1501,-0.1414 0.0622,0.1716 0.2024,0.3637 0.3289,0.4888 0.0535,0.053 0.0852,0.1055 0.1883,0.1048 z"
       style="fill:#fdfdfd;fill-rule:evenodd"
       id="path27610" />
    <path
       d="m 26.0131,34.5212 0.0179,0.083 c -0.082,0.0158 -0.0434,0.0092 -0.0965,-0.0415 -0.0168,0.1237 0.0893,0.2631 0.1811,0.2747 -0.0269,-0.0607 -0.0439,-0.0512 -0.0269,-0.1164 0.1031,0.0075 0.0056,-0.0148 0.0861,0.0433 0.0402,0.029 -0.017,0.0144 0.0174,0.0084 0.0327,-0.0768 -0.0873,-0.2477 -0.1791,-0.2515 z"
       style="fill:#000000;fill-rule:evenodd"
       id="path27612" />
    <path
       d="m 23.4361,37.6842 -0.0132,0.0718 0.3288,0.0059 c 0.0668,-0.0154 0.0313,0.0012 0.0591,-0.0585 -0.0083,0.0954 -0.0604,0.0875 0.0372,0.1009 l 0.0078,-0.0955 c -0.0114,-0.0816 9e-4,-0.0547 -0.0396,-0.0745 -0.004,0.0016 -0.0085,0.0024 -0.01,0.008 -0.0014,0.0054 -0.0074,0.0064 -0.0094,0.0082 -0.0316,0.0278 0.0043,0.0369 -0.1394,0.0331 -0.0732,-0.002 -0.148,-0.0029 -0.2213,6e-4 z"
       style="fill:#fdfdfd;fill-rule:evenodd"
       id="path27614" />
    <path
       d="m 26.5322,33.9903 c -3e-4,0.1475 -0.0153,0.2584 0.1221,0.2888 -0.0061,-0.1556 -0.0436,-0.0032 -0.0457,-0.2251 -0.0015,-0.1609 0.0405,-0.1121 0.0457,-0.2293 -0.09,0.0226 -0.1219,0.0567 -0.1221,0.1656 z"
       style="fill:#fdfdfd;fill-rule:evenodd"
       id="path27616" />
    <path
       d="m 25.8866,38.7508 c 0.0188,-0.008 0.0169,0.0249 0.0391,-0.0368 0.0251,-0.0702 -0.0405,-0.0182 0.0581,-0.1663 0.0212,-0.0318 0.039,-0.0673 0.0704,-0.0892 0.0589,-0.0411 0.0605,0.0082 0.0841,-0.0853 -0.1262,-0.0184 -0.1665,0.0547 -0.2154,0.1281 -0.0506,0.0761 -0.118,0.1446 -0.0363,0.2495 z"
       style="fill:#fdfdfd;fill-rule:evenodd"
       id="path27618" />
    <path
       d="m 26.804,39.1665 c 0,0.3189 -0.0475,0.1223 -0.0488,0.2877 0.113,-0.0251 0.12,-0.1015 0.1234,-0.2239 0.004,-0.1416 0.0034,-0.2022 -0.1235,-0.2305 0.003,0.1552 0.049,0.0342 0.0489,0.1667 z"
       style="fill:#fdfdfd;fill-rule:evenodd"
       id="path27620" />
    <path
       d="m 25.5362,37.4798 c 0.1235,-0.0391 -0.0368,-0.0239 0.1409,-0.1631 0.1657,-0.1299 0.1016,-0.0328 0.2084,-0.105 -0.079,-0.0929 -0.1548,-0.0247 -0.2321,0.0333 -0.0806,0.0604 -0.1914,0.1278 -0.1172,0.2348 z"
       style="fill:#fdfdfd;fill-rule:evenodd"
       id="path27622" />
    <path
       d="m 25.5538,34.2658 0.2359,0.0661 c -0.0085,-0.028 -0.0328,-0.0684 -0.0366,-0.0821 -0.015,-0.0553 0.0054,-0.0461 0.0279,-0.0605 0.0567,0.0209 0.0379,0.0248 0.0732,0.0691 -0.0497,-0.1268 -0.0546,-0.14 -0.2084,-0.1546 0.0791,0.0506 0.0206,-0.0025 -0.012,0.1689 z"
       style="fill:#000000;fill-rule:evenodd"
       id="path27624" />
    <path
       d="m 25.6143,31.8701 c 2.6229,0 4.7499,2.1271 4.7499,4.75 0,2.6229 -2.127,4.7499 -4.7499,4.7499 -2.6229,0 -4.75,-2.127 -4.75,-4.7499 0,-2.6229 2.1271,-4.75 4.75,-4.75 z m 5.9999,4.75 c 0,-3.3131 -2.6868,-6 -5.9999,-6 -3.3131,0 -6,2.6869 -6,6 0,3.3131 2.6869,5.9999 6,5.9999 3.3131,0 5.9999,-2.6868 5.9999,-5.9999 z"
       style="fill:#ff0000;fill-rule:evenodd"
       id="path27626" />
  </g>
</svg>
