<?xml version="1.0" encoding="UTF-8" standalone="no"?>
<svg
   xmlns:dc="http://purl.org/dc/elements/1.1/"
   xmlns:cc="http://creativecommons.org/ns#"
   xmlns:rdf="http://www.w3.org/1999/02/22-rdf-syntax-ns#"
   xmlns:svg="http://www.w3.org/2000/svg"
   xmlns="http://www.w3.org/2000/svg"
   xmlns:sodipodi="http://sodipodi.sourceforge.net/DTD/sodipodi-0.dtd"
   xmlns:inkscape="http://www.inkscape.org/namespaces/inkscape"
   version="1.1"
   width="791.48932"
   height="791.48932"
   id="svg29062"
   viewBox="0 0 791.48933 791.48926"
   sodipodi:docname="R-23.svg"
   inkscape:version="1.0.2 (e86c870879, 2021-01-15)">
  <metadata
     id="metadata29068">
    <rdf:RDF>
      <cc:Work
         rdf:about="">
        <dc:format>image/svg+xml</dc:format>
        <dc:type
           rdf:resource="http://purl.org/dc/dcmitype/StillImage" />
        <dc:title />
      </cc:Work>
    </rdf:RDF>
  </metadata>
  <defs
     id="defs29066" />
  <sodipodi:namedview
     pagecolor="#ffffff"
     bordercolor="#666666"
     borderopacity="1"
     objecttolerance="10"
     gridtolerance="10"
     guidetolerance="10"
     inkscape:pageopacity="0"
     inkscape:pageshadow="2"
     inkscape:window-width="1920"
     inkscape:window-height="1016"
     id="namedview29064"
     showgrid="false"
     inkscape:zoom="0.049253423"
     inkscape:cx="6000.3793"
     inkscape:cy="3720.4174"
     inkscape:window-x="0"
     inkscape:window-y="27"
     inkscape:window-maximized="1"
     inkscape:current-layer="svg29062"
     showguides="false"
     inkscape:document-rotation="0" />
  <g
     id="Layer1006"
     transform="matrix(65.957993,0,0,65.957993,-2317.4803,-2019.6601)">
    <path
       d="m 41.1357,31.8704 c 2.6229,0 4.7499,2.1271 4.7499,4.75 0,2.6229 -2.127,4.7499 -4.7499,4.7499 -2.6229,0 -4.75,-2.127 -4.75,-4.7499 0,-2.6229 2.1271,-4.75 4.75,-4.75 z m 5.9999,4.75 c 0,-3.3132 -2.6868,-6 -5.9999,-6 -3.3132,0 -6,2.6868 -6,6 0,3.3131 2.6868,5.9999 6,5.9999 3.3131,0 5.9999,-2.6868 5.9999,-5.9999 z"
       style="fill:#ff0000;fill-rule:evenodd"
       id="path27103" />
    <path
       d="m 37.1209,36.7688 h -0.0043 v -0.9456 h 0.0043 v -0.0043 h 0.5838 l -0.1969,-0.4718 0.004,-0.0017 -0.0041,0.0012 -0.0081,-0.0275 -2e-4,-5e-4 v -2e-4 L 37.496,35.2909 v -2e-4 -3e-4 -0.0275 -4e-4 l 10e-5,-5e-4 0.0057,-0.0276 v -3e-4 l 2e-4,-4e-4 0.0103,-0.0263 10e-5,-2e-4 2e-4,-3e-4 0.0137,-0.0241 3e-4,-4e-4 2e-4,-3e-4 0.0184,-0.0207 2e-4,-3e-4 2e-4,-10e-5 0.0218,-0.0183 2e-4,-2e-4 4e-4,-3e-4 0.0242,-0.0138 2e-4,-10e-5 3e-4,-1e-4 0.0264,-0.0103 4e-4,-2e-4 5e-4,-10e-5 0.0273,-0.0046 h 4e-4 2e-4 l 0.0275,-0.0011 3e-4,-10e-5 6e-4,10e-5 0.0286,0.0046 h 5e-4 l 2e-4,10e-5 0.0264,0.0093 3e-4,10e-5 3e-4,1e-4 0.0241,0.0126 -0.002,0.0038 0.0023,-0.0036 1.7145,1.114 -0.0023,0.0036 0.0029,-0.0032 0.0115,0.0102 4e-4,4e-4 4e-4,7e-4 0.008,0.0137 4e-4,7e-4 2e-4,9e-4 0.0023,0.0161 v 6e-4 6e-4 l -0.0023,0.015 -2e-4,7e-4 -4e-4,8e-4 -0.008,0.0136 -4e-4,7e-4 -4e-4,4e-4 -0.0115,0.0103 -0.0029,-0.0032 0.0023,0.0036 -1.7145,1.1141 -0.0023,-0.0036 0.0021,0.0037 -0.0241,0.0137 -5e-4,3e-4 -4e-4,10e-5 -0.0263,0.008 -2e-4,10e-5 h -4e-4 l -0.0286,0.0047 -5e-4,10e-5 h -2e-4 -0.0276 -4e-4 l -4e-4,-10e-5 -0.0274,-0.0059 -2e-4,-10e-5 h -3e-4 l -0.0264,-0.0091 -5e-4,-2e-4 -4e-4,-2e-4 -0.0241,-0.015 -3e-4,-1e-4 -10e-5,-10e-5 -0.0218,-0.0172 -4e-4,-2e-4 -2e-4,-4e-4 -0.0184,-0.0218 -2e-4,-2e-4 -2e-4,-4e-4 -0.0137,-0.0241 -2e-4,-3e-4 -10e-5,-3e-4 -0.0103,-0.0264 -2e-4,-4e-4 v -3e-4 l -0.0057,-0.0274 -10e-5,-5e-4 v -4e-4 -0.0275 -3e-4 -2e-4 l 0.0034,-0.0275 v -3e-4 l 2e-4,-5e-4 0.0081,-0.0264 0.0041,0.0012 -0.004,-0.0016 0.1969,-0.4731 h -0.5838 z"
       style="fill:#000000;fill-rule:evenodd"
       id="path27105" />
    <path
       d="m 43.9897,38.2312 0.0035,0.0275 0.008,0.0263 0.0126,0.0252 0.0183,0.0218 0.0207,0.0172 0.0252,0.0126 0.0263,0.008 0.0276,0.0035"
       style="fill:#000000;fill-rule:evenodd"
       id="path27107" />
    <path
       d="m 43.9897,38.2312 v -0.5674 h 0.6338 v 0.5674"
       style="fill:#000000;fill-rule:evenodd"
       id="path27109" />
    <path
       d="m 44.4814,38.3733 0.0275,-0.0035 0.0264,-0.008 0.0252,-0.0126 0.0218,-0.0172 0.0172,-0.0218 0.0126,-0.0252 0.008,-0.0263 0.0034,-0.0275"
       style="fill:#000000;fill-rule:evenodd"
       id="path27111" />
    <path
       d="M 44.4814,38.3733 H 44.1319"
       style="fill:#000000;fill-rule:evenodd"
       id="path27113" />
    <path
       d="m 40.6134,37.4575 0.0034,0.0253 0.008,0.024 0.0138,0.0218 0.0172,0.0183 0.0218,0.0138 0.024,0.008 0.0252,0.0023"
       style="fill:#000000;fill-rule:evenodd"
       id="path27115" />
    <path
       d="M 40.6134,37.4575 V 37.4312"
       style="fill:#000000;fill-rule:evenodd"
       id="path27117" />
    <path
       d="m 40.7268,37.3177 -0.0252,0.0023 -0.024,0.0092 -0.0218,0.0137 -0.0172,0.0172 -0.0138,0.0218 -0.008,0.0241 -0.0034,0.0252"
       style="fill:#000000;fill-rule:evenodd"
       id="path27119" />
    <path
       d="M 40.7268,37.3177 H 44.753"
       style="fill:#000000;fill-rule:evenodd"
       id="path27121" />
    <path
       d="M 44.8665,37.4312 44.8631,37.406 44.855,37.3819 44.8413,37.3601 44.823,37.3429 44.8023,37.3292 44.7782,37.32 44.753,37.3177"
       style="fill:#000000;fill-rule:evenodd"
       id="path27123" />
    <path
       d="m 44.8665,37.4312 v 0.0263"
       style="fill:#000000;fill-rule:evenodd"
       id="path27125" />
    <path
       d="m 44.753,37.571 0.0252,-0.0023 0.0241,-0.008 0.0207,-0.0138 0.0183,-0.0183 0.0137,-0.0218 0.0081,-0.024 0.0034,-0.0253"
       style="fill:#000000;fill-rule:evenodd"
       id="path27127" />
    <path
       d="M 44.753,37.571 H 40.7268"
       style="fill:#000000;fill-rule:evenodd"
       id="path27129" />
    <path
       d="m 41.348,38.3733 0.0275,-0.0035 0.0264,-0.008 0.0252,-0.0126 0.0206,-0.0172 0.0184,-0.0218 0.0126,-0.0252 0.008,-0.0263 0.0023,-0.0275"
       style="fill:#000000;fill-rule:evenodd"
       id="path27131" />
    <path
       d="m 41.489,38.2312 v -0.5674 h -0.6327 v 0.5674"
       style="fill:#000000;fill-rule:evenodd"
       id="path27133" />
    <path
       d="m 40.8563,38.2312 0.0023,0.0275 0.0081,0.0263 0.0137,0.0252 0.0172,0.0218 0.0218,0.0172 0.024,0.0126 0.0276,0.008 0.0275,0.0035"
       style="fill:#000000;fill-rule:evenodd"
       id="path27135" />
    <path
       d="M 40.9985,38.3733 H 41.348"
       style="fill:#000000;fill-rule:evenodd"
       id="path27137" />
    <path
       d="m 44.9456,37.0748 0.0332,-0.0998 0.0287,-0.1031 0.0217,-0.1032 0.0172,-0.1054 0.0115,-0.1054 0.0057,-0.1055 v -0.1066 l -0.0057,-0.1054 -0.0115,-0.1054 -0.0172,-0.1055 -0.0217,-0.1031 -0.0287,-0.102 -0.0332,-0.1009"
       style="fill:#000000;fill-rule:evenodd"
       id="path27139" />
    <path
       d="M 44.9456,35.7235 44.9295,35.688 44.9089,35.6559 44.8848,35.6261 44.8573,35.5997 44.8252,35.578 44.7909,35.5596 44.7553,35.547 44.7175,35.539 44.6785,35.5367"
       style="fill:#000000;fill-rule:evenodd"
       id="path27141" />
    <path
       d="m 44.6785,37.2616 0.039,-0.0023 0.0378,-0.0081 0.0356,-0.0126 0.0343,-0.0183 0.0321,-0.0218 0.0275,-0.0263 0.0241,-0.0287 0.0206,-0.0332 0.0161,-0.0355"
       style="fill:#000000;fill-rule:evenodd"
       id="path27143" />
    <path
       d="m 40.5343,35.7235 -0.0332,0.1009 -0.0287,0.102 -0.0229,0.1031 -0.0161,0.1055 -0.0114,0.1054 -0.0058,0.1054 v 0.1066 l 0.0058,0.1055 0.0114,0.1054 0.0161,0.1054 0.0229,0.1032 0.0287,0.1031 0.0332,0.0998"
       style="fill:#000000;fill-rule:evenodd"
       id="path27145" />
    <path
       d="m 40.5343,37.0748 0.016,0.0355 0.0195,0.0332 0.0252,0.0287 0.0275,0.0263 0.0321,0.0218 0.0344,0.0183 0.0355,0.0126 0.0379,0.0081 0.0389,0.0023"
       style="fill:#000000;fill-rule:evenodd"
       id="path27147" />
    <path
       d="m 40.8013,35.5367 -0.0389,0.0023 -0.0379,0.008 -0.0355,0.0126 -0.0344,0.0184 -0.0321,0.0217 -0.0275,0.0264 -0.0252,0.0298 -0.0195,0.0321 -0.016,0.0355"
       style="fill:#000000;fill-rule:evenodd"
       id="path27149" />
    <path
       d="M 44.6785,37.2616 H 40.8013"
       style="fill:#000000;fill-rule:evenodd"
       id="path27151" />
    <path
       d="m 44.6785,35.5367 -0.275,-0.0367 -0.2762,-0.0309 -0.2774,-0.0252 -0.2762,-0.0195 -0.2785,-0.0149 -0.2773,-0.008 -0.2785,-0.0035 -0.2774,0.0035 -0.2773,0.008 -0.2785,0.0149 -0.2774,0.0195 -0.2762,0.0252 -0.2762,0.0309 -0.2751,0.0367"
       style="fill:#000000;fill-rule:evenodd"
       id="path27153" />
    <path
       d="m 44.6866,35.4805 -0.2762,-0.0366 -0.2774,-0.031 -0.2785,-0.0263 -0.2774,-0.0195 -0.2796,-0.0138 -0.2785,-0.0091 -0.2796,-0.0023 -0.2785,0.0023 -0.2785,0.0091 -0.2797,0.0138 -0.2785,0.0195 -0.2773,0.0263 -0.2774,0.031 -0.2762,0.0366"
       style="fill:#000000;fill-rule:evenodd"
       id="path27155" />
    <path
       d="M 44.6866,35.4805 44.1571,34.119"
       style="fill:#000000;fill-rule:evenodd"
       id="path27157" />
    <path
       d="M 40.7933,35.4805 41.3228,34.119"
       style="fill:#000000;fill-rule:evenodd"
       id="path27159" />
    <path
       d="m 39.4684,36.3791 0.0115,-0.0103 0.008,-0.0138 0.0023,-0.0149 -0.0023,-0.016 -0.008,-0.0138 L 39.4684,36.3"
       style="fill:#000000;fill-rule:evenodd"
       id="path27161" />
    <path
       d="M 44.8277,35.5745 Z"
       style="fill:#000000;fill-rule:evenodd"
       id="path27163" />
    <path
       d="m 41.489,38.2312 0.0043,3e-4 -0.0023,0.0275 v 4e-4 l -2e-4,5e-4 -0.008,0.0263 -10e-5,4e-4 -2e-4,3e-4 -0.0126,0.0252 -2e-4,4e-4 -4e-4,5e-4 -0.0184,0.0217 -3e-4,4e-4 -2e-4,1e-4 -0.0206,0.0173 -3e-4,2e-4 -5e-4,3e-4 -0.0251,0.0127 -4e-4,2e-4 -3e-4,10e-5 -0.0264,0.0079 h -4e-4 l -3e-4,1e-4 -0.0275,0.0035 -6e-4,-0.0042 v 0.0043 h -0.3495 v -0.0043 l -5e-4,0.0042 -0.0276,-0.0035 h -3e-4 l -4e-4,-1e-4 -0.0274,-0.0079 -4e-4,-2e-4 -4e-4,-2e-4 -0.0241,-0.0126 -5e-4,-3e-4 -2e-4,-10e-5 -0.0218,-0.0173 -4e-4,-3e-4 -3e-4,-4e-4 -0.0171,-0.0217 -2e-4,-2e-4 -2e-4,-4e-4 -0.0138,-0.0253 -2e-4,-4e-4 -10e-5,-4e-4 -0.008,-0.0263 -2e-4,-5e-4 v -4e-4 l -0.0023,-0.0275 0.0043,-3e-4 h -0.0043 v -0.5674 -0.0043 h 0.0043 0.6326 0.0043 v 0.0043 0.5674 z"
       style="fill:#000000;fill-rule:evenodd"
       id="path27165" />
    <path
       d="m 40.7269,37.571 -4e-4,0.0043 -0.0252,-0.0022 -5e-4,-10e-5 -5e-4,-1e-4 -0.024,-0.0082 -5e-4,-2e-4 -4e-4,-3e-4 -0.0219,-0.0137 -4e-4,-3e-4 -4e-4,-4e-4 -0.0173,-0.0182 -3e-4,-3e-4 -2e-4,-4e-4 -0.0137,-0.0218 -3e-4,-5e-4 -10e-5,-4e-4 -0.0081,-0.0241 -10e-5,-3e-4 v -5e-4 l -0.0034,-0.0251 0.0042,-6e-4 h -0.0043 v -0.0265 h 0.0043 l -0.0042,-5e-4 0.0034,-0.0252 v -4e-4 l 10e-5,-3e-4 0.0081,-0.0242 10e-5,-4e-4 3e-4,-5e-4 0.0137,-0.0218 3e-4,-5e-4 3e-4,-3e-4 0.0173,-0.0171 3e-4,-3e-4 4e-4,-3e-4 0.0219,-0.0138 3e-4,-3e-4 4e-4,-1e-4 0.024,-0.0091 5e-4,-2e-4 7e-4,-1e-4 0.0252,-0.0023 4e-4,0.0043 v -0.0043 h 4.0261 v 0.0043 l 4e-4,-0.0043 0.0253,0.0023 6e-4,1e-4 5e-4,2e-4 0.024,0.0091 5e-4,2e-4 4e-4,3e-4 0.0207,0.0138 2e-4,1e-4 3e-4,3e-4 0.0183,0.0171 4e-4,4e-4 3e-4,5e-4 0.0137,0.0218 3e-4,4e-4 1e-4,5e-4 0.0081,0.0241 2e-4,4e-4 v 5e-4 l 0.0034,0.0251 -0.0043,5e-4 h 0.0043 v 0.0265 h -0.0043 l 0.0043,5e-4 -0.0034,0.0252 v 4e-4 l -2e-4,4e-4 -0.0081,0.0241 -1e-4,5e-4 -3e-4,4e-4 -0.0137,0.0218 -3e-4,5e-4 -3e-4,3e-4 -0.0183,0.0182 -3e-4,3e-4 -3e-4,3e-4 -0.0207,0.0137 -5e-4,3e-4 -5e-4,2e-4 -0.0241,0.0082 -6e-4,1e-4 -4e-4,10e-5 -0.0252,0.0022 -4e-4,-0.0043 v 0.0043 h -4.0261 z"
       style="fill:#000000;fill-rule:evenodd"
       id="path27167" />
    <path
       d="m 44.1319,38.3733 -5e-4,0.0042 -0.0277,-0.0035 -3e-4,-1e-4 h -4e-4 l -0.0262,-0.0079 -4e-4,-10e-5 -3e-4,-2e-4 -0.0252,-0.0127 -5e-4,-3e-4 -4e-4,-2e-4 -0.0205,-0.0173 -3e-4,-1e-4 -2e-4,-4e-4 -0.0184,-0.0217 -4e-4,-5e-4 -2e-4,-4e-4 -0.0127,-0.0252 -1e-4,-3e-4 -10e-5,-4e-4 -0.0081,-0.0263 -10e-5,-4e-4 v -3e-4 l -0.0034,-0.0275 0.0043,-5e-4 h -0.0043 v -0.5674 -0.0043 h 0.0043 0.6337 0.0043 v 0.0043 0.5674 h -0.0043 l 0.0042,5e-4 -0.0033,0.0275 v 3e-4 l -2e-4,4e-4 -0.008,0.0263 -2e-4,4e-4 -10e-5,3e-4 -0.0126,0.0252 -2e-4,5e-4 -3e-4,3e-4 -0.0171,0.0217 -3e-4,4e-4 -4e-4,3e-4 -0.0218,0.0173 -3e-4,10e-5 -5e-4,3e-4 -0.0252,0.0127 -4e-4,2e-4 -3e-4,10e-5 -0.0263,0.0079 h -4e-4 l -3e-4,1e-4 -0.0276,0.0035 -5e-4,-0.0042 v 0.0043 h -0.3495 z"
       style="fill:#000000;fill-rule:evenodd"
       id="path27169" />
    <path
       d="m 44.1571,34.119 -0.2831,-0.0241 -0.2831,-0.0195 -0.2831,-0.0126 -0.2842,-0.0091 -0.2842,-0.0023 -0.2831,0.0023 -0.2842,0.0091 -0.2831,0.0126 -0.2843,0.0195 -0.2819,0.0241"
       style="fill:#000000;fill-rule:evenodd"
       id="path27171" />
    <path
       d="m 44.4814,35.3384 -0.2888,-0.0332 -0.29,-0.0275 -0.2899,-0.0218 -0.2911,-0.016 -0.2911,-0.0092 -0.2911,-0.0023 -0.29,0.0023 -0.2911,0.0092 -0.2911,0.016 -0.29,0.0218 -0.2899,0.0275 -0.2888,0.0332"
       style="fill:#000000;fill-rule:evenodd"
       id="path27173" />
    <path
       d="M 44.0723,34.2863 43.7766,34.2634 43.4809,34.2451 43.184,34.2336 42.8884,34.2267 h -0.2969 l -0.2968,0.0069 -0.2957,0.0115 -0.2957,0.0183 -0.2957,0.0229"
       style="fill:#000000;fill-rule:evenodd"
       id="path27175" />
    <path
       d="M 44.4814,35.3384 44.0723,34.2863"
       style="fill:#000000;fill-rule:evenodd"
       id="path27177" />
    <path
       d="m 40.9985,35.3384 0.4091,-1.0521"
       style="fill:#000000;fill-rule:evenodd"
       id="path27179" />
    <path
       d="m 42.8884,34.2267 0.2956,0.0069 0.2969,0.0115 0.2957,0.0183 0.2957,0.0229 0.4091,1.0521 -0.2888,-0.0332 -0.29,-0.0275 -0.2899,-0.0218 -0.2911,-0.016 -0.2911,-0.0092 -0.2911,-0.0023 -0.29,0.0023 -0.2911,0.0092 -0.2911,0.016 -0.29,0.0218 -0.2899,0.0275 -0.2888,0.0332 0.4091,-1.0521 0.2957,-0.0229 0.2957,-0.0183 0.2957,-0.0115 0.2968,-0.0069 z m 0.6887,1.1404 0.2774,0.0195 0.2785,0.0263 0.2774,0.031 0.2762,0.0366 -0.5295,-1.3615 -0.2831,-0.0241 -0.2831,-0.0195 -0.2831,-0.0126 -0.2842,-0.0091 -0.2842,-0.0023 -0.2831,0.0023 -0.2842,0.0091 -0.2831,0.0126 -0.2843,0.0195 -0.2819,0.0241 -0.5295,1.3615 0.2762,-0.0366 0.2774,-0.031 0.2773,-0.0263 0.2785,-0.0195 0.2797,-0.0138 0.2785,-0.0091 0.2785,-0.0023 0.2796,0.0023 0.2785,0.0091 z"
       style="fill:#000000;fill-rule:evenodd"
       id="path27181" />
    <path
       d="m 44.1276,35.4649 -0.2774,-0.0253 h -1e-4 l -0.2762,-0.0195 h -1e-4 l -0.2784,-0.0148 h -1e-4 L 43.018,35.3971 h -1e-4 l -0.2784,-0.0034 h -10e-5 l -0.2774,0.0034 h -1e-4 l -0.2773,0.0082 h -1e-4 l -0.2786,0.0148 h -1e-4 l -0.2773,0.0195 h -1e-4 l -0.2762,0.0253 h -1e-4 l -0.2762,0.0309 h -10e-5 l -0.2747,0.0367 -0.039,0.0022 h -2e-4 l -4e-4,10e-5 -0.0378,0.0081 h -3e-4 l -2e-4,10e-5 -0.0355,0.0125 h -2e-4 l -4e-4,3e-4 -0.0345,0.0185 -3e-4,10e-5 -10e-5,1e-4 -0.032,0.0217 -3e-4,10e-5 -3e-4,3e-4 -0.0275,0.0263 -3e-4,3e-4 h -10e-5 l -0.0252,0.03 -2e-4,3e-4 -10e-5,2e-4 -0.0195,0.032 -1e-4,2e-4 -10e-5,3e-4 -0.0161,0.0356 0.0039,0.0017 -0.0041,-0.0013 -0.0332,0.1008 -1e-4,2e-4 -0.0286,0.102 v 2e-4 l -0.023,0.1032 -1e-4,2e-4 -0.0161,0.1055 v 2e-4 l -0.0114,0.1054 -1e-4,2e-4 -0.0057,0.1054 v 3e-4 0.1066 3e-4 l 0.0057,0.1053 1e-4,3e-4 0.0114,0.1055 v 2e-4 l 0.0161,0.1054 1e-4,3e-4 0.023,0.1031 v 2e-4 l 0.0286,0.1032 1e-4,2e-4 0.0332,0.0996 0.0041,-0.0014 -0.0039,0.0018 0.0161,0.0356 v 2e-4 l 2e-4,2e-4 0.0194,0.0333 2e-4,2e-4 3e-4,4e-4 0.0252,0.0288 2e-4,2e-4 h 1e-4 l 0.0275,0.0263 4e-4,4e-4 2e-4,1e-4 0.032,0.0217 10e-5,1e-4 3e-4,2e-4 0.0345,0.0183 3e-4,2e-4 2e-4,10e-5 0.0356,0.0126 1e-4,1e-4 4e-4,10e-5 0.0378,0.008 4e-4,10e-5 h 2e-4 l 0.039,0.0022 2e-4,-0.0042 v 0.0042 h 3.8773 v -0.0042 l 2e-4,0.0042 0.0389,-0.0022 h 3e-4 l 3e-4,-10e-5 0.0378,-0.008 4e-4,-10e-5 2e-4,-1e-4 0.0355,-0.0126 3e-4,-10e-5 3e-4,-2e-4 0.0345,-0.0183 2e-4,-2e-4 2e-4,-1e-4 0.032,-0.0217 1e-4,-1e-4 4e-4,-4e-4 0.0276,-0.0263 2e-4,-2e-4 1e-4,-1e-4 0.024,-0.0287 2e-4,-3e-4 2e-4,-2e-4 0.0207,-0.0333 1e-4,-2e-4 2e-4,-3e-4 0.0161,-0.0356 -0.004,-0.0018 0.0041,0.0014 0.0332,-0.0996 v -2e-4 l 0.0287,-0.1032 v -3e-4 l 0.0218,-0.1031 v -10e-5 l 0.0173,-0.1054 v -3e-4 l 0.0114,-0.1055 10e-5,-3e-4 0.0057,-0.1053 v -3e-4 -0.1066 -3e-4 l -0.0057,-0.1054 -10e-5,-2e-4 -0.0114,-0.1054 v -2e-4 l -0.0173,-0.1055 v -2e-4 l -0.0218,-0.1031 v -3e-4 l -0.0287,-0.102 v -2e-4 l -0.0332,-0.1008 -0.0041,0.0013 0.004,-0.0017 -0.0161,-0.0356 -2e-4,-3e-4 -2e-4,-3e-4 -0.0207,-0.032 -10e-5,-10e-5 -1e-4,-2e-4 -0.0241,-0.03 -1e-4,-2e-4 -2e-4,-2e-4 -0.0276,-0.0263 -4e-4,-4e-4 h -1e-4 l -0.032,-0.0217 -4e-4,-2e-4 -0.0345,-0.0185 -4e-4,-3e-4 h -2e-4 l -0.0355,-0.0125 -3e-4,-10e-5 h -3e-4 l -0.0378,-0.0081 -3e-4,-10e-5 h -3e-4 L 44.6788,35.5325 44.404,35.4958 h -1e-4 l -0.2762,-0.0309 z m 0.0139,1.1555 h 0.4156 v 0.3324 h -0.4156 z m -2.7981,0 v 0.3324 h -0.4155 v -0.3324 z"
       style="fill:#000000;fill-rule:evenodd"
       id="path27183" />
  </g>
</svg>
