<?xml version="1.0" encoding="UTF-8" standalone="no"?>
<svg
   xmlns:dc="http://purl.org/dc/elements/1.1/"
   xmlns:cc="http://creativecommons.org/ns#"
   xmlns:rdf="http://www.w3.org/1999/02/22-rdf-syntax-ns#"
   xmlns:svg="http://www.w3.org/2000/svg"
   xmlns="http://www.w3.org/2000/svg"
   xmlns:sodipodi="http://sodipodi.sourceforge.net/DTD/sodipodi-0.dtd"
   xmlns:inkscape="http://www.inkscape.org/namespaces/inkscape"
   version="1.1"
   width="791.48932"
   height="791.48932"
   id="svg29062"
   viewBox="0 0 791.48933 791.48926"
   sodipodi:docname="R-24a.svg"
   inkscape:version="1.0.2 (e86c870879, 2021-01-15)">
  <metadata
     id="metadata29068">
    <rdf:RDF>
      <cc:Work
         rdf:about="">
        <dc:format>image/svg+xml</dc:format>
        <dc:type
           rdf:resource="http://purl.org/dc/dcmitype/StillImage" />
        <dc:title />
      </cc:Work>
    </rdf:RDF>
  </metadata>
  <defs
     id="defs29066" />
  <sodipodi:namedview
     pagecolor="#ffffff"
     bordercolor="#666666"
     borderopacity="1"
     objecttolerance="10"
     gridtolerance="10"
     guidetolerance="10"
     inkscape:pageopacity="0"
     inkscape:pageshadow="2"
     inkscape:window-width="1920"
     inkscape:window-height="1016"
     id="namedview29064"
     showgrid="false"
     inkscape:zoom="0.049253423"
     inkscape:cx="5030.4472"
     inkscape:cy="5038.0264"
     inkscape:window-x="0"
     inkscape:window-y="27"
     inkscape:window-maximized="1"
     inkscape:current-layer="svg29062"
     showguides="false"
     inkscape:document-rotation="0" />
  <g
     id="Layer1032"
     transform="matrix(65.957993,0,0,65.957993,-3287.4123,-2019.6601)">
    <path
       d="m 55.841,31.8704 c 2.6228,0 4.7499,2.1271 4.7499,4.75 0,2.6229 -2.1271,4.7499 -4.7499,4.7499 -2.6229,0 -4.75,-2.127 -4.75,-4.7499 0,-2.6229 2.1271,-4.75 4.75,-4.75 z m 5.9999,4.75 c 0,-3.3132 -2.6868,-6 -5.9999,-6 -3.3132,0 -6,2.6868 -6,6 0,3.3131 2.6868,5.9999 6,5.9999 3.3131,0 5.9999,-2.6868 5.9999,-5.9999 z"
       style="fill:#ff0000;fill-rule:evenodd"
       id="path27629" />
    <path
       d="m 52.0895,36.0791 v 1.1407 l 5.6226,-0.0028 -0.2428,0.5211 c -0.0329,0.0787 -0.0105,0.1696 0.0553,0.2241 0.0657,0.0546 0.1595,0.0602 0.2313,0.0138 l 1.8156,-1.3093 c 0,-10e-5 10e-5,-10e-5 10e-5,-10e-5 0.013,-0.0103 0.0209,-0.0278 0.0209,-0.0465 0,-0.0187 -0.0078,-0.0361 -0.0207,-0.0463 l -1.8159,-1.309 c -0.0718,-0.0465 -0.1656,-0.0409 -0.2313,0.0137 -0.0658,0.0546 -0.0882,0.1454 -0.0553,0.2241 l 0.2417,0.5765 z"
       style="fill:#000000;fill-rule:evenodd"
       id="path27631" />
  </g>
</svg>
