<?xml version="1.0" encoding="UTF-8" standalone="no"?>
<svg
   xmlns:dc="http://purl.org/dc/elements/1.1/"
   xmlns:cc="http://creativecommons.org/ns#"
   xmlns:rdf="http://www.w3.org/1999/02/22-rdf-syntax-ns#"
   xmlns:svg="http://www.w3.org/2000/svg"
   xmlns="http://www.w3.org/2000/svg"
   xmlns:sodipodi="http://sodipodi.sourceforge.net/DTD/sodipodi-0.dtd"
   xmlns:inkscape="http://www.inkscape.org/namespaces/inkscape"
   version="1.1"
   width="791.48932"
   height="791.48932"
   id="svg29062"
   viewBox="0 0 791.48933 791.48926"
   sodipodi:docname="R-24b.svg"
   inkscape:version="1.0.2 (e86c870879, 2021-01-15)">
  <metadata
     id="metadata29068">
    <rdf:RDF>
      <cc:Work
         rdf:about="">
        <dc:format>image/svg+xml</dc:format>
        <dc:type
           rdf:resource="http://purl.org/dc/dcmitype/StillImage" />
        <dc:title />
      </cc:Work>
    </rdf:RDF>
  </metadata>
  <defs
     id="defs29066" />
  <sodipodi:namedview
     pagecolor="#ffffff"
     bordercolor="#666666"
     borderopacity="1"
     objecttolerance="10"
     gridtolerance="10"
     guidetolerance="10"
     inkscape:pageopacity="0"
     inkscape:pageshadow="2"
     inkscape:window-width="1920"
     inkscape:window-height="1016"
     id="namedview29064"
     showgrid="false"
     inkscape:zoom="0.049253423"
     inkscape:cx="4082.334"
     inkscape:cy="4095.785"
     inkscape:window-x="0"
     inkscape:window-y="27"
     inkscape:window-maximized="1"
     inkscape:current-layer="svg29062"
     showguides="false"
     inkscape:document-rotation="0" />
  <g
     id="Layer1033"
     transform="matrix(65.957993,0,0,65.957993,-4235.5255,-2019.6403)">
    <path
       d="m 70.2154,31.8701 c 2.6229,0 4.75,2.1271 4.75,4.75 0,2.6229 -2.1271,4.7499 -4.75,4.7499 -2.6228,0 -4.7499,-2.127 -4.7499,-4.7499 0,-2.6229 2.1271,-4.75 4.7499,-4.75 z m 6,4.75 c 0,-3.3131 -2.6868,-6 -6,-6 -3.3131,0 -5.9999,2.6869 -5.9999,6 0,3.3131 2.6868,5.9999 5.9999,5.9999 3.3132,0 6,-2.6868 6,-5.9999 z"
       style="fill:#ff0000;fill-rule:evenodd"
       id="path27634" />
    <path
       d="m 68.014,33.5346 -0.8244,0.7883 3.8877,4.0619 -0.5444,0.1847 c -0.0797,0.0306 -0.1299,0.1095 -0.1238,0.1948 0.006,0.0853 0.0668,0.1569 0.1499,0.1767 l 2.2011,0.4074 c 0,0 1e-4,0 1e-4,1e-4 0.0164,0.0023 0.0345,-0.0042 0.048,-0.0171 0.0135,-0.0129 0.0207,-0.0305 0.0193,-0.0469 l -0.3089,-2.2171 c -0.016,-0.084 -0.0849,-0.148 -0.1698,-0.1578 -0.0849,-0.0098 -0.166,0.0368 -0.2001,0.115 l -0.2497,0.5731 z"
       style="fill:#000000;fill-rule:evenodd"
       id="path27636" />
  </g>
</svg>
