<?xml version="1.0" encoding="UTF-8" standalone="no"?>
<svg
   xmlns:dc="http://purl.org/dc/elements/1.1/"
   xmlns:cc="http://creativecommons.org/ns#"
   xmlns:rdf="http://www.w3.org/1999/02/22-rdf-syntax-ns#"
   xmlns:svg="http://www.w3.org/2000/svg"
   xmlns="http://www.w3.org/2000/svg"
   xmlns:sodipodi="http://sodipodi.sourceforge.net/DTD/sodipodi-0.dtd"
   xmlns:inkscape="http://www.inkscape.org/namespaces/inkscape"
   version="1.1"
   width="791.48932"
   height="791.48932"
   id="svg29062"
   viewBox="0 0 791.48933 791.48926"
   sodipodi:docname="R-25d.svg"
   inkscape:version="1.0.2 (e86c870879, 2021-01-15)">
  <metadata
     id="metadata29068">
    <rdf:RDF>
      <cc:Work
         rdf:about="">
        <dc:format>image/svg+xml</dc:format>
        <dc:type
           rdf:resource="http://purl.org/dc/dcmitype/StillImage" />
        <dc:title />
      </cc:Work>
    </rdf:RDF>
  </metadata>
  <defs
     id="defs29066" />
  <sodipodi:namedview
     pagecolor="#ffffff"
     bordercolor="#666666"
     borderopacity="1"
     objecttolerance="10"
     gridtolerance="10"
     guidetolerance="10"
     inkscape:pageopacity="0"
     inkscape:pageshadow="2"
     inkscape:window-width="1920"
     inkscape:window-height="1016"
     id="namedview29064"
     showgrid="false"
     inkscape:zoom="0.049253423"
     inkscape:cx="377.12397"
     inkscape:cy="4095.7848"
     inkscape:window-x="0"
     inkscape:window-y="27"
     inkscape:window-maximized="1"
     inkscape:current-layer="svg29062"
     showguides="false"
     inkscape:document-rotation="0" />
  <g
     id="Layer1037"
     transform="matrix(65.957993,0,0,65.957993,-7940.7355,-2019.6403)">
    <path
       d="m 126.3908,31.8701 c 2.6228,0 4.7499,2.1271 4.7499,4.75 0,2.6229 -2.1271,4.7499 -4.7499,4.7499 -2.6229,0 -4.75,-2.127 -4.75,-4.7499 0,-2.6229 2.1271,-4.75 4.75,-4.75 z m 5.9999,4.75 c 0,-3.3131 -2.6868,-6 -5.9999,-6 -3.3132,0 -6,2.6869 -6,6 0,3.3131 2.6868,5.9999 6,5.9999 3.3131,0 5.9999,-2.6868 5.9999,-5.9999 z"
       style="fill:#ff0000;fill-rule:evenodd"
       id="path27654" />
    <path
       d="m 125.1193,40.1543 h 0.9876 v -1.4848 h 0.004 l -0.004,-10e-5 0.003,-0.0988 1e-4,-3e-4 0.01,-0.0976 10e-5,-2e-4 0.0154,-0.0968 v -2e-4 l 0.0209,-0.0968 10e-5,-2e-4 0.0278,-0.094 v -2e-4 l 0.0336,-0.093 1e-4,-2e-4 0.0393,-0.0901 1e-4,-2e-4 0.044,-0.0882 1e-4,-2e-4 0.05,-0.0852 1e-4,-2e-4 0.0556,-0.0815 1e-4,-1e-4 0.0604,-0.0777 1e-4,-1e-4 0.0652,-0.0739 1e-4,-2e-4 0.07,-0.0689 1e-4,-2e-4 0.0738,-0.0651 2e-4,-2e-4 0.0776,-0.0603 2e-4,-2e-4 0.0814,-0.0556 2e-4,-1e-4 0.0844,-0.0508 2e-4,-2e-4 0.0883,-0.044 h 1e-4 l 0.0901,-0.0394 2e-4,-1e-4 0.0929,-0.0336 h 3e-4 l 0.0949,-0.0267 1e-4,-10e-5 0.0958,-0.0221 h 3e-4 l 0.0968,-0.0154 h 3e-4 l 0.0987,-0.0096 2e-4,-1e-4 0.0977,-0.0028 1e-4,0.0036 V 37.098 h 0.5473 v 0.0036 l 0.003,0.0014 -0.2099,0.5039 -0.008,0.0274 -0.004,0.029 10e-4,0.0284 0.006,0.0281 0.0104,0.0273 0.014,0.0252 0.0188,0.0215 0.0226,0.0189 0.0252,0.014 0.0263,0.0103 0.029,0.0057 h 0.0284 l 0.029,-0.0047 0.0271,-0.0084 0.0257,-0.0142 1.8051,-1.1728 0.0118,-0.01 0.007,-0.0133 0.003,-0.0151 -0.003,-0.0152 -0.007,-0.0133 -0.0117,-0.0109 -1.8052,-1.1727 -0.0254,-0.0132 -0.0275,-0.0095 -0.0287,-0.0046 -0.0285,9e-4 -0.0291,0.0056 -0.026,0.0094 -0.0253,0.015 -0.0228,0.019 -0.0186,0.0213 -0.0142,0.0246 -0.0103,0.027 -0.006,0.0282 -0.001,0.0293 0.004,0.0282 0.008,0.0281 0.2099,0.5031 -0.003,0.0013 v 0.0036 h -0.6181 -10e-5 l -0.1109,0.002 h -2e-4 l -0.111,0.0076 v -1e-4 l -0.1098,0.0144 h -2e-4 l -0.1098,0.0191 v 0 l -0.1083,0.0259 v 0 l -0.106,0.0316 h -2e-4 l -0.1041,0.0373 h -1e-4 l -0.1022,0.043 -2e-4,1e-4 -0.1004,0.0486 -2e-4,10e-5 -0.0964,0.0545 -2e-4,10e-5 -0.0945,0.0592 -2e-4,10e-5 -0.0897,0.064 -1e-4,1e-4 -0.0871,0.0698 -1e-4,1e-4 -0.083,0.0735 -2e-4,2e-4 -0.0783,0.0784 -0.003,-0.0025 h -0.004 v -2.1774 h 0.004 l 0.001,-0.0033 0.503,0.2098 0.0283,0.0084 0.028,0.0037 h 0.0293 l 0.0283,-0.0056 0.027,-0.0111 0.0244,-0.0142 0.0215,-0.0187 0.0189,-0.0225 0.015,-0.0255 0.009,-0.0261 0.006,-0.0292 8e-4,-0.0284 -0.005,-0.0288 -0.01,-0.0273 -0.0131,-0.0255 -1.1728,-1.806 -0.0101,-0.0111 -0.0132,-0.0079 -0.0151,-0.0017 -0.0152,0.0017 -0.0132,0.0079 -0.011,0.0112 -1.1718,1.8059 -0.014,0.0256 -0.009,0.0272 -0.005,0.0288 0.001,0.0286 0.005,0.0288 0.0104,0.0265 0.014,0.0253 0.0189,0.0225 0.0215,0.0187 0.0254,0.0141 0.0271,0.0112 0.0281,0.0056 h 0.0283 l 0.0291,-0.0037 0.0275,-0.0085 0.5038,-0.2097 0.001,0.0033 h 0.004 z"
       style="fill:#000000;fill-rule:evenodd"
       id="path27656" />
  </g>
</svg>
