<?xml version="1.0" encoding="UTF-8" standalone="no"?>
<svg
   xmlns:dc="http://purl.org/dc/elements/1.1/"
   xmlns:cc="http://creativecommons.org/ns#"
   xmlns:rdf="http://www.w3.org/1999/02/22-rdf-syntax-ns#"
   xmlns:svg="http://www.w3.org/2000/svg"
   xmlns="http://www.w3.org/2000/svg"
   xmlns:sodipodi="http://sodipodi.sourceforge.net/DTD/sodipodi-0.dtd"
   xmlns:inkscape="http://www.inkscape.org/namespaces/inkscape"
   version="1.1"
   width="791.48932"
   height="791.48932"
   id="svg29062"
   viewBox="0 0 791.48933 791.48926"
   sodipodi:docname="R-25c.svg"
   inkscape:version="1.0.2 (e86c870879, 2021-01-15)">
  <metadata
     id="metadata29068">
    <rdf:RDF>
      <cc:Work
         rdf:about="">
        <dc:format>image/svg+xml</dc:format>
        <dc:type
           rdf:resource="http://purl.org/dc/dcmitype/StillImage" />
        <dc:title />
      </cc:Work>
    </rdf:RDF>
  </metadata>
  <defs
     id="defs29066" />
  <sodipodi:namedview
     pagecolor="#ffffff"
     bordercolor="#666666"
     borderopacity="1"
     objecttolerance="10"
     gridtolerance="10"
     guidetolerance="10"
     inkscape:pageopacity="0"
     inkscape:pageshadow="2"
     inkscape:window-width="1920"
     inkscape:window-height="1016"
     id="namedview29064"
     showgrid="false"
     inkscape:zoom="0.049253423"
     inkscape:cx="1314.3343"
     inkscape:cy="4095.7849"
     inkscape:window-x="0"
     inkscape:window-y="27"
     inkscape:window-maximized="1"
     inkscape:current-layer="svg29062"
     showguides="false"
     inkscape:document-rotation="0" />
  <g
     id="Layer1036"
     transform="matrix(65.957993,0,0,65.957993,-7003.5252,-2019.6403)">
    <path
       d="m 112.1815,31.8701 c 2.6229,0 4.75,2.1271 4.75,4.75 0,2.6229 -2.1271,4.7499 -4.75,4.7499 -2.6229,0 -4.7499,-2.127 -4.7499,-4.7499 0,-2.6229 2.127,-4.75 4.7499,-4.75 z m 6,4.75 c 0,-3.3131 -2.6869,-6 -6,-6 -3.3131,0 -5.9999,2.6869 -5.9999,6 0,3.3131 2.6868,5.9999 5.9999,5.9999 3.3131,0 6,-2.6868 6,-5.9999 z"
       style="fill:#ff0000;fill-rule:evenodd"
       id="path27649" />
    <path
       d="m 113.6682,40.3281 h -0.9877 v -1.4848 h -0.004 l 0.004,-10e-5 -0.003,-0.0988 v -3e-4 l -0.01,-0.0976 v -2e-4 l -0.0155,-0.0968 v -2e-4 l -0.0209,-0.0968 -1e-4,-2e-4 -0.0277,-0.094 -1e-4,-2e-4 -0.0335,-0.093 -1e-4,-2e-4 -0.0394,-0.0901 v -2e-4 l -0.0441,-0.0882 -10e-5,-2e-4 -0.0499,-0.0852 -2e-4,-3e-4 -0.0555,-0.0814 -2e-4,-2e-4 -0.0603,-0.0776 -2e-4,-2e-4 -0.0651,-0.0738 -2e-4,-2e-4 -0.0699,-0.069 -2e-4,-1e-4 -0.0738,-0.0652 -2e-4,-1e-4 -0.0776,-0.0604 -1e-4,-10e-5 -0.0815,-0.0557 -1e-4,-1e-4 -0.0844,-0.0508 -3e-4,-1e-4 -0.0882,-0.044 h -2e-4 l -0.09,-0.0394 -2e-4,-1e-4 -0.093,-0.0336 -3e-4,-10e-5 -0.0948,-0.0267 h -2e-4 l -0.0958,-0.0221 -2e-4,-1e-4 -0.0969,-0.0153 -2e-4,-1e-4 -0.0987,-0.0095 -2e-4,-1e-4 -0.0978,-0.0028 -1e-4,0.0036 v -0.0036 h -0.5472 v 0.0036 l -0.003,0.0014 0.2098,0.5038 0.008,0.0275 0.004,0.029 -10e-4,0.0283 -0.005,0.0281 -0.0104,0.0273 -0.014,0.0253 -0.0188,0.0215 -0.0226,0.0189 -0.0253,0.014 -0.0263,0.0103 -0.029,0.0057 h -0.0284 l -0.029,-0.0047 -0.0271,-0.0084 -0.0257,-0.0143 -1.8051,-1.1728 -0.0117,-0.0099 -0.007,-0.0133 -0.003,-0.0151 0.003,-0.0152 0.007,-0.0133 0.0117,-0.0109 1.8051,-1.1727 0.0255,-0.0132 0.0274,-0.0095 0.0288,-0.0046 0.0284,9e-4 0.0291,0.0056 0.0261,0.0094 0.0253,0.015 0.0227,0.019 0.0187,0.0213 0.0141,0.0246 0.0104,0.027 0.005,0.0282 0.001,0.0293 -0.004,0.0282 -0.008,0.0281 -0.2098,0.5031 0.003,0.0013 v 0.0036 h 0.6181 v 0 l 0.111,0.002 h 2e-4 l 0.111,0.0075 v 0 l 0.1098,0.0143 1e-4,10e-5 0.1099,0.0191 v 0 l 0.1083,0.0259 v 0 l 0.1059,0.0316 h 2e-4 l 0.1041,0.0372 2e-4,10e-5 0.1022,0.043 1e-4,1e-4 0.1004,0.0486 2e-4,10e-5 0.0964,0.0545 2e-4,10e-5 0.0946,0.0592 2e-4,10e-5 0.0896,0.064 2e-4,1e-4 0.087,0.0698 1e-4,1e-4 0.083,0.0735 2e-4,10e-5 0.0784,0.0785 0.002,-0.0025 h 0.004 v -2.1774 h -0.004 l -10e-4,-0.0033 -0.503,0.2098 -0.0283,0.0084 -0.0281,0.0037 h -0.0293 l -0.0282,-0.0056 -0.027,-0.0112 -0.0245,-0.0141 -0.0215,-0.0188 -0.0188,-0.0224 -0.0151,-0.0255 -0.009,-0.0262 -0.006,-0.0291 -9e-4,-0.0284 0.005,-0.0288 0.01,-0.0274 0.0132,-0.0254 1.1727,-1.806 0.0101,-0.0111 0.0133,-0.0079 0.015,-0.0018 0.0152,0.0018 0.0133,0.0079 0.011,0.0111 1.1717,1.8059 0.0141,0.0257 0.008,0.0272 0.005,0.0288 -9e-4,0.0286 -0.005,0.0288 -0.0104,0.0265 -0.014,0.0252 -0.019,0.0225 -0.0215,0.0188 -0.0253,0.0141 -0.0272,0.0112 -0.0281,0.0056 h -0.0283 l -0.0291,-0.0037 -0.0275,-0.0085 -0.5038,-0.2097 -0.001,0.0033 h -0.004 z"
       style="fill:#000000;fill-rule:evenodd"
       id="path27651" />
  </g>
</svg>
