<?xml version="1.0" encoding="UTF-8" standalone="no"?>
<svg
   xmlns:dc="http://purl.org/dc/elements/1.1/"
   xmlns:cc="http://creativecommons.org/ns#"
   xmlns:rdf="http://www.w3.org/1999/02/22-rdf-syntax-ns#"
   xmlns:svg="http://www.w3.org/2000/svg"
   xmlns="http://www.w3.org/2000/svg"
   xmlns:sodipodi="http://sodipodi.sourceforge.net/DTD/sodipodi-0.dtd"
   xmlns:inkscape="http://www.inkscape.org/namespaces/inkscape"
   version="1.1"
   width="791.48932"
   height="791.48932"
   id="svg29062"
   viewBox="0 0 791.48933 791.48926"
   sodipodi:docname="R-25b.svg"
   inkscape:version="1.0.2 (e86c870879, 2021-01-15)">
  <metadata
     id="metadata29068">
    <rdf:RDF>
      <cc:Work
         rdf:about="">
        <dc:format>image/svg+xml</dc:format>
        <dc:type
           rdf:resource="http://purl.org/dc/dcmitype/StillImage" />
        <dc:title />
      </cc:Work>
    </rdf:RDF>
  </metadata>
  <defs
     id="defs29066" />
  <sodipodi:namedview
     pagecolor="#ffffff"
     bordercolor="#666666"
     borderopacity="1"
     objecttolerance="10"
     gridtolerance="10"
     guidetolerance="10"
     inkscape:pageopacity="0"
     inkscape:pageshadow="2"
     inkscape:window-width="1920"
     inkscape:window-height="1016"
     id="namedview29064"
     showgrid="false"
     inkscape:zoom="0.049253423"
     inkscape:cx="2251.5512"
     inkscape:cy="4095.7651"
     inkscape:window-x="0"
     inkscape:window-y="27"
     inkscape:window-maximized="1"
     inkscape:current-layer="svg29062"
     showguides="false"
     inkscape:document-rotation="0" />
  <g
     id="Layer1035"
     transform="matrix(65.957993,0,0,65.957993,-6066.3083,-2019.6601)">
    <path
       d="m 97.9723,31.8704 c 2.6229,0 4.75,2.1271 4.75,4.75 0,2.6229 -2.1271,4.7499 -4.75,4.7499 -2.6229,0 -4.75,-2.127 -4.75,-4.7499 0,-2.6229 2.1271,-4.75 4.75,-4.75 z m 5.9999,4.75 c 0,-3.3132 -2.6868,-6 -5.9999,-6 -3.3131,0 -6,2.6868 -6,6 0,3.3131 2.6869,5.9999 6,5.9999 3.3131,0 5.9999,-2.6868 5.9999,-5.9999 z"
       style="fill:#ff0000;fill-rule:evenodd"
       id="path27644" />
    <path
       d="m 100.8858,34.6984 0.002,0.0028 0.0129,-0.0109 6e-4,-4e-4 3e-4,-7e-4 0.008,-0.0149 3e-4,-5e-4 1e-4,-6e-4 0.003,-0.017 2e-4,-7e-4 -2e-4,-6e-4 -0.003,-0.0167 -1e-4,-6e-4 -3e-4,-5e-4 -0.008,-0.015 -3e-4,-6e-4 -5e-4,-4e-4 -0.0129,-0.0119 -0.002,0.0027 0.002,-0.0031 -1.873,-1.2168 -0.002,0.0031 0.0017,-0.0033 -0.0268,-0.014 -2e-4,-1e-4 -3e-4,-10e-5 -0.0289,-0.0099 -2e-4,-10e-5 h -5e-4 l -0.0298,-0.0041 h -3e-4 -2e-4 -0.0308 -3e-4 l -4e-4,10e-5 -0.0299,0.006 h -2e-4 l -4e-4,1e-4 -0.0287,0.0109 -3e-4,10e-5 -2e-4,1e-4 -0.0268,0.0151 -4e-4,2e-4 -3e-4,2e-4 -0.0229,0.0198 -2e-4,2e-4 -1e-4,1e-4 -0.02,0.0229 -1e-4,2e-4 -3e-4,4e-4 -0.0158,0.0258 -1e-4,2e-4 -2e-4,4e-4 -0.011,0.0288 -1e-4,4e-4 v 2e-4 l -0.006,0.0299 v 3e-4 l -10e-5,2e-4 -0.001,0.031 v 1e-4 l 1e-4,5e-4 0.0039,0.0307 10e-5,4e-4 1e-4,3e-4 0.0099,0.0289 0.0035,-0.0012 -0.0034,0.0014 0.2147,0.5169 -0.1338,0.0039 h -1e-4 l -0.1402,0.0089 h -2e-4 l -0.1391,0.0159 h -2e-4 l -0.1382,0.0219 h -2e-4 l -0.1372,0.0279 h -1e-4 l -0.1362,0.0348 h -1e-4 l -0.1343,0.0398 h -2e-4 l -0.1322,0.0468 h -1e-4 l -0.1302,0.0517 -2e-4,1e-4 -0.1274,0.0587 -1e-4,10e-5 -0.1252,0.0636 -1e-4,1e-4 -0.1213,0.0685 -10e-5,10e-5 -0.1194,0.0745 -1e-4,1e-4 -0.1154,0.0806 -10e-5,10e-5 -0.1113,0.0844 -2e-4,1e-4 -0.1073,0.0896 -2e-4,1e-4 -0.1034,0.0954 -1e-4,10e-5 -0.0993,0.0984 -2e-4,10e-5 -0.0944,0.1034 -1e-4,1e-4 -0.0895,0.1086 -10e-5,1e-4 -0.0855,0.1112 -10e-5,1e-4 -0.0795,0.1154 -1e-4,10e-5 -0.0746,0.1183 -1e-4,10e-5 -0.0685,0.1224 -1e-4,1e-4 -0.0637,0.1243 -1e-4,1e-4 -0.0586,0.1282 -1e-4,2e-4 -0.0516,0.1302 -1e-4,2e-4 -0.0468,0.1323 v 1e-4 l -0.0398,0.1342 v 2e-4 l -0.0348,0.1352 v 2e-4 l -0.0279,0.138 v 2e-4 l -0.0219,0.1383 v 2e-4 l -0.016,0.1392 v 1e-4 l -0.0089,0.1402 v 10e-5 l -0.003,0.1402 0.0037,1e-4 H 95.8397 V 39.69 h 0.0037 v 0.0038 h 1.032 V 39.69 h 0.0037 v -2.4267 0 l 0.003,-0.113 v -2e-4 l 0.0089,-0.1133 v 0 l 0.0159,-0.1118 v -2e-4 l 0.0207,-0.111 v 0 l 0.0279,-0.1092 1e-4,-10e-5 0.0327,-0.108 1e-4,-2e-4 0.0385,-0.1061 1e-4,-2e-4 0.0446,-0.104 1e-4,-2e-4 0.0505,-0.1009 10e-5,-2e-4 0.0555,-0.0981 10e-5,-10e-5 0.0603,-0.0952 2e-4,-2e-4 0.0664,-0.0911 1e-4,-1e-4 0.0704,-0.0882 1e-4,-1e-4 0.0752,-0.0842 1e-4,-10e-5 0.0804,-0.0794 1e-4,-1e-4 0.0832,-0.0763 2e-4,-1e-4 0.0881,-0.0703 2e-4,-1e-4 0.092,-0.0654 2e-4,-1e-4 0.0941,-0.0614 2e-4,-1e-4 0.099,-0.0555 2e-4,-1e-4 0.1011,-0.0496 2e-4,-1e-4 0.1031,-0.0445 h 2e-4 l 0.106,-0.0397 v 0 l 0.1081,-0.0327 10e-5,-1e-4 0.1092,-0.0277 v -10e-5 l 0.111,-0.0208 h 2e-4 l 0.1119,-0.0149 v 0 l 0.1132,-0.0099 h 2e-4 l 0.1063,-0.0028 -0.2145,0.5176 0.0034,0.0014 -0.0035,-0.0012 -0.0099,0.0288 -10e-5,3e-4 -1e-4,5e-4 -0.0039,0.0308 -1e-4,4e-4 v 2e-4 l 0.001,0.0298 1e-4,2e-4 v 4e-4 l 0.006,0.0308 1e-4,5e-4 v 2e-4 l 0.011,0.0278 10e-5,2e-4 2e-4,3e-4 0.0158,0.0269 2e-4,2e-4 2e-4,3e-4 0.02,0.0229 2e-4,2e-4 1e-4,2e-4 0.0229,0.0198 3e-4,2e-4 4e-4,2e-4 0.0268,0.015 3e-4,1e-4 2e-4,10e-5 0.0287,0.0109 4e-4,2e-4 h 2e-4 l 0.0299,0.006 4e-4,1e-4 h 3e-4 0.0308 3e-4 l 3e-4,-1e-4 0.0298,-0.0049 2e-4,-10e-5 h 3e-4 l 0.0289,-0.009 4e-4,-1e-4 3e-4,-2e-4 0.0268,-0.0149 -0.0018,-0.0032 0.002,0.0031 1.873,-1.2169 z"
       style="fill:#000000;fill-rule:evenodd"
       id="path27646" />
  </g>
</svg>
