<?xml version="1.0" encoding="UTF-8" standalone="no"?>
<svg
   xmlns:dc="http://purl.org/dc/elements/1.1/"
   xmlns:cc="http://creativecommons.org/ns#"
   xmlns:rdf="http://www.w3.org/1999/02/22-rdf-syntax-ns#"
   xmlns:svg="http://www.w3.org/2000/svg"
   xmlns="http://www.w3.org/2000/svg"
   xmlns:sodipodi="http://sodipodi.sourceforge.net/DTD/sodipodi-0.dtd"
   xmlns:inkscape="http://www.inkscape.org/namespaces/inkscape"
   version="1.1"
   width="791.48932"
   height="791.48932"
   id="svg29062"
   viewBox="0 0 791.48933 791.48926"
   sodipodi:docname="R-25a.svg"
   inkscape:version="1.0.2 (e86c870879, 2021-01-15)">
  <metadata
     id="metadata29068">
    <rdf:RDF>
      <cc:Work
         rdf:about="">
        <dc:format>image/svg+xml</dc:format>
        <dc:type
           rdf:resource="http://purl.org/dc/dcmitype/StillImage" />
        <dc:title />
      </cc:Work>
    </rdf:RDF>
  </metadata>
  <defs
     id="defs29066" />
  <sodipodi:namedview
     pagecolor="#ffffff"
     bordercolor="#666666"
     borderopacity="1"
     objecttolerance="10"
     gridtolerance="10"
     guidetolerance="10"
     inkscape:pageopacity="0"
     inkscape:pageshadow="2"
     inkscape:window-width="1920"
     inkscape:window-height="1016"
     id="namedview29064"
     showgrid="false"
     inkscape:zoom="0.049253423"
     inkscape:cx="3134.2209"
     inkscape:cy="4095.7849"
     inkscape:window-x="0"
     inkscape:window-y="27"
     inkscape:window-maximized="1"
     inkscape:current-layer="svg29062"
     showguides="false"
     inkscape:document-rotation="0" />
  <g
     id="Layer1034"
     transform="matrix(65.957993,0,0,65.957993,-5183.6387,-2019.6403)">
    <path
       d="m 84.5899,31.8701 c 2.6229,0 4.75,2.1271 4.75,4.75 0,2.6229 -2.1271,4.7499 -4.75,4.7499 -2.6229,0 -4.7499,-2.127 -4.7499,-4.7499 0,-2.6229 2.127,-4.75 4.7499,-4.75 z m 6,4.75 c 0,-3.3131 -2.6868,-6 -6,-6 -3.3131,0 -5.9999,2.6869 -5.9999,6 0,3.3131 2.6868,5.9999 5.9999,5.9999 3.3132,0 6,-2.6868 6,-5.9999 z"
       style="fill:#ff0000;fill-rule:evenodd"
       id="path27639" />
    <path
       d="m 81.8156,34.806 -0.0024,0.0029 -0.0129,-0.0109 -6e-4,-5e-4 -3e-4,-6e-4 -0.008,-0.0149 -3e-4,-6e-4 -1e-4,-5e-4 -0.0029,-0.0171 -2e-4,-6e-4 2e-4,-7e-4 0.0029,-0.0167 1e-4,-6e-4 3e-4,-5e-4 0.008,-0.015 3e-4,-5e-4 5e-4,-5e-4 0.0129,-0.0119 0.0025,0.0028 -0.002,-0.0031 1.873,-1.2169 0.002,0.0031 -0.0017,-0.0033 0.0268,-0.0139 2e-4,-1e-4 3e-4,-10e-5 0.0289,-0.0099 2e-4,-1e-4 5e-4,-10e-5 0.0298,-0.004 3e-4,-1e-4 h 2e-4 0.0308 3e-4 l 4e-4,1e-4 0.0299,0.006 h 2e-4 l 4e-4,2e-4 0.0287,0.0108 3e-4,1e-4 2e-4,2e-4 0.0268,0.015 4e-4,2e-4 2e-4,2e-4 0.023,0.0198 2e-4,2e-4 1e-4,2e-4 0.02,0.0229 10e-5,1e-4 3e-4,4e-4 0.0158,0.0258 10e-5,2e-4 2e-4,5e-4 0.011,0.0288 1e-4,3e-4 v 3e-4 l 0.006,0.0298 v 3e-4 l 1e-4,3e-4 10e-4,0.0309 v 2e-4 l -10e-5,4e-4 -0.0039,0.0307 -1e-4,5e-4 -1e-4,3e-4 -0.0099,0.0288 -0.0035,-0.0012 0.0034,0.0014 -0.2147,0.517 0.1338,0.0038 h 10e-5 l 0.1402,0.0089 2e-4,1e-4 0.1391,0.0158 2e-4,1e-4 0.1382,0.0218 2e-4,10e-5 0.1372,0.0278 1e-4,1e-4 0.1362,0.0347 1e-4,10e-5 0.1343,0.0397 2e-4,10e-5 0.1322,0.0467 h 10e-5 l 0.1302,0.0518 2e-4,1e-4 0.1274,0.0587 h 1e-4 l 0.1252,0.0636 1e-4,1e-4 0.1213,0.0686 h 1e-4 l 0.1194,0.0745 10e-5,1e-4 0.1154,0.0806 1e-4,1e-4 0.1113,0.0845 2e-4,1e-4 0.1073,0.0895 2e-4,2e-4 0.1034,0.0954 1e-4,10e-5 0.0993,0.0984 2e-4,10e-5 0.0944,0.1033 1e-4,2e-4 0.0895,0.1085 1e-4,10e-5 0.0855,0.1112 1e-4,2e-4 0.0795,0.1153 1e-4,1e-4 0.0746,0.1183 10e-5,2e-4 0.0685,0.1223 1e-4,2e-4 0.0637,0.1242 1e-4,2e-4 0.0586,0.1282 1e-4,2e-4 0.0516,0.1302 1e-4,1e-4 0.0468,0.1323 v 2e-4 l 0.0398,0.1341 v 2e-4 l 0.0348,0.1353 v 1e-4 l 0.0279,0.1381 v 1e-4 l 0.0219,0.1384 v 1e-4 l 0.016,0.1392 v 2e-4 l 0.0089,0.1401 v 2e-4 l 0.003,0.1401 -0.0037,10e-5 h 0.0037 v 2.4268 H 86.858 v 0.0037 h -1.032 v -0.0037 h -0.0037 v -2.4267 -1e-4 l -0.003,-0.113 v -2e-4 l -0.0089,-0.1132 v 0 l -0.0159,-0.1119 v -2e-4 l -0.0207,-0.111 v 0 l -0.0279,-0.1091 -1e-4,-2e-4 -0.0327,-0.108 -1e-4,-2e-4 -0.0385,-0.1061 -10e-5,-10e-5 -0.0446,-0.104 -1e-4,-2e-4 -0.0505,-0.101 -1e-4,-2e-4 -0.0555,-0.098 -1e-4,-2e-4 -0.0603,-0.0951 -2e-4,-2e-4 -0.0664,-0.0911 -1e-4,-1e-4 -0.0704,-0.0882 -1e-4,-2e-4 -0.0752,-0.0841 -1e-4,-2e-4 -0.0804,-0.0793 -1e-4,-1e-4 -0.0832,-0.0763 -2e-4,-2e-4 -0.0881,-0.0702 -2e-4,-10e-5 -0.092,-0.0655 -2e-4,-1e-4 -0.0941,-0.0614 -2e-4,-10e-5 -0.099,-0.0555 -2e-4,-10e-5 -0.1011,-0.0496 h -2e-4 l -0.1031,-0.0445 -2e-4,-10e-5 -0.106,-0.0397 v 0 l -0.1081,-0.0327 -1e-4,-1e-4 -0.1092,-0.0277 v 0 l -0.111,-0.0208 -2e-4,-1e-4 -0.1119,-0.0149 v 1e-4 L 83.8485,35.286 h -2e-4 l -0.1063,-0.0028 0.2145,0.5175 -0.0034,0.0015 0.0035,-0.0012 0.0099,0.0288 1e-4,2e-4 1e-4,5e-4 0.0039,0.0308 10e-5,5e-4 v 10e-5 l -10e-4,0.0299 -1e-4,2e-4 v 3e-4 l -0.006,0.0309 -1e-4,4e-4 v 3e-4 l -0.011,0.0277 -1e-4,2e-4 -2e-4,3e-4 -0.0158,0.0269 -2e-4,3e-4 -2e-4,3e-4 -0.02,0.0228 -2e-4,2e-4 -1e-4,2e-4 -0.023,0.0199 -2e-4,10e-5 -4e-4,3e-4 -0.0268,0.0149 -3e-4,1e-4 -2e-4,1e-4 -0.0287,0.011 -4e-4,1e-4 -2e-4,10e-5 -0.0299,0.0059 -4e-4,10e-5 h -3e-4 -0.0308 -3e-4 -3e-4 l -0.0298,-0.005 h -2e-4 l -3e-4,-1e-4 -0.0289,-0.0089 -4e-4,-2e-4 -3e-4,-2e-4 -0.0268,-0.0149 0.0018,-0.0032 -0.002,0.0031 -1.873,-1.2169 z"
       style="fill:#000000;fill-rule:evenodd"
       id="path27641" />
  </g>
</svg>
