<?xml version="1.0" encoding="UTF-8" standalone="no"?>
<svg
   xmlns:dc="http://purl.org/dc/elements/1.1/"
   xmlns:cc="http://creativecommons.org/ns#"
   xmlns:rdf="http://www.w3.org/1999/02/22-rdf-syntax-ns#"
   xmlns:svg="http://www.w3.org/2000/svg"
   xmlns="http://www.w3.org/2000/svg"
   xmlns:sodipodi="http://sodipodi.sourceforge.net/DTD/sodipodi-0.dtd"
   xmlns:inkscape="http://www.inkscape.org/namespaces/inkscape"
   version="1.1"
   width="791.48932"
   height="791.48932"
   id="svg29062"
   viewBox="0 0 791.48933 791.48926"
   sodipodi:docname="R-26.svg"
   inkscape:version="1.0.2 (e86c870879, 2021-01-15)">
  <metadata
     id="metadata29068">
    <rdf:RDF>
      <cc:Work
         rdf:about="">
        <dc:format>image/svg+xml</dc:format>
        <dc:type
           rdf:resource="http://purl.org/dc/dcmitype/StillImage" />
        <dc:title />
      </cc:Work>
    </rdf:RDF>
  </metadata>
  <defs
     id="defs29066" />
  <sodipodi:namedview
     pagecolor="#ffffff"
     bordercolor="#666666"
     borderopacity="1"
     objecttolerance="10"
     gridtolerance="10"
     guidetolerance="10"
     inkscape:pageopacity="0"
     inkscape:pageshadow="2"
     inkscape:window-width="1920"
     inkscape:window-height="1016"
     id="namedview29064"
     showgrid="false"
     inkscape:zoom="0.049253423"
     inkscape:cx="-560.08639"
     inkscape:cy="4095.765"
     inkscape:window-x="0"
     inkscape:window-y="27"
     inkscape:window-maximized="1"
     inkscape:current-layer="svg29062"
     showguides="false"
     inkscape:document-rotation="0" />
  <g
     id="Layer1038"
     transform="matrix(65.957993,0,0,65.957993,-8877.9459,-2019.6601)">
    <path
       d="m 140.0256,40.3668 1.1407,0.0068 0.0306,-5.6226 0.5197,0.2459 c 0.0785,0.0334 0.1695,0.0116 0.2245,-0.0539 0.055,-0.0654 0.0611,-0.1592 0.0151,-0.2313 l -1.2985,-1.8233 c 0,-10e-5 0,-10e-5 -1e-4,-10e-5 -0.0101,-0.0131 -0.0276,-0.021 -0.0463,-0.0212 -0.0187,-1e-4 -0.0361,0.0076 -0.0464,0.0204 l -1.3199,1.8081 c -0.0468,0.0715 -0.0418,0.1653 0.0124,0.2314 0.0542,0.0661 0.1449,0.089 0.2238,0.0566 l 0.5779,-0.2382 z"
       style="fill:#000000;fill-rule:evenodd"
       id="path27659" />
    <path
       d="m 140.6,30.6204 c -3.3131,0 -6,2.6868 -6,6 0,3.3131 2.6869,5.9999 6,5.9999 3.3131,0 5.9999,-2.6868 5.9999,-5.9999 0,-3.3132 -2.6868,-6 -5.9999,-6 z m -4.8,6 c 0,-2.6505 2.1495,-4.8 4.8,-4.8 2.6505,0 4.7999,2.1495 4.7999,4.8 0,2.6505 -2.1494,4.7999 -4.7999,4.7999 -2.6505,0 -4.8,-2.1494 -4.8,-4.7999 z"
       style="fill:#ff0000;fill-rule:evenodd"
       id="path27661" />
  </g>
</svg>
