<?xml version="1.0" encoding="UTF-8" standalone="no"?>
<svg
   xmlns:dc="http://purl.org/dc/elements/1.1/"
   xmlns:cc="http://creativecommons.org/ns#"
   xmlns:rdf="http://www.w3.org/1999/02/22-rdf-syntax-ns#"
   xmlns:svg="http://www.w3.org/2000/svg"
   xmlns="http://www.w3.org/2000/svg"
   xmlns:sodipodi="http://sodipodi.sourceforge.net/DTD/sodipodi-0.dtd"
   xmlns:inkscape="http://www.inkscape.org/namespaces/inkscape"
   version="1.1"
   width="791.48932"
   height="791.48932"
   id="svg29062"
   viewBox="0 0 791.48933 791.48926"
   sodipodi:docname="R-27.svg"
   inkscape:version="1.0.2 (e86c870879, 2021-01-15)">
  <metadata
     id="metadata29068">
    <rdf:RDF>
      <cc:Work
         rdf:about="">
        <dc:format>image/svg+xml</dc:format>
        <dc:type
           rdf:resource="http://purl.org/dc/dcmitype/StillImage" />
        <dc:title />
      </cc:Work>
    </rdf:RDF>
  </metadata>
  <defs
     id="defs29066" />
  <sodipodi:namedview
     pagecolor="#ffffff"
     bordercolor="#666666"
     borderopacity="1"
     objecttolerance="10"
     gridtolerance="10"
     guidetolerance="10"
     inkscape:pageopacity="0"
     inkscape:pageshadow="2"
     inkscape:window-width="1920"
     inkscape:window-height="1016"
     id="namedview29064"
     showgrid="false"
     inkscape:zoom="0.049253423"
     inkscape:cx="-1497.2835"
     inkscape:cy="4095.765"
     inkscape:window-x="0"
     inkscape:window-y="27"
     inkscape:window-maximized="1"
     inkscape:current-layer="svg29062"
     showguides="false"
     inkscape:document-rotation="0" />
  <g
     id="Layer1039"
     transform="matrix(65.957993,0,0,65.957993,-9815.143,-2019.6601)">
    <path
       d="m 154.8089,31.8704 c 2.6229,0 4.75,2.1271 4.75,4.75 0,2.6229 -2.1271,4.7499 -4.75,4.7499 -2.6229,0 -4.7499,-2.127 -4.7499,-4.7499 0,-2.6229 2.127,-4.75 4.7499,-4.75 z m 6,4.75 c 0,-3.3132 -2.6869,-6 -6,-6 -3.3131,0 -5.9999,2.6868 -5.9999,6 0,3.3131 2.6868,5.9999 5.9999,5.9999 3.3131,0 6,-2.6868 6,-5.9999 z"
       style="fill:#ff0000;fill-rule:evenodd"
       id="path27664" />
    <path
       d="m 158.1082,34.1081 v 3.4818"
       style="fill:#000000;fill-rule:evenodd"
       id="path27666" />
    <path
       d="m 154.9284,38.2058 h -0.3779 v 1.0434"
       style="fill:#000000;fill-rule:evenodd"
       id="path27668" />
    <path
       d="m 157.0488,38.2058 h 0.3794 v 1.0434"
       style="fill:#000000;fill-rule:evenodd"
       id="path27670" />
    <path
       d="m 157.5639,39.344 -0.002,0.005 -0.0672,-0.0277 -0.002,-9e-4 -9e-4,-0.0021 -0.0277,-0.0671 0.005,-0.0021 h -0.005 v -0.9485 h 0.005 l -0.005,-0.0021 0.0277,-0.0672 9e-4,-0.0021 0.002,-8e-4 0.0672,-0.0278 0.002,0.0051 v -0.0055 h 0.2831 v 0.0055 l 0.002,-0.0051 0.0671,0.0278 0.002,8e-4 9e-4,0.0021 0.0277,0.0672 -0.005,0.0021 h 0.005 v 0.9485 h -0.005 l 0.005,0.0021 -0.0277,0.0671 -9e-4,0.0021 -0.002,9e-4 -0.0671,0.0277 -0.002,-0.005 v 0.0055 h -0.2831 z"
       style="fill:#000000;fill-rule:evenodd"
       id="path27672" />
    <path
       d="m 154.5504,39.2491 h -0.005 v -1.0434 -0.0055 h 0.005 0.378 2.1204 0.1898 0.1897 0.005 v 0.0055 1.0434 h -0.005 l 0.005,0.0021 -0.0278,0.0671 -9e-4,0.0021 -0.002,9e-4 -0.067,0.0277 -0.002,-0.005 v 0.0055 H 157.049 V 39.344 l -0.002,0.005 -0.0673,-0.0277 -0.002,-9e-4 -9e-4,-0.0021 -0.0277,-0.0671 0.005,-0.0021 h -0.006 v -0.8949 h -0.6357 l -0.1018,0.1121 -8e-4,9e-4 -0.001,4e-4 -0.1415,0.0627 -10e-4,5e-4 h -0.001 -0.1533 -0.001 l -0.001,-5e-4 -0.1415,-0.0627 -10e-4,-4e-4 -8e-4,-9e-4 -0.102,-0.1121 h -0.6357 v 0.8949 h -0.005 l 0.005,0.0021 -0.0278,0.0671 -9e-4,0.0021 -0.002,9e-4 -0.067,0.0277 -0.002,-0.005 v 0.0055 h -0.2845 V 39.344 l -0.002,0.005 -0.0657,-0.0277 -0.002,-9e-4 -8e-4,-0.0021 -0.0278,-0.0671 z"
       style="fill:#000000;fill-rule:evenodd"
       id="path27674" />
    <path
       d="m 154.5082,39.2491 0.005,0.0021 -0.0277,0.0671 -9e-4,0.0021 -0.002,9e-4 -0.0671,0.0277 -0.002,-0.005 v 0.0055 h -0.283 V 39.344 l -0.002,0.005 -0.0673,-0.0277 -0.002,-9e-4 -9e-4,-0.0021 -0.0276,-0.0671 0.005,-0.0021 h -0.006 v -0.9485 h 0.006 l -0.005,-0.0021 0.0276,-0.0672 9e-4,-0.0021 0.002,-8e-4 0.0673,-0.0278 0.002,0.0051 v -0.0055 h 0.283 v 0.0055 l 0.002,-0.0051 0.0671,0.0278 0.002,8e-4 9e-4,0.0021 0.0277,0.0672 -0.005,0.0021 h 0.006 v 0.9485 z"
       style="fill:#000000;fill-rule:evenodd"
       id="path27676" />
    <path
       d="m 158.0601,38.0643 0.005,0.002 -0.0277,0.0671 -9e-4,0.0021 -0.002,9e-4 -0.0672,0.0278 -0.002,-0.0051 v 0.0055 h -3.9532 v -0.0055 l -0.002,0.0051 -0.0671,-0.0278 -0.002,-9e-4 -9e-4,-0.0021 -0.0277,-0.0671 0.005,-0.002 h -0.006 v -0.1839 h 0.006 l -0.005,-0.0021 0.0277,-0.0672 9e-4,-0.0021 0.002,-8e-4 0.0671,-0.0278 0.002,0.005 V 37.78 h 3.9532 v 0.0054 l 0.002,-0.005 0.0672,0.0278 0.002,8e-4 9e-4,0.0021 0.0277,0.0672 -0.005,0.0021 h 0.005 v 0.1839 z"
       style="fill:#000000;fill-rule:evenodd"
       id="path27678" />
    <path
       d="m 152.1004,37.8412 1.0768,-1.0436 c 0.0364,-0.0324 0.0871,-0.1289 0.007,-0.2202 l -1.0853,-1.0519 c -0.1728,-0.1298 -0.2812,0.078 -0.2383,0.1592 l 0.2706,0.7116 -1.304,-0.0775 v 0.7229 l 1.3063,-0.0777 -0.2736,0.7224 c -0.0446,0.1497 0.1373,0.2625 0.2409,0.1548 z"
       style="fill:#000000;fill-rule:evenodd"
       id="path27680" />
    <path
       d="M 153.8636,34.1081 V 37.59 h 0.006 l -0.005,0.002 0.0276,0.0671 9e-4,0.002 0.002,9e-4 0.0672,0.0278 0.002,-0.005 v 0.0054 h 4.0495 v -0.0054 l 0.002,0.005 0.0671,-0.0278 0.002,-9e-4 9e-4,-0.002 0.0276,-0.0671 -0.005,-0.002 h 0.005 v -3.4819 h -0.005 l 0.005,-0.0021 -0.0276,-0.0672 -9e-4,-0.0021 -0.002,-9e-4 -0.0671,-0.0277 -0.002,0.0051 v -0.0055 h -4.0495 v 0.0055 l -0.002,-0.0051 -0.0672,0.0277 -0.002,9e-4 -9e-4,0.0021 -0.0276,0.0672 0.005,0.0021 z m 0.3332,3.0084 h 0.4125 v 0.24 h -0.4125 z m 3.2518,-0.007 h 0.409 v 0.24 h -0.409 z"
       style="fill:#000000;fill-rule:evenodd"
       id="path27682" />
  </g>
</svg>
