<?xml version="1.0" encoding="UTF-8" standalone="no"?>
<svg
   xmlns:dc="http://purl.org/dc/elements/1.1/"
   xmlns:cc="http://creativecommons.org/ns#"
   xmlns:rdf="http://www.w3.org/1999/02/22-rdf-syntax-ns#"
   xmlns:svg="http://www.w3.org/2000/svg"
   xmlns="http://www.w3.org/2000/svg"
   xmlns:sodipodi="http://sodipodi.sourceforge.net/DTD/sodipodi-0.dtd"
   xmlns:inkscape="http://www.inkscape.org/namespaces/inkscape"
   version="1.1"
   width="791.48932"
   height="791.48932"
   id="svg29062"
   viewBox="0 0 791.48933 791.48926"
   sodipodi:docname="R-28.svg"
   inkscape:version="1.0.2 (e86c870879, 2021-01-15)">
  <metadata
     id="metadata29068">
    <rdf:RDF>
      <cc:Work
         rdf:about="">
        <dc:format>image/svg+xml</dc:format>
        <dc:type
           rdf:resource="http://purl.org/dc/dcmitype/StillImage" />
        <dc:title />
      </cc:Work>
    </rdf:RDF>
  </metadata>
  <defs
     id="defs29066" />
  <sodipodi:namedview
     pagecolor="#ffffff"
     bordercolor="#666666"
     borderopacity="1"
     objecttolerance="10"
     gridtolerance="10"
     guidetolerance="10"
     inkscape:pageopacity="0"
     inkscape:pageshadow="2"
     inkscape:window-width="1920"
     inkscape:window-height="1016"
     id="namedview29064"
     showgrid="false"
     inkscape:zoom="0.049253423"
     inkscape:cx="-2434.4938"
     inkscape:cy="4095.7649"
     inkscape:window-x="0"
     inkscape:window-y="27"
     inkscape:window-maximized="1"
     inkscape:current-layer="svg29062"
     showguides="false"
     inkscape:document-rotation="0" />
  <g
     id="Layer1040"
     transform="matrix(65.957993,0,0,65.957993,-10752.353,-2019.6601)">
    <path
       d="m 169.0182,30.6204 c -3.3132,0 -6,2.6868 -6,6 0,3.3131 2.6868,5.9999 6,5.9999 3.3131,0 5.9999,-2.6868 5.9999,-5.9999 0,-3.3132 -2.6868,-6 -5.9999,-6 z m -4.8,6 c 0,-2.6505 2.1495,-4.8 4.8,-4.8 2.6504,0 4.7999,2.1495 4.7999,4.8 0,2.6505 -2.1495,4.7999 -4.7999,4.7999 -2.6505,0 -4.8,-2.1494 -4.8,-4.7999 z"
       style="fill:#ff0000;fill-rule:evenodd"
       id="path27685" />
    <path
       d="m 171.1418,40.161 -1.0776,6e-4 -5e-4,-5.3903 -0.4922,0.2331 c -0.0743,0.0316 -0.1602,0.0102 -0.2118,-0.0528 -0.0516,-0.0631 -0.0569,-0.153 -0.0131,-0.2219 l 1.2359,-1.7413 c 0,0 0,0 1e-4,-10e-5 0.01,-0.0124 0.0262,-0.02 0.0439,-0.02 0.0176,0 0.034,0.0074 0.0437,0.0198 l 1.2377,1.7401 c 0.0439,0.0688 0.0387,0.1587 -0.0129,0.2218 -0.0515,0.0631 -0.1373,0.0846 -0.2117,0.0531 l -0.5448,-0.2314 z"
       style="fill:#000000;fill-rule:evenodd"
       id="path27687" />
    <path
       d="m 167.9037,33.1505 -1.0776,-6e-4 -5e-4,5.3116 -0.4922,-0.2297 c -0.0743,-0.0311 -0.1601,-0.01 -0.2117,0.0521 -0.0516,0.0621 -0.0569,0.1507 -0.0131,0.2186 l 1.2358,1.7158 c 0,1e-4 1e-4,1e-4 1e-4,1e-4 0.01,0.0123 0.0262,0.0197 0.0439,0.0198 0.0176,0 0.0341,-0.0073 0.0438,-0.0195 l 1.2376,-1.7147 c 0.0439,-0.0678 0.0387,-0.1564 -0.0128,-0.2186 -0.0515,-0.0621 -0.1374,-0.0833 -0.2117,-0.0523 l -0.5448,0.228 z"
       style="fill:#000000;fill-rule:evenodd"
       id="path27689" />
  </g>
</svg>
