<?xml version="1.0" encoding="UTF-8" standalone="no"?>
<svg
   xmlns:dc="http://purl.org/dc/elements/1.1/"
   xmlns:cc="http://creativecommons.org/ns#"
   xmlns:rdf="http://www.w3.org/1999/02/22-rdf-syntax-ns#"
   xmlns:svg="http://www.w3.org/2000/svg"
   xmlns="http://www.w3.org/2000/svg"
   xmlns:sodipodi="http://sodipodi.sourceforge.net/DTD/sodipodi-0.dtd"
   xmlns:inkscape="http://www.inkscape.org/namespaces/inkscape"
   version="1.1"
   width="791.48932"
   height="791.48932"
   id="svg29062"
   viewBox="0 0 791.48933 791.48926"
   sodipodi:docname="R-29.svg"
   inkscape:version="1.0.2 (e86c870879, 2021-01-15)">
  <metadata
     id="metadata29068">
    <rdf:RDF>
      <cc:Work
         rdf:about="">
        <dc:format>image/svg+xml</dc:format>
        <dc:type
           rdf:resource="http://purl.org/dc/dcmitype/StillImage" />
        <dc:title />
      </cc:Work>
    </rdf:RDF>
  </metadata>
  <defs
     id="defs29066" />
  <sodipodi:namedview
     pagecolor="#ffffff"
     bordercolor="#666666"
     borderopacity="1"
     objecttolerance="10"
     gridtolerance="10"
     guidetolerance="10"
     inkscape:pageopacity="0"
     inkscape:pageshadow="2"
     inkscape:window-width="1920"
     inkscape:window-height="1016"
     id="namedview29064"
     showgrid="false"
     inkscape:zoom="0.049253423"
     inkscape:cx="8110.0058"
     inkscape:cy="3226.5177"
     inkscape:window-x="0"
     inkscape:window-y="27"
     inkscape:window-maximized="1"
     inkscape:current-layer="svg29062"
     showguides="false"
     inkscape:document-rotation="0" />
  <g
     id="Layer1041"
     transform="matrix(65.957993,0,0,65.957993,-207.85342,-2888.9073)">
    <path
       d="m 9.1512,44.9992 c -2.6505,0 -4.7999,2.1495 -4.7999,4.8 0,2.6505 2.1494,4.8 4.7999,4.8 2.6505,0 4.8,-2.1495 4.8,-4.8 0,-2.6505 -2.1495,-4.8 -4.8,-4.8 z m -5.9999,4.8 c 0,-3.3131 2.6868,-6 5.9999,-6 3.3132,0 6,2.6869 6,6 0,3.3131 -2.6868,5.9999 -6,5.9999 -3.3131,0 -5.9999,-2.6868 -5.9999,-5.9999 z"
       style="fill:#ff0000;fill-rule:evenodd"
       id="path27692" />
    <g
       id="Layer1042">
      <path
         d="m 8.6895,46.871 c 0.3302,0 0.5978,-0.2579 0.5978,-0.5757 0,-0.3181 -0.2676,-0.5757 -0.5978,-0.5757 -0.33,0 -0.5979,0.2576 -0.5979,0.5757 0,0.3178 0.2679,0.5757 0.5979,0.5757 z"
         style="fill:#000000;fill-rule:evenodd"
         id="path27694" />
      <path
         d="m 6.9397,49.2641 c -0.15,0.3928 0.2655,0.6718 0.4489,0.4739 l 1.0974,-1.1848 0.0998,0.661 -1.721,3.5542 c -0.2306,0.5711 0.483,0.9608 0.7857,0.424 l 1.509,-3.23 1.174,3.1302 c 0.1802,0.5194 1.0065,0.4549 0.9211,-0.0766 l -1.4092,-3.9016 0.1371,-0.8355 1.0554,1.0878 c 0.2392,0.1819 0.6244,-0.0391 0.5137,-0.3628 L 9.5336,46.9196 9.3341,46.932 8.7355,47.2438 Z"
         style="fill:#000000;fill-rule:evenodd"
         id="path27696" />
      <path
         d="M 9.4206,46.6428 9.3922,46.4651 9.3105,46.3043 9.1834,46.1763 9.0226,46.0946 8.844,46.0661 l -0.1786,0.0285 -0.1608,0.0817 -0.127,0.128 -0.0818,0.1608 -0.0284,0.1777 0.0284,0.1785 0.0818,0.1609 0.127,0.1279 0.1608,0.0817 0.1786,0.0285 0.1786,-0.0285 0.1608,-0.0817 0.1271,-0.1279 0.0817,-0.1609 z"
         style="fill:none"
         id="path27698" />
      <path
         d="m 8.1377,47.7347 v 0.3465"
         style="fill:none"
         id="path27700" />
      <path
         d="M 8.2603,47.597 9.7431,47.4344"
         style="fill:none"
         id="path27702" />
      <path
         d="m 8.2603,47.597 -0.0622,0.0231 -0.0444,0.0497 -0.016,0.0649"
         style="fill:none"
         id="path27704" />
      <path
         d="M 7.1595,49.5001 7.7849,49.2958"
         style="fill:none"
         id="path27706" />
      <path
         d="M 6.9009,48.9057 7.2732,48.784"
         style="fill:none"
         id="path27708" />
      <path
         d="m 6.9009,48.9057 -0.1075,0.0569 -0.0782,0.0915 -0.04,0.1146 0.0045,0.1208 0.048,0.1111 0.0853,0.0862 0.111,0.048 0.1209,0.0053 0.1146,-0.04"
         style="fill:none"
         id="path27710" />
      <path
         d="m 9.7431,47.4344 2.3323,1.4331"
         style="fill:none"
         id="path27712" />
      <path
         d="m 10.2771,48.6063 1.5486,0.7783"
         style="fill:none"
         id="path27714" />
      <path
         d="m 10.2771,48.6063 0.6993,2.3154"
         style="fill:none"
         id="path27716" />
      <path
         d="M 7.2412,52.9279 8.5695,50.0803"
         style="fill:none"
         id="path27718" />
      <path
         d="m 7.2412,52.9279 -0.0409,0.1386 0.016,0.1439 0.0702,0.1262 0.1137,0.0897 0.1395,0.0382 0.144,-0.0187 0.1252,-0.0728 0.0871,-0.1155"
         style="fill:none"
         id="path27720" />
      <path
         d="m 10.8004,53.3925 0.0409,0.1315 0.0862,0.1075 0.119,0.0685 0.136,0.0195 0.1341,-0.0311 0.1129,-0.0782 0.0764,-0.1146 0.0302,-0.1342 -0.0222,-0.1359"
         style="fill:none"
         id="path27722" />
      <path
         d="m 11.8257,49.3846 0.1084,0.0284 0.1111,-0.016 0.0959,-0.0559 0.0676,-0.0898 0.0284,-0.1084 -0.0151,-0.111 -0.0569,-0.0969 -0.0897,-0.0675"
         style="fill:none"
         id="path27724" />
      <path
         d="m 9.1861,50.6978 -1.2972,2.573"
         style="fill:none"
         id="path27726" />
      <path
         d="m 9.975,51.4867 0.8254,1.9058"
         style="fill:none"
         id="path27728" />
      <path
         d="m 11.4535,52.9652 0.0799,0.3447"
         style="fill:none"
         id="path27730" />
      <path
         d="m 8.1377,48.0812 2.8386,2.8405"
         style="fill:none"
         id="path27732" />
      <path
         d="m 7.2732,48.784 0.5117,0.5118"
         style="fill:none"
         id="path27734" />
      <path
         d="m 8.5695,50.0803 0.6166,0.6175"
         style="fill:none"
         id="path27736" />
      <path
         d="M 11.4535,52.9652 9.975,51.4867"
         style="fill:none"
         id="path27738" />
    </g>
    <path
       d="M 12.5251,53.9819 13.3327,53.1744 5.7748,45.6164 4.9697,46.424 Z"
       style="fill:#ff0000;fill-rule:evenodd;stroke:#ff0000;stroke-width:0.0025;stroke-linecap:butt;stroke-linejoin:miter;stroke-dasharray:none"
       id="path27741" />
  </g>
</svg>
