<?xml version="1.0" encoding="UTF-8" standalone="no"?>
<svg
   xmlns:dc="http://purl.org/dc/elements/1.1/"
   xmlns:cc="http://creativecommons.org/ns#"
   xmlns:rdf="http://www.w3.org/1999/02/22-rdf-syntax-ns#"
   xmlns:svg="http://www.w3.org/2000/svg"
   xmlns="http://www.w3.org/2000/svg"
   xmlns:sodipodi="http://sodipodi.sourceforge.net/DTD/sodipodi-0.dtd"
   xmlns:inkscape="http://www.inkscape.org/namespaces/inkscape"
   version="1.1"
   width="791.48932"
   height="791.48932"
   id="svg29062"
   viewBox="0 0 791.48933 791.48926"
   sodipodi:docname="R-3.svg"
   inkscape:version="1.0.2 (e86c870879, 2021-01-15)">
  <metadata
     id="metadata29068">
    <rdf:RDF>
      <cc:Work
         rdf:about="">
        <dc:format>image/svg+xml</dc:format>
        <dc:type
           rdf:resource="http://purl.org/dc/dcmitype/StillImage" />
        <dc:title />
      </cc:Work>
    </rdf:RDF>
  </metadata>
  <defs
     id="defs29066" />
  <sodipodi:namedview
     pagecolor="#ffffff"
     bordercolor="#666666"
     borderopacity="1"
     objecttolerance="10"
     gridtolerance="10"
     guidetolerance="10"
     inkscape:pageopacity="0"
     inkscape:pageshadow="2"
     inkscape:window-width="1920"
     inkscape:window-height="1016"
     id="namedview29064"
     showgrid="false"
     inkscape:zoom="0.049253423"
     inkscape:cx="12.065678"
     inkscape:cy="5835.9279"
     inkscape:window-x="0"
     inkscape:window-y="27"
     inkscape:window-maximized="1"
     inkscape:current-layer="svg29062"
     inkscape:document-rotation="0" />
  <g
     id="Layer1011"
     transform="matrix(65.957993,0,0,65.957993,-2317.4803,-279.497)">
    <path
       d="m 40.5393,14.0705 1.1843,0.0069 0.0319,-5.7525 0.5395,0.2516 c 0.0815,0.0342 0.176,0.0118 0.2331,-0.0551 0.057,-0.067 0.0634,-0.1629 0.0156,-0.2367 L 41.1956,6.4192 c 0,0 0,-10e-5 -10e-5,-10e-5 C 41.185,6.4057 41.1669,6.3976 41.1474,6.3975 41.128,6.3974 41.1099,6.4052 41.0992,6.4183 l -1.3703,1.8499 c -0.0486,0.0731 -0.0435,0.1692 0.0128,0.2368 0.0563,0.0676 0.1505,0.0911 0.2324,0.0579 l 0.6,-0.2438 z"
       style="fill:#000000;fill-rule:evenodd"
       id="path27232" />
    <path
       d="m 41.1357,4.2375 c -3.3132,0 -6,2.6868 -6,6 0,3.3131 2.6868,5.9999 6,5.9999 3.3131,0 5.9999,-2.6868 5.9999,-5.9999 0,-3.3132 -2.6868,-6 -5.9999,-6 z m 3.7915,8.943 -6.7345,-6.7346 c 0.8128,-0.6319 1.8339,-1.0084 2.943,-1.0084 2.6505,0 4.7999,2.1495 4.7999,4.8 0,1.109 -0.3765,2.1301 -1.0084,2.943 z m -7.5831,-5.886 6.7346,6.7345 c -0.8128,0.632 -1.834,1.0084 -2.943,1.0084 -2.6505,0 -4.8,-2.1494 -4.8,-4.7999 0,-1.1091 0.3765,-2.1303 1.0084,-2.943 z"
       style="fill:#ff0000;fill-rule:evenodd"
       id="path27234" />
  </g>
</svg>
