<?xml version="1.0" encoding="UTF-8" standalone="no"?>
<svg
   xmlns:dc="http://purl.org/dc/elements/1.1/"
   xmlns:cc="http://creativecommons.org/ns#"
   xmlns:rdf="http://www.w3.org/1999/02/22-rdf-syntax-ns#"
   xmlns:svg="http://www.w3.org/2000/svg"
   xmlns="http://www.w3.org/2000/svg"
   xmlns:sodipodi="http://sodipodi.sourceforge.net/DTD/sodipodi-0.dtd"
   xmlns:inkscape="http://www.inkscape.org/namespaces/inkscape"
   version="1.1"
   width="791.48932"
   height="791.48932"
   id="svg29062"
   viewBox="0 0 791.48933 791.48926"
   sodipodi:docname="R-31.svg"
   inkscape:version="1.0.2 (e86c870879, 2021-01-15)">
  <metadata
     id="metadata29068">
    <rdf:RDF>
      <cc:Work
         rdf:about="">
        <dc:format>image/svg+xml</dc:format>
        <dc:type
           rdf:resource="http://purl.org/dc/dcmitype/StillImage" />
        <dc:title />
      </cc:Work>
    </rdf:RDF>
  </metadata>
  <defs
     id="defs29066" />
  <sodipodi:namedview
     pagecolor="#ffffff"
     bordercolor="#666666"
     borderopacity="1"
     objecttolerance="10"
     gridtolerance="10"
     guidetolerance="10"
     inkscape:pageopacity="0"
     inkscape:pageshadow="2"
     inkscape:window-width="1920"
     inkscape:window-height="1016"
     id="namedview29064"
     showgrid="false"
     inkscape:zoom="0.049253423"
     inkscape:cx="6000.379"
     inkscape:cy="5267.2045"
     inkscape:window-x="0"
     inkscape:window-y="27"
     inkscape:window-maximized="1"
     inkscape:current-layer="svg29062"
     showguides="false"
     inkscape:document-rotation="0" />
  <g
     id="Layer1004"
     transform="matrix(65.957993,0,0,65.957993,-2317.4803,-2888.9073)">
    <path
       d="m 41.1357,45.0492 c 2.6229,0 4.7499,2.1271 4.7499,4.75 0,2.6229 -2.127,4.75 -4.7499,4.75 -2.6229,0 -4.75,-2.1271 -4.75,-4.75 0,-2.6229 2.1271,-4.75 4.75,-4.75 z m 5.9999,4.75 c 0,-3.3131 -2.6868,-6 -5.9999,-6 -3.3132,0 -6,2.6869 -6,6 0,3.3131 2.6868,5.9999 6,5.9999 3.3131,0 5.9999,-2.6868 5.9999,-5.9999 z"
       style="fill:#ff0000;fill-rule:evenodd"
       id="path27089" />
    <path
       d="m 38.6126,49.6011 v 0.0034 h -0.5962 v 0.9516 h 0.5962 v 0.0034 l 0.0032,0.0014 -0.2019,0.4839 -0.0118,0.0825 0.0299,0.0768 0.0632,0.0533 0.0812,0.0153 0.0781,-0.0264 1.738,-1.1284 0.0174,-0.0236 v -0.029 l -0.0174,-0.0226 -1.738,-1.1295 -0.0781,-0.0254 -0.0812,0.0154 -0.0632,0.0524 -0.0299,0.0767 0.0118,0.0825 0.2019,0.4849 z"
       style="fill:#000000;fill-rule:evenodd"
       id="path27091" />
    <path
       d="m 43.3644,49.3028 -0.3045,-0.7024 -0.0035,1.722 0.2667,2.7259 -0.0034,4e-4 c 0.0106,0.3389 -0.5713,0.5641 -0.6912,0.0803 l 0.0033,-0.0011 -0.0034,5e-4 -0.3024,-2.6116 -0.1463,3.0343 -0.0034,-2e-4 0.0034,8e-4 c -0.091,0.3352 -0.5285,0.3221 -0.5924,-0.0194 l 0.0034,-6e-4 h -0.0034 v -4.8801 l -0.1961,0.9858 0.0113,0.6428 -0.0033,-2e-4 0.0032,5e-4 c -0.0621,0.3048 -0.4314,0.3132 -0.5295,0.0263 l 10e-5,-6e-4 0.0024,-0.0261 -0.0042,-7e-4 c 0.1414,-1.3186 0.1691,-2.2103 0.4492,-2.4611 0.7672,-0.5614 1.8759,-0.2853 1.9862,-0.02 l -0.0018,0.0028 0.0032,-0.0012 0.5179,1.2674 0.0061,1.1777 v 0 l -0.0128,0.123 -1e-4,9e-4 -5e-4,7e-4 c -0.1559,0.2179 -0.3515,0.1966 -0.4622,-0.046 l -4e-4,-8e-4 10e-5,-10e-4 2e-4,-0.0019 h -2e-4 z m -0.4877,-2.468 1e-4,5e-4 -1e-4,5e-4 c -0.0583,0.3647 -0.2346,0.491 -0.5388,0.5397 l -6e-4,10e-5 -5e-4,-10e-5 c -0.3561,-0.0567 -0.4856,-0.2058 -0.5389,-0.5397 v -5e-4 -5e-4 c 0.0586,-0.3657 0.2343,-0.4904 0.5389,-0.5389 l 5e-4,-1e-4 6e-4,1e-4 c 0.3038,0.0487 0.4803,0.1747 0.5388,0.5389 z"
       style="fill:#000000;fill-rule:evenodd"
       id="path27093" />
  </g>
</svg>
