<?xml version="1.0" encoding="UTF-8" standalone="no"?>
<svg
   xmlns:dc="http://purl.org/dc/elements/1.1/"
   xmlns:cc="http://creativecommons.org/ns#"
   xmlns:rdf="http://www.w3.org/1999/02/22-rdf-syntax-ns#"
   xmlns:svg="http://www.w3.org/2000/svg"
   xmlns="http://www.w3.org/2000/svg"
   xmlns:sodipodi="http://sodipodi.sourceforge.net/DTD/sodipodi-0.dtd"
   xmlns:inkscape="http://www.inkscape.org/namespaces/inkscape"
   version="1.1"
   width="791.48932"
   height="791.48932"
   id="svg29062"
   viewBox="0 0 791.48933 791.48926"
   sodipodi:docname="R-32.svg"
   inkscape:version="1.0.2 (e86c870879, 2021-01-15)">
  <metadata
     id="metadata29068">
    <rdf:RDF>
      <cc:Work
         rdf:about="">
        <dc:format>image/svg+xml</dc:format>
        <dc:type
           rdf:resource="http://purl.org/dc/dcmitype/StillImage" />
        <dc:title />
      </cc:Work>
    </rdf:RDF>
  </metadata>
  <defs
     id="defs29066" />
  <sodipodi:namedview
     pagecolor="#ffffff"
     bordercolor="#666666"
     borderopacity="1"
     objecttolerance="10"
     gridtolerance="10"
     guidetolerance="10"
     inkscape:pageopacity="0"
     inkscape:pageshadow="2"
     inkscape:window-width="1920"
     inkscape:window-height="1016"
     id="namedview29064"
     showgrid="false"
     inkscape:zoom="0.049253423"
     inkscape:cx="5030.447"
     inkscape:cy="3226.5176"
     inkscape:window-x="0"
     inkscape:window-y="27"
     inkscape:window-maximized="1"
     inkscape:current-layer="svg29062"
     showguides="false"
     inkscape:document-rotation="0" />
  <g
     id="Layer1043"
     transform="matrix(65.957993,0,0,65.957993,-3287.4123,-2888.9073)">
    <path
       d="m 55.841,45.0492 c 2.6228,0 4.7499,2.1271 4.7499,4.75 0,2.6229 -2.1271,4.75 -4.7499,4.75 -2.6229,0 -4.75,-2.1271 -4.75,-4.75 0,-2.6229 2.1271,-4.75 4.75,-4.75 z m 5.9999,4.75 c 0,-3.3131 -2.6868,-6 -5.9999,-6 -3.3132,0 -6,2.6869 -6,6 0,3.3131 2.6868,5.9999 6,5.9999 3.3131,0 5.9999,-2.6868 5.9999,-5.9999 z"
       style="fill:#ff0000;fill-rule:evenodd"
       id="path27744" />
    <path
       d="m 53.3749,51.5788 v 0.2543 c 0,0.0586 0.0177,0.0762 0.0762,0.0762 h 5.2881 c 0.0596,0 0.1017,-0.0421 0.1017,-0.1016 v -0.2034 c 0,-0.0595 -0.0421,-0.1017 -0.1017,-0.1017 h -5.2881 c -0.0585,0 -0.0762,0.0177 -0.0762,0.0762 z"
       style="fill:#000000;fill-rule:evenodd"
       id="path27746" />
    <path
       d="m 54.163,52.9771 c 0,0.0596 0.0422,0.1017 0.1017,0.1017 h 0.3051 c 0.0595,0 0.1017,-0.0421 0.1017,-0.1017 V 51.9856 H 54.163 Z"
       style="fill:#000000;fill-rule:evenodd"
       id="path27748" />
    <path
       d="m 53.5783,52.9771 c 0,0.0596 0.0421,0.1017 0.1017,0.1017 h 0.305 c 0.0596,0 0.1017,-0.0421 0.1017,-0.1017 v -0.9915 h -0.5084 z"
       style="fill:#000000;fill-rule:evenodd"
       id="path27750" />
    <path
       d="m 57.5443,53.0026 c 0,0.0585 0.0177,0.0762 0.0763,0.0762 h 0.3305 c 0.0586,0 0.0763,-0.0177 0.0763,-0.0762 v -1.017 h -0.4831 z"
       style="fill:#000000;fill-rule:evenodd"
       id="path27752" />
    <path
       d="m 58.1291,53.0026 c 0,0.0585 0.0177,0.0762 0.0762,0.0762 h 0.3306 c 0.0585,0 0.0762,-0.0177 0.0762,-0.0762 v -1.017 h -0.483 z"
       style="fill:#000000;fill-rule:evenodd"
       id="path27754" />
    <path
       d="m 56.3749,47.4857 h 2.0338 c 0.0586,0 0.0763,0.0176 0.0763,0.0762 v 2.161 c 0,0.0586 -0.0177,0.0763 -0.0763,0.0763 h -2.0593 c -0.0586,0 -0.0762,-0.0177 -0.0762,-0.0763 v -2.1356 c 0,-0.0595 0.0421,-0.1016 0.1017,-0.1016 z m 1.6779,2.8815 c 0.1988,0 0.36,0.1612 0.36,0.36 0,0.1987 -0.1612,0.36 -0.36,0.36 -0.1988,0 -0.36,-0.1613 -0.36,-0.36 0,-0.1988 0.1612,-0.36 0.36,-0.36 z m -0.6864,-3.39 c 0.0586,0 0.0762,0.0177 0.0762,0.0763 v 0.1271 c 0,0.0586 -0.0176,0.0762 -0.0762,0.0762 h -2.517 c -0.0595,0 -0.1017,-0.0421 -0.1017,-0.1017 v -0.0762 c 0,-0.0595 0.0422,-0.1017 0.1017,-0.1017 z m -3.9915,-0.178 c -0.0133,0.057 -0.0254,0.0585 -0.0254,0.1271 v 4.3983 c 0,0.0595 0.0421,0.1017 0.1016,0.1017 h 5.3136 c 0.0585,0 0.0762,-0.0177 0.0762,-0.0763 v -4.4745 c 0,-0.0595 -0.0421,-0.1017 -0.1017,-0.1017 H 53.502 c -0.0401,0 -0.0963,0.0135 -0.1271,0.0254 z m 2.5423,0.7627 v 2.161 c 0,0.0586 -0.0177,0.0763 -0.0762,0.0763 h -2.0593 c -0.0586,0 -0.0763,-0.0177 -0.0763,-0.0763 v -2.2118 c 0.0308,-0.012 0.087,-0.0254 0.1271,-0.0254 h 2.0085 c 0.0585,0 0.0762,0.0176 0.0762,0.0762 z m -1.7884,2.8121 c 0.1988,0 0.36,0.1612 0.36,0.36 0,0.1988 -0.1612,0.36 -0.36,0.36 -0.1988,0 -0.36,-0.1612 -0.36,-0.36 0,-0.1988 0.1612,-0.36 0.36,-0.36 z"
       style="fill:#000000;fill-rule:evenodd"
       id="path27756" />
  </g>
</svg>
