<?xml version="1.0" encoding="UTF-8" standalone="no"?>
<svg
   xmlns:dc="http://purl.org/dc/elements/1.1/"
   xmlns:cc="http://creativecommons.org/ns#"
   xmlns:rdf="http://www.w3.org/1999/02/22-rdf-syntax-ns#"
   xmlns:svg="http://www.w3.org/2000/svg"
   xmlns="http://www.w3.org/2000/svg"
   xmlns:sodipodi="http://sodipodi.sourceforge.net/DTD/sodipodi-0.dtd"
   xmlns:inkscape="http://www.inkscape.org/namespaces/inkscape"
   version="1.1"
   width="791.48932"
   height="791.48932"
   id="svg29062"
   viewBox="0 0 791.48933 791.48926"
   sodipodi:docname="R-33.svg"
   inkscape:version="1.0.2 (e86c870879, 2021-01-15)">
  <metadata
     id="metadata29068">
    <rdf:RDF>
      <cc:Work
         rdf:about="">
        <dc:format>image/svg+xml</dc:format>
        <dc:type
           rdf:resource="http://purl.org/dc/dcmitype/StillImage" />
        <dc:title />
      </cc:Work>
    </rdf:RDF>
  </metadata>
  <defs
     id="defs29066" />
  <sodipodi:namedview
     pagecolor="#ffffff"
     bordercolor="#666666"
     borderopacity="1"
     objecttolerance="10"
     gridtolerance="10"
     guidetolerance="10"
     inkscape:pageopacity="0"
     inkscape:pageshadow="2"
     inkscape:window-width="1920"
     inkscape:window-height="1016"
     id="namedview29064"
     showgrid="false"
     inkscape:zoom="0.049253423"
     inkscape:cx="4082.3338"
     inkscape:cy="3597.1172"
     inkscape:window-x="0"
     inkscape:window-y="27"
     inkscape:window-maximized="1"
     inkscape:current-layer="svg29062"
     showguides="false"
     inkscape:document-rotation="0" />
  <g
     id="Layer1044"
     transform="matrix(65.957993,0,0,65.957993,-4235.5255,-2888.9073)">
    <path
       d="m 70.2154,44.9992 c 2.6505,0 4.8,2.1495 4.8,4.8 0,2.6505 -2.1495,4.8 -4.8,4.8 -2.6505,0 -4.7999,-2.1495 -4.7999,-4.8 0,-2.6505 2.1494,-4.8 4.7999,-4.8 z m 6,4.8 c 0,-3.3131 -2.6868,-6 -6,-6 -3.3131,0 -5.9999,2.6869 -5.9999,6 0,3.3131 2.6868,5.9999 5.9999,5.9999 3.3132,0 6,-2.6868 6,-5.9999 z"
       style="fill:#ff0000;fill-rule:evenodd"
       id="path27759" />
    <g
       id="Layer1045">
      <path
         d="m 72.3615,47.7506 -0.0028,-0.0018 0.0158,-0.0268 6e-4,-0.0011 0.0011,-4e-4 0.027,-0.01 0.001,-4e-4 0.0011,3e-4 0.028,0.0092 -0.001,0.0033 0.002,-0.0028 1.5788,1.2325 -0.002,0.0027 0.0026,-0.0021 0.0507,0.0663 5e-4,7e-4 1e-4,9e-4 0.0132,0.0829 1e-4,9e-4 -3e-4,8e-4 -0.0262,0.0792 -2e-4,8e-4 -7e-4,6e-4 -0.0604,0.0562 -7e-4,6e-4 -8e-4,2e-4 -0.0778,0.0175 -6e-4,-0.0034 -1e-4,0.0035 -0.6266,-0.0247 0.0735,0.3964 1e-4,3e-4 v 1e-4 l 0.0253,0.4081 v 2e-4 3e-4 l -0.0236,0.408 h -1e-4 v 4e-4 l -0.0717,0.4016 v 2e-4 l -1e-4,2e-4 -0.118,0.3887 h -1e-4 l -1e-4,4e-4 -0.1644,0.3703 -2e-4,3e-4 v 1e-4 l -0.2073,0.3453 -1e-4,2e-4 -1e-4,2e-4 -0.2459,0.315 -2e-4,2e-4 -1e-4,10e-5 -0.2815,0.281 h -1e-4 l -3e-4,2e-4 -0.3132,0.2414 -0.0019,-0.0028 -0.0018,0.0029 -0.6883,-0.4956 0.0018,-0.0028 -0.0018,-0.0029 0.3295,-0.2356 0.2953,-0.2817 0.2543,-0.3229 0.2079,-0.3577 0.1591,-0.3847 0.1056,-0.4038 0.0506,-0.4167 -0.0051,-0.4122 -0.4607,0.4535 -0.0022,-0.0025 0.0016,0.003 -0.0701,0.0405 -8e-4,5e-4 h -8e-4 l -0.0796,-10e-4 h -9e-4 l -7e-4,-5e-4 -0.0699,-0.0414 -8e-4,-4e-4 -4e-4,-8e-4 -0.0412,-0.0719 -4e-4,-8e-4 -1e-4,-9e-4 -0.0026,-0.0847 0.0033,-1e-4 -0.0032,-7e-4 0.4269,-2.0208 z"
         style="fill:#000000;fill-rule:evenodd"
         id="path27761" />
      <path
         d="m 69.4864,48.3345 10e-4,0.0033 -1.8745,0.6208 -10e-4,-0.0033 -1e-4,0.0035 -0.0297,-9e-4 -0.0011,-1e-4 -9e-4,-8e-4 -0.0227,-0.0202 -9e-4,-8e-4 -2e-4,-0.0011 -0.0062,-0.0304 0.0032,-7e-4 -0.0032,-4e-4 0.2239,-2.0569 0.0032,4e-4 -0.003,-0.0013 0.0289,-0.0782 3e-4,-9e-4 6e-4,-5e-4 0.0613,-0.0534 6e-4,-6e-4 9e-4,-1e-4 0.0786,-0.0157 9e-4,-2e-4 8e-4,3e-4 0.076,0.0267 8e-4,3e-4 6e-4,6e-4 0.0534,0.0618 -0.0024,0.0023 0.0029,-0.0016 0.2929,0.5838 0.2898,-0.2643 2e-4,-2e-4 h 2e-4 l 0.3218,-0.2276 2e-4,-1e-4 2e-4,-1e-4 0.3473,-0.1824 1e-4,-1e-4 h 2e-4 l 0.3657,-0.1354 2e-4,-1e-4 2e-4,-10e-5 0.3795,-0.0865 2e-4,-1e-4 h 2e-4 l 0.3858,-0.0351 h 1e-4 3e-4 l 0.3875,0.0158 h 2e-4 2e-4 l 0.3831,0.0672 2e-4,1e-4 h 2e-4 l 0.3709,0.117 2e-4,1e-4 h 2e-4 l 0.355,0.1649 -0.0013,0.0032 0.0033,2e-4 -0.063,0.8751 -0.0032,-2e-4 -0.0015,0.0031 -0.3584,-0.1833 -0.3798,-0.1278 -0.3924,-0.07 -0.3975,-0.012 -0.3959,0.048 -0.3852,0.1058 -0.3679,0.1619 -0.3354,0.2105 0.6026,0.193 -9e-4,0.0033 0.0017,-0.003 0.0682,0.0442 7e-4,5e-4 4e-4,8e-4 0.0394,0.0736 3e-4,8e-4 1e-4,9e-4 8e-4,0.0838 v 9e-4 l -4e-4,8e-4 -0.0393,0.0738 -4e-4,7e-4 -7e-4,5e-4 -0.0674,0.0451 z"
         style="fill:#000000;fill-rule:evenodd"
         id="path27763" />
      <path
         d="m 69.3745,51.3189 0.0022,-0.0026 1.4476,1.4001 -0.0022,0.0026 0.0028,-0.0017 0.0139,0.0278 5e-4,10e-4 -10e-5,0.0011 -0.0042,0.0303 -2e-4,0.0012 -9e-4,8e-4 -0.0219,0.0212 -0.0022,-0.0025 0.0013,0.0031 -1.8027,0.8234 -0.0013,-0.0031 5e-4,0.0034 -0.0796,0.0129 -8e-4,10e-5 -8e-4,-3e-4 -0.0744,-0.0285 -8e-4,-3e-4 -6e-4,-7e-4 -0.0525,-0.0645 -6e-4,-7e-4 -1e-4,-8e-4 -0.0157,-0.082 -2e-4,-9e-4 3e-4,-8e-4 0.0245,-0.0811 0.0031,10e-4 -0.0027,-0.0018 0.3336,-0.5581 -0.3635,-0.1322 h -2e-4 l -2e-4,-1e-4 -0.3472,-0.1807 -2e-4,-10e-5 -1e-4,-1e-4 -0.3237,-0.2256 -2e-4,-10e-5 -1e-4,-1e-4 -0.2948,-0.2653 -2e-4,-2e-4 -1e-4,-1e-4 -0.2598,-0.3031 -2e-4,-2e-4 v -10e-5 l -0.2222,-0.3352 v -1e-4 l -2e-4,-3e-4 -0.181,-0.3611 -2e-4,-4e-4 v 0 l -0.1365,-0.3823 -10e-5,-1e-4 v -3e-4 l -0.0893,-0.398 v -2e-4 -2e-4 l -0.0419,-0.4062 0.0032,-3e-4 -0.0014,-0.0031 0.7513,-0.3795 0.0014,0.0031 0.0033,-3e-4 0.0288,0.4189 0.0839,0.4095 0.1388,0.3936 0.1897,0.369 0.2367,0.3368 0.2796,0.299 0.3164,0.2539 0.3414,0.2006 -0.1426,-0.6465 0.0032,-7e-4 -0.0033,-1e-4 0.0025,-0.0839 v -9e-4 l 5e-4,-8e-4 0.0403,-0.0726 4e-4,-8e-4 7e-4,-4e-4 0.0692,-0.0424 7e-4,-5e-4 h 8e-4 l 0.0795,-0.0019 h 8e-4 l 8e-4,4e-4 0.071,0.0396 z"
         style="fill:#000000;fill-rule:evenodd"
         id="path27765" />
    </g>
  </g>
</svg>
