<?xml version="1.0" encoding="UTF-8" standalone="no"?>
<svg
   xmlns:dc="http://purl.org/dc/elements/1.1/"
   xmlns:cc="http://creativecommons.org/ns#"
   xmlns:rdf="http://www.w3.org/1999/02/22-rdf-syntax-ns#"
   xmlns:svg="http://www.w3.org/2000/svg"
   xmlns="http://www.w3.org/2000/svg"
   xmlns:sodipodi="http://sodipodi.sourceforge.net/DTD/sodipodi-0.dtd"
   xmlns:inkscape="http://www.inkscape.org/namespaces/inkscape"
   version="1.1"
   width="791.48932"
   height="791.48932"
   id="svg29062"
   viewBox="0 0 791.48933 791.48926"
   sodipodi:docname="R-34.svg"
   inkscape:version="1.0.2 (e86c870879, 2021-01-15)">
  <metadata
     id="metadata29068">
    <rdf:RDF>
      <cc:Work
         rdf:about="">
        <dc:format>image/svg+xml</dc:format>
        <dc:type
           rdf:resource="http://purl.org/dc/dcmitype/StillImage" />
        <dc:title />
      </cc:Work>
    </rdf:RDF>
  </metadata>
  <defs
     id="defs29066" />
  <sodipodi:namedview
     pagecolor="#ffffff"
     bordercolor="#666666"
     borderopacity="1"
     objecttolerance="10"
     gridtolerance="10"
     guidetolerance="10"
     inkscape:pageopacity="0"
     inkscape:pageshadow="2"
     inkscape:window-width="1920"
     inkscape:window-height="1016"
     id="namedview29064"
     showgrid="false"
     inkscape:zoom="0.049253423"
     inkscape:cx="3134.2206"
     inkscape:cy="3226.5176"
     inkscape:window-x="0"
     inkscape:window-y="27"
     inkscape:window-maximized="1"
     inkscape:current-layer="svg29062"
     showguides="false"
     inkscape:document-rotation="0" />
  <g
     id="Layer1046"
     transform="matrix(65.957993,0,0,65.957993,-5183.6387,-2888.9073)">
    <path
       d="m 84.5899,44.9992 c -2.6505,0 -4.7999,2.1495 -4.7999,4.8 0,2.6505 2.1494,4.8 4.7999,4.8 2.6505,0 4.8,-2.1495 4.8,-4.8 0,-2.6505 -2.1495,-4.8 -4.8,-4.8 z m -5.9999,4.8 c 0,-3.3131 2.6868,-6 5.9999,-6 3.3132,0 6,2.6869 6,6 0,3.3131 -2.6868,5.9999 -6,5.9999 -3.3131,0 -5.9999,-2.6868 -5.9999,-5.9999 z"
       style="fill:#ff0000;fill-rule:evenodd"
       id="path27769" />
    <path
       d="m 84.5412,50.9581 0.1581,0.3347 c 0.1258,-0.0673 0.2115,-0.1984 0.2115,-0.3486 0,-0.2184 -0.1812,-0.3966 -0.4033,-0.3966 -0.2221,0 -0.4032,0.1782 -0.4032,0.3966 0,0.2184 0.1811,0.3965 0.4032,0.3965 0.0508,0 0.0994,-0.0094 0.1443,-0.0263 l -0.1599,-0.3369 c -0.0125,-0.0057 -0.0211,-0.0181 -0.0211,-0.0325 0,-0.0197 0.0163,-0.0358 0.0364,-0.0358 0.0201,0 0.0365,0.0161 0.0365,0.0358 0,0.0046 -9e-4,0.009 -0.0025,0.0131 z m -2.4239,0.0258 c -0.1861,0 -0.337,-0.1484 -0.337,-0.3314 0,-0.153 0.1054,-0.2817 0.2486,-0.3199 l 0.3165,-0.7045 c -0.0876,-0.0216 -0.1791,-0.0331 -0.2733,-0.0331 -0.6224,0 -1.13,0.4992 -1.13,1.1112 0,0.6119 0.5076,1.111 1.13,1.111 0.6223,0 1.1299,-0.4991 1.1299,-1.111 0,-0.4291 -0.2495,-0.8026 -0.6131,-0.9876 l -0.2944,0.6519 c 0.0959,0.0584 0.1599,0.1629 0.1599,0.282 0,0.183 -0.1509,0.3314 -0.3371,0.3314 z m -0.0452,-1.6666 c -0.778,0 -1.4124,0.6239 -1.4124,1.3889 0,0.7649 0.6344,1.3888 1.4124,1.3888 0.7779,0 1.4124,-0.6239 1.4124,-1.3888 0,-0.542 -0.3185,-1.0131 -0.7808,-1.2417 l 0.1267,-0.2806 1.303,1.3701 c -0.1056,0.0979 -0.1717,0.2367 -0.1717,0.3902 0,0.2956 0.2452,0.5367 0.5458,0.5367 0.0724,0 0.1414,-0.014 0.2047,-0.0393 l 0.0702,0.148 -0.1164,0.0501 c -0.0272,0.014 -0.0095,0.0577 0.0213,0.0478 l 0.1396,-0.0602 c 0.0154,-0.0054 0.0183,-0.0262 0.0114,-0.0403 l -0.0789,-0.1669 c 0.0017,-9e-4 0.0034,-0.0017 0.005,-0.0026 l 1.1702,-0.199 c 0.2081,0.5127 0.7185,0.8765 1.3126,0.8765 0.7779,0 1.4124,-0.6239 1.4124,-1.3888 0,-0.765 -0.6345,-1.3889 -1.4124,-1.3889 -0.1451,0 -0.2852,0.0217 -0.4171,0.062 l -0.421,-1.1458 v -2e-4 l 0.1984,-0.286 h 0.2947 c 0.1805,-0.0031 0.1502,-0.338 -0.0461,-0.3144 l -0.7335,0.0486 c -0.1714,0.0267 -0.1597,0.2627 -0.0086,0.2658 h 0.2111 l -0.1206,0.1738 h -2.8983 l 0.335,-0.7483 h 0.518 c 0.1227,0 0.1713,-0.0625 0.1713,-0.1388 v 0 c 0,-0.0764 -0.0486,-0.1389 -0.1713,-0.1389 h -0.3937 -0.2824 l -1.0222,2.2758 C 82.3373,49.336 82.2068,49.3173 82.0721,49.3173 Z m 4.4764,0.1826 c -0.3411,0.192 -0.5936,0.5198 -0.6806,0.9075 h -0.9667 l 1.2638,-1.8221 z m -0.7044,1.0477 c -0.0061,0.0521 -0.0093,0.1049 -0.0093,0.1586 0,0.1311 0.0186,0.2581 0.0535,0.3785 l -0.9206,0.1476 c 0.0542,-0.0833 0.0857,-0.1822 0.0857,-0.2881 0,-0.1568 -0.069,-0.2983 -0.1786,-0.3966 z m 1.4031,-0.9526 c -0.1114,0 -0.2192,0.0161 -0.321,0.0459 l 0.2867,0.7801 c 0.0099,-10e-4 -0.0565,-0.0015 0.0301,-0.0015 0.0866,0 0.2961,0.1308 0.2961,0.2911 0,0.1603 -0.133,0.2911 -0.2961,0.2911 -0.0113,0 -0.0225,-6e-4 -0.0335,-0.0019 v 0.0019 l -0.9888,0.1682 c 0.1793,0.3815 0.5723,0.6473 1.0265,0.6473 0.6223,0 1.1299,-0.4991 1.1299,-1.111 0,-0.612 -0.5076,-1.1112 -1.1299,-1.1112 z m -0.59,0.1643 c -0.2397,0.1451 -0.4207,0.3757 -0.4983,0.6481 h 0.77 z m -0.5284,0.7883 c -0.0076,0.0518 -0.0115,0.1047 -0.0115,0.1586 0,0.1161 0.0182,0.2281 0.0521,0.3335 l 0.8519,-0.1366 c -0.0462,-0.0514 -0.0743,-0.1255 -0.0743,-0.1925 0,-0.067 0.0188,-0.1164 0.0509,-0.163 z m -3.2083,-1.565 h 8e-4 l 1.3895,1.461 c 0.0611,-0.0234 0.1274,-0.0362 0.1967,-0.0362 h 0.1113 l 1.3931,-2.0086 h -2.83 z m 4.2893,1.4387 h -3e-4 v 10e-5 c 10e-5,0 2e-4,-10e-5 3e-4,-10e-5 z"
       style="fill:#000000;fill-rule:evenodd"
       id="path27771" />
  </g>
</svg>
