<?xml version="1.0" encoding="UTF-8" standalone="no"?>
<svg
   xmlns:dc="http://purl.org/dc/elements/1.1/"
   xmlns:cc="http://creativecommons.org/ns#"
   xmlns:rdf="http://www.w3.org/1999/02/22-rdf-syntax-ns#"
   xmlns:svg="http://www.w3.org/2000/svg"
   xmlns="http://www.w3.org/2000/svg"
   xmlns:sodipodi="http://sodipodi.sourceforge.net/DTD/sodipodi-0.dtd"
   xmlns:inkscape="http://www.inkscape.org/namespaces/inkscape"
   version="1.1"
   width="791.48932"
   height="791.48932"
   id="svg29062"
   viewBox="0 0 791.48933 791.48926"
   sodipodi:docname="R-35a.svg"
   inkscape:version="1.0.2 (e86c870879, 2021-01-15)">
  <metadata
     id="metadata29068">
    <rdf:RDF>
      <cc:Work
         rdf:about="">
        <dc:format>image/svg+xml</dc:format>
        <dc:type
           rdf:resource="http://purl.org/dc/dcmitype/StillImage" />
        <dc:title />
      </cc:Work>
    </rdf:RDF>
  </metadata>
  <defs
     id="defs29066" />
  <sodipodi:namedview
     pagecolor="#ffffff"
     bordercolor="#666666"
     borderopacity="1"
     objecttolerance="10"
     gridtolerance="10"
     guidetolerance="10"
     inkscape:pageopacity="0"
     inkscape:pageshadow="2"
     inkscape:window-width="1920"
     inkscape:window-height="1016"
     id="namedview29064"
     showgrid="false"
     inkscape:zoom="0.049253423"
     inkscape:cx="2251.551"
     inkscape:cy="3226.5175"
     inkscape:window-x="0"
     inkscape:window-y="27"
     inkscape:window-maximized="1"
     inkscape:current-layer="svg29062"
     showguides="false"
     inkscape:document-rotation="0" />
  <g
     id="Layer1003"
     transform="matrix(65.957993,0,0,65.957993,-6066.3083,-2888.9073)">
    <path
       d="m 97.9723,45.0492 c 2.6229,0 4.75,2.1271 4.75,4.75 0,2.6229 -2.1271,4.75 -4.75,4.75 -2.6229,0 -4.75,-2.1271 -4.75,-4.75 0,-2.6229 2.1271,-4.75 4.75,-4.75 z m 5.9999,4.75 c 0,-3.3131 -2.6868,-6 -5.9999,-6 -3.3131,0 -6,2.6869 -6,6 0,3.3131 2.6869,5.9999 6,5.9999 3.3131,0 5.9999,-2.6868 5.9999,-5.9999 z"
       style="fill:#ff0000;fill-rule:evenodd"
       id="path27082" />
    <path
       d="m 101.3409,49.5811 v 0.0035 h 0.5962 v 0.9516 h -0.5962 v 0.0034 l -0.003,0.0013 0.2018,0.4839 0.0118,0.0826 -0.0298,0.0768 -0.0632,0.0533 -0.0812,0.0153 -0.0782,-0.0264 -1.7379,-1.1284 -0.0174,-0.0236 v -0.029 l 0.0174,-0.0226 1.7379,-1.1295 0.0782,-0.0254 0.0812,0.0153 0.0632,0.0524 0.0298,0.0767 -0.0118,0.0826 -0.2018,0.4849 z"
       style="fill:#000000;fill-rule:evenodd"
       id="path27084" />
    <path
       d="m 97.6827,46.9022 h -1.032 c -0.407,0.1865 -0.7354,0.5071 -0.759,1.1983 v 0.42 c 0,0.099 0.081,0.18 0.18,0.18 v 0 c 0.099,0 0.18,-0.081 0.18,-0.18 v -0.42 c -7e-4,-0.2383 0.0743,-0.4312 0.2249,-0.5787 v 1.1799 h -0.5849 v 0.15 h 0.5849 v 0.308 c -0.0404,-0.0309 -0.0908,-0.0493 -0.1453,-0.0493 v 0 c -0.132,0 -0.24,0.108 -0.24,0.24 v 1.44 c 0,0.1235 0.0946,0.226 0.2149,0.2386 h -0.2111 v 0.15 h 0.48 v -0.15 h -0.2187 c 0.1203,-0.0126 0.2149,-0.1151 0.2149,-0.2386 v -0.8731 c 3e-4,-0.0043 0.0048,-0.0151 0.0134,-0.0075 l 0.4391,0.2492 c 0.0438,0.0296 0.0437,0.0768 1e-4,0.0974 -0.0034,0.0016 -0.3486,0.0847 -0.4471,0.3507 v 0 1.1711 c 0,0.0412 0.0338,0.075 0.075,0.075 v 0 c 0.0413,0 0.075,-0.0338 0.075,-0.075 v -1.1711 c 0.2857,-0.3314 0.5906,-0.2787 0.832,-0.0075 v 0 1.5519 c 0,0.0721 0.0322,0.1371 0.0831,0.1812 l -0.1431,0.0741 v 0.1953 h 0.6 v -0.1953 l -0.1411,-0.0759 c 0.0496,-0.0441 0.0811,-0.1083 0.0811,-0.1794 V 50.028 c 0,-0.112 -0.0778,-0.2067 -0.182,-0.2328 v -0.9435 h 0.5849 v -0.15 h -0.5849 v -0.9363 c 0.1096,0.0843 0.1503,0.1803 0.1555,0.3351 v 0.3907 c 0,0.099 0.1065,0.2093 0.2055,0.2093 v 0 c 0.099,0 0.2239,-0.1103 0.2239,-0.2093 V 48.052 c -0.0108,-0.5326 -0.4386,-1.0035 -0.759,-1.1498 z m -0.5372,3.4799 v 0 c -0.099,0 -0.18,0.081 -0.18,0.18 v 2.76 c 0,0.099 0.081,0.18 0.18,0.18 v 0 c 0.099,0 0.18,-0.081 0.18,-0.18 v -2.76 c 0,-0.099 -0.081,-0.18 -0.18,-0.18 z m 0.0338,-4.4441 c -0.2478,0 -0.45,0.2021 -0.45,0.45 0,0.2478 0.2022,0.45 0.45,0.45 0.2479,0 0.45,-0.2022 0.45,-0.45 0,-0.2479 -0.2021,-0.45 -0.45,-0.45 z m 0.3562,4.4059 c -0.0532,-0.0454 -0.1131,-0.0784 -0.1546,-0.089 v -0.0982 c 0.0525,0.031 0.0984,0.069 0.1546,0.1872 z"
       style="fill:#000000;fill-rule:evenodd;stroke:#1b1918;stroke-width:0.216;stroke-linecap:butt;stroke-linejoin:miter;stroke-dasharray:none"
       id="path27086" />
  </g>
</svg>
