<?xml version="1.0" encoding="UTF-8" standalone="no"?>
<svg
   xmlns:dc="http://purl.org/dc/elements/1.1/"
   xmlns:cc="http://creativecommons.org/ns#"
   xmlns:rdf="http://www.w3.org/1999/02/22-rdf-syntax-ns#"
   xmlns:svg="http://www.w3.org/2000/svg"
   xmlns="http://www.w3.org/2000/svg"
   xmlns:sodipodi="http://sodipodi.sourceforge.net/DTD/sodipodi-0.dtd"
   xmlns:inkscape="http://www.inkscape.org/namespaces/inkscape"
   version="1.1"
   width="791.48932"
   height="791.48932"
   id="svg29062"
   viewBox="0 0 791.48933 791.48926"
   sodipodi:docname="R-35b.svg"
   inkscape:version="1.0.2 (e86c870879, 2021-01-15)">
  <metadata
     id="metadata29068">
    <rdf:RDF>
      <cc:Work
         rdf:about="">
        <dc:format>image/svg+xml</dc:format>
        <dc:type
           rdf:resource="http://purl.org/dc/dcmitype/StillImage" />
        <dc:title />
      </cc:Work>
    </rdf:RDF>
  </metadata>
  <defs
     id="defs29066" />
  <sodipodi:namedview
     pagecolor="#ffffff"
     bordercolor="#666666"
     borderopacity="1"
     objecttolerance="10"
     gridtolerance="10"
     guidetolerance="10"
     inkscape:pageopacity="0"
     inkscape:pageshadow="2"
     inkscape:window-width="1920"
     inkscape:window-height="1016"
     id="namedview29064"
     showgrid="false"
     inkscape:zoom="0.049253423"
     inkscape:cx="1314.3341"
     inkscape:cy="5297.0363"
     inkscape:window-x="0"
     inkscape:window-y="27"
     inkscape:window-maximized="1"
     inkscape:current-layer="svg29062"
     showguides="false"
     inkscape:document-rotation="0" />
  <g
     id="Layer1002"
     transform="matrix(65.957993,0,0,65.957993,-7003.5252,-2888.9073)">
    <path
       d="m 112.1815,45.0492 c -2.6229,0 -4.7499,2.1271 -4.7499,4.75 0,2.6229 2.127,4.75 4.7499,4.75 2.6229,0 4.75,-2.1271 4.75,-4.75 0,-2.6229 -2.1271,-4.75 -4.75,-4.75 z m -5.9999,4.75 c 0,-3.3131 2.6868,-6 5.9999,-6 3.3131,0 6,2.6869 6,6 0,3.3131 -2.6869,5.9999 -6,5.9999 -3.3131,0 -5.9999,-2.6868 -5.9999,-5.9999 z"
       style="fill:#ff0000;fill-rule:evenodd"
       id="path27075" />
    <path
       d="m 108.6603,49.5255 v 0.0035 h -0.5962 v 0.9516 h 0.5962 v 0.0034 l 0.003,0.0013 -0.2019,0.4839 -0.0117,0.0826 0.0298,0.0768 0.0632,0.0533 0.0812,0.0153 0.0781,-0.0264 1.738,-1.1284 0.0174,-0.0236 v -0.029 l -0.0174,-0.0226 -1.738,-1.1295 -0.0781,-0.0254 -0.0812,0.0153 -0.0632,0.0524 -0.0298,0.0767 0.0117,0.0826 0.2019,0.4849 z"
       style="fill:#000000;fill-rule:evenodd"
       id="path27077" />
    <path
       d="m 112.3185,46.8466 h 1.032 c 0.4071,0.1865 0.7355,0.5071 0.759,1.1983 v 0.42 c 0,0.099 -0.081,0.18 -0.18,0.18 v 0 c -0.099,0 -0.18,-0.081 -0.18,-0.18 v -0.42 c 7e-4,-0.2383 -0.0742,-0.4312 -0.2248,-0.5787 v 1.1799 h 0.5848 v 0.15 h -0.5848 v 0.308 c 0.0404,-0.0309 0.0908,-0.0493 0.1453,-0.0493 v 0 c 0.132,0 0.24,0.108 0.24,0.24 v 1.44 c 0,0.1235 -0.0946,0.226 -0.215,0.2387 h 0.2112 v 0.1499 h -0.48 v -0.1499 h 0.2187 C 113.5246,50.9608 113.43,50.8583 113.43,50.7348 v -0.8731 c -4e-4,-0.0043 -0.005,-0.0151 -0.0134,-0.0075 l -0.4391,0.2492 c -0.0439,0.0296 -0.0438,0.0768 -1e-4,0.0974 0.003,0.0016 0.3485,0.0847 0.447,0.3507 v 0 1.1711 c 0,0.0412 -0.0337,0.075 -0.075,0.075 v 0 c -0.0412,0 -0.075,-0.0338 -0.075,-0.075 v -1.1711 c -0.2856,-0.3314 -0.5906,-0.2787 -0.8319,-0.0075 v 0 1.5519 c 0,0.0721 -0.0323,0.1371 -0.0831,0.1812 l 0.1431,0.0741 v 0.1953 h -0.6 v -0.1953 l 0.1411,-0.0759 c -0.0497,-0.0441 -0.0811,-0.1082 -0.0811,-0.1794 v -2.1235 c 0,-0.112 0.0777,-0.2067 0.1819,-0.2328 v -0.9435 h -0.5848 v -0.15 h 0.5848 v -0.9363 c -0.1095,0.0843 -0.1502,0.1803 -0.1554,0.3351 v 0.3907 c 0,0.099 -0.1066,0.2093 -0.2056,0.2093 v 0 c -0.099,0 -0.2238,-0.1103 -0.2238,-0.2093 v -0.4392 c 0.0108,-0.5326 0.4386,-1.0035 0.7589,-1.1498 z m 0.5373,3.4799 v 0 c 0.099,0 0.18,0.081 0.18,0.18 v 2.76 c 0,0.099 -0.081,0.18 -0.18,0.18 v 0 c -0.099,0 -0.18,-0.081 -0.18,-0.18 v -2.76 c 0,-0.099 0.081,-0.18 0.18,-0.18 z m -0.0339,-4.4441 c 0.2479,0 0.45,0.2021 0.45,0.45 0,0.2478 -0.2021,0.45 -0.45,0.45 -0.2478,0 -0.45,-0.2022 -0.45,-0.45 0,-0.2479 0.2022,-0.45 0.45,-0.45 z m -0.3561,4.4059 c 0.0531,-0.0453 0.113,-0.0784 0.1545,-0.089 v -0.0982 c -0.0525,0.031 -0.0983,0.069 -0.1545,0.1872 z"
       style="fill:#000000;fill-rule:evenodd;stroke:#1b1918;stroke-width:0.216;stroke-linecap:butt;stroke-linejoin:miter;stroke-dasharray:none"
       id="path27079" />
  </g>
</svg>
