<?xml version="1.0" encoding="UTF-8" standalone="no"?>
<svg
   xmlns:dc="http://purl.org/dc/elements/1.1/"
   xmlns:cc="http://creativecommons.org/ns#"
   xmlns:rdf="http://www.w3.org/1999/02/22-rdf-syntax-ns#"
   xmlns:svg="http://www.w3.org/2000/svg"
   xmlns="http://www.w3.org/2000/svg"
   xmlns:sodipodi="http://sodipodi.sourceforge.net/DTD/sodipodi-0.dtd"
   xmlns:inkscape="http://www.inkscape.org/namespaces/inkscape"
   version="1.1"
   width="791.48932"
   height="791.48932"
   id="svg29062"
   viewBox="0 0 791.48933 791.48926"
   sodipodi:docname="R-36a.svg"
   inkscape:version="1.0.2 (e86c870879, 2021-01-15)">
  <metadata
     id="metadata29068">
    <rdf:RDF>
      <cc:Work
         rdf:about="">
        <dc:format>image/svg+xml</dc:format>
        <dc:type
           rdf:resource="http://purl.org/dc/dcmitype/StillImage" />
        <dc:title />
      </cc:Work>
    </rdf:RDF>
  </metadata>
  <defs
     id="defs29066" />
  <sodipodi:namedview
     pagecolor="#ffffff"
     bordercolor="#666666"
     borderopacity="1"
     objecttolerance="10"
     gridtolerance="10"
     guidetolerance="10"
     inkscape:pageopacity="0"
     inkscape:pageshadow="2"
     inkscape:window-width="1920"
     inkscape:window-height="1016"
     id="namedview29064"
     showgrid="false"
     inkscape:zoom="0.049253423"
     inkscape:cx="377.12372"
     inkscape:cy="8078.3405"
     inkscape:window-x="0"
     inkscape:window-y="27"
     inkscape:window-maximized="1"
     inkscape:current-layer="svg29062"
     showguides="false"
     inkscape:document-rotation="0" />
  <g
     id="Layer1047"
     transform="matrix(65.957993,0,0,65.957993,-7940.7355,-2888.9073)">
    <path
       d="m 126.3908,45.0492 c 2.6228,0 4.7499,2.1271 4.7499,4.75 0,2.6229 -2.1271,4.75 -4.7499,4.75 -2.6229,0 -4.75,-2.1271 -4.75,-4.75 0,-2.6229 2.1271,-4.75 4.75,-4.75 z m 5.9999,4.75 c 0,-3.3131 -2.6868,-6 -5.9999,-6 -3.3132,0 -6,2.6869 -6,6 0,3.3131 2.6868,5.9999 6,5.9999 3.3131,0 5.9999,-2.6868 5.9999,-5.9999 z"
       style="fill:#ff0000;fill-rule:evenodd"
       id="path27774" />
    <path
       d="m 124.3322,47.7274 h -0.7859 c -0.3099,0.1421 -0.56,0.3862 -0.5779,0.9125 v 0.3198 c 0,0.0754 0.0617,0.1371 0.137,0.1371 v 0 c 0.0754,0 0.1371,-0.0617 0.1371,-0.1371 v -0.3198 c -5e-4,-0.1815 0.0566,-0.3283 0.1713,-0.4407 v 0.8985 h -0.4454 v 0.1142 h 0.4454 v 0.2346 c -0.0308,-0.0236 -0.0692,-0.0376 -0.1107,-0.0376 v 0 c -0.1005,0 -0.1828,0.0823 -0.1828,0.1828 v 1.0965 c 0,0.0941 0.0721,0.1721 0.1637,0.1818 h -0.1608 v 0.1142 h 0.3656 V 50.87 h -0.1666 c 0.0916,-0.0097 0.1637,-0.0877 0.1637,-0.1818 v -0.6649 c 2e-4,-0.0032 0.004,-0.0115 0.0101,-0.0057 l 0.3344,0.1898 c 0.0334,0.0226 0.0333,0.0585 1e-4,0.0742 -0.003,0.0012 -0.2654,0.0645 -0.3404,0.267 v 0 0.8918 c 0,0.0314 0.0257,0.0571 0.0571,0.0571 v 0 c 0.0314,0 0.0571,-0.0257 0.0571,-0.0571 v -0.8918 c 0.2175,-0.2523 0.4497,-0.2121 0.6335,-0.0057 v 0 1.1818 c 0,0.0549 0.0246,0.1044 0.0633,0.138 l -0.109,0.0564 v 0.1487 h 0.4569 v -0.1487 l -0.1074,-0.0578 c 0.0378,-0.0336 0.0617,-0.0824 0.0617,-0.1366 v -1.617 c 0,-0.0853 -0.0592,-0.1574 -0.1385,-0.1773 v -0.7185 h 0.4454 v -0.1142 h -0.4454 v -0.713 c 0.0834,0.0642 0.1144,0.1373 0.1183,0.2552 v 0.2975 c 0,0.0754 0.0812,0.1594 0.1566,0.1594 v 0 c 0.0754,0 0.1705,-0.084 0.1705,-0.1594 V 48.603 c -0.008,-0.4056 -0.334,-0.7642 -0.578,-0.8756 z m -0.4091,2.6499 v 0 c -0.0754,0 -0.1371,0.0617 -0.1371,0.1371 v 2.1017 c 0,0.0754 0.0617,0.1371 0.1371,0.1371 v 0 c 0.0754,0 0.1371,-0.0617 0.1371,-0.1371 v -2.1017 c 0,-0.0754 -0.0617,-0.1371 -0.1371,-0.1371 z m 0.0258,-3.3841 c -0.1888,0 -0.3427,0.1539 -0.3427,0.3426 0,0.1888 0.1539,0.3427 0.3427,0.3427 0.1887,0 0.3426,-0.1539 0.3426,-0.3427 0,-0.1887 -0.1539,-0.3426 -0.3426,-0.3426 z m 0.2712,3.355 c -0.0405,-0.0345 -0.0861,-0.0597 -0.1177,-0.0678 v -0.0747 c 0.04,0.0236 0.0749,0.0525 0.1177,0.1425 z"
       style="fill:#000000;fill-rule:evenodd"
       id="path27776" />
    <path
       d="m 128.3759,49.2441 0.2092,-0.4826 0.002,1.1833 -0.1833,1.8731 0.002,3e-4 c -0.007,0.2329 0.3925,0.3876 0.4748,0.0552 l -0.002,-7e-4 0.002,2e-4 0.2078,-1.7945 0.1006,2.0849 0.002,-10e-5 -0.002,6e-4 c 0.0625,0.2304 0.3631,0.2214 0.407,-0.0133 l -0.002,-4e-4 h 0.002 v -3.3534 l 0.1348,0.6774 -0.008,0.4417 0.002,-2e-4 -0.002,4e-4 c 0.0427,0.2094 0.2964,0.2152 0.3638,0.0181 v -5e-4 l -0.002,-0.0179 0.003,-4e-4 c -0.0971,-0.9061 -0.1162,-1.5189 -0.3086,-1.6912 -0.5272,-0.3858 -1.2891,-0.1961 -1.3649,-0.0138 l 0.001,0.002 -0.002,-8e-4 -0.3559,0.8709 -0.004,0.8092 v 0 l 0.009,0.0845 1e-4,6e-4 3e-4,5e-4 c 0.1071,0.1498 0.2416,0.1352 0.3176,-0.0316 l 3e-4,-6e-4 -1e-4,-6e-4 -1e-4,-0.0013 h 1e-4 z"
       style="fill:#000000;fill-rule:evenodd"
       id="path27778" />
    <path
       d="m 128.711,47.5483 v 3e-4 4e-4 c 0.0401,0.2505 0.1612,0.3373 0.3703,0.3709 h 4e-4 3e-4 c 0.2447,-0.039 0.3337,-0.1415 0.3703,-0.3709 v -4e-4 -3e-4 c -0.0403,-0.2513 -0.161,-0.337 -0.3703,-0.3703 l -3e-4,-10e-5 -4e-4,10e-5 c -0.2088,0.0335 -0.3301,0.12 -0.3703,0.3703 z"
       style="fill:#000000;fill-rule:evenodd"
       id="path27780" />
    <path
       d="m 126.3321,47.178 h 0.3348 v 5.0669 h -0.3348 z"
       style="fill:#000000;fill-rule:evenodd"
       id="path27782" />
  </g>
</svg>
