<?xml version="1.0" encoding="UTF-8" standalone="no"?>
<svg
   xmlns:dc="http://purl.org/dc/elements/1.1/"
   xmlns:cc="http://creativecommons.org/ns#"
   xmlns:rdf="http://www.w3.org/1999/02/22-rdf-syntax-ns#"
   xmlns:svg="http://www.w3.org/2000/svg"
   xmlns="http://www.w3.org/2000/svg"
   xmlns:sodipodi="http://sodipodi.sourceforge.net/DTD/sodipodi-0.dtd"
   xmlns:inkscape="http://www.inkscape.org/namespaces/inkscape"
   version="1.1"
   width="791.48932"
   height="791.48932"
   id="svg29062"
   viewBox="0 0 791.48933 791.48926"
   sodipodi:docname="R-37.svg"
   inkscape:version="1.0.2 (e86c870879, 2021-01-15)">
  <metadata
     id="metadata29068">
    <rdf:RDF>
      <cc:Work
         rdf:about="">
        <dc:format>image/svg+xml</dc:format>
        <dc:type
           rdf:resource="http://purl.org/dc/dcmitype/StillImage" />
        <dc:title />
      </cc:Work>
    </rdf:RDF>
  </metadata>
  <defs
     id="defs29066" />
  <sodipodi:namedview
     pagecolor="#ffffff"
     bordercolor="#666666"
     borderopacity="1"
     objecttolerance="10"
     gridtolerance="10"
     guidetolerance="10"
     inkscape:pageopacity="0"
     inkscape:pageshadow="2"
     inkscape:window-width="1920"
     inkscape:window-height="1016"
     id="namedview29064"
     showgrid="false"
     inkscape:zoom="0.049253423"
     inkscape:cx="-1497.2837"
     inkscape:cy="3973.4151"
     inkscape:window-x="0"
     inkscape:window-y="27"
     inkscape:window-maximized="1"
     inkscape:current-layer="svg29062"
     showguides="false"
     inkscape:document-rotation="0" />
  <g
     id="Layer1001"
     transform="matrix(65.957993,0,0,65.957993,-9815.143,-2888.9073)">
    <path
       d="m 154.8089,44.9992 c -2.6505,0 -4.7999,2.1495 -4.7999,4.8 0,2.6505 2.1494,4.8 4.7999,4.8 2.6505,0 4.8,-2.1495 4.8,-4.8 0,-2.6505 -2.1495,-4.8 -4.8,-4.8 z m -5.9999,4.8 c 0,-3.3131 2.6868,-6 5.9999,-6 3.3131,0 6,2.6869 6,6 0,3.3131 -2.6869,5.9999 -6,5.9999 -3.3131,0 -5.9999,-2.6868 -5.9999,-5.9999 z"
       style="fill:#ff0000;fill-rule:evenodd"
       id="path27064" />
    <path
       d="m 155.825,47.97 c -0.0755,-0.062 -0.0362,-0.102 -0.0899,-0.1954 -0.0367,0.0637 -0.1587,0.0265 -0.1648,0.0204 -0.0293,-0.0568 -0.0253,-0.2065 -0.0177,-0.2752 0.0105,-0.0941 0.1505,-0.2168 0.2432,0.2017 l 0.0451,0.1796 c 0.007,0.1172 0.009,0.0273 -0.0159,0.0689 z m 0.7515,1.5625 -0.1179,-0.2064 c -0.0231,-0.0424 -0.0284,-0.0498 -0.0192,-0.0673 l -0.0175,0.0519 c 0.0612,0.1361 0.1362,0.2539 0.1928,0.3818 l -0.1429,0.0822 c -0.1812,-0.2441 -0.2132,-0.1067 -0.3321,0.0234 -0.2788,0.305 -0.1731,0.3022 -0.3205,0.5398 0.0624,0.1489 0.3543,0.2147 -0.0935,0.6646 l -0.3116,0.3182 c -0.0798,0.0718 -0.4981,0.1799 -0.6378,0.1889 -0.2094,0.0134 -0.5324,-0.0762 -0.7548,-0.0912 l -0.4619,0.1031 c -0.0716,0 -0.0268,0.0311 -0.0514,-0.0277 -0.0455,0.2024 -0.2576,0.4302 -0.3754,0.5273 -0.5591,0.4608 -1.4761,0.2583 -1.7788,-0.4339 -0.3847,-0.8796 0.3837,-1.802 1.2965,-1.6104 0.1025,0.0215 0.2928,0.1101 0.3344,0.1143 0.0433,-0.0497 0.0615,-0.0971 0.0845,-0.1578 0.0195,-0.0202 0.0111,-0.0084 0.0131,-0.0424 -0.187,-0.0847 -0.1495,-0.1004 -0.4112,-0.1906 -0.14,-0.0483 -0.3354,-0.1099 -0.4769,-0.1409 -0.008,-0.0947 -0.0494,-0.1592 -0.1196,-0.1749 0.04,0.0462 0.0872,0.0683 0.0948,0.1624 -0.297,-0.0347 -0.4625,0.0719 -0.6922,0.2799 -0.0475,0.0429 -0.0825,0.0815 -0.1238,0.1304 -0.0954,0.113 -0.2757,0.3247 -0.4004,0.3649 l 0.5653,-0.8585 c -0.0126,-0.0464 -0.0253,-0.0269 -0.0177,-0.093 l 0.0448,-0.1146 c -0.0581,-0.008 -0.0441,-0.0123 -0.0758,-0.0253 -0.027,-0.0111 -0.0333,-0.0058 -0.0699,-0.0271 -0.1571,-0.0914 -0.145,-0.1525 -0.2136,-0.2506 -0.037,-0.0527 -0.0764,-0.0789 -0.0934,-0.1439 0.1641,-0.0154 0.564,0.1177 0.7557,0.1518 -0.0354,-0.0559 -0.1089,-0.0626 -0.1542,-0.1183 0.0789,-0.0493 0.233,0.0084 0.3317,0.0323 0.1296,0.0314 0.219,0.0379 0.3525,0.052 0.3477,0.0367 0.3483,0.0744 0.5987,0.2125 0.1159,0.0639 0.1363,0.081 0.2929,0.106 0.7234,0.1154 0.6195,-0.0151 1.0037,-0.1432 0.0311,-0.0119 0.0479,-0.0479 0.0733,-0.0771 0.0312,-0.0359 0.0561,-0.0592 0.0914,-0.0888 0.2314,-0.1941 0.5442,-0.2094 0.8434,-0.2254 -0.0753,0.018 -0.048,-0.0145 -0.0504,-0.0275 0.064,-0.0779 0.2568,-0.0715 0.3159,0.0139 l 0.0171,0.0268 c 10e-4,0.0018 0.004,0.0061 0.006,0.0088 0.3993,0.0532 0.2437,-3e-4 0.3608,0.1365 0.0279,-0.0126 0.0525,-0.0257 0.0784,-0.0409 0.003,-0.0019 0.0321,-0.0199 0.0357,-0.0229 0.0252,-0.0208 0.0153,-0.0072 0.0197,-0.0239 l -0.0894,-0.2746 c -0.0312,-0.0619 0.0101,7e-4 -0.0461,-0.0423 -0.0316,-0.0242 -0.002,0.0147 -0.0294,-0.0248 l -0.0714,-0.0793 c -0.0679,0.0559 0.0143,0.0482 -0.1621,0.0492 -0.0438,-0.0922 -0.0474,-0.0557 -0.1396,-0.0304 -0.1365,0.0374 -0.0535,-0.1003 -0.0533,-0.1212 6e-4,-0.0576 -0.0242,-0.0343 -0.004,-0.1033 0.0581,-0.0313 0.0853,0.0014 0.162,-0.0322 0.0824,-0.0362 0.0431,-0.0478 0.1605,-0.0523 l 0.0142,-0.1085 c 0.0311,0.0329 0.0442,0.0887 0.0529,0.1298 0.0524,-0.082 0.0198,-0.0771 0.0161,-0.1822 -0.003,-0.0972 -3e-4,-0.2013 0,-0.2991 -0.0375,-0.0691 -0.0177,0.0055 -0.0515,-0.0622 -0.0247,-0.0497 -0.0148,-0.2724 -0.0149,-0.3337 l 0.0962,0.0076 c 0.0711,0.1578 -0.0375,0.5634 0.0164,0.787 l 0.1414,-0.0098 c 0.0293,0.162 -0.0178,0.1336 0.0955,0.2368 0.0807,0.0735 0.0618,0.0853 0.1057,0.1333 0.033,0.0362 0.016,0.0218 0.0554,0.0433 0.0435,-0.0343 0.0832,-0.1048 0.1126,-0.1506 0.0338,-0.0527 0.0674,-0.1122 0.1122,-0.1412 0.1061,0.0261 0.346,0.2545 0.3661,0.3586 -0.0676,0.0572 -0.1656,0.0759 -0.2249,0.1219 0.0446,0.0173 0.1541,-0.0281 0.2302,-0.0376 0.005,-7e-4 0.0308,-0.0029 0.0366,-0.002 0.0456,0.0066 0.0122,-0.0084 0.0396,0.0185 0.0565,0.1113 -0.0136,0.4915 -0.029,0.6232 l -0.4017,-0.0648 c 0.0215,0.0661 0.1198,0.2491 0.1767,0.3002 0.0992,0.0893 0.0524,0.1404 0.126,0.2653 0.0328,0.0558 0.0789,0.1619 0.1169,0.1929 0.3791,-0.1319 0.7555,-0.1694 1.0994,0.0731 l 0.0499,0.0461 c 0.002,0.0021 0.005,0.0063 0.008,0.0096 l -0.1502,0.0112 c 0.3258,0.1591 0.6275,0.4701 0.6716,0.9444 0.091,0.9793 -0.9798,1.5972 -1.7889,1.0831 -0.1529,-0.0972 -0.2985,-0.2454 -0.3882,-0.4208 -0.1518,-0.2967 -0.113,-0.3585 -0.139,-0.6977 l -0.0409,0.153 c -0.0349,0.0508 0.006,0.0146 -0.0471,0.0347 -0.0226,-0.561 0.2296,-0.9555 0.5468,-1.1482 0.0199,-0.0316 -0.008,-0.0612 -0.0339,-0.1096 -0.0211,-0.0395 -0.0403,-0.0762 -0.0618,-0.1179 -0.0399,-0.0774 -0.0922,-0.1408 -0.1297,-0.2257 z m 0.2636,0.5784 -0.0443,0.0296 c 0.0332,0.0522 0.0174,0.0563 0.0775,0.0341 0.0507,0.0231 0.0249,-0.0014 0.0502,0.0615 l 0.0847,0.1467 c -0.165,0.1528 -0.2657,0.2203 -0.3426,0.4666 -0.133,0.4262 0.0735,0.8848 0.4893,1.0665 0.212,0.0927 0.4528,0.0965 0.6675,0.0152 0.8988,-0.3405 0.6793,-1.7389 -0.3809,-1.6966 l -0.242,0.0539 c -0.001,-0.0013 -0.1389,-0.1654 -0.0928,-0.2437 0.0103,-0.0175 0.0489,-0.0597 -0.007,-0.0721 -0.0391,-0.0086 -0.009,0.013 -0.0529,0.0052 -0.0553,-0.0098 0.0217,-0.0129 -0.0608,-0.0239 -0.0402,0.0169 -0.1085,0.0497 -0.1241,0.0874 z m 0.4672,0.724 c 0.0232,0.0525 0.1065,0.1726 0.1093,0.2085 0.007,0.0951 -0.0256,0.1877 0.1467,0.1671 0.0232,-0.0078 0.163,-0.1013 0.009,-0.2223 -0.0294,-0.0232 -0.0166,-0.0061 -0.0413,-0.0488 l -0.0828,-0.1756 c 0.4723,-0.0084 0.5137,0.5179 0.1952,0.6579 -0.1981,0.0871 -0.3731,-0.0256 -0.438,-0.1416 -0.0886,-0.1581 -0.0332,-0.3905 0.1019,-0.4452 z m -4.5723,-0.0391 0.1158,-0.1627 0.2998,-0.0055 c -0.0904,-0.1745 -0.3707,-0.3581 -0.6411,-0.3848 -0.398,-0.0394 -0.562,0.1647 -0.7277,0.279 0.0254,0.0083 0.031,0.0118 0.0552,0.0178 0.039,0.0096 0.0105,0.0034 0.0508,0.0073 0.0586,0.0056 0.0496,0.002 0.1079,0.0209 0.32,0.1036 0.3598,0.0451 0.7545,0.0581 -0.013,0.0516 -0.0274,0.0967 -0.0591,0.1315 0.0143,0.0177 0.006,0.005 0.0228,0.0199 0.007,0.0065 0.0124,0.0159 0.0138,0.0121 9e-4,-0.0025 0.005,0.004 0.007,0.0064 z m -1.1801,0.1958 c 0.0235,0.1429 -0.0115,0.2271 0.0408,0.3864 0.0351,0.107 0.086,0.195 0.1459,0.2715 0.1076,0.1376 0.2935,0.2789 0.5165,0.3185 0.513,0.091 0.964,-0.2823 1.0132,-0.6361 -0.007,-0.035 0.003,-0.0184 -0.0132,-0.0417 -0.093,-0.0143 -0.2745,-0.0671 -0.3746,-0.0623 l -0.2504,-0.0608 -0.0417,0.0736 c -0.053,0.0749 -0.1321,0.0982 -0.2238,0.0832 -0.1497,-0.0244 -0.1603,-0.1068 -0.199,-0.2406 l -0.2161,-0.0305 c -0.0447,-0.0249 -0.3247,-0.0732 -0.3976,-0.0612 z"
       style="fill:#000000;fill-rule:evenodd"
       id="path27066" />
    <path
       d="m 151.9525,51.0528 c -0.0506,0.2633 0.1396,0.4848 0.3876,0.5243 0.4142,0.066 0.5159,-0.3229 0.5434,-0.3492 0.1001,-0.0048 0.2816,0.048 0.3746,0.0623 0.016,0.0233 0.006,0.0067 0.0132,0.0417 -0.0492,0.3538 -0.5002,0.7271 -1.0132,0.6361 -0.223,-0.0396 -0.4089,-0.1809 -0.5165,-0.3185 -0.0599,-0.0765 -0.1108,-0.1645 -0.1459,-0.2715 -0.0523,-0.1593 -0.0173,-0.2435 -0.0408,-0.3864 0.0729,-0.012 0.3529,0.0363 0.3976,0.0612 z"
       style="fill:#fdfdfd;fill-rule:evenodd"
       id="path27068" />
    <path
       d="m 152.735,50.7958 c -0.002,-0.0024 -0.006,-0.0089 -0.007,-0.0064 -0.001,0.0038 -0.006,-0.0056 -0.0138,-0.0121 -0.0171,-0.0149 -0.008,-0.0022 -0.0228,-0.0199 0.0317,-0.0348 0.0461,-0.0799 0.0591,-0.1315 -0.3947,-0.013 -0.4345,0.0455 -0.7545,-0.0581 -0.0583,-0.0189 -0.0493,-0.0153 -0.1079,-0.0209 -0.0403,-0.0039 -0.0118,0.0023 -0.0508,-0.0073 -0.0242,-0.006 -0.0298,-0.0095 -0.0552,-0.0178 0.1657,-0.1143 0.3297,-0.3184 0.7277,-0.279 0.2704,0.0267 0.5507,0.2103 0.6411,0.3848 l -0.2998,0.0055 z"
       style="fill:#ffffff;fill-rule:evenodd"
       id="path27070" />
    <path
       d="m 158.0364,53.8004 0.7725,-0.7726 -7.2298,-7.2298 -0.7701,0.7726 z"
       style="fill:#ff0000;fill-rule:evenodd;stroke:#ff0000;stroke-width:0.0024;stroke-linecap:butt;stroke-linejoin:miter;stroke-dasharray:none"
       id="path27072" />
  </g>
</svg>
