<?xml version="1.0" encoding="UTF-8" standalone="no"?>
<svg
   xmlns:dc="http://purl.org/dc/elements/1.1/"
   xmlns:cc="http://creativecommons.org/ns#"
   xmlns:rdf="http://www.w3.org/1999/02/22-rdf-syntax-ns#"
   xmlns:svg="http://www.w3.org/2000/svg"
   xmlns="http://www.w3.org/2000/svg"
   xmlns:sodipodi="http://sodipodi.sourceforge.net/DTD/sodipodi-0.dtd"
   xmlns:inkscape="http://www.inkscape.org/namespaces/inkscape"
   version="1.1"
   width="791.48932"
   height="791.48932"
   id="svg29062"
   viewBox="0 0 791.48933 791.48926"
   sodipodi:docname="R-38.svg"
   inkscape:version="1.0.2 (e86c870879, 2021-01-15)">
  <metadata
     id="metadata29068">
    <rdf:RDF>
      <cc:Work
         rdf:about="">
        <dc:format>image/svg+xml</dc:format>
        <dc:type
           rdf:resource="http://purl.org/dc/dcmitype/StillImage" />
        <dc:title />
      </cc:Work>
    </rdf:RDF>
  </metadata>
  <defs
     id="defs29066" />
  <sodipodi:namedview
     pagecolor="#ffffff"
     bordercolor="#666666"
     borderopacity="1"
     objecttolerance="10"
     gridtolerance="10"
     guidetolerance="10"
     inkscape:pageopacity="0"
     inkscape:pageshadow="2"
     inkscape:window-width="1920"
     inkscape:window-height="1016"
     id="namedview29064"
     showgrid="false"
     inkscape:zoom="0.049253423"
     inkscape:cx="-2434.494"
     inkscape:cy="4846.0322"
     inkscape:window-x="0"
     inkscape:window-y="27"
     inkscape:window-maximized="1"
     inkscape:current-layer="svg29062"
     showguides="false"
     inkscape:document-rotation="0" />
  <g
     id="Layer1000"
     transform="matrix(65.957993,0,0,65.957993,-10752.353,-2888.9073)">
    <path
       d="m 166.5521,51.5026 h 5.3135 c 0.0586,0 0.0763,-0.0177 0.0763,-0.0763 v -4.4745 c 0,-0.0596 -0.0422,-0.1017 -0.1017,-0.1017 h -5.2373 c -0.04,0 -0.0963,0.0134 -0.1271,0.0254 -0.0133,0.057 -0.0254,0.0584 -0.0254,0.1271 v 4.3983 c 0,0.0595 0.0422,0.1017 0.1017,0.1017 z m 0.6776,-1.0523 c 0.1988,0 0.36,0.1612 0.36,0.36 0,0.1988 -0.1612,0.36 -0.36,0.36 -0.1988,0 -0.36,-0.1612 -0.36,-0.36 0,-0.1988 0.1612,-0.36 0.36,-0.36 z m 3.564,0.3531 c 0,-0.1988 0.1612,-0.36 0.36,-0.36 0.1988,0 0.36,0.1612 0.36,0.36 0,0.1988 -0.1612,0.36 -0.36,0.36 -0.1988,0 -0.36,-0.1612 -0.36,-0.36 z m 0.716,-0.9279 h -2.0593 c -0.0586,0 -0.0763,-0.0177 -0.0763,-0.0763 v -2.1356 c 0,-0.0595 0.0422,-0.1017 0.1017,-0.1017 h 2.0339 c 0.0585,0 0.0762,0.0177 0.0762,0.0763 v 2.161 c 0,0.0586 -0.0177,0.0763 -0.0762,0.0763 z m -2.5678,0 h -2.0593 c -0.0586,0 -0.0763,-0.0177 -0.0763,-0.0763 v -2.2119 c 0.0308,-0.0119 0.0871,-0.0254 0.1271,-0.0254 h 2.0085 c 0.0586,0 0.0763,0.0177 0.0763,0.0763 v 2.161 c 0,0.0586 -0.0177,0.0763 -0.0763,0.0763 z m -0.9915,-2.5424 c -0.0596,0 -0.1017,-0.0422 -0.1017,-0.1017 v -0.0763 c 0,-0.0595 0.0421,-0.1016 0.1017,-0.1016 h 2.5169 c 0.0586,0 0.0763,0.0176 0.0763,0.0762 v 0.1271 c 0,0.0586 -0.0177,0.0763 -0.0763,0.0763 z"
       style="fill:#000000;fill-rule:evenodd"
       id="path27047" />
    <path
       d="m 169.0182,44.9992 c -2.6505,0 -4.8,2.1495 -4.8,4.8 0,2.6505 2.1495,4.8 4.8,4.8 2.6504,0 4.7999,-2.1495 4.7999,-4.8 0,-2.6505 -2.1495,-4.8 -4.7999,-4.8 z m -6,4.8 c 0,-3.3131 2.6868,-6 6,-6 3.3131,0 5.9999,2.6869 5.9999,6 0,3.3131 -2.6868,5.9999 -5.9999,5.9999 -3.3132,0 -6,-2.6868 -6,-5.9999 z"
       style="fill:#ff0000;fill-rule:evenodd"
       id="path27049" />
    <path
       d="m 166.4758,51.6551 v 0.2542 c 0,0.0586 0.0177,0.0763 0.0763,0.0763 h 5.2881 c 0.0595,0 0.1017,-0.0422 0.1017,-0.1017 v -0.2034 c 0,-0.0595 -0.0422,-0.1017 -0.1017,-0.1017 h -5.2881 c -0.0586,0 -0.0763,0.0177 -0.0763,0.0763 z"
       style="fill:#040404;fill-rule:evenodd"
       id="path27051" />
    <path
       d="m 167.2639,53.0534 c 0,0.0595 0.0422,0.1017 0.1017,0.1017 h 0.3051 c 0.0595,0 0.1017,-0.0422 0.1017,-0.1017 v -0.9915 h -0.5085 z"
       style="fill:#040404;fill-rule:evenodd"
       id="path27053" />
    <path
       d="m 166.6792,53.0534 c 0,0.0595 0.0422,0.1017 0.1017,0.1017 h 0.3051 c 0.0595,0 0.1017,-0.0422 0.1017,-0.1017 v -0.9915 h -0.5085 z"
       style="fill:#040404;fill-rule:evenodd"
       id="path27055" />
    <path
       d="m 170.6453,53.0788 c 0,0.0586 0.0176,0.0763 0.0762,0.0763 h 0.3305 c 0.0586,0 0.0763,-0.0177 0.0763,-0.0763 v -1.0169 h -0.483 z"
       style="fill:#040404;fill-rule:evenodd"
       id="path27057" />
    <path
       d="m 171.23,53.0788 c 0,0.0586 0.0177,0.0763 0.0763,0.0763 h 0.3305 c 0.0586,0 0.0762,-0.0177 0.0762,-0.0763 v -1.0169 h -0.483 z"
       style="fill:#040404;fill-rule:evenodd"
       id="path27059" />
    <path
       d="m 172.392,53.9819 0.8076,-0.8075 -7.5579,-7.558 -0.805,0.8076 z"
       style="fill:#ff0000;fill-rule:evenodd;stroke:#ff0000;stroke-width:0.0025;stroke-linecap:butt;stroke-linejoin:miter;stroke-dasharray:none"
       id="path27061" />
  </g>
</svg>
