<?xml version="1.0" encoding="UTF-8" standalone="no"?>
<svg
   xmlns:dc="http://purl.org/dc/elements/1.1/"
   xmlns:cc="http://creativecommons.org/ns#"
   xmlns:rdf="http://www.w3.org/1999/02/22-rdf-syntax-ns#"
   xmlns:svg="http://www.w3.org/2000/svg"
   xmlns="http://www.w3.org/2000/svg"
   xmlns:sodipodi="http://sodipodi.sourceforge.net/DTD/sodipodi-0.dtd"
   xmlns:inkscape="http://www.inkscape.org/namespaces/inkscape"
   version="1.1"
   width="791.48932"
   height="791.48932"
   id="svg29062"
   viewBox="0 0 791.48933 791.48926"
   sodipodi:docname="R-39.svg"
   inkscape:version="1.0.2 (e86c870879, 2021-01-15)">
  <metadata
     id="metadata29068">
    <rdf:RDF>
      <cc:Work
         rdf:about="">
        <dc:format>image/svg+xml</dc:format>
        <dc:type
           rdf:resource="http://purl.org/dc/dcmitype/StillImage" />
        <dc:title />
      </cc:Work>
    </rdf:RDF>
  </metadata>
  <defs
     id="defs29066" />
  <sodipodi:namedview
     pagecolor="#ffffff"
     bordercolor="#666666"
     borderopacity="1"
     objecttolerance="10"
     gridtolerance="10"
     guidetolerance="10"
     inkscape:pageopacity="0"
     inkscape:pageshadow="2"
     inkscape:window-width="1920"
     inkscape:window-height="1016"
     id="namedview29064"
     showgrid="false"
     inkscape:zoom="0.049253423"
     inkscape:cx="8110.0056"
     inkscape:cy="5749.39"
     inkscape:window-x="0"
     inkscape:window-y="27"
     inkscape:window-maximized="1"
     inkscape:current-layer="svg29062"
     showguides="false"
     inkscape:document-rotation="0" />
  <g
     id="Layer1049"
     transform="matrix(65.957993,0,0,65.957993,-207.85342,-3764.4601)">
    <path
       d="m 9.1512,57.0736 c -3.3131,0 -5.9999,2.6868 -5.9999,6 0,3.3131 2.6868,5.9999 5.9999,5.9999 3.3131,0 6,-2.6868 6,-5.9999 0,-3.3132 -2.6869,-6 -6,-6 z m -4.7999,6 c 0,-2.6505 2.1494,-4.8 4.7999,-4.8 2.6505,0 4.8,2.1495 4.8,4.8 0,2.6505 -2.1495,4.7999 -4.8,4.7999 -2.6505,0 -4.7999,-2.1494 -4.7999,-4.7999 z"
       style="fill:#ff0000;fill-rule:evenodd"
       id="path27796" />
    <path
       d="M 12.9578,61.0373 H 8.4044 v 3.001 h 4.5534 z"
       style="fill:none"
       id="path27798" />
    <path
       d="m 8.1575,62.0337 v 2.0046"
       style="fill:none"
       id="path27800" />
    <path
       d="M 8.1575,64.0383 H 7"
       style="fill:none"
       id="path27802" />
    <path
       d="M 6.9586,64.6386 6.9556,64.5794 6.9467,64.5218 6.932,64.4641 6.9128,64.4094 6.8876,64.3562 6.8566,64.3059 6.8226,64.2586 6.7827,64.2143 6.7383,64.1744 6.691,64.1403 6.6407,64.1093 6.5875,64.0842 6.5328,64.065 6.4752,64.0502 6.4175,64.0413 6.3584,64.0383 6.2992,64.0413 6.2416,64.0502 6.1839,64.065 6.1292,64.0842 6.076,64.1093 6.0242,64.1403 5.9769,64.1744 5.9341,64.2143 5.8942,64.2586 5.8587,64.3059 5.8291,64.3562 5.804,64.4094 5.7848,64.4641 5.77,64.5218 l -0.0089,0.0576 -0.0029,0.0592 0.0029,0.0591 0.0089,0.0577 0.0148,0.0576 0.0192,0.0547 0.0251,0.0532 0.0296,0.0518 0.0355,0.0473 0.0399,0.0428 0.0428,0.04 0.0473,0.0354 0.0518,0.0296 0.0532,0.0251 0.0547,0.0207 0.0577,0.0133 0.0576,0.0089 0.0592,0.003 0.0591,-0.003 0.0577,-0.0089 0.0576,-0.0133 0.0547,-0.0207 0.0532,-0.0251 0.0503,-0.0296 0.0473,-0.0354 0.0444,-0.04 0.0399,-0.0428 0.034,-0.0473 0.031,-0.0518 0.0252,-0.0532 0.0192,-0.0547 0.0147,-0.0576 0.0089,-0.0577 z"
       style="fill:none"
       id="path27804" />
    <path
       d="M 7,64.0383 6.9482,63.9881 6.8935,63.9423 6.8344,63.9009 6.7723,63.8639 6.7087,63.8328 6.6407,63.8062 6.5713,63.7855 6.5018,63.7722 6.4308,63.7634 6.3584,63.7604 6.2859,63.7634 6.215,63.7722 6.144,63.7855 6.076,63.8062 6.008,63.8328 5.9444,63.8639 5.8823,63.9009 5.8232,63.9423 5.767,63.9881 5.7168,64.0383"
       style="fill:none"
       id="path27806" />
    <path
       d="M 6.1455,62.8379 6.9586,62.0337"
       style="fill:none"
       id="path27808" />
    <path
       d="M 6.9586,62.0337 H 8.1575"
       style="fill:none"
       id="path27810" />
    <path
       d="M 6.9586,62.2377 H 7.8899"
       style="fill:none"
       id="path27812" />
    <path
       d="m 7.8899,62.2377 v 0.6002"
       style="fill:none"
       id="path27814" />
    <path
       d="M 7.8899,62.8379 H 6.5062"
       style="fill:none"
       id="path27816" />
    <path
       d="M 6.5062,62.8379 6.9586,62.2377"
       style="fill:none"
       id="path27818" />
    <path
       d="M 6.5062,62.8379 H 7.8899"
       style="fill:none"
       id="path27820" />
    <path
       d="m 6.9612,64.5791 0.0029,0.0592 v 3e-4 2e-4 l -0.0029,0.0591 v 2e-4 l -10e-5,4e-4 -0.0089,0.0577 v 2e-4 l -1e-4,3e-4 -0.0148,0.0577 -10e-5,4e-4 -0.0192,0.0547 -2e-4,3e-4 -10e-5,3e-4 -0.0251,0.0532 -10e-5,2e-4 -2e-4,3e-4 -0.031,0.0517 -3e-4,4e-4 -0.034,0.0473 -2e-4,4e-4 -2e-4,1e-4 -0.0399,0.0429 -2e-4,2e-4 -2e-4,1e-4 -0.0443,0.04 -2e-4,1e-4 -2e-4,2e-4 -0.0473,0.0355 -2e-4,10e-5 -3e-4,2e-4 -0.0503,0.0296 -3e-4,2e-4 h -1e-4 l -0.0533,0.0251 -4e-4,2e-4 -0.0547,0.0207 -3e-4,2e-4 h -4e-4 l -0.0576,0.0133 -4e-4,1e-4 -0.0577,0.0089 -4e-4,1e-4 h -1e-4 l -0.0592,0.0029 -2e-4,1e-4 -3e-4,-1e-4 -0.0592,-0.0029 h -10e-5 l -4e-4,-1e-4 -0.0577,-0.0089 -4e-4,-1e-4 -0.0576,-0.0133 h -4e-4 l -3e-4,-2e-4 -0.0547,-0.0207 -4e-4,-2e-4 -0.0533,-0.0251 -3e-4,-2e-4 -0.0518,-0.0296 -3e-4,-1e-4 -3e-4,-2e-4 -0.0473,-0.0355 -2e-4,-2e-4 -2e-4,-2e-4 -0.0429,-0.0399 -3e-4,-3e-4 -0.0399,-0.0429 -2e-4,-2e-4 -10e-5,-2e-4 -0.0355,-0.0473 -3e-4,-3e-4 -10e-5,-3e-4 -0.0296,-0.0517 -2e-4,-4e-4 -0.0251,-0.0532 -1e-4,-3e-4 -10e-5,-3e-4 -0.0193,-0.0547 -10e-5,-4e-4 -0.0148,-0.0577 -10e-5,-3e-4 v -2e-4 l -0.0089,-0.0577 -1e-4,-4e-4 v -2e-4 L 5.7526,64.6388 v -2e-4 -3e-4 l 0.0029,-0.0592 v -1e-4 l 1e-4,-4e-4 0.0089,-0.0577 v -1e-4 l 10e-5,-4e-4 0.0148,-0.0576 10e-5,-5e-4 0.0193,-0.0547 10e-5,-3e-4 1e-4,-2e-4 0.0251,-0.0533 1e-4,-1e-4 2e-4,-3e-4 0.0295,-0.0502 2e-4,-4e-4 2e-4,-2e-4 0.0355,-0.0473 10e-5,-2e-4 2e-4,-2e-4 0.0399,-0.0443 1e-4,-2e-4 2e-4,-2e-4 0.0429,-0.0399 10e-5,-1e-4 4e-4,-3e-4 0.0473,-0.034 4e-4,-3e-4 0.0518,-0.031 2e-4,-2e-4 2e-4,-1e-4 0.0533,-0.0251 2e-4,-1e-4 3e-4,-1e-4 0.0547,-0.0193 4e-4,-1e-4 0.0577,-0.0148 3e-4,-10e-5 h 2e-4 l 0.0577,-0.0089 h 4e-4 l 10e-5,-10e-5 0.0592,-0.0029 h 3e-4 2e-4 l 0.0592,0.0029 1e-4,10e-5 h 4e-4 l 0.0577,0.0089 h 2e-4 l 3e-4,10e-5 0.0577,0.0148 4e-4,1e-4 0.0547,0.0193 3e-4,1e-4 2e-4,1e-4 0.0533,0.0251 2e-4,1e-4 3e-4,2e-4 0.0503,0.0311 3e-4,2e-4 0.0473,0.034 4e-4,3e-4 10e-5,1e-4 0.0443,0.0399 2e-4,2e-4 2e-4,2e-4 0.04,0.0443 1e-4,10e-5 2e-4,4e-4 0.034,0.0473 2e-4,3e-4 0.0311,0.0503 2e-4,3e-4 10e-5,2e-4 0.0251,0.0533 10e-5,2e-4 2e-4,3e-4 0.0192,0.0547 10e-5,5e-4 0.0148,0.0576 1e-4,4e-4 v 1e-4 l 0.0089,0.0577 10e-5,4e-4 z"
       style="fill:#000000;fill-rule:evenodd;stroke:#1b1918;stroke-width:0.216;stroke-linecap:butt;stroke-linejoin:miter;stroke-dasharray:none"
       id="path27822" />
    <path
       d="m 8.4044,61.0317 h 4.5534 0.0055 v 0.0056 3.001 0.0056 H 12.9578 11.871 l 0.0054,8e-4 h 10e-5 l 5e-4,10e-5 0.0562,0.0148 4e-4,1e-4 0.0561,0.0192 3e-4,10e-5 3e-4,2e-4 0.0532,0.0251 2e-4,1e-4 4e-4,2e-4 0.0503,0.0311 3e-4,2e-4 0.0473,0.034 4e-4,3e-4 10e-5,1e-4 0.0429,0.0399 2e-4,2e-4 10e-5,2e-4 0.04,0.0443 10e-5,2e-4 2e-4,2e-4 0.0355,0.0473 v 2e-4 l 3e-4,4e-4 0.0296,0.0502 10e-5,3e-4 1e-4,1e-4 0.0251,0.0533 2e-4,4e-4 0.0207,0.0547 10e-5,4e-4 10e-5,2e-4 0.0148,0.0576 v 3e-4 l 10e-5,4e-4 0.0074,0.0576 1e-4,4e-4 0.0029,0.0592 v 3e-4 2e-4 l -0.0029,0.0591 -1e-4,5e-4 -0.0074,0.0577 -10e-5,4e-4 v 2e-4 l -0.0148,0.0577 -10e-5,2e-4 -10e-5,3e-4 -0.0207,0.0547 -2e-4,5e-4 -0.0251,0.0532 -2e-4,4e-4 -0.0296,0.0517 -10e-5,3e-4 -2e-4,3e-4 -0.0355,0.0473 -2e-4,2e-4 -2e-4,2e-4 -0.0399,0.0429 -3e-4,3e-4 -0.0429,0.0399 -2e-4,2e-4 -2e-4,2e-4 -0.0473,0.0355 -2e-4,10e-5 -4e-4,2e-4 -0.0502,0.0296 -3e-4,2e-4 h -2e-4 l -0.0532,0.0251 -2e-4,2e-4 h -2e-4 l -0.0562,0.0207 -3e-4,2e-4 h -4e-4 l -0.0561,0.0133 -5e-4,1e-4 -0.0591,0.0089 -5e-4,1e-4 h -10e-5 l -0.0591,0.0029 -3e-4,1e-4 -2e-4,-1e-4 -0.0577,-0.0029 v 0 l -5e-4,-1e-4 -0.0591,-0.0089 -5e-4,-1e-4 -0.0562,-0.0133 h -3e-4 l -3e-4,-2e-4 -0.0562,-0.0207 h -2e-4 l -2e-4,-2e-4 -0.0533,-0.0251 h -10e-5 l -3e-4,-2e-4 -0.0503,-0.0296 -3e-4,-2e-4 -2e-4,-10e-5 -0.0473,-0.0355 -2e-4,-2e-4 -2e-4,-1e-4 -0.0443,-0.04 -4e-4,-2e-4 -10e-5,-2e-4 -0.0384,-0.0428 v 0 l -3e-4,-4e-4 -0.0355,-0.0473 -2e-4,-2e-4 -2e-4,-4e-4 -0.0295,-0.0518 -2e-4,-3e-4 -0.0252,-0.0532 -1e-4,-5e-4 -0.0207,-0.0547 -2e-4,-3e-4 v -2e-4 l -0.0148,-0.0577 -10e-5,-2e-4 v -4e-4 l -0.0074,-0.0577 -10e-5,-5e-4 -0.0029,-0.0591 -10e-5,-2e-4 10e-5,-3e-4 0.0029,-0.0592 10e-5,-4e-4 0.0074,-0.0576 v -4e-4 l 10e-5,-3e-4 0.0148,-0.0576 v -2e-4 l 2e-4,-4e-4 0.0207,-0.0547 1e-4,-4e-4 0.0252,-0.0533 v -1e-4 l 2e-4,-3e-4 0.0296,-0.0502 2e-4,-4e-4 10e-5,-2e-4 0.0355,-0.0473 2e-4,-3e-4 0.0385,-0.0443 3e-4,-4e-4 2e-4,-1e-4 0.0443,-0.0399 10e-5,-1e-4 4e-4,-3e-4 0.0473,-0.034 3e-4,-2e-4 0.0503,-0.0311 3e-4,-2e-4 2e-4,-1e-4 0.0533,-0.0251 3e-4,-2e-4 2e-4,-10e-5 0.0562,-0.0192 4e-4,-1e-4 0.0561,-0.0148 5e-4,-10e-5 h 10e-5 l 0.0055,-8e-4 h -1.1151 l 0.0055,8e-4 h 10e-5 l 5e-4,10e-5 0.0561,0.0148 4e-4,1e-4 0.0562,0.0192 2e-4,10e-5 3e-4,2e-4 0.0533,0.0251 2e-4,1e-4 3e-4,2e-4 0.0503,0.0311 3e-4,2e-4 0.0473,0.034 4e-4,3e-4 2e-4,1e-4 0.0428,0.0399 2e-4,2e-4 2e-4,2e-4 0.0399,0.0443 10e-5,2e-4 2e-4,2e-4 0.0355,0.0473 10e-5,2e-4 2e-4,4e-4 0.0296,0.0502 2e-4,3e-4 v 1e-4 l 0.0252,0.0533 1e-4,4e-4 0.0207,0.0547 10e-5,3e-4 10e-5,4e-4 0.0133,0.0576 1e-4,4e-4 0.0089,0.0577 v 4e-4 l 10e-5,1e-4 0.0029,0.0592 v 3e-4 2e-4 l -0.0029,0.0591 -10e-5,2e-4 v 4e-4 l -0.0089,0.0577 -1e-4,4e-4 -0.0133,0.0576 -10e-5,4e-4 -10e-5,3e-4 -0.0207,0.0547 -1e-4,5e-4 -0.0252,0.0532 -2e-4,4e-4 -0.0296,0.0517 -10e-5,3e-4 -2e-4,3e-4 -0.0355,0.0473 -2e-4,2e-4 -2e-4,2e-4 -0.0399,0.0429 -3e-4,3e-4 -0.0428,0.0399 -3e-4,2e-4 -2e-4,2e-4 -0.0473,0.0355 -2e-4,10e-5 -3e-4,2e-4 -0.0503,0.0296 -3e-4,2e-4 h -10e-5 l -0.0533,0.0251 -2e-4,2e-4 h -2e-4 l -0.0562,0.0207 -3e-4,2e-4 h -3e-4 l -0.0562,0.0133 -5e-4,1e-4 -0.0591,0.0089 -5e-4,1e-4 v 0 l -0.0592,0.0029 -3e-4,1e-4 -2e-4,-1e-4 -0.0577,-0.0029 v 0 l -5e-4,-1e-4 -0.0591,-0.0089 -5e-4,-1e-4 -0.0561,-0.0133 h -4e-4 l -3e-4,-2e-4 -0.0562,-0.0207 h -2e-4 l -2e-4,-2e-4 -0.0532,-0.0251 h -2e-4 l -3e-4,-2e-4 -0.0503,-0.0296 -3e-4,-2e-4 -2e-4,-10e-5 -0.0473,-0.0355 -2e-4,-2e-4 -2e-4,-1e-4 -0.0443,-0.04 -4e-4,-2e-4 -10e-5,-2e-4 -0.0384,-0.0428 v 0 l -3e-4,-4e-4 -0.0354,-0.0473 -2e-4,-2e-4 -10e-5,-3e-4 -0.0311,-0.0517 -2e-4,-3e-4 -1e-4,-2e-4 -0.0251,-0.0532 -1e-4,-3e-4 -10e-5,-3e-4 -0.0192,-0.0547 -2e-4,-4e-4 -0.0148,-0.0577 -10e-5,-3e-4 v -2e-4 L 9.8137,64.6985 v -4e-4 -3e-4 L 9.8122,64.6387 v -2e-4 l 0.0015,-0.0592 v -3e-4 -4e-4 l 0.0089,-0.0577 v -1e-4 l 10e-5,-4e-4 0.0148,-0.0576 2e-4,-5e-4 0.0192,-0.0547 10e-5,-3e-4 1e-4,-2e-4 0.0251,-0.0533 1e-4,-2e-4 2e-4,-3e-4 0.0311,-0.0503 2e-4,-3e-4 10e-5,-1e-4 0.0354,-0.0473 3e-4,-3e-4 0.0384,-0.0443 3e-4,-4e-4 2e-4,-1e-4 0.0443,-0.0399 10e-5,-1e-4 4e-4,-3e-4 0.0473,-0.034 3e-4,-2e-4 0.0503,-0.0311 3e-4,-2e-4 3e-4,-1e-4 0.0532,-0.0251 3e-4,-2e-4 3e-4,-10e-5 0.0561,-0.0192 4e-4,-1e-4 0.0562,-0.0148 4e-4,-10e-5 h 2e-4 l 0.0054,-8e-4 H 8.4044 8.3989 v -0.0056 -3.001 -0.0056 z"
       style="fill:#000000;fill-rule:evenodd;stroke:#1b1918;stroke-width:0.216;stroke-linecap:butt;stroke-linejoin:miter;stroke-dasharray:none"
       id="path27824" />
    <path
       d="m 6.8518,64.9698 10e-5,-1e-4"
       style="fill:#1b1918;fill-rule:evenodd;stroke:#1b1918;stroke-width:0.216;stroke-linecap:butt;stroke-linejoin:miter;stroke-dasharray:none"
       id="path27826" />
    <path
       d="M 8.1631,64.0383 V 62.0337 H 8.1575 V 62.0281 H 6.9586 v 0.0056 L 6.9547,62.0297 6.1432,62.8324 H 5.1579 v 0.0055 H 5.1524 v 1.2004 h 0.0055 v 0.0056 h 0.5589 v -0.0056 l 0.0039,0.0039 0.0502,-0.0502 0.0555,-0.0452 0.0588,-0.0412 3e-4,-2e-4 0.0613,-0.0365 5e-4,-3e-4 0.063,-0.0307 0.0673,-0.0264 0.0679,-0.0206 0.0701,-0.0132 0.0707,-0.0088 0.0719,-0.003 h 4e-4 l 0.0719,0.003 0.0706,0.0088 0.0687,0.0132 0.0693,0.0206 0.0673,0.0264 0.0631,0.0307 4e-4,3e-4 0.0613,0.0365 4e-4,2e-4 0.0587,0.0412 0.0541,0.0452 3e-4,3e-4 0.0514,0.05 L 7,64.0383 v 0.0056 H 8.1575 V 64.0383 Z M 7.8844,62.8324 H 6.5173 l 0.444,-0.5892 h 0.9231 z"
       style="fill:#000000;fill-rule:evenodd"
       id="path27828" />
  </g>
</svg>
