<?xml version="1.0" encoding="UTF-8" standalone="no"?>
<svg
   xmlns:dc="http://purl.org/dc/elements/1.1/"
   xmlns:cc="http://creativecommons.org/ns#"
   xmlns:rdf="http://www.w3.org/1999/02/22-rdf-syntax-ns#"
   xmlns:svg="http://www.w3.org/2000/svg"
   xmlns="http://www.w3.org/2000/svg"
   xmlns:sodipodi="http://sodipodi.sourceforge.net/DTD/sodipodi-0.dtd"
   xmlns:inkscape="http://www.inkscape.org/namespaces/inkscape"
   version="1.1"
   width="791.48932"
   height="791.48932"
   id="svg29062"
   viewBox="0 0 791.48933 791.48926"
   sodipodi:docname="R-40.svg"
   inkscape:version="1.0.2 (e86c870879, 2021-01-15)">
  <metadata
     id="metadata29068">
    <rdf:RDF>
      <cc:Work
         rdf:about="">
        <dc:format>image/svg+xml</dc:format>
        <dc:type
           rdf:resource="http://purl.org/dc/dcmitype/StillImage" />
        <dc:title />
      </cc:Work>
    </rdf:RDF>
  </metadata>
  <defs
     id="defs29066" />
  <sodipodi:namedview
     pagecolor="#ffffff"
     bordercolor="#666666"
     borderopacity="1"
     objecttolerance="10"
     gridtolerance="10"
     guidetolerance="10"
     inkscape:pageopacity="0"
     inkscape:pageshadow="2"
     inkscape:window-width="1920"
     inkscape:window-height="1016"
     id="namedview29064"
     showgrid="false"
     inkscape:zoom="0.049253423"
     inkscape:cx="7024.1391"
     inkscape:cy="2350.9646"
     inkscape:window-x="0"
     inkscape:window-y="27"
     inkscape:window-maximized="1"
     inkscape:current-layer="svg29062"
     showguides="false"
     inkscape:document-rotation="0" />
  <g
     id="Layer1050"
     transform="matrix(65.957993,0,0,65.957993,-1293.7199,-3764.4601)">
    <path
       d="m 27.2683,63.1321 c 0.0722,-0.005 0.0926,-0.0469 0.1369,-0.0893 0.0403,-0.0384 0.0754,-0.0698 0.1072,-0.1154 0.0427,-0.0289 0.0681,-0.0628 0.0944,-0.0997 0.0345,-0.0421 0.0827,-0.0867 0.1211,-0.1285 0.0694,-0.0753 0.0784,-0.1043 0.1461,-0.1093 0.0332,0.0331 0.0314,0.0394 0.0579,0.0931 0.0411,0.0832 0.0169,0.0443 0.0886,0.0752 -5e-4,0.0647 -0.0043,0.0853 0.0195,0.1368 0.0365,0.0856 0.1227,0.1799 0.0952,0.2849 -0.0138,0.0511 -0.1648,0.1721 -0.2189,0.218 l -0.2034,0.1794 c -0.0258,0.0269 -0.0101,0.0065 -0.0287,0.0377 -0.0364,0.0104 -0.1781,0.1303 -0.1842,0.2483 -0.007,0.1333 0.0647,0.23 0.1153,0.3281 0.103,0.1997 0.2072,0.3877 0.3072,0.5855 0.0505,0.0998 0.0905,0.2156 0.2491,0.1667 0.0949,-0.0292 0.2029,-0.1294 0.1564,-0.2595 -0.018,-0.0504 -0.2863,-0.56 -0.3054,-0.5798 -0.0413,-0.142 -0.0461,-0.1899 0.0531,-0.2781 0.0712,-0.0635 0.1277,-0.1113 0.1983,-0.17 0.1904,-0.158 0.1721,-0.1099 0.3313,0.2391 0.0754,0.1653 0.4127,0.9444 0.4643,1.0236 0.1037,0.1588 0.4347,0.0222 0.347,-0.2342 l -0.469,-1.0328 c -0.082,-0.1803 -0.1534,-0.3041 -0.2222,-0.4958 -0.0427,-0.0982 -0.0246,-0.3881 -0.0762,-0.4717 0.0037,-0.1386 -0.065,-0.6408 -0.1149,-0.7447 -0.0924,-0.1925 -0.3731,-0.2828 -0.5984,-0.152 -0.0654,0.038 -0.1534,0.1668 -0.2077,0.2317 l -0.3973,0.481 c -0.1553,0.2028 -0.0264,0.1458 -0.131,0.1913 -0.0602,0.0262 -0.0187,-0.009 -0.0651,0.0421 -0.0592,0.0548 -0.149,0.1554 -0.1036,0.283 0.0174,0.049 0.0507,0.0818 0.0955,0.1032 0.0413,0.0197 0.1051,0.0476 0.1416,0.0121 z m 0.6399,-2.131 c -0.4398,0.1105 -0.2674,0.7572 0.1674,0.6433 0.4013,-0.1051 0.2672,-0.7525 -0.1674,-0.6433 z"
       style="fill:#000000;fill-rule:evenodd"
       id="path27831" />
    <path
       d="m 25.6143,58.3236 c 2.6229,0 4.7499,2.1271 4.7499,4.75 0,2.6228 -2.127,4.7499 -4.7499,4.7499 -2.6229,0 -4.75,-2.1271 -4.75,-4.7499 0,-2.6229 2.1271,-4.75 4.75,-4.75 z m 5.9999,4.75 c 0,-3.3132 -2.6868,-6 -5.9999,-6 -3.3131,0 -6,2.6868 -6,6 0,3.3131 2.6869,5.9999 6,5.9999 3.3131,0 5.9999,-2.6868 5.9999,-5.9999 z"
       style="fill:#ff0000;fill-rule:evenodd"
       id="path27833" />
    <path
       d="m 22.5636,63.4864 c -0.0077,-0.0326 -0.0257,-0.0473 0.0053,-0.0569 l -0.031,0.0035 -0.0272,0.0526 z"
       style="fill:#000000;fill-rule:evenodd"
       id="path27835" />
    <path
       d="m 23.2646,63.3364 c 0.1335,-0.1501 0.3281,-0.2446 0.5447,-0.2446 0.1587,0 0.3055,0.0507 0.4252,0.1369 z m 1.4892,0.1793 0.621,-0.069 0.6365,0.5145 0.074,0.6073 h 0.1544 l -0.0571,-0.4688 -0.0266,-0.2187 -0.0627,-0.5141 0.831,-0.0924 v -0.3446 l -2.3482,0.2608 c -0.182,-0.2213 -0.4579,-0.3624 -0.7668,-0.3624 -0.3875,0 -0.7232,0.2222 -0.8865,0.5461 l -1.2778,0.1419 v 0.3447 l 1.1761,-0.1306 c -0.0026,0.0296 -0.004,0.0597 -0.004,0.0901 0,0.5479 0.4442,0.9921 0.9922,0.9921 0.548,0 0.9922,-0.4442 0.9922,-0.9921 0,-0.1064 -0.0168,-0.2088 -0.0477,-0.3048 z m 0.8354,-0.0928 0.3517,-0.0391 0.0438,0.3587 z m -1.9715,0.219 c -0.0437,0.0468 -0.0703,0.1095 -0.0703,0.1786 0,0.1446 0.1172,0.2619 0.2619,0.2619 0.1447,0 0.2619,-0.1173 0.2619,-0.2619 0,-0.0899 -0.0452,-0.1691 -0.1141,-0.2163 l 0.5272,-0.0586 c 0.0346,0.0848 0.0536,0.1776 0.0536,0.2749 0,0.4024 -0.3262,0.7286 -0.7286,0.7286 -0.4024,0 -0.7287,-0.3262 -0.7287,-0.7286 0,-0.0409 0.0034,-0.081 0.0099,-0.1201 z"
       style="fill:#000000;fill-rule:evenodd"
       id="path27837" />
    <path
       d="m 21.711,60.0189 0.8487,-0.8486 6.9579,6.9579 -0.8487,0.8487 z"
       style="fill:#ff0000;fill-rule:evenodd"
       id="path27839" />
  </g>
</svg>
