<?xml version="1.0" encoding="UTF-8" standalone="no"?>
<svg
   xmlns:dc="http://purl.org/dc/elements/1.1/"
   xmlns:cc="http://creativecommons.org/ns#"
   xmlns:rdf="http://www.w3.org/1999/02/22-rdf-syntax-ns#"
   xmlns:svg="http://www.w3.org/2000/svg"
   xmlns="http://www.w3.org/2000/svg"
   xmlns:sodipodi="http://sodipodi.sourceforge.net/DTD/sodipodi-0.dtd"
   xmlns:inkscape="http://www.inkscape.org/namespaces/inkscape"
   version="1.1"
   width="791.48932"
   height="791.48932"
   id="svg29062"
   viewBox="0 0 791.48933 791.48926"
   sodipodi:docname="R-4a.svg"
   inkscape:version="1.0.2 (e86c870879, 2021-01-15)">
  <metadata
     id="metadata29068">
    <rdf:RDF>
      <cc:Work
         rdf:about="">
        <dc:format>image/svg+xml</dc:format>
        <dc:type
           rdf:resource="http://purl.org/dc/dcmitype/StillImage" />
        <dc:title />
      </cc:Work>
    </rdf:RDF>
  </metadata>
  <defs
     id="defs29066" />
  <sodipodi:namedview
     pagecolor="#ffffff"
     bordercolor="#666666"
     borderopacity="1"
     objecttolerance="10"
     gridtolerance="10"
     guidetolerance="10"
     inkscape:pageopacity="0"
     inkscape:pageshadow="2"
     inkscape:window-width="1920"
     inkscape:window-height="1016"
     id="namedview29064"
     showgrid="false"
     inkscape:zoom="0.049253423"
     inkscape:cx="-957.86635"
     inkscape:cy="5835.9279"
     inkscape:window-x="0"
     inkscape:window-y="27"
     inkscape:window-maximized="1"
     inkscape:current-layer="svg29062"
     inkscape:document-rotation="0" />
  <g
     id="Layer1012"
     transform="matrix(65.957993,0,0,65.957993,-3287.4123,-279.497)">
    <path
       d="m 58.5026,9.3372 h 0.0025 v 4.304 H 57.462 v -3.48 -0.5627 c 0.0011,-0.0087 0.0016,-0.0176 0.0016,-0.0265 0,-0.009 -5e-4,-0.0179 -0.0016,-0.0266 C 57.4489,9.4354 57.3551,9.3482 57.2373,9.3372 57.229,9.3364 57.2205,9.336 57.2119,9.336 c -0.0085,0 -0.017,4e-4 -0.0253,0.0012 H 56.5809 53.6187 L 53.87,9.8534 c 0.0575,0.1503 -0.1773,0.2637 -0.311,0.1554 L 52.1691,8.9607 C 52.1222,8.9281 52.0566,8.8312 52.1606,8.7395 l 1.4009,-1.0564 c 0.2231,-0.1304 0.3629,0.0783 0.3075,0.1599 l -0.2522,0.5162 h 3.8436 0.0016 0.1611 c 0.4803,0.0376 0.8606,0.4054 0.882,0.8606 v 0.0807 c -6e-4,0.0123 -0.0014,0.0245 -0.0025,0.0367 z"
       style="fill:#000000;fill-rule:evenodd"
       id="path27237" />
    <path
       d="m 55.841,5.4375 c 2.6505,0 4.7999,2.1495 4.7999,4.8 0,1.1198 -0.3837,2.1502 -1.0268,2.9668 l -6.74,-6.74 c 0.8167,-0.6431 1.847,-1.0268 2.9669,-1.0268 z m 2.9655,8.5742 c -0.8165,0.6424 -1.8463,1.0257 -2.9655,1.0257 -2.6505,0 -4.8,-2.1494 -4.8,-4.7999 0,-1.1198 0.3837,-2.1502 1.0267,-2.9668 z m 3.0344,-3.7742 c 0,-3.3132 -2.6868,-6 -5.9999,-6 -3.3132,0 -6,2.6868 -6,6 0,3.3131 2.6868,5.9999 6,5.9999 3.3131,0 5.9999,-2.6868 5.9999,-5.9999 z"
       style="fill:#ff0000;fill-rule:evenodd"
       id="path27239" />
  </g>
</svg>
