<?xml version="1.0" encoding="UTF-8" standalone="no"?>
<svg
   xmlns:dc="http://purl.org/dc/elements/1.1/"
   xmlns:cc="http://creativecommons.org/ns#"
   xmlns:rdf="http://www.w3.org/1999/02/22-rdf-syntax-ns#"
   xmlns:svg="http://www.w3.org/2000/svg"
   xmlns="http://www.w3.org/2000/svg"
   xmlns:sodipodi="http://sodipodi.sourceforge.net/DTD/sodipodi-0.dtd"
   xmlns:inkscape="http://www.inkscape.org/namespaces/inkscape"
   version="1.1"
   width="791.48932"
   height="791.48932"
   id="svg29062"
   viewBox="0 0 791.48933 791.48926"
   sodipodi:docname="R-4b.svg"
   inkscape:version="1.0.2 (e86c870879, 2021-01-15)">
  <metadata
     id="metadata29068">
    <rdf:RDF>
      <cc:Work
         rdf:about="">
        <dc:format>image/svg+xml</dc:format>
        <dc:type
           rdf:resource="http://purl.org/dc/dcmitype/StillImage" />
        <dc:title />
      </cc:Work>
    </rdf:RDF>
  </metadata>
  <defs
     id="defs29066" />
  <sodipodi:namedview
     pagecolor="#ffffff"
     bordercolor="#666666"
     borderopacity="1"
     objecttolerance="10"
     gridtolerance="10"
     guidetolerance="10"
     inkscape:pageopacity="0"
     inkscape:pageshadow="2"
     inkscape:window-width="1920"
     inkscape:window-height="1016"
     id="namedview29064"
     showgrid="false"
     inkscape:zoom="0.049253423"
     inkscape:cx="-1905.9796"
     inkscape:cy="5835.9279"
     inkscape:window-x="0"
     inkscape:window-y="27"
     inkscape:window-maximized="1"
     inkscape:current-layer="svg29062"
     showguides="false"
     inkscape:document-rotation="0" />
  <g
     id="Layer1013"
     transform="matrix(65.957993,0,0,65.957993,-4235.5255,-279.497)">
    <path
       d="m 67.4121,9.0774 h -0.0025 v 4.304 h 1.0431 V 9.9014 9.3387 C 68.4516,9.33 68.4511,9.3212 68.4511,9.3122 c 0,-0.009 5e-4,-0.0179 0.0016,-0.0266 0.0131,-0.11 0.107,-0.1972 0.2247,-0.2082 0.0083,-8e-4 0.0168,-0.0012 0.0254,-0.0012 0.0085,0 0.017,4e-4 0.0253,0.0012 h 0.6057 2.9623 l -0.2513,0.5162 c -0.0576,0.1504 0.1772,0.2637 0.3109,0.1555 l 1.3899,-1.0482 c 0.047,-0.0326 0.1125,-0.1295 0.0085,-0.2212 L 72.3532,7.4233 C 72.1301,7.2929 71.9903,7.5016 72.0457,7.5832 l 0.2522,0.5162 H 68.4543 68.4527 68.2916 C 67.8113,8.137 67.431,8.5048 67.4096,8.96 v 0.0807 c 6e-4,0.0123 0.0015,0.0245 0.0025,0.0367 z"
       style="fill:#000000;fill-rule:evenodd"
       id="path27242" />
    <path
       d="m 70.2154,5.4375 c 2.6505,0 4.8,2.1495 4.8,4.8 0,1.1198 -0.3837,2.1502 -1.0268,2.9668 l -6.74,-6.74 c 0.8166,-0.6431 1.847,-1.0268 2.9668,-1.0268 z m 2.9656,8.5742 c -0.8165,0.6424 -1.8463,1.0257 -2.9656,1.0257 -2.6505,0 -4.7999,-2.1494 -4.7999,-4.7999 0,-1.1198 0.3837,-2.1502 1.0267,-2.9668 z m 3.0344,-3.7742 c 0,-3.3132 -2.6868,-6 -6,-6 -3.3131,0 -5.9999,2.6868 -5.9999,6 0,3.3131 2.6868,5.9999 5.9999,5.9999 3.3132,0 6,-2.6868 6,-5.9999 z"
       style="fill:#ff0000;fill-rule:evenodd"
       id="path27244" />
  </g>
</svg>
