<?xml version="1.0" encoding="UTF-8" standalone="no"?>
<svg
   xmlns:dc="http://purl.org/dc/elements/1.1/"
   xmlns:cc="http://creativecommons.org/ns#"
   xmlns:rdf="http://www.w3.org/1999/02/22-rdf-syntax-ns#"
   xmlns:svg="http://www.w3.org/2000/svg"
   xmlns="http://www.w3.org/2000/svg"
   xmlns:sodipodi="http://sodipodi.sourceforge.net/DTD/sodipodi-0.dtd"
   xmlns:inkscape="http://www.inkscape.org/namespaces/inkscape"
   version="1.1"
   width="791.48932"
   height="791.48932"
   id="svg29062"
   viewBox="0 0 791.48933 791.48926"
   sodipodi:docname="R-5a.svg"
   inkscape:version="1.0.2 (e86c870879, 2021-01-15)">
  <metadata
     id="metadata29068">
    <rdf:RDF>
      <cc:Work
         rdf:about="">
        <dc:format>image/svg+xml</dc:format>
        <dc:type
           rdf:resource="http://purl.org/dc/dcmitype/StillImage" />
        <dc:title />
      </cc:Work>
    </rdf:RDF>
  </metadata>
  <defs
     id="defs29066" />
  <sodipodi:namedview
     pagecolor="#ffffff"
     bordercolor="#666666"
     borderopacity="1"
     objecttolerance="10"
     gridtolerance="10"
     guidetolerance="10"
     inkscape:pageopacity="0"
     inkscape:pageshadow="2"
     inkscape:window-width="1920"
     inkscape:window-height="1016"
     id="namedview29064"
     showgrid="false"
     inkscape:zoom="0.049253423"
     inkscape:cx="-2854.0927"
     inkscape:cy="5835.9279"
     inkscape:window-x="0"
     inkscape:window-y="27"
     inkscape:window-maximized="1"
     inkscape:current-layer="svg29062"
     showguides="false"
     inkscape:document-rotation="0" />
  <g
     id="Layer1014"
     transform="matrix(65.957993,0,0,65.957993,-5183.6387,-279.497)">
    <path
       d="m 82.937,13.7321 1.1309,-1.7425 0.0128,-0.0247 0.0091,-0.0263 0.0045,-0.0271 -9e-4,-0.0281 -0.0054,-0.0271 -0.0091,-0.0263 -0.0144,-0.0244 -0.0173,-0.0208 -0.0217,-0.0181 -0.0236,-0.0146 -0.0261,-0.0099 -0.0272,-0.0054 -0.0283,-9e-4 -0.0269,0.0036 -0.0272,0.0091 h -2e-4 L 83.3569,11.9602 83.3556,11.957 H 83.3521 V 8.5696 h 0.0035 l -0.0035,-10e-5 0.0028,-0.0897 v -2e-4 L 83.3642,8.389 v -2e-4 l 0.0138,-0.0887 1e-4,-3e-4 0.0212,-0.0878 1e-4,-2e-4 0.0259,-0.0869 1e-4,-2e-4 0.0314,-0.0841 1e-4,-2e-4 0.0379,-0.0823 1e-4,-2e-4 0.0425,-0.0795 10e-5,-2e-4 0.0471,-0.0767 2e-4,-10e-5 0.0526,-0.074 2e-4,-2e-4 0.0573,-0.0693 10e-5,-2e-4 0.062,-0.0665 10e-5,-2e-4 0.0657,-0.0619 1e-4,-2e-4 0.0703,-0.0573 2e-4,-10e-5 0.073,-0.0518 1e-4,-10e-5 0.0767,-0.0481 2e-4,-10e-5 0.0796,-0.0425 2e-4,-10e-5 0.0822,-0.037 h 2e-4 l 0.085,-0.0324 3e-4,-1e-4 0.0859,-0.0259 h 3e-4 l 0.0887,-0.0203 2e-4,-10e-5 0.0887,-0.0148 h 2e-4 l 0.0897,-0.0092 2e-4,-10e-5 0.0906,-0.0027 h 2e-4 l 0.0897,0.0027 2e-4,10e-5 0.0906,0.0092 h 2e-4 l 0.0887,0.0148 2e-4,10e-5 0.0878,0.0203 h 3e-4 l 0.0868,0.0259 3e-4,1e-4 0.0841,0.0324 h 2e-4 l 0.0822,0.037 3e-4,10e-5 0.0794,0.0425 3e-4,10e-5 0.0767,0.0481 10e-5,10e-5 0.074,0.0518 2e-4,10e-5 0.0693,0.0573 1e-4,2e-4 0.0666,0.0619 2e-4,2e-4 0.061,0.0666 1e-4,10e-5 0.0573,0.0693 2e-4,2e-4 0.0527,0.074 10e-5,10e-5 0.048,0.0767 1e-4,2e-4 0.0426,0.0795 10e-5,2e-4 0.0369,0.0823 1e-4,2e-4 0.0323,0.0841 1e-4,2e-4 0.0259,0.0869 1e-4,2e-4 0.0203,0.0878 1e-4,2e-4 0.0147,0.0887 10e-5,3e-4 0.0092,0.0906 v 2e-4 l 0.0028,0.0897 -0.0034,10e-5 h 0.0034 v 5.1826 h 0.9054 V 8.5697 L 87.0206,8.4543 v -2e-4 L 87.0122,8.3378 h 10e-5 L 86.9975,8.2236 v 0 L 86.9772,8.1091 V 8.109 l -0.0267,-0.1125 -1e-4,-10e-5 -0.0313,-0.1115 -1e-4,-2e-4 -0.0378,-0.1097 v -1e-4 l -0.0424,-0.1078 -1e-4,-2e-4 -0.0488,-0.1051 -1e-4,-10e-5 -0.0534,-0.1023 -1e-4,-10e-5 -0.059,-0.1005 -1e-4,-10e-5 -0.0636,-0.0968 -1e-4,-10e-5 -0.0682,-0.0931 -1e-4,-1e-4 -0.0737,-0.0894 -1e-4,-2e-4 -0.0774,-0.0866 -1e-4,-10e-5 -0.082,-0.082 -2e-4,-1e-4 -0.0858,-0.0775 v -10e-5 l -0.0894,-0.0728 -1e-4,-1e-4 -0.094,-0.0691 -2e-4,-10e-5 -0.0967,-0.0636 h -2e-4 l -0.0995,-0.059 -1e-4,-10e-5 -0.1023,-0.0535 h -2e-4 L 85.638,6.4663 v 0 L 85.5302,6.423 85.53,6.4229 85.4204,6.3851 h -2e-4 L 85.3087,6.3537 h -2e-4 L 85.1961,6.3279 h -1e-4 L 85.0817,6.3066 h -2e-4 L 84.9673,6.2919 v 0 L 84.851,6.2836 h -2e-4 L 84.7356,6.2808 h -2e-4 l -0.1161,0.0028 h -2e-4 l -0.1153,0.0083 v 0 l -0.1152,0.0147 h -2e-4 l -0.1133,0.0213 h -2e-4 l -0.1134,0.0258 h -1e-4 l -0.1115,0.0314 h -2e-4 l -0.1087,0.0378 -2e-4,10e-5 -0.1078,0.0433 v 0 l -0.1052,0.048 h -1e-4 l -0.1033,0.0535 -10e-5,10e-5 -0.0995,0.059 h -2e-4 l -0.0967,0.0636 -2e-4,10e-5 -0.093,0.0691 -2e-4,1e-4 -0.0894,0.0729 h -10e-5 l -0.0866,0.0774 -2e-4,2e-4 -0.0811,0.082 h 1e-4 l -0.0786,0.0869 v 0 l -0.0728,0.0894 -10e-5,1e-4 -0.0682,0.0931 -1e-4,10e-5 -0.0646,0.0969 -0.0581,0.1005 v 10e-5 l -0.0544,0.1023 -1e-4,2e-4 -0.048,0.1052 v 0 l -0.0433,0.1078 -10e-5,1e-4 -0.0368,0.1097 v 1e-4 l -0.0323,0.1116 -1e-4,10e-5 -0.0258,0.1125 v 10e-5 l -0.0203,0.1145 v 0 l -0.0147,0.1142 v 0 l -0.0093,0.1163 v 2e-4 l -0.0027,0.1153 v 3.3874 h -0.0035 l -0.0013,0.0032 -0.5091,-0.2116 h -2e-4 l -0.0272,-0.0091 -0.027,-0.0036 -0.0282,9e-4 -0.0272,0.0054 -0.0261,0.0099 -0.0236,0.0146 -0.0217,0.0181 -0.0173,0.0208 -0.0145,0.0245 -0.0099,0.0261 -0.0045,0.0272 -9e-4,0.0281 0.0045,0.0271 0.0091,0.0263 0.0128,0.0247 1.1309,1.7426 0.0096,0.0105 0.0138,0.0069 0.0136,0.0026 0.0147,-0.0026 0.0129,-0.0069 z"
       style="fill:#000000;fill-rule:evenodd"
       id="path27247" />
    <path
       d="m 84.5899,4.2375 c -3.3131,0 -5.9999,2.6868 -5.9999,6 0,3.3131 2.6868,5.9999 5.9999,5.9999 3.3132,0 6,-2.6868 6,-5.9999 0,-3.3132 -2.6868,-6 -6,-6 z m 3.7916,8.943 -6.7346,-6.7346 c 0.8129,-0.6319 1.834,-1.0084 2.943,-1.0084 2.6505,0 4.8,2.1495 4.8,4.8 0,1.109 -0.3765,2.1301 -1.0084,2.943 z m -7.5831,-5.886 6.7345,6.7345 c -0.8127,0.632 -1.8339,1.0084 -2.943,1.0084 -2.6505,0 -4.7999,-2.1494 -4.7999,-4.7999 0,-1.1091 0.3764,-2.1303 1.0084,-2.943 z"
       style="fill:#ff0000;fill-rule:evenodd"
       id="path27249" />
    <path
       d="m 82.9893,14.0226 1.1313,-1.7432"
       style="fill:none"
       id="path27251" />
    <path
       d="m 84.1206,12.2794 0.0129,-0.025 0.0093,-0.0268 0.0046,-0.0277 -9e-4,-0.0287 -0.0056,-0.0277 -0.0092,-0.0268 -0.0148,-0.0249 -0.0176,-0.0213 -0.0222,-0.0185 -0.024,-0.0148 -0.0268,-0.0101 -0.0277,-0.0056 -0.0287,-9e-4 -0.0277,0.0037 -0.0277,0.0092"
       style="fill:none"
       id="path27253" />
    <path
       d="m 82.9088,14.0226 0.0102,0.0111 0.0148,0.0074 0.0148,0.0027 0.0157,-0.0027 0.0139,-0.0074 0.0111,-0.0111"
       style="fill:none"
       id="path27255" />
    <path
       d="M 82.9088,14.0226 81.7775,12.2794"
       style="fill:none"
       id="path27257" />
    <path
       d="m 81.9836,12.0335 -0.0277,-0.0092 -0.0277,-0.0037 -0.0287,9e-4 -0.0277,0.0056 -0.0268,0.0101 -0.024,0.0148 -0.0222,0.0185 -0.0176,0.0213 -0.0148,0.0249 -0.0101,0.0268 -0.0047,0.0277 -9e-4,0.0287 0.0046,0.0277 0.0093,0.0268 0.0129,0.025"
       style="fill:none"
       id="path27259" />
    <path
       d="m 83.4052,12.2452 0.5093,-0.2117"
       style="fill:none"
       id="path27261" />
    <path
       d="M 82.4929,12.2452 81.9836,12.0335"
       style="fill:none"
       id="path27263" />
    <path
       d="m 83.4052,8.8577 v 3.3875"
       style="fill:none"
       id="path27265" />
    <path
       d="m 86.1651,8.8577 v 5.1861"
       style="fill:none"
       id="path27267" />
    <path
       d="m 87.0773,8.8577 v 5.1861"
       style="fill:none"
       id="path27269" />
    <path
       d="m 82.4929,8.8577 v 3.3875"
       style="fill:none"
       id="path27271" />
    <path
       d="M 86.1651,8.8577 86.1623,8.7681 86.1531,8.6775 86.1383,8.5888 86.1179,8.5009 86.0921,8.4141 86.0597,8.33 86.0227,8.2477 85.9802,8.1682 85.9322,8.0915 85.8795,8.0176 85.8222,7.9482 85.7612,7.8817 85.6946,7.8198 85.6253,7.7625 85.5513,7.7107 85.4746,7.6626 85.3951,7.6201 85.3129,7.5831 85.2288,7.5508 85.1419,7.5249 85.0541,7.5046 84.9654,7.4898 84.8748,7.4805 84.7851,7.4778 84.6945,7.4805 84.6049,7.4898 84.5162,7.5046 84.4274,7.5249 84.3415,7.5508 84.2564,7.5831 84.1742,7.6201 84.0947,7.6626 84.018,7.7107 83.945,7.7625 83.8747,7.8198 83.8091,7.8817 83.7472,7.9482 83.6899,8.0176 83.6372,8.0915 83.59,8.1682 83.5475,8.2477 83.5096,8.33 83.4782,8.4141 83.4523,8.5009 83.4311,8.5888 83.4172,8.6775 83.408,8.7681 83.4052,8.8577"
       style="fill:none"
       id="path27273" />
    <path
       d="m 86.1651,14.0438 h 0.9122"
       style="fill:none"
       id="path27275" />
  </g>
</svg>
