<?xml version="1.0" encoding="UTF-8" standalone="no"?>
<svg
   xmlns:dc="http://purl.org/dc/elements/1.1/"
   xmlns:cc="http://creativecommons.org/ns#"
   xmlns:rdf="http://www.w3.org/1999/02/22-rdf-syntax-ns#"
   xmlns:svg="http://www.w3.org/2000/svg"
   xmlns="http://www.w3.org/2000/svg"
   xmlns:sodipodi="http://sodipodi.sourceforge.net/DTD/sodipodi-0.dtd"
   xmlns:inkscape="http://www.inkscape.org/namespaces/inkscape"
   version="1.1"
   width="791.48932"
   height="791.48932"
   id="svg29062"
   viewBox="0 0 791.48933 791.48926"
   sodipodi:docname="R-5b.svg"
   inkscape:version="1.0.2 (e86c870879, 2021-01-15)">
  <metadata
     id="metadata29068">
    <rdf:RDF>
      <cc:Work
         rdf:about="">
        <dc:format>image/svg+xml</dc:format>
        <dc:type
           rdf:resource="http://purl.org/dc/dcmitype/StillImage" />
        <dc:title />
      </cc:Work>
    </rdf:RDF>
  </metadata>
  <defs
     id="defs29066" />
  <sodipodi:namedview
     pagecolor="#ffffff"
     bordercolor="#666666"
     borderopacity="1"
     objecttolerance="10"
     gridtolerance="10"
     guidetolerance="10"
     inkscape:pageopacity="0"
     inkscape:pageshadow="2"
     inkscape:window-width="1920"
     inkscape:window-height="1016"
     id="namedview29064"
     showgrid="false"
     inkscape:zoom="0.049253423"
     inkscape:cx="-3736.7623"
     inkscape:cy="5126.3082"
     inkscape:window-x="0"
     inkscape:window-y="27"
     inkscape:window-maximized="1"
     inkscape:current-layer="svg29062"
     showguides="false"
     inkscape:document-rotation="0" />
  <g
     id="Layer1015"
     transform="matrix(65.957993,0,0,65.957993,-6066.3083,-279.497)">
    <path
       d="m 97.9723,4.2375 c -3.3131,0 -6,2.6868 -6,6 0,3.3131 2.6869,5.9999 6,5.9999 3.3131,0 5.9999,-2.6868 5.9999,-5.9999 0,-3.3132 -2.6868,-6 -5.9999,-6 z m -4.8,6 c 0,-2.6505 2.1495,-4.8 4.8,-4.8 2.6505,0 4.8,2.1495 4.8,4.8 0,2.6505 -2.1495,4.7999 -4.8,4.7999 -2.6505,0 -4.8,-2.1494 -4.8,-4.7999 z"
       style="fill:#ff0000;fill-rule:evenodd"
       id="path27278" />
    <path
       d="m 99.9625,13.8028 -1.1309,-1.7843 -0.0128,-0.0253 -0.009,-0.0269 -0.0046,-0.0278 0.001,-0.0287 0.0054,-0.0278 0.009,-0.0269 0.0145,-0.025 0.0172,-0.0214 0.0217,-0.0185 0.0237,-0.0149 0.0261,-0.0101 0.0271,-0.0056 0.0283,-9e-4 0.0269,0.0036 0.0273,0.0094 h 2e-4 l 0.509,0.2167 0.0014,-0.0033 h 0.0034 V 8.5164 H 99.544 l 0.0034,-1e-4 -0.0027,-0.0918 -1e-4,-3e-4 -0.0092,-0.0927 v -2e-4 l -0.0139,-0.0909 -1e-4,-3e-4 -0.0212,-0.0898 v -2e-4 l -0.0259,-0.089 -1e-4,-2e-4 -0.0315,-0.0861 v -3e-4 l -0.0379,-0.0842 -10e-5,-2e-4 -0.0425,-0.0814 -1e-4,-2e-4 -0.0472,-0.0785 -10e-5,-2e-4 -0.0527,-0.0758 -1e-4,-2e-4 -0.0574,-0.0709 -1e-4,-2e-4 -0.0619,-0.0681 -2e-4,-2e-4 -0.0656,-0.0634 -2e-4,-2e-4 -0.0702,-0.0587 -2e-4,-10e-5 -0.073,-0.053 -2e-4,-1e-4 -0.0767,-0.0493 -2e-4,-10e-5 -0.0795,-0.0435 -2e-4,-1e-4 -0.0823,-0.0379 h -2e-4 l -0.085,-0.0331 -2e-4,-10e-5 -0.086,-0.0266 h -2e-4 l -0.0888,-0.0208 -1e-4,-10e-5 -0.0888,-0.0151 h -2e-4 L 98.255,7.1027 98.2547,7.1026 98.1641,7.0998 h -2e-4 l -0.0896,0.0028 -3e-4,10e-5 -0.0906,0.0095 h -2e-4 l -0.0887,0.0151 -2e-4,10e-5 -0.0878,0.0208 h -2e-4 l -0.0869,0.0266 -2e-4,10e-5 -0.0842,0.0331 h -2e-4 l -0.0822,0.0379 -2e-4,1e-4 -0.0795,0.0435 -2e-4,10e-5 -0.0767,0.0493 -2e-4,1e-4 -0.0739,0.053 -3e-4,10e-5 -0.0693,0.0587 -1e-4,2e-4 -0.0666,0.0634 -2e-4,2e-4 -0.061,0.0681 -10e-5,2e-4 -0.0573,0.0709 -10e-5,2e-4 -0.0527,0.0758 -1e-4,10e-5 -0.0481,0.0786 -10e-5,2e-4 -0.0425,0.0814 -1e-4,2e-4 -0.037,0.0842 -1e-4,2e-4 -0.0323,0.0862 -10e-5,2e-4 -0.0259,0.089 v 2e-4 l -0.0204,0.0899 v 2e-4 l -0.0148,0.0908 v 3e-4 l -0.0093,0.0927 v 3e-4 l -0.0028,0.0918 0.0035,1e-4 h -0.0035 v 5.307 H 95.8753 V 8.5165 L 95.879,8.3983 v -1e-4 l 0.0083,-0.1191 v 0 l 0.0147,-0.117 v 0 l 0.0203,-0.1172 10e-5,-2e-4 0.0267,-0.1151 v -10e-5 l 0.0313,-0.1142 1e-4,-2e-4 0.0378,-0.1123 v -10e-5 l 0.0424,-0.1105 1e-4,-2e-4 0.0489,-0.1075 v -10e-5 l 0.0535,-0.1048 1e-4,-10e-5 0.0589,-0.1029 1e-4,-10e-5 0.0636,-0.0991 1e-4,-2e-4 0.0682,-0.0953 10e-5,-10e-5 0.0737,-0.0916 1e-4,-10e-5 0.0775,-0.0887 1e-4,-10e-5 0.082,-0.084 1e-4,-1e-4 0.0859,-0.0794 v 0 l 0.0893,-0.0745 10e-5,-2e-4 0.0941,-0.0707 10e-5,-10e-5 0.0967,-0.0651 2e-4,-10e-5 0.0995,-0.0604 2e-4,-1e-4 0.1022,-0.0547 2e-4,-10e-5 0.1052,-0.0491 v 0 l 0.1079,-0.0444 1e-4,-10e-5 0.1097,-0.0386 2e-4,-1e-4 0.1114,-0.0321 h 2e-4 l 0.1124,-0.0264 2e-4,-10e-5 0.1143,-0.0217 h 2e-4 l 0.1142,-0.0151 v 0 l 0.1163,-0.0085 h 1e-4 L 98.164,6.1728 h 1e-4 l 0.1161,0.0028 h 2e-4 l 0.1154,0.0085 v 0 l 0.1151,0.0151 h 2e-4 l 0.1134,0.0217 1e-4,10e-5 0.1134,0.0264 h 2e-4 l 0.1114,0.0321 2e-4,1e-4 0.1088,0.0386 10e-5,10e-5 0.1078,0.0444 v 0 l 0.1052,0.0491 2e-4,10e-5 0.1032,0.0547 2e-4,1e-4 0.0995,0.0604 1e-4,10e-5 0.0968,0.0651 1e-4,10e-5 0.0931,0.0707 1e-4,10e-5 0.0894,0.0746 1e-4,10e-5 0.0867,0.0793 10e-5,1e-4 0.0811,0.084 v 0 l 0.0786,0.089 v 0 l 0.0727,0.0915 2e-4,10e-5 0.0681,0.0954 1e-4,10e-5 0.0646,0.0992 0.0581,0.1029 1e-4,10e-5 0.0543,0.1048 1e-4,2e-4 0.048,0.1076 v 0 l 0.0433,0.1104 1e-4,2e-4 0.0368,0.1123 1e-4,2e-4 0.0322,0.1141 1e-4,2e-4 0.0258,0.1151 v 2e-4 l 0.0203,0.1172 v 0 l 0.0148,0.117 v 0 l 0.009,0.1191 v 2e-4 l 0.003,0.1181 v 3.4686 h 0.003 l 0.001,0.0033 0.509,-0.2167 h 2e-4 l 0.0272,-0.0094 0.027,-0.0036 0.0282,9e-4 0.0272,0.0056 0.0261,0.0101 0.0236,0.0149 0.0218,0.0185 0.0172,0.0214 0.0145,0.0251 0.01,0.0267 0.005,0.0278 0.001,0.0288 -0.005,0.0278 -0.009,0.0269 -0.0129,0.0253 -1.1309,1.7844 -0.01,0.0107 -0.0139,0.0071 -0.0136,0.0026 -0.0146,-0.0026 -0.0129,-0.0071 z"
       style="fill:#000000;fill-rule:evenodd"
       id="path27280" />
    <path
       d="M 101.5186,14.6324 102.3672,13.7838 94.426,5.8426 93.5774,6.6911 Z"
       style="fill:#ff0000;fill-rule:evenodd;stroke:#ff0000;stroke-width:0.0027;stroke-linecap:butt;stroke-linejoin:miter;stroke-dasharray:none"
       id="path27282" />
    <path
       d="m 96.3716,14.0226 1.1313,-1.7432"
       style="fill:none"
       id="path27284" />
    <path
       d="m 97.5029,12.2794 0.013,-0.025 0.0092,-0.0268 0.0046,-0.0277 -9e-4,-0.0287 -0.0055,-0.0277 -0.0093,-0.0268 -0.0148,-0.0249 -0.0175,-0.0213 -0.0222,-0.0185 -0.024,-0.0148 -0.0268,-0.0101 -0.0278,-0.0056 -0.0286,-9e-4 -0.0278,0.0037 -0.0277,0.0092"
       style="fill:none"
       id="path27286" />
    <path
       d="m 96.2912,14.0226 0.0102,0.0111 0.0148,0.0074 0.0147,0.0027 0.0158,-0.0027 0.0138,-0.0074 0.0111,-0.0111"
       style="fill:none"
       id="path27288" />
    <path
       d="M 96.2912,14.0226 95.1599,12.2794"
       style="fill:none"
       id="path27290" />
    <path
       d="m 95.366,12.0335 -0.0277,-0.0092 -0.0278,-0.0037 -0.0286,9e-4 -0.0277,0.0056 -0.0268,0.0101 -0.0241,0.0148 -0.0221,0.0185 -0.0176,0.0213 -0.0148,0.0249 -0.0102,0.0268 -0.0046,0.0277 -9e-4,0.0287 0.0046,0.0277 0.0093,0.0268 0.0129,0.025"
       style="fill:none"
       id="path27292" />
    <path
       d="m 96.7875,12.2452 0.5093,-0.2117"
       style="fill:none"
       id="path27294" />
    <path
       d="M 95.8753,12.2452 95.366,12.0335"
       style="fill:none"
       id="path27296" />
    <path
       d="m 96.7875,8.8577 v 3.3875"
       style="fill:none"
       id="path27298" />
    <path
       d="m 99.5474,8.8577 v 5.1861"
       style="fill:none"
       id="path27300" />
    <path
       d="m 100.4597,8.8577 v 5.1861"
       style="fill:none"
       id="path27302" />
    <path
       d="m 95.8753,8.8577 v 3.3875"
       style="fill:none"
       id="path27304" />
    <path
       d="m 99.5474,14.0438 h 0.9123"
       style="fill:none"
       id="path27306" />
  </g>
</svg>
