<?xml version="1.0" encoding="UTF-8" standalone="no"?>
<svg
   xmlns:dc="http://purl.org/dc/elements/1.1/"
   xmlns:cc="http://creativecommons.org/ns#"
   xmlns:rdf="http://www.w3.org/1999/02/22-rdf-syntax-ns#"
   xmlns:svg="http://www.w3.org/2000/svg"
   xmlns="http://www.w3.org/2000/svg"
   xmlns:sodipodi="http://sodipodi.sourceforge.net/DTD/sodipodi-0.dtd"
   xmlns:inkscape="http://www.inkscape.org/namespaces/inkscape"
   version="1.1"
   width="791.48932"
   height="791.48932"
   id="svg29062"
   viewBox="0 0 791.48933 791.48926"
   sodipodi:docname="R-7.svg"
   inkscape:version="1.0.2 (e86c870879, 2021-01-15)">
  <metadata
     id="metadata29068">
    <rdf:RDF>
      <cc:Work
         rdf:about="">
        <dc:format>image/svg+xml</dc:format>
        <dc:type
           rdf:resource="http://purl.org/dc/dcmitype/StillImage" />
        <dc:title />
      </cc:Work>
    </rdf:RDF>
  </metadata>
  <defs
     id="defs29066" />
  <sodipodi:namedview
     pagecolor="#ffffff"
     bordercolor="#666666"
     borderopacity="1"
     objecttolerance="10"
     gridtolerance="10"
     guidetolerance="10"
     inkscape:pageopacity="0"
     inkscape:pageshadow="2"
     inkscape:window-width="1920"
     inkscape:window-height="1016"
     id="namedview29064"
     showgrid="false"
     inkscape:zoom="0.049253423"
     inkscape:cx="-7485.5971"
     inkscape:cy="5835.9279"
     inkscape:window-x="0"
     inkscape:window-y="27"
     inkscape:window-maximized="1"
     inkscape:current-layer="svg29062"
     showguides="false"
     inkscape:document-rotation="0" />
  <g
     id="Layer1019"
     transform="matrix(65.957993,0,0,65.957993,-9815.143,-279.497)">
    <path
       d="m 154.5118,9.8339 -0.1894,-0.91 h -0.1468 V 8.8466 h -2.8072 v 0.0507 h -0.1787 l -0.2028,0.9686 -0.2882,0.2028 0.2348,0.8272 h -0.2295 v 0.1521 0 0.2055 h 0.3202 v 0.1014 0.1041 0.1014 l 0.003,0.1014 v 0.0853 0.0027 0.0053 0.0027 0.0027 0 0 0.0053 l 0.005,0.0187 0.0134,0.0187 0.0133,0.0107 0.0187,0.008 v 0.0026 h 0.2161 0.003 v 0 h 0.003 v -0.0026 l 0.016,-0.008 0.016,-0.0107 0.0107,-0.016 0.008,-0.0187 v -0.0053 h 0.003 v -0.0054 -0.0107 -0.2988 -0.008 -0.1788 l 0.003,-0.008 h 0.9526 l 0.0561,0.0747 0.072,0.1094 h 0.0107 v 0.0027 h 0.6724 l 0.0961,-0.1441 0.0293,-0.0427 0.9553,0.0027 0.003,0.008 v 0.1787 0.008 0.2989 0.0107 0.0053 h 0.003 v 0.0054 l 0.008,0.0186 0.0107,0.016 0.016,0.0107 0.016,0.008 v 0.0027 h 0.003 0.003 v 0 h 0.2162 v -0.0027 l 0.0186,-0.008 0.016,-0.0133 0.0107,-0.0187 0.005,-0.0213 v 0 -0.0027 l 0.003,-0.0107 v 0 -0.0053 -0.0801 -0.1014 -0.104 -0.1041 -0.1014 h 0.3176 v -0.0027 h 0.003 v -0.2055 0 -0.1467 h -0.2294 l 0.2348,-0.8272 -0.3389,-0.2375 -0.003,0.0027 V 9.8339 Z m -0.3895,-0.7632 0.1601,0.7632 h -0.499 l -0.003,-0.0027 h -2.5537 l 0.1575,-0.7605 z"
       style="fill:#000000;fill-rule:evenodd"
       id="path27330" />
    <path
       d="m 158.856,9.8526 -0.1921,-0.91 h -0.1467 V 8.8652 H 155.71 v 0.0507 h -0.1761 l -0.2055,0.9714 -0.2882,0.2001 0.2348,0.8272 h -0.2268 v 0.1521 h -0.003 l 0.003,0.2055 0.3175,0.0026 v 0.1014 l 0.003,0.1014 v 0.1014 0.1014 0.0854 0.0027 0.0053 0.0027 0.0027 0 0 0.0053 l 0.008,0.0187 0.0107,0.0187 0.016,0.0106 0.016,0.008 v 0.0027 h 0.2162 0.003 v 0 h 0.003 0.003 l 0.016,-0.008 0.016,-0.0133 0.0107,-0.0161 0.005,-0.0186 0.003,-0.0054 v 0 -0.0053 -0.0107 -0.2988 -0.008 -0.1788 l 0.003,-0.0054 0.9527,-0.0026 0.056,0.0747 0.072,0.1094 h 0.0107 v 0.0027 h 0.6751 l 0.0934,-0.1441 0.032,-0.0427 0.9527,0.0026 0.003,0.008 v 0.1788 0.008 0.2989 l 0.003,0.0107 v 0.0053 0 0.0053 l 0.008,0.0187 0.0107,0.016 0.016,0.0107 0.016,0.008 v 0.0027 h 0.003 0.003 v 0 h 0.2162 l 0.003,-0.0027 0.016,-0.008 0.016,-0.0133 0.0106,-0.0187 0.005,-0.0214 v 0 0 l 0.003,-0.0026 v -0.0027 -0.0053 -0.0027 0 -0.0027 -0.0827 -0.1014 -0.1041 -0.1014 -0.104 h 0.3202 v 0 0 -0.2082 0 -0.1467 h -0.2295 l 0.2348,-0.8272 -0.3389,-0.2375 V 9.8552 9.8526 Z m -0.3922,-0.7632 0.1601,0.7632 h -0.499 l -0.003,-0.0027 h -2.5537 l 0.1601,-0.7605 z"
       style="fill:#000000;fill-rule:evenodd"
       id="path27332" />
    <path
       d="m 150.009,10.2375 c 0,-2.651 2.149,-4.8 4.7999,-4.8 2.651,0 4.8,2.149 4.8,4.8 0,2.6509 -2.149,4.7999 -4.8,4.7999 -2.6509,0 -4.7999,-2.149 -4.7999,-4.7999 z m 10.7999,0 c 0,-3.3137 -2.6863,-6 -6,-6 -3.3137,0 -5.9999,2.6863 -5.9999,6 0,3.3136 2.6862,5.9999 5.9999,5.9999 3.3137,0 6,-2.6863 6,-5.9999 z"
       style="fill:#ff0000;fill-rule:evenodd"
       id="path27334" />
    <path
       d="m 150.7783,7.0556 0.8487,-0.8487 7.2125,7.2125 -0.8487,0.8486 z"
       style="fill:#ff0000;fill-rule:evenodd"
       id="path27336" />
  </g>
</svg>
