<?xml version="1.0" encoding="UTF-8" standalone="no"?>
<svg
   xmlns:dc="http://purl.org/dc/elements/1.1/"
   xmlns:cc="http://creativecommons.org/ns#"
   xmlns:rdf="http://www.w3.org/1999/02/22-rdf-syntax-ns#"
   xmlns:svg="http://www.w3.org/2000/svg"
   xmlns="http://www.w3.org/2000/svg"
   xmlns:sodipodi="http://sodipodi.sourceforge.net/DTD/sodipodi-0.dtd"
   xmlns:inkscape="http://www.inkscape.org/namespaces/inkscape"
   version="1.1"
   width="791.48932"
   height="791.48932"
   id="svg29062"
   viewBox="0 0 791.48933 791.48926"
   sodipodi:docname="R-8a.svg"
   inkscape:version="1.0.2 (e86c870879, 2021-01-15)">
  <metadata
     id="metadata29068">
    <rdf:RDF>
      <cc:Work
         rdf:about="">
        <dc:format>image/svg+xml</dc:format>
        <dc:type
           rdf:resource="http://purl.org/dc/dcmitype/StillImage" />
        <dc:title />
      </cc:Work>
    </rdf:RDF>
  </metadata>
  <defs
     id="defs29066" />
  <sodipodi:namedview
     pagecolor="#ffffff"
     bordercolor="#666666"
     borderopacity="1"
     objecttolerance="10"
     gridtolerance="10"
     guidetolerance="10"
     inkscape:pageopacity="0"
     inkscape:pageshadow="2"
     inkscape:window-width="1920"
     inkscape:window-height="1016"
     id="namedview29064"
     showgrid="false"
     inkscape:zoom="0.049253423"
     inkscape:cx="-8422.8073"
     inkscape:cy="7782.1856"
     inkscape:window-x="0"
     inkscape:window-y="27"
     inkscape:window-maximized="1"
     inkscape:current-layer="svg29062"
     showguides="false"
     inkscape:document-rotation="0" />
  <g
     id="Layer1020"
     transform="matrix(65.957993,0,0,65.957993,-10752.353,-279.497)">
    <path
       d="m 169.0182,4.2375 c -3.3132,0 -6,2.6868 -6,6 0,3.3131 2.6868,5.9999 6,5.9999 3.3131,0 5.9999,-2.6868 5.9999,-5.9999 0,-3.3132 -2.6868,-6 -5.9999,-6 z m -4.8,6 c 0,-2.6505 2.1495,-4.8 4.8,-4.8 2.6504,0 4.7999,2.1495 4.7999,4.8 0,2.6505 -2.1495,4.7999 -4.7999,4.7999 -2.6505,0 -4.8,-2.1494 -4.8,-4.7999 z"
       style="fill:#ff0000;fill-rule:evenodd"
       id="path27339" />
    <path
       d="m 168.4587,9.1323 1.6062,1.6758 c 0.74,-0.4015 1.5499,-1.0673 1.5499,-2.2248 0.1832,0.0437 0.4258,0.26 0.5637,0.26 h 0.0281 c 0.1081,0 0.1973,-0.0833 0.1973,-0.1733 V 8.5833 c 0,-0.1263 -0.5444,-0.9751 -0.6421,-1.133 -0.0918,-0.1484 -0.5962,-1.0629 -0.7106,-1.0629 -0.1165,0 -0.6284,0.9071 -0.7137,1.0596 -0.099,0.177 -0.6389,0.977 -0.6389,1.1074 v 0.0867 c 0,0.0974 0.0498,0.2022 0.1409,0.2022 h 0.1127 c 0.0447,0 0.4103,-0.2301 0.5354,-0.26 v 0.1445 c 0,0.4623 -0.8343,1.1012 -1.1835,1.1846 v -3.525 h -0.8454 z"
       style="fill:#000000;fill-rule:evenodd"
       id="path27341" />
    <path
       d="m 169.2456,11.479 -1.2399,-1.3291 c -0.6999,0.3797 -1.4654,1.5305 -1.4654,2.6582 v 1.1557 h 1.099 v -1.0401 c 0,-0.6575 0.3841,-1.3883 0.7609,-1.647 v 2.716 h 0.8454 z"
       style="fill:#000000;fill-rule:evenodd"
       id="path27343" />
    <path
       d="m 172.3462,14.7447 0.8688,-0.8278 -7.7465,-8.1312 -0.8689,0.8277 z"
       style="fill:#ff0000;fill-rule:evenodd;stroke:#ff0000;stroke-width:0.0027;stroke-linecap:butt;stroke-linejoin:miter;stroke-dasharray:none"
       id="path27345" />
  </g>
</svg>
