<?xml version="1.0" encoding="UTF-8" standalone="no"?>
<svg
   xmlns:dc="http://purl.org/dc/elements/1.1/"
   xmlns:cc="http://creativecommons.org/ns#"
   xmlns:rdf="http://www.w3.org/1999/02/22-rdf-syntax-ns#"
   xmlns:svg="http://www.w3.org/2000/svg"
   xmlns="http://www.w3.org/2000/svg"
   xmlns:sodipodi="http://sodipodi.sourceforge.net/DTD/sodipodi-0.dtd"
   xmlns:inkscape="http://www.inkscape.org/namespaces/inkscape"
   version="1.1"
   width="791.48932"
   height="791.48932"
   id="svg29062"
   viewBox="0 0 791.48933 791.48926"
   sodipodi:docname="R-8b.svg"
   inkscape:version="1.0.2 (e86c870879, 2021-01-15)">
  <metadata
     id="metadata29068">
    <rdf:RDF>
      <cc:Work
         rdf:about="">
        <dc:format>image/svg+xml</dc:format>
        <dc:type
           rdf:resource="http://purl.org/dc/dcmitype/StillImage" />
        <dc:title />
      </cc:Work>
    </rdf:RDF>
  </metadata>
  <defs
     id="defs29066" />
  <sodipodi:namedview
     pagecolor="#ffffff"
     bordercolor="#666666"
     borderopacity="1"
     objecttolerance="10"
     gridtolerance="10"
     guidetolerance="10"
     inkscape:pageopacity="0"
     inkscape:pageshadow="2"
     inkscape:window-width="1920"
     inkscape:window-height="1016"
     id="namedview29064"
     showgrid="false"
     inkscape:zoom="0.049253423"
     inkscape:cx="2121.6922"
     inkscape:cy="4957.8358"
     inkscape:window-x="0"
     inkscape:window-y="27"
     inkscape:window-maximized="1"
     inkscape:current-layer="svg29062"
     showguides="false"
     inkscape:document-rotation="0" />
  <g
     id="Layer1021"
     transform="matrix(65.957993,0,0,65.957993,-207.85342,-1157.5892)">
    <path
       d="M 8.6819,25.5923 8.6948,25.5673 8.7041,25.5405 8.7087,25.5128 8.7077,25.4842 8.7022,25.4564 8.693,25.4296 8.6782,25.4047 8.6606,25.3834 8.6384,25.3649 8.6144,25.3501 8.5876,25.34 8.5599,25.3344 8.5312,25.3335 8.5035,25.3372 8.4758,25.3464"
       style="fill:none"
       id="path27348" />
    <path
       d="m 7.4701,27.3355 0.0102,0.0111 0.0148,0.0074 0.0148,0.0027 0.0157,-0.0027 0.0139,-0.0074 0.0111,-0.0111"
       style="fill:none"
       id="path27350" />
    <path
       d="M 7.4701,27.3355 6.3388,25.5923"
       style="fill:none"
       id="path27352" />
    <path
       d="m 6.5449,25.3464 -0.0277,-0.0092 -0.0277,-0.0037 -0.0287,9e-4 -0.0277,0.0056 -0.0268,0.0101 -0.024,0.0148 -0.0222,0.0185 -0.0176,0.0213 -0.0148,0.0249 -0.0101,0.0268 -0.0047,0.0278 -9e-4,0.0286 0.0046,0.0277 0.0093,0.0268 0.0129,0.025"
       style="fill:none"
       id="path27354" />
    <path
       d="M 7.9665,25.5581 8.4758,25.3464"
       style="fill:none"
       id="path27356" />
    <path
       d="M 7.0542,25.5581 6.5449,25.3464"
       style="fill:none"
       id="path27358" />
    <path
       d="m 7.9665,22.1706 v 3.3875"
       style="fill:none"
       id="path27360" />
    <path
       d="m 10.7264,22.1706 v 5.1861"
       style="fill:none"
       id="path27362" />
    <path
       d="m 11.6386,22.1706 v 5.1861"
       style="fill:none"
       id="path27364" />
    <path
       d="m 7.0542,22.1706 v 3.3875"
       style="fill:none"
       id="path27366" />
    <path
       d="M 10.7264,22.1706 10.7236,22.081 10.7144,21.9904 10.6996,21.9017 10.6792,21.8139 10.6533,21.727 10.621,21.6429 10.584,21.5606 10.5415,21.4811 10.4935,21.4044 10.4408,21.3305 10.3835,21.2611 10.3225,21.1946 10.2559,21.1327 10.1866,21.0754 10.1126,21.0236 10.0359,20.9755 9.9564,20.933 9.8742,20.8961 9.7901,20.8637 9.7032,20.8378 9.6154,20.8175 9.5267,20.8027 9.4361,20.7935 9.3464,20.7907 9.2558,20.7935 9.1662,20.8027 9.0775,20.8175 8.9887,20.8378 8.9028,20.8637 8.8177,20.8961 8.7355,20.933 8.656,20.9755 8.5793,21.0236 8.5063,21.0754 8.436,21.1327 8.3704,21.1946 8.3085,21.2611 8.2512,21.3305 8.1985,21.4044 8.1513,21.4811 8.1088,21.5606 8.0709,21.6429 8.0395,21.727 8.0136,21.8139 7.9924,21.9017 7.9785,21.9904 7.9692,22.081 7.9665,22.1706"
       style="fill:none"
       id="path27368" />
    <path
       d="m 10.7264,27.3567 h 0.9122"
       style="fill:none"
       id="path27370" />
    <path
       d="m 8.0212,19.7986 -0.9368,1.4428 -0.1931,0.2973 -0.001,0.0016 -0.0138,0.0257 -0.0081,0.026 -0.0045,0.0273 9e-4,0.0282 0.0045,0.0271 0.01,0.0263 0.0135,0.0243 0.0182,0.0209 0.0216,0.018 0.0237,0.0146 0.0261,0.0099 0.0272,0.0054 0.0282,0.001 0.0269,-0.0036 0.0256,-0.0088 8e-4,-3e-4 2e-4,-10e-5 0.486,-0.2023 0.0013,0.0032 H 7.582 v 0.0037 1.3727 0.2308 10e-5 l 0.0028,0.08 v 3e-4 l 0.0092,0.0799 v 2e-4 l 0.0147,0.079 0.0212,0.0774 10e-5,2e-4 0.0266,0.0763 10e-5,2e-4 0.0322,0.0735 10e-5,2e-4 0.0367,0.0707 10e-5,3e-4 0.0432,0.0679 10e-5,2e-4 0.0478,0.0652 10e-5,2e-4 0.0524,0.0606 2e-4,2e-4 0.0569,0.057 2e-4,10e-5 0.0606,0.0524 2e-4,10e-5 0.0643,0.0478 2e-4,2e-4 0.068,0.0422 2e-4,1e-4 0.0707,0.0377 3e-4,10e-5 0.0734,0.0321 2e-4,10e-5 0.0763,0.0266 2e-4,10e-5 0.0772,0.0202 2e-4,10e-5 0.079,0.0156 h 3e-4 l 0.0798,0.0092 h 3e-4 l 0.0765,0.0027 0.0035,10e-5 h 2e-4 0.6573 0.1106 v 0.0035 h 0.0035 v 0.0034 2.6248 0.4415 h 0.6334 0.1037 v -3.0697 h 0.0034 v -0.0035 h 0.0035 0.1998 0.0371 v 0.0035 h 0.0034 v 2.6306 0.4187 0.0204 h 0.877 0.1476 V 24.319 l -10e-4,-0.0279 -0.0018,-0.0532 v -2e-4 l -0.0091,-0.079 -10e-5,-2e-4 -0.0147,-0.079 -10e-5,-3e-4 -0.0211,-0.0781 -1e-4,-2e-4 -0.0257,-0.0753 -10e-5,-3e-4 -0.0321,-0.0734 -1e-4,-2e-4 -0.0377,-0.0716 -0.0434,-0.0684 -0.0478,-0.0643 -10e-5,-2e-4 -0.0524,-0.0607 -2e-4,-10e-5 -0.056,-0.057 -0.0617,-0.0525 -2e-4,-2e-4 -0.0643,-0.0477 -0.0681,-0.0433 -3e-4,-2e-4 -0.0707,-0.0367 -2e-4,-10e-5 -0.0735,-0.0321 -2e-4,-10e-5 -0.0763,-0.0267 h -2e-4 l -0.0774,-0.0212 -0.079,-0.0147 -2e-4,-1e-4 -0.0799,-0.0091 -3e-4,-1e-4 -0.0763,-0.0026 -0.0037,-10e-5 h -1e-4 -0.1922 V 23.2384 H 10.1668 V 19.7601 H 9.4297 v 2.9619 0.4989 H 9.4262 l -7e-4,0.0034 -0.0767,-0.0167 -3e-4,-10e-5 -0.0758,-0.0221 -2e-4,-10e-5 -0.074,-0.0287 -2e-4,-10e-5 -0.0721,-0.0332 -2e-4,-2e-4 -0.0693,-0.0388 -3e-4,-10e-5 -0.0656,-0.0434 -2e-4,-2e-4 -0.0628,-0.0481 -2e-4,-10e-5 -0.0592,-0.0527 -10e-5,-10e-5 -0.0555,-0.0564 -10e-5,-10e-5 -10e-5,-2e-4 -0.0499,-0.061 -2e-4,-2e-4 -0.0462,-0.0647 -10e-5,-2e-4 -0.0416,-0.0674 -10e-5,-3e-4 -0.0361,-0.0702 -1e-4,-2e-4 -0.0314,-0.0721 -10e-5,-3e-4 -0.0259,-0.0748 -10e-5,-3e-4 -0.0194,-0.0767 v -2e-4 L 8.5466,22.3166 v -2e-4 L 8.5382,22.2369 v -3e-4 L 8.5355,22.1581 8.5389,22.158 H 8.5355 v -0.5749 h 0.0034 v 0 l 0.0013,-0.0032 0.0077,0.0032 0.3036,0.1266 0.1738,0.0725 2e-4,10e-5 0.0092,0.0032 0.0171,0.0059 0.0278,0.0036 0.0283,-0.001 0.0272,-0.0054 0.0261,-0.0099 0.0235,-0.0145 0.021,-0.0183 0.0181,-0.0207 0.0135,-0.0243 0.01,-0.0263 0.0054,-0.0272 V 21.6192 L 9.2491,21.5922 9.24,21.5659 9.2279,21.5418 9.2272,21.5402 8.0963,19.7986 8.0857,19.7872 8.0729,19.7803 h -3e-4 L 8.0583,19.7777 8.0437,19.7803 8.0309,19.7872 8.0246,19.7946 Z"
       style="fill:#000000;fill-rule:evenodd"
       id="path27372" />
    <path
       d="m 9.1512,17.5504 c -3.3131,0 -5.9999,2.6869 -5.9999,6 0,3.3131 2.6868,5.9999 5.9999,5.9999 3.3131,0 6,-2.6868 6,-5.9999 0,-3.3131 -2.6869,-6 -6,-6 z m -4.7999,6 c 0,-2.6505 2.1494,-4.8 4.7999,-4.8 2.6505,0 4.8,2.1495 4.8,4.8 0,2.6505 -2.1495,4.7999 -4.8,4.7999 -2.6505,0 -4.7999,-2.1494 -4.7999,-4.7999 z"
       style="fill:#ff0000;fill-rule:evenodd"
       id="path27374" />
    <path
       d="M 12.6976,27.9453 13.5461,27.0967 5.6049,19.1555 4.7563,20.004 Z"
       style="fill:#ff0000;fill-rule:evenodd;stroke:#ff0000;stroke-width:0.0027;stroke-linecap:butt;stroke-linejoin:miter;stroke-dasharray:none"
       id="path27376" />
  </g>
</svg>
