<?xml version="1.0" encoding="UTF-8" standalone="no"?>
<svg
   xmlns:dc="http://purl.org/dc/elements/1.1/"
   xmlns:cc="http://creativecommons.org/ns#"
   xmlns:rdf="http://www.w3.org/1999/02/22-rdf-syntax-ns#"
   xmlns:svg="http://www.w3.org/2000/svg"
   xmlns="http://www.w3.org/2000/svg"
   xmlns:sodipodi="http://sodipodi.sourceforge.net/DTD/sodipodi-0.dtd"
   xmlns:inkscape="http://www.inkscape.org/namespaces/inkscape"
   version="1.1"
   width="791.48932"
   height="791.48932"
   id="svg29062"
   viewBox="0 0 791.48933 791.48926"
   sodipodi:docname="R-9.svg"
   inkscape:version="1.0.2 (e86c870879, 2021-01-15)">
  <metadata
     id="metadata29068">
    <rdf:RDF>
      <cc:Work
         rdf:about="">
        <dc:format>image/svg+xml</dc:format>
        <dc:type
           rdf:resource="http://purl.org/dc/dcmitype/StillImage" />
        <dc:title />
      </cc:Work>
    </rdf:RDF>
  </metadata>
  <defs
     id="defs29066" />
  <sodipodi:namedview
     pagecolor="#ffffff"
     bordercolor="#666666"
     borderopacity="1"
     objecttolerance="10"
     gridtolerance="10"
     guidetolerance="10"
     inkscape:pageopacity="0"
     inkscape:pageshadow="2"
     inkscape:window-width="1920"
     inkscape:window-height="1016"
     id="namedview29064"
     showgrid="false"
     inkscape:zoom="0.049253423"
     inkscape:cx="1035.8258"
     inkscape:cy="4957.8358"
     inkscape:window-x="0"
     inkscape:window-y="27"
     inkscape:window-maximized="1"
     inkscape:current-layer="svg29062"
     showguides="false"
     inkscape:document-rotation="0" />
  <g
     id="Layer1022"
     transform="matrix(65.957993,0,0,65.957993,-1293.7199,-1157.5892)">
    <path
       d="m 25.6143,17.5504 c -3.3131,0 -6,2.6869 -6,6 0,3.3131 2.6869,5.9999 6,5.9999 3.3131,0 5.9999,-2.6868 5.9999,-5.9999 0,-3.3131 -2.6868,-6 -5.9999,-6 z m -4.8,6 c 0,-2.6505 2.1495,-4.8 4.8,-4.8 2.6505,0 4.7999,2.1495 4.7999,4.8 0,2.6505 -2.1494,4.7999 -4.7999,4.7999 -2.6505,0 -4.8,-2.1494 -4.8,-4.7999 z"
       style="fill:#ff0000;fill-rule:evenodd"
       id="path27379" />
    <path
       d="m 29.4411,21.3427 h -4.5534 v 3.0011 h 4.5534 z"
       style="fill:#000000;fill-rule:evenodd"
       id="path27381" />
    <path
       d="m 28.8409,24.944 -0.003,-0.0591 -0.0074,-0.0577 -0.0148,-0.0576 -0.0207,-0.0547 -0.0251,-0.0532 -0.0296,-0.0503 -0.0354,-0.0473 -0.04,-0.0444 -0.0428,-0.0399 -0.0473,-0.034 -0.0503,-0.031 -0.0532,-0.0252 -0.0562,-0.0192 -0.0562,-0.0148 -0.0591,-0.0088 -0.0591,-0.003 -0.0577,0.003 -0.0591,0.0088 -0.0562,0.0148 -0.0562,0.0192 -0.0532,0.0252 -0.0503,0.031 -0.0473,0.034 -0.0443,0.0399 -0.0385,0.0444 -0.0355,0.0473 -0.0295,0.0503 -0.0252,0.0532 -0.0206,0.0547 -0.0148,0.0576 -0.0074,0.0577 -0.003,0.0591 0.003,0.0592 0.0074,0.0576 0.0148,0.0577 0.0206,0.0547 0.0252,0.0532 0.0295,0.0517 0.0355,0.0473 0.0385,0.0429 0.0443,0.0399 0.0473,0.0355 0.0503,0.0296 0.0532,0.0251 0.0562,0.0207 0.0562,0.0133 0.0591,0.0089 0.0577,0.003 0.0591,-0.003 0.0591,-0.0089 0.0562,-0.0133 0.0562,-0.0207 0.0532,-0.0251 0.0503,-0.0296 0.0473,-0.0355 0.0428,-0.0399 0.04,-0.0429 0.0354,-0.0473 0.0296,-0.0517 0.0251,-0.0532 0.0207,-0.0547 0.0148,-0.0577 0.0074,-0.0576 z"
       style="fill:#000000;fill-rule:evenodd"
       id="path27383" />
    <path
       d="m 27.5,24.944 -0.003,-0.0591 -0.0088,-0.0577 -0.0133,-0.0576 -0.0207,-0.0547 -0.0252,-0.0532 -0.0295,-0.0503 -0.0355,-0.0473 -0.0399,-0.0444 -0.0429,-0.0399 -0.0473,-0.034 -0.0503,-0.031 -0.0532,-0.0252 -0.0562,-0.0192 -0.0561,-0.0148 -0.0592,-0.0088 -0.0591,-0.003 -0.0577,0.003 -0.0591,0.0088 -0.0562,0.0148 -0.0562,0.0192 -0.0532,0.0252 -0.0503,0.031 -0.0473,0.034 -0.0443,0.0399 -0.0384,0.0444 -0.0355,0.0473 -0.0311,0.0503 -0.0251,0.0532 -0.0192,0.0547 -0.0148,0.0576 -0.0089,0.0577 -0.0015,0.0591 0.0015,0.0592 0.0089,0.0576 0.0148,0.0577 0.0192,0.0547 0.0251,0.0532 0.0311,0.0517 0.0355,0.0473 0.0384,0.0429 0.0443,0.0399 0.0473,0.0355 0.0503,0.0296 0.0532,0.0251 0.0562,0.0207 0.0562,0.0133 0.0591,0.0089 0.0577,0.003 0.0591,-0.003 0.0592,-0.0089 0.0561,-0.0133 0.0562,-0.0207 0.0532,-0.0251 0.0503,-0.0296 0.0473,-0.0355 0.0429,-0.0399 0.0399,-0.0429 0.0355,-0.0473 0.0295,-0.0517 0.0252,-0.0532 0.0207,-0.0547 0.0133,-0.0577 0.0088,-0.0576 z"
       style="fill:#000000;fill-rule:evenodd"
       id="path27385" />
    <path
       d="m 24.6408,22.3392 v 2.0046"
       style="fill:#000000;fill-rule:evenodd"
       id="path27387" />
    <path
       d="M 24.6408,24.3438 H 23.4833"
       style="fill:#000000;fill-rule:evenodd"
       id="path27389" />
    <path
       d="m 23.4419,24.944 -0.003,-0.0591 -0.0088,-0.0577 -0.0148,-0.0576 -0.0192,-0.0547 -0.0252,-0.0532 -0.031,-0.0503 -0.034,-0.0473 -0.0399,-0.0444 -0.0444,-0.0399 -0.0473,-0.034 -0.0503,-0.031 -0.0532,-0.0252 -0.0547,-0.0192 -0.0576,-0.0148 -0.0577,-0.0088 -0.0591,-0.003 -0.0592,0.003 -0.0576,0.0088 -0.0577,0.0148 -0.0547,0.0192 -0.0532,0.0252 -0.0517,0.031 -0.0473,0.034 -0.0429,0.0399 -0.0399,0.0444 -0.0355,0.0473 -0.0296,0.0503 -0.0251,0.0532 -0.0192,0.0547 -0.0148,0.0576 -0.0089,0.0577 -0.0029,0.0591 0.0029,0.0592 0.0089,0.0576 0.0148,0.0577 0.0192,0.0547 0.0251,0.0532 0.0296,0.0517 0.0355,0.0473 0.0399,0.0429 0.0429,0.0399 0.0473,0.0355 0.0517,0.0296 0.0532,0.0251 0.0547,0.0207 0.0577,0.0133 0.0576,0.0089 0.0592,0.003 0.0591,-0.003 0.0577,-0.0089 0.0576,-0.0133 0.0547,-0.0207 0.0532,-0.0251 0.0503,-0.0296 0.0473,-0.0355 0.0444,-0.0399 0.0399,-0.0429 0.034,-0.0473 0.031,-0.0517 0.0252,-0.0532 0.0192,-0.0547 0.0148,-0.0577 0.0088,-0.0576 z"
       style="fill:#000000;fill-rule:evenodd"
       id="path27391" />
    <path
       d="m 23.4833,24.3438 -0.0518,-0.0502 -0.0547,-0.0459 -0.0591,-0.0414 -0.0621,-0.0369 -0.0636,-0.0311 -0.068,-0.0266 -0.0694,-0.0207 -0.0695,-0.0133 -0.071,-0.0089 -0.0724,-0.0029 -0.0725,0.0029 -0.0709,0.0089 -0.071,0.0133 -0.068,0.0207 -0.068,0.0266 -0.0636,0.0311 -0.0621,0.0369 -0.0591,0.0414 -0.0562,0.0459 -0.0502,0.0502"
       style="fill:#000000;fill-rule:evenodd"
       id="path27393" />
    <path
       d="m 22.6288,23.1434 0.8131,-0.8042"
       style="fill:#000000;fill-rule:evenodd"
       id="path27395" />
    <path
       d="m 23.4419,22.3392 h 1.1989"
       style="fill:#000000;fill-rule:evenodd"
       id="path27397" />
    <path
       d="m 23.4419,22.5432 h 0.9314"
       style="fill:#000000;fill-rule:evenodd"
       id="path27399" />
    <path
       d="m 24.3733,22.5432 v 0.6002"
       style="fill:#000000;fill-rule:evenodd"
       id="path27401" />
    <path
       d="M 24.3733,23.1434 H 22.9895"
       style="fill:#000000;fill-rule:evenodd"
       id="path27403" />
    <path
       d="m 22.9895,23.1434 0.4524,-0.6002"
       style="fill:#000000;fill-rule:evenodd"
       id="path27405" />
    <path
       d="m 22.9895,23.1434 h 1.3838"
       style="fill:#000000;fill-rule:evenodd"
       id="path27407" />
    <path
       d="m 23.4445,24.8846 0.0029,0.0592 v 3e-4 2e-4 l -0.0029,0.0591 v 2e-4 l -10e-5,4e-4 -0.0089,0.0576 v 3e-4 l -10e-5,3e-4 -0.0148,0.0576 -10e-5,5e-4 -0.0192,0.0547 -2e-4,3e-4 -10e-5,2e-4 -0.0251,0.0533 -10e-5,10e-5 -1e-4,3e-4 -0.0311,0.0518 -3e-4,4e-4 -0.034,0.0473 -2e-4,4e-4 -2e-4,10e-5 -0.0399,0.0429 -2e-4,2e-4 -2e-4,10e-5 -0.0443,0.04 -2e-4,10e-5 -2e-4,2e-4 -0.0473,0.0354 -2e-4,2e-4 -3e-4,2e-4 -0.0503,0.0295 -3e-4,2e-4 -10e-5,10e-5 -0.0532,0.0251 -4e-4,2e-4 -0.0547,0.0207 -4e-4,10e-5 -4e-4,10e-5 -0.0576,0.0133 -4e-4,10e-5 -0.0577,0.0089 h -4e-4 -10e-5 l -0.0592,0.003 h -2e-4 -3e-4 l -0.0591,-0.003 h -2e-4 -4e-4 l -0.0576,-0.0089 -4e-4,-10e-5 -0.0577,-0.0133 -4e-4,-10e-5 -3e-4,-10e-5 -0.0547,-0.0207 -4e-4,-2e-4 -0.0533,-0.0251 -3e-4,-2e-4 -0.0518,-0.0296 -3e-4,-10e-5 -3e-4,-3e-4 -0.0473,-0.0354 -2e-4,-2e-4 -2e-4,-2e-4 -0.0429,-0.04 -2e-4,-2e-4 -0.04,-0.0429 -2e-4,-2e-4 -10e-5,-2e-4 -0.0355,-0.0473 -3e-4,-3e-4 -10e-5,-3e-4 -0.0296,-0.0518 -2e-4,-3e-4 -0.0251,-0.0533 -10e-5,-2e-4 -10e-5,-3e-4 -0.0192,-0.0547 -2e-4,-5e-4 -0.0148,-0.0576 -10e-5,-3e-4 v -3e-4 L 22.2389,25.004 v -4e-4 -2e-4 l -0.003,-0.0591 v -2e-4 -3e-4 l 0.003,-0.0592 v -10e-5 -4e-4 l 0.0089,-0.0577 v -2e-4 l 10e-5,-3e-4 0.0148,-0.0577 2e-4,-4e-4 0.0192,-0.0547 10e-5,-3e-4 10e-5,-3e-4 0.0251,-0.0532 10e-5,-1e-4 2e-4,-3e-4 0.0295,-0.0503 2e-4,-3e-4 2e-4,-2e-4 0.0355,-0.0473 10e-5,-2e-4 2e-4,-2e-4 0.0399,-0.0444 10e-5,-10e-5 2e-4,-2e-4 0.0429,-0.0399 1e-4,-10e-5 4e-4,-3e-4 0.0473,-0.0341 4e-4,-2e-4 0.0518,-0.031 3e-4,-2e-4 10e-5,-10e-5 0.0533,-0.0251 2e-4,-10e-5 3e-4,-2e-4 0.0547,-0.0192 5e-4,-10e-5 0.0576,-0.0148 3e-4,-10e-5 h 3e-4 l 0.0576,-0.0089 4e-4,-10e-5 h 2e-4 l 0.0591,-0.0029 h 3e-4 2e-4 l 0.0592,0.0029 h 10e-5 l 4e-4,10e-5 0.0577,0.0089 h 2e-4 l 3e-4,10e-5 0.0577,0.0148 4e-4,10e-5 0.0547,0.0192 3e-4,2e-4 3e-4,10e-5 0.0532,0.0251 2e-4,10e-5 3e-4,2e-4 0.0503,0.031 3e-4,2e-4 0.0473,0.0341 4e-4,3e-4 h 10e-5 l 0.0443,0.0399 2e-4,2e-4 3e-4,2e-4 0.0399,0.0444 10e-5,10e-5 2e-4,4e-4 0.034,0.0473 2e-4,3e-4 0.0311,0.0503 2e-4,3e-4 10e-5,2e-4 0.0251,0.0532 10e-5,3e-4 2e-4,3e-4 0.0192,0.0547 10e-5,4e-4 0.0148,0.0577 10e-5,3e-4 v 2e-4 l 0.0089,0.0577 10e-5,4e-4 z"
       style="fill:#000000;fill-rule:evenodd;stroke:#1b1918;stroke-width:0.216;stroke-linecap:butt;stroke-linejoin:miter;stroke-dasharray:none"
       id="path27409" />
    <path
       d="m 24.8877,21.3372 h 4.5534 0.0055 v 0.0055 3.0011 0.0056 h -0.0055 -1.0868 l 0.0054,8e-4 h 2e-4 l 4e-4,10e-5 0.0562,0.0148 4e-4,10e-5 0.0562,0.0192 2e-4,10e-5 3e-4,2e-4 0.0532,0.0251 2e-4,10e-5 4e-4,2e-4 0.0503,0.031 3e-4,2e-4 0.0473,0.0341 4e-4,3e-4 1e-4,10e-5 0.0429,0.0399 2e-4,2e-4 10e-5,10e-5 0.04,0.0444 10e-5,2e-4 2e-4,2e-4 0.0355,0.0473 10e-5,2e-4 2e-4,3e-4 0.0296,0.0503 10e-5,3e-4 10e-5,1e-4 0.0251,0.0532 2e-4,5e-4 0.0207,0.0546 10e-5,4e-4 10e-5,2e-4 0.0148,0.0577 v 2e-4 l 10e-5,4e-4 0.0074,0.0577 10e-5,4e-4 0.0029,0.0592 v 3e-4 2e-4 l -0.0029,0.0591 -10e-5,5e-4 -0.0074,0.0576 -10e-5,5e-4 v 2e-4 l -0.0148,0.0576 -10e-5,3e-4 -10e-5,3e-4 -0.0207,0.0547 -2e-4,4e-4 -0.0251,0.0533 -2e-4,3e-4 -0.0296,0.0518 -10e-5,3e-4 -2e-4,3e-4 -0.0355,0.0473 -2e-4,2e-4 -2e-4,2e-4 -0.0399,0.0429 -3e-4,2e-4 -0.0429,0.04 -2e-4,2e-4 -2e-4,2e-4 -0.0473,0.0354 -2e-4,2e-4 -3e-4,2e-4 -0.0503,0.0295 -3e-4,2e-4 -2e-4,10e-5 -0.0532,0.0251 -2e-4,10e-5 -2e-4,10e-5 -0.0562,0.0207 -3e-4,10e-5 -4e-4,10e-5 -0.0561,0.0133 -5e-4,10e-5 -0.0591,0.0089 h -5e-4 -10e-5 l -0.0591,0.003 h -3e-4 -2e-4 l -0.0577,-0.003 v 0 h -5e-4 l -0.0591,-0.0089 -5e-4,-10e-5 -0.0562,-0.0133 -3e-4,-10e-5 -3e-4,-10e-5 -0.0562,-0.0207 -2e-4,-10e-5 -2e-4,-10e-5 -0.0533,-0.0251 -10e-5,-10e-5 -3e-4,-2e-4 -0.0503,-0.0295 -3e-4,-2e-4 -2e-4,-2e-4 -0.0473,-0.0354 -2e-4,-2e-4 -2e-4,-10e-5 -0.0443,-0.04 -4e-4,-3e-4 -10e-5,-10e-5 -0.0384,-0.0429 v 10e-5 l -3e-4,-4e-4 -0.0355,-0.0473 -2e-4,-3e-4 -2e-4,-3e-4 -0.0295,-0.0518 -2e-4,-3e-4 -0.0252,-0.0533 -10e-5,-4e-4 -0.0207,-0.0547 -2e-4,-3e-4 v -3e-4 l -0.0148,-0.0576 -10e-5,-3e-4 v -4e-4 l -0.0074,-0.0576 -10e-5,-5e-4 -0.0029,-0.0591 v -2e-4 -3e-4 l 0.0029,-0.0592 10e-5,-4e-4 0.0074,-0.0577 v -4e-4 l 10e-5,-2e-4 0.0148,-0.0577 v -2e-4 l 2e-4,-4e-4 0.0207,-0.0546 10e-5,-5e-4 0.0252,-0.0532 v -1e-4 l 2e-4,-3e-4 0.0296,-0.0503 2e-4,-3e-4 10e-5,-2e-4 0.0355,-0.0473 3e-4,-3e-4 0.0384,-0.0444 3e-4,-3e-4 2e-4,-2e-4 0.0443,-0.0399 h 10e-5 l 4e-4,-3e-4 0.0473,-0.0341 3e-4,-2e-4 0.0503,-0.031 3e-4,-2e-4 2e-4,-10e-5 0.0533,-0.0251 3e-4,-2e-4 2e-4,-10e-5 0.0562,-0.0192 4e-4,-10e-5 0.0561,-0.0148 5e-4,-10e-5 h 10e-5 l 0.0055,-8e-4 h -1.1151 l 0.0055,8e-4 h 10e-5 l 5e-4,10e-5 0.0561,0.0148 4e-4,10e-5 0.0562,0.0192 2e-4,10e-5 3e-4,2e-4 0.0533,0.0251 2e-4,10e-5 3e-4,2e-4 0.0503,0.031 3e-4,2e-4 0.0473,0.0341 4e-4,3e-4 2e-4,10e-5 0.0428,0.0399 2e-4,2e-4 2e-4,10e-5 0.0399,0.0444 1e-4,2e-4 2e-4,2e-4 0.0355,0.0473 10e-5,2e-4 2e-4,3e-4 0.0296,0.0503 2e-4,3e-4 v 1e-4 l 0.0252,0.0532 10e-5,5e-4 0.0207,0.0546 10e-5,4e-4 10e-5,4e-4 0.0134,0.0576 10e-5,4e-4 0.0088,0.0577 10e-5,4e-4 v 10e-5 l 0.0029,0.0592 v 3e-4 2e-4 l -0.0029,0.0591 v 2e-4 l -10e-5,4e-4 -0.0088,0.0576 -10e-5,5e-4 -0.0134,0.0576 -10e-5,4e-4 -10e-5,3e-4 -0.0207,0.0547 -10e-5,4e-4 -0.0252,0.0533 -2e-4,3e-4 -0.0295,0.0518 -2e-4,3e-4 -2e-4,3e-4 -0.0355,0.0473 -2e-4,2e-4 -2e-4,2e-4 -0.0399,0.0429 -3e-4,2e-4 -0.0428,0.04 -3e-4,2e-4 -2e-4,2e-4 -0.0473,0.0354 -2e-4,2e-4 -3e-4,2e-4 -0.0503,0.0295 -3e-4,2e-4 -10e-5,10e-5 -0.0533,0.0251 -2e-4,10e-5 -2e-4,10e-5 -0.0562,0.0207 -3e-4,10e-5 -3e-4,10e-5 -0.0562,0.0133 -5e-4,10e-5 -0.0591,0.0089 h -5e-4 v 0 L 26.9,25.5498 h -2e-4 -3e-4 l -0.0577,-0.003 v 0 h -5e-4 l -0.0591,-0.0089 -5e-4,-10e-5 -0.0561,-0.0133 -4e-4,-10e-5 -3e-4,-10e-5 -0.0561,-0.0207 -3e-4,-10e-5 -2e-4,-10e-5 -0.0532,-0.0251 -2e-4,-10e-5 -3e-4,-2e-4 -0.0502,-0.0295 -4e-4,-2e-4 -2e-4,-2e-4 -0.0473,-0.0354 -2e-4,-2e-4 -2e-4,-10e-5 -0.0443,-0.04 -4e-4,-3e-4 v -10e-5 l -0.0385,-0.0429 v 0 l -3e-4,-3e-4 -0.0354,-0.0473 -1e-4,-2e-4 -2e-4,-3e-4 -0.0311,-0.0518 -2e-4,-3e-4 -10e-5,-10e-5 -0.0251,-0.0533 -10e-5,-2e-4 -10e-5,-3e-4 -0.0192,-0.0547 -2e-4,-5e-4 -0.0148,-0.0576 v -3e-4 l -10e-5,-3e-4 -0.0089,-0.0576 v -4e-4 -3e-4 l -0.0015,-0.0591 v -3e-4 l 0.0015,-0.0591 v -3e-4 -4e-4 l 0.0089,-0.0577 10e-5,-2e-4 v -3e-4 l 0.0148,-0.0577 2e-4,-4e-4 0.0192,-0.0547 10e-5,-3e-4 10e-5,-3e-4 0.0251,-0.0532 10e-5,-2e-4 3e-4,-3e-4 0.031,-0.0503 2e-4,-3e-4 1e-4,-10e-5 0.0354,-0.0473 3e-4,-3e-4 0.0384,-0.0444 3e-4,-3e-4 2e-4,-2e-4 0.0443,-0.0399 h 10e-5 l 4e-4,-3e-4 0.0473,-0.0341 3e-4,-2e-4 0.0503,-0.031 4e-4,-2e-4 2e-4,-10e-5 0.0532,-0.0251 3e-4,-2e-4 3e-4,-10e-5 0.0561,-0.0192 4e-4,-10e-5 0.0562,-0.0148 4e-4,-10e-5 h 2e-4 l 0.0054,-8e-4 h -1.8999 -0.0055 v -0.0056 -3.0011 -0.0055 z"
       style="fill:#000000;fill-rule:evenodd;stroke:#1b1918;stroke-width:0.216;stroke-linecap:butt;stroke-linejoin:miter;stroke-dasharray:none"
       id="path27411" />
    <path
       d="m 23.3351,25.2753 10e-5,-10e-5"
       style="fill:#000000;fill-rule:evenodd;stroke:#1b1918;stroke-width:0.216;stroke-linecap:butt;stroke-linejoin:miter;stroke-dasharray:none"
       id="path27413" />
    <path
       d="M 26.7286,24.3757 Z"
       style="fill:#000000;fill-rule:evenodd;stroke:#1b1918;stroke-width:0.216;stroke-linecap:butt;stroke-linejoin:miter;stroke-dasharray:none"
       id="path27415" />
    <path
       d="M 27.0725,24.3757 Z"
       style="fill:#000000;fill-rule:evenodd;stroke:#1b1918;stroke-width:0.216;stroke-linecap:butt;stroke-linejoin:miter;stroke-dasharray:none"
       id="path27417" />
    <path
       d="m 28.0695,24.3757 h -10e-5 z"
       style="fill:#000000;fill-rule:evenodd;stroke:#1b1918;stroke-width:0.216;stroke-linecap:butt;stroke-linejoin:miter;stroke-dasharray:none"
       id="path27419" />
    <path
       d="M 28.4133,24.3757 Z"
       style="fill:#000000;fill-rule:evenodd;stroke:#1b1918;stroke-width:0.216;stroke-linecap:butt;stroke-linejoin:miter;stroke-dasharray:none"
       id="path27421" />
    <path
       d="m 24.6408,24.3438 v -2.0046 h -1.1989 l -0.0039,-0.004 -0.8115,0.8026 h -0.9853 v 0.0056 h -0.0055 v 1.2004 h 0.0055 v 0.0056 h 0.5589 v -0.0056 l 0.0502,-0.0502 0.0562,-0.0459 0.0591,-0.0414 0.0621,-0.0369 0.0636,-0.0311 0.068,-0.0266 0.068,-0.0207 0.071,-0.0133 0.0709,-0.0089 0.0725,-0.0029 0.0724,0.0029 0.071,0.0089 0.0695,0.0133 0.0694,0.0207 0.068,0.0266 0.0636,0.0311 0.0621,0.0369 0.0591,0.0414 0.0547,0.0459 0.0518,0.0502 z m -0.2676,-1.1949 h -1.3837 v -0.0055 l -0.0044,-0.0033 0.4524,-0.6003 0.0044,0.0034 v -0.0056 h 0.9313 v 0.0056 h 0.0056 v 0.6002 h -0.0056 z"
       style="fill:#000000;fill-rule:evenodd"
       id="path27423" />
    <path
       d="m 29.1606,27.9453 0.8486,-0.8486 -7.9413,-7.9412 -0.8485,0.8485 z"
       style="fill:#ff0000;fill-rule:evenodd;stroke:#ff0000;stroke-width:0.0027;stroke-linecap:butt;stroke-linejoin:miter;stroke-dasharray:none"
       id="path27425" />
  </g>
</svg>
