<?xml version="1.0" encoding="UTF-8" standalone="no"?>
<svg
   version="1.1"
   width="446"
   height="427"
   id="svg16"
   sodipodi:docname="SR-30.svg"
   inkscape:version="1.2.2 (b0a8486541, 2022-12-01)"
   xmlns:inkscape="http://www.inkscape.org/namespaces/inkscape"
   xmlns:sodipodi="http://sodipodi.sourceforge.net/DTD/sodipodi-0.dtd"
   xmlns="http://www.w3.org/2000/svg"
   xmlns:svg="http://www.w3.org/2000/svg">
  <defs
     id="defs20" />
  <sodipodi:namedview
     id="namedview18"
     pagecolor="#ffffff"
     bordercolor="#666666"
     borderopacity="1.0"
     inkscape:showpageshadow="2"
     inkscape:pageopacity="0.0"
     inkscape:pagecheckerboard="0"
     inkscape:deskcolor="#d1d1d1"
     showgrid="false"
     inkscape:zoom="1.5433255"
     inkscape:cx="114.68741"
     inkscape:cy="214.47193"
     inkscape:window-width="1600"
     inkscape:window-height="831"
     inkscape:window-x="0"
     inkscape:window-y="32"
     inkscape:window-maximized="1"
     inkscape:current-layer="svg16" />
  <path
     d="M0 0 C2.09957134 0.00315579 4.19772074 -0.02039579 6.29711914 -0.0456543 C35.5611497 -0.18384632 65.72138645 10.41221468 88.79907227 28.31567383 C89.7259082 29.02208008 90.65274414 29.72848633 91.60766602 30.45629883 C122.49217408 54.81344278 140.1777827 88.43465764 146.11157227 127.06567383 C150.1938518 162.75646063 140.62829834 201.95757002 118.24438477 230.34692383 C117.43743164 231.32661133 116.63047852 232.30629883 115.79907227 233.31567383 C115.33597656 233.88415039 114.87288086 234.45262695 114.39575195 235.03833008 C89.4301785 265.55730172 55.52344058 282.55577012 16.79907227 288.31567383 C-20.54858791 290.5235223 -57.63637387 281.87735415 -87.14624023 257.92504883 C-89.54608841 255.76738716 -91.87562192 253.5529951 -94.20092773 251.31567383 C-95.59092283 250.12134532 -96.98649542 248.93346732 -98.38842773 247.75317383 C-102.39795762 244.23085773 -105.8645174 240.47956688 -109.20092773 236.31567383 C-109.60182617 235.81600098 -110.00272461 235.31632813 -110.41577148 234.80151367 C-127.05512073 213.79865556 -137.88806343 188.96138413 -141.20092773 162.31567383 C-141.32983398 161.35016602 -141.45874023 160.3846582 -141.59155273 159.38989258 C-141.89507268 156.69415626 -142.077408 154.02562204 -142.20092773 151.31567383 C-142.2537793 150.17614258 -142.30663086 149.03661133 -142.36108398 147.86254883 C-143.28414704 108.2109706 -128.29800832 71.97604753 -101.20092773 43.31567383 C-100.50483398 42.56672852 -99.80874023 41.8177832 -99.09155273 41.04614258 C-73.53378967 14.41569967 -36.64010348 -0.11451358 0 0 Z "
     fill="#FEFEFE"
     transform="translate(213.200927734375,67.684326171875)"
     id="path4"
     style="fill:#ffffff" />
  <text
     xml:space="preserve"
     style="font-style:normal;font-variant:normal;font-weight:bold;font-stretch:normal;font-size:175.615px;line-height:1.25;font-family:sans-serif;-inkscape-font-specification:'sans-serif, Bold';font-variant-ligatures:normal;font-variant-caps:normal;font-variant-numeric:normal;font-variant-east-asian:normal;letter-spacing:0px;word-spacing:0px;text-anchor:middle;fill:#000000;fill-opacity:1;stroke:none;stroke-width:0.914664"
     x="233.03189"
     y="259.20593"
     id="face"
     transform="scale(0.91466406,1.0932976)">99</text>
  <path
     id="path6"
     transform="translate(213.1875,27.625)"
     d="M 0,0 C 1.1381163,0.00747757 1.1381163,0.00747757 2.2992249,0.0151062 42.568677,0.32353691 81.748521,12.611122 113.8125,37.375 c 0.87012,0.647109 1.74023,1.294219 2.63672,1.960937 14.78645,11.457803 28.13849,25.375643 38.36328,41.039063 0.71156,1.073789 1.42312,2.147578 2.15625,3.253906 19.02717,29.821424 28.99852,63.003704 29.08398,98.319824 0.01,2.39376 0.0407,4.78662 0.0723,7.18018 0.32974,48.4454 -22.12899,93.07867 -55.1875,127.43359 -5.94457,5.81077 -12.48106,10.83657 -19.125,15.8125 -0.84305,0.63809 -1.68609,1.27617 -2.55469,1.93359 -23.115937,16.85051 -50.370332,27.41654 -78.44531,32.06641 -1.49636,0.26708 -1.49636,0.26708 -3.022949,0.53955 -7.792583,1.32084 -15.329845,1.77679 -23.227051,1.71045 -1.1802173,-0.007 -2.3604346,-0.0135 -3.57641602,-0.0205 C -8.2077019,368.49629 -17.126785,367.91513 -26.1875,366.375 c -0.762642,-0.12359 -1.525283,-0.24718 -2.311035,-0.37451 -19.397834,-3.21932 -37.441138,-9.19505 -54.688965,-18.62549 -1.373606,-0.73064 -2.747306,-1.46111 -4.121094,-2.19141 -42.544066,-22.9392 -72.591606,-62.55689 -86.964846,-108.26172 -4.22887,-14.18101 -6.97409,-28.46024 -7.1875,-43.26171 -0.0125,-0.80502 -0.025,-1.61003 -0.038,-2.43944 -0.23635,-18.84643 0.2744,-36.54395 5.3114,-54.84572 0.22462,-0.825 0.44924,-1.65 0.68066,-2.5 8.30419,-29.39705 24.26774,-55.560352 45.31934,-77.5 0.51079,-0.538022 1.02158,-1.076045 1.54785,-1.630371 C -103.30659,28.17067 -70.045757,10.73392 -34.1875,3.375 -33.201783,3.1692838 -33.201783,3.1692838 -32.196152,2.9594116 -21.391775,0.74191824 -11.017988,-0.12304724 0,0 Z m -106.74219,88.743164 c -24.65504,27.836876 -37.49607,65.568616 -35.44531,102.631836 2.89693,39.37481 19.54317,74.70923 48.671875,101.45312 31.465917,26.62501 69.359223,37.87835 110.328125,35.54688 6.820349,-0.72802 13.381065,-2.24539 20,-4 1.420455,-0.34294 2.841026,-0.68539 4.261719,-1.02734 16.345814,-4.16214 32.265613,-11.83726 45.738281,-21.97266 0.843047,-0.63422 1.686094,-1.26844 2.554687,-1.92188 32.051823,-24.96247 51.237233,-59.26849 56.906253,-99.33593 0.29451,-2.92122 0.449,-5.8076 0.53906,-8.74219 0.0516,-1.25555 0.10312,-2.51109 0.15625,-3.80469 0.32056,-11.28227 -1.06664,-22.12267 -3.15625,-33.19531 -0.12858,-0.69448 -0.25717,-1.38896 -0.38965,-2.10449 -4.23829,-21.88167 -15.01107,-43.13441 -29.61035,-59.89551 -0.73219,-0.841758 -1.46438,-1.683516 -2.21875,-2.550781 -2.22839,-2.51457 -4.49476,-4.987473 -6.78125,-7.449219 -0.5891,-0.654844 -1.1782,-1.309687 -1.78516,-1.984375 C 81.429471,57.416184 46.817205,41.801503 15.337646,40.197998 -32.67691,39.392783 -73.424334,52.730485 -106.74219,88.743164 Z"
     style="fill:#ff0000" />
</svg>
