<?xml version="1.0" encoding="UTF-8" standalone="no"?>
<svg
   version="1.1"
   width="791.48932"
   height="791.48932"
   id="svg29062"
   viewBox="0 0 791.48933 791.48926"
   sodipodi:docname="R-19.svg"
   inkscape:version="1.2.2 (b0a8486541, 2022-12-01)"
   xmlns:inkscape="http://www.inkscape.org/namespaces/inkscape"
   xmlns:sodipodi="http://sodipodi.sourceforge.net/DTD/sodipodi-0.dtd"
   xmlns="http://www.w3.org/2000/svg"
   xmlns:svg="http://www.w3.org/2000/svg"
   xmlns:rdf="http://www.w3.org/1999/02/22-rdf-syntax-ns#"
   xmlns:cc="http://creativecommons.org/ns#"
   xmlns:dc="http://purl.org/dc/elements/1.1/">
  <metadata
     id="metadata29068">
    <rdf:RDF>
      <cc:Work
         rdf:about="">
        <dc:format>image/svg+xml</dc:format>
        <dc:type
           rdf:resource="http://purl.org/dc/dcmitype/StillImage" />
        <dc:title />
      </cc:Work>
    </rdf:RDF>
  </metadata>
  <defs
     id="defs29066" />
  <sodipodi:namedview
     pagecolor="#ffffff"
     bordercolor="#666666"
     borderopacity="1"
     objecttolerance="10"
     gridtolerance="10"
     guidetolerance="10"
     inkscape:pageopacity="0"
     inkscape:pageshadow="2"
     inkscape:window-width="1600"
     inkscape:window-height="831"
     id="namedview29064"
     showgrid="false"
     inkscape:zoom="0.78586026"
     inkscape:cx="395.74466"
     inkscape:cy="395.74466"
     inkscape:window-x="0"
     inkscape:window-y="32"
     inkscape:window-maximized="1"
     inkscape:current-layer="Layer1028"
     showguides="false"
     inkscape:document-rotation="0"
     inkscape:showpageshadow="2"
     inkscape:pagecheckerboard="0"
     inkscape:deskcolor="#d1d1d1" />
  <g
     id="Layer1028"
     transform="matrix(65.957993,0,0,65.957993,-9815.143,-1157.5892)">
    <circle
       style="fill:#ffffff;stroke:none;stroke-width:0.0151612"
       id="path324"
       cx="154.69699"
       cy="23.515076"
       r="5.4596305" />
    <path
       d="m 154.8089,18.8004 c 2.6229,0 4.75,2.1271 4.75,4.75 0,2.6229 -2.1271,4.7499 -4.75,4.7499 -2.6229,0 -4.7499,-2.127 -4.7499,-4.7499 0,-2.6229 2.127,-4.75 4.7499,-4.75 z m 6,4.75 c 0,-3.3131 -2.6869,-6 -6,-6 -3.3131,0 -5.9999,2.6869 -5.9999,6 0,3.3131 2.6868,5.9999 5.9999,5.9999 3.3131,0 6,-2.6868 6,-5.9999 z"
       style="fill:#ff0000;fill-rule:evenodd"
       id="path27527" />
    <path
       d="m 156.3823,27.0713 v -0.4226 c 0,-0.0325 -0.0101,-0.0598 -0.0304,-0.0819 -0.0204,-0.022 -0.0457,-0.033 -0.0762,-0.033 -0.0166,0 -0.033,0.0028 -0.0492,0.0086 -0.0161,0.0057 -0.0306,0.0136 -0.0436,0.0237 -0.0129,0.0101 -0.0235,0.0216 -0.0318,0.0345 -0.008,0.0129 -0.0125,0.0266 -0.0125,0.041 v 0.4297 h -0.1855 v -0.9054 l 0.1855,-0.0748 v 0.3148 c 0.0388,-0.0221 0.0716,-0.0372 0.0983,-0.0453 0.0268,-0.0082 0.0559,-0.0122 0.0873,-0.0122 0.0332,0 0.0643,0.0062 0.0934,0.0187 0.0291,0.0124 0.0547,0.0292 0.0769,0.0503 0.0221,0.021 0.0394,0.0459 0.0519,0.0747 0.0125,0.0287 0.0187,0.0594 0.0187,0.092 v 0.4872 z"
       style="fill:#000000;fill-rule:evenodd"
       id="path27531" />
    <path
       d="m 155.7275,26.0926 -0.3498,0.9766 h -0.1889 l 0.3498,-0.9766 z"
       style="fill:#000000;fill-rule:evenodd"
       id="path27533" />
    <path
       d="m 154.7706,27.0713 v -0.4226 c 0,-0.0163 -0.003,-0.0313 -0.01,-0.0452 -0.006,-0.0139 -0.0152,-0.0261 -0.0263,-0.0367 -0.011,-0.0105 -0.0237,-0.0187 -0.038,-0.0244 -0.0144,-0.0058 -0.0298,-0.0086 -0.0464,-0.0086 -0.0157,0 -0.0305,0.0031 -0.0443,0.0093 -0.0139,0.0062 -0.0261,0.0144 -0.0367,0.0244 -0.0106,0.0101 -0.0192,0.0216 -0.0256,0.0345 -0.006,0.013 -0.01,0.0261 -0.01,0.0396 v 0.4297 h -0.1759 v -0.4226 c 0,-0.0325 -0.0115,-0.0598 -0.0346,-0.0819 -0.0231,-0.022 -0.0508,-0.033 -0.0831,-0.033 -0.0166,0 -0.0321,0.0028 -0.0464,0.0086 -0.0143,0.0057 -0.027,0.0136 -0.038,0.0237 -0.0111,0.0101 -0.0199,0.022 -0.0263,0.0359 -0.007,0.0139 -0.01,0.0285 -0.01,0.0439 v 0.4254 h -0.1856 v -0.7028 h 0.1856 v 0.0374 c 0.0323,-0.0202 0.0616,-0.0343 0.0879,-0.0424 0.0263,-0.0082 0.0556,-0.0122 0.0879,-0.0122 0.0702,0 0.1297,0.0273 0.1786,0.0819 0.0222,-0.0163 0.0418,-0.0297 0.0589,-0.0403 0.017,-0.0105 0.0334,-0.0189 0.0491,-0.0251 0.0157,-0.0063 0.0316,-0.0106 0.0478,-0.013 0.0161,-0.0024 0.0339,-0.0035 0.0533,-0.0035 0.036,0 0.0702,0.0059 0.1025,0.0179 0.0323,0.012 0.0609,0.0285 0.0858,0.0496 0.0249,0.0211 0.0448,0.0462 0.0595,0.0754 0.0148,0.0293 0.0222,0.0606 0.0222,0.0942 v 0.4829 z"
       style="fill:#000000;fill-rule:evenodd"
       id="path27535" />
    <path
       d="m 153.4525,26.5841 0.1883,0.4872 h -0.1883 l -0.1232,-0.3248 -0.108,0.1121 v 0.2127 h -0.1856 v -0.9054 l 0.1856,-0.0748 v 0.4772 l 0.1952,-0.1969 h 0.2312 z"
       style="fill:#000000;fill-rule:evenodd"
       id="path27537" />
  </g>
<text x="400" y="500" font-size="400" fill="black" text-anchor="middle" font-family="sans-serif">40</text></svg>
