<?xml version="1.0" encoding="UTF-8" standalone="no"?>
<svg
   version="1.1"
   width="791.48932"
   height="791.48932"
   id="svg29062"
   viewBox="0 0 791.48933 791.48926"
   sodipodi:docname="camera-photo.svg"
   inkscape:version="1.2.2 (b0a8486541, 2022-12-01)"
   xmlns:inkscape="http://www.inkscape.org/namespaces/inkscape"
   xmlns:sodipodi="http://sodipodi.sourceforge.net/DTD/sodipodi-0.dtd"
   xmlns="http://www.w3.org/2000/svg"
   xmlns:svg="http://www.w3.org/2000/svg"
   xmlns:rdf="http://www.w3.org/1999/02/22-rdf-syntax-ns#"
   xmlns:cc="http://creativecommons.org/ns#"
   xmlns:dc="http://purl.org/dc/elements/1.1/">
  <metadata
     id="metadata29068">
    <rdf:RDF>
      <cc:Work
         rdf:about="">
        <dc:format>image/svg+xml</dc:format>
        <dc:type
           rdf:resource="http://purl.org/dc/dcmitype/StillImage" />
        <dc:title />
      </cc:Work>
    </rdf:RDF>
  </metadata>
  <defs
     id="defs29066" />
  <sodipodi:namedview
     pagecolor="#ffffff"
     bordercolor="#666666"
     borderopacity="1"
     objecttolerance="10"
     gridtolerance="10"
     guidetolerance="10"
     inkscape:pageopacity="0"
     inkscape:pageshadow="2"
     inkscape:window-width="1600"
     inkscape:window-height="831"
     id="namedview29064"
     showgrid="false"
     inkscape:zoom="0.55568712"
     inkscape:cx="-34.191903"
     inkscape:cy="397.70582"
     inkscape:window-x="0"
     inkscape:window-y="32"
     inkscape:window-maximized="1"
     inkscape:current-layer="Layer1028"
     showguides="false"
     inkscape:document-rotation="0"
     inkscape:showpageshadow="2"
     inkscape:pagecheckerboard="0"
     inkscape:deskcolor="#d1d1d1" />
  <g
     id="Layer1028"
     transform="matrix(65.957993,0,0,65.957993,-9815.143,-1157.5892)">
    <circle
       style="fill:#ffffff;stroke:none;stroke-width:0.0151612"
       id="path324"
       cx="154.69699"
       cy="23.515076"
       r="5.4596305" />
    <path
       d="m 154.8089,18.8004 c 2.6229,0 4.75,2.1271 4.75,4.75 0,2.6229 -2.1271,4.7499 -4.75,4.7499 -2.6229,0 -4.7499,-2.127 -4.7499,-4.7499 0,-2.6229 2.127,-4.75 4.7499,-4.75 z m 6,4.75 c 0,-3.3131 -2.6869,-6 -6,-6 -3.3131,0 -5.9999,2.6869 -5.9999,6 0,3.3131 2.6868,5.9999 5.9999,5.9999 3.3131,0 6,-2.6868 6,-5.9999 z"
       style="fill:#ff0000;fill-rule:evenodd"
       id="path27527" />
    <path
       d="m 151.76417,21.410572 c -0.21111,0.02565 -0.37091,0.183613 -0.37091,0.421942 v 3.357695 c 0,0.21301 0.18545,0.398728 0.42615,0.398728 h 1.50586 c 0,-0.02762 0,-0.05458 -0.0263,-0.0803 -0.10588,-0.265621 -0.15586,-0.554654 -0.15586,-0.84564 0,-0.291138 0.0526,-0.55689 0.15586,-0.820512 0.10522,-0.265753 0.26569,-0.529401 0.47679,-0.714961 v 0 c 0.2111,-0.210971 0.45114,-0.369068 0.71281,-0.474619 0.26569,-0.107524 0.55703,-0.160201 0.82265,-0.160201 0.29133,0 0.58201,0.05261 0.84789,0.160201 0.26569,0.105551 0.50178,0.263648 0.71696,0.474619 v 0 c 0.21111,0.185586 0.36697,0.449235 0.47285,0.714961 0.10982,0.263648 0.16046,0.529335 0.16046,0.820512 0,0.291005 -0.0526,0.580038 -0.16046,0.84564 -0.0263,0.02565 -0.0263,0.05261 -0.0526,0.0803 h 0.39655 c 0.2361,0 0.42155,-0.185718 0.42155,-0.398728 v -3.357695 c 0,-0.238395 -0.18545,-0.396558 -0.39656,-0.421942 h -1.56058 l -0.10522,-0.556759 c -0.0263,-0.158228 -0.16046,-0.263648 -0.31633,-0.263648 h -1.00822 -0.97877 c -0.15981,0 -0.29134,0.10542 -0.31633,0.263648 l -0.10982,0.556759 z m 4.3956,2.431895 c -0.10522,-0.10542 -0.2407,-0.21301 -0.37091,-0.265752 -0.16046,-0.05261 -0.29133,-0.07806 -0.47679,-0.07806 -0.15586,0 -0.29133,0.02499 -0.42155,0.07806 -0.16046,0.05261 -0.29133,0.160332 -0.40116,0.265752 -0.10127,0.10542 -0.1815,0.238329 -0.26174,0.371304 -0.0526,0.158097 -0.0802,0.291006 -0.0802,0.449234 0,0.158097 0.0263,0.316259 0.0802,0.449234 0.0802,0.158097 0.16047,0.263648 0.26174,0.396426 0.10983,0.10542 0.2407,0.183613 0.40116,0.238395 0.13088,0.05261 0.26569,0.104367 0.42155,0.104367 0.18546,0 0.31633,-0.0513 0.47679,-0.104367 0.13021,-0.05458 0.26569,-0.132975 0.37091,-0.238395 0.10522,-0.132778 0.18546,-0.238329 0.23609,-0.396426 0.0802,-0.132909 0.10523,-0.291137 0.10523,-0.449234 0,-0.158228 -0.0263,-0.291137 -0.10523,-0.449234 -0.0526,-0.132975 -0.13087,-0.265884 -0.23609,-0.371304 z m -0.8479,-1.242204 c 0.29134,0 0.55703,0.05261 0.79299,0.158228 v 0 c 0.26568,0.10542 0.48073,0.263517 0.68743,0.449103 v 0 c 0.18545,0.185718 0.34592,0.421942 0.4518,0.660192 v 0 c 0.10522,0.265753 0.16046,0.529532 0.16046,0.795252 0,0.291006 -0.0526,0.554654 -0.16046,0.792996 v 0 c -0.10522,0.263648 -0.26569,0.475672 -0.4518,0.686511 v 0 0 c -0.2065,0.185586 -0.42155,0.345787 -0.68743,0.451207 v 0 c -0.2361,0.07602 -0.50178,0.15619 -0.79299,0.15619 -0.26568,0 -0.53137,-0.08017 -0.79298,-0.15619 v 0 c -0.24069,-0.10542 -0.47679,-0.265621 -0.66244,-0.451207 -0.18545,-0.210839 -0.34592,-0.422863 -0.45114,-0.686511 v 0 c -0.10522,-0.238395 -0.15586,-0.501977 -0.15586,-0.792996 0,-0.265753 0.0526,-0.529532 0.15586,-0.795252 v 0 c 0.10522,-0.238263 0.26569,-0.474487 0.45114,-0.660192 v 0 c 0.18546,-0.185586 0.42221,-0.343617 0.66244,-0.449103 v 0 c 0.26174,-0.105551 0.52743,-0.158228 0.79298,-0.158228 z m 1.00823,1.084002 c -0.13481,-0.132975 -0.29133,-0.238395 -0.45114,-0.291006 -0.18545,-0.08017 -0.34592,-0.10542 -0.55702,-0.10542 -0.18545,0 -0.37157,0.02499 -0.53137,0.10542 -0.15586,0.05261 -0.31633,0.158031 -0.4472,0.291006 -0.13481,0.130805 -0.23609,0.289033 -0.29133,0.449234 -0.0802,0.158229 -0.10523,0.343815 -0.10523,0.529532 0,0.21084 0.0263,0.368937 0.10523,0.527231 0.0526,0.185586 0.15586,0.343814 0.29133,0.476592 0.13087,0.10542 0.29134,0.214193 0.4472,0.289954 0.16046,0.0803 0.34592,0.105551 0.53137,0.105551 0.2111,0 0.37091,-0.02499 0.55702,-0.105551 0.16047,-0.07576 0.31633,-0.184534 0.45114,-0.289954 0.13022,-0.132843 0.2361,-0.291006 0.29134,-0.476592 0.0756,-0.15836 0.10522,-0.316391 0.10522,-0.527231 0,-0.185717 -0.0329,-0.371303 -0.10522,-0.529532 -0.0526,-0.160201 -0.16047,-0.318363 -0.29134,-0.449234 z m -3.12589,-1.349755 h -0.18546 c -0.18545,0 -0.34592,-0.130804 -0.34592,-0.31639 0,-0.158229 0.15981,-0.291138 0.34592,-0.291138 h 0.18546 c 0.18545,0 0.34592,0.132975 0.34592,0.291138 0,0.185586 -0.16047,0.31639 -0.34592,0.31639 v 0"
       style="fill:#000000;fill-opacity:1;fill-rule:evenodd;stroke:none;stroke-width:0.0132941"
       id="path54" />
  </g>
</svg>
