<?xml version="1.0" encoding="UTF-8" standalone="no"?>
<svg
   xmlns:dc="http://purl.org/dc/elements/1.1/"
   xmlns:cc="http://creativecommons.org/ns#"
   xmlns:rdf="http://www.w3.org/1999/02/22-rdf-syntax-ns#"
   xmlns:svg="http://www.w3.org/2000/svg"
   xmlns="http://www.w3.org/2000/svg"
   xmlns:sodipodi="http://sodipodi.sourceforge.net/DTD/sodipodi-0.dtd"
   xmlns:inkscape="http://www.inkscape.org/namespaces/inkscape"
   height="800px"
   width="800px"
   version="1.1"
   id="Capa_1"
   viewBox="0 0 452.168 452.168"
   xml:space="preserve"
   sodipodi:docname="download-cloud-svgrepo-com.svg"
   inkscape:version="1.0.2 (e86c870879, 2021-01-15)"><metadata
   id="metadata19"><rdf:RDF><cc:Work
       rdf:about=""><dc:format>image/svg+xml</dc:format><dc:type
         rdf:resource="http://purl.org/dc/dcmitype/StillImage" /></cc:Work></rdf:RDF></metadata><defs
   id="defs17">
	

		
		
	</defs><sodipodi:namedview
   pagecolor="#ffffff"
   bordercolor="#666666"
   borderopacity="1"
   objecttolerance="10"
   gridtolerance="10"
   guidetolerance="10"
   inkscape:pageopacity="0"
   inkscape:pageshadow="2"
   inkscape:window-width="1518"
   inkscape:window-height="1010"
   id="namedview15"
   showgrid="false"
   inkscape:zoom="1.07"
   inkscape:cx="400"
   inkscape:cy="325.23364"
   inkscape:window-x="0"
   inkscape:window-y="27"
   inkscape:window-maximized="0"
   inkscape:current-layer="Capa_1" />
<g
   id="g4">
			<polygon
   style="fill:#010002"
   points="238.395,383.002 238.395,216.212 213.798,216.212 213.798,383.002 157.841,327.037 140.446,344.424 226.096,430.075 311.739,344.424 294.352,327.037 "
   id="polygon2" />
		</g><g
   id="g8">
			<path
   style="fill:#010002"
   d="m 357.34,105.037 c -4.072,0 -8.185,0.268 -12.282,0.797 C 324.249,75.376 286.37,58.997 249.377,65.809 231.949,38.7 201.841,22.094 169.392,22.094 120.328,22.094 79.978,58.99 74.816,107.233 31.084,116.613 0,154.727 0,200.207 c 0,52.47 42.691,95.161 95.161,95.161 h 95.031 V 270.982 H 95.169 c -39.025,0 -70.775,-31.75 -70.775,-70.776 0,-36.351 27.231,-66.606 63.33,-70.377 L 101.95687,129.30991 98.633,117.238 C 88.275533,79.620861 130.375,46.471 169.4,46.471 c 26.743,0 50.909,14.867 63.07,38.798 L 234.07127,96.135436 246.735,91.455 c 32.051,-9.291 65.972,5.406 81.635,33.693 l 3.94267,10.55024 9.35633,-4.54324 c 5.202,-1.146 10.461,-1.731 15.664,-1.731 38.855,0 70.467,31.75 70.467,70.775 0,39.017 -31.75,70.776 -70.776,70.776 h -95.698 v 24.386 h 95.681 c 52.47,0 95.161,-42.691 95.161,-95.161 0,-52.471 -42.537,-95.163 -94.828,-95.163 z"
   id="path6"
   sodipodi:nodetypes="sccscssccssccssccccccsssccsss" />
		</g>
</svg>
