<?xml version="1.0" encoding="UTF-8" standalone="no"?>
<svg
   xmlns:dc="http://purl.org/dc/elements/1.1/"
   xmlns:cc="http://creativecommons.org/ns#"
   xmlns:rdf="http://www.w3.org/1999/02/22-rdf-syntax-ns#"
   xmlns:svg="http://www.w3.org/2000/svg"
   xmlns="http://www.w3.org/2000/svg"
   xmlns:sodipodi="http://sodipodi.sourceforge.net/DTD/sodipodi-0.dtd"
   xmlns:inkscape="http://www.inkscape.org/namespaces/inkscape"
   version="1.1"
   width="791.48932"
   height="791.48932"
   id="svg29062"
   viewBox="0 0 791.48933 791.48926"
   sodipodi:docname="download.svg"
   inkscape:version="1.0.2 (e86c870879, 2021-01-15)">
  <metadata
     id="metadata29068">
    <rdf:RDF>
      <cc:Work
         rdf:about="">
        <dc:format>image/svg+xml</dc:format>
        <dc:type
           rdf:resource="http://purl.org/dc/dcmitype/StillImage" />
        <dc:title></dc:title>
      </cc:Work>
    </rdf:RDF>
  </metadata>
  <defs
     id="defs29066" />
  <sodipodi:namedview
     pagecolor="#ffffff"
     bordercolor="#666666"
     borderopacity="1"
     objecttolerance="10"
     gridtolerance="10"
     guidetolerance="10"
     inkscape:pageopacity="0"
     inkscape:pageshadow="2"
     inkscape:window-width="1920"
     inkscape:window-height="1016"
     id="namedview29064"
     showgrid="false"
     inkscape:zoom="0.27861943"
     inkscape:cx="553.62901"
     inkscape:cy="458.10757"
     inkscape:window-x="0"
     inkscape:window-y="27"
     inkscape:window-maximized="1"
     inkscape:current-layer="svg29062"
     showguides="false"
     inkscape:document-rotation="0" />
  <path
     d="m 395.74133,82.447452 c 173.00122,0 313.30047,140.299248 313.30047,313.300468 0,173.00122 -140.29925,313.29387 -313.30047,313.29387 -173.00122,0 -313.293869,-140.29265 -313.293869,-313.29387 0,-173.00122 140.292649,-313.300468 313.293869,-313.300468 z M 791.48929,395.74792 C 791.48929,177.2159 614.27335,-3.96528e-5 395.74133,-3.96528e-5 177.21591,-3.96528e-5 -3.013e-5,177.2159 -3.013e-5,395.74792 c 0,218.52542 177.21594013,395.74136 395.74136013,395.74136 218.53202,0 395.74796,-177.21594 395.74796,-395.74136 z"
     style="fill:#ff0000;fill-rule:evenodd;stroke-width:65.958"
     id="path27511" />
  <path
     d="M 515.72552,490.95169 H 284.79999 v 0.0198 h -0.14511 l -115.08351,-0.0198 230.67489,143.74225 230.71447,-143.6697 -115.09011,-0.0132 h -0.1451 z"
     style="fill:#000000;fill-rule:evenodd;stroke-width:65.958"
     id="path27513" />
  <text
     xml:space="preserve"
     style="font-style:normal;font-weight:normal;font-size:289.706px;line-height:1.25;font-family:sans-serif;fill:#000000;fill-opacity:1;stroke:none;stroke-width:7.24266"
     x="216.40712"
     y="426.61551"
     id="text80"><tspan
       sodipodi:role="line"
       id="tspan78"
       x="216.40712"
       y="426.61551"
       style="stroke-width:7.24266">d/l</tspan></text>
</svg>
