<?xml version="1.0" encoding="UTF-8" standalone="no"?>
<svg
   xmlns:dc="http://purl.org/dc/elements/1.1/"
   xmlns:cc="http://creativecommons.org/ns#"
   xmlns:rdf="http://www.w3.org/1999/02/22-rdf-syntax-ns#"
   xmlns:svg="http://www.w3.org/2000/svg"
   xmlns="http://www.w3.org/2000/svg"
   xmlns:sodipodi="http://sodipodi.sourceforge.net/DTD/sodipodi-0.dtd"
   xmlns:inkscape="http://www.inkscape.org/namespaces/inkscape"
   version="1.1"
   width="791.48108"
   height="791.49921"
   id="svg29062"
   viewBox="0 0 791.48109 791.49915"
   sodipodi:docname="run.svg"
   inkscape:version="1.0.2 (e86c870879, 2021-01-15)">
  <metadata
     id="metadata29068">
    <rdf:RDF>
      <cc:Work
         rdf:about="">
        <dc:format>image/svg+xml</dc:format>
        <dc:type
           rdf:resource="http://purl.org/dc/dcmitype/StillImage" />
        <dc:title></dc:title>
      </cc:Work>
    </rdf:RDF>
  </metadata>
  <defs
     id="defs29066" />
  <sodipodi:namedview
     pagecolor="#ffffff"
     bordercolor="#666666"
     borderopacity="1"
     objecttolerance="10"
     gridtolerance="10"
     guidetolerance="10"
     inkscape:pageopacity="0"
     inkscape:pageshadow="2"
     inkscape:window-width="1920"
     inkscape:window-height="1016"
     id="namedview29064"
     showgrid="false"
     inkscape:zoom="0.39402738"
     inkscape:cx="377.10778"
     inkscape:cy="411.57954"
     inkscape:window-x="0"
     inkscape:window-y="27"
     inkscape:window-maximized="1"
     inkscape:current-layer="svg29062"
     showguides="false"
     inkscape:document-rotation="0" />
  <path
     d="M 17.343687,353.70139 353.69647,17.348605 c 23.13147,-23.1314677 60.97157,-23.1314677 84.08325,0 L 774.15229,353.70139 c 23.10509,23.12487 23.10509,60.97157 0,84.09644 L 437.77972,774.15062 c -23.11168,23.13147 -60.95178,23.13147 -84.08325,0 L 17.343687,437.79783 c -23.1248719,-23.12487 -23.1248719,-60.97157 0,-84.09644 z"
     style="fill:#ffec00;fill-rule:evenodd;stroke-width:65.958"
     id="path28590" />
  <path
     d="M 24.097786,364.12275 364.12443,24.102704 c 8.70646,-8.706455 20.16996,-13.059683 31.62686,-13.059683 11.4569,0 22.9204,4.353228 31.62026,13.059683 L 767.3982,364.12275 c 8.70645,8.70646 13.05308,20.16996 13.05308,31.62686 0,11.4569 -4.34663,22.9204 -13.05308,31.62686 L 427.37155,767.39652 c -8.69986,8.70645 -20.16336,13.05968 -31.62026,13.05968 -11.4569,0 -22.927,-4.35323 -31.62686,-13.05968 L 24.097786,427.37647 c -8.706455,-8.70646 -13.053087,-20.16996 -13.053087,-31.62686 0,-11.4569 4.346632,-22.9204 13.053087,-31.62686 z M 376.7356,36.713872 36.708954,376.73392 c -5.217277,5.22387 -7.829214,12.11649 -7.829214,19.01569 0,6.89921 2.611937,13.79182 7.829214,19.01569 L 376.7356,754.78535 c 5.21728,5.22387 12.10989,7.83581 19.01569,7.83581 6.89921,0 13.79182,-2.61194 19.00909,-7.83581 L 754.78703,414.7653 c 5.21728,-5.22387 7.82921,-12.11648 7.82921,-19.01569 0,-6.8992 -2.61193,-13.79182 -7.82921,-19.01569 L 414.76038,36.713872 c -5.21727,-5.223873 -12.10988,-7.829214 -19.00909,-7.829214 -6.9058,0 -13.79841,2.605341 -19.01569,7.829214 z"
     style="fill:#000000;fill-rule:evenodd;stroke-width:65.958"
     id="path28592" />
  <path
     d="m 369.46703,237.9649 v 114.48329 c 0,3.87833 1.17405,5.04579 5.05238,5.04579 h 183.50173 c 3.88493,0 5.05239,-1.16746 5.05239,-5.04579 V 237.9649 c -3.7728,-0.87724 -3.87174,-1.68193 -8.41624,-1.68193 H 377.88327 c -2.65151,0 -6.37814,0.89043 -8.41624,1.68193 z"
     style="fill:#000000;fill-rule:evenodd;stroke-width:65.958"
     id="path28596" />
  <path
     d="m 206.16823,308.67187 v 55.55642 c 3.7728,0.88383 3.86514,1.68852 8.41624,1.68852 h 11.7801 c 7.20261,0 8.56134,-13.46862 26.93724,-13.46862 h 11.78669 c 12.47926,0 20.1106,13.46862 25.25532,13.46862 h 57.23835 c 5.1777,0 6.73431,-4.93366 6.73431,-10.10476 V 280.0527 c 0,-3.9377 -2.79662,-6.73432 -6.73431,-6.73432 h -55.55642 c -16.31141,0 -24.12743,18.73207 -32.24027,28.36854 -8.469,10.05859 -39.4099,3.67386 -53.61725,6.98495 z m 73.4904,2.77023 h 61.55199 v -23.67232 h -45.76825 c -5.51408,0 -15.26927,17.53164 -15.78374,23.67232 z"
     style="fill:#000000;fill-rule:evenodd;stroke-width:65.958"
     id="path28598" />
  <path
     d="m 279.65863,311.4421 h 61.55199 v -23.67232 h -45.76825 c -5.51408,0 -15.26927,17.53164 -15.78374,23.67232 z"
     style="fill:#fee901;fill-rule:evenodd;stroke-width:65.958"
     id="path28600" />
  <path
     d="m 258.35419,415.10169 c 15.078,0 27.30002,-12.22862 27.30002,-27.30002 0,-15.07799 -12.22202,-27.30661 -27.30002,-27.30661 -15.07799,0 -27.30001,12.22862 -27.30001,27.30661 0,15.0714 12.22202,27.30002 27.30001,27.30002 z"
     style="fill:#000000;fill-rule:evenodd;stroke-width:65.958"
     id="path28602" />
  <path
     d="m 452.80495,415.10169 c 15.0714,0 27.30002,-12.22862 27.30002,-27.30002 0,-15.07799 -12.22862,-27.30661 -27.30002,-27.30661 -15.07799,0 -27.30661,12.22862 -27.30661,27.30661 0,15.0714 12.22862,27.30002 27.30661,27.30002 z"
     style="fill:#000000;fill-rule:evenodd;stroke-width:65.958"
     id="path28604" />
  <path
     d="m 520.98573,415.10169 c 15.078,0 27.30001,-12.22862 27.30001,-27.30002 0,-15.07799 -12.22201,-27.30661 -27.30001,-27.30661 -15.078,0 -27.30001,12.22862 -27.30001,27.30661 0,15.0714 12.22201,27.30002 27.30001,27.30002 z"
     style="fill:#000000;fill-rule:evenodd;stroke-width:65.958"
     id="path28606" />
  <g
     id="Layer1152"
     transform="matrix(65.957993,0,0,65.957993,-7940.752,-8542.0927)">
    <path
       d="m 124.2512,137.9258 -0.7075,-0.7075 0.7075,-0.7075 z"
       style="fill:#000000;fill-rule:evenodd"
       id="path28608" />
    <path
       d="m 128.5578,137.9258 0.7075,-0.7075 -0.7075,-0.7075 z"
       style="fill:#000000;fill-rule:evenodd"
       id="path28610" />
  </g>
  <text
     xml:space="preserve"
     style="font-style:normal;font-weight:normal;font-size:120.253px;line-height:1.25;font-family:sans-serif;fill:#000000;fill-opacity:1;stroke:none;stroke-width:3.00633"
     x="272.54529"
     y="547.69806"
     id="text268"><tspan
       sodipodi:role="line"
       id="tspan266"
       x="272.54529"
       y="547.69806"
       style="font-style:oblique;font-variant:normal;font-weight:bold;font-stretch:normal;font-family:'DejaVu Sans';-inkscape-font-specification:'DejaVu Sans Bold Oblique';stroke-width:3.00633">Run</tspan></text>
</svg>
